<svg width="718" height="52" viewBox="0 0 718 52" fill="none" xmlns="http://www.w3.org/2000/svg">
<path opacity="0.3" d="M8.55075 49.848L8.25387 50.5368L8.25814 50.5386L8.55075 49.848ZM2.66275 45.24L2.05508 45.6796L2.66275 45.24ZM0.422753 38.136V37.386H-0.339058L-0.327156 38.1477L0.422753 38.136ZM10.0228 38.136L10.7709 38.0838L10.7222 37.386H10.0228V38.136ZM11.9428 42.488L11.4331 43.0384L11.4432 43.0475L11.9428 42.488ZM21.7348 42.616L22.2108 43.1955L22.2169 43.1906L22.2228 43.1854L21.7348 42.616ZM22.3108 35.384L21.767 35.9006L22.3108 35.384ZM19.2388 33.4L18.9433 34.0894L18.9579 34.0956L18.9728 34.1012L19.2388 33.4ZM14.2468 31.736L14.0351 32.4556L14.0445 32.4582L14.2468 31.736ZM7.14275 29.24L6.8203 29.9171L6.8299 29.9217L6.83963 29.926L7.14275 29.24ZM2.47075 25.464L1.87075 25.914L1.87708 25.9224L1.88364 25.9307L2.47075 25.464ZM2.53475 11.768L3.1567 12.1871L2.53475 11.768ZM8.10275 7.288L8.39822 7.97743L8.40849 7.97285L8.10275 7.288ZM27.4948 9.08L27.0294 9.66829L27.0392 9.67577L27.4948 9.08ZM32.2948 18.424V19.174H33.1027L33.0427 18.3683L32.2948 18.424ZM22.4388 18.424L21.6899 18.4656L21.7293 19.174H22.4388V18.424ZM20.4548 14.648L19.9667 15.2174L19.9775 15.2267L19.9887 15.2356L20.4548 14.648ZM11.4308 14.456L10.9484 13.8817L10.9426 13.8866L10.9369 13.8916L11.4308 14.456ZM11.0468 21.368L10.5023 21.8838L10.5162 21.8985L10.5309 21.9125L11.0468 21.368ZM13.9908 23.288L13.6861 23.9734L13.7012 23.98L13.7165 23.9861L13.9908 23.288ZM18.9828 24.952L18.7672 25.6704L18.7711 25.6715L18.9828 24.952ZM30.8228 31.352L30.2299 31.8114L30.8228 31.352ZM30.9508 44.728L30.3088 44.3402L30.9508 44.728ZM25.5108 49.656L25.8462 50.3269L25.8556 50.322L25.5108 49.656ZM16.9988 50.698C13.9707 50.698 11.2561 50.1798 8.84336 49.1574L8.25814 50.5386C10.8801 51.6495 13.7975 52.198 16.9988 52.198V50.698ZM8.84762 49.1593C6.48573 48.1412 4.63488 46.6866 3.27042 44.8004L2.05508 45.6796C3.59196 47.8041 5.66644 49.4215 8.25388 50.5367L8.84762 49.1593ZM3.27042 44.8004C1.91922 42.9326 1.21318 40.7178 1.17266 38.1243L-0.327156 38.1477C-0.282346 41.0156 0.504951 43.5368 2.05508 45.6796L3.27042 44.8004ZM0.422753 38.886H10.0228V37.386H0.422753V38.886ZM9.27457 38.1882C9.41342 40.1784 10.1175 41.8201 11.4332 43.0383L12.4523 41.9377C11.464 41.0226 10.8881 39.763 10.7709 38.0838L9.27457 38.1882ZM11.4432 43.0475C12.8103 44.268 14.6274 44.838 16.8068 44.838V43.338C14.8901 43.338 13.4645 42.8413 12.4423 41.9285L11.4432 43.0475ZM16.8068 44.838C19.0099 44.838 20.8413 44.3205 22.2108 43.1955L21.2587 42.0365C20.2389 42.8742 18.7849 43.338 16.8068 43.338V44.838ZM22.2228 43.1854C23.5895 42.0141 24.2768 40.4806 24.2768 38.648H22.7768C22.7768 40.058 22.2694 41.1699 21.2467 42.0466L22.2228 43.1854ZM24.2768 38.648C24.2768 37.1588 23.8143 35.8778 22.8545 34.8674L21.767 35.9006C22.4285 36.5969 22.7768 37.4918 22.7768 38.648H24.2768ZM22.8545 34.8674C21.9571 33.9228 20.8342 33.203 19.5047 32.6988L18.9728 34.1012C20.118 34.5356 21.043 35.1385 21.767 35.9006L22.8545 34.8674ZM19.5342 32.7106C18.2954 32.1797 16.5953 31.6147 14.449 31.0138L14.0445 32.4582C16.1649 33.0519 17.7927 33.5963 18.9433 34.0894L19.5342 32.7106ZM14.4584 31.0165C11.5743 30.1682 9.23994 29.3467 7.44588 28.554L6.83963 29.926C8.7149 30.7546 11.1166 31.5971 14.0351 32.4555L14.4584 31.0165ZM7.4652 28.5629C5.78352 27.7621 4.31464 26.5784 3.05787 24.9973L1.88364 25.9307C3.2722 27.6776 4.91799 29.0113 6.8203 29.9171L7.4652 28.5629ZM3.07075 25.014C1.91516 23.4732 1.30075 21.3855 1.30075 18.68H-0.199247C-0.199247 21.6065 0.466341 24.0415 1.87075 25.914L3.07075 25.014ZM1.30075 18.68C1.30075 16.1658 1.92714 14.0116 3.1567 12.1871L1.9128 11.3489C0.497028 13.4497 -0.199247 15.9036 -0.199247 18.68H1.30075ZM3.1567 12.1871C4.39092 10.3557 6.12787 8.95035 8.39819 7.97736L7.80731 6.59864C5.29896 7.67365 3.32392 9.25495 1.9128 11.3489L3.1567 12.1871ZM8.40849 7.97285C10.6863 6.95596 13.31 6.438 16.2948 6.438V4.938C13.1355 4.938 10.2978 5.48671 7.79702 6.60314L8.40849 7.97285ZM16.2948 6.438C20.7793 6.438 24.3349 7.53674 27.0295 9.66821L27.9601 8.49179C24.9372 6.1006 21.0262 4.938 16.2948 4.938V6.438ZM27.0392 9.67577C29.7521 11.7504 31.2623 14.6584 31.5468 18.4797L33.0427 18.3683C32.7299 14.1683 31.0401 10.847 27.9503 8.48423L27.0392 9.67577ZM32.2948 17.674H22.4388V19.174H32.2948V17.674ZM23.1876 18.3824C23.09 16.6259 22.321 15.1709 20.9208 14.0604L19.9887 15.2356C21.0632 16.0878 21.6168 17.1501 21.6899 18.4656L23.1876 18.3824ZM20.9428 14.0786C19.5783 12.909 17.7887 12.362 15.6548 12.362V13.862C17.5315 13.862 18.9419 14.339 19.9667 15.2174L20.9428 14.0786ZM15.6548 12.362C13.7754 12.362 12.1819 12.8456 10.9484 13.8817L11.9131 15.0303C12.813 14.2744 14.0355 13.862 15.6548 13.862V12.362ZM10.9369 13.8916C9.71025 14.9649 9.14475 16.4964 9.14475 18.36H10.6448C10.6448 16.8103 11.1033 15.7391 11.9246 15.0204L10.9369 13.8916ZM9.14475 18.36C9.14475 19.7318 9.59253 20.9235 10.5023 21.8838L11.5912 20.8522C10.965 20.1912 10.6448 19.3775 10.6448 18.36H9.14475ZM10.5309 21.9125C11.4109 22.7461 12.4662 23.4312 13.6861 23.9734L14.2954 22.6026C13.2113 22.1208 12.3039 21.5259 11.5626 20.8235L10.5309 21.9125ZM13.7165 23.9861C14.9395 24.4665 16.6262 25.028 18.7672 25.6704L19.1983 24.2336C17.0727 23.5959 15.4314 23.0482 14.265 22.5899L13.7165 23.9861ZM18.7711 25.6715C21.6523 26.5189 23.9818 27.3601 25.7705 28.192L26.4031 26.832C24.5224 25.9572 22.1159 25.0917 19.1944 24.2325L18.7711 25.6715ZM25.7705 28.192C27.4894 28.9916 28.9755 30.1928 30.2299 31.8114L31.4156 30.8926C30.0247 29.0979 28.3534 27.7391 26.4031 26.832L25.7705 28.192ZM30.2299 31.8114C31.4249 33.3533 32.0568 35.4172 32.0568 38.072H33.5568C33.5568 35.1801 32.866 32.7641 31.4156 30.8926L30.2299 31.8114ZM32.0568 38.072C32.0568 40.3244 31.4756 42.409 30.3088 44.3402L31.5927 45.1158C32.9006 42.951 33.5568 40.5983 33.5568 38.072H32.0568ZM30.3088 44.3402C29.1516 46.2556 27.4481 47.8081 25.1659 48.99L25.8556 50.322C28.352 49.0292 30.2753 47.2964 31.5927 45.1158L30.3088 44.3402ZM25.1753 48.9852C22.9114 50.1172 20.1939 50.698 16.9988 50.698V52.198C20.3742 52.198 23.3315 51.5842 25.8462 50.3268L25.1753 48.9852ZM77.1188 35.96V36.71H77.7541L77.8586 36.0833L77.1188 35.96ZM51.1988 35.96V35.21H50.3837L50.4513 36.0223L51.1988 35.96ZM53.8868 41.976L53.3793 42.5282L53.8868 41.976ZM66.8148 39.864V39.114H66.3481L66.1419 39.5326L66.8148 39.864ZM76.4788 39.864L77.1971 40.0795L77.4868 39.114H76.4788V39.864ZM70.5908 48.312L71.0408 48.912L71.0463 48.9078L70.5908 48.312ZM50.6868 49.336L50.3146 49.9873L50.3269 49.994L50.6868 49.336ZM44.3508 42.872L43.6904 43.2276L43.6947 43.2354L44.3508 42.872ZM44.3508 23.608L43.6904 23.2524L44.3508 23.608ZM50.6228 17.208L50.987 17.8636L50.6228 17.208ZM68.9268 17.144L68.5661 17.8016L68.5706 17.804L68.9268 17.144ZM75.1348 23.352L74.4747 23.7082L74.4781 23.7145L74.4816 23.7207L75.1348 23.352ZM68.0948 29.944V30.694H68.8588L68.8446 29.9301L68.0948 29.944ZM65.5988 24.44L65.1069 25.0063L65.1157 25.0137L65.5988 24.44ZM54.0148 24.376L54.512 24.9374L54.513 24.9366L54.0148 24.376ZM51.2628 29.944L50.5203 29.8379L50.398 30.694H51.2628V29.944ZM76.6248 32.504C76.6248 33.7518 76.5415 34.8615 76.379 35.8367L77.8586 36.0833C78.0374 35.0104 78.1248 33.8162 78.1248 32.504H76.6248ZM77.1188 35.21H51.1988V36.71H77.1188V35.21ZM50.4513 36.0223C50.677 38.7306 51.6354 40.9258 53.3793 42.5282L54.3942 41.4238C52.9808 40.1249 52.1471 38.3094 51.9462 35.8977L50.4513 36.0223ZM53.3793 42.5282C55.1072 44.1161 57.2341 44.902 59.7108 44.902V43.402C57.5794 43.402 55.8236 42.7372 54.3942 41.4238L53.3793 42.5282ZM59.7108 44.902C61.4835 44.902 63.0476 44.5205 64.3703 43.7221C65.695 42.9225 66.73 41.7334 67.4876 40.1954L66.1419 39.5326C65.4915 40.8533 64.6385 41.8081 63.5952 42.4379C62.5499 43.0688 61.266 43.402 59.7108 43.402V44.902ZM66.8148 40.614H76.4788V39.114H66.8148V40.614ZM75.7604 39.6485C74.783 42.9066 72.9144 45.5909 70.1352 47.7162L71.0463 48.9078C74.0698 46.5957 76.1265 43.6481 77.1971 40.0795L75.7604 39.6485ZM70.1408 47.712C67.3898 49.7752 63.9922 50.826 59.9028 50.826V52.326C64.2613 52.326 67.989 51.2008 71.0408 48.912L70.1408 47.712ZM59.9028 50.826C56.6027 50.826 53.6565 50.1053 51.0466 48.678L50.3269 49.994C53.1783 51.5534 56.3761 52.326 59.9028 52.326V50.826ZM51.0589 48.6848C48.4931 47.2186 46.478 45.1649 45.0068 42.5086L43.6947 43.2354C45.2955 46.1258 47.5044 48.3814 50.3146 49.9872L51.0589 48.6848ZM45.0111 42.5164C43.585 39.8679 42.8608 36.7935 42.8608 33.272H41.3608C41.3608 37.0038 42.1299 40.3294 43.6904 43.2276L45.0111 42.5164ZM42.8608 33.272C42.8608 29.7062 43.5856 26.6109 45.0111 23.9636L43.6904 23.2524C42.1292 26.1518 41.3608 29.4991 41.3608 33.272H42.8608ZM45.0111 23.9636C46.4382 21.3133 48.4275 19.2855 50.987 17.8636L50.2585 16.5524C47.442 18.1171 45.25 20.3561 43.6904 23.2524L45.0111 23.9636ZM50.987 17.8636C53.549 16.4403 56.5137 15.718 59.9028 15.718V14.218C56.2944 14.218 53.0725 14.989 50.2585 16.5524L50.987 17.8636ZM59.9028 15.718C63.1624 15.718 66.0438 16.4184 68.5661 17.8016L69.2874 16.4864C66.519 14.9683 63.3844 14.218 59.9028 14.218V15.718ZM68.5706 17.804C71.1298 19.1852 73.0935 21.1489 74.4747 23.7082L75.7948 22.9958C74.2746 20.1791 72.0997 18.0041 69.283 16.484L68.5706 17.804ZM74.4816 23.7207C75.9031 26.2388 76.6248 29.1591 76.6248 32.504H78.1248C78.1248 28.9369 77.353 25.7559 75.7879 22.9833L74.4816 23.7207ZM68.8446 29.9301C68.7983 27.431 67.8843 25.3842 66.0819 23.8663L65.1157 25.0137C66.5559 26.2265 67.3058 27.849 67.3449 29.9579L68.8446 29.9301ZM66.0905 23.8737C64.3197 22.3359 62.156 21.578 59.6468 21.578V23.078C61.8308 23.078 63.6351 23.7281 65.107 25.0063L66.0905 23.8737ZM59.6468 21.578C57.2603 21.578 55.2012 22.3179 53.5165 23.8154L54.513 24.9366C55.9003 23.7034 57.5959 23.078 59.6468 23.078V21.578ZM53.5175 23.8146C51.8645 25.2786 50.8813 27.3111 50.5203 29.8379L52.0052 30.0501C52.3269 27.7983 53.1783 26.1187 54.512 24.9374L53.5175 23.8146ZM51.2628 30.694H68.0948V29.194H51.2628V30.694ZM96.7148 21.048H95.9648V23.7042L97.354 21.4403L96.7148 21.048ZM101.195 16.632L100.824 15.9799L100.818 15.9836L101.195 16.632ZM107.595 15.032H108.345V14.282H107.595V15.032ZM107.595 24.44V25.19H108.345V24.44H107.595ZM98.8268 26.424L98.3214 25.8697L98.3132 25.8774L98.8268 26.424ZM96.7148 51V51.75H97.4648V51H96.7148ZM87.7548 51H87.0048V51.75H87.7548V51ZM87.7548 15.544V14.794H87.0048V15.544H87.7548ZM96.7148 15.544H97.4648V14.794H96.7148V15.544ZM97.354 21.4403C98.4436 19.6645 99.8485 18.2823 101.572 17.2804L100.818 15.9836C98.8717 17.1151 97.2899 18.6768 96.0755 20.6557L97.354 21.4403ZM101.565 17.2841C103.318 16.2883 105.321 15.782 107.595 15.782V14.282C105.09 14.282 102.826 14.8424 100.824 15.9799L101.565 17.2841ZM106.845 15.032V24.44H108.345V15.032H106.845ZM107.595 23.69H105.227V25.19H107.595V23.69ZM105.227 23.69C102.304 23.69 99.96 24.3758 98.3214 25.8698L99.3321 26.9782C100.595 25.8269 102.517 25.19 105.227 25.19V23.69ZM98.3132 25.8774C96.6772 27.4142 95.9648 29.9809 95.9648 33.336H97.4648C97.4648 30.1205 98.1603 28.0791 99.3403 26.9706L98.3132 25.8774ZM95.9648 33.336V51H97.4648V33.336H95.9648ZM96.7148 50.25H87.7548V51.75H96.7148V50.25ZM88.5048 51V15.544H87.0048V51H88.5048ZM87.7548 16.294H96.7148V14.794H87.7548V16.294ZM95.9648 15.544V21.048H97.4648V15.544H95.9648ZM132.254 42.744L131.541 42.9787L132.254 45.1411L132.966 42.9787L132.254 42.744ZM141.214 15.544V14.794H140.671L140.501 15.3093L141.214 15.544ZM150.75 15.544L151.453 15.8043L151.827 14.794H150.75V15.544ZM137.63 51V51.75H138.152L138.333 51.2603L137.63 51ZM126.75 51L126.046 51.2592L126.227 51.75H126.75V51ZM113.694 15.544V14.794H112.618L112.99 15.8032L113.694 15.544ZM123.294 15.544L124.006 15.3093L123.836 14.794H123.294V15.544ZM132.966 42.9787L141.926 15.7787L140.501 15.3093L131.541 42.5093L132.966 42.9787ZM141.214 16.294H150.75V14.794H141.214V16.294ZM150.046 15.2837L136.926 50.7397L138.333 51.2603L151.453 15.8043L150.046 15.2837ZM137.63 50.25H126.75V51.75H137.63V50.25ZM127.454 50.7408L114.398 15.2848L112.99 15.8032L126.046 51.2592L127.454 50.7408ZM113.694 16.294H123.294V14.794H113.694V16.294ZM122.581 15.7787L131.541 42.9787L132.966 42.5093L124.006 15.3093L122.581 15.7787ZM160.198 9.848L159.668 10.3783L159.679 10.3894L159.69 10.3999L160.198 9.848ZM160.198 2.36L160.717 2.90149L160.718 2.90104L160.198 2.36ZM168.07 2.36L167.54 2.89033L167.551 2.90137L167.562 2.91195L168.07 2.36ZM168.07 9.848L168.589 10.3895L168.59 10.389L168.07 9.848ZM168.582 15.544H169.332V14.794H168.582V15.544ZM168.582 51V51.75H169.332V51H168.582ZM159.622 51H158.872V51.75H159.622V51ZM159.622 15.544V14.794H158.872V15.544H159.622ZM164.166 10.57C162.757 10.57 161.621 10.1382 160.706 9.29605L159.69 10.3999C160.908 11.5205 162.418 12.07 164.166 12.07V10.57ZM160.729 9.31767C159.85 8.43915 159.412 7.37336 159.412 6.072H157.912C157.912 7.7573 158.498 9.20884 159.668 10.3783L160.729 9.31767ZM159.412 6.072C159.412 4.771 159.849 3.7332 160.717 2.90149L159.679 1.81851C158.499 2.94946 157.912 4.38633 157.912 6.072H159.412ZM160.718 2.90104C161.635 2.02079 162.767 1.574 164.166 1.574V0.0739975C162.408 0.0739975 160.895 0.651208 159.679 1.81896L160.718 2.90104ZM164.166 1.574C165.566 1.574 166.67 2.02035 167.54 2.89033L168.601 1.82967C167.423 0.651642 165.924 0.0739975 164.166 0.0739975V1.574ZM167.562 2.91195C168.47 3.74645 168.92 4.78122 168.92 6.072H170.42C170.42 4.37611 169.804 2.93621 168.578 1.80805L167.562 2.91195ZM168.92 6.072C168.92 7.36341 168.469 8.42597 167.551 9.30696L168.59 10.389C169.805 9.22202 170.42 7.76725 170.42 6.072H168.92ZM167.551 9.30651C166.683 10.1384 165.575 10.57 164.166 10.57V12.07C165.915 12.07 167.409 11.5202 168.589 10.3895L167.551 9.30651ZM167.832 15.544V51H169.332V15.544H167.832ZM168.582 50.25H159.622V51.75H168.582V50.25ZM160.372 51V15.544H158.872V51H160.372ZM159.622 16.294H168.582V14.794H159.622V16.294ZM181.211 23.672L181.869 24.0319L181.871 24.0276L181.211 23.672ZM187.419 17.272L187.787 17.9252L187.795 17.9206L187.419 17.272ZM207.387 18.296L206.927 18.8886L206.937 18.896L207.387 18.296ZM213.211 27.512V28.262H214.169L213.939 27.3319L213.211 27.512ZM203.547 27.512L202.835 27.7492L203.006 28.262H203.547V27.512ZM200.923 23.928L200.473 24.528L200.485 24.5369L200.497 24.5454L200.923 23.928ZM190.363 25.4L190.944 25.8735L190.95 25.8669L190.363 25.4ZM190.363 41.144L189.776 41.6109L189.781 41.6175L190.363 41.144ZM203.547 39.032V38.282H203.011L202.837 38.7892L203.547 39.032ZM213.211 39.032L213.937 39.2177L214.177 38.282H213.211V39.032ZM207.387 48.184L207.848 48.7755L207.387 48.184ZM187.419 49.336L187.042 49.9846L187.05 49.9891L187.419 49.336ZM181.211 42.936L180.55 43.2916L180.553 43.2959L181.211 42.936ZM179.721 33.272C179.721 29.7059 180.446 26.634 181.869 24.0319L180.553 23.3121C178.989 26.1714 178.221 29.4995 178.221 33.272H179.721ZM181.871 24.0276C183.3 21.3741 185.27 19.3461 187.787 17.9251L187.05 16.6189C184.277 18.1845 182.108 20.4232 180.55 23.3164L181.871 24.0276ZM187.795 17.9206C190.313 16.4585 193.21 15.718 196.507 15.718V14.218C192.977 14.218 189.815 15.0135 187.042 16.6234L187.795 17.9206ZM196.507 15.718C200.772 15.718 204.226 16.7924 206.927 18.8885L207.847 17.7035C204.83 15.3623 201.031 14.218 196.507 14.218V15.718ZM206.937 18.896C209.682 20.9551 211.537 23.8693 212.483 27.6921L213.939 27.3319C212.922 23.2187 210.894 19.9889 207.837 17.696L206.937 18.896ZM213.211 26.762H203.547V28.262H213.211V26.762ZM204.258 27.2748C203.699 25.5971 202.73 24.2636 201.349 23.3106L200.497 24.5454C201.59 25.2991 202.37 26.3549 202.835 27.7492L204.258 27.2748ZM201.373 23.328C200.024 22.3163 198.364 21.834 196.443 21.834V23.334C198.106 23.334 199.432 23.7477 200.473 24.528L201.373 23.328ZM196.443 21.834C193.672 21.834 191.422 22.8635 189.776 24.9331L190.95 25.8669C192.29 24.1818 194.094 23.334 196.443 23.334V21.834ZM189.781 24.9265C188.14 26.9431 187.373 29.7606 187.373 33.272H188.873C188.873 29.9567 189.599 27.5262 190.944 25.8735L189.781 24.9265ZM187.373 33.272C187.373 36.7448 188.141 39.5563 189.776 41.6109L190.95 40.6771C189.597 38.9771 188.873 36.5405 188.873 33.272H187.373ZM189.781 41.6175C191.43 43.6429 193.678 44.646 196.443 44.646V43.146C194.087 43.146 192.282 42.3144 190.944 40.6705L189.781 41.6175ZM196.443 44.646C198.367 44.646 200.024 44.215 201.362 43.2988C202.704 42.3802 203.66 41.0184 204.256 39.2748L202.837 38.7892C202.324 40.2882 201.541 41.3585 200.515 42.0612C199.485 42.7663 198.145 43.146 196.443 43.146V44.646ZM203.547 39.782H213.211V38.282H203.547V39.782ZM212.484 38.8463C211.541 42.5386 209.686 45.4414 206.926 47.5925L207.848 48.7755C210.891 46.404 212.918 43.2054 213.937 39.2177L212.484 38.8463ZM206.926 47.5925C204.179 49.7332 200.723 50.826 196.507 50.826V52.326C200.994 52.326 204.792 51.1575 207.848 48.7755L206.926 47.5925ZM196.507 50.826C193.206 50.826 190.307 50.1052 187.787 48.6829L187.05 49.9891C189.821 51.5535 192.98 52.326 196.507 52.326V50.826ZM187.795 48.6874C185.271 47.2214 183.298 45.1889 181.869 42.5761L180.553 43.2959C182.111 46.1444 184.276 48.3786 187.042 49.9846L187.795 48.6874ZM181.871 42.5804C180.446 39.9331 179.721 36.8378 179.721 33.272H178.221C178.221 37.0449 178.989 40.3922 180.55 43.2916L181.871 42.5804ZM256.319 35.96V36.71H256.954L257.059 36.0833L256.319 35.96ZM230.399 35.96V35.21H229.584L229.651 36.0223L230.399 35.96ZM233.087 41.976L232.579 42.5282L233.087 41.976ZM246.015 39.864V39.114H245.548L245.342 39.5326L246.015 39.864ZM255.679 39.864L256.397 40.0795L256.687 39.114H255.679V39.864ZM249.791 48.312L250.241 48.912L250.246 48.9078L249.791 48.312ZM229.887 49.336L229.515 49.9873L229.527 49.994L229.887 49.336ZM223.551 42.872L222.89 43.2276L222.895 43.2354L223.551 42.872ZM223.551 23.608L222.89 23.2524L223.551 23.608ZM229.823 17.208L230.187 17.8636L229.823 17.208ZM248.127 17.144L247.766 17.8016L247.771 17.804L248.127 17.144ZM254.335 23.352L253.675 23.7082L253.678 23.7145L253.682 23.7207L254.335 23.352ZM247.295 29.944V30.694H248.059L248.045 29.9301L247.295 29.944ZM244.799 24.44L244.307 25.0063L244.316 25.0137L244.799 24.44ZM233.215 24.376L233.712 24.9374L233.713 24.9366L233.215 24.376ZM230.463 29.944L229.72 29.8379L229.598 30.694H230.463V29.944ZM255.825 32.504C255.825 33.7518 255.741 34.8615 255.579 35.8367L257.059 36.0833C257.237 35.0104 257.325 33.8162 257.325 32.504H255.825ZM256.319 35.21H230.399V36.71H256.319V35.21ZM229.651 36.0223C229.877 38.7306 230.835 40.9258 232.579 42.5282L233.594 41.4238C232.181 40.1249 231.347 38.3094 231.146 35.8977L229.651 36.0223ZM232.579 42.5282C234.307 44.1161 236.434 44.902 238.911 44.902V43.402C236.779 43.402 235.024 42.7372 233.594 41.4238L232.579 42.5282ZM238.911 44.902C240.683 44.902 242.248 44.5205 243.57 43.7221C244.895 42.9225 245.93 41.7334 246.688 40.1954L245.342 39.5326C244.691 40.8533 243.839 41.8081 242.795 42.4379C241.75 43.0688 240.466 43.402 238.911 43.402V44.902ZM246.015 40.614H255.679V39.114H246.015V40.614ZM254.96 39.6485C253.983 42.9066 252.114 45.5909 249.335 47.7162L250.246 48.9078C253.27 46.5957 255.327 43.6481 256.397 40.0795L254.96 39.6485ZM249.341 47.712C246.59 49.7752 243.192 50.826 239.103 50.826V52.326C243.461 52.326 247.189 51.2008 250.241 48.912L249.341 47.712ZM239.103 50.826C235.803 50.826 232.857 50.1053 230.247 48.678L229.527 49.994C232.378 51.5534 235.576 52.326 239.103 52.326V50.826ZM230.259 48.6848C227.693 47.2186 225.678 45.1649 224.207 42.5086L222.895 43.2354C224.495 46.1258 226.704 48.3814 229.515 49.9872L230.259 48.6848ZM224.211 42.5164C222.785 39.8679 222.061 36.7935 222.061 33.272H220.561C220.561 37.0038 221.33 40.3294 222.89 43.2276L224.211 42.5164ZM222.061 33.272C222.061 29.7062 222.786 26.6109 224.211 23.9636L222.89 23.2524C221.329 26.1518 220.561 29.4991 220.561 33.272H222.061ZM224.211 23.9636C225.638 21.3133 227.628 19.2855 230.187 17.8636L229.459 16.5524C226.642 18.1171 224.45 20.3561 222.89 23.2524L224.211 23.9636ZM230.187 17.8636C232.749 16.4403 235.714 15.718 239.103 15.718V14.218C235.494 14.218 232.273 14.989 229.459 16.5524L230.187 17.8636ZM239.103 15.718C242.362 15.718 245.244 16.4184 247.766 17.8016L248.487 16.4864C245.719 14.9683 242.584 14.218 239.103 14.218V15.718ZM247.771 17.804C250.33 19.1852 252.294 21.1489 253.675 23.7082L254.995 22.9958C253.475 20.1791 251.3 18.0041 248.483 16.484L247.771 17.804ZM253.682 23.7207C255.103 26.2388 255.825 29.1591 255.825 32.504H257.325C257.325 28.9369 256.553 25.7559 254.988 22.9833L253.682 23.7207ZM248.045 29.9301C247.998 27.431 247.084 25.3842 245.282 23.8663L244.316 25.0137C245.756 26.2265 246.506 27.849 246.545 29.9579L248.045 29.9301ZM245.291 23.8737C243.52 22.3359 241.356 21.578 238.847 21.578V23.078C241.031 23.078 242.835 23.7281 244.307 25.0063L245.291 23.8737ZM238.847 21.578C236.46 21.578 234.401 22.3179 232.716 23.8154L233.713 24.9366C235.1 23.7034 236.796 23.078 238.847 23.078V21.578ZM232.717 23.8146C231.065 25.2786 230.081 27.3111 229.72 29.8379L231.205 30.0501C231.527 27.7983 232.378 26.1187 233.712 24.9374L232.717 23.8146ZM230.463 30.694H247.295V29.194H230.463V30.694ZM272.715 50.04L272.4 50.7207L272.41 50.7254L272.715 50.04ZM267.211 45.752L266.607 46.1974L266.614 46.2065L267.211 45.752ZM265.035 39.8V39.05H264.239L264.286 39.844L265.035 39.8ZM274.059 39.8L274.803 39.707L274.721 39.05H274.059V39.8ZM276.043 43.192L275.582 43.7841L275.593 43.792L276.043 43.192ZM284.427 43.512L283.998 42.8963L283.992 42.9008L283.986 42.9054L284.427 43.512ZM284.107 38.328L283.762 38.9938L283.776 39.0014L283.791 39.0083L284.107 38.328ZM278.539 36.408L278.732 35.6833L278.724 35.6811L278.715 35.679L278.539 36.408ZM272.011 34.424L271.726 35.1179L271.732 35.1204L272.011 34.424ZM267.659 31.288L267.087 31.7733L267.095 31.7831L267.659 31.288ZM267.531 20.216L266.919 19.7815L266.912 19.7925L267.531 20.216ZM272.395 16.376L272.093 15.6895L272.088 15.6918L272.395 16.376ZM289.995 18.168L289.51 18.7402L289.516 18.745L289.995 18.168ZM294.155 26.68V27.43H294.96L294.903 26.6266L294.155 26.68ZM285.579 26.68L284.832 26.7479L284.894 27.43H285.579V26.68ZM283.787 23.352L283.307 23.9282L283.32 23.9389L283.333 23.9491L283.787 23.352ZM275.851 22.968L275.435 22.344L275.428 22.3487L275.421 22.3536L275.851 22.968ZM276.363 28.216L276.009 28.8771L276.018 28.8821L276.027 28.8868L276.363 28.216ZM281.931 30.072L281.746 30.7989L281.749 30.7996L281.931 30.072ZM292.555 35.256L291.976 35.7328L291.983 35.7421L291.991 35.7511L292.555 35.256ZM294.475 40.888H295.225L295.225 40.8744L294.475 40.888ZM292.747 46.392L292.135 45.9575L292.128 45.9685L292.747 46.392ZM287.883 50.232L288.178 50.9214L288.185 50.9185L287.883 50.232ZM280.523 50.826C277.711 50.826 275.214 50.3301 273.019 49.3546L272.41 50.7254C274.823 51.7979 277.532 52.326 280.523 52.326V50.826ZM273.03 49.3594C270.822 48.3374 269.09 46.9805 267.807 45.2975L266.614 46.2065C268.062 48.1075 269.999 49.6092 272.4 50.7206L273.03 49.3594ZM267.814 45.3066C266.576 43.6288 265.903 41.7836 265.783 39.756L264.286 39.844C264.423 42.1684 265.2 44.2912 266.607 46.1974L267.814 45.3066ZM265.035 40.55H274.059V39.05H265.035V40.55ZM273.315 39.893C273.512 41.4686 274.284 42.7741 275.582 43.784L276.503 42.6C275.498 41.8179 274.947 40.862 274.803 39.707L273.315 39.893ZM275.593 43.792C276.939 44.8013 278.576 45.286 280.459 45.286V43.786C278.843 43.786 277.536 43.3747 276.493 42.592L275.593 43.792ZM280.459 45.286C282.253 45.286 283.753 44.929 284.868 44.1186L283.986 42.9054C283.223 43.4603 282.078 43.786 280.459 43.786V45.286ZM284.855 44.1277C286.01 43.3245 286.649 42.2328 286.649 40.888H285.149C285.149 41.6766 284.807 42.3342 283.998 42.8963L284.855 44.1277ZM286.649 40.888C286.649 40.1752 286.461 39.5199 286.065 38.9539C285.673 38.3939 285.109 37.9662 284.423 37.6477L283.791 39.0083C284.3 39.2444 284.631 39.5207 284.836 39.8141C285.037 40.1014 285.149 40.4488 285.149 40.888H286.649ZM284.452 37.6622C283.224 37.0254 281.302 36.3687 278.732 35.6833L278.346 37.1327C280.895 37.8127 282.686 38.4359 283.762 38.9938L284.452 37.6622ZM278.715 35.679C276.09 35.0439 273.951 34.3923 272.289 33.7276L271.732 35.1204C273.484 35.821 275.697 36.4921 278.362 37.137L278.715 35.679ZM272.295 33.7301C270.743 33.0932 269.386 32.1178 268.222 30.7929L267.095 31.7831C268.406 33.2742 269.951 34.3895 271.726 35.1179L272.295 33.7301ZM268.231 30.8028C267.181 29.566 266.617 27.8568 266.617 25.592H265.117C265.117 28.1058 265.747 30.194 267.087 31.7732L268.231 30.8028ZM266.617 25.592C266.617 23.7806 267.126 22.1362 268.15 20.6395L266.912 19.7925C265.717 21.5384 265.117 23.478 265.117 25.592H266.617ZM268.142 20.6504C269.206 19.1536 270.714 17.9526 272.702 17.0602L272.088 15.6918C269.894 16.6767 268.16 18.0357 266.919 19.7816L268.142 20.6504ZM272.697 17.0625C274.716 16.1741 277.105 15.718 279.883 15.718V14.218C276.943 14.218 274.34 14.7006 272.093 15.6895L272.697 17.0625ZM279.883 15.718C283.98 15.718 287.162 16.7507 289.51 18.7402L290.48 17.5958C287.793 15.3186 284.233 14.218 279.883 14.218V15.718ZM289.516 18.745C291.859 20.6915 293.164 23.3312 293.407 26.7334L294.903 26.6266C294.634 22.8608 293.165 19.8258 290.474 17.591L289.516 18.745ZM294.155 25.93H285.579V27.43H294.155V25.93ZM286.326 26.6121C286.18 25.0074 285.485 23.7007 284.241 22.7549L283.333 23.9491C284.222 24.6246 284.722 25.5366 284.832 26.7479L286.326 26.6121ZM284.267 22.7758C283.071 21.7792 281.496 21.322 279.627 21.322V22.822C281.256 22.822 282.455 23.2182 283.307 23.9282L284.267 22.7758ZM279.627 21.322C277.927 21.322 276.502 21.6327 275.435 22.344L276.267 23.592C276.992 23.1086 278.083 22.822 279.627 22.822V21.322ZM275.421 22.3536C274.361 23.0952 273.821 24.1596 273.821 25.464H275.321C275.321 24.6351 275.634 24.0354 276.281 23.5824L275.421 22.3536ZM273.821 25.464C273.821 26.1928 274.005 26.8657 274.39 27.4573C274.772 28.0439 275.326 28.5116 276.009 28.8771L276.717 27.5549C276.205 27.2804 275.863 26.9694 275.647 26.6387C275.435 26.3129 275.321 25.9298 275.321 25.464H273.821ZM276.027 28.8868C277.296 29.5212 279.216 30.1556 281.746 30.7989L282.116 29.3451C279.611 28.7084 277.819 28.1054 276.698 27.5452L276.027 28.8868ZM281.749 30.7996C284.288 31.4345 286.363 32.0856 287.982 32.7499L288.551 31.3621C286.843 30.661 284.693 29.9895 282.113 29.3444L281.749 30.7996ZM287.982 32.7499C289.526 33.3834 290.856 34.3732 291.976 35.7328L293.134 34.7792C291.864 33.2375 290.335 32.0939 288.551 31.3621L287.982 32.7499ZM291.991 35.7511C293.084 36.9948 293.685 38.6863 293.725 40.9016L295.225 40.8744C295.18 38.3963 294.5 36.3332 293.118 34.7609L291.991 35.7511ZM293.725 40.888C293.725 42.7853 293.194 44.4671 292.135 45.9576L293.358 46.8264C294.603 45.0742 295.225 43.0867 295.225 40.888H293.725ZM292.128 45.9685C291.111 47.4543 289.61 48.6526 287.581 49.5455L288.185 50.9185C290.422 49.9341 292.164 48.5724 293.366 46.8155L292.128 45.9685ZM287.587 49.5426C285.609 50.3903 283.261 50.826 280.523 50.826V52.326C283.417 52.326 285.975 51.8657 288.178 50.9214L287.587 49.5426ZM384.472 6.328L385.194 6.5298L385.46 5.578H384.472V6.328ZM371.992 51V51.75H372.561L372.714 51.2018L371.992 51ZM361.432 51L360.707 51.1912L360.854 51.75H361.432V51ZM353.048 19.192L353.773 19.0008L353.064 16.3109L352.325 18.9927L353.048 19.192ZM344.28 51L344.284 51.75L344.852 51.7465L345.003 51.1993L344.28 51ZM333.784 51.064L333.059 51.2588L333.21 51.8175L333.788 51.814L333.784 51.064ZM321.752 6.328V5.578H320.773L321.027 6.52279L321.752 6.328ZM331.352 6.328L332.083 6.16202L331.951 5.578H331.352V6.328ZM339.224 41.016L338.492 41.182L339.949 41.2061L339.224 41.016ZM348.312 6.328V5.578H347.733L347.586 6.13792L348.312 6.328ZM358.296 6.328L359.024 6.14705L358.882 5.578H358.296V6.328ZM366.872 40.824L366.144 41.0049L367.603 40.9921L366.872 40.824ZM374.808 6.328V5.578H374.211L374.077 6.15985L374.808 6.328ZM383.749 6.1262L371.269 50.7982L372.714 51.2018L385.194 6.5298L383.749 6.1262ZM371.992 50.25H361.432V51.75H371.992V50.25ZM362.157 50.8088L353.773 19.0008L352.323 19.3832L360.707 51.1912L362.157 50.8088ZM352.325 18.9927L343.557 50.8007L345.003 51.1993L353.771 19.3913L352.325 18.9927ZM344.275 50.25L333.779 50.314L333.788 51.814L344.284 51.75L344.275 50.25ZM334.508 50.8692L322.476 6.1332L321.027 6.52279L333.059 51.2588L334.508 50.8692ZM321.752 7.078H331.352V5.578H321.752V7.078ZM330.62 6.49398L338.492 41.182L339.955 40.85L332.083 6.16202L330.62 6.49398ZM339.949 41.2061L349.037 6.51808L347.586 6.13792L338.498 40.8259L339.949 41.2061ZM348.312 7.078H358.296V5.578H348.312V7.078ZM357.568 6.50895L366.144 41.0049L367.6 40.6431L359.024 6.14705L357.568 6.50895ZM367.603 40.9921L375.539 6.49615L374.077 6.15985L366.141 40.6558L367.603 40.9921ZM374.808 7.078H384.472V5.578H374.808V7.078ZM426.866 35.96V36.71H427.502L427.606 36.0833L426.866 35.96ZM400.946 35.96V35.21H400.131L400.199 36.0223L400.946 35.96ZM403.634 41.976L403.127 42.5282L403.634 41.976ZM416.562 39.864V39.114H416.096L415.889 39.5326L416.562 39.864ZM426.226 39.864L426.945 40.0795L427.234 39.114H426.226V39.864ZM420.338 48.312L420.788 48.912L420.794 48.9078L420.338 48.312ZM400.434 49.336L400.062 49.9873L400.074 49.994L400.434 49.336ZM394.098 42.872L393.438 43.2276L393.442 43.2354L394.098 42.872ZM394.098 23.608L393.438 23.2524L394.098 23.608ZM400.37 17.208L400.734 17.8636L400.37 17.208ZM418.674 17.144L418.314 17.8016L418.318 17.804L418.674 17.144ZM424.882 23.352L424.222 23.7082L424.226 23.7145L424.229 23.7207L424.882 23.352ZM417.842 29.944V30.694H418.606L418.592 29.9301L417.842 29.944ZM415.346 24.44L414.854 25.0063L414.863 25.0137L415.346 24.44ZM403.762 24.376L404.26 24.9374L404.261 24.9366L403.762 24.376ZM401.01 29.944L400.268 29.8379L400.145 30.694H401.01V29.944ZM426.372 32.504C426.372 33.7518 426.289 34.8615 426.126 35.8367L427.606 36.0833C427.785 35.0104 427.872 33.8162 427.872 32.504H426.372ZM426.866 35.21H400.946V36.71H426.866V35.21ZM400.199 36.0223C400.425 38.7306 401.383 40.9258 403.127 42.5282L404.142 41.4238C402.728 40.1249 401.895 38.3094 401.694 35.8977L400.199 36.0223ZM403.127 42.5282C404.855 44.1161 406.982 44.902 409.458 44.902V43.402C407.327 43.402 405.571 42.7372 404.142 41.4238L403.127 42.5282ZM409.458 44.902C411.231 44.902 412.795 44.5205 414.118 43.7221C415.442 42.9225 416.478 41.7334 417.235 40.1954L415.889 39.5326C415.239 40.8533 414.386 41.8081 413.343 42.4379C412.297 43.0688 411.014 43.402 409.458 43.402V44.902ZM416.562 40.614H426.226V39.114H416.562V40.614ZM425.508 39.6485C424.53 42.9066 422.662 45.5909 419.883 47.7162L420.794 48.9078C423.817 46.5957 425.874 43.6481 426.945 40.0795L425.508 39.6485ZM419.888 47.712C417.137 49.7752 413.74 50.826 409.65 50.826V52.326C414.009 52.326 417.737 51.2008 420.788 48.912L419.888 47.712ZM409.65 50.826C406.35 50.826 403.404 50.1053 400.794 48.678L400.074 49.994C402.926 51.5534 406.124 52.326 409.65 52.326V50.826ZM400.806 48.6848C398.241 47.2186 396.225 45.1649 394.754 42.5086L393.442 43.2354C395.043 46.1258 397.252 48.3814 400.062 49.9872L400.806 48.6848ZM394.759 42.5164C393.332 39.8679 392.608 36.7935 392.608 33.272H391.108C391.108 37.0038 391.877 40.3294 393.438 43.2276L394.759 42.5164ZM392.608 33.272C392.608 29.7062 393.333 26.6109 394.759 23.9636L393.438 23.2524C391.877 26.1518 391.108 29.4991 391.108 33.272H392.608ZM394.759 23.9636C396.186 21.3133 398.175 19.2855 400.734 17.8636L400.006 16.5524C397.189 18.1171 394.997 20.3561 393.438 23.2524L394.759 23.9636ZM400.734 17.8636C403.296 16.4403 406.261 15.718 409.65 15.718V14.218C406.042 14.218 402.82 14.989 400.006 16.5524L400.734 17.8636ZM409.65 15.718C412.91 15.718 415.791 16.4184 418.314 17.8016L419.035 16.4864C416.267 14.9683 413.132 14.218 409.65 14.218V15.718ZM418.318 17.804C420.877 19.1852 422.841 21.1489 424.222 23.7082L425.542 22.9958C424.022 20.1791 421.847 18.0041 419.03 16.484L418.318 17.804ZM424.229 23.7207C425.651 26.2388 426.372 29.1591 426.372 32.504H427.872C427.872 28.9369 427.101 25.7559 425.535 22.9833L424.229 23.7207ZM418.592 29.9301C418.546 27.431 417.632 25.3842 415.829 23.8663L414.863 25.0137C416.303 26.2265 417.053 27.849 417.092 29.9579L418.592 29.9301ZM415.838 23.8737C414.067 22.3359 411.904 21.578 409.394 21.578V23.078C411.578 23.078 413.383 23.7281 414.854 25.0063L415.838 23.8737ZM409.394 21.578C407.008 21.578 404.949 22.3179 403.264 23.8154L404.261 24.9366C405.648 23.7034 407.343 23.078 409.394 23.078V21.578ZM403.265 23.8146C401.612 25.2786 400.629 27.3111 400.268 29.8379L401.753 30.0501C402.074 27.7983 402.926 26.1187 404.26 24.9374L403.265 23.8146ZM401.01 30.694H417.842V29.194H401.01V30.694ZM487.44 26.872L486.783 26.51L486.778 26.5205L487.44 26.872ZM482.128 31.928L481.779 31.2643L481.774 31.2669L482.128 31.928ZM465.552 33.848V33.098H464.802V33.848H465.552ZM465.552 51V51.75H466.302V51H465.552ZM456.592 51H455.842V51.75H456.592V51ZM456.592 6.328V5.578H455.842V6.328H456.592ZM481.872 8.12L481.542 8.79316L481.872 8.12ZM487.312 13.048L486.661 13.4201L486.667 13.43L487.312 13.048ZM478.16 24.952L478.671 25.5017L478.681 25.4919L478.16 24.952ZM465.552 13.624V12.874H464.802V13.624H465.552ZM465.552 26.616H464.802V27.366H465.552V26.616ZM488.418 20.152C488.418 22.4149 487.874 24.5303 486.783 26.51L488.097 27.234C489.31 25.0323 489.918 22.6678 489.918 20.152H488.418ZM486.778 26.5205C485.75 28.4575 484.1 30.0429 481.779 31.2643L482.478 32.5917C485.021 31.2531 486.912 29.4678 488.103 27.2235L486.778 26.5205ZM481.774 31.2669C479.525 32.4716 476.628 33.098 473.04 33.098V34.598C476.791 34.598 479.952 33.9444 482.482 32.5891L481.774 31.2669ZM473.04 33.098H465.552V34.598H473.04V33.098ZM464.802 33.848V51H466.302V33.848H464.802ZM465.552 50.25H456.592V51.75H465.552V50.25ZM457.342 51V6.328H455.842V51H457.342ZM456.592 7.078H473.04V5.578H456.592V7.078ZM473.04 7.078C476.412 7.078 479.237 7.66101 481.542 8.79316L482.203 7.44683C479.644 6.18966 476.58 5.578 473.04 5.578V7.078ZM481.542 8.79316C483.857 9.93033 485.55 11.4755 486.661 13.4201L487.963 12.6759C486.685 10.4392 484.752 8.699 482.203 7.44683L481.542 8.79316ZM486.667 13.43C487.83 15.3948 488.418 17.6287 488.418 20.152H489.918C489.918 17.3846 489.269 14.8825 487.958 12.666L486.667 13.43ZM472.656 27.366C475.225 27.366 477.28 26.7926 478.671 25.5016L477.65 24.4024C476.651 25.3301 475.037 25.866 472.656 25.866V27.366ZM478.681 25.4919C480.055 24.1667 480.702 22.3528 480.702 20.152H479.202C479.202 22.0472 478.655 23.4333 477.64 24.4121L478.681 25.4919ZM480.702 20.152C480.702 17.8375 480.052 15.9706 478.628 14.6971C477.221 13.4377 475.185 12.874 472.656 12.874V14.374C474.992 14.374 476.604 14.8983 477.628 15.8149C478.637 16.7174 479.202 18.1145 479.202 20.152H480.702ZM472.656 12.874H465.552V14.374H472.656V12.874ZM464.802 13.624V26.616H466.302V13.624H464.802ZM465.552 27.366H472.656V25.866H465.552V27.366ZM508.33 21.048H507.58V23.7042L508.969 21.4403L508.33 21.048ZM512.81 16.632L512.439 15.9799L512.433 15.9836L512.81 16.632ZM519.21 15.032H519.96V14.282H519.21V15.032ZM519.21 24.44V25.19H519.96V24.44H519.21ZM510.442 26.424L509.936 25.8697L509.928 25.8774L510.442 26.424ZM508.33 51V51.75H509.08V51H508.33ZM499.37 51H498.62V51.75H499.37V51ZM499.37 15.544V14.794H498.62V15.544H499.37ZM508.33 15.544H509.08V14.794H508.33V15.544ZM508.969 21.4403C510.059 19.6645 511.463 18.2823 513.187 17.2804L512.433 15.9836C510.487 17.1151 508.905 18.6768 507.691 20.6557L508.969 21.4403ZM513.18 17.2841C514.933 16.2883 516.936 15.782 519.21 15.782V14.282C516.705 14.282 514.441 14.8424 512.439 15.9799L513.18 17.2841ZM518.46 15.032V24.44H519.96V15.032H518.46ZM519.21 23.69H516.842V25.19H519.21V23.69ZM516.842 23.69C513.919 23.69 511.575 24.3758 509.936 25.8698L510.947 26.9782C512.21 25.8269 514.132 25.19 516.842 25.19V23.69ZM509.928 25.8774C508.292 27.4142 507.58 29.9809 507.58 33.336H509.08C509.08 30.1205 509.775 28.0791 510.955 26.9706L509.928 25.8774ZM507.58 33.336V51H509.08V33.336H507.58ZM508.33 50.25H499.37V51.75H508.33V50.25ZM500.12 51V15.544H498.62V51H500.12ZM499.37 16.294H508.33V14.794H499.37V16.294ZM507.58 15.544V21.048H509.08V15.544H507.58ZM535.613 49.336L535.245 49.9897L535.253 49.994L535.613 49.336ZM529.149 42.872L528.493 43.2354L528.497 43.243L529.149 42.872ZM529.213 23.672L528.565 23.2935L528.561 23.301L529.213 23.672ZM535.805 17.272L536.16 17.9324L536.168 17.9281L535.805 17.272ZM554.365 17.272L554.001 17.9281L554.009 17.9324L554.365 17.272ZM560.893 23.672L560.241 24.043L560.245 24.0505L560.893 23.672ZM560.829 42.872L560.186 42.4861L560.181 42.4935L560.829 42.872ZM554.173 49.336L554.528 49.9964L554.532 49.9944L554.173 49.336ZM549.373 42.616L549.732 43.2745L549.739 43.2707L549.373 42.616ZM552.829 39.032L553.489 39.3886L552.829 39.032ZM551.421 25.528L550.878 26.0456L550.884 26.052L550.89 26.0583L551.421 25.528ZM538.493 25.528L537.95 25.0104L537.95 25.0108L538.493 25.528ZM538.429 41.08L537.873 41.5839L537.879 41.5906L537.886 41.5972L538.429 41.08ZM544.829 50.826C541.529 50.826 538.583 50.1053 535.973 48.678L535.253 49.994C538.104 51.5534 541.302 52.326 544.829 52.326V50.826ZM535.98 48.6823C533.371 47.2143 531.313 45.1584 529.801 42.501L528.497 43.243C530.142 46.1323 532.393 48.3857 535.245 49.9897L535.98 48.6823ZM529.805 42.5086C528.339 39.8616 527.595 36.7901 527.595 33.272H526.095C526.095 37.0073 526.887 40.3357 528.493 43.2354L529.805 42.5086ZM527.595 33.272C527.595 29.7574 528.359 26.6886 529.865 24.043L528.561 23.301C526.91 26.2021 526.095 29.5333 526.095 33.272H527.595ZM529.86 24.0505C531.413 21.3937 533.511 19.359 536.16 17.9324L535.449 16.6116C532.552 18.1717 530.255 20.4037 528.565 23.2935L529.86 24.0505ZM536.168 17.9281C538.822 16.4584 541.789 15.718 545.085 15.718V14.218C541.554 14.218 538.334 15.0136 535.441 16.6159L536.168 17.9281ZM545.085 15.718C548.381 15.718 551.348 16.4584 554.001 17.9281L554.728 16.6159C551.835 15.0136 548.615 14.218 545.085 14.218V15.718ZM554.009 17.9324C556.657 19.358 558.731 21.3903 560.241 24.043L561.545 23.301C559.897 20.407 557.619 18.1726 554.72 16.6116L554.009 17.9324ZM560.245 24.0505C561.791 26.6948 562.575 29.7609 562.575 33.272H564.075C564.075 29.5298 563.237 26.1959 561.54 23.2935L560.245 24.0505ZM562.575 33.272C562.575 36.7796 561.771 39.843 560.186 42.4861L561.472 43.2579C563.214 40.3543 564.075 37.0177 564.075 33.272H562.575ZM560.181 42.4935C558.629 45.1492 556.51 47.207 553.814 48.6776L554.532 49.9944C557.468 48.393 559.786 46.1415 561.476 43.2505L560.181 42.4935ZM553.817 48.6756C551.164 50.1046 548.173 50.826 544.829 50.826V52.326C548.397 52.326 551.635 51.5541 554.528 49.9964L553.817 48.6756ZM544.829 44.518C546.574 44.518 548.212 44.1032 549.732 43.2744L549.014 41.9576C547.717 42.6648 546.326 43.018 544.829 43.018V44.518ZM549.739 43.2707C551.324 42.385 552.573 41.0821 553.489 39.3886L552.169 38.6754C551.378 40.1392 550.323 41.2256 549.007 41.9613L549.739 43.2707ZM553.489 39.3886C554.415 37.6755 554.859 35.6261 554.859 33.272H553.359C553.359 35.4406 552.95 37.2311 552.169 38.6754L553.489 39.3886ZM554.859 33.272C554.859 29.7703 553.925 26.972 551.951 24.9977L550.89 26.0583C552.5 27.668 553.359 30.0324 553.359 33.272H554.859ZM551.964 25.0104C550.071 23.0257 547.72 22.026 544.957 22.026V23.526C547.314 23.526 549.272 24.361 550.878 26.0456L551.964 25.0104ZM544.957 22.026C542.194 22.026 539.842 23.0257 537.95 25.0104L539.036 26.0456C540.642 24.361 542.6 23.526 544.957 23.526V22.026ZM537.95 25.0108C536.068 26.9863 535.183 29.7797 535.183 33.272H536.683C536.683 30.023 537.504 27.6537 539.036 26.0452L537.95 25.0108ZM535.183 33.272C535.183 36.761 536.045 39.568 537.873 41.5839L538.984 40.5761C537.485 38.9226 536.683 36.5243 536.683 33.272H535.183ZM537.886 41.5972C539.739 43.5435 542.071 44.518 544.829 44.518V43.018C542.466 43.018 540.532 42.2005 538.972 40.5628L537.886 41.5972ZM588.521 42.744L587.809 42.9787L588.521 45.1411L589.234 42.9787L588.521 42.744ZM597.481 15.544V14.794H596.939L596.769 15.3093L597.481 15.544ZM607.017 15.544L607.721 15.8043L608.094 14.794H607.017V15.544ZM593.897 51V51.75H594.419L594.601 51.2603L593.897 51ZM583.017 51L582.313 51.2592L582.494 51.75H583.017V51ZM569.961 15.544V14.794H568.886L569.257 15.8032L569.961 15.544ZM579.561 15.544L580.274 15.3093L580.104 14.794H579.561V15.544ZM589.234 42.9787L598.194 15.7787L596.769 15.3093L587.809 42.5093L589.234 42.9787ZM597.481 16.294H607.017V14.794H597.481V16.294ZM606.314 15.2837L593.194 50.7397L594.601 51.2603L607.721 15.8043L606.314 15.2837ZM593.897 50.25H583.017V51.75H593.897V50.25ZM583.721 50.7408L570.665 15.2848L569.257 15.8032L582.313 51.2592L583.721 50.7408ZM569.961 16.294H579.561V14.794H569.961V16.294ZM578.849 15.7787L587.809 42.9787L589.234 42.5093L580.274 15.3093L578.849 15.7787ZM616.466 9.848L615.935 10.3783L615.946 10.3894L615.958 10.3999L616.466 9.848ZM616.466 2.36L616.985 2.90149L616.985 2.90104L616.466 2.36ZM624.338 2.36L623.807 2.89033L623.818 2.90137L623.83 2.91195L624.338 2.36ZM624.338 9.848L624.857 10.3895L624.857 10.389L624.338 9.848ZM624.85 15.544H625.6V14.794H624.85V15.544ZM624.85 51V51.75H625.6V51H624.85ZM615.89 51H615.14V51.75H615.89V51ZM615.89 15.544V14.794H615.14V15.544H615.89ZM620.434 10.57C619.025 10.57 617.889 10.1382 616.974 9.29605L615.958 10.3999C617.176 11.5205 618.685 12.07 620.434 12.07V10.57ZM616.996 9.31767C616.118 8.43915 615.68 7.37336 615.68 6.072H614.18C614.18 7.7573 614.766 9.20884 615.935 10.3783L616.996 9.31767ZM615.68 6.072C615.68 4.771 616.117 3.7332 616.985 2.90149L615.947 1.81851C614.767 2.94946 614.18 4.38633 614.18 6.072H615.68ZM616.985 2.90104C617.902 2.02079 619.034 1.574 620.434 1.574V0.0739975C618.676 0.0739975 617.163 0.651208 615.946 1.81896L616.985 2.90104ZM620.434 1.574C621.833 1.574 622.937 2.02035 623.807 2.89033L624.868 1.82967C623.69 0.651642 622.192 0.0739975 620.434 0.0739975V1.574ZM623.83 2.91195C624.737 3.74645 625.188 4.78122 625.188 6.072H626.688C626.688 4.37611 626.072 2.93621 624.846 1.80805L623.83 2.91195ZM625.188 6.072C625.188 7.36341 624.736 8.42597 623.818 9.30696L624.857 10.389C626.073 9.22202 626.688 7.76725 626.688 6.072H625.188ZM623.819 9.30651C622.951 10.1384 621.843 10.57 620.434 10.57V12.07C622.182 12.07 623.677 11.5202 624.857 10.3895L623.819 9.30651ZM624.1 15.544V51H625.6V15.544H624.1ZM624.85 50.25H615.89V51.75H624.85V50.25ZM616.64 51V15.544H615.14V51H616.64ZM615.89 16.294H624.85V14.794H615.89V16.294ZM637.35 23.608L636.686 23.2603L636.681 23.2685L637.35 23.608ZM643.238 17.208L643.626 17.8501L643.238 17.208ZM658.086 16.504L657.756 17.1776L657.768 17.1829L658.086 16.504ZM663.078 20.472L662.476 20.9195L663.828 22.7375V20.472H663.078ZM663.078 3.64V2.89H662.328V3.64H663.078ZM672.166 3.64H672.916V2.89H672.166V3.64ZM672.166 51V51.75H672.916V51H672.166ZM663.078 51H662.328V51.75H663.078V51ZM663.078 45.752H663.828V43.1689L662.445 45.3503L663.078 45.752ZM658.406 49.976L658.054 49.3138L658.406 49.976ZM643.238 49.272L643.634 48.6348L643.238 49.272ZM637.35 42.808L636.679 43.1435L636.686 43.1556L637.35 42.808ZM661.862 27.704L661.202 28.0607L661.207 28.0682L661.862 27.704ZM658.406 24.12L658.026 24.7664L658.033 24.7707L658.04 24.7747L658.406 24.12ZM649.126 24.056L648.752 23.406L649.126 24.056ZM645.67 27.64L645.018 27.2698L645.015 27.2758L645.67 27.64ZM645.67 38.776L645.007 39.1253L645.012 39.1358L645.018 39.1462L645.67 38.776ZM649.126 42.424L648.737 43.0655L648.746 43.0704L649.126 42.424ZM658.406 42.488L658.772 43.1427L658.779 43.1387L658.786 43.1344L658.406 42.488ZM661.862 38.904L662.518 39.2683L662.522 39.2606L661.862 38.904ZM635.988 33.144C635.988 29.66 636.672 26.6007 638.019 23.9475L636.681 23.2685C635.212 26.162 634.488 29.46 634.488 33.144H635.988ZM638.015 23.9556C639.407 21.2935 641.278 19.2667 643.626 17.8501L642.851 16.5659C640.249 18.136 638.195 20.3758 636.686 23.2604L638.015 23.9556ZM643.626 17.8501C645.978 16.4308 648.595 15.718 651.494 15.718V14.218C648.335 14.218 645.448 14.9985 642.851 16.5659L643.626 17.8501ZM651.494 15.718C653.683 15.718 655.767 16.2033 657.756 17.1775L658.416 15.8305C656.224 14.7567 653.914 14.218 651.494 14.218V15.718ZM657.768 17.1829C659.759 18.1178 661.321 19.3657 662.476 20.9195L663.68 20.0245C662.361 18.2503 660.595 16.8529 658.405 15.8251L657.768 17.1829ZM663.828 20.472V3.64H662.328V20.472H663.828ZM663.078 4.39H672.166V2.89H663.078V4.39ZM671.416 3.64V51H672.916V3.64H671.416ZM672.166 50.25H663.078V51.75H672.166V50.25ZM663.828 51V45.752H662.328V51H663.828ZM662.445 45.3503C661.412 46.9796 659.956 48.3021 658.054 49.3138L658.758 50.6382C660.867 49.5165 662.526 48.0231 663.712 46.1537L662.445 45.3503ZM658.054 49.3138C656.174 50.314 653.973 50.826 651.43 50.826V52.326C654.178 52.326 656.628 51.7713 658.758 50.6382L658.054 49.3138ZM651.43 50.826C648.58 50.826 645.987 50.0951 643.634 48.6348L642.843 49.9092C645.439 51.5209 648.308 52.326 651.43 52.326V50.826ZM643.634 48.6348C641.282 47.1748 639.408 45.124 638.015 42.4604L636.686 43.1556C638.194 46.0386 640.246 48.2972 642.843 49.9092L643.634 48.6348ZM638.021 42.4726C636.672 39.7755 635.988 36.672 635.988 33.144H634.488C634.488 36.8694 635.212 40.2085 636.679 43.1434L638.021 42.4726ZM663.892 33.272C663.892 30.9986 663.446 29.0108 662.518 27.3398L661.207 28.0682C661.985 29.4692 662.392 31.1934 662.392 33.272H663.892ZM662.522 27.3474C661.607 25.6539 660.357 24.351 658.772 23.4653L658.04 24.7747C659.357 25.5104 660.411 26.5968 661.202 28.0606L662.522 27.3474ZM658.786 23.4735C657.222 22.5532 655.534 22.09 653.734 22.09V23.59C655.263 23.59 656.689 23.9801 658.026 24.7664L658.786 23.4735ZM653.734 22.09C651.942 22.09 650.277 22.5282 648.752 23.406L649.5 24.706C650.792 23.9625 652.198 23.59 653.734 23.59V22.09ZM648.752 23.406C647.215 24.2911 645.972 25.5887 645.018 27.2698L646.323 28.0102C647.16 26.5339 648.222 25.4423 649.5 24.706L648.752 23.406ZM645.015 27.2758C644.087 28.9447 643.64 30.9103 643.64 33.144H645.14C645.14 31.111 645.546 29.4073 646.326 28.0042L645.015 27.2758ZM643.64 33.144C643.64 35.379 644.088 37.3798 645.007 39.1253L646.334 38.4267C645.546 36.9295 645.14 35.1757 645.14 33.144H643.64ZM645.018 39.1462C645.971 40.8246 647.209 42.139 648.737 43.0654L649.515 41.7826C648.227 41.0023 647.162 39.8847 646.323 38.4058L645.018 39.1462ZM648.746 43.0704C650.307 43.9889 651.974 44.454 653.734 44.454V42.954C652.252 42.954 650.846 42.5658 649.506 41.7775L648.746 43.0704ZM653.734 44.454C655.526 44.454 657.209 44.0159 658.772 43.1427L658.04 41.8333C656.702 42.5814 655.27 42.954 653.734 42.954V44.454ZM658.786 43.1344C660.358 42.2102 661.603 40.9158 662.518 39.2682L661.207 38.5398C660.415 39.9642 659.356 41.0591 658.026 41.8415L658.786 43.1344ZM662.522 39.2606C663.446 37.5514 663.892 35.5463 663.892 33.272H662.392C662.392 35.3497 661.985 37.0992 661.202 38.5474L662.522 39.2606ZM717.461 35.96V36.71H718.097L718.201 36.0833L717.461 35.96ZM691.541 35.96V35.21H690.726L690.794 36.0223L691.541 35.96ZM694.229 41.976L693.722 42.5282L694.229 41.976ZM707.157 39.864V39.114H706.691L706.484 39.5326L707.157 39.864ZM716.821 39.864L717.54 40.0795L717.829 39.114H716.821V39.864ZM710.933 48.312L711.383 48.912L711.389 48.9078L710.933 48.312ZM691.029 49.336L690.657 49.9873L690.669 49.994L691.029 49.336ZM684.693 42.872L684.033 43.2276L684.037 43.2354L684.693 42.872ZM684.693 23.608L684.033 23.2524L684.693 23.608ZM690.965 17.208L691.329 17.8636L690.965 17.208ZM709.269 17.144L708.909 17.8016L708.913 17.804L709.269 17.144ZM715.477 23.352L714.817 23.7082L714.821 23.7145L714.824 23.7207L715.477 23.352ZM708.437 29.944V30.694H709.201L709.187 29.9301L708.437 29.944ZM705.941 24.44L705.449 25.0063L705.458 25.0137L705.941 24.44ZM694.357 24.376L694.855 24.9374L694.856 24.9366L694.357 24.376ZM691.605 29.944L690.863 29.8379L690.74 30.694H691.605V29.944ZM716.967 32.504C716.967 33.7518 716.884 34.8615 716.721 35.8367L718.201 36.0833C718.38 35.0104 718.467 33.8162 718.467 32.504H716.967ZM717.461 35.21H691.541V36.71H717.461V35.21ZM690.794 36.0223C691.02 38.7306 691.978 40.9258 693.722 42.5282L694.737 41.4238C693.323 40.1249 692.49 38.3094 692.289 35.8977L690.794 36.0223ZM693.722 42.5282C695.45 44.1161 697.577 44.902 700.053 44.902V43.402C697.922 43.402 696.166 42.7372 694.737 41.4238L693.722 42.5282ZM700.053 44.902C701.826 44.902 703.39 44.5205 704.713 43.7221C706.037 42.9225 707.073 41.7334 707.83 40.1954L706.484 39.5326C705.834 40.8533 704.981 41.8081 703.938 42.4379C702.892 43.0688 701.609 43.402 700.053 43.402V44.902ZM707.157 40.614H716.821V39.114H707.157V40.614ZM716.103 39.6485C715.125 42.9066 713.257 45.5909 710.478 47.7162L711.389 48.9078C714.412 46.5957 716.469 43.6481 717.54 40.0795L716.103 39.6485ZM710.483 47.712C707.732 49.7752 704.335 50.826 700.245 50.826V52.326C704.604 52.326 708.332 51.2008 711.383 48.912L710.483 47.712ZM700.245 50.826C696.945 50.826 693.999 50.1053 691.389 48.678L690.669 49.994C693.521 51.5534 696.719 52.326 700.245 52.326V50.826ZM691.401 48.6848C688.836 47.2186 686.82 45.1649 685.349 42.5086L684.037 43.2354C685.638 46.1258 687.847 48.3814 690.657 49.9872L691.401 48.6848ZM685.354 42.5164C683.927 39.8679 683.203 36.7935 683.203 33.272H681.703C681.703 37.0038 682.472 40.3294 684.033 43.2276L685.354 42.5164ZM683.203 33.272C683.203 29.7062 683.928 26.6109 685.354 23.9636L684.033 23.2524C682.472 26.1518 681.703 29.4991 681.703 33.272H683.203ZM685.354 23.9636C686.781 21.3133 688.77 19.2855 691.329 17.8636L690.601 16.5524C687.784 18.1171 685.592 20.3561 684.033 23.2524L685.354 23.9636ZM691.329 17.8636C693.891 16.4403 696.856 15.718 700.245 15.718V14.218C696.637 14.218 693.415 14.989 690.601 16.5524L691.329 17.8636ZM700.245 15.718C703.505 15.718 706.386 16.4184 708.909 17.8016L709.63 16.4864C706.862 14.9683 703.727 14.218 700.245 14.218V15.718ZM708.913 17.804C711.472 19.1852 713.436 21.1489 714.817 23.7082L716.137 22.9958C714.617 20.1791 712.442 18.0041 709.625 16.484L708.913 17.804ZM714.824 23.7207C716.246 26.2388 716.967 29.1591 716.967 32.504H718.467C718.467 28.9369 717.696 25.7559 716.13 22.9833L714.824 23.7207ZM709.187 29.9301C709.141 27.431 708.227 25.3842 706.424 23.8663L705.458 25.0137C706.898 26.2265 707.648 27.849 707.687 29.9579L709.187 29.9301ZM706.433 23.8737C704.662 22.3359 702.499 21.578 699.989 21.578V23.078C702.173 23.078 703.978 23.7281 705.449 25.0063L706.433 23.8737ZM699.989 21.578C697.603 21.578 695.544 22.3179 693.859 23.8154L694.856 24.9366C696.243 23.7034 697.938 23.078 699.989 23.078V21.578ZM693.86 23.8146C692.207 25.2786 691.224 27.3111 690.863 29.8379L692.348 30.0501C692.669 27.7983 693.521 26.1187 694.855 24.9374L693.86 23.8146ZM691.605 30.694H708.437V29.194H691.605V30.694Z" fill="url(#paint0_linear_1704_13911)"/>
<defs>
<linearGradient id="paint0_linear_1704_13911" x1="150.591" y1="-92.1539" x2="128.634" y2="80.7189" gradientUnits="userSpaceOnUse">
<stop stop-color="#2DD1DB"/>
<stop offset="0.60721" stop-color="#2D9CDB"/>
<stop offset="1" stop-color="#1A8ED0"/>
</linearGradient>
</defs>
</svg>
