<svg width="48" height="48" viewBox="0 0 48 48" fill="none" xmlns="http://www.w3.org/2000/svg">
<path d="M24 6.00586C23.2129 6.00586 22.4334 6.1609 21.7062 6.46213C20.979 6.76335 20.3182 7.20487 19.7616 7.76146C19.205 8.31806 18.7635 8.97883 18.4623 9.70605C18.161 10.4333 18.006 11.2127 18.006 11.9999C18.006 12.787 18.161 13.5664 18.4623 14.2937C18.7635 15.0209 19.205 15.6817 19.7616 16.2383C20.3182 16.7949 20.979 17.2364 21.7062 17.5376C22.4334 17.8388 23.2129 17.9939 24 17.9939C25.5897 17.9939 27.1143 17.3624 28.2384 16.2383C29.3625 15.1142 29.994 13.5896 29.994 11.9999C29.994 10.4102 29.3625 8.88555 28.2384 7.76146C27.1143 6.63737 25.5897 6.00586 24 6.00586ZM37.5 8.99986C36.3065 8.99986 35.1619 9.47396 34.318 10.3179C33.4741 11.1618 33 12.3064 33 13.4999C33 14.6933 33.4741 15.8379 34.318 16.6818C35.1619 17.5258 36.3065 17.9999 37.5 17.9999C38.6935 17.9999 39.8381 17.5258 40.682 16.6818C41.5259 15.8379 42 14.6933 42 13.4999C42 12.3064 41.5259 11.1618 40.682 10.3179C39.8381 9.47396 38.6935 8.99986 37.5 8.99986ZM10.5 8.99986C9.30653 8.99986 8.16193 9.47396 7.31802 10.3179C6.47411 11.1618 6 12.3064 6 13.4999C6 14.6933 6.47411 15.8379 7.31802 16.6818C8.16193 17.5258 9.30653 17.9999 10.5 17.9999C11.6935 17.9999 12.8381 17.5258 13.682 16.6818C14.5259 15.8379 15 14.6933 15 13.4999C15 12.3064 14.5259 11.1618 13.682 10.3179C12.8381 9.47396 11.6935 8.99986 10.5 8.99986ZM15 23.9789C15.0055 23.1869 15.3241 22.4292 15.8861 21.8711C16.4481 21.313 17.208 20.9998 18 20.9999H30C30.7956 20.9999 31.5587 21.3159 32.1213 21.8785C32.6839 22.4411 33 23.2042 33 23.9999V32.9999C32.9998 33.944 32.852 34.8823 32.562 35.7809C31.8977 37.817 30.5293 39.5496 28.7025 40.6676C26.8758 41.7855 24.7103 42.2157 22.5949 41.8807C20.4795 41.5457 18.5528 40.4676 17.1608 38.8399C15.7688 37.2122 15.0027 35.1416 15 32.9999V23.9789ZM12 23.9999C12 22.9049 12.291 21.8819 12.804 20.9999H6C5.20435 20.9999 4.44129 21.3159 3.87868 21.8785C3.31607 22.4411 3 23.2042 3 23.9999V31.4999C2.99959 32.7278 3.30068 33.937 3.87682 35.0214C4.45296 36.1057 5.28653 37.032 6.30433 37.719C7.32212 38.4059 8.49301 38.8324 9.71417 38.9611C10.9353 39.0897 12.1694 38.9166 13.308 38.4569C12.4445 36.7666 11.9962 34.8949 12 32.9969V23.9999ZM36 23.9999V32.9999C36 34.9649 35.529 36.8189 34.692 38.4569C35.8306 38.9166 37.0647 39.0897 38.2858 38.9611C39.507 38.8324 40.6779 38.4059 41.6957 37.719C42.7135 37.032 43.547 36.1057 44.1232 35.0214C44.6993 33.937 45.0004 32.7278 45 31.4999V23.9999C45 23.2042 44.6839 22.4411 44.1213 21.8785C43.5587 21.3159 42.7957 20.9999 42 20.9999H35.196C35.706 21.8819 36 22.9049 36 23.9999Z" fill="white"/>
</svg>
