<svg width="48" height="48" viewBox="0 0 48 48" fill="none" xmlns="http://www.w3.org/2000/svg">
<path d="M39.7803 20.21C39.3481 19.1913 38.8197 18.2163 38.2023 17.298L34.8863 19.536C35.842 20.9567 36.5124 22.5495 36.8603 24.226C37.2148 25.9735 37.2148 27.7745 36.8603 29.522C36.6866 30.3661 36.4293 31.1908 36.0923 31.984C35.7647 32.7633 35.3607 33.5083 34.8863 34.208C33.9383 35.606 32.7329 36.8108 31.3343 37.758C29.9149 38.7132 28.3234 39.3836 26.6483 39.732C24.9017 40.082 23.1029 40.082 21.3563 39.732C18.8424 39.2156 16.5356 37.9721 14.7223 36.156C13.5245 34.9575 12.5685 33.5397 11.9063 31.98C11.5722 31.1868 11.3163 30.3629 11.1423 29.52C10.6143 26.9172 10.8805 24.2157 11.9063 21.766C12.5659 20.2066 13.5215 18.7898 14.7203 17.594C15.9185 16.3982 17.3347 15.443 18.8923 14.78C19.6823 14.446 20.5123 14.188 21.3523 14.016C21.5663 13.972 21.7843 13.952 22.0003 13.918V20L32.0003 12L22.0003 4V9.876C21.5141 9.92983 21.0303 10.0039 20.5503 10.098C18.3586 10.5471 16.2769 11.4238 14.4243 12.678C11.1333 14.898 8.71537 18.1921 7.58379 21.9972C6.45221 25.8024 6.6772 29.8824 8.22031 33.54C9.07939 35.5765 10.3258 37.4267 11.8903 38.988C13.4527 40.5474 15.3002 41.7919 17.3323 42.654C20.527 44.0056 24.0572 44.3537 27.4543 43.652C30.1736 43.09 32.7158 41.8761 34.8625 40.1148C37.0091 38.3534 38.6961 36.0972 39.7783 33.54C40.2183 32.5 40.5563 31.418 40.7783 30.324C41.242 28.0474 41.242 25.7006 40.7783 23.424C40.5505 22.3229 40.2162 21.2465 39.7803 20.21Z" fill="white"/>
</svg>
