<svg width="48" height="48" viewBox="0 0 48 48" fill="none" xmlns="http://www.w3.org/2000/svg">
<path d="M38 6H10C7.8 6 6 7.8 6 10V38C6 40.2 7.8 42 10 42H38C40.2 42 42 40.2 42 38V10C42 7.8 40.2 6 38 6ZM26 34H16C14.9 34 14 33.1 14 32C14 30.9 14.9 30 16 30H26C27.1 30 28 30.9 28 32C28 33.1 27.1 34 26 34ZM32 26H16C14.9 26 14 25.1 14 24C14 22.9 14.9 22 16 22H32C33.1 22 34 22.9 34 24C34 25.1 33.1 26 32 26ZM32 18H16C14.9 18 14 17.1 14 16C14 14.9 14.9 14 16 14H32C33.1 14 34 14.9 34 16C34 17.1 33.1 18 32 18Z" fill="white"/>
</svg>
