<svg width="48" height="48" viewBox="0 0 48 48" fill="none" xmlns="http://www.w3.org/2000/svg">
<path d="M38.3998 14.4H8.3998V13.2L34.7998 11.088V13.2H38.3998V9.59997C38.3998 6.95997 36.2614 5.10717 33.6502 5.47917L9.55181 8.92077C6.9382 9.29517 4.7998 11.76 4.7998 14.4V38.4C4.7998 39.673 5.30552 40.8939 6.20569 41.7941C7.10587 42.6943 8.32677 43.2 9.5998 43.2H38.3998C39.6728 43.2 40.8937 42.6943 41.7939 41.7941C42.6941 40.8939 43.1998 39.673 43.1998 38.4V19.2C43.1998 17.9269 42.6941 16.706 41.7939 15.8059C40.8937 14.9057 39.6728 14.4 38.3998 14.4ZM34.7998 31.2144C34.3269 31.2142 33.8586 31.1209 33.4218 30.9398C32.9849 30.7587 32.588 30.4933 32.2537 30.1588C31.9194 29.8242 31.6543 29.4272 31.4735 28.9902C31.2926 28.5532 31.1996 28.0849 31.1998 27.612C31.2 27.1391 31.2933 26.6708 31.4744 26.2339C31.6555 25.7971 31.9209 25.4002 32.2554 25.0659C32.5899 24.7316 32.987 24.4665 33.424 24.2856C33.861 24.1048 34.3293 24.0118 34.8022 24.012C35.7573 24.0123 36.6732 24.392 37.3483 25.0676C38.0234 25.7432 38.4025 26.6593 38.4022 27.6144C38.4019 28.5695 38.0222 29.4853 37.3466 30.1604C36.671 30.8356 35.7549 31.2147 34.7998 31.2144Z" fill="white"/>
</svg>
