<svg width="80" height="80" viewBox="0 0 80 80" fill="none" xmlns="http://www.w3.org/2000/svg">
<path fill-rule="evenodd" clip-rule="evenodd" d="M58 63.3333V73.3333C58 73.7754 58.1756 74.1993 58.4882 74.5118C58.8007 74.8244 59.2246 75 59.6667 75C60.1087 75 60.5326 74.8244 60.8452 74.5118C61.1577 74.1993 61.3333 73.7754 61.3333 73.3333V63.3333C61.3333 62.8913 61.1577 62.4674 60.8452 62.1548C60.5326 61.8423 60.1087 61.6667 59.6667 61.6667C59.2246 61.6667 58.8007 61.8423 58.4882 62.1548C58.1756 62.4674 58 62.8913 58 63.3333ZM68 70C68 68.1233 69.6817 66.6483 71.245 65.865C71.7967 65.59 72.5833 65.445 73 65.3833V73.3333C73 73.7754 73.1756 74.1993 73.4882 74.5118C73.8007 74.8244 74.2246 75 74.6667 75C75.1087 75 75.5326 74.8244 75.8452 74.5118C76.1577 74.1993 76.3333 73.7754 76.3333 73.3333V65C76.3333 64.0867 76.0117 63.41 75.5283 62.9167C74.925 62.295 73.9667 61.9267 72.7633 62.0017C71.3783 62.0867 69.5533 62.795 68 63.985V63.3333C68 62.8913 67.8244 62.4674 67.5118 62.1548C67.1993 61.8423 66.7754 61.6667 66.3333 61.6667C65.8913 61.6667 65.4674 61.8423 65.1548 62.1548C64.8423 62.4674 64.6667 62.8913 64.6667 63.3333V73.3333C64.6667 73.7754 64.8423 74.1993 65.1548 74.5118C65.4674 74.8244 65.8913 75 66.3333 75C66.7754 75 67.1993 74.8244 67.5118 74.5118C67.8244 74.1993 68 73.7754 68 73.3333V70ZM46.3333 62.9417C45.6138 62.299 44.7237 61.8782 43.7704 61.7299C42.8171 61.5816 41.8413 61.7122 40.9606 62.1059C40.0798 62.4996 39.3317 63.1397 38.8064 63.9489C38.2811 64.7581 38.0011 65.7019 38 66.6667V73.3333C38 73.7754 38.1756 74.1993 38.4882 74.5118C38.8007 74.8244 39.2246 75 39.6667 75C40.1087 75 40.5326 74.8244 40.8452 74.5118C41.1577 74.1993 41.3333 73.7754 41.3333 73.3333V66.6667C41.3333 66.2246 41.5089 65.8007 41.8215 65.4882C42.134 65.1756 42.558 65 43 65C43.442 65 43.866 65.1756 44.1785 65.4882C44.4911 65.8007 44.6667 66.2246 44.6667 66.6667V73.3333C44.6667 73.7754 44.8423 74.1993 45.1548 74.5118C45.4674 74.8244 45.8913 75 46.3333 75C46.7754 75 47.1993 74.8244 47.5118 74.5118C47.8244 74.1993 48 73.7754 48 73.3333V66.6567C48.0013 66.2146 48.1782 65.7912 48.4917 65.4796C48.8052 65.168 49.2296 64.9937 49.6717 64.995C50.1137 64.9963 50.5371 65.1732 50.8487 65.4867C51.1603 65.8002 51.3347 66.2246 51.3333 66.6667V73.3333C51.3333 73.7754 51.5089 74.1993 51.8215 74.5118C52.1341 74.8244 52.558 75 53 75C53.442 75 53.866 74.8244 54.1785 74.5118C54.4911 74.1993 54.6667 73.7754 54.6667 73.3333V66.6667C54.6656 65.7019 54.3856 64.7581 53.8603 63.9489C53.335 63.1397 52.5869 62.4996 51.7061 62.1059C50.8254 61.7122 49.8495 61.5816 48.8962 61.7299C47.943 61.8782 47.0529 62.299 46.3333 62.9417ZM16.3333 68.3333V68.33C16.3333 67.0048 15.8069 65.7339 14.8698 64.7968C13.9328 63.8598 12.6619 63.3333 11.3367 63.3333H6.33333V58.3333C6.33333 57.4493 6.68452 56.6014 7.30964 55.9763C7.93477 55.3512 8.78261 55 9.66667 55C10.5507 55 11.3986 55.3512 12.0237 55.9763C12.6488 56.6014 13 57.4493 13 58.3333C13 58.7754 13.1756 59.1993 13.4882 59.5118C13.8007 59.8244 14.2246 60 14.6667 60C15.1087 60 15.5326 59.8244 15.8452 59.5118C16.1577 59.1993 16.3333 58.7754 16.3333 58.3333C16.3333 54.6533 13.3467 51.6667 9.66667 51.6667C5.98667 51.6667 3 54.6533 3 58.3333V68.3333C3 72.0133 5.98667 75 9.66667 75C13.3467 75 16.3333 72.0133 16.3333 68.3333ZM33 58.3333C33 54.6533 30.0133 51.6667 26.3333 51.6667C22.6533 51.6667 19.6667 54.6533 19.6667 58.3333V68.3333C19.6667 72.0133 22.6533 75 26.3333 75C30.0133 75 33 72.0133 33 68.3333V58.3333ZM6.33333 66.6667V68.3333C6.33333 69.2174 6.68452 70.0652 7.30964 70.6904C7.93477 71.3155 8.78261 71.6667 9.66667 71.6667C10.5507 71.6667 11.3986 71.3155 12.0237 70.6904C12.6488 70.0652 13 69.2174 13 68.3333V68.33C13 67.8889 12.8248 67.4658 12.5128 67.1538C12.2009 66.8419 11.7778 66.6667 11.3367 66.6667H6.33333ZM29.6667 58.3333V68.3333C29.6667 69.2174 29.3155 70.0652 28.6904 70.6904C28.0652 71.3155 27.2174 71.6667 26.3333 71.6667C25.4493 71.6667 24.6014 71.3155 23.9763 70.6904C23.3512 70.0652 23 69.2174 23 68.3333V58.3333C23 57.4493 23.3512 56.6014 23.9763 55.9763C24.6014 55.3512 25.4493 55 26.3333 55C27.2174 55 28.0652 55.3512 28.6904 55.9763C29.3155 56.6014 29.6667 57.4493 29.6667 58.3333ZM34.6667 8.33333V12.4317C27.9083 14.5567 23 20.8767 23 28.3333C23 37.5317 30.4683 45 39.6667 45C48.865 45 56.3333 37.5317 56.3333 28.3333C56.3333 20.8767 51.425 14.5567 44.6667 12.4317V8.33333H46.3333C46.7754 8.33333 47.1993 8.15774 47.5118 7.84518C47.8244 7.53262 48 7.10869 48 6.66667C48 6.22464 47.8244 5.80072 47.5118 5.48816C47.1993 5.17559 46.7754 5 46.3333 5H33C32.558 5 32.1341 5.17559 31.8215 5.48816C31.5089 5.80072 31.3333 6.22464 31.3333 6.66667C31.3333 7.10869 31.5089 7.53262 31.8215 7.84518C32.1341 8.15774 32.558 8.33333 33 8.33333H34.6667ZM41.3333 15.1033V16.6667C41.3333 17.1087 41.1577 17.5326 40.8452 17.8452C40.5326 18.1577 40.1087 18.3333 39.6667 18.3333C39.2246 18.3333 38.8007 18.1577 38.4882 17.8452C38.1756 17.5326 38 17.1087 38 16.6667V15.1033C35.6271 15.4001 33.3784 16.3324 31.4917 17.8017L32.595 18.905C32.7497 19.0597 32.8725 19.2434 32.9562 19.4456C33.04 19.6478 33.0831 19.8645 33.0831 20.0833C33.0831 20.3022 33.04 20.5189 32.9562 20.721C32.8725 20.9232 32.7497 21.1069 32.595 21.2617C32.4403 21.4164 32.2566 21.5392 32.0544 21.6229C31.8522 21.7066 31.6355 21.7497 31.4167 21.7497C31.1978 21.7497 30.9811 21.7066 30.779 21.6229C30.5768 21.5392 30.3931 21.4164 30.2383 21.2617L29.135 20.1583C27.6657 22.0451 26.7334 24.2938 26.4367 26.6667H28C28.442 26.6667 28.866 26.8423 29.1785 27.1548C29.4911 27.4674 29.6667 27.8913 29.6667 28.3333C29.6667 28.7754 29.4911 29.1993 29.1785 29.5118C28.866 29.8244 28.442 30 28 30H26.4367C26.7334 32.3729 27.6657 34.6216 29.135 36.5083L30.2383 35.405C30.3931 35.2503 30.5768 35.1275 30.779 35.0438C30.9811 34.96 31.1978 34.9169 31.4167 34.9169C31.6355 34.9169 31.8522 34.96 32.0544 35.0438C32.2566 35.1275 32.4403 35.2503 32.595 35.405C32.7497 35.5597 32.8725 35.7434 32.9562 35.9456C33.04 36.1478 33.0831 36.3645 33.0831 36.5833C33.0831 36.8022 33.04 37.0189 32.9562 37.221C32.8725 37.4232 32.7497 37.6069 32.595 37.7617L31.4917 38.865C33.3784 40.3343 35.6271 41.2666 38 41.5633V40C38 39.558 38.1756 39.134 38.4882 38.8215C38.8007 38.5089 39.2246 38.3333 39.6667 38.3333C40.1087 38.3333 40.5326 38.5089 40.8452 38.8215C41.1577 39.134 41.3333 39.558 41.3333 40V41.5633C43.7062 41.2666 45.9549 40.3343 47.8417 38.865L46.7383 37.7617C46.5836 37.6069 46.4608 37.4232 46.3771 37.221C46.2934 37.0189 46.2503 36.8022 46.2503 36.5833C46.2503 36.3645 46.2934 36.1478 46.3771 35.9456C46.4608 35.7434 46.5836 35.5597 46.7383 35.405C46.8931 35.2503 47.0768 35.1275 47.279 35.0438C47.4811 34.96 47.6978 34.9169 47.9167 34.9169C48.1355 34.9169 48.3522 34.96 48.5544 35.0438C48.7566 35.1275 48.9403 35.2503 49.095 35.405L50.1983 36.5083C51.6676 34.6216 52.5999 32.3729 52.8967 30H51.3333C50.8913 30 50.4674 29.8244 50.1548 29.5118C49.8423 29.1993 49.6667 28.7754 49.6667 28.3333C49.6667 27.8913 49.8423 27.4674 50.1548 27.1548C50.4674 26.8423 50.8913 26.6667 51.3333 26.6667H52.8967C52.5999 24.2938 51.6676 22.0451 50.1983 20.1583L49.095 21.2617C48.9403 21.4164 48.7566 21.5392 48.5544 21.6229C48.3522 21.7066 48.1355 21.7497 47.9167 21.7497C47.6978 21.7497 47.4811 21.7066 47.279 21.6229C47.0768 21.5392 46.8931 21.4164 46.7383 21.2617C46.5836 21.1069 46.4608 20.9232 46.3771 20.721C46.2934 20.5189 46.2503 20.3022 46.2503 20.0833C46.2503 19.8645 46.2934 19.6478 46.3771 19.4456C46.4608 19.2434 46.5836 19.0597 46.7383 18.905L47.8417 17.8017C45.9549 16.3324 43.7062 15.4001 41.3333 15.1033ZM41.3333 11.7483V8.33333H38V11.7483C39.1085 11.6406 40.2248 11.6406 41.3333 11.7483Z" fill="url(#paint0_linear_1346_12972)"/>
<defs>
<linearGradient id="paint0_linear_1346_12972" x1="18.5786" y1="-81.1539" x2="-67.0766" y2="-12.7505" gradientUnits="userSpaceOnUse">
<stop stop-color="#2DD1DB"/>
<stop offset="0.60721" stop-color="#2D9CDB"/>
<stop offset="1" stop-color="#1A8ED0"/>
</linearGradient>
</defs>
</svg>
