<svg width="56" height="80" viewBox="0 0 56 80" fill="none" xmlns="http://www.w3.org/2000/svg">
<path d="M52.25 0H3.75C1.75 0 0.125 1.625 0.125 3.625V76.375C0.125 78.375 1.75 80 3.75 80H52.25C54.25 80 55.875 78.375 55.875 76.375V3.625C55.875 1.625 54.25 0 52.25 0ZM53.5 76.375C53.5 77 53 77.625 52.25 77.625H3.75C3.125 77.625 2.5 77.125 2.5 76.375V3.625C2.5 3 3 2.375 3.75 2.375H52.25C52.875 2.375 53.5 2.875 53.5 3.625V76.375Z" fill="url(#paint0_linear_1340_12772)"/>
<path d="M47.375 19.375H8.625C8 19.375 7.375 19.875 7.375 20.625C7.375 21.375 7.875 21.875 8.625 21.875H47.375C48 21.875 48.625 21.375 48.625 20.625C48.625 19.875 48.125 19.375 47.375 19.375ZM47.375 29.125H8.625C8 29.125 7.375 29.625 7.375 30.375C7.375 31.125 7.875 31.625 8.625 31.625H47.375C48 31.625 48.625 31.125 48.625 30.375C48.625 29.625 48.125 29.125 47.375 29.125ZM47.375 48.5H8.625C8 48.5 7.375 49 7.375 49.75C7.375 50.5 7.875 51 8.625 51H47.375C48 51 48.625 50.5 48.625 49.75C48.625 49 48.125 48.5 47.375 48.5ZM47.375 38.75H8.625C8 38.75 7.375 39.25 7.375 40C7.375 40.75 7.875 41.25 8.625 41.25H47.375C48 41.25 48.625 40.75 48.625 40C48.625 39.25 48.125 38.75 47.375 38.75ZM47.375 58.125H8.625C8 58.125 7.375 58.625 7.375 59.375C7.375 60.125 7.875 60.625 8.625 60.625H47.375C48 60.625 48.625 60.125 48.625 59.375C48.625 58.625 48.125 58.125 47.375 58.125Z" fill="url(#paint1_linear_1340_12772)"/>
<defs>
<linearGradient id="paint0_linear_1340_12772" x1="11.9683" y1="-98.4615" x2="-71.206" y2="-54.2776" gradientUnits="userSpaceOnUse">
<stop stop-color="#2DD1DB"/>
<stop offset="0.60721" stop-color="#2D9CDB"/>
<stop offset="1" stop-color="#1A8ED0"/>
</linearGradient>
<linearGradient id="paint1_linear_1340_12772" x1="16.138" y1="-31.3942" x2="-33.7697" y2="6.64985" gradientUnits="userSpaceOnUse">
<stop stop-color="#2DD1DB"/>
<stop offset="0.60721" stop-color="#2D9CDB"/>
<stop offset="1" stop-color="#1A8ED0"/>
</linearGradient>
</defs>
</svg>
