<svg width="80" height="80" viewBox="0 0 80 80" fill="none" xmlns="http://www.w3.org/2000/svg">
<path d="M29.8947 13H21.0526C19.7126 13 18.4274 13.538 17.4799 14.4956C16.5323 15.4533 16 16.7521 16 18.1064V67.8936C16 69.2479 16.5323 70.5467 17.4799 71.5044C18.4274 72.462 19.7126 73 21.0526 73H58.9474C60.2874 73 61.5726 72.462 62.5201 71.5044C63.4677 70.5467 64 69.2479 64 67.8936V18.1064C64 16.7521 63.4677 15.4533 62.5201 14.4956C61.5726 13.538 60.2874 13 58.9474 13H50.1053" stroke="url(#paint0_linear_1346_12940)" stroke-width="2" stroke-linecap="round" stroke-linejoin="round"/>
<path d="M40 11C42.2091 11 44 9.20914 44 7C44 4.79086 42.2091 3 40 3C37.7909 3 36 4.79086 36 7C36 9.20914 37.7909 11 40 11Z" stroke="url(#paint1_linear_1346_12940)" stroke-width="2" stroke-linecap="round" stroke-linejoin="round"/>
<path d="M35.1111 11H44.8889C45.6914 11 46.4861 11.1552 47.2275 11.4567C47.9689 11.7583 48.6426 12.2002 49.2101 12.7574C49.7776 13.3145 50.2277 13.9759 50.5348 14.7039C50.8419 15.4319 51 16.2121 51 17V17H29C29 15.4087 29.6438 13.8826 30.7899 12.7574C31.936 11.6321 33.4903 11 35.1111 11V11Z" stroke="url(#paint2_linear_1346_12940)" stroke-width="2" stroke-linecap="round" stroke-linejoin="round"/>
<path d="M28.5 36C29.8807 36 31 34.8807 31 33.5C31 32.1193 29.8807 31 28.5 31C27.1193 31 26 32.1193 26 33.5C26 34.8807 27.1193 36 28.5 36Z" fill="url(#paint3_linear_1346_12940)"/>
<path d="M37 34H53" stroke="url(#paint4_linear_1346_12940)" stroke-width="2" stroke-linecap="round" stroke-linejoin="round"/>
<path d="M28.5 45C29.8807 45 31 43.8807 31 42.5C31 41.1193 29.8807 40 28.5 40C27.1193 40 26 41.1193 26 42.5C26 43.8807 27.1193 45 28.5 45Z" fill="url(#paint5_linear_1346_12940)"/>
<path d="M37 43H53" stroke="url(#paint6_linear_1346_12940)" stroke-width="2" stroke-linecap="round" stroke-linejoin="round"/>
<path d="M28.5 54C29.8807 54 31 52.8807 31 51.5C31 50.1193 29.8807 49 28.5 49C27.1193 49 26 50.1193 26 51.5C26 52.8807 27.1193 54 28.5 54Z" fill="url(#paint7_linear_1346_12940)"/>
<path d="M37 52H53" stroke="url(#paint8_linear_1346_12940)" stroke-width="2" stroke-linecap="round" stroke-linejoin="round"/>
<defs>
<linearGradient id="paint0_linear_1346_12940" x1="26.1969" y1="-60.8462" x2="-40.7328" y2="-20.0303" gradientUnits="userSpaceOnUse">
<stop stop-color="#2DD1DB"/>
<stop offset="0.60721" stop-color="#2D9CDB"/>
<stop offset="1" stop-color="#1A8ED0"/>
</linearGradient>
<linearGradient id="paint1_linear_1346_12940" x1="37.6995" y1="-6.84615" x2="28.0204" y2="0.532092" gradientUnits="userSpaceOnUse">
<stop stop-color="#2DD1DB"/>
<stop offset="0.60721" stop-color="#2D9CDB"/>
<stop offset="1" stop-color="#1A8ED0"/>
</linearGradient>
<linearGradient id="paint2_linear_1346_12940" x1="33.6736" y1="3.61538" x2="28.898" y2="16.9635" gradientUnits="userSpaceOnUse">
<stop stop-color="#2DD1DB"/>
<stop offset="0.60721" stop-color="#2D9CDB"/>
<stop offset="1" stop-color="#1A8ED0"/>
</linearGradient>
<linearGradient id="paint3_linear_1346_12940" x1="27.0622" y1="24.8462" x2="21.0128" y2="29.4576" gradientUnits="userSpaceOnUse">
<stop stop-color="#2DD1DB"/>
<stop offset="0.60721" stop-color="#2D9CDB"/>
<stop offset="1" stop-color="#1A8ED0"/>
</linearGradient>
<linearGradient id="paint4_linear_1346_12940" x1="40.399" y1="32.7692" x2="40.1946" y2="35.2619" gradientUnits="userSpaceOnUse">
<stop stop-color="#2DD1DB"/>
<stop offset="0.60721" stop-color="#2D9CDB"/>
<stop offset="1" stop-color="#1A8ED0"/>
</linearGradient>
<linearGradient id="paint5_linear_1346_12940" x1="27.0622" y1="33.8462" x2="21.0128" y2="38.4576" gradientUnits="userSpaceOnUse">
<stop stop-color="#2DD1DB"/>
<stop offset="0.60721" stop-color="#2D9CDB"/>
<stop offset="1" stop-color="#1A8ED0"/>
</linearGradient>
<linearGradient id="paint6_linear_1346_12940" x1="40.399" y1="41.7692" x2="40.1946" y2="44.2619" gradientUnits="userSpaceOnUse">
<stop stop-color="#2DD1DB"/>
<stop offset="0.60721" stop-color="#2D9CDB"/>
<stop offset="1" stop-color="#1A8ED0"/>
</linearGradient>
<linearGradient id="paint7_linear_1346_12940" x1="27.0622" y1="42.8462" x2="21.0128" y2="47.4576" gradientUnits="userSpaceOnUse">
<stop stop-color="#2DD1DB"/>
<stop offset="0.60721" stop-color="#2D9CDB"/>
<stop offset="1" stop-color="#1A8ED0"/>
</linearGradient>
<linearGradient id="paint8_linear_1346_12940" x1="40.399" y1="50.7692" x2="40.1946" y2="53.2619" gradientUnits="userSpaceOnUse">
<stop stop-color="#2DD1DB"/>
<stop offset="0.60721" stop-color="#2D9CDB"/>
<stop offset="1" stop-color="#1A8ED0"/>
</linearGradient>
</defs>
</svg>
