<svg width="80" height="80" viewBox="0 0 80 80" fill="none" xmlns="http://www.w3.org/2000/svg">
<path d="M54.5236 29.0566H26.9045C26.6519 29.0566 26.4097 29.157 26.2311 29.3356C26.0525 29.5142 25.9521 29.7564 25.9521 30.009C25.9521 30.2616 26.0525 30.5038 26.2311 30.6825C26.4097 30.8611 26.6519 30.9614 26.9045 30.9614H54.5236C54.7762 30.9614 55.0184 30.8611 55.197 30.6825C55.3756 30.5038 55.476 30.2616 55.476 30.009C55.476 29.7564 55.3756 29.5142 55.197 29.3356C55.0184 29.157 54.7762 29.0566 54.5236 29.0566Z" fill="url(#paint0_linear_1344_12904)"/>
<path d="M26.9045 35.7231H47.8569C48.1095 35.7231 48.3517 35.6228 48.5303 35.4442C48.709 35.2656 48.8093 35.0233 48.8093 34.7707C48.8093 34.5182 48.709 34.2759 48.5303 34.0973C48.3517 33.9187 48.1095 33.8184 47.8569 33.8184H26.9045C26.6519 33.8184 26.4097 33.9187 26.2311 34.0973C26.0525 34.2759 25.9521 34.5182 25.9521 34.7707C25.9521 35.0233 26.0525 35.2656 26.2311 35.4442C26.4097 35.6228 26.6519 35.7231 26.9045 35.7231Z" fill="url(#paint1_linear_1344_12904)"/>
<path d="M54.5236 38.5811H26.9045C26.6519 38.5811 26.4097 38.6814 26.2311 38.86C26.0525 39.0386 25.9521 39.2808 25.9521 39.5334C25.9521 39.786 26.0525 40.0283 26.2311 40.2069C26.4097 40.3855 26.6519 40.4858 26.9045 40.4858H54.5236C54.7762 40.4858 55.0184 40.3855 55.197 40.2069C55.3756 40.0283 55.476 39.786 55.476 39.5334C55.476 39.2808 55.3756 39.0386 55.197 38.86C55.0184 38.6814 54.7762 38.5811 54.5236 38.5811Z" fill="url(#paint2_linear_1344_12904)"/>
<path d="M26.9045 45.2475H47.8569C48.1095 45.2475 48.3517 45.1472 48.5303 44.9686C48.709 44.79 48.8093 44.5477 48.8093 44.2952C48.8093 44.0426 48.709 43.8003 48.5303 43.6217C48.3517 43.4431 48.1095 43.3428 47.8569 43.3428H26.9045C26.6519 43.3428 26.4097 43.4431 26.2311 43.6217C26.0525 43.8003 25.9521 44.0426 25.9521 44.2952C25.9521 44.5477 26.0525 44.79 26.2311 44.9686C26.4097 45.1472 26.6519 45.2475 26.9045 45.2475Z" fill="url(#paint3_linear_1344_12904)"/>
<path d="M54.5236 48.1045H26.9045C26.6519 48.1045 26.4097 48.2048 26.2311 48.3834C26.0525 48.562 25.9521 48.8043 25.9521 49.0569C25.9521 49.3095 26.0525 49.5517 26.2311 49.7303C26.4097 49.9089 26.6519 50.0093 26.9045 50.0093H54.5236C54.7762 50.0093 55.0184 49.9089 55.197 49.7303C55.3756 49.5517 55.476 49.3095 55.476 49.0569C55.476 48.8043 55.3756 48.562 55.197 48.3834C55.0184 48.2048 54.7762 48.1045 54.5236 48.1045Z" fill="url(#paint4_linear_1344_12904)"/>
<path d="M26.9045 54.771H47.8569C48.1095 54.771 48.3517 54.6706 48.5303 54.492C48.709 54.3134 48.8093 54.0712 48.8093 53.8186C48.8093 53.566 48.709 53.3238 48.5303 53.1452C48.3517 52.9666 48.1095 52.8662 47.8569 52.8662H26.9045C26.6519 52.8662 26.4097 52.9666 26.2311 53.1452C26.0525 53.3238 25.9521 53.566 25.9521 53.8186C25.9521 54.0712 26.0525 54.3134 26.2311 54.492C26.4097 54.6706 26.6519 54.771 26.9045 54.771Z" fill="url(#paint5_linear_1344_12904)"/>
<path d="M54.5236 57.6279H26.9045C26.6519 57.6279 26.4097 57.7283 26.2311 57.9069C26.0525 58.0855 25.9521 58.3277 25.9521 58.5803C25.9521 58.8329 26.0525 59.0751 26.2311 59.2537C26.4097 59.4323 26.6519 59.5327 26.9045 59.5327H54.5236C54.7762 59.5327 55.0184 59.4323 55.197 59.2537C55.3756 59.0751 55.476 58.8329 55.476 58.5803C55.476 58.3277 55.3756 58.0855 55.197 57.9069C55.0184 57.7283 54.7762 57.6279 54.5236 57.6279Z" fill="url(#paint6_linear_1344_12904)"/>
<path d="M47.8569 62.3896H26.9045C26.6519 62.3896 26.4097 62.49 26.2311 62.6686C26.0525 62.8472 25.9521 63.0894 25.9521 63.342C25.9521 63.5946 26.0525 63.8369 26.2311 64.0155C26.4097 64.1941 26.6519 64.2944 26.9045 64.2944H47.8569C48.1095 64.2944 48.3517 64.1941 48.5303 64.0155C48.709 63.8369 48.8093 63.5946 48.8093 63.342C48.8093 63.0894 48.709 62.8472 48.5303 62.6686C48.3517 62.49 48.1095 62.3896 47.8569 62.3896Z" fill="url(#paint7_linear_1344_12904)"/>
<path d="M54.5236 19.5332H26.9045C26.6519 19.5332 26.4097 19.6335 26.2311 19.8122C26.0525 19.9908 25.9521 20.233 25.9521 20.4856C25.9521 20.7382 26.0525 20.9804 26.2311 21.159C26.4097 21.3376 26.6519 21.438 26.9045 21.438H54.5236C54.7762 21.438 55.0184 21.3376 55.197 21.159C55.3756 20.9804 55.476 20.7382 55.476 20.4856C55.476 20.233 55.3756 19.9908 55.197 19.8122C55.0184 19.6335 54.7762 19.5332 54.5236 19.5332Z" fill="url(#paint8_linear_1344_12904)"/>
<path d="M26.9045 26.1997H47.8569C48.1095 26.1997 48.3517 26.0993 48.5303 25.9207C48.709 25.7421 48.8093 25.4999 48.8093 25.2473C48.8093 24.9947 48.709 24.7525 48.5303 24.5739C48.3517 24.3953 48.1095 24.2949 47.8569 24.2949H26.9045C26.6519 24.2949 26.4097 24.3953 26.2311 24.5739C26.0525 24.7525 25.9521 24.9947 25.9521 25.2473C25.9521 25.4999 26.0525 25.7421 26.2311 25.9207C26.4097 26.0993 26.6519 26.1997 26.9045 26.1997Z" fill="url(#paint9_linear_1344_12904)"/>
<path d="M56.264 74.2949H52.308C52.0686 74.3141 51.8451 74.4228 51.6822 74.5993C51.5193 74.7757 51.4288 75.0071 51.4288 75.2473C51.4288 75.4875 51.5193 75.7189 51.6822 75.8954C51.8451 76.0718 52.0686 76.1805 52.308 76.1997H56.264C56.5035 76.1805 56.7269 76.0718 56.8898 75.8954C57.0527 75.7189 57.1432 75.4875 57.1432 75.2473C57.1432 75.0071 57.0527 74.7757 56.8898 74.5993C56.7269 74.4228 56.5035 74.3141 56.264 74.2949ZM27.6926 74.2949H23.7365C23.4971 74.3141 23.2737 74.4228 23.1108 74.5993C22.9479 74.7757 22.8574 75.0071 22.8574 75.2473C22.8574 75.4875 22.9479 75.7189 23.1108 75.8954C23.2737 76.0718 23.4971 76.1805 23.7365 76.1997H27.6926C27.932 76.1805 28.1554 76.0718 28.3184 75.8954C28.4813 75.7189 28.5717 75.4875 28.5717 75.2473C28.5717 75.0071 28.4813 74.7757 28.3184 74.5993C28.1554 74.4228 27.932 74.3141 27.6926 74.2949ZM49.5241 74.2949H30.4765C30.2239 74.2949 29.9817 74.3953 29.803 74.5739C29.6244 74.7525 29.5241 74.9947 29.5241 75.2473C29.5241 75.4999 29.6244 75.7421 29.803 75.9207C29.9817 76.0993 30.2239 76.1997 30.4765 76.1997H38.067V77.1521H34.286C34.0334 77.1521 33.7912 77.2524 33.6126 77.431C33.434 77.6096 33.3336 77.8519 33.3336 78.1044C33.3336 78.357 33.434 78.5993 33.6126 78.7779C33.7912 78.9565 34.0334 79.0568 34.286 79.0568H46.1908C46.4434 79.0568 46.6856 78.9565 46.8642 78.7779C47.0428 78.5993 47.1431 78.357 47.1431 78.1044C47.1431 77.8519 47.0428 77.6096 46.8642 77.431C46.6856 77.2524 46.4434 77.1521 46.1908 77.1521H41.9336V76.1997H49.5241C49.7767 76.1997 50.0189 76.0993 50.1975 75.9207C50.3761 75.7421 50.4765 75.4999 50.4765 75.2473C50.4765 74.9947 50.3761 74.7525 50.1975 74.5739C50.0189 74.3953 49.7767 74.2949 49.5241 74.2949Z" fill="url(#paint10_linear_1344_12904)"/>
<path d="M71.7716 70.4851H68.2666C61.995 63.1008 65.0649 43.0932 67.3192 28.4236C67.9484 24.3309 68.492 20.7962 68.7715 17.9563C68.8843 17.025 68.8049 16.0804 68.5382 15.181C68.2716 14.2816 67.8233 13.4464 67.2211 12.727C66.8992 12.3403 66.4996 12.0256 66.0481 11.8034C65.5966 11.5813 65.1035 11.4566 64.6007 11.4375C64.5175 11.4544 64.4318 11.4544 64.3486 11.4375H17.079C17.0431 11.439 17.0073 11.4427 16.9718 11.4483C16.9125 11.4447 16.8534 11.4375 16.794 11.4375C13.4946 11.4375 11.1901 14.0798 11.1901 17.8628V40.1768C11.1695 41.021 11.4843 41.8389 12.0656 42.4515C12.6468 43.064 13.4471 43.4213 14.2912 43.445H15.531C14.4104 54.0693 14.3351 64.6192 18.0907 70.4851H8.22749C8.092 70.4674 7.9543 70.4788 7.82357 70.5186C7.69284 70.5583 7.5721 70.6255 7.46942 70.7157C7.36673 70.8058 7.28446 70.9168 7.22809 71.0413C7.17173 71.1658 7.14258 71.3008 7.14258 71.4375C7.14258 71.5741 7.17173 71.7092 7.22809 71.8337C7.28446 71.9581 7.36673 72.0692 7.46942 72.1593C7.5721 72.2494 7.69284 72.3166 7.82357 72.3564C7.9543 72.3962 8.092 72.4076 8.22749 72.3899H71.7716C71.9071 72.4076 72.0448 72.3962 72.1755 72.3564C72.3063 72.3166 72.427 72.2494 72.5297 72.1593C72.6324 72.0692 72.7146 71.9581 72.771 71.8337C72.8274 71.7092 72.8565 71.5741 72.8565 71.4375C72.8565 71.3008 72.8274 71.1658 72.771 71.0413C72.7146 70.9168 72.6324 70.8058 72.5297 70.7157C72.427 70.6255 72.3063 70.5583 72.1755 70.5186C72.0448 70.4788 71.9071 70.4674 71.7716 70.4851ZM14.2912 41.5403C13.9524 41.5163 13.6368 41.3597 13.4128 41.1044C13.1888 40.8491 13.0746 40.5158 13.0949 40.1768V17.8628C13.0949 15.7776 14.0638 13.3423 16.794 13.3423C17.0303 13.3644 17.2596 13.4347 17.4676 13.549C17.6756 13.6634 17.8579 13.8192 18.0033 14.0068C18.4262 14.5293 18.7386 15.1321 18.9218 15.7788C19.105 16.4256 19.1552 17.1027 19.0691 17.7694C18.7943 20.5577 18.2549 24.0686 17.6299 28.1344C16.9884 32.309 16.2818 36.9049 15.7425 41.5403L14.2912 41.5403ZM20.4449 70.4851C14.1831 63.0939 17.2588 43.087 19.5125 28.4236C20.1417 24.3309 20.6849 20.7962 20.9646 17.9563C21.1444 16.3403 20.7642 14.7116 19.8875 13.3423H64.3486C64.4318 13.3253 64.5175 13.3253 64.6007 13.3423C64.8369 13.3644 65.0661 13.4347 65.2741 13.5489C65.482 13.6631 65.6644 13.8188 65.8098 14.0063C66.2327 14.5289 66.5452 15.1318 66.7285 15.7786C66.9118 16.4254 66.962 17.1026 66.8761 17.7693C66.6012 20.5581 66.0618 24.0691 65.4368 28.1344C63.2377 42.441 60.2768 61.7068 65.8949 70.4851H20.4449Z" fill="url(#paint11_linear_1344_12904)"/>
<defs>
<linearGradient id="paint0_linear_1344_12904" x1="32.224" y1="26.7123" x2="31.8224" y2="31.4582" gradientUnits="userSpaceOnUse">
<stop stop-color="#2DD1DB"/>
<stop offset="0.60721" stop-color="#2D9CDB"/>
<stop offset="1" stop-color="#1A8ED0"/>
</linearGradient>
<linearGradient id="paint1_linear_1344_12904" x1="30.8078" y1="31.474" x2="30.2914" y2="36.1975" gradientUnits="userSpaceOnUse">
<stop stop-color="#2DD1DB"/>
<stop offset="0.60721" stop-color="#2D9CDB"/>
<stop offset="1" stop-color="#1A8ED0"/>
</linearGradient>
<linearGradient id="paint2_linear_1344_12904" x1="32.224" y1="36.2367" x2="31.8224" y2="40.9826" gradientUnits="userSpaceOnUse">
<stop stop-color="#2DD1DB"/>
<stop offset="0.60721" stop-color="#2D9CDB"/>
<stop offset="1" stop-color="#1A8ED0"/>
</linearGradient>
<linearGradient id="paint3_linear_1344_12904" x1="30.8078" y1="40.9985" x2="30.2914" y2="45.7219" gradientUnits="userSpaceOnUse">
<stop stop-color="#2DD1DB"/>
<stop offset="0.60721" stop-color="#2D9CDB"/>
<stop offset="1" stop-color="#1A8ED0"/>
</linearGradient>
<linearGradient id="paint4_linear_1344_12904" x1="32.224" y1="45.7602" x2="31.8224" y2="50.5061" gradientUnits="userSpaceOnUse">
<stop stop-color="#2DD1DB"/>
<stop offset="0.60721" stop-color="#2D9CDB"/>
<stop offset="1" stop-color="#1A8ED0"/>
</linearGradient>
<linearGradient id="paint5_linear_1344_12904" x1="30.8078" y1="50.5219" x2="30.2914" y2="55.2453" gradientUnits="userSpaceOnUse">
<stop stop-color="#2DD1DB"/>
<stop offset="0.60721" stop-color="#2D9CDB"/>
<stop offset="1" stop-color="#1A8ED0"/>
</linearGradient>
<linearGradient id="paint6_linear_1344_12904" x1="32.224" y1="55.2836" x2="31.8224" y2="60.0295" gradientUnits="userSpaceOnUse">
<stop stop-color="#2DD1DB"/>
<stop offset="0.60721" stop-color="#2D9CDB"/>
<stop offset="1" stop-color="#1A8ED0"/>
</linearGradient>
<linearGradient id="paint7_linear_1344_12904" x1="30.8078" y1="60.0453" x2="30.2914" y2="64.7688" gradientUnits="userSpaceOnUse">
<stop stop-color="#2DD1DB"/>
<stop offset="0.60721" stop-color="#2D9CDB"/>
<stop offset="1" stop-color="#1A8ED0"/>
</linearGradient>
<linearGradient id="paint8_linear_1344_12904" x1="32.224" y1="17.1889" x2="31.8224" y2="21.9348" gradientUnits="userSpaceOnUse">
<stop stop-color="#2DD1DB"/>
<stop offset="0.60721" stop-color="#2D9CDB"/>
<stop offset="1" stop-color="#1A8ED0"/>
</linearGradient>
<linearGradient id="paint9_linear_1344_12904" x1="30.8078" y1="21.9506" x2="30.2914" y2="26.6741" gradientUnits="userSpaceOnUse">
<stop stop-color="#2DD1DB"/>
<stop offset="0.60721" stop-color="#2D9CDB"/>
<stop offset="1" stop-color="#1A8ED0"/>
</linearGradient>
<linearGradient id="paint10_linear_1344_12904" x1="30.1409" y1="68.4341" x2="28.0336" y2="79.9999" gradientUnits="userSpaceOnUse">
<stop stop-color="#2DD1DB"/>
<stop offset="0.60721" stop-color="#2D9CDB"/>
<stop offset="1" stop-color="#1A8ED0"/>
</linearGradient>
<linearGradient id="paint11_linear_1344_12904" x1="21.1025" y1="-63.5908" x2="-53.9351" y2="-1.93013" gradientUnits="userSpaceOnUse">
<stop stop-color="#2DD1DB"/>
<stop offset="0.60721" stop-color="#2D9CDB"/>
<stop offset="1" stop-color="#1A8ED0"/>
</linearGradient>
</defs>
</svg>
