<svg width="80" height="80" viewBox="0 0 80 80" fill="none" xmlns="http://www.w3.org/2000/svg">
<path d="M56.1496 61.2496C57.4757 61.2496 58.7475 60.7228 59.6851 59.7851C60.6228 58.8475 61.1496 57.5757 61.1496 56.2496V18.8496C61.1496 17.5235 60.6228 16.2518 59.6851 15.3141C58.7475 14.3764 57.4757 13.8496 56.1496 13.8496H18.8496C17.5235 13.8496 16.2518 14.3764 15.3141 15.3141C14.3764 16.2518 13.8496 17.5235 13.8496 18.8496V56.1496C13.8496 57.4757 14.3764 58.7475 15.3141 59.6851C16.2518 60.6228 17.5235 61.1496 18.8496 61.1496L56.1496 61.2496ZM16.1496 56.2496V18.8496C16.1496 18.1866 16.413 17.5507 16.8818 17.0818C17.3507 16.613 17.9866 16.3496 18.6496 16.3496H56.1496C56.8126 16.3496 57.4485 16.613 57.9174 17.0818C58.3862 17.5507 58.6496 18.1866 58.6496 18.8496V56.1496C58.6496 56.8126 58.3862 57.4485 57.9174 57.9174C57.4485 58.3862 56.8126 58.6496 56.1496 58.6496H18.8496C18.513 58.6631 18.1771 58.6084 17.8622 58.4888C17.5472 58.3692 17.2597 58.1872 17.0168 57.9537C16.774 57.7202 16.5809 57.44 16.449 57.13C16.3172 56.82 16.2493 56.4865 16.2496 56.1496L16.1496 56.2496Z" fill="url(#paint0_linear_1344_12887)"/>
<path d="M65 18.75C64.6685 18.75 64.3505 18.8817 64.1161 19.1161C63.8817 19.3505 63.75 19.6685 63.75 20V57.9C63.75 59.4515 63.1337 60.9395 62.0366 62.0366C60.9395 63.1337 59.4515 63.75 57.9 63.75H20C19.6685 63.75 19.3505 63.8817 19.1161 64.1161C18.8817 64.3505 18.75 64.6685 18.75 65C18.75 65.3315 18.8817 65.6495 19.1161 65.8839C19.3505 66.1183 19.6685 66.25 20 66.25H57.9C60.1125 66.2434 62.2326 65.3616 63.7971 63.7971C65.3616 62.2326 66.2434 60.1125 66.25 57.9V20C66.25 19.6685 66.1183 19.3505 65.8839 19.1161C65.6495 18.8817 65.3315 18.75 65 18.75Z" fill="url(#paint1_linear_1344_12887)"/>
<defs>
<linearGradient id="paint0_linear_1344_12887" x1="23.8978" y1="-44.4889" x2="-33.4184" y2="-0.889472" gradientUnits="userSpaceOnUse">
<stop stop-color="#2DD1DB"/>
<stop offset="0.60721" stop-color="#2D9CDB"/>
<stop offset="1" stop-color="#1A8ED0"/>
</linearGradient>
<linearGradient id="paint1_linear_1344_12887" x1="28.8407" y1="-39.7115" x2="-28.6287" y2="4.09679" gradientUnits="userSpaceOnUse">
<stop stop-color="#2DD1DB"/>
<stop offset="0.60721" stop-color="#2D9CDB"/>
<stop offset="1" stop-color="#1A8ED0"/>
</linearGradient>
</defs>
</svg>
