<svg width="80" height="80" viewBox="0 0 80 80" fill="none" xmlns="http://www.w3.org/2000/svg">
<g clip-path="url(#clip0_1340_12759)">
<path d="M79.2128 25.4793C77.5633 17.6646 71.3925 8.40491 61.7426 6.54116C59.3726 6.1081 56.9377 6.18263 54.5986 6.75982C52.2595 7.33701 50.0694 8.40375 48.1729 9.88961C46.0165 11.5067 44.2675 13.6049 43.0653 16.0173C41.8631 18.4297 41.2408 21.0895 41.2481 23.7848C41.2554 26.4802 41.892 29.1366 43.1073 31.5424C44.3226 33.9482 46.0829 36.037 48.248 37.6424C50.474 39.3774 53.096 40.5326 55.8786 41.0042C58.6612 41.4759 61.5174 41.2494 64.1908 40.3449C64.3205 40.298 64.4598 40.2841 64.5961 40.3045C64.7325 40.3249 64.8616 40.3788 64.9719 40.4616C65.085 40.5464 65.1752 40.6581 65.2345 40.7865C65.2937 40.9149 65.32 41.056 65.3111 41.1972C64.5307 58.4718 49.0376 65.2254 45.9396 66.4042C45.454 66.5885 45.0457 66.9326 44.7818 67.3799C44.5179 67.8271 44.4141 68.351 44.4876 68.8651C44.4876 68.8651 44.8829 71.7657 44.8834 71.7691C44.9365 72.1108 45.065 72.4364 45.2597 72.7222C45.4543 73.008 45.7102 73.2469 46.0087 73.4215C46.3073 73.596 46.6409 73.7019 46.9855 73.7314C47.33 73.7609 47.6768 73.7132 48.0006 73.592C83.3548 59.2391 80.829 33.1377 79.2128 25.4793ZM47.3259 71.1672L46.987 68.6807C50.6759 67.2461 66.9717 59.8673 67.8102 41.3101C67.8382 40.7629 67.7313 40.2171 67.4988 39.7208C67.2664 39.2246 66.9155 38.7931 66.477 38.4644C66.0386 38.1357 65.526 37.9198 64.9845 37.8357C64.443 37.7517 63.8891 37.8021 63.3717 37.9824C61.0885 38.7508 58.6504 38.9405 56.2759 38.5344C53.9014 38.1284 51.6649 37.1393 49.7668 35.6559C47.9067 34.2834 46.3937 32.4945 45.3489 30.4325C44.3041 28.3704 43.7564 26.0924 43.7498 23.7807C43.7432 21.4691 44.2778 19.188 45.3108 17.1199C46.3438 15.0519 47.8465 13.2544 49.6987 11.8712C51.314 10.6008 53.1805 9.68767 55.1748 9.19212C57.1692 8.69657 59.246 8.6299 61.268 8.99653C69.798 10.6436 75.2808 18.9631 76.7651 25.9958C78.2763 33.1548 80.6052 57.5237 47.3259 71.1672H47.3259Z" fill="url(#paint0_linear_1340_12759)"/>
<path d="M54.5583 13.7515C54.4046 13.81 54.2639 13.8984 54.1443 14.0114C54.0247 14.1245 53.9287 14.26 53.8616 14.4103C53.7945 14.5606 53.7578 14.7226 53.7535 14.8871C53.7492 15.0516 53.7775 15.2153 53.8366 15.3689C53.8957 15.5225 53.9846 15.6628 54.098 15.782C54.2115 15.9011 54.3475 15.9967 54.498 16.0632C54.6485 16.1297 54.8107 16.1658 54.9752 16.1695C55.1397 16.1732 55.3033 16.1444 55.4566 16.0847C55.5034 16.0664 60.1101 14.3442 62.7896 17.6585C62.998 17.9165 63.3003 18.0812 63.6301 18.1163C63.9599 18.1514 64.2901 18.054 64.5481 17.8457C64.8061 17.6373 64.9708 17.335 65.0059 17.0052C65.041 16.6754 64.9437 16.3452 64.7353 16.0871C60.9236 11.3731 54.8167 13.652 54.5583 13.7515ZM20.4926 6.54117C18.1226 6.1081 15.6877 6.18263 13.3486 6.75981C11.0095 7.337 8.81939 8.40373 6.92289 9.88959C4.76649 11.5066 3.01751 13.6049 1.81529 16.0173C0.613064 18.4297 -0.00918462 21.0895 -0.00188972 23.7848C0.00540518 26.4802 0.642042 29.1365 1.85731 31.5424C3.07257 33.9482 4.83288 36.037 6.998 37.6424C9.22402 39.3773 11.846 40.5325 14.6286 41.0042C17.4112 41.4759 20.2674 41.2494 22.9408 40.3449C23.0705 40.298 23.2098 40.2841 23.3461 40.3045C23.4825 40.3248 23.6116 40.3788 23.7219 40.4615C23.835 40.5464 23.9252 40.6581 23.9845 40.7865C24.0437 40.9149 24.07 41.056 24.0611 41.1972C23.2807 58.4717 7.7876 65.2254 4.68957 66.4042C4.20402 66.5885 3.79568 66.9326 3.53177 67.3798C3.26786 67.8271 3.16412 68.3509 3.23762 68.865C3.23762 68.865 3.6329 71.7657 3.63336 71.7691C3.68646 72.1108 3.81501 72.4364 4.00967 72.7222C4.20434 73.008 4.46022 73.2469 4.75874 73.4214C5.05726 73.596 5.39091 73.7019 5.73547 73.7314C6.08001 73.7609 6.42681 73.7132 6.75065 73.5919C42.1048 59.2391 39.579 33.1377 37.9628 25.4793C36.3133 17.6646 30.1425 8.40491 20.4926 6.54117ZM6.07586 71.1672L5.73692 68.6807C9.42585 67.2461 25.7217 59.8673 26.5601 41.3101C26.5882 40.7628 26.4813 40.2171 26.2488 39.7208C26.0163 39.2246 25.6654 38.7931 25.227 38.4644C24.7885 38.1357 24.276 37.9198 23.7345 37.8357C23.193 37.7517 22.6391 37.802 22.1216 37.9824C19.8385 38.7508 17.4004 38.9405 15.0259 38.5344C12.6514 38.1284 10.4149 37.1393 8.51682 35.6559C6.65672 34.2834 5.14372 32.4945 4.09889 30.4324C3.05407 28.3704 2.50643 26.0923 2.49981 23.7807C2.49319 21.469 3.02777 19.1879 4.06077 17.1199C5.09377 15.0519 6.5965 13.2544 8.44872 11.8712C10.064 10.6008 11.9305 9.68765 13.9248 9.1921C15.9192 8.69655 17.996 8.62988 20.0181 8.99651C28.548 10.6435 34.0308 18.9631 35.5151 25.9957C37.0263 33.1548 39.3552 57.5237 6.07586 71.1672Z" fill="url(#paint1_linear_1340_12759)"/>
<path d="M13.3082 13.7516C13.1544 13.8101 13.0137 13.8985 12.8941 14.0115C12.7746 14.1246 12.6785 14.2602 12.6114 14.4104C12.5444 14.5607 12.5077 14.7227 12.5034 14.8872C12.4991 15.0517 12.5273 15.2154 12.5864 15.369C12.6455 15.5226 12.7344 15.6629 12.8479 15.7821C12.9614 15.9012 13.0973 15.9968 13.2478 16.0633C13.3983 16.1298 13.5605 16.1659 13.725 16.1696C13.8895 16.1733 14.0531 16.1445 14.2065 16.0848C14.2532 16.0665 18.8599 14.3443 21.5394 17.6586C21.7528 17.9093 22.0543 18.0685 22.3817 18.1033C22.709 18.138 23.0373 18.0457 23.2985 17.8454C23.4263 17.7423 23.5324 17.6149 23.6109 17.4707C23.6894 17.3265 23.7387 17.1683 23.756 17.005C23.7734 16.8418 23.7583 16.6767 23.7119 16.5192C23.6654 16.3617 23.5883 16.215 23.4851 16.0873C19.6735 11.3732 13.5665 13.6521 13.3082 13.7516Z" fill="url(#paint2_linear_1340_12759)"/>
</g>
<defs>
<linearGradient id="paint0_linear_1340_12759" x1="49.4804" y1="-76.784" x2="-12.7272" y2="-49.55" gradientUnits="userSpaceOnUse">
<stop stop-color="#2DD1DB"/>
<stop offset="0.60721" stop-color="#2D9CDB"/>
<stop offset="1" stop-color="#1A8ED0"/>
</linearGradient>
<linearGradient id="paint1_linear_1340_12759" x1="13.8095" y1="-76.7839" x2="-66.9774" y2="-17.4473" gradientUnits="userSpaceOnUse">
<stop stop-color="#2DD1DB"/>
<stop offset="0.60721" stop-color="#2D9CDB"/>
<stop offset="1" stop-color="#1A8ED0"/>
</linearGradient>
<linearGradient id="paint2_linear_1340_12759" x1="14.895" y1="6.96511" x2="9.44397" y2="16.3299" gradientUnits="userSpaceOnUse">
<stop stop-color="#2DD1DB"/>
<stop offset="0.60721" stop-color="#2D9CDB"/>
<stop offset="1" stop-color="#1A8ED0"/>
</linearGradient>
<clipPath id="clip0_1340_12759">
<rect width="80" height="80" fill="white"/>
</clipPath>
</defs>
</svg>
