<svg width="80" height="80" viewBox="0 0 80 80" fill="none" xmlns="http://www.w3.org/2000/svg">
<g clip-path="url(#clip0_1063_8900)">
<path d="M9.29688 58.54H14.1406C14.7413 58.5393 15.3172 58.3004 15.7419 57.8757C16.1666 57.451 16.4056 56.8751 16.4062 56.2744V51.4307C16.4056 50.83 16.1666 50.2541 15.7419 49.8294C15.3172 49.4046 14.7413 49.1657 14.1406 49.165H9.29688C8.69621 49.1657 8.12034 49.4046 7.6956 49.8294C7.27086 50.2541 7.03194 50.83 7.03125 51.4307V56.2744C7.03194 56.8751 7.27086 57.451 7.6956 57.8757C8.12034 58.3004 8.69621 58.5393 9.29688 58.54ZM9.375 51.5088H14.0625V56.1963H9.375V51.5088ZM44.0753 50.4224C47.1828 50.4203 50.1934 49.3408 52.5942 47.3679C54.9951 45.395 56.6375 42.6506 57.2419 39.6025C57.8462 36.5544 57.375 33.391 55.9085 30.6513C54.442 27.9116 52.0709 25.7652 49.1993 24.5777C46.3277 23.3902 43.1332 23.235 40.16 24.1387C37.1868 25.0424 34.619 26.949 32.8939 29.5337C31.1689 32.1184 30.3934 35.2213 30.6995 38.3136C31.0057 41.406 32.3745 44.2965 34.5729 46.4928C35.8199 47.7414 37.3013 48.7313 38.932 49.4056C40.5628 50.08 42.3107 50.4255 44.0753 50.4224ZM43.9435 36.2744H33.0117C33.1161 34.629 33.5862 33.0276 34.388 31.5869H43.9435C44.2543 31.5869 44.5524 31.4634 44.7721 31.2437C44.9919 31.0239 45.1154 30.7258 45.1154 30.415C45.1154 30.1042 44.9919 29.8062 44.7721 29.5864C44.5524 29.3666 44.2543 29.2432 43.9435 29.2432H36.1372C36.1687 29.2108 36.1983 29.1772 36.2303 29.1452C38.3115 27.067 41.1326 25.9002 44.0737 25.9013C47.0148 25.9024 49.8352 27.0712 51.9148 29.1508C53.9945 31.2305 55.1633 34.0508 55.1644 36.9919C55.1654 39.933 53.9986 42.7542 51.9205 44.8354H51.9203C50.4677 46.2895 48.6396 47.3113 46.6399 47.7867C44.6402 48.2621 42.5478 48.1723 40.5962 47.5274C38.6446 46.8825 36.9107 45.7079 35.588 44.1347C34.2653 42.5614 33.4059 40.6515 33.1057 38.6182H43.9435C44.2543 38.6182 44.5523 38.4947 44.7721 38.2749C44.9919 38.0552 45.1153 37.7571 45.1153 37.4463C45.1153 37.1355 44.9919 36.8374 44.7721 36.6176C44.5523 36.3979 44.2543 36.2744 43.9435 36.2744ZM17.9105 7.2786C17.6787 7.2786 17.4521 7.34733 17.2594 7.47609C17.0667 7.60486 16.9165 7.78788 16.8278 8.00202C16.7391 8.21615 16.7159 8.45177 16.7611 8.67909C16.8063 8.90641 16.9179 9.11522 17.0818 9.27911C17.2457 9.443 17.4545 9.55461 17.6818 9.59983C17.9092 9.64505 18.1448 9.62184 18.3589 9.53314C18.5731 9.44445 18.7561 9.29424 18.8848 9.10153C19.0136 8.90882 19.0823 8.68225 19.0823 8.45047C19.0823 8.13967 18.9589 7.8416 18.7391 7.62183C18.5193 7.40206 18.2213 7.2786 17.9105 7.2786ZM21.4261 39.79C21.4261 39.9439 21.4564 40.0963 21.5153 40.2385C21.5742 40.3807 21.6605 40.5099 21.7693 40.6187C21.8781 40.7275 22.0073 40.8138 22.1495 40.8727C22.2917 40.9316 22.4441 40.9619 22.598 40.9619H26.4332C27.075 43.8019 28.3926 46.4451 30.274 48.6672C32.1554 50.8893 34.5452 52.6247 37.2404 53.7262C39.9357 54.8276 42.8569 55.2625 45.7561 54.994C48.6553 54.7255 51.4469 53.7615 53.8941 52.1838L55.5671 53.857C55.2862 54.1812 55.1383 54.5998 55.1533 55.0286C55.1683 55.4574 55.345 55.8646 55.6479 56.1685L66.1318 66.6522C66.631 67.1524 67.2239 67.5493 67.8766 67.8201C68.5293 68.091 69.2289 68.2306 69.9356 68.231C70.6423 68.2313 71.3421 68.0924 71.995 67.8221C72.648 67.5518 73.2412 67.1555 73.7409 66.6558C74.2406 66.1561 74.6369 65.5628 74.9072 64.9099C75.1775 64.257 75.3164 63.5571 75.3161 62.8505C75.3158 62.1438 75.1762 61.4441 74.9053 60.7914C74.6344 60.1388 74.2375 59.5458 73.7373 59.0466L63.2535 48.5628C62.9496 48.26 62.5424 48.0834 62.1137 48.0684C61.685 48.0534 61.2665 48.2012 60.9422 48.482L59.269 46.8089C61.6933 43.0572 62.6438 38.5413 61.9376 34.1307C61.2313 29.7201 58.9183 25.7268 55.4438 22.9197C51.9693 20.1126 47.5791 18.6902 43.1186 18.9264C38.6581 19.1627 34.4427 21.0408 31.2842 24.1992C31.1666 24.3168 31.0512 24.4356 30.9378 24.5557H22.598C22.2872 24.5557 21.9891 24.6791 21.7693 24.8989C21.5496 25.1187 21.4261 25.4167 21.4261 25.7275C21.4261 26.0383 21.5496 26.3364 21.7693 26.5562C21.9891 26.776 22.2872 26.8994 22.598 26.8994H29.0613C26.7495 30.347 25.6928 34.4843 26.0682 38.6182H22.598C22.4441 38.6182 22.2917 38.6485 22.1495 38.7073C22.0073 38.7662 21.8781 38.8526 21.7693 38.9614C21.6605 39.0702 21.5742 39.1994 21.5153 39.3416C21.4564 39.4838 21.4261 39.6361 21.4261 39.79V39.79ZM61.7649 50.9652L61.7665 50.9638L61.768 50.9622L62.0531 50.677L72.0799 60.7041C72.6482 61.2735 72.9673 62.0451 72.9673 62.8495C72.9673 63.654 72.6482 64.4256 72.0799 64.995V64.9951C71.7982 65.2769 71.4637 65.5004 71.0956 65.6529C70.7275 65.8053 70.3329 65.8838 69.9345 65.8838C69.5361 65.8838 69.1415 65.8053 68.7734 65.6528C68.4053 65.5003 68.0709 65.2767 67.7892 64.995L57.7621 54.968L61.7649 50.9652ZM59.2804 50.135L57.22 52.1954L55.7947 50.77C56.1618 50.4573 56.5191 50.1278 56.8665 49.7815C57.2132 49.4347 57.5428 49.0774 57.855 48.7097L59.2804 50.135ZM32.9414 25.8566C35.1435 23.6546 37.9491 22.1549 41.0034 21.5473C44.0577 20.9398 47.2237 21.2516 50.1008 22.4433C52.9779 23.635 55.4371 25.6532 57.1672 28.2425C58.8974 30.8318 59.8209 33.8761 59.8209 36.9902C59.8209 40.1044 58.8975 43.1487 57.1673 45.738C55.4372 48.3274 52.9781 50.3456 50.101 51.5373C47.2239 52.7291 44.058 53.0409 41.0036 52.4334C37.9493 51.8259 35.1437 50.3263 32.9416 48.1242C31.4736 46.6654 30.3086 44.9307 29.5136 43.0199C28.7187 41.1092 28.3094 39.06 28.3094 36.9905C28.3093 34.9209 28.7186 32.8718 29.5136 30.961C30.3085 29.0502 31.4735 27.3155 32.9414 25.8566ZM74.1406 -0.0537109H5.85938C4.30591 -0.0519632 2.81657 0.565923 1.7181 1.66439C0.619634 2.76286 0.0017477 4.2522 0 5.80566L0 74.0869C0.00174811 75.6404 0.619635 77.1297 1.7181 78.2282C2.81657 79.3267 4.30591 79.9445 5.85938 79.9463H74.1406C75.6941 79.9445 77.1834 79.3267 78.2819 78.2282C79.3804 77.1297 79.9983 75.6404 80 74.0869V5.80566C79.9983 4.2522 79.3804 2.76286 78.2819 1.66439C77.1834 0.565923 75.6941 -0.0519632 74.1406 -0.0537109ZM77.6562 74.0869C77.6552 75.019 77.2844 75.9126 76.6254 76.5717C75.9663 77.2307 75.0727 77.6015 74.1406 77.6025H5.85938C4.9273 77.6015 4.03371 77.2307 3.37463 76.5717C2.71556 75.9126 2.34482 75.019 2.34375 74.0869V16.3525H77.6562V74.0869ZM77.6562 14.0088H2.34375V5.80566C2.34482 4.87359 2.71556 3.98 3.37463 3.32092C4.03371 2.66185 4.9273 2.29111 5.85938 2.29004H74.1406C75.0727 2.29111 75.9663 2.66185 76.6254 3.32092C77.2844 3.98 77.6552 4.87359 77.6562 5.80566V14.0088ZM13.223 7.2786C12.9912 7.2786 12.7646 7.34733 12.5719 7.47609C12.3792 7.60486 12.229 7.78788 12.1403 8.00202C12.0516 8.21615 12.0284 8.45177 12.0736 8.67909C12.1188 8.90641 12.2304 9.11522 12.3943 9.27911C12.5582 9.443 12.767 9.55461 12.9943 9.59983C13.2217 9.64505 13.4573 9.62184 13.6714 9.53314C13.8856 9.44445 14.0686 9.29424 14.1973 9.10153C14.3261 8.90882 14.3948 8.68225 14.3948 8.45047C14.3948 8.13967 14.2714 7.8416 14.0516 7.62183C13.8318 7.40206 13.5338 7.2786 13.223 7.2786ZM9.29688 44.4775H14.1406C14.7413 44.4768 15.3172 44.2379 15.7419 43.8132C16.1666 43.3885 16.4056 42.8126 16.4062 42.2119V37.3682C16.4056 36.7675 16.1666 36.1916 15.7419 35.7669C15.3172 35.3421 14.7413 35.1032 14.1406 35.1025H9.29688C8.69621 35.1032 8.12034 35.3421 7.6956 35.7669C7.27086 36.1916 7.03194 36.7675 7.03125 37.3682V42.2119C7.03194 42.8126 7.27086 43.3885 7.6956 43.8132C8.12034 44.2379 8.69621 44.4768 9.29688 44.4775ZM9.375 37.4463H14.0625V42.1338H9.375V37.4463ZM9.29688 72.6025H14.1406C14.7413 72.6018 15.3172 72.3629 15.7419 71.9382C16.1666 71.5135 16.4056 70.9376 16.4062 70.3369V65.4932C16.4056 64.8925 16.1666 64.3166 15.7419 63.8919C15.3172 63.4671 14.7413 63.2282 14.1406 63.2275H9.29688C8.69621 63.2282 8.12034 63.4671 7.6956 63.8919C7.27086 64.3166 7.03194 64.8925 7.03125 65.4932V70.3369C7.03194 70.9376 7.27086 71.5135 7.6956 71.9382C8.12034 72.3629 8.69621 72.6018 9.29688 72.6025ZM9.375 65.5713H14.0625V70.2588H9.375V65.5713ZM9.29688 30.415H14.1406C14.7413 30.4143 15.3172 30.1754 15.7419 29.7507C16.1666 29.326 16.4056 28.7501 16.4062 28.1494V23.3057C16.4056 22.705 16.1666 22.1291 15.7419 21.7044C15.3172 21.2796 14.7413 21.0407 14.1406 21.04H9.29688C8.69621 21.0407 8.12034 21.2796 7.6956 21.7044C7.27086 22.1291 7.03194 22.705 7.03125 23.3057V28.1494C7.03194 28.7501 7.27086 29.326 7.6956 29.7507C8.12034 30.1754 8.69621 30.4143 9.29688 30.415ZM9.375 23.3838H14.0625V28.0713H9.375V23.3838ZM22.598 69.0869H62.4219C62.7327 69.0869 63.0307 68.9634 63.2505 68.7437C63.4703 68.5239 63.5938 68.2258 63.5938 67.915C63.5938 67.6042 63.4703 67.3062 63.2505 67.0864C63.0307 66.8666 62.7327 66.7432 62.4219 66.7432H22.598C22.2872 66.7432 21.9891 66.8666 21.7693 67.0864C21.5496 67.3062 21.4261 67.6042 21.4261 67.915C21.4261 68.2258 21.5496 68.5239 21.7693 68.7437C21.9891 68.9634 22.2872 69.0869 22.598 69.0869H22.598ZM8.53547 7.2786C8.30369 7.2786 8.07712 7.34733 7.88441 7.47609C7.6917 7.60486 7.54149 7.78788 7.4528 8.00202C7.3641 8.21615 7.34089 8.45177 7.38611 8.67909C7.43133 8.90641 7.54294 9.11522 7.70683 9.27911C7.87072 9.443 8.07953 9.55461 8.30685 9.59983C8.53417 9.64505 8.76979 9.62184 8.98393 9.53314C9.19806 9.44445 9.38108 9.29424 9.50985 9.10153C9.63861 8.90882 9.70734 8.68225 9.70734 8.45047C9.70734 8.13967 9.58387 7.8416 9.36411 7.62183C9.14434 7.40206 8.84627 7.2786 8.53547 7.2786ZM22.598 55.0244H29.881C30.1918 55.0244 30.4899 54.9009 30.7096 54.6812C30.9294 54.4614 31.0529 54.1633 31.0529 53.8525C31.0529 53.5417 30.9294 53.2437 30.7096 53.0239C30.4899 52.8041 30.1918 52.6807 29.881 52.6807H22.598C22.2872 52.6807 21.9891 52.8041 21.7693 53.0239C21.5496 53.2437 21.4261 53.5417 21.4261 53.8525C21.4261 54.1633 21.5496 54.4614 21.7693 54.6812C21.9891 54.9009 22.2872 55.0244 22.598 55.0244Z" fill="url(#paint0_linear_1063_8900)"/>
</g>
<defs>
<linearGradient id="paint0_linear_1063_8900" x1="16.9948" y1="-98.5153" x2="-79.7958" y2="-24.7328" gradientUnits="userSpaceOnUse">
<stop stop-color="#2DD1DB"/>
<stop offset="0.60721" stop-color="#2D9CDB"/>
<stop offset="1" stop-color="#1A8ED0"/>
</linearGradient>
<clipPath id="clip0_1063_8900">
<rect width="80" height="80" fill="white"/>
</clipPath>
</defs>
</svg>
