<svg width="905" height="98" viewBox="0 0 905 98" fill="none" xmlns="http://www.w3.org/2000/svg">
<path opacity="0.6" d="M0.776618 14.4H-0.223382V15.4H0.776618V14.4ZM0.776618 2.016V1.016H-0.223382V2.016H0.776618ZM23.9126 2.016H24.9126V1.016H23.9126V2.016ZM23.9126 72V73H24.9126V72H23.9126ZM10.0886 72H9.08862V73H10.0886V72ZM10.0886 14.4H11.0886V13.4H10.0886V14.4ZM1.77662 14.4V2.016H-0.223382V14.4H1.77662ZM0.776618 3.016H23.9126V1.016H0.776618V3.016ZM22.9126 2.016V72H24.9126V2.016H22.9126ZM23.9126 71H10.0886V73H23.9126V71ZM11.0886 72V14.4H9.08862V72H11.0886ZM10.0886 13.4H0.776618V15.4H10.0886V13.4ZM42.3739 58.368H41.3739V59.368H42.3739V58.368ZM42.3739 47.808L41.5541 47.2352L41.3739 47.4933V47.808H42.3739ZM73.7659 2.88V1.88H73.2447L72.9461 2.30724L73.7659 2.88ZM89.4139 2.88H90.4139V1.88H89.4139V2.88ZM89.4139 46.656H88.4139V47.656H89.4139V46.656ZM97.8619 46.656H98.8619V45.656H97.8619V46.656ZM97.8619 58.368V59.368H98.8619V58.368H97.8619ZM89.4139 58.368V57.368H88.4139V58.368H89.4139ZM89.4139 72V73H90.4139V72H89.4139ZM75.9739 72H74.9739V73H75.9739V72ZM75.9739 58.368H76.9739V57.368H75.9739V58.368ZM76.8379 17.28H77.8379V13.9906L76.0071 16.7234L76.8379 17.28ZM57.1579 46.656L56.3271 46.0994L55.2843 47.656H57.1579V46.656ZM76.8379 46.656V47.656H77.8379V46.656H76.8379ZM43.3739 58.368V47.808H41.3739V58.368H43.3739ZM43.1936 48.3808L74.5856 3.45275L72.9461 2.30724L41.5541 47.2352L43.1936 48.3808ZM73.7659 3.88H89.4139V1.88H73.7659V3.88ZM88.4139 2.88V46.656H90.4139V2.88H88.4139ZM89.4139 47.656H97.8619V45.656H89.4139V47.656ZM96.8619 46.656V58.368H98.8619V46.656H96.8619ZM97.8619 57.368H89.4139V59.368H97.8619V57.368ZM88.4139 58.368V72H90.4139V58.368H88.4139ZM89.4139 71H75.9739V73H89.4139V71ZM76.9739 72V58.368H74.9739V72H76.9739ZM75.9739 57.368H42.3739V59.368H75.9739V57.368ZM76.0071 16.7234L56.3271 46.0994L57.9887 47.2126L77.6687 17.8366L76.0071 16.7234ZM57.1579 47.656H76.8379V45.656H57.1579V47.656ZM77.8379 46.656V17.28H75.8379V46.656H77.8379ZM176.91 72L176.039 72.4927L176.327 73H176.91V72ZM162.126 45.888L162.996 45.3953L162.709 44.888H162.126V45.888ZM155.79 45.888V44.888H154.79V45.888H155.79ZM155.79 72V73H156.79V72H155.79ZM142.35 72H141.35V73H142.35V72ZM142.35 4.992V3.992H141.35V4.992H142.35ZM180.75 7.776L180.296 8.66736L180.309 8.67355L180.75 7.776ZM188.91 15.168L188.041 15.6641L188.047 15.6747L188.054 15.6851L188.91 15.168ZM187.854 37.536L188.662 38.1242L188.667 38.1172L187.854 37.536ZM176.43 44.832L176.173 43.8656L174.898 44.2044L175.568 45.3402L176.43 44.832ZM192.462 72V73H194.213L193.323 71.4918L192.462 72ZM155.79 35.808H154.79V36.808H155.79V35.808ZM175.182 33.216L175.876 33.9358L175.882 33.9295L175.889 33.9231L175.182 33.216ZM175.182 18.72L174.487 19.4398L174.494 19.4464L174.501 19.4528L175.182 18.72ZM155.79 16.128V15.128H154.79V16.128H155.79ZM177.78 71.5073L162.996 45.3953L161.255 46.3807L176.039 72.4927L177.78 71.5073ZM162.126 44.888H155.79V46.888H162.126V44.888ZM154.79 45.888V72H156.79V45.888H154.79ZM155.79 71H142.35V73H155.79V71ZM143.35 72V4.992H141.35V72H143.35ZM142.35 5.992H167.502V3.992H142.35V5.992ZM167.502 5.992C172.569 5.992 176.821 6.89924 180.296 8.66727L181.203 6.88472C177.382 4.94076 172.802 3.992 167.502 3.992V5.992ZM180.309 8.67355C183.801 10.3889 186.361 12.7229 188.041 15.6641L189.778 14.6719C187.875 11.3411 184.995 8.74711 181.191 6.87844L180.309 8.67355ZM188.054 15.6851C189.809 18.5901 190.694 21.865 190.694 25.536H192.694C192.694 21.527 191.722 17.8899 189.766 14.6509L188.054 15.6851ZM190.694 25.536C190.694 29.7442 189.478 33.5408 187.04 36.9548L188.667 38.1172C191.349 34.3632 192.694 30.1598 192.694 25.536H190.694ZM187.045 36.9478C184.646 40.2466 181.053 42.5682 176.173 43.8656L176.687 45.7984C181.918 44.4078 185.941 41.8654 188.662 38.1242L187.045 36.9478ZM175.568 45.3402L191.6 72.5082L193.323 71.4918L177.291 44.3238L175.568 45.3402ZM192.462 71H176.91V73H192.462V71ZM155.79 36.808H167.022V34.808H155.79V36.808ZM167.022 36.808C170.809 36.808 173.826 35.9122 175.876 33.9358L174.487 32.4962C172.953 33.9758 170.53 34.808 167.022 34.808V36.808ZM175.889 33.9231C177.911 31.9011 178.87 29.1585 178.87 25.824H176.87C176.87 28.7615 176.037 30.9469 174.475 32.5089L175.889 33.9231ZM178.87 25.824C178.87 22.55 177.908 19.8866 175.862 17.9872L174.501 19.4528C176.04 20.8814 176.87 22.954 176.87 25.824H178.87ZM175.876 18.0002C173.826 16.0238 170.809 15.128 167.022 15.128V17.128C170.53 17.128 172.953 17.9602 174.487 19.4398L175.876 18.0002ZM167.022 15.128H155.79V17.128H167.022V15.128ZM154.79 16.128V35.808H156.79V16.128H154.79ZM258.666 49.44V50.44H259.513L259.652 49.6044L258.666 49.44ZM219.786 49.44V48.44H218.699L218.789 49.523L219.786 49.44ZM223.818 58.464L223.141 59.2003L223.818 58.464ZM243.21 55.296V54.296H242.587L242.313 54.8541L243.21 55.296ZM257.706 55.296L258.663 55.5834L259.05 54.296H257.706V55.296ZM248.874 67.968L249.474 68.768L249.481 68.7624L248.874 67.968ZM219.018 69.504L218.521 70.3722L218.53 70.3769L218.538 70.3814L219.018 69.504ZM209.514 59.808L208.633 60.2821L208.639 60.2925L209.514 59.808ZM209.514 30.912L208.633 30.4379L209.514 30.912ZM218.922 21.312L219.407 22.1862L218.922 21.312ZM246.378 21.216L245.897 22.0928L245.903 22.096L246.378 21.216ZM255.69 30.528L254.81 31.0029L254.814 31.0113L254.819 31.0196L255.69 30.528ZM245.13 40.416V41.416H246.148L246.129 40.3975L245.13 40.416ZM241.386 32.16L240.73 32.915L240.736 32.92L240.741 32.9249L241.386 32.16ZM224.01 32.064L224.673 32.8126L224.674 32.8114L224.01 32.064ZM219.882 40.416L218.892 40.2746L218.729 41.416H219.882V40.416ZM258.05 44.256C258.05 46.1331 257.924 47.8047 257.679 49.2756L259.652 49.6044C259.919 48.0033 260.05 46.2189 260.05 44.256H258.05ZM258.666 48.44H219.786V50.44H258.666V48.44ZM218.789 49.523C219.126 53.5608 220.553 56.8219 223.141 59.2003L224.494 57.7277C222.347 55.7541 221.086 52.9992 220.782 49.357L218.789 49.523ZM223.141 59.2003C225.708 61.5592 228.867 62.728 232.554 62.728V60.728C229.328 60.728 226.663 59.7208 224.494 57.7277L223.141 59.2003ZM232.554 62.728C235.195 62.728 237.517 62.1598 239.478 60.9761C241.442 59.7909 242.979 58.0268 244.107 55.7378L242.313 54.8541C241.328 56.8532 240.033 58.3051 238.445 59.2639C236.854 60.2242 234.905 60.728 232.554 60.728V62.728ZM243.21 56.296H257.706V54.296H243.21V56.296ZM256.748 55.0087C255.274 59.9217 252.455 63.9701 248.266 67.1736L249.481 68.7624C253.996 65.3099 257.065 60.9103 258.663 55.5834L256.748 55.0087ZM248.274 67.168C244.122 70.2816 238.998 71.864 232.842 71.864V73.864C239.357 73.864 244.921 72.1824 249.474 68.768L248.274 67.168ZM232.842 71.864C227.873 71.864 223.432 70.7786 219.497 68.6266L218.538 70.3814C222.795 72.7094 227.571 73.864 232.842 73.864V71.864ZM219.514 68.6358C215.645 66.4249 212.606 63.3274 210.388 59.3235L208.639 60.2925C211.029 64.6086 214.327 67.9751 218.521 70.3722L219.514 68.6358ZM210.394 59.3339C208.244 55.3403 207.154 50.7078 207.154 45.408H205.154C205.154 50.9882 206.304 55.9557 208.633 60.2821L210.394 59.3339ZM207.154 45.408C207.154 40.0421 208.245 35.378 210.394 31.3861L208.633 30.4379C206.303 34.766 205.154 39.7659 205.154 45.408H207.154ZM210.394 31.3861C212.546 27.3901 215.547 24.3309 219.407 22.1862L218.436 20.4378C214.233 22.7731 210.961 26.1139 208.633 30.4379L210.394 31.3861ZM219.407 22.1862C223.271 20.0395 227.74 18.952 232.842 18.952V16.952C227.447 16.952 222.636 18.1045 218.436 20.4378L219.407 22.1862ZM232.842 18.952C237.75 18.952 242.093 20.0068 245.897 22.0928L246.858 20.3392C242.726 18.0732 238.046 16.952 232.842 16.952V18.952ZM245.903 22.096C249.763 24.1794 252.726 27.1426 254.81 31.0029L256.57 30.0531C254.301 25.8494 251.056 22.6046 246.853 20.336L245.903 22.096ZM254.819 31.0196C256.963 34.8179 258.05 39.2202 258.05 44.256H260.05C260.05 38.9238 258.896 34.1741 256.56 30.0364L254.819 31.0196ZM246.129 40.3975C246.061 36.6814 244.703 33.6464 242.03 31.3951L240.741 32.9249C242.932 34.7696 244.071 37.2386 244.13 40.4345L246.129 40.3975ZM242.041 31.405C239.41 29.1199 236.194 27.992 232.458 27.992V29.992C235.761 29.992 238.497 30.9761 240.73 32.915L242.041 31.405ZM232.458 27.992C228.906 27.992 225.848 29.0924 223.345 31.3166L224.674 32.8114C226.78 30.9396 229.353 29.992 232.458 29.992V27.992ZM223.347 31.3154C220.894 33.4879 219.43 36.5072 218.892 40.2746L220.872 40.5574C221.357 37.1568 222.645 34.6081 224.673 32.8126L223.347 31.3154ZM219.882 41.416H245.13V39.416H219.882V41.416ZM274.332 30.912L273.445 30.4485L273.44 30.4593L274.332 30.912ZM283.068 21.312L282.551 20.4558L282.544 20.4598L283.068 21.312ZM305.82 20.352L305.342 21.2307L305.35 21.2349L305.82 20.352ZM313.02 26.4L312.215 26.9932L314.02 29.4429V26.4H313.02ZM313.02 18.816V17.816H312.02V18.816H313.02ZM326.556 18.816H327.556V17.816H326.556V18.816ZM326.556 72V73H327.556V72H326.556ZM313.02 72H312.02V73H313.02V72ZM313.02 64.224H314.02V61.0227L312.197 63.6548L313.02 64.224ZM305.82 70.464L306.289 71.3469L306.296 71.3433L305.82 70.464ZM283.068 69.408L282.534 70.2535L282.54 70.2576L283.068 69.408ZM274.332 59.712L273.437 60.1592L273.441 60.1674L273.445 60.1755L274.332 59.712ZM311.1 37.056L310.22 37.5315L310.225 37.5416L311.1 37.056ZM305.916 31.68L305.409 32.5419L305.418 32.5475L305.428 32.5529L305.916 31.68ZM291.996 31.584L291.497 30.7174L291.996 31.584ZM286.812 36.96L285.942 36.4664L285.937 36.4744L286.812 36.96ZM286.812 53.664L285.927 54.1297L285.934 54.1438L285.942 54.1576L286.812 53.664ZM291.996 59.136L291.477 59.9913L291.489 59.9979L291.996 59.136ZM305.916 59.232L306.403 60.1049L306.413 60.0995L306.423 60.0939L305.916 59.232ZM311.1 53.856L311.974 54.3417L311.979 54.3315L311.1 53.856ZM272.164 45.216C272.164 39.9733 273.193 35.3644 275.223 31.3647L273.44 30.4593C271.247 34.7795 270.164 39.7067 270.164 45.216H272.164ZM275.218 31.3755C277.318 27.3595 280.111 24.3007 283.591 22.1642L282.544 20.4598C278.728 22.8033 275.697 26.1445 273.445 30.4485L275.218 31.3755ZM283.584 22.1682C287.133 20.0269 291.081 18.952 295.452 18.952V16.952C290.735 16.952 286.427 18.1171 282.551 20.4558L283.584 22.1682ZM295.452 18.952C299.284 18.952 302.569 19.7238 305.342 21.2306L306.297 19.4734C303.182 17.7802 299.556 16.952 295.452 16.952V18.952ZM305.35 21.2349C308.243 22.7736 310.522 24.6962 312.215 26.9932L313.825 25.8068C311.933 23.2398 309.412 21.1303 306.289 19.4691L305.35 21.2349ZM314.02 26.4V18.816H312.02V26.4H314.02ZM313.02 19.816H326.556V17.816H313.02V19.816ZM325.556 18.816V72H327.556V18.816H325.556ZM326.556 71H313.02V73H326.556V71ZM314.02 72V64.224H312.02V72H314.02ZM312.197 63.6548C310.571 66.0035 308.298 67.9842 305.343 69.5847L306.296 71.3433C309.485 69.6158 312.012 67.4365 313.842 64.7932L312.197 63.6548ZM305.35 69.5811C302.509 71.0924 299.187 71.864 295.356 71.864V73.864C299.46 73.864 303.115 73.0356 306.289 71.3469L305.35 69.5811ZM295.356 71.864C291.057 71.864 287.144 70.7615 283.595 68.5584L282.54 70.2576C286.415 72.6625 290.694 73.864 295.356 73.864V71.864ZM283.602 68.5625C280.116 66.3608 277.319 63.2665 275.218 59.2485L273.445 60.1755C275.696 64.4774 278.724 67.8472 282.534 70.2535L283.602 68.5625ZM275.226 59.2648C273.193 55.1993 272.164 50.5244 272.164 45.216H270.164C270.164 50.7876 271.246 55.7767 273.437 60.1592L275.226 59.2648ZM314.02 45.408C314.02 42.0141 313.354 39.0544 311.974 36.5704L310.225 37.5416C311.405 39.6656 312.02 42.2739 312.02 45.408H314.02ZM311.979 36.5805C310.617 34.0594 308.758 32.1231 306.403 30.8071L305.428 32.5529C307.425 33.6689 309.023 35.3166 310.22 37.5315L311.979 36.5805ZM306.423 30.8181C304.095 29.4488 301.584 28.76 298.908 28.76V30.76C301.223 30.76 303.384 31.3512 305.409 32.5419L306.423 30.8181ZM298.908 28.76C296.241 28.76 293.764 29.4118 291.497 30.7174L292.495 32.4506C294.451 31.3242 296.582 30.76 298.908 30.76V28.76ZM291.497 30.7174C289.212 32.0325 287.363 33.9618 285.942 36.4664L287.681 37.4536C288.948 35.2221 290.555 33.5675 292.495 32.4506L291.497 30.7174ZM285.937 36.4744C284.559 38.9556 283.892 41.8822 283.892 45.216H285.892C285.892 42.1498 286.504 39.5724 287.686 37.4456L285.937 36.4744ZM283.892 45.216C283.892 48.5515 284.56 51.5322 285.927 54.1297L287.697 53.1982C286.504 50.9318 285.892 48.2805 285.892 45.216H283.892ZM285.942 54.1576C287.361 56.6586 289.205 58.6138 291.477 59.9912L292.514 58.2808C290.563 57.0982 288.95 55.4054 287.681 53.1704L285.942 54.1576ZM291.489 59.9979C293.812 61.3647 296.29 62.056 298.908 62.056V60.056C296.661 60.056 294.531 59.4673 292.503 58.2741L291.489 59.9979ZM298.908 62.056C301.574 62.056 304.078 61.4044 306.403 60.1049L305.428 58.3591C303.401 59.4916 301.233 60.056 298.908 60.056V62.056ZM306.423 60.0939C308.759 58.7194 310.611 56.7944 311.974 54.3416L310.225 53.3704C309.028 55.5256 307.424 57.1846 305.409 58.3701L306.423 60.0939ZM311.979 54.3315C313.353 51.7895 314.02 48.803 314.02 45.408H312.02C312.02 48.541 311.406 51.1865 310.22 53.3805L311.979 54.3315ZM354.082 70.56L353.662 71.4675L353.669 71.4707L353.676 71.4738L354.082 70.56ZM345.826 64.128L345.022 64.7219L345.026 64.728L345.031 64.734L345.826 64.128ZM342.562 55.2V54.2H341.502L341.564 55.2587L342.562 55.2ZM356.098 55.2L357.09 55.076L356.981 54.2H356.098V55.2ZM359.074 60.288L358.46 61.0774L358.467 61.0827L358.474 61.088L359.074 60.288ZM371.65 60.768L371.079 59.9471L371.07 59.9531L371.062 59.9593L371.65 60.768ZM371.17 52.992L370.71 53.8798L370.729 53.8898L370.749 53.899L371.17 52.992ZM362.818 50.112L363.076 49.1458L363.065 49.1428L363.053 49.14L362.818 50.112ZM353.026 47.136L352.647 48.0612L352.655 48.0645L353.026 47.136ZM346.498 42.432L345.736 43.079L345.741 43.0856L345.747 43.0921L346.498 42.432ZM346.306 25.824L345.491 25.2448L345.486 25.252L345.481 25.2593L346.306 25.824ZM353.602 20.064L353.199 19.1487L353.193 19.1517L353.602 20.064ZM380.002 22.752L379.356 23.5149L379.363 23.5213L380.002 22.752ZM386.242 35.52V36.52H387.316L387.24 35.4487L386.242 35.52ZM373.378 35.52L372.382 35.6105L372.465 36.52H373.378V35.52ZM370.69 30.528L370.05 31.2962L370.067 31.3106L370.085 31.3242L370.69 30.528ZM358.786 29.952L358.231 29.1199L358.222 29.1263L358.213 29.1328L358.786 29.952ZM359.554 37.824L359.082 38.7055L359.094 38.7121L359.107 38.7184L359.554 37.824ZM367.906 40.608L367.66 41.5772L367.664 41.5781L367.906 40.608ZM383.842 48.384L383.07 49.0197L383.08 49.0321L383.091 49.0441L383.842 48.384ZM386.722 56.832H387.722V56.8229L387.722 56.8138L386.722 56.832ZM384.13 65.088L383.315 64.5088L383.31 64.516L383.305 64.5233L384.13 65.088ZM376.834 70.848L377.228 71.7672L377.237 71.7633L376.834 70.848ZM365.794 71.864C361.561 71.864 357.799 71.1174 354.488 69.6462L353.676 71.4738C357.278 73.0746 361.323 73.864 365.794 73.864V71.864ZM354.502 69.6525C351.175 68.1122 348.559 66.0647 346.622 63.522L345.031 64.734C347.189 67.5673 350.077 69.8078 353.662 71.4675L354.502 69.6525ZM346.631 63.5341C344.759 60.9984 343.741 58.2075 343.56 55.1413L341.564 55.2587C341.767 58.7205 342.925 61.8816 345.022 64.7219L346.631 63.5341ZM342.562 56.2H356.098V54.2H342.562V56.2ZM355.106 55.324C355.397 57.6524 356.537 59.5815 358.46 61.0774L359.688 59.4986C358.155 58.3065 357.311 56.8436 357.09 55.076L355.106 55.324ZM358.474 61.088C360.468 62.5831 362.896 63.304 365.698 63.304V61.304C363.252 61.304 361.265 60.6809 359.674 59.488L358.474 61.088ZM365.698 63.304C368.375 63.304 370.596 62.7712 372.238 61.5767L371.062 59.9593C369.888 60.8128 368.142 61.304 365.698 61.304V63.304ZM372.221 61.5889C373.924 60.4042 374.858 58.8028 374.858 56.832H372.858C372.858 58.0612 372.32 59.0838 371.079 59.9471L372.221 61.5889ZM374.858 56.832C374.858 55.7856 374.583 54.8283 374.005 54.0025C373.433 53.1848 372.605 52.5558 371.591 52.085L370.749 53.899C371.527 54.2601 372.043 54.6872 372.367 55.1495C372.685 55.6037 372.858 56.1504 372.858 56.832H374.858ZM371.63 52.1042C369.801 51.1557 366.929 50.1733 363.076 49.1458L362.56 51.0782C366.387 52.0987 369.083 53.0363 370.71 53.8798L371.63 52.1042ZM363.053 49.14C359.112 48.1865 355.898 47.2076 353.397 46.2075L352.655 48.0645C355.275 49.1124 358.588 50.1175 362.583 51.084L363.053 49.14ZM353.406 46.2108C351.058 45.2478 349.008 43.7731 347.249 41.7719L345.747 43.0921C347.7 45.3149 350.002 46.9762 352.647 48.0612L353.406 46.2108ZM347.261 41.785C345.662 39.9014 344.81 37.306 344.81 33.888H342.81C342.81 37.638 343.75 40.7386 345.736 43.079L347.261 41.785ZM344.81 33.888C344.81 31.1457 345.581 28.6545 347.131 26.3887L345.481 25.2593C343.703 27.8575 342.81 30.7423 342.81 33.888H344.81ZM347.121 26.4032C348.731 24.1372 351.013 22.3226 354.012 20.9763L353.193 19.1517C349.919 20.6214 347.337 22.6467 345.491 25.2448L347.121 26.4032ZM354.005 20.9793C357.053 19.6383 360.654 18.952 364.834 18.952V16.952C360.438 16.952 356.552 17.6737 353.199 19.1487L354.005 20.9793ZM364.834 18.952C371.001 18.952 375.806 20.5068 379.356 23.5149L380.649 21.9891C376.646 18.5972 371.339 16.952 364.834 16.952V18.952ZM379.363 23.5213C382.908 26.4652 384.878 30.4576 385.245 35.5912L387.24 35.4487C386.838 29.8304 384.648 25.3108 380.641 21.9827L379.363 23.5213ZM386.242 34.52H373.378V36.52H386.242V34.52ZM374.374 35.4295C374.158 33.0552 373.132 31.1281 371.295 29.7318L370.085 31.3242C371.448 32.3599 372.214 33.7607 372.382 35.6105L374.374 35.4295ZM371.33 29.7598C369.565 28.2887 367.234 27.608 364.45 27.608V29.608C366.914 29.608 368.743 30.2073 370.05 31.2962L371.33 29.7598ZM364.45 27.608C361.914 27.608 359.803 28.0721 358.231 29.1199L359.341 30.784C360.457 30.0399 362.122 29.608 364.45 29.608V27.608ZM358.213 29.1328C356.658 30.2212 355.866 31.779 355.866 33.696H357.866C357.866 32.413 358.354 31.4748 359.36 30.7712L358.213 29.1328ZM355.866 33.696C355.866 34.7673 356.137 35.7525 356.7 36.6177C357.259 37.4763 358.073 38.1647 359.082 38.7055L360.026 36.9425C359.244 36.5233 358.713 36.0437 358.376 35.5263C358.043 35.0155 357.866 34.4167 357.866 33.696H355.866ZM359.107 38.7184C360.998 39.6639 363.866 40.6128 367.66 41.5772L368.153 39.6388C364.394 38.6832 361.694 37.7761 360.001 36.9296L359.107 38.7184ZM367.664 41.5781C371.476 42.5313 374.594 43.5097 377.031 44.5092L377.79 42.6588C375.234 41.6103 372.016 40.6047 368.149 39.6379L367.664 41.5781ZM377.031 44.5092C379.367 45.4677 381.378 46.9652 383.07 49.0197L384.614 47.7483C382.722 45.4508 380.445 43.7483 377.79 42.6588L377.031 44.5092ZM383.091 49.0441C384.754 50.937 385.661 53.5054 385.722 56.8502L387.722 56.8138C387.655 53.1186 386.642 50.055 384.593 47.7239L383.091 49.0441ZM385.722 56.832C385.722 59.703 384.919 62.2513 383.315 64.5088L384.945 65.6672C386.797 63.0607 387.722 60.105 387.722 56.832H385.722ZM383.305 64.5233C381.764 66.7746 379.493 68.5857 376.431 69.9327L377.237 71.7633C380.575 70.2943 383.168 68.2654 384.955 65.6527L383.305 64.5233ZM376.44 69.9289C373.455 71.2084 369.914 71.864 365.794 71.864V73.864C370.122 73.864 373.942 73.1756 377.228 71.7671L376.44 69.9289ZM413.307 69.504L412.816 70.3756L412.827 70.3814L413.307 69.504ZM403.611 59.808L402.736 60.2925L402.742 60.3027L403.611 59.808ZM403.707 31.008L402.843 30.5033L402.838 30.5133L403.707 31.008ZM413.595 21.408L414.069 22.2885L414.079 22.2828L413.595 21.408ZM441.435 21.408L440.95 22.2829L440.961 22.2885L441.435 21.408ZM451.227 31.008L450.358 31.5027L450.363 31.5127L451.227 31.008ZM451.131 59.808L450.273 59.2935L450.267 59.3033L451.131 59.808ZM441.147 69.504L441.621 70.3845L441.625 70.3819L441.147 69.504ZM433.947 59.424L434.426 60.3019L434.434 60.2969L433.947 59.424ZM439.131 54.048L440.01 54.5235L439.131 54.048ZM437.019 33.792L436.295 34.4821L436.303 34.4907L436.312 34.4991L437.019 33.792ZM417.627 33.792L416.903 33.1019L416.902 33.1023L417.627 33.792ZM417.531 57.12L416.79 57.7918L416.798 57.8008L416.806 57.8097L417.531 57.12ZM427.131 71.864C422.162 71.864 417.721 70.7786 413.786 68.6266L412.827 70.3814C417.084 72.7094 421.86 73.864 427.131 73.864V71.864ZM413.797 68.6324C409.862 66.4191 406.76 63.3187 404.48 59.3133L402.742 60.3027C405.198 64.6173 408.559 67.9809 412.816 70.3756L413.797 68.6324ZM404.485 59.3235C402.275 55.332 401.155 50.7032 401.155 45.408H399.155C399.155 50.9928 400.339 55.964 402.736 60.2925L404.485 59.3235ZM401.155 45.408C401.155 40.1174 402.305 35.4923 404.576 31.5027L402.838 30.5133C400.373 34.8437 399.155 39.8186 399.155 45.408H401.155ZM404.57 31.5127C406.911 27.508 410.074 24.4395 414.069 22.2885L413.121 20.5275C408.795 22.8565 405.366 26.188 402.843 30.5033L404.57 31.5127ZM414.079 22.2828C418.08 20.0672 422.551 18.952 427.515 18.952V16.952C422.238 16.952 417.43 18.1408 413.11 20.5332L414.079 22.2828ZM427.515 18.952C432.479 18.952 436.95 20.0672 440.95 22.2828L441.919 20.5332C437.6 18.1408 432.791 16.952 427.515 16.952V18.952ZM440.961 22.2885C444.953 24.4383 448.081 27.5035 450.358 31.5027L452.096 30.5133C449.636 26.1925 446.236 22.8577 441.909 20.5275L440.961 22.2885ZM450.363 31.5127C452.695 35.5006 453.875 40.122 453.875 45.408H455.875C455.875 39.814 454.623 34.8354 452.09 30.5033L450.363 31.5127ZM453.875 45.408C453.875 50.6893 452.665 55.3072 450.273 59.2935L451.988 60.3225C454.588 55.9888 455.875 51.0067 455.875 45.408H453.875ZM450.267 59.3033C447.927 63.3065 444.732 66.4094 440.668 68.6261L441.625 70.3819C446.009 67.9906 449.47 64.6295 451.994 60.3127L450.267 59.3033ZM440.673 68.6235C436.672 70.7776 432.166 71.864 427.131 71.864V73.864C432.464 73.864 437.301 72.7104 441.621 70.3845L440.673 68.6235ZM427.131 62.152C429.728 62.152 432.165 61.5349 434.425 60.3019L433.468 58.5461C431.504 59.6171 429.397 60.152 427.131 60.152V62.152ZM434.434 60.2969C436.789 58.9809 438.648 57.0446 440.01 54.5235L438.251 53.5725C437.054 55.7874 435.456 57.4351 433.459 58.5511L434.434 60.2969ZM440.01 54.5235C441.387 51.9763 442.051 48.9237 442.051 45.408H440.051C440.051 48.6763 439.434 51.3837 438.251 53.5725L440.01 54.5235ZM442.051 45.408C442.051 40.1773 440.657 36.016 437.726 33.0849L436.312 34.4991C438.756 36.944 440.051 40.5267 440.051 45.408H442.051ZM437.742 33.1019C434.928 30.1498 431.433 28.664 427.323 28.664V30.664C430.892 30.664 433.862 31.9302 436.295 34.4821L437.742 33.1019ZM427.323 28.664C423.212 28.664 419.718 30.1498 416.903 33.1019L418.35 34.4821C420.784 31.9302 423.753 30.664 427.323 30.664V28.664ZM416.902 33.1023C414.109 36.0351 412.787 40.1898 412.787 45.408H414.787C414.787 40.5142 416.024 36.9249 418.351 34.4817L416.902 33.1023ZM412.787 45.408C412.787 50.6218 414.075 54.7983 416.79 57.7918L418.271 56.4482C415.994 53.9377 414.787 50.3062 414.787 45.408H412.787ZM416.806 57.8097C419.562 60.7034 423.028 62.152 427.131 62.152V60.152C423.554 60.152 420.619 58.9126 418.255 56.4303L416.806 57.8097ZM515.325 24.096L514.607 24.7916L514.613 24.7973L515.325 24.096ZM521.181 72V73H522.181V72H521.181ZM507.741 72H506.741V73H507.741V72ZM504.573 32.928L503.836 33.6038L503.846 33.614L504.573 32.928ZM487.101 32.928L486.374 32.2414L486.374 32.242L487.101 32.928ZM483.933 72V73H484.933V72H483.933ZM470.493 72H469.493V73H470.493V72ZM470.493 18.816V17.816H469.493V18.816H470.493ZM483.933 18.816H484.933V17.816H483.933V18.816ZM483.933 25.44H482.933V28.3545L484.723 26.0539L483.933 25.44ZM490.749 20.064L491.171 20.9708L491.18 20.9665L490.749 20.064ZM499.965 19.048C506.069 19.048 510.916 20.98 514.607 24.7916L516.044 23.4004C511.926 19.148 506.534 17.048 499.965 17.048V19.048ZM514.613 24.7973C518.284 28.5288 520.181 33.8157 520.181 40.8H522.181C522.181 33.4483 520.175 27.5992 516.038 23.3947L514.613 24.7973ZM520.181 40.8V72H522.181V40.8H520.181ZM521.181 71H507.741V73H521.181V71ZM508.741 72V42.624H506.741V72H508.741ZM508.741 42.624C508.741 38.2411 507.644 34.7274 505.301 32.242L503.846 33.614C505.726 35.6086 506.741 38.5589 506.741 42.624H508.741ZM505.311 32.2523C502.977 29.7066 499.81 28.472 495.933 28.472V30.472C499.352 30.472 501.946 31.5414 503.836 33.6037L505.311 32.2523ZM495.933 28.472C491.998 28.472 488.772 29.7029 486.374 32.2414L487.828 33.6146C489.783 31.5451 492.445 30.472 495.933 30.472V28.472ZM486.374 32.242C484.03 34.7274 482.933 38.2411 482.933 42.624H484.933C484.933 38.5589 485.948 35.6086 487.829 33.614L486.374 32.242ZM482.933 42.624V72H484.933V42.624H482.933ZM483.933 71H470.493V73H483.933V71ZM471.493 72V18.816H469.493V72H471.493ZM470.493 19.816H483.933V17.816H470.493V19.816ZM482.933 18.816V25.44H484.933V18.816H482.933ZM484.723 26.0539C486.413 23.8804 488.557 22.1865 491.171 20.9707L490.328 19.1573C487.438 20.5015 485.038 22.3916 483.144 24.8261L484.723 26.0539ZM491.18 20.9665C493.853 19.6909 496.776 19.048 499.965 19.048V17.048C496.498 17.048 493.278 17.7491 490.319 19.1615L491.18 20.9665ZM548.362 70.56L547.942 71.4675L547.949 71.4707L547.956 71.4738L548.362 70.56ZM540.106 64.128L539.302 64.7219L539.306 64.728L539.311 64.734L540.106 64.128ZM536.842 55.2V54.2H535.782L535.844 55.2587L536.842 55.2ZM550.378 55.2L551.37 55.076L551.261 54.2H550.378V55.2ZM553.354 60.288L552.74 61.0774L552.747 61.0827L552.754 61.088L553.354 60.288ZM565.93 60.768L565.359 59.9471L565.35 59.9531L565.342 59.9593L565.93 60.768ZM565.45 52.992L564.99 53.8798L565.009 53.8898L565.029 53.899L565.45 52.992ZM557.098 50.112L557.356 49.1458L557.345 49.1428L557.333 49.14L557.098 50.112ZM547.306 47.136L546.927 48.0612L546.935 48.0645L547.306 47.136ZM540.778 42.432L540.016 43.079L540.021 43.0856L540.027 43.0921L540.778 42.432ZM540.586 25.824L539.771 25.2448L539.766 25.252L539.761 25.2593L540.586 25.824ZM547.882 20.064L547.479 19.1487L547.473 19.1517L547.882 20.064ZM574.282 22.752L573.636 23.5149L573.643 23.5213L574.282 22.752ZM580.522 35.52V36.52H581.596L581.52 35.4487L580.522 35.52ZM567.658 35.52L566.662 35.6105L566.745 36.52H567.658V35.52ZM564.97 30.528L564.33 31.2962L564.347 31.3106L564.365 31.3242L564.97 30.528ZM553.066 29.952L552.511 29.1199L552.502 29.1263L552.493 29.1328L553.066 29.952ZM553.834 37.824L553.362 38.7055L553.374 38.7121L553.387 38.7184L553.834 37.824ZM562.186 40.608L561.94 41.5772L561.944 41.5781L562.186 40.608ZM578.122 48.384L577.35 49.0197L577.36 49.0321L577.371 49.0441L578.122 48.384ZM581.002 56.832H582.002V56.8229L582.002 56.8138L581.002 56.832ZM578.41 65.088L577.595 64.5088L577.59 64.516L577.585 64.5233L578.41 65.088ZM571.114 70.848L571.508 71.7672L571.517 71.7633L571.114 70.848ZM560.074 71.864C555.841 71.864 552.079 71.1174 548.768 69.6462L547.956 71.4738C551.558 73.0746 555.603 73.864 560.074 73.864V71.864ZM548.782 69.6525C545.455 68.1122 542.839 66.0647 540.902 63.522L539.311 64.734C541.469 67.5673 544.357 69.8078 547.942 71.4675L548.782 69.6525ZM540.911 63.5341C539.039 60.9984 538.021 58.2075 537.84 55.1413L535.844 55.2587C536.047 58.7205 537.205 61.8816 539.302 64.7219L540.911 63.5341ZM536.842 56.2H550.378V54.2H536.842V56.2ZM549.386 55.324C549.677 57.6524 550.817 59.5815 552.74 61.0774L553.968 59.4986C552.435 58.3065 551.591 56.8436 551.37 55.076L549.386 55.324ZM552.754 61.088C554.748 62.5831 557.176 63.304 559.978 63.304V61.304C557.532 61.304 555.545 60.6809 553.954 59.488L552.754 61.088ZM559.978 63.304C562.655 63.304 564.876 62.7712 566.518 61.5767L565.342 59.9593C564.168 60.8128 562.422 61.304 559.978 61.304V63.304ZM566.501 61.5889C568.204 60.4042 569.138 58.8028 569.138 56.832H567.138C567.138 58.0612 566.6 59.0838 565.359 59.9471L566.501 61.5889ZM569.138 56.832C569.138 55.7856 568.863 54.8283 568.285 54.0025C567.713 53.1848 566.885 52.5558 565.871 52.085L565.029 53.899C565.807 54.2601 566.323 54.6872 566.647 55.1495C566.965 55.6037 567.138 56.1504 567.138 56.832H569.138ZM565.91 52.1042C564.081 51.1557 561.209 50.1733 557.356 49.1458L556.84 51.0782C560.667 52.0987 563.363 53.0363 564.99 53.8798L565.91 52.1042ZM557.333 49.14C553.392 48.1865 550.178 47.2076 547.678 46.2075L546.935 48.0645C549.555 49.1124 552.868 50.1175 556.863 51.084L557.333 49.14ZM547.686 46.2108C545.338 45.2478 543.288 43.7731 541.529 41.7719L540.027 43.0921C541.98 45.3149 544.282 46.9762 546.927 48.0612L547.686 46.2108ZM541.541 41.785C539.942 39.9014 539.09 37.306 539.09 33.888H537.09C537.09 37.638 538.03 40.7386 540.016 43.079L541.541 41.785ZM539.09 33.888C539.09 31.1457 539.861 28.6545 541.411 26.3887L539.761 25.2593C537.983 27.8575 537.09 30.7423 537.09 33.888H539.09ZM541.401 26.4032C543.011 24.1372 545.293 22.3226 548.292 20.9763L547.473 19.1517C544.199 20.6214 541.617 22.6467 539.771 25.2448L541.401 26.4032ZM548.285 20.9793C551.333 19.6383 554.934 18.952 559.114 18.952V16.952C554.718 16.952 550.832 17.6737 547.479 19.1487L548.285 20.9793ZM559.114 18.952C565.281 18.952 570.086 20.5068 573.636 23.5149L574.929 21.9891C570.926 18.5972 565.619 16.952 559.114 16.952V18.952ZM573.643 23.5213C577.188 26.4652 579.158 30.4576 579.525 35.5912L581.52 35.4487C581.118 29.8304 578.928 25.3108 574.921 21.9827L573.643 23.5213ZM580.522 34.52H567.658V36.52H580.522V34.52ZM568.654 35.4295C568.438 33.0552 567.412 31.1281 565.575 29.7318L564.365 31.3242C565.728 32.3599 566.494 33.7607 566.662 35.6105L568.654 35.4295ZM565.61 29.7598C563.845 28.2887 561.514 27.608 558.73 27.608V29.608C561.194 29.608 563.023 30.2073 564.33 31.2962L565.61 29.7598ZM558.73 27.608C556.194 27.608 554.083 28.0721 552.511 29.1199L553.621 30.784C554.737 30.0399 556.402 29.608 558.73 29.608V27.608ZM552.493 29.1328C550.938 30.2212 550.146 31.779 550.146 33.696H552.146C552.146 32.413 552.635 31.4748 553.64 30.7712L552.493 29.1328ZM550.146 33.696C550.146 34.7673 550.417 35.7525 550.98 36.6177C551.539 37.4763 552.353 38.1647 553.362 38.7055L554.306 36.9425C553.524 36.5233 552.993 36.0437 552.656 35.5263C552.323 35.0155 552.146 34.4167 552.146 33.696H550.146ZM553.387 38.7184C555.278 39.6639 558.146 40.6128 561.94 41.5772L562.433 39.6388C558.674 38.6832 555.974 37.7761 554.281 36.9296L553.387 38.7184ZM561.944 41.5781C565.756 42.5313 568.874 43.5097 571.311 44.5092L572.07 42.6588C569.514 41.6103 566.296 40.6047 562.429 39.6379L561.944 41.5781ZM571.311 44.5092C573.647 45.4677 575.658 46.9652 577.35 49.0197L578.894 47.7483C577.002 45.4508 574.725 43.7483 572.07 42.6588L571.311 44.5092ZM577.371 49.0441C579.034 50.937 579.941 53.5054 580.002 56.8502L582.002 56.8138C581.935 53.1186 580.922 50.055 578.873 47.7239L577.371 49.0441ZM580.002 56.832C580.002 59.703 579.199 62.2513 577.595 64.5088L579.225 65.6672C581.077 63.0607 582.002 60.105 582.002 56.832H580.002ZM577.585 64.5233C576.044 66.7746 573.773 68.5857 570.711 69.9327L571.517 71.7633C574.855 70.2943 577.448 68.2654 579.235 65.6527L577.585 64.5233ZM570.72 69.9289C567.735 71.2084 564.194 71.864 560.074 71.864V73.864C564.402 73.864 568.222 73.1756 571.508 71.7671L570.72 69.9289ZM715.998 4.992L716.961 5.26107L717.315 3.992H715.998V4.992ZM697.278 72V73H698.036L698.241 72.2691L697.278 72ZM681.438 72L680.471 72.2549L680.667 73H681.438V72ZM668.862 24.288L669.829 24.0331L668.883 20.4465L667.898 24.0223L668.862 24.288ZM655.71 72L655.716 73L656.473 72.9954L656.674 72.2657L655.71 72ZM639.966 72.096L639 72.3557L639.2 73.1007L639.972 73.096L639.966 72.096ZM621.918 4.992V3.992H620.613L620.952 5.25172L621.918 4.992ZM636.318 4.992L637.293 4.77069L637.116 3.992H636.318V4.992ZM648.126 57.024L647.15 57.2453L649.093 57.2774L648.126 57.024ZM661.758 4.992V3.992H660.986L660.79 4.73856L661.758 4.992ZM676.734 4.992L677.704 4.75073L677.515 3.992H676.734V4.992ZM689.598 56.736L688.627 56.9773L690.572 56.9602L689.598 56.736ZM701.502 4.992V3.992H700.706L700.527 4.7678L701.502 4.992ZM715.034 4.72293L696.315 71.7309L698.241 72.2691L716.961 5.26107L715.034 4.72293ZM697.278 71H681.438V73H697.278V71ZM682.405 71.7451L669.829 24.0331L667.895 24.5429L680.471 72.2549L682.405 71.7451ZM667.898 24.0223L654.746 71.7343L656.674 72.2657L669.826 24.5537L667.898 24.0223ZM655.703 71L639.96 71.096L639.972 73.096L655.716 73L655.703 71ZM640.931 71.8363L622.883 4.73227L620.952 5.25172L639 72.3557L640.931 71.8363ZM621.918 5.992H636.318V3.992H621.918V5.992ZM635.342 5.21331L647.15 57.2453L649.101 56.8027L637.293 4.77069L635.342 5.21331ZM649.093 57.2774L662.725 5.24544L660.79 4.73856L647.158 56.7706L649.093 57.2774ZM661.758 5.992H676.734V3.992H661.758V5.992ZM675.763 5.23326L688.627 56.9773L690.568 56.4947L677.704 4.75073L675.763 5.23326ZM690.572 56.9602L702.476 5.2162L700.527 4.7678L688.623 56.5118L690.572 56.9602ZM701.502 5.992H715.998V3.992H701.502V5.992ZM771.237 20.736L770.741 21.6042L770.748 21.6081L770.755 21.6118L771.237 20.736ZM778.533 28.512L777.639 28.9592L777.644 28.9692L777.649 28.9791L778.533 28.512ZM781.221 72V73H782.221V72H781.221ZM767.781 72H766.781V73H767.781V72ZM764.613 32.928L763.876 33.6038L763.886 33.614L764.613 32.928ZM747.141 32.928L746.414 32.2414L746.414 32.242L747.141 32.928ZM743.973 72V73H744.973V72H743.973ZM730.533 72H729.533V73H730.533V72ZM730.533 0.959999V-0.0400009H729.533V0.959999H730.533ZM743.973 0.959999H744.973V-0.0400009H743.973V0.959999ZM743.973 25.44H742.973V28.44L744.773 26.04L743.973 25.44ZM750.885 20.064L751.292 20.9778L751.3 20.9741L751.308 20.9702L750.885 20.064ZM760.485 19.048C764.364 19.048 767.773 19.9083 770.741 21.6042L771.734 19.8678C768.429 17.9797 764.671 17.048 760.485 17.048V19.048ZM770.755 21.6118C773.699 23.2342 775.994 25.6694 777.639 28.9592L779.428 28.0648C777.617 24.4426 775.048 21.6938 771.72 19.8602L770.755 21.6118ZM777.649 28.9791C779.348 32.1954 780.221 36.1227 780.221 40.8H782.221C782.221 35.8773 781.302 31.6126 779.418 28.0449L777.649 28.9791ZM780.221 40.8V72H782.221V40.8H780.221ZM781.221 71H767.781V73H781.221V71ZM768.781 72V42.624H766.781V72H768.781ZM768.781 42.624C768.781 38.2411 767.684 34.7274 765.341 32.242L763.886 33.614C765.766 35.6086 766.781 38.5589 766.781 42.624H768.781ZM765.351 32.2523C763.017 29.7066 759.85 28.472 755.973 28.472V30.472C759.392 30.472 761.986 31.5414 763.876 33.6037L765.351 32.2523ZM755.973 28.472C752.038 28.472 748.812 29.7029 746.414 32.2414L747.868 33.6146C749.823 31.5451 752.485 30.472 755.973 30.472V28.472ZM746.414 32.242C744.07 34.7274 742.973 38.2411 742.973 42.624H744.973C744.973 38.5589 745.988 35.6086 747.869 33.614L746.414 32.242ZM742.973 42.624V72H744.973V42.624H742.973ZM743.973 71H730.533V73H743.973V71ZM731.533 72V0.959999H729.533V72H731.533ZM730.533 1.96H743.973V-0.0400009H730.533V1.96ZM742.973 0.959999V25.44H744.973V0.959999H742.973ZM744.773 26.04C746.39 23.8851 748.552 22.1952 751.292 20.9778L750.479 19.1502C747.458 20.4928 745.013 22.3869 743.173 24.84L744.773 26.04ZM751.308 20.9702C754.042 19.6943 757.096 19.048 760.485 19.048V17.048C756.835 17.048 753.489 17.7456 750.462 19.1578L751.308 20.9702ZM850.642 18.816L851.564 19.2035L852.147 17.816H850.642V18.816ZM817.714 97.152V98.152H818.379L818.636 97.5395L817.714 97.152ZM803.41 97.152L802.493 96.7533L801.885 98.152H803.41V97.152ZM814.93 70.656L815.847 71.0547L816.016 70.6669L815.855 70.2758L814.93 70.656ZM793.618 18.816V17.816H792.126L792.693 19.1962L793.618 18.816ZM808.69 18.816L809.628 18.4694L809.387 17.816H808.69V18.816ZM822.418 55.968L821.48 56.3146L822.412 58.8355L823.355 56.3189L822.418 55.968ZM836.338 18.816V17.816H835.645L835.402 18.4651L836.338 18.816ZM849.72 18.4285L816.792 96.7645L818.636 97.5395L851.564 19.2035L849.72 18.4285ZM817.714 96.152H803.41V98.152H817.714V96.152ZM804.327 97.5507L815.847 71.0547L814.013 70.2573L802.493 96.7533L804.327 97.5507ZM815.855 70.2758L794.543 18.4358L792.693 19.1962L814.005 71.0362L815.855 70.2758ZM793.618 19.816H808.69V17.816H793.618V19.816ZM807.752 19.1626L821.48 56.3146L823.356 55.6214L809.628 18.4694L807.752 19.1626ZM823.355 56.3189L837.275 19.1669L835.402 18.4651L821.482 55.6171L823.355 56.3189ZM836.338 19.816H850.642V17.816H836.338V19.816ZM898.399 8.16L897.728 8.90153L897.734 8.90711L897.741 8.91257L898.399 8.16ZM898.495 37.44L899.124 38.2173L899.132 38.2112L898.495 37.44ZM882.463 42.336V41.336H881.514L881.464 42.2841L882.463 42.336ZM882.079 49.728V50.728H883.029L883.078 49.7799L882.079 49.728ZM870.271 49.728L869.272 49.7574L869.3 50.728H870.271V49.728ZM869.791 33.408V32.408H868.761L868.792 33.4374L869.791 33.408ZM886.975 31.2L886.536 30.3018L886.975 31.2ZM888.991 16.416L888.27 17.1091L888.277 17.1162L888.284 17.1231L888.991 16.416ZM875.455 16.32L874.762 15.5992L874.755 15.606L874.748 15.6129L875.455 16.32ZM873.055 22.944V23.944H874.055V22.944H873.055ZM860.383 22.944L859.383 22.9604L859.399 23.944H860.383V22.944ZM862.879 12.48L863.751 12.9703L862.879 12.48ZM870.463 5.27999L870.009 4.38893L870.002 4.3925L870.463 5.27999ZM870.079 70.464L869.372 71.1711L869.387 71.1858L869.402 71.1999L870.079 70.464ZM870.079 59.232L870.771 59.954L870.772 59.9534L870.079 59.232ZM881.983 59.232L881.276 59.9391L881.284 59.9466L881.291 59.954L881.983 59.232ZM881.983 70.464L882.675 71.186L882.683 71.1786L882.69 71.1711L881.983 70.464ZM882.367 3.68799C888.833 3.68799 893.919 5.4552 897.728 8.90153L899.07 7.41846C894.815 3.56879 889.213 1.68799 882.367 1.68799V3.68799ZM897.741 8.91257C901.583 12.2748 903.543 16.9401 903.543 23.04H905.543C905.543 16.4679 903.407 11.2132 899.058 7.40742L897.741 8.91257ZM903.543 23.04C903.543 29.0794 901.614 33.569 897.859 36.6688L899.132 38.2112C903.44 34.655 905.543 29.5446 905.543 23.04H903.543ZM897.866 36.6628C894.057 39.746 888.956 41.336 882.463 41.336V43.336C889.282 43.336 894.869 41.662 899.124 38.2172L897.866 36.6628ZM881.464 42.2841L881.081 49.6761L883.078 49.7799L883.462 42.3879L881.464 42.2841ZM882.079 48.728H870.271V50.728H882.079V48.728ZM871.271 49.6986L870.791 33.3786L868.792 33.4374L869.272 49.7574L871.271 49.6986ZM869.791 34.408H874.111V32.408H869.791V34.408ZM874.111 34.408C879.743 34.408 884.208 33.6675 887.415 32.0982L886.536 30.3018C883.726 31.6765 879.615 32.408 874.111 32.408V34.408ZM887.415 32.0982C889.085 31.281 890.372 30.1054 891.232 28.5683C892.087 27.0403 892.487 25.2141 892.487 23.136H890.487C890.487 24.9619 890.135 26.4317 889.486 27.5917C888.842 28.7426 887.874 29.647 886.536 30.3018L887.415 32.0982ZM892.487 23.136C892.487 20.1106 891.586 17.5965 889.698 15.7089L888.284 17.1231C889.724 18.5634 890.487 20.5293 890.487 23.136H892.487ZM889.712 15.7229C887.883 13.821 885.391 12.92 882.367 12.92V14.92C884.975 14.92 886.899 15.683 888.27 17.1091L889.712 15.7229ZM882.367 12.92C879.239 12.92 876.66 13.7745 874.762 15.5992L876.148 17.0408C877.579 15.6655 879.607 14.92 882.367 14.92V12.92ZM874.748 15.6129C872.917 17.4439 872.055 19.9314 872.055 22.944H874.055C874.055 20.3246 874.793 18.3961 876.162 17.0271L874.748 15.6129ZM873.055 21.944H860.383V23.944H873.055V21.944ZM861.383 22.9276C861.322 19.1813 862.119 15.8715 863.751 12.9703L862.008 11.9897C860.184 15.2325 859.317 18.8987 859.383 22.9604L861.383 22.9276ZM863.751 12.9703C865.377 10.0788 867.757 7.81186 870.924 6.16749L870.002 4.3925C866.513 6.20413 863.837 8.73717 862.008 11.9897L863.751 12.9703ZM870.917 6.17103C874.144 4.52726 877.951 3.68799 882.367 3.68799V1.68799C877.696 1.68799 873.567 2.57673 870.009 4.38896L870.917 6.17103ZM876.127 71.672C873.914 71.672 872.149 71.0097 870.756 69.7281L869.402 71.1999C871.209 72.8623 873.476 73.672 876.127 73.672V71.672ZM870.786 69.7569C869.444 68.4149 868.775 66.784 868.775 64.8H866.775C866.775 67.296 867.642 69.4411 869.372 71.1711L870.786 69.7569ZM868.775 64.8C868.775 62.8165 869.443 61.2265 870.771 59.954L869.387 58.51C867.643 60.1815 866.775 62.3036 866.775 64.8H868.775ZM870.772 59.9534C872.167 58.6142 873.926 57.928 876.127 57.928V55.928C873.464 55.928 871.192 56.7778 869.387 58.5106L870.772 59.9534ZM876.127 57.928C878.256 57.928 879.945 58.6085 881.276 59.9391L882.69 58.5249C880.949 56.7835 878.734 55.928 876.127 55.928V57.928ZM881.291 59.954C882.619 61.2265 883.287 62.8165 883.287 64.8H885.287C885.287 62.3036 884.419 60.1815 882.675 58.51L881.291 59.954ZM883.287 64.8C883.287 66.784 882.618 68.4149 881.276 69.7569L882.69 71.1711C884.42 69.4411 885.287 67.296 885.287 64.8H883.287ZM881.291 69.742C879.963 71.0148 878.269 71.672 876.127 71.672V73.672C878.721 73.672 880.931 72.8572 882.675 71.186L881.291 69.742Z" fill="url(#paint0_linear_673_4720)"/>
<defs>
<linearGradient id="paint0_linear_673_4720" x1="190.741" y1="-145.462" x2="151.104" y2="114.497" gradientUnits="userSpaceOnUse">
<stop stop-color="#2DD1DB"/>
<stop offset="0.60721" stop-color="#2D9CDB"/>
<stop offset="1" stop-color="#1A8ED0"/>
</linearGradient>
</defs>
</svg>
