<svg width="48" height="48" viewBox="0 0 48 48" fill="none" xmlns="http://www.w3.org/2000/svg">
<path d="M26.8604 0.800781C29.3279 6.70678 18.0129 10.3246 16.9604 15.2472C15.9977 19.7646 23.6642 25.0637 23.6713 25.0637C22.5009 23.195 21.649 21.619 20.4804 18.7044C18.5004 13.7818 32.5452 9.34119 26.8604 0.800781ZM34.3404 9.00029C34.3404 9.00029 24.4474 9.6339 23.9458 16.1949C23.717 19.1167 26.5577 20.6499 26.6404 22.7774C26.7108 24.5122 24.9349 25.9544 24.9349 25.9544C24.9349 25.9544 28.1188 25.3707 29.115 22.7203C30.215 19.7789 26.9713 17.7709 27.3004 15.4132C27.6172 13.1625 34.3404 9.00029 34.3404 9.00029ZM36.7604 24.1142C35.722 24.066 34.5534 24.4569 33.5149 25.2297C35.5636 24.771 37.3113 26.074 37.3113 27.5732C37.3113 30.934 32.5804 34.0985 32.5804 34.0985C32.5804 34.0985 39.895 33.2686 39.895 27.741C39.895 25.46 38.4869 24.1981 36.7604 24.1142ZM17.3458 24.1713C14.7938 24.2606 9.70039 24.6871 9.70039 26.6808C9.70039 29.4562 21.5663 29.6722 30.0513 27.9641C30.0513 27.9641 32.3604 26.3328 32.9658 25.7331C27.4042 26.9039 14.7058 27.086 14.7058 26.0668C14.7058 25.1334 18.775 24.1713 18.775 24.1713C18.775 24.1713 18.1977 24.1428 17.3458 24.1713ZM16.575 29.3027C15.1793 29.3027 13.1095 30.404 13.1095 31.4766C13.1095 33.6381 23.6167 35.298 31.3713 32.1459L28.675 30.4736C23.4161 32.2173 13.7009 31.6373 16.575 29.3027ZM17.895 34.1539C15.9906 34.1539 14.7604 35.3747 14.7604 36.2743C14.7604 39.0407 26.1388 39.3138 30.655 36.4974L27.795 34.6001C24.4263 36.0726 15.9502 36.2885 17.895 34.1539ZM11.515 36.6651C8.40855 36.6027 6.40039 38.0305 6.40039 39.2281C6.40039 45.6071 38.2458 45.3019 38.2458 38.7819C38.2458 37.7021 36.9874 37.1863 36.5404 36.9418C39.1399 43.1744 10.5258 42.6871 10.5258 39.005C10.5258 38.1697 12.6431 37.3327 14.595 37.7235L12.9458 36.774C12.4719 36.7041 11.9938 36.6671 11.515 36.6633V36.6651ZM41.6004 40.9594C36.7604 45.7071 24.5108 47.408 12.175 44.4738C24.509 49.7033 41.5388 46.794 41.6004 40.9594Z" fill="white"/>
</svg>
