<svg width="48" height="48" viewBox="0 0 48 48" fill="none" xmlns="http://www.w3.org/2000/svg">
<path d="M40.5 3H7.5C5.016 3 3 5.016 3 7.5V40.5C3 42.984 5.016 45 7.5 45H40.5C42.984 45 45 42.984 45 40.5V7.5C45 5.016 42.984 3 40.5 3ZM14.907 36.0465C14.6584 36.4765 14.2491 36.7902 13.7692 36.9185C13.2893 37.0468 12.778 36.9791 12.348 36.7305C11.918 36.4819 11.6043 36.0726 11.476 35.5927C11.3477 35.1128 11.4154 34.6015 11.664 34.1715L13.005 31.8555C14.514 31.3965 15.7515 31.752 16.7175 32.9235L14.907 36.0465ZM27.9285 30.9945H10.875C9.843 30.9945 9 30.15 9 29.1195C9 28.089 9.8445 27.2445 10.875 27.2445H15.657L21.7875 16.632L19.866 13.314C19.6187 12.8836 19.5518 12.3729 19.68 11.8934C19.8082 11.4139 20.121 11.0046 20.55 10.755C20.9804 10.5077 21.4911 10.4408 21.9706 10.569C22.4501 10.6972 22.8594 11.01 23.109 11.439L23.943 12.882L24.777 11.439C24.9001 11.2261 25.064 11.0395 25.2592 10.8898C25.4544 10.7402 25.6772 10.6305 25.9148 10.567C26.1525 10.5035 26.4003 10.4874 26.6441 10.5197C26.888 10.5519 27.1231 10.6319 27.336 10.755C27.5489 10.8781 27.7355 11.042 27.8852 11.2372C28.0348 11.4324 28.1445 11.6552 28.208 11.8928C28.2715 12.1305 28.2876 12.3783 28.2553 12.6221C28.2231 12.866 28.1431 13.1011 28.02 13.314L19.977 27.246H25.7985C27.6915 27.246 28.752 29.4675 27.927 30.996L27.9285 30.9945ZM37.125 30.9945H34.4055L36.243 34.173C36.759 35.073 36.4485 36.2175 35.559 36.732C34.659 37.248 33.5145 36.9375 33 36.048C29.916 30.714 27.609 26.7015 26.0625 24.039C24.4965 21.3195 25.6125 18.6015 26.7285 17.6835C27.957 19.812 29.7945 22.9995 32.25 27.246H37.125C37.6223 27.246 38.0992 27.4435 38.4508 27.7952C38.8025 28.1468 39 28.6237 39 29.121C39 29.6183 38.8025 30.0952 38.4508 30.4468C38.0992 30.7985 37.6223 30.996 37.125 30.996V30.9945Z" fill="white"/>
</svg>
