<svg width="48" height="48" viewBox="0 0 48 48" fill="none" xmlns="http://www.w3.org/2000/svg">
<g opacity="0.7">
<path d="M38 22H14.28L21.54 13.28C21.8795 12.8716 22.0428 12.345 21.994 11.8162C21.9453 11.2873 21.6884 10.7995 21.28 10.46C20.8716 10.1205 20.345 9.9572 19.8162 10.006C19.2873 10.0547 18.7995 10.3116 18.46 10.72L8.46 22.72C8.39272 22.8154 8.33256 22.9157 8.28 23.02C8.28 23.12 8.28 23.18 8.14 23.28C8.04935 23.5093 8.00188 23.7534 8 24C8.00188 24.2466 8.04935 24.4907 8.14 24.72C8.14 24.82 8.14 24.88 8.28 24.98C8.33256 25.0843 8.39272 25.1846 8.46 25.28L18.46 37.28C18.648 37.5058 18.8835 37.6873 19.1497 37.8118C19.4159 37.9362 19.7062 38.0005 20 38C20.4673 38.0009 20.9202 37.8382 21.28 37.54C21.4825 37.3721 21.6499 37.1659 21.7726 36.9332C21.8953 36.7005 21.9709 36.4459 21.9951 36.1839C22.0192 35.922 21.9915 35.6578 21.9134 35.4066C21.8353 35.1554 21.7084 34.9221 21.54 34.72L14.28 26H38C38.5304 26 39.0391 25.7893 39.4142 25.4142C39.7893 25.0391 40 24.5304 40 24C40 23.4696 39.7893 22.9609 39.4142 22.5858C39.0391 22.2107 38.5304 22 38 22Z" fill="#2D9CDB"/>
</g>
</svg>
