<svg width="42" height="42" viewBox="0 0 42 42" fill="none" xmlns="http://www.w3.org/2000/svg">
<g clip-path="url(#clip0_1036_1028)">
<path d="M40.95 21.525C40.95 21.525 42.2625 20.2125 42 17.325C42 13.3875 37.8 13.125 37.8 13.125H31.5C30.975 13.125 30.7125 12.6 30.7125 12.075C31.5 10.2375 32.8125 6.5625 32.2875 3.9375C31.5 0.2625 28.35 0 27.3 0C27.0375 0 26.775 0.2625 26.775 0.525L24.15 7.875C24.15 7.875 24.15 8.1375 23.8875 8.1375L17.0625 15.4875C16.8 15.75 16.5375 15.75 16.275 15.75H15.75V34.125H16.275C18.1125 34.125 24.675 39.375 30.45 39.375C36.225 39.375 37.5375 38.5875 38.5875 36.75C39.6375 34.9125 38.85 33.3375 38.85 33.3375C38.85 33.3375 40.1625 32.55 40.425 30.7125C40.6875 28.875 40.1625 27.825 40.1625 27.825C40.1625 27.825 41.475 26.775 41.475 24.675C41.7375 22.3125 40.95 21.525 40.95 21.525Z" fill="white"/>
<path d="M0 36.75H13.125V15.75H0V36.75ZM6.5625 27.5625C8.1375 27.5625 9.1875 28.6125 9.1875 30.1875C9.1875 31.7625 8.1375 32.8125 6.5625 32.8125C4.9875 32.8125 3.9375 31.7625 3.9375 30.1875C3.9375 28.6125 4.9875 27.5625 6.5625 27.5625Z" fill="white"/>
</g>
<defs>
<clipPath id="clip0_1036_1028">
<rect width="42" height="42" fill="white"/>
</clipPath>
</defs>
</svg>
