<svg width="473" height="73" viewBox="0 0 473 73" fill="none" xmlns="http://www.w3.org/2000/svg">
<path opacity="0.5" d="M46.1457 59.232L46.8545 58.9868L46.6799 58.482H46.1457V59.232ZM19.4577 59.232V58.482H18.9236L18.7489 58.9868L19.4577 59.232ZM15.0417 72V72.75H15.5759L15.7505 72.2451L15.0417 72ZM0.929746 72L0.223875 71.7465L-0.136454 72.75H0.929746V72ZM25.0257 4.89599V4.14599H24.4982L24.3199 4.64253L25.0257 4.89599ZM40.6737 4.89599L41.3796 4.64253L41.2013 4.14599H40.6737V4.89599ZM64.7698 72V72.75H65.836L65.4756 71.7465L64.7698 72ZM50.5618 72L49.8529 72.2451L50.0276 72.75H50.5618V72ZM42.4977 48.48V49.23H43.5508L43.2065 48.2348L42.4977 48.48ZM32.8017 20.448L33.5105 20.2028L32.8017 18.1536L32.0929 20.2028L32.8017 20.448ZM23.1057 48.48L22.3969 48.2348L22.0527 49.23H23.1057V48.48ZM46.1457 58.482H19.4577V59.982H46.1457V58.482ZM18.7489 58.9868L14.3329 71.7549L15.7505 72.2451L20.1665 59.4771L18.7489 58.9868ZM15.0417 71.25H0.929746V72.75H15.0417V71.25ZM1.63562 72.2535L25.7316 5.14946L24.3199 4.64253L0.223875 71.7465L1.63562 72.2535ZM25.0257 5.64599H40.6737V4.14599H25.0257V5.64599ZM39.9679 5.14946L64.0639 72.2535L65.4756 71.7465L41.3796 4.64253L39.9679 5.14946ZM64.7698 71.25H50.5618V72.75H64.7698V71.25ZM51.2706 71.7549L46.8545 58.9868L45.4369 59.4771L49.8529 72.2451L51.2706 71.7549ZM43.2065 48.2348L33.5105 20.2028L32.0929 20.6932L41.789 48.7252L43.2065 48.2348ZM32.0929 20.2028L22.3969 48.2348L23.8145 48.7252L33.5105 20.6932L32.0929 20.2028ZM23.1057 49.23H42.4977V47.73H23.1057V49.23ZM92.9765 26.592H92.2265V29.0437L93.5981 27.0116L92.9765 26.592ZM100.08 20.352L99.734 19.6868L99.7283 19.6898L100.08 20.352ZM122.833 21.312L122.44 21.9511L122.445 21.9541L122.833 21.312ZM131.568 30.912L130.9 31.2516L130.906 31.2639L131.568 30.912ZM131.568 59.712L130.902 59.3685L130.9 59.3725L131.568 59.712ZM122.833 69.408L122.437 68.7708L122.432 68.7739L122.833 69.408ZM100.08 70.56L99.7224 71.219L99.7308 71.2236L99.7394 71.228L100.08 70.56ZM92.9765 64.416L93.5857 63.9786L92.2265 62.0854V64.416H92.9765ZM92.9765 72V72.75H93.7265V72H92.9765ZM79.5365 72H78.7865V72.75H79.5365V72ZM79.5365 0.959999V0.209999H78.7865V0.959999H79.5365ZM92.9765 0.959999H93.7265V0.209999H92.9765V0.959999ZM119.089 36.96L118.429 37.3166L118.435 37.3274L118.441 37.3379L119.089 36.96ZM113.905 31.584L113.53 32.234L113.539 32.2387L113.905 31.584ZM100.08 31.68L100.455 32.33L100.461 32.3265L100.08 31.68ZM94.8965 37.056L94.2442 36.6858L94.2404 36.6925L94.2367 36.6994L94.8965 37.056ZM94.8965 53.76L94.2367 54.1166L94.2404 54.1235L94.2442 54.1302L94.8965 53.76ZM100.08 59.232L99.6918 59.8734L99.7031 59.8803L99.7146 59.8867L100.08 59.232ZM113.905 59.136L113.524 58.4895L113.516 58.4946L113.905 59.136ZM119.089 53.664L118.436 53.2938L118.432 53.3005L118.429 53.3074L119.089 53.664ZM93.5981 27.0116C95.2506 24.5634 97.5216 22.5626 100.433 21.0141L99.7283 19.6898C96.6234 21.3414 94.1584 23.5006 92.3549 26.1724L93.5981 27.0116ZM100.427 21.0172C103.379 19.4797 106.746 18.702 110.545 18.702V17.202C106.535 17.202 102.926 18.0243 99.734 19.6868L100.427 21.0172ZM110.545 18.702C114.959 18.702 118.917 19.7881 122.44 21.9511L123.225 20.6729C119.452 18.3559 115.218 17.202 110.545 17.202V18.702ZM122.445 21.9541C126.028 24.116 128.846 27.2068 130.9 31.2515L132.237 30.5725C130.067 26.2972 127.061 22.988 123.22 20.6699L122.445 21.9541ZM130.906 31.2639C133.015 35.2342 134.083 39.8775 134.083 45.216H135.583C135.583 39.6745 134.474 34.7818 132.231 30.5601L130.906 31.2639ZM134.083 45.216C134.083 50.5539 133.016 55.2652 130.902 59.3685L132.235 60.0555C134.473 55.7108 135.583 50.7581 135.583 45.216H134.083ZM130.9 59.3725C128.845 63.4188 126.024 66.5441 122.437 68.7708L123.228 70.0452C127.065 67.6639 130.068 64.3252 132.237 60.0515L130.9 59.3725ZM122.432 68.7739C118.91 70.9981 114.955 72.114 110.545 72.114V73.614C115.222 73.614 119.459 72.4259 123.233 70.0421L122.432 68.7739ZM110.545 72.114C106.674 72.114 103.307 71.3654 100.422 69.892L99.7394 71.228C102.87 72.8266 106.479 73.614 110.545 73.614V72.114ZM100.439 69.901C97.5848 68.3501 95.306 66.3747 93.5857 63.9786L92.3673 64.8534C94.231 67.4493 96.6882 69.5699 99.7224 71.219L100.439 69.901ZM92.2265 64.416V72H93.7265V64.416H92.2265ZM92.9765 71.25H79.5365V72.75H92.9765V71.25ZM80.2865 72V0.959999H78.7865V72H80.2865ZM79.5365 1.71H92.9765V0.209999H79.5365V1.71ZM92.2265 0.959999V26.592H93.7265V0.959999H92.2265ZM121.854 45.216C121.854 41.9098 121.159 39.0218 119.736 36.5821L118.441 37.3379C119.706 39.5062 120.354 42.1222 120.354 45.216H121.854ZM119.748 36.6034C118.406 34.1205 116.581 32.2203 114.27 30.9293L113.539 32.2387C115.58 33.3797 117.211 35.0635 118.429 37.3166L119.748 36.6034ZM114.279 30.934C112.05 29.6509 109.617 29.01 106.993 29.01V30.51C109.36 30.51 111.535 31.0851 113.53 32.234L114.279 30.934ZM106.993 29.01C104.422 29.01 101.987 29.6884 99.7002 31.0335L100.461 32.3265C102.526 31.1115 104.699 30.51 106.993 30.51V29.01ZM99.7063 31.03C97.4651 32.3204 95.6464 34.2154 94.2442 36.6858L95.5488 37.4262C96.8346 35.1606 98.4719 33.4716 100.455 32.33L99.7063 31.03ZM94.2367 36.6994C92.8873 39.1958 92.2265 42.1069 92.2265 45.408H93.7265C93.7265 42.3091 94.3457 39.6521 95.5563 37.4126L94.2367 36.6994ZM92.2265 45.408C92.2265 48.7091 92.8873 51.6201 94.2367 54.1166L95.5563 53.4034C94.3457 51.1638 93.7265 48.5069 93.7265 45.408H92.2265ZM94.2442 54.1302C95.6448 56.5979 97.4593 58.5204 99.6918 59.8734L100.469 58.5906C98.4777 57.3836 96.8362 55.6581 95.5488 53.3898L94.2442 54.1302ZM99.7146 59.8867C102 61.1636 104.429 61.806 106.993 61.806V60.306C104.692 60.306 102.513 59.7324 100.446 58.5773L99.7146 59.8867ZM106.993 61.806C109.624 61.806 112.063 61.1292 114.293 59.7774L113.516 58.4946C111.522 59.7028 109.353 60.306 106.993 60.306V61.806ZM114.285 59.7824C116.586 58.4285 118.408 56.5006 119.748 54.0206L118.429 53.3074C117.209 55.5634 115.575 57.2835 113.524 58.4895L114.285 59.7824ZM119.741 54.0342C121.16 51.5328 121.854 48.584 121.854 45.216H120.354C120.354 48.376 119.705 51.0592 118.436 53.2938L119.741 54.0342ZM160.151 69.504L159.783 70.1577L159.791 70.162L160.151 69.504ZM150.455 59.808L149.799 60.1714L149.803 60.179L150.455 59.808ZM150.551 31.008L149.903 30.6295L149.899 30.637L150.551 31.008ZM160.439 21.408L160.795 22.0684L160.802 22.0641L160.439 21.408ZM188.279 21.408L187.916 22.0641L187.923 22.0684L188.279 21.408ZM198.071 31.008L197.419 31.379L197.424 31.3865L198.071 31.008ZM197.975 59.808L197.332 59.4221L197.328 59.4295L197.975 59.808ZM187.991 69.504L188.347 70.1644L188.35 70.1624L187.991 69.504ZM180.791 59.424L181.15 60.0825L181.157 60.0787L180.791 59.424ZM185.975 54.048L186.635 54.4046L185.975 54.048ZM183.863 33.792L183.32 34.3096L183.326 34.316L183.333 34.3223L183.863 33.792ZM164.471 33.792L163.928 33.2744L163.928 33.2748L164.471 33.792ZM164.375 57.12L163.819 57.6239L163.826 57.6306L163.832 57.6372L164.375 57.12ZM173.975 72.114C168.968 72.114 164.486 71.0199 160.511 68.846L159.791 70.162C164.008 72.4681 168.742 73.614 173.975 73.614V72.114ZM160.519 68.8503C156.544 66.6143 153.409 63.481 151.107 59.437L149.803 60.179C152.237 64.455 155.566 67.7857 159.783 70.1577L160.519 68.8503ZM151.111 59.4446C148.877 55.411 147.749 50.7394 147.749 45.408H146.249C146.249 50.9566 147.425 55.885 149.799 60.1714L151.111 59.4446ZM147.749 45.408C147.749 40.0801 148.908 35.4112 151.203 31.379L149.899 30.637C147.458 34.9248 146.249 39.8559 146.249 45.408H147.749ZM151.198 31.3865C153.562 27.343 156.758 24.2417 160.795 22.0684L160.083 20.7476C155.8 23.0543 152.404 26.353 149.904 30.6295L151.198 31.3865ZM160.802 22.0641C164.843 19.8264 169.356 18.702 174.359 18.702V17.202C169.122 17.202 164.355 18.3816 160.076 20.7519L160.802 22.0641ZM174.359 18.702C179.362 18.702 183.875 19.8264 187.916 22.0641L188.642 20.7519C184.363 18.3816 179.596 17.202 174.359 17.202V18.702ZM187.923 22.0684C191.958 24.2407 195.12 27.3397 197.419 31.379L198.723 30.637C196.286 26.3563 192.92 23.0553 188.635 20.7476L187.923 22.0684ZM197.424 31.3865C199.78 35.4174 200.969 40.0835 200.969 45.408H202.469C202.469 39.8525 201.226 34.9185 198.718 30.6295L197.424 31.3865ZM200.969 45.408C200.969 50.729 199.75 55.3924 197.332 59.4221L198.618 60.1939C201.192 55.9036 202.469 50.967 202.469 45.408H200.969ZM197.328 59.4295C194.964 63.4719 191.736 66.607 187.632 68.8456L188.35 70.1624C192.694 67.793 196.122 64.4641 198.622 60.1865L197.328 59.4295ZM187.635 68.8436C183.595 71.0192 179.047 72.114 173.975 72.114V73.614C179.271 73.614 184.067 72.4688 188.347 70.1644L187.635 68.8436ZM173.975 61.902C176.531 61.902 178.927 61.2952 181.15 60.0824L180.432 58.7656C178.431 59.8568 176.283 60.402 173.975 60.402V61.902ZM181.157 60.0787C183.467 58.7877 185.293 56.8875 186.635 54.4046L185.315 53.6914C184.097 55.9445 182.467 57.6283 180.425 58.7693L181.157 60.0787ZM186.635 54.4046C187.987 51.9022 188.645 48.8928 188.645 45.408H187.145C187.145 48.7072 186.523 51.4578 185.315 53.6914L186.635 54.4046ZM188.645 45.408C188.645 40.221 187.264 36.132 184.393 33.2617L183.333 34.3223C185.838 36.828 187.145 40.483 187.145 45.408H188.645ZM184.406 33.2744C181.639 30.3723 178.21 28.914 174.167 28.914V30.414C177.804 30.414 180.839 31.7076 183.32 34.3096L184.406 33.2744ZM174.167 28.914C170.124 28.914 166.695 30.3723 163.928 33.2744L165.014 34.3096C167.495 31.7076 170.53 30.414 174.167 30.414V28.914ZM163.928 33.2748C161.193 36.1463 159.881 40.2304 159.881 45.408H161.381C161.381 40.4736 162.629 36.8137 165.014 34.3092L163.928 33.2748ZM159.881 45.408C159.881 50.5823 161.159 54.6907 163.819 57.6239L164.931 56.6161C162.599 54.0453 161.381 50.3457 161.381 45.408H159.881ZM163.832 57.6372C166.539 60.4796 169.938 61.902 173.975 61.902V60.402C170.332 60.402 167.331 59.1365 164.918 56.6028L163.832 57.6372ZM267.546 18.816H268.296V18.066H267.546V18.816ZM267.546 72V72.75H268.296V72H267.546ZM254.01 72H253.26V72.75H254.01V72ZM254.01 65.28H254.76V63.03L253.41 64.83L254.01 65.28ZM247.194 70.752L247.51 71.4321L247.517 71.4289L247.194 70.752ZM227.13 70.08L226.763 70.7345L226.773 70.7399L227.13 70.08ZM219.546 62.304L218.88 62.6492L218.884 62.6567L218.888 62.664L219.546 62.304ZM216.858 18.816V18.066H216.108V18.816H216.858ZM230.298 18.816H231.048V18.066H230.298V18.816ZM233.466 57.888L232.913 58.3948L232.92 58.4025L233.466 57.888ZM250.842 57.888L251.387 58.4026L251.395 58.3948L250.842 57.888ZM254.01 18.816V18.066H253.26V18.816H254.01ZM266.796 18.816V72H268.296V18.816H266.796ZM267.546 71.25H254.01V72.75H267.546V71.25ZM254.76 72V65.28H253.26V72H254.76ZM253.41 64.83C251.76 67.0292 249.587 68.7788 246.871 70.0751L247.517 71.4289C250.433 70.0372 252.803 68.1388 254.61 65.73L253.41 64.83ZM246.877 70.072C244.232 71.3025 241.333 71.922 238.17 71.922V73.422C241.535 73.422 244.652 72.7615 247.51 71.432L246.877 70.072ZM238.17 71.922C234.116 71.922 230.562 71.0809 227.486 69.4201L226.773 70.7399C230.098 72.5351 233.903 73.422 238.17 73.422V71.922ZM227.496 69.4256C224.426 67.7062 221.996 65.2195 220.204 61.944L218.888 62.664C220.808 66.1725 223.434 68.8698 226.763 70.7344L227.496 69.4256ZM220.212 61.9588C218.486 58.6301 217.608 54.6575 217.608 50.016H216.108C216.108 54.8465 217.022 59.0659 218.88 62.6492L220.212 61.9588ZM217.608 50.016V18.816H216.108V50.016H217.608ZM216.858 19.566H230.298V18.066H216.858V19.566ZM229.548 18.816V48.096H231.048V18.816H229.548ZM229.548 48.096C229.548 52.4407 230.635 55.91 232.913 58.3948L234.019 57.3812C232.072 55.258 231.048 52.1993 231.048 48.096H229.548ZM232.92 58.4025C235.2 60.8205 238.293 61.998 242.106 61.998V60.498C238.623 60.498 235.956 59.4355 234.011 57.3735L232.92 58.4025ZM242.106 61.998C245.978 61.998 249.105 60.8232 251.387 58.4025L250.296 57.3735C248.354 59.4328 245.657 60.498 242.106 60.498V61.998ZM251.395 58.3948C253.672 55.91 254.76 52.4407 254.76 48.096H253.26C253.26 52.1993 252.235 55.258 250.289 57.3812L251.395 58.3948ZM254.76 48.096V18.816H253.26V48.096H254.76ZM254.01 19.566H267.546V18.066H254.01V19.566ZM302.215 29.856V29.106H301.465V29.856H302.215ZM303.462 59.52L302.932 60.0503L302.953 60.0707L302.974 60.0894L303.462 59.52ZM314.118 60.672H314.868V59.922H314.118V60.672ZM314.118 72V72.75H314.868V72H314.118ZM288.678 29.856H289.428V29.106H288.678V29.856ZM282.342 29.856H281.592V30.606H282.342V29.856ZM282.342 18.816V18.066H281.592V18.816H282.342ZM288.678 18.816V19.566H289.428V18.816H288.678ZM288.678 5.664V4.914H287.928V5.664H288.678ZM302.215 5.664H302.965V4.914H302.215V5.664ZM302.215 18.816H301.465V19.566H302.215V18.816ZM314.118 18.816H314.868V18.066H314.118V18.816ZM314.118 29.856V30.606H314.868V29.856H314.118ZM301.465 29.856V55.584H302.965V29.856H301.465ZM301.465 55.584C301.465 57.4727 301.901 59.019 302.932 60.0503L303.993 58.9897C303.36 58.357 302.965 57.2793 302.965 55.584H301.465ZM302.974 60.0894C304.076 61.0334 305.771 61.422 307.879 61.422V59.922C305.89 59.922 304.641 59.5426 303.951 58.9506L302.974 60.0894ZM307.879 61.422H314.118V59.922H307.879V61.422ZM313.368 60.672V72H314.868V60.672H313.368ZM314.118 71.25H305.671V72.75H314.118V71.25ZM305.671 71.25C300.117 71.25 296.09 69.9006 293.449 67.3341C290.812 64.7715 289.428 60.8708 289.428 55.488H287.928C287.928 61.1132 289.377 65.4685 292.404 68.4099C295.427 71.3474 299.896 72.75 305.671 72.75V71.25ZM289.428 55.488V29.856H287.928V55.488H289.428ZM288.678 29.106H282.342V30.606H288.678V29.106ZM283.092 29.856V18.816H281.592V29.856H283.092ZM282.342 19.566H288.678V18.066H282.342V19.566ZM289.428 18.816V5.664H287.928V18.816H289.428ZM288.678 6.414H302.215V4.914H288.678V6.414ZM301.465 5.664V18.816H302.965V5.664H301.465ZM302.215 19.566H314.118V18.066H302.215V19.566ZM313.368 18.816V29.856H314.868V18.816H313.368ZM314.118 29.106H302.215V30.606H314.118V29.106ZM371.428 4.992H372.178V4.242H371.428V4.992ZM374.98 56.928L374.443 57.4513L374.45 57.4583L374.98 56.928ZM395.044 56.928L395.575 57.4584L395.582 57.4512L395.044 56.928ZM398.596 4.992V4.242H397.846V4.992H398.596ZM412.132 4.992H412.882V4.242H412.132V4.992ZM408.388 60.864L407.753 60.4647L407.752 60.4674L408.388 60.864ZM398.5 69.696L398.177 69.019L398.173 69.021L398.5 69.696ZM371.14 69.696L370.809 70.369L370.813 70.371L371.14 69.696ZM361.54 60.864L360.896 61.2484L360.899 61.253L361.54 60.864ZM357.988 4.992V4.242H357.238V4.992H357.988ZM370.678 4.992V46.464H372.178V4.992H370.678ZM370.678 46.464C370.678 51.1354 371.897 54.837 374.443 57.4512L375.518 56.4048C373.327 54.155 372.178 50.8806 372.178 46.464H370.678ZM374.45 57.4583C376.995 60.0035 380.536 61.23 384.964 61.23V59.73C380.817 59.73 377.701 58.5885 375.511 56.3977L374.45 57.4583ZM384.964 61.23C389.453 61.23 393.027 60.0055 395.575 57.4583L394.514 56.3977C392.325 58.5865 389.179 59.73 384.964 59.73V61.23ZM395.582 57.4512C398.127 54.837 399.346 51.1354 399.346 46.464H397.846C397.846 50.8806 396.698 54.155 394.507 56.4048L395.582 57.4512ZM399.346 46.464V4.992H397.846V46.464H399.346ZM398.596 5.742H412.132V4.242H398.596V5.742ZM411.382 4.992V46.368H412.882V4.992H411.382ZM411.382 46.368C411.382 51.9532 410.159 56.6397 407.753 60.4647L409.023 61.2633C411.609 57.1523 412.882 52.1748 412.882 46.368H411.382ZM407.752 60.4674C405.396 64.2497 402.208 67.0965 398.177 69.0191L398.823 70.373C403.112 68.3275 406.517 65.2863 409.025 61.2606L407.752 60.4674ZM398.173 69.021C394.19 70.9504 389.728 71.922 384.772 71.922V73.422C389.929 73.422 394.618 72.4096 398.827 70.371L398.173 69.021ZM384.772 71.922C379.882 71.922 375.452 70.951 371.467 69.021L370.813 70.371C375.021 72.409 379.678 73.422 384.772 73.422V71.922ZM371.471 69.0231C367.57 67.1033 364.477 64.2588 362.181 60.475L360.899 61.253C363.34 65.2772 366.647 68.3207 370.809 70.3689L371.471 69.0231ZM362.184 60.4797C359.9 56.6521 358.738 51.96 358.738 46.368H357.238C357.238 52.168 358.444 57.1399 360.896 61.2483L362.184 60.4797ZM358.738 46.368V4.992H357.238V46.368H358.738ZM357.988 5.742H371.428V4.242H357.988V5.742ZM439.518 70.56L439.203 71.2407L439.213 71.2454L439.518 70.56ZM431.262 64.128L430.658 64.5734L430.665 64.5825L431.262 64.128ZM427.998 55.2V54.45H427.202L427.249 55.244L427.998 55.2ZM441.534 55.2L442.278 55.107L442.196 54.45H441.534V55.2ZM444.51 60.288L444.049 60.8801L444.06 60.888L444.51 60.288ZM457.086 60.768L456.657 60.1523L456.651 60.1568L456.645 60.1614L457.086 60.768ZM456.606 52.992L456.261 53.6578L456.275 53.6654L456.29 53.6723L456.606 52.992ZM448.254 50.112L448.447 49.3873L448.439 49.3851L448.43 49.383L448.254 50.112ZM438.462 47.136L438.177 47.8299L438.183 47.8324L438.462 47.136ZM431.934 42.432L431.362 42.9173L431.37 42.9271L431.934 42.432ZM431.742 25.824L431.13 25.3895L431.123 25.4005L431.742 25.824ZM439.038 20.064L438.736 19.3775L438.731 19.3798L439.038 20.064ZM465.438 22.752L464.953 23.3242L464.959 23.329L465.438 22.752ZM471.678 35.52V36.27H472.483L472.426 35.4666L471.678 35.52ZM458.814 35.52L458.067 35.5879L458.129 36.27H458.814V35.52ZM456.126 30.528L455.646 31.1042L455.659 31.1149L455.672 31.1251L456.126 30.528ZM444.222 29.952L443.806 29.328L443.799 29.3327L443.792 29.3376L444.222 29.952ZM444.99 37.824L444.636 38.4851L444.645 38.4901L444.654 38.4948L444.99 37.824ZM453.342 40.608L453.157 41.3349L453.16 41.3356L453.342 40.608ZM469.278 48.384L468.699 48.8608L468.706 48.8701L468.714 48.8791L469.278 48.384ZM472.158 56.832H472.908L472.908 56.8184L472.158 56.832ZM469.566 65.088L468.954 64.6535L468.947 64.6645L469.566 65.088ZM462.27 70.848L462.565 71.5374L462.572 71.5345L462.27 70.848ZM451.23 72.114C446.967 72.114 443.169 71.3621 439.822 69.8746L439.213 71.2454C442.778 72.8299 446.789 73.614 451.23 73.614V72.114ZM439.833 69.8794C436.473 68.3241 433.823 66.2525 431.858 63.6735L430.665 64.5825C432.796 67.3795 435.65 69.5959 439.203 71.2406L439.833 69.8794ZM431.865 63.6826C429.965 61.1088 428.93 58.2716 428.746 55.156L427.249 55.244C427.45 58.6564 428.59 61.7712 430.658 64.5734L431.865 63.6826ZM427.998 55.95H441.534V54.45H427.998V55.95ZM440.79 55.293C441.072 57.5513 442.175 59.4221 444.049 60.88L444.97 59.696C443.389 58.4659 442.508 56.9447 442.278 55.107L440.79 55.293ZM444.06 60.888C446.003 62.3453 448.376 63.054 451.134 63.054V61.554C448.643 61.554 446.601 60.9187 444.96 59.688L444.06 60.888ZM451.134 63.054C453.781 63.054 455.943 62.5264 457.527 61.3745L456.645 60.1614C455.412 61.0576 453.606 61.554 451.134 61.554V63.054ZM457.514 61.3837C459.159 60.2392 460.044 58.7101 460.044 56.832H458.544C458.544 58.1539 457.956 59.2488 456.657 60.1523L457.514 61.3837ZM460.044 56.832C460.044 55.8312 459.782 54.9252 459.236 54.1459C458.695 53.3726 457.906 52.7689 456.922 52.3117L456.29 53.6723C457.097 54.0471 457.653 54.4994 458.007 55.0061C458.358 55.5068 458.544 56.1048 458.544 56.832H460.044ZM456.951 52.3262C455.147 51.3907 452.297 50.414 448.447 49.3873L448.061 50.8367C451.89 51.858 454.609 52.8013 456.261 53.6578L456.951 52.3262ZM448.43 49.383C444.482 48.4279 441.255 47.4457 438.74 46.4396L438.183 47.8324C440.788 48.8743 444.089 49.8761 448.077 50.841L448.43 49.383ZM438.746 46.4421C436.362 45.4639 434.28 43.9658 432.497 41.9369L431.37 42.9271C433.299 45.1222 435.57 46.7601 438.177 47.8299L438.746 46.4421ZM432.506 41.9468C430.859 40.006 429.996 37.3475 429.996 33.888H428.496C428.496 37.5965 429.425 40.634 431.362 42.9172L432.506 41.9468ZM429.996 33.888C429.996 31.0953 430.782 28.5549 432.361 26.2475L431.123 25.4005C429.374 27.9571 428.496 30.7927 428.496 33.888H429.996ZM432.353 26.2584C433.993 23.9509 436.312 22.11 439.345 20.7482L438.731 19.3798C435.492 20.834 432.947 22.8331 431.13 25.3896L432.353 26.2584ZM439.34 20.7505C442.426 19.3927 446.063 18.702 450.27 18.702V17.202C445.901 17.202 442.05 17.9193 438.736 19.3775L439.34 20.7505ZM450.27 18.702C456.479 18.702 461.347 20.2681 464.953 23.3242L465.923 22.1798C461.977 18.8359 456.732 17.202 450.27 17.202V18.702ZM464.959 23.329C468.561 26.3209 470.559 30.3792 470.93 35.5734L472.426 35.4666C472.029 29.9088 469.866 25.4551 465.917 22.175L464.959 23.329ZM471.678 34.77H458.814V36.27H471.678V34.77ZM459.561 35.4521C459.351 33.1434 458.357 31.282 456.58 29.9309L455.672 31.1251C457.094 32.206 457.893 33.6726 458.067 35.5879L459.561 35.4521ZM456.606 29.9518C454.898 28.5285 452.63 27.858 449.886 27.858V29.358C452.39 29.358 454.282 29.9675 455.646 31.1042L456.606 29.9518ZM449.886 27.858C447.376 27.858 445.321 28.318 443.806 29.328L444.638 30.576C445.811 29.7939 447.532 29.358 449.886 29.358V27.858ZM443.792 29.3376C442.305 30.3779 441.552 31.8583 441.552 33.696H443.052C443.052 32.3337 443.578 31.3181 444.652 30.5664L443.792 29.3376ZM441.552 33.696C441.552 34.7235 441.811 35.6604 442.345 36.4813C442.877 37.2973 443.655 37.9595 444.636 38.4851L445.344 37.1629C444.533 36.7284 443.967 36.2227 443.602 35.6627C443.241 35.1076 443.052 34.4605 443.052 33.696H441.552ZM444.654 38.4948C446.52 39.4279 449.368 40.3716 453.157 41.3349L453.527 39.8811C449.764 38.9244 447.043 38.0121 445.325 37.1532L444.654 38.4948ZM453.16 41.3356C456.979 42.2905 460.11 43.2723 462.561 44.2779L463.13 42.8901C460.59 41.8477 457.384 40.8455 453.524 39.8804L453.16 41.3356ZM462.561 44.2779C464.937 45.2528 466.982 46.7759 468.699 48.8608L469.857 47.9072C467.99 45.6401 465.746 43.9632 463.13 42.8901L462.561 44.2779ZM468.714 48.8791C470.426 50.8268 471.346 53.457 471.408 56.8456L472.908 56.8184C472.841 53.167 471.842 50.1652 469.841 47.8889L468.714 48.8791ZM471.408 56.832C471.408 59.7533 470.589 62.3525 468.954 64.6536L470.177 65.5224C471.998 62.9595 472.908 60.0547 472.908 56.832H471.408ZM468.947 64.6645C467.375 66.961 465.064 68.7993 461.968 70.1615L462.572 71.5345C465.876 70.0807 468.428 68.079 470.185 65.5115L468.947 64.6645ZM461.974 70.1586C458.951 71.4543 455.376 72.114 451.23 72.114V73.614C455.532 73.614 459.316 72.9297 462.565 71.5374L461.974 70.1586Z" fill="url(#paint0_linear_453_5287)"/>
<defs>
<linearGradient id="paint0_linear_453_5287" x1="99.7565" y1="-145.462" x2="28.5376" y2="99.8651" gradientUnits="userSpaceOnUse">
<stop stop-color="#2DD1DB"/>
<stop offset="0.60721" stop-color="#2D9CDB"/>
<stop offset="1" stop-color="#1A8ED0"/>
</linearGradient>
</defs>
</svg>
