<svg width="48" height="48" viewBox="0 0 48 48" fill="none" xmlns="http://www.w3.org/2000/svg">
<path d="M7.00002 37V12H14C14.2652 12 14.5196 11.8947 14.7071 11.7071C14.8947 11.5196 15 11.2652 15 11V4.00002H34C34.2652 4.00002 34.5196 4.10537 34.7071 4.29291C34.8947 4.48045 35 4.7348 35 5.00002V18H37V5.00002C37 4.20437 36.6839 3.44131 36.1213 2.8787C35.5587 2.31609 34.7957 2.00002 34 2.00002H14C13.8684 1.99926 13.7379 2.02448 13.6161 2.07425C13.4943 2.12401 13.3835 2.19734 13.29 2.29002L5.29002 10.29C5.19734 10.3835 5.12401 10.4943 5.07425 10.6161C5.02448 10.7379 4.99926 10.8684 5.00002 11V37C5.00002 37.7957 5.31609 38.5587 5.8787 39.1213C6.44131 39.6839 7.20437 40 8.00002 40H21.94V38H8.00002C7.7348 38 7.48045 37.8947 7.29291 37.7071C7.10537 37.5196 7.00002 37.2652 7.00002 37ZM8.41002 10L13 5.41002V10H8.41002ZM11 15H22V17H11V15ZM17 10H22V12H17V10ZM11 20H22V22H11V20ZM11 25H22V27H11V25ZM11 30H22V32H11V30ZM40 20H28C27.2044 20 26.4413 20.3161 25.8787 20.8787C25.3161 21.4413 25 22.2044 25 23V43C25 43.7957 25.3161 44.5587 25.8787 45.1213C26.4413 45.6839 27.2044 46 28 46H40C40.7957 46 41.5587 45.6839 42.1213 45.1213C42.6839 44.5587 43 43.7957 43 43V23C43 22.2044 42.6839 21.4413 42.1213 20.8787C41.5587 20.3161 40.7957 20 40 20ZM41 43C41 43.2652 40.8947 43.5196 40.7071 43.7071C40.5196 43.8947 40.2652 44 40 44H28C27.7348 44 27.4804 43.8947 27.2929 43.7071C27.1054 43.5196 27 43.2652 27 43V23C27 22.7348 27.1054 22.4804 27.2929 22.2929C27.4804 22.1054 27.7348 22 28 22H40C40.2652 22 40.5196 22.1054 40.7071 22.2929C40.8947 22.4804 41 22.7348 41 23V43ZM38 24H30C29.7348 24 29.4804 24.1054 29.2929 24.2929C29.1054 24.4804 29 24.7348 29 25V29C29 29.2652 29.1054 29.5196 29.2929 29.7071C29.4804 29.8947 29.7348 30 30 30H38C38.2652 30 38.5196 29.8947 38.7071 29.7071C38.8947 29.5196 39 29.2652 39 29V25C39 24.7348 38.8947 24.4804 38.7071 24.2929C38.5196 24.1054 38.2652 24 38 24ZM37 28H31V26H37V28ZM29 32H33V34H29V32ZM35 32H39V34H35V32ZM29 36H33V38H29V36ZM35 36H39V38H35V36ZM29 40H33V42H29V40ZM35 40H39V42H35V40ZM27 10V11H30C30.2652 11 30.5196 11.1054 30.7071 11.2929C30.8947 11.4804 31 11.7348 31 12V15C31 15.2652 30.8947 15.5196 30.7071 15.7071C30.5196 15.8947 30.2652 16 30 16H29V17H27V16H25V14H29V13H26C25.7348 13 25.4804 12.8947 25.2929 12.7071C25.1054 12.5196 25 12.2652 25 12V9.00002C25 8.7348 25.1054 8.48045 25.2929 8.29291C25.4804 8.10537 25.7348 8.00002 26 8.00002H27V7.00002H29V8.00002H31V10H27Z" fill="url(#paint0_linear_1704_14154)"/>
<defs>
<linearGradient id="paint0_linear_1704_14154" x1="13.0725" y1="-52.1539" x2="-37.6395" y2="-18.7681" gradientUnits="userSpaceOnUse">
<stop stop-color="#2DD1DB"/>
<stop offset="0.60721" stop-color="#2D9CDB"/>
<stop offset="1" stop-color="#1A8ED0"/>
</linearGradient>
</defs>
</svg>
