<svg width="80" height="80" viewBox="0 0 80 80" fill="none" xmlns="http://www.w3.org/2000/svg">
<path fill-rule="evenodd" clip-rule="evenodd" d="M17 15.2C17 11.7757 19.8083 9 23.2727 9H44.1818C54.5749 9 63 17.3274 63 27.6C63 32.3639 61.1861 36.7109 58.2083 40C61.1861 43.2891 63 47.6361 63 52.4C63 62.6726 54.5749 71 44.1818 71H23.2727C21.609 71 20.0136 70.3467 18.8373 69.184C17.6609 68.0213 17 66.4444 17 64.8V15.2ZM23.2727 13.1333C22.1179 13.1333 21.1818 14.0586 21.1818 15.2V64.8C21.1818 65.3481 21.4022 65.8738 21.7942 66.2613C22.1863 66.6488 22.7182 66.8667 23.2727 66.8667H44.1818C52.2653 66.8667 58.8182 60.3897 58.8182 52.4C58.8182 48.0794 56.9046 44.2034 53.8625 41.5494C53.4128 41.1571 53.1552 40.5929 53.1552 40C53.1552 39.4071 53.4128 38.8429 53.8625 38.4506C56.9046 35.7966 58.8182 31.9206 58.8182 27.6C58.8182 19.6103 52.2653 13.1333 44.1818 13.1333H23.2727ZM25.3636 19.3333C25.3636 18.1919 26.2997 17.2667 27.4545 17.2667H44.1818C49.9557 17.2667 54.6364 21.8931 54.6364 27.6C54.6364 33.3069 49.9557 37.9333 44.1818 37.9333H27.4545C26.2997 37.9333 25.3636 37.0081 25.3636 35.8667V19.3333ZM29.5455 21.4V33.8H44.1818C47.6462 33.8 50.4545 31.0243 50.4545 27.6C50.4545 24.1757 47.6462 21.4 44.1818 21.4H29.5455ZM25.3636 44.1333C25.3636 42.9919 26.2997 42.0667 27.4545 42.0667H44.1818C49.9557 42.0667 54.6364 46.6931 54.6364 52.4C54.6364 58.1069 49.9557 62.7333 44.1818 62.7333H27.4545C26.2997 62.7333 25.3636 61.8081 25.3636 60.6667V44.1333ZM29.5455 46.2V58.6H44.1818C47.6462 58.6 50.4545 55.8243 50.4545 52.4C50.4545 48.9757 47.6462 46.2 44.1818 46.2H29.5455Z" fill="url(#paint0_linear_1344_12902)"/>
<defs>
<linearGradient id="paint0_linear_1344_12902" x1="26.772" y1="-67.3077" x2="-39.8972" y2="-29.6016" gradientUnits="userSpaceOnUse">
<stop stop-color="#2DD1DB"/>
<stop offset="0.60721" stop-color="#2D9CDB"/>
<stop offset="1" stop-color="#1A8ED0"/>
</linearGradient>
</defs>
</svg>
