<svg width="48" height="44" viewBox="0 0 48 44" fill="none" xmlns="http://www.w3.org/2000/svg">
<path d="M46.2439 0.652344H1.75613C0.786281 0.652344 0 1.43863 0 2.40847V8.57309C0 9.21969 0.524156 9.74384 1.17075 9.74384H46.8292C47.4758 9.74384 48 9.21969 48 8.57309V2.40847C48 1.43863 47.2137 0.652344 46.2439 0.652344ZM6.699 6.27069C6.10659 6.27069 5.6265 5.7905 5.6265 5.19809C5.6265 4.60569 6.10669 4.12559 6.699 4.12559C7.29141 4.12559 7.77159 4.60578 7.77159 5.19809C7.77159 5.79041 7.29141 6.27069 6.699 6.27069ZM10.1328 6.27069C9.54038 6.27069 9.06019 5.7905 9.06019 5.19809C9.06019 4.60569 9.54038 4.12559 10.1328 4.12559C10.7252 4.12559 11.2053 4.60578 11.2053 5.19809C11.2053 5.79041 10.7251 6.27069 10.1328 6.27069ZM13.5665 6.27069C12.9741 6.27069 12.4939 5.7905 12.4939 5.19809C12.4939 4.60569 12.9741 4.12559 13.5665 4.12559C14.1589 4.12559 14.639 4.60578 14.639 5.19809C14.639 5.79041 14.1589 6.27069 13.5665 6.27069Z" fill="white"/>
<path d="M46.8292 12.0859H1.17075C0.524156 12.0859 0 12.6101 0 13.2567V41.5921C0 42.5619 0.786281 43.3482 1.75613 43.3482H46.244C47.2138 43.3482 48.0001 42.5619 48.0001 41.5921V13.2567C48 12.6102 47.4758 12.0859 46.8292 12.0859ZM21.6966 36.9536C21.6966 37.9234 20.9103 38.7097 19.9404 38.7097H7.85803C6.88819 38.7097 6.10191 37.9234 6.10191 36.9536V30.5994C6.10191 29.6296 6.88819 28.8433 7.85803 28.8433H19.9404C20.9103 28.8433 21.6966 29.6296 21.6966 30.5994V36.9536V36.9536ZM40.142 38.239H26.2729C25.303 38.239 24.5167 37.4527 24.5167 36.4829C24.5167 35.513 25.303 34.7268 26.2729 34.7268H40.142C41.1118 34.7268 41.8981 35.513 41.8981 36.4829C41.8981 37.4527 41.1118 38.239 40.142 38.239ZM40.142 32.8262H26.2729C25.303 32.8262 24.5167 32.0399 24.5167 31.07C24.5167 30.1002 25.303 29.3139 26.2729 29.3139H40.142C41.1118 29.3139 41.8981 30.1002 41.8981 31.07C41.8981 32.0399 41.1118 32.8262 40.142 32.8262ZM41.898 24.4615C41.898 25.4313 41.1117 26.2176 40.1419 26.2176H7.85803C6.88819 26.2176 6.10191 25.4313 6.10191 24.4615V18.4806C6.10191 17.5108 6.88819 16.7245 7.85803 16.7245H40.1419C41.1117 16.7245 41.898 17.5108 41.898 18.4806V24.4615V24.4615Z" fill="white"/>
</svg>
