<svg width="187" height="66" viewBox="0 0 187 66" fill="none" xmlns="http://www.w3.org/2000/svg">
<path opacity="0.3" d="M26.08 25.088L25.8548 24.3726L25.9425 25.8253L26.08 25.088ZM32.288 28.864L32.876 28.3985L32.288 28.864ZM32.928 42.24L32.2995 41.8307L32.2971 41.8344L32.928 42.24ZM27.872 46.464L28.1863 47.145L27.872 46.464ZM0.736 48H-0.0139999V48.75H0.736V48ZM0.736 3.328V2.578H-0.0139999V3.328H0.736ZM26.976 4.8L26.6677 5.48371L26.6726 5.4859L26.976 4.8ZM31.968 8.896L31.3345 9.29772L31.3416 9.30849L31.968 8.896ZM31.584 21.376L30.9997 20.9057L30.9928 20.9145L31.584 21.376ZM9.696 21.76H8.946V22.51H9.696V21.76ZM22.816 20.352L23.2898 20.9334L23.2961 20.9282L23.3024 20.9229L22.816 20.352ZM22.816 12.032L23.3024 11.4611H23.3024L22.816 12.032ZM9.696 10.56V9.81H8.946V10.56H9.696ZM23.776 39.168L23.2978 38.5901L23.2879 38.5986L23.776 39.168ZM23.712 30.336L23.2208 30.9028L23.2263 30.9075L23.2319 30.9122L23.712 30.336ZM9.696 28.672V27.922H8.946V28.672H9.696ZM9.696 40.704H8.946V41.454H9.696V40.704ZM25.9425 25.8253C28.2779 26.2607 30.1886 27.4204 31.7 29.3295L32.876 28.3985C31.1447 26.2116 28.9168 24.854 26.2175 24.3507L25.9425 25.8253ZM31.7 29.3295C33.215 31.2432 33.97 33.4253 33.97 35.904H35.47C35.47 33.092 34.6037 30.5808 32.876 28.3985L31.7 29.3295ZM33.97 35.904C33.97 38.1618 33.4077 40.1289 32.2995 41.8307L33.5565 42.6493C34.8377 40.6817 35.47 38.4248 35.47 35.904H33.97ZM32.2971 41.8344C31.2331 43.4895 29.6663 44.8098 27.5577 45.783L28.1863 47.145C30.515 46.0702 32.3189 44.5745 33.5589 42.6456L32.2971 41.8344ZM27.5577 45.783C25.4583 46.752 22.9462 47.25 20 47.25V48.75C23.1125 48.75 25.8484 48.224 28.1863 47.145L27.5577 45.783ZM20 47.25H0.736V48.75H20V47.25ZM1.486 48V3.328H-0.0139999V48H1.486ZM0.736 4.078H19.168V2.578H0.736V4.078ZM19.168 4.078C22.1186 4.078 24.6109 4.55615 26.6677 5.48369L27.2843 4.11631C24.9891 3.08118 22.276 2.578 19.168 2.578V4.078ZM26.6726 5.4859C28.7794 6.41772 30.3176 7.6939 31.3346 9.29766L32.6014 8.49434C31.3997 6.59943 29.61 5.14494 27.2794 4.1141L26.6726 5.4859ZM31.3416 9.30849C32.4081 10.928 32.946 12.7668 32.946 14.848H34.446C34.446 12.4918 33.8319 10.3627 32.5944 8.48351L31.3416 9.30849ZM32.946 14.848C32.946 17.3081 32.2839 19.3103 30.9997 20.9057L32.1683 21.8463C33.7001 19.943 34.446 17.5932 34.446 14.848H32.946ZM30.9928 20.9145C29.7292 22.5335 28.0273 23.6887 25.8548 24.3726L26.3052 25.8034C28.7407 25.0367 30.7081 23.7172 32.1752 21.8375L30.9928 20.9145ZM9.696 22.51H17.888V21.01H9.696V22.51ZM17.888 22.51C20.1205 22.51 21.9563 22.0199 23.2898 20.9334L22.3422 19.7706C21.3717 20.5614 19.9222 21.01 17.888 21.01V22.51ZM23.3024 20.9229C24.6529 19.7725 25.294 18.1591 25.294 16.192H23.794C23.794 17.8089 23.2831 18.9688 22.3297 19.7811L23.3024 20.9229ZM25.294 16.192C25.294 14.2249 24.6529 12.6115 23.3024 11.4611L22.3297 12.6029C23.2831 13.4151 23.794 14.5751 23.794 16.192H25.294ZM23.3024 11.4611C21.9683 10.3246 20.1273 9.81 17.888 9.81V11.31C19.9153 11.31 21.3597 11.7767 22.3297 12.6029L23.3024 11.4611ZM17.888 9.81H9.696V11.31H17.888V9.81ZM8.946 10.56V21.76H10.446V10.56H8.946ZM18.72 41.454C21.0067 41.454 22.8893 40.9158 24.2641 39.7374L23.2879 38.5986C22.2734 39.4682 20.7853 39.954 18.72 39.954V41.454ZM24.2542 39.7458C25.6936 38.5545 26.382 36.8748 26.382 34.816H24.882C24.882 36.5119 24.333 37.7335 23.2978 38.5902L24.2542 39.7458ZM26.382 34.816C26.382 32.7113 25.6702 30.9916 24.1921 29.7598L23.2319 30.9122C24.3138 31.8137 24.882 33.0807 24.882 34.816H26.382ZM24.2032 29.7692C22.7517 28.5113 20.8318 27.922 18.528 27.922V29.422C20.5762 29.422 22.1123 29.942 23.2208 30.9028L24.2032 29.7692ZM18.528 27.922H9.696V29.422H18.528V27.922ZM8.946 28.672V40.704H10.446V28.672H8.946ZM9.696 41.454H18.72V39.954H9.696V41.454ZM54.661 0.639999H55.411V-0.110001H54.661V0.639999ZM54.661 48V48.75H55.411V48H54.661ZM45.701 48H44.951V48.75H45.701V48ZM45.701 0.639999V-0.110001H44.951V0.639999H45.701ZM53.911 0.639999V48H55.411V0.639999H53.911ZM54.661 47.25H45.701V48.75H54.661V47.25ZM46.451 48V0.639999H44.951V48H46.451ZM45.701 1.39H54.661V-0.110001H45.701V1.39ZM73.8815 46.336L73.5138 46.9897L73.5216 46.994L73.8815 46.336ZM67.4175 39.872L66.7614 40.2354L66.7657 40.243L67.4175 39.872ZM67.4815 20.672L66.834 20.2935L66.8297 20.301L67.4815 20.672ZM74.0735 14.272L74.4291 14.9324L74.4369 14.9281L74.0735 14.272ZM92.6335 14.272L92.2701 14.9281L92.2779 14.9324L92.6335 14.272ZM99.1615 20.672L98.5097 21.043L98.514 21.0505L99.1615 20.672ZM99.0975 39.872L98.4543 39.4861L98.45 39.4935L99.0975 39.872ZM92.4415 46.336L92.7971 46.9964L92.8006 46.9944L92.4415 46.336ZM87.6415 39.616L88.0007 40.2745L88.0074 40.2707L87.6415 39.616ZM91.0975 36.032L91.7573 36.3886L91.0975 36.032ZM89.6895 22.528L89.1467 23.0456L89.1529 23.052L89.1592 23.0583L89.6895 22.528ZM76.7615 22.528L76.2187 22.0104L76.2184 22.0108L76.7615 22.528ZM76.6975 38.08L76.142 38.5839L76.1481 38.5906L76.1544 38.5972L76.6975 38.08ZM83.0975 47.826C79.7975 47.826 76.8512 47.1053 74.2414 45.678L73.5216 46.994C76.3731 48.5534 79.5708 49.326 83.0975 49.326V47.826ZM74.2492 45.6823C71.6394 44.2143 69.582 42.1584 68.0693 39.501L66.7657 40.243C68.4104 43.1323 70.6623 45.3857 73.5138 46.9897L74.2492 45.6823ZM68.0736 39.5086C66.6076 36.8616 65.8635 33.7901 65.8635 30.272H64.3635C64.3635 34.0073 65.1554 37.3357 66.7614 40.2354L68.0736 39.5086ZM65.8635 30.272C65.8635 26.7574 66.6274 23.6886 68.1333 21.043L66.8297 20.301C65.1783 23.2021 64.3635 26.5333 64.3635 30.272H65.8635ZM68.129 21.0505C69.6822 18.3937 71.7796 16.359 74.4291 14.9324L73.7179 13.6116C70.8207 15.1717 68.5235 17.4037 66.834 20.2935L68.129 21.0505ZM74.4369 14.9281C77.0905 13.4584 80.0573 12.718 83.3535 12.718V11.218C79.8231 11.218 76.6031 12.0136 73.7101 13.6159L74.4369 14.9281ZM83.3535 12.718C86.6497 12.718 89.6165 13.4584 92.2701 14.9281L92.9969 13.6159C90.1039 12.0136 86.8839 11.218 83.3535 11.218V12.718ZM92.2779 14.9324C94.9256 16.358 96.9997 18.3903 98.5097 21.043L99.8133 20.301C98.166 17.407 95.8881 15.1726 92.9891 13.6116L92.2779 14.9324ZM98.514 21.0505C100.06 23.6948 100.844 26.7609 100.844 30.272H102.344C102.344 26.5298 101.506 23.1959 99.809 20.2935L98.514 21.0505ZM100.844 30.272C100.844 33.7796 100.04 36.843 98.4544 39.4861L99.7406 40.2579C101.483 37.3543 102.344 34.0177 102.344 30.272H100.844ZM98.45 39.4935C96.8974 42.1492 94.7784 44.207 92.0824 45.6776L92.8006 46.9944C95.7366 45.393 98.0549 43.1415 99.745 40.2505L98.45 39.4935ZM92.0859 45.6756C89.4322 47.1046 86.4417 47.826 83.0975 47.826V49.326C86.6653 49.326 89.9041 48.5541 92.7971 46.9964L92.0859 45.6756ZM83.0975 41.518C84.8429 41.518 86.4812 41.1032 88.0006 40.2744L87.2824 38.9576C85.9858 39.6648 84.5948 40.018 83.0975 40.018V41.518ZM88.0074 40.2707C89.5923 39.385 90.8419 38.0821 91.7573 36.3886L90.4377 35.6754C89.6465 37.1392 88.5921 38.2256 87.2756 38.9613L88.0074 40.2707ZM91.7573 36.3886C92.6833 34.6755 93.1275 32.6261 93.1275 30.272H91.6275C91.6275 32.4406 91.2184 34.2311 90.4377 35.6754L91.7573 36.3886ZM93.1275 30.272C93.1275 26.7703 92.1941 23.972 90.2198 21.9977L89.1592 23.0583C90.7689 24.668 91.6275 27.0324 91.6275 30.272H93.1275ZM90.2323 22.0104C88.3399 20.0257 85.9883 19.026 83.2255 19.026V20.526C85.5827 20.526 87.5405 21.361 89.1467 23.0456L90.2323 22.0104ZM83.2255 19.026C80.4627 19.026 78.1111 20.0257 76.2187 22.0104L77.3043 23.0456C78.9105 21.361 80.8683 20.526 83.2255 20.526V19.026ZM76.2184 22.0108C74.3369 23.9863 73.4515 26.7797 73.4515 30.272H74.9515C74.9515 27.023 75.7727 24.6537 77.3046 23.0452L76.2184 22.0108ZM73.4515 30.272C73.4515 33.761 74.3137 36.568 76.142 38.5839L77.253 37.5761C75.7533 35.9226 74.9515 33.5243 74.9515 30.272H73.4515ZM76.1544 38.5972C78.008 40.5435 80.3402 41.518 83.0975 41.518V40.018C80.7348 40.018 78.8003 39.2005 77.2406 37.5628L76.1544 38.5972ZM132.87 13.568L132.518 14.2302L132.529 14.236L132.87 13.568ZM137.606 17.6L136.989 18.0269L138.356 20.0009V17.6H137.606ZM137.606 12.544V11.794H136.856V12.544H137.606ZM146.63 12.544H147.38V11.794H146.63V12.544ZM144.646 57.024L143.98 56.6797L143.977 56.6842L144.646 57.024ZM138.694 63.168L138.325 62.5148L138.317 62.5194L138.694 63.168ZM116.678 61.952L116.234 62.5568L116.238 62.5596L116.678 61.952ZM111.238 52.352V51.602H110.405L110.492 52.4305L111.238 52.352ZM120.134 52.352L120.854 52.1435L120.698 51.602H120.134V52.352ZM123.142 56.192L123.538 55.555L123.533 55.552L123.142 56.192ZM135.174 55.296L134.658 54.7515L134.651 54.7586L135.174 55.296ZM137.606 42.752H138.356V40.351L136.989 42.3251L137.606 42.752ZM132.806 46.912L132.449 46.2525L132.443 46.2557L132.806 46.912ZM117.702 46.272L118.098 45.6348L117.702 46.272ZM111.814 39.808L111.143 40.1435L111.149 40.1556L111.814 39.808ZM111.814 20.608L111.149 20.2603L111.145 20.2685L111.814 20.608ZM117.638 14.208L117.25 13.5658L117.246 13.5689L117.638 14.208ZM136.326 24.704L135.666 25.0607L135.67 25.0682L136.326 24.704ZM132.87 21.12L132.49 21.7664L132.497 21.7707L132.504 21.7747L132.87 21.12ZM123.59 21.056L123.216 20.406L123.59 21.056ZM120.134 24.64L119.482 24.2698L119.478 24.2758L120.134 24.64ZM120.134 35.776L119.47 36.1253L119.476 36.1358L119.482 36.1462L120.134 35.776ZM123.59 39.424L123.201 40.0655L123.21 40.0704L123.59 39.424ZM132.87 39.488L133.236 40.1427L133.243 40.1387L133.25 40.1344L132.87 39.488ZM136.326 35.904L136.982 36.2683L136.986 36.2606L136.326 35.904ZM125.894 12.718C128.437 12.718 130.637 13.23 132.518 14.2302L133.222 12.9058C131.092 11.7727 128.642 11.218 125.894 11.218V12.718ZM132.529 14.236C134.437 15.2101 135.916 16.4759 136.989 18.0269L138.223 17.1731C136.992 15.3961 135.314 13.9739 133.211 12.9L132.529 14.236ZM138.356 17.6V12.544H136.856V17.6H138.356ZM137.606 13.294H146.63V11.794H137.606V13.294ZM145.88 12.544V48.256H147.38V12.544H145.88ZM145.88 48.256C145.88 51.4385 145.24 54.2402 143.98 56.6797L145.312 57.3683C146.697 54.6878 147.38 51.6442 147.38 48.256H145.88ZM143.977 56.6842C142.724 59.1497 140.847 61.0911 138.325 62.5149L139.063 63.8211C141.831 62.2583 143.922 60.1037 145.315 57.3638L143.977 56.6842ZM138.317 62.5194C135.81 63.9754 132.746 64.722 129.094 64.722V66.222C132.951 66.222 136.288 65.4326 139.071 63.8166L138.317 62.5194ZM129.094 64.722C124.176 64.722 120.203 63.577 117.118 61.3444L116.238 62.5596C119.639 65.0203 123.942 66.222 129.094 66.222V64.722ZM117.122 61.3472C114.097 59.1293 112.389 56.1231 111.984 52.2735L110.492 52.4305C110.94 56.6876 112.859 60.0814 116.234 62.5568L117.122 61.3472ZM111.238 53.102H120.134V51.602H111.238V53.102ZM119.414 52.5605C119.939 54.3744 121.067 55.8027 122.751 56.832L123.533 55.552C122.145 54.7039 121.268 53.5723 120.854 52.1435L119.414 52.5605ZM122.746 56.829C124.465 57.8974 126.507 58.414 128.838 58.414V56.914C126.732 56.914 124.977 56.4493 123.538 55.555L122.746 56.829ZM128.838 58.414C131.604 58.414 133.915 57.569 135.697 55.8334L134.651 54.7586C133.191 56.1804 131.277 56.914 128.838 56.914V58.414ZM135.69 55.8405C137.514 54.1125 138.356 51.5324 138.356 48.256H136.856C136.856 51.2943 136.077 53.4075 134.658 54.7515L135.69 55.8405ZM138.356 48.256V42.752H136.856V48.256H138.356ZM136.989 42.3251C135.914 43.8786 134.409 45.1908 132.449 46.2525L133.163 47.5715C135.299 46.4145 136.994 44.9534 138.223 43.1789L136.989 42.3251ZM132.443 46.2557C130.563 47.2956 128.387 47.826 125.894 47.826V49.326C128.606 49.326 131.038 48.747 133.169 47.5683L132.443 46.2557ZM125.894 47.826C123.043 47.826 120.45 47.0951 118.098 45.6348L117.306 46.9092C119.903 48.5209 122.771 49.326 125.894 49.326V47.826ZM118.098 45.6348C115.745 44.1748 113.872 42.124 112.479 39.4604L111.149 40.1556C112.657 43.0386 114.709 45.2972 117.306 46.9092L118.098 45.6348ZM112.485 39.4726C111.136 36.7755 110.452 33.672 110.452 30.144H108.952C108.952 33.8694 109.676 37.2085 111.143 40.1434L112.485 39.4726ZM110.452 30.144C110.452 26.66 111.136 23.6007 112.483 20.9475L111.145 20.2685C109.676 23.162 108.952 26.46 108.952 30.144H110.452ZM112.479 20.9556C113.873 18.2903 115.725 16.2629 118.03 14.8471L117.246 13.5689C114.687 15.1398 112.657 17.3791 111.149 20.2604L112.479 20.9556ZM118.025 14.8501C120.377 13.4308 122.994 12.718 125.894 12.718V11.218C122.735 11.218 119.848 11.9985 117.25 13.5659L118.025 14.8501ZM138.356 30.272C138.356 27.9986 137.91 26.0108 136.982 24.3398L135.67 25.0682C136.449 26.4692 136.856 28.1934 136.856 30.272H138.356ZM136.986 24.3474C136.07 22.6539 134.821 21.351 133.236 20.4653L132.504 21.7747C133.821 22.5104 134.875 23.5968 135.666 25.0606L136.986 24.3474ZM133.25 20.4735C131.686 19.5532 129.997 19.09 128.198 19.09V20.59C129.727 20.59 131.153 20.9801 132.49 21.7664L133.25 20.4735ZM128.198 19.09C126.406 19.09 124.74 19.5282 123.216 20.406L123.964 21.706C125.256 20.9625 126.662 20.59 128.198 20.59V19.09ZM123.216 20.406C121.679 21.2911 120.436 22.5887 119.482 24.2698L120.786 25.0102C121.624 23.5339 122.685 22.4423 123.964 21.706L123.216 20.406ZM119.478 24.2758C118.551 25.9447 118.104 27.9103 118.104 30.144H119.604C119.604 28.111 120.01 26.4073 120.79 25.0042L119.478 24.2758ZM118.104 30.144C118.104 32.379 118.552 34.3798 119.47 36.1253L120.798 35.4267C120.01 33.9295 119.604 32.1757 119.604 30.144H118.104ZM119.482 36.1462C120.434 37.8246 121.673 39.139 123.201 40.0654L123.979 38.7826C122.691 38.0023 121.626 36.8847 120.786 35.4058L119.482 36.1462ZM123.21 40.0704C124.771 40.9889 126.438 41.454 128.198 41.454V39.954C126.716 39.954 125.31 39.5658 123.97 38.7775L123.21 40.0704ZM128.198 41.454C129.99 41.454 131.673 41.0159 133.236 40.1427L132.504 38.8333C131.165 39.5814 129.734 39.954 128.198 39.954V41.454ZM133.25 40.1344C134.821 39.2102 136.066 37.9158 136.982 36.2682L135.67 35.5398C134.879 36.9642 133.82 38.0591 132.49 38.8415L133.25 40.1344ZM136.986 36.2606C137.91 34.5514 138.356 32.5463 138.356 30.272H136.856C136.856 32.3497 136.449 34.0992 135.666 35.5474L136.986 36.2606ZM164.981 47.04L164.666 47.7207L164.676 47.7254L164.981 47.04ZM159.477 42.752L158.873 43.1974L158.88 43.2065L159.477 42.752ZM157.301 36.8V36.05H156.506L156.552 36.844L157.301 36.8ZM166.325 36.8L167.069 36.707L166.987 36.05H166.325V36.8ZM168.309 40.192L167.848 40.7841L167.859 40.792L168.309 40.192ZM176.693 40.512L176.265 39.8963L176.258 39.9008L176.252 39.9054L176.693 40.512ZM176.373 35.328L176.028 35.9938L176.042 36.0014L176.057 36.0083L176.373 35.328ZM170.805 33.408L170.998 32.6833L170.99 32.6811L170.981 32.679L170.805 33.408ZM164.277 31.424L163.992 32.1179L163.998 32.1204L164.277 31.424ZM159.925 28.288L159.353 28.7733L159.362 28.7831L159.925 28.288ZM159.797 17.216L159.186 16.7815L159.178 16.7925L159.797 17.216ZM164.661 13.376L164.359 12.6895L164.354 12.6918L164.661 13.376ZM182.261 15.168L181.776 15.7402L181.782 15.745L182.261 15.168ZM186.421 23.68V24.43H187.226L187.169 23.6266L186.421 23.68ZM177.845 23.68L177.098 23.7479L177.16 24.43H177.845V23.68ZM176.053 20.352L175.573 20.9282L175.586 20.9389L175.599 20.9491L176.053 20.352ZM168.117 19.968L167.701 19.344L167.694 19.3487L167.687 19.3536L168.117 19.968ZM168.629 25.216L168.275 25.8771L168.284 25.8821L168.294 25.8868L168.629 25.216ZM174.197 27.072L174.012 27.7989L174.015 27.7996L174.197 27.072ZM184.821 32.256L184.242 32.7328L184.25 32.7421L184.258 32.7511L184.821 32.256ZM186.741 37.888H187.491L187.491 37.8744L186.741 37.888ZM185.013 43.392L184.402 42.9575L184.394 42.9685L185.013 43.392ZM180.149 47.232L180.444 47.9214L180.451 47.9185L180.149 47.232ZM172.789 47.826C169.977 47.826 167.48 47.3301 165.286 46.3546L164.676 47.7254C167.09 48.7979 169.798 49.326 172.789 49.326V47.826ZM165.296 46.3594C163.089 45.3374 161.356 43.9805 160.074 42.2975L158.88 43.2065C160.329 45.1075 162.265 46.6092 164.666 47.7206L165.296 46.3594ZM160.08 42.3066C158.842 40.6288 158.169 38.7836 158.05 36.756L156.552 36.844C156.689 39.1684 157.467 41.2912 158.874 43.1974L160.08 42.3066ZM157.301 37.55H166.325V36.05H157.301V37.55ZM165.581 36.893C165.778 38.4686 166.55 39.7741 167.849 40.784L168.769 39.6C167.764 38.8179 167.214 37.862 167.069 36.707L165.581 36.893ZM167.859 40.792C169.205 41.8013 170.842 42.286 172.725 42.286V40.786C171.109 40.786 169.803 40.3747 168.759 39.592L167.859 40.792ZM172.725 42.286C174.519 42.286 176.02 41.929 177.134 41.1186L176.252 39.9054C175.489 40.4603 174.344 40.786 172.725 40.786V42.286ZM177.121 41.1277C178.276 40.3245 178.915 39.2328 178.915 37.888H177.415C177.415 38.6766 177.073 39.3342 176.265 39.8963L177.121 41.1277ZM178.915 37.888C178.915 37.1752 178.728 36.5199 178.331 35.9539C177.939 35.3939 177.375 34.9662 176.689 34.6477L176.057 36.0083C176.566 36.2444 176.897 36.5207 177.103 36.8141C177.304 37.1014 177.415 37.4488 177.415 37.888H178.915ZM176.718 34.6622C175.49 34.0254 173.568 33.3687 170.998 32.6833L170.612 34.1327C173.162 34.8127 174.952 35.4359 176.028 35.9938L176.718 34.6622ZM170.981 32.679C168.356 32.0439 166.217 31.3923 164.556 30.7276L163.998 32.1204C165.75 32.821 167.963 33.4921 170.629 34.137L170.981 32.679ZM164.562 30.7301C163.009 30.0932 161.653 29.1178 160.488 27.7929L159.362 28.7831C160.672 30.2742 162.217 31.3895 163.992 32.1179L164.562 30.7301ZM160.497 27.8028C159.448 26.566 158.883 24.8568 158.883 22.592H157.383C157.383 25.1058 158.013 27.194 159.353 28.7732L160.497 27.8028ZM158.883 22.592C158.883 20.7806 159.392 19.1362 160.416 17.6395L159.178 16.7925C157.983 18.5384 157.383 20.478 157.383 22.592H158.883ZM160.408 17.6504C161.472 16.1536 162.981 14.9526 164.968 14.0602L164.354 12.6918C162.16 13.6767 160.426 15.0357 159.186 16.7816L160.408 17.6504ZM164.963 14.0625C166.982 13.1741 169.371 12.718 172.149 12.718V11.218C169.209 11.218 166.606 11.7006 164.359 12.6895L164.963 14.0625ZM172.149 12.718C176.246 12.718 179.429 13.7507 181.776 15.7402L182.746 14.5958C180.059 12.3186 176.5 11.218 172.149 11.218V12.718ZM181.782 15.745C184.126 17.6915 185.43 20.3312 185.673 23.7334L187.169 23.6266C186.9 19.8608 185.431 16.8258 182.74 14.591L181.782 15.745ZM186.421 22.93H177.845V24.43H186.421V22.93ZM178.592 23.6121C178.446 22.0074 177.751 20.7007 176.507 19.7549L175.599 20.9491C176.488 21.6246 176.988 22.5366 177.098 23.7479L178.592 23.6121ZM176.533 19.7758C175.337 18.7792 173.762 18.322 171.893 18.322V19.822C173.522 19.822 174.721 20.2182 175.573 20.9282L176.533 19.7758ZM171.893 18.322C170.194 18.322 168.768 18.6327 167.701 19.344L168.533 20.592C169.258 20.1086 170.35 19.822 171.893 19.822V18.322ZM167.687 19.3536C166.627 20.0952 166.087 21.1596 166.087 22.464H167.587C167.587 21.6351 167.9 21.0354 168.547 20.5824L167.687 19.3536ZM166.087 22.464C166.087 23.1928 166.271 23.8657 166.656 24.4573C167.039 25.0439 167.592 25.5116 168.275 25.8771L168.983 24.5549C168.471 24.2804 168.129 23.9694 167.913 23.6387C167.701 23.3129 167.587 22.9298 167.587 22.464H166.087ZM168.294 25.8868C169.562 26.5212 171.482 27.1556 174.012 27.7989L174.382 26.3451C171.877 25.7084 170.085 25.1054 168.964 24.5452L168.294 25.8868ZM174.015 27.7996C176.555 28.4345 178.629 29.0856 180.248 29.7499L180.818 28.3621C179.109 27.661 176.959 26.9895 174.379 26.3444L174.015 27.7996ZM180.248 29.7499C181.793 30.3834 183.122 31.3732 184.242 32.7328L185.4 31.7792C184.13 30.2375 182.601 29.0939 180.818 28.3621L180.248 29.7499ZM184.258 32.7511C185.351 33.9948 185.951 35.6863 185.991 37.9016L187.491 37.8744C187.446 35.3963 186.766 33.3332 185.384 31.7609L184.258 32.7511ZM185.991 37.888C185.991 39.7853 185.461 41.4671 184.402 42.9576L185.624 43.8264C186.869 42.0742 187.491 40.0867 187.491 37.888H185.991ZM184.394 42.9685C183.377 44.4543 181.876 45.6526 179.847 46.5455L180.451 47.9185C182.688 46.9341 184.43 45.5724 185.632 43.8155L184.394 42.9685ZM179.854 46.5426C177.876 47.3903 175.527 47.826 172.789 47.826V49.326C175.683 49.326 178.241 48.8657 180.444 47.9214L179.854 46.5426Z" fill="url(#paint0_linear_1768_13372)"/>
<defs>
<linearGradient id="paint0_linear_1768_13372" x1="37.2124" y1="-95.1539" x2="-30.7161" y2="48.3541" gradientUnits="userSpaceOnUse">
<stop stop-color="#2DD1DB"/>
<stop offset="0.60721" stop-color="#2D9CDB"/>
<stop offset="1" stop-color="#1A8ED0"/>
</linearGradient>
</defs>
</svg>
