<svg width="389" height="47" viewBox="0 0 389 47" fill="none" xmlns="http://www.w3.org/2000/svg">
<path opacity="0.5" d="M3.654 11.824L3.0033 11.451L3.00183 11.4536L3.654 11.824ZM11.782 3.696L12.1497 4.34969L12.1524 4.34817L11.782 3.696ZM44.358 15.216V15.966H45.3955L45.0702 14.9808L44.358 15.216ZM34.054 15.216L33.3779 15.5405L33.5821 15.966H34.054V15.216ZM29.702 10.416L29.325 11.0644L29.3315 11.0681L29.702 10.416ZM16.326 10.672L16.7099 11.3163L16.7138 11.3139L16.326 10.672ZM11.59 15.792L10.9243 15.4463L10.9192 15.4566L11.59 15.792ZM11.59 31.408L10.9167 31.7383L10.9204 31.746L10.9244 31.7536L11.59 31.408ZM16.326 36.592L15.9322 37.2303L15.9401 37.2352L15.9481 37.2398L16.326 36.592ZM29.702 36.784L30.079 37.4324L30.0835 37.4297L29.702 36.784ZM34.054 31.92V31.17H33.5821L33.3779 31.5955L34.054 31.92ZM44.358 31.92L45.0708 32.1532L45.3924 31.17H44.358V31.92ZM36.486 42.608L36.907 43.2287L36.9085 43.2277L36.486 42.608ZM11.782 43.504L11.4081 44.1543L11.4178 44.1596L11.782 43.504ZM3.654 35.376L3.0018 35.7464L3.0053 35.7524L3.654 35.376ZM1.46 23.6C1.46 19.3211 2.41423 15.5258 4.30617 12.1944L3.00183 11.4536C0.96844 15.0342 -0.0399988 19.0896 -0.0399988 23.6H1.46ZM4.30469 12.197C6.24484 8.81202 8.85791 6.20131 12.1497 4.34968L11.4143 3.04232C7.87942 5.03069 5.07383 7.83864 3.00331 11.451L4.30469 12.197ZM12.1524 4.34817C15.4872 2.45432 19.2193 1.502 23.366 1.502V0.0019989C18.9794 0.0019989 14.9888 1.01234 11.4116 3.04383L12.1524 4.34817ZM23.366 1.502C28.2228 1.502 32.4456 2.74492 36.0635 5.21167L36.9085 3.97233C33.0171 1.31908 28.4932 0.0019989 23.366 0.0019989V1.502ZM36.0635 5.21167C39.6751 7.67414 42.2015 11.0769 43.6458 15.4512L45.0702 14.9808C43.5278 10.3097 40.8062 6.62986 36.9085 3.97233L36.0635 5.21167ZM44.358 14.466H34.054V15.966H44.358V14.466ZM34.7301 14.8914C33.6467 12.6342 32.0955 10.9133 30.0725 9.7639L29.3315 11.0681C31.0632 12.052 32.4133 13.5311 33.3779 15.5405L34.7301 14.8914ZM30.079 9.76762C28.114 8.62517 25.8468 8.066 23.302 8.066V9.566C25.6212 9.566 27.6207 10.0735 29.325 11.0644L30.079 9.76762ZM23.302 8.066C20.575 8.066 18.1134 8.71588 15.9382 10.0301L16.7138 11.3139C18.6346 10.1535 20.8236 9.566 23.302 9.566V8.066ZM15.9421 10.0277C13.8084 11.2989 12.1359 13.113 10.9244 15.4464L12.2556 16.1376C13.3481 14.0336 14.833 12.4345 16.7099 11.3163L15.9421 10.0277ZM10.9192 15.4566C9.7482 17.7985 9.176 20.5204 9.176 23.6H10.676C10.676 20.7063 11.2131 18.2228 12.2608 16.1274L10.9192 15.4566ZM9.176 23.6C9.176 26.6393 9.74904 29.3582 10.9167 31.7383L12.2633 31.0777C11.2123 28.9352 10.676 26.4487 10.676 23.6H9.176ZM10.9244 31.7536C12.1349 34.085 13.8043 35.9174 15.9322 37.2303L16.7198 35.9537C14.837 34.792 13.3491 33.1684 12.2556 31.0624L10.9244 31.7536ZM15.9481 37.2398C18.1218 38.5078 20.5799 39.134 23.302 39.134V37.634C20.8188 37.634 18.6262 37.0655 16.7039 35.9442L15.9481 37.2398ZM23.302 39.134C25.8468 39.134 28.114 38.5748 30.079 37.4324L29.325 36.1356C27.6207 37.1265 25.6212 37.634 23.302 37.634V39.134ZM30.0835 37.4297C32.0996 36.2384 33.6476 34.4998 34.7301 32.2445L33.3779 31.5955C32.4124 33.6069 31.059 35.111 29.3205 36.1383L30.0835 37.4297ZM34.054 32.67H44.358V31.17H34.054V32.67ZM43.6452 31.6868C42.2002 36.1044 39.6733 39.5271 36.0635 41.9883L36.9085 43.2277C40.8081 40.5689 43.5292 36.8662 45.0708 32.1532L43.6452 31.6868ZM36.0651 41.9873C32.4922 44.4103 28.2697 45.634 23.366 45.634V47.134C28.5317 47.134 33.0558 45.8404 36.907 43.2287L36.0651 41.9873ZM23.366 45.634C19.2164 45.634 15.4821 44.7016 12.1462 42.8484L11.4178 44.1596C14.9939 46.1464 18.9823 47.134 23.366 47.134V45.634ZM12.1559 42.8538C8.85832 40.9577 6.24304 38.3436 4.30271 34.9996L3.0053 35.7524C5.07563 39.3204 7.87901 42.1249 11.4081 44.1542L12.1559 42.8538ZM4.30617 35.0056C2.41423 31.6742 1.46 27.8789 1.46 23.6H-0.0399988C-0.0399988 28.1104 0.96844 32.1658 3.00183 35.7464L4.30617 35.0056ZM62.379 44.336L62.0113 44.9897L62.0191 44.994L62.379 44.336ZM55.915 37.872L55.2589 38.2354L55.2632 38.243L55.915 37.872ZM55.979 18.672L55.3315 18.2935L55.3272 18.301L55.979 18.672ZM62.571 12.272L62.9266 12.9324L62.9344 12.9281L62.571 12.272ZM81.131 12.272L80.7676 12.9281L80.7754 12.9324L81.131 12.272ZM87.659 18.672L87.0072 19.043L87.0115 19.0505L87.659 18.672ZM87.595 37.872L86.9518 37.4861L86.9475 37.4935L87.595 37.872ZM80.939 44.336L81.2946 44.9964L81.2981 44.9944L80.939 44.336ZM76.139 37.616L76.4982 38.2745L76.5049 38.2707L76.139 37.616ZM79.595 34.032L80.2548 34.3886L79.595 34.032ZM78.187 20.528L77.6442 21.0456L77.6504 21.052L77.6567 21.0583L78.187 20.528ZM65.259 20.528L64.7162 20.0104L64.7159 20.0108L65.259 20.528ZM65.195 36.08L64.6395 36.5839L64.6456 36.5906L64.6519 36.5972L65.195 36.08ZM71.595 45.826C68.295 45.826 65.3488 45.1053 62.7389 43.678L62.0191 44.994C64.8706 46.5534 68.0684 47.326 71.595 47.326V45.826ZM62.7467 43.6823C60.1369 42.2143 58.0795 40.1584 56.5668 37.501L55.2632 38.243C56.9079 41.1323 59.1598 43.3857 62.0113 44.9897L62.7467 43.6823ZM56.5711 37.5086C55.1051 34.8616 54.361 31.7901 54.361 28.272H52.861C52.861 32.0073 53.6529 35.3357 55.2589 38.2354L56.5711 37.5086ZM54.361 28.272C54.361 24.7574 55.1249 21.6886 56.6308 19.043L55.3272 18.301C53.6758 21.2021 52.861 24.5333 52.861 28.272H54.361ZM56.6265 19.0505C58.1797 16.3937 60.2771 14.359 62.9266 12.9324L62.2154 11.6116C59.3182 13.1717 57.021 15.4037 55.3315 18.2935L56.6265 19.0505ZM62.9344 12.9281C65.588 11.4584 68.5548 10.718 71.851 10.718V9.218C68.3206 9.218 65.1006 10.0136 62.2076 11.6159L62.9344 12.9281ZM71.851 10.718C75.1472 10.718 78.114 11.4584 80.7676 12.9281L81.4944 11.6159C78.6014 10.0136 75.3814 9.218 71.851 9.218V10.718ZM80.7754 12.9324C83.4231 14.358 85.4972 16.3903 87.0072 19.043L88.3108 18.301C86.6635 15.407 84.3856 13.1726 81.4866 11.6116L80.7754 12.9324ZM87.0115 19.0505C88.5574 21.6948 89.341 24.7609 89.341 28.272H90.841C90.841 24.5298 90.0033 21.1959 88.3065 18.2935L87.0115 19.0505ZM89.341 28.272C89.341 31.7796 88.5377 34.843 86.9519 37.4861L88.2381 38.2579C89.9803 35.3543 90.841 32.0177 90.841 28.272H89.341ZM86.9475 37.4935C85.395 40.1492 83.2759 42.207 80.5799 43.6776L81.2981 44.9944C84.2341 43.393 86.5524 41.1415 88.2425 38.2505L86.9475 37.4935ZM80.5834 43.6756C77.9297 45.1046 74.9392 45.826 71.595 45.826V47.326C75.1628 47.326 78.4016 46.5541 81.2946 44.9964L80.5834 43.6756ZM71.595 39.518C73.3404 39.518 74.9787 39.1032 76.4981 38.2744L75.7799 36.9576C74.4833 37.6648 73.0923 38.018 71.595 38.018V39.518ZM76.5049 38.2707C78.0898 37.385 79.3394 36.0821 80.2548 34.3886L78.9352 33.6754C78.144 35.1392 77.0896 36.2256 75.7731 36.9613L76.5049 38.2707ZM80.2548 34.3886C81.1808 32.6755 81.625 30.6261 81.625 28.272H80.125C80.125 30.4406 79.7159 32.2311 78.9352 33.6754L80.2548 34.3886ZM81.625 28.272C81.625 24.7703 80.6916 21.972 78.7173 19.9977L77.6567 21.0583C79.2664 22.668 80.125 25.0324 80.125 28.272H81.625ZM78.7298 20.0104C76.8374 18.0257 74.4858 17.026 71.723 17.026V18.526C74.0802 18.526 76.038 19.361 77.6442 21.0456L78.7298 20.0104ZM71.723 17.026C68.9602 17.026 66.6086 18.0257 64.7162 20.0104L65.8018 21.0456C67.408 19.361 69.3658 18.526 71.723 18.526V17.026ZM64.7159 20.0108C62.8344 21.9863 61.949 24.7797 61.949 28.272H63.449C63.449 25.023 64.2702 22.6537 65.8021 21.0452L64.7159 20.0108ZM61.949 28.272C61.949 31.761 62.8111 34.568 64.6395 36.5839L65.7505 35.5761C64.2509 33.9226 63.449 31.5243 63.449 28.272H61.949ZM64.6519 36.5972C66.5055 38.5435 68.8377 39.518 71.595 39.518V38.018C69.2323 38.018 67.2978 37.2005 65.7381 35.5628L64.6519 36.5972ZM130.392 14.064L129.853 14.5857L129.857 14.59L130.392 14.064ZM134.296 46V46.75H135.046V46H134.296ZM125.336 46H124.586V46.75H125.336V46ZM123.224 19.952L122.671 20.4588L122.678 20.4665L123.224 19.952ZM111.576 19.952L111.03 19.437L111.03 19.4375L111.576 19.952ZM109.464 46V46.75H110.214V46H109.464ZM100.504 46H99.7535V46.75H100.504V46ZM100.504 10.544V9.794H99.7535V10.544H100.504ZM109.464 10.544H110.214V9.794H109.464V10.544ZM109.464 14.96H108.714V17.1459L110.056 15.4205L109.464 14.96ZM114.007 11.376L114.324 12.0561L114.331 12.0529L114.007 11.376ZM120.152 10.782C124.201 10.782 127.41 12.063 129.853 14.5857L130.93 13.5423C128.168 10.689 124.55 9.282 120.152 9.282V10.782ZM129.857 14.59C132.285 17.0579 133.546 20.5591 133.546 25.2H135.046C135.046 20.2836 133.703 16.3607 130.926 13.538L129.857 14.59ZM133.546 25.2V46H135.046V25.2H133.546ZM134.296 45.25H125.336V46.75H134.296V45.25ZM126.086 46V26.416H124.586V46H126.086ZM126.086 26.416C126.086 23.4808 125.351 21.1148 123.769 19.4375L122.678 20.4665C123.912 21.7758 124.586 23.7192 124.586 26.416H126.086ZM123.776 19.4452C122.202 17.728 120.067 16.898 117.464 16.898V18.398C119.724 18.398 121.429 19.104 122.671 20.4588L123.776 19.4452ZM117.464 16.898C114.821 16.898 112.647 17.7252 111.03 19.437L112.121 20.467C113.405 19.1068 115.157 18.398 117.464 18.398V16.898ZM111.03 19.4375C109.448 21.1148 108.714 23.4808 108.714 26.416H110.214C110.214 23.7192 110.887 21.7758 112.121 20.4665L111.03 19.4375ZM108.714 26.416V46H110.214V26.416H108.714ZM109.464 45.25H100.504V46.75H109.464V45.25ZM101.254 46V10.544H99.7535V46H101.254ZM100.504 11.294H109.464V9.794H100.504V11.294ZM108.714 10.544V14.96H110.214V10.544H108.714ZM110.056 15.4205C111.174 13.9823 112.593 12.8612 114.324 12.056L113.691 10.696C111.753 11.5975 110.142 12.8657 108.871 14.4995L110.056 15.4205ZM114.331 12.0529C116.1 11.2082 118.037 10.782 120.152 10.782V9.282C117.829 9.282 115.669 9.75182 113.684 10.6991L114.331 12.0529ZM157.088 17.904V17.154H156.338V17.904H157.088ZM157.92 37.68L157.39 38.2103L157.41 38.2307L157.432 38.2494L157.92 37.68ZM165.024 38.448H165.774V37.698H165.024V38.448ZM165.024 46V46.75H165.774V46H165.024ZM148.064 17.904H148.814V17.154H148.064V17.904ZM143.84 17.904H143.09V18.654H143.84V17.904ZM143.84 10.544V9.794H143.09V10.544H143.84ZM148.064 10.544V11.294H148.814V10.544H148.064ZM148.064 1.776V1.026H147.314V1.776H148.064ZM157.088 1.776H157.838V1.026H157.088V1.776ZM157.088 10.544H156.338V11.294H157.088V10.544ZM165.024 10.544H165.774V9.794H165.024V10.544ZM165.024 17.904V18.654H165.774V17.904H165.024ZM156.338 17.904V35.056H157.838V17.904H156.338ZM156.338 35.056C156.338 36.3474 156.636 37.4563 157.39 38.2103L158.45 37.1497C158.095 36.7944 157.838 36.1539 157.838 35.056H156.338ZM157.432 38.2494C158.235 38.9374 159.439 39.198 160.864 39.198V37.698C159.558 37.698 158.8 37.4466 158.408 37.1106L157.432 38.2494ZM160.864 39.198H165.024V37.698H160.864V39.198ZM164.274 38.448V46H165.774V38.448H164.274ZM165.024 45.25H159.392V46.75H165.024V45.25ZM159.392 45.25C155.726 45.25 153.116 44.3593 151.419 42.7101C149.726 41.0648 148.814 38.5402 148.814 34.992H147.314C147.314 38.7825 148.29 41.7618 150.373 43.7859C152.452 45.806 155.506 46.75 159.392 46.75V45.25ZM148.814 34.992V17.904H147.314V34.992H148.814ZM148.064 17.154H143.84V18.654H148.064V17.154ZM144.59 17.904V10.544H143.09V17.904H144.59ZM143.84 11.294H148.064V9.794H143.84V11.294ZM148.814 10.544V1.776H147.314V10.544H148.814ZM148.064 2.526H157.088V1.026H148.064V2.526ZM156.338 1.776V10.544H157.838V1.776H156.338ZM157.088 11.294H165.024V9.794H157.088V11.294ZM164.274 10.544V17.904H165.774V10.544H164.274ZM165.024 17.154H157.088V18.654H165.024V17.154ZM175.117 18.608L174.452 18.2603L174.448 18.2685L175.117 18.608ZM180.941 12.208L180.553 11.5658L180.548 11.5689L180.941 12.208ZM196.109 11.568L195.75 12.227L195.756 12.2302L196.109 11.568ZM200.909 15.6L200.305 16.0449L201.659 17.8822V15.6H200.909ZM200.909 10.544V9.794H200.159V10.544H200.909ZM209.932 10.544H210.682V9.794H209.932V10.544ZM209.932 46V46.75H210.682V46H209.932ZM200.909 46H200.159V46.75H200.909V46ZM200.909 40.816H201.659V38.4151L200.292 40.3891L200.909 40.816ZM196.109 44.976L196.461 45.6382L196.466 45.6355L196.109 44.976ZM180.941 44.272L180.54 44.9061L180.545 44.9092L180.941 44.272ZM175.117 37.808L174.446 38.1435L174.452 38.1556L175.117 37.808ZM199.629 22.704L198.969 23.0607L198.973 23.0682L199.629 22.704ZM196.173 19.12L195.792 19.7664L195.799 19.7707L195.807 19.7747L196.173 19.12ZM186.893 19.056L186.518 18.406L186.893 19.056ZM183.437 22.64L182.784 22.2698L182.781 22.2758L183.437 22.64ZM183.437 33.776L182.773 34.1253L182.778 34.1358L182.784 34.1462L183.437 33.776ZM186.893 37.424L186.504 38.0655L186.512 38.0704L186.893 37.424ZM196.173 37.488L196.538 38.1427L196.546 38.1387L196.553 38.1344L196.173 37.488ZM199.629 33.904L200.284 34.2683L200.288 34.2606L199.629 33.904ZM173.755 28.144C173.755 24.66 174.438 21.6007 175.785 18.9475L174.448 18.2685C172.979 21.162 172.255 24.46 172.255 28.144H173.755ZM175.781 18.9556C177.175 16.2903 179.027 14.2629 181.333 12.8471L180.548 11.5689C177.99 13.1398 175.959 15.3791 174.452 18.2604L175.781 18.9556ZM181.328 12.8501C183.68 11.4308 186.297 10.718 189.197 10.718V9.218C186.037 9.218 183.15 9.9985 180.553 11.5659L181.328 12.8501ZM189.197 10.718C191.74 10.718 193.916 11.2302 195.75 12.227L196.467 10.909C194.375 9.77251 191.944 9.218 189.197 9.218V10.718ZM195.756 12.2302C197.675 13.2509 199.185 14.5248 200.305 16.0449L201.512 15.1551C200.243 13.4325 198.552 12.0184 196.461 10.9058L195.756 12.2302ZM201.659 15.6V10.544H200.159V15.6H201.659ZM200.909 11.294H209.932V9.794H200.909V11.294ZM209.182 10.544V46H210.682V10.544H209.182ZM209.932 45.25H200.909V46.75H209.932V45.25ZM201.659 46V40.816H200.159V46H201.659ZM200.292 40.3891C199.216 41.9426 197.711 43.2548 195.751 44.3165L196.466 45.6355C198.602 44.4785 200.297 43.0174 201.525 41.2429L200.292 40.3891ZM195.756 44.3138C193.876 45.314 191.675 45.826 189.133 45.826V47.326C191.88 47.326 194.33 46.7713 196.461 45.6382L195.756 44.3138ZM189.133 45.826C186.282 45.826 183.689 45.0951 181.336 43.6348L180.545 44.9092C183.142 46.5209 186.01 47.326 189.133 47.326V45.826ZM181.341 43.6379C179.03 42.1786 177.176 40.1272 175.781 37.4604L174.452 38.1556C175.958 41.0354 177.987 43.2934 180.54 44.9061L181.341 43.6379ZM175.787 37.4726C174.439 34.7755 173.755 31.672 173.755 28.144H172.255C172.255 31.8694 172.978 35.2085 174.446 38.1434L175.787 37.4726ZM201.659 28.272C201.659 25.9986 201.212 24.0108 200.284 22.3398L198.973 23.0682C199.751 24.4692 200.159 26.1934 200.159 28.272H201.659ZM200.288 22.3474C199.373 20.6539 198.123 19.351 196.538 18.4653L195.807 19.7747C197.123 20.5104 198.177 21.5968 198.969 23.0606L200.288 22.3474ZM196.553 18.4735C194.988 17.5532 193.3 17.09 191.501 17.09V18.59C193.029 18.59 194.455 18.9801 195.792 19.7664L196.553 18.4735ZM191.501 17.09C189.708 17.09 188.043 17.5282 186.518 18.406L187.267 19.706C188.558 18.9625 189.965 18.59 191.501 18.59V17.09ZM186.518 18.406C184.981 19.2911 183.738 20.5887 182.784 22.2698L184.089 23.0102C184.927 21.5339 185.988 20.4423 187.267 19.706L186.518 18.406ZM182.781 22.2758C181.854 23.9447 181.407 25.9103 181.407 28.144H182.907C182.907 26.111 183.313 24.4073 184.092 23.0042L182.781 22.2758ZM181.407 28.144C181.407 30.379 181.854 32.3798 182.773 34.1253L184.1 33.4267C183.312 31.9295 182.907 30.1757 182.907 28.144H181.407ZM182.784 34.1462C183.737 35.8246 184.975 37.139 186.504 38.0654L187.281 36.7826C185.994 36.0023 184.928 34.8847 184.089 33.4058L182.784 34.1462ZM186.512 38.0704C188.074 38.9889 189.74 39.454 191.501 39.454V37.954C190.018 37.954 188.613 37.5658 187.273 36.7775L186.512 38.0704ZM191.501 39.454C193.292 39.454 194.976 39.0159 196.538 38.1427L195.807 36.8333C194.468 37.5814 193.037 37.954 191.501 37.954V39.454ZM196.553 38.1344C198.124 37.2102 199.369 35.9158 200.284 34.2682L198.973 33.5398C198.182 34.9642 197.122 36.0591 195.792 36.8415L196.553 38.1344ZM200.288 34.2606C201.212 32.5514 201.659 30.5463 201.659 28.272H200.159C200.159 30.3497 199.751 32.0992 198.969 33.5474L200.288 34.2606ZM222.46 18.672L223.118 19.0319L223.12 19.0276L222.46 18.672ZM228.667 12.272L229.036 12.9252L229.044 12.9206L228.667 12.272ZM248.635 13.296L248.176 13.8886L248.186 13.896L248.635 13.296ZM254.46 22.512V23.262H255.418L255.188 22.3319L254.46 22.512ZM244.796 22.512L244.084 22.7492L244.255 23.262H244.796V22.512ZM242.171 18.928L241.721 19.528L241.733 19.5369L241.746 19.5454L242.171 18.928ZM231.611 20.4L232.193 20.8735L232.198 20.8669L231.611 20.4ZM231.611 36.144L231.025 36.6109L231.03 36.6175L231.611 36.144ZM244.796 34.032V33.282H244.259L244.086 33.7892L244.796 34.032ZM254.46 34.032L255.186 34.2177L255.425 33.282H254.46V34.032ZM248.635 43.184L249.097 43.7755L248.635 43.184ZM228.667 44.336L228.291 44.9846L228.299 44.9891L228.667 44.336ZM222.46 37.936L221.799 38.2916L221.801 38.2959L222.46 37.936ZM220.969 28.272C220.969 24.7059 221.695 21.634 223.118 19.0319L221.801 18.3121C220.238 21.1714 219.469 24.4995 219.469 28.272H220.969ZM223.12 19.0276C224.549 16.3741 226.519 14.3461 229.036 12.9251L228.299 11.6189C225.525 13.1845 223.357 15.4232 221.799 18.3164L223.12 19.0276ZM229.044 12.9206C231.562 11.4585 234.459 10.718 237.755 10.718V9.218C234.226 9.218 231.063 10.0135 228.291 11.6234L229.044 12.9206ZM237.755 10.718C242.02 10.718 245.475 11.7924 248.176 13.8885L249.095 12.7035C246.079 10.3623 242.28 9.218 237.755 9.218V10.718ZM248.186 13.896C250.931 15.9551 252.786 18.8693 253.731 22.6921L255.188 22.3319C254.17 18.2187 252.143 14.9889 249.085 12.696L248.186 13.896ZM254.46 21.762H244.796V23.262H254.46V21.762ZM245.507 22.2748C244.948 20.5971 243.979 19.2636 242.597 18.3106L241.746 19.5454C242.838 20.2991 243.619 21.3549 244.084 22.7492L245.507 22.2748ZM242.622 18.328C241.273 17.3163 239.612 16.834 237.691 16.834V18.334C239.355 18.334 240.681 18.7477 241.721 19.528L242.622 18.328ZM237.691 16.834C234.921 16.834 232.671 17.8635 231.025 19.9331L232.198 20.8669C233.539 19.1818 235.342 18.334 237.691 18.334V16.834ZM231.03 19.9265C229.388 21.9431 228.622 24.7606 228.622 28.272H230.122C230.122 24.9567 230.848 22.5262 232.193 20.8735L231.03 19.9265ZM228.622 28.272C228.622 31.7448 229.39 34.5563 231.025 36.6109L232.198 35.6771C230.846 33.9771 230.122 31.5405 230.122 28.272H228.622ZM231.03 36.6175C232.678 38.6429 234.927 39.646 237.691 39.646V38.146C235.336 38.146 233.531 37.3144 232.193 35.6705L231.03 36.6175ZM237.691 39.646C239.616 39.646 241.273 39.215 242.611 38.2988C243.953 37.3802 244.909 36.0184 245.505 34.2748L244.086 33.7892C243.573 35.2882 242.79 36.3585 241.764 37.0612C240.734 37.7663 239.394 38.146 237.691 38.146V39.646ZM244.796 34.782H254.46V33.282H244.796V34.782ZM253.733 33.8463C252.789 37.5386 250.934 40.4414 248.174 42.5925L249.097 43.7755C252.139 41.404 254.167 38.2054 255.186 34.2177L253.733 33.8463ZM248.174 42.5925C245.428 44.7332 241.972 45.826 237.755 45.826V47.326C242.243 47.326 246.04 46.1575 249.097 43.7755L248.174 42.5925ZM237.755 45.826C234.455 45.826 231.556 45.1052 229.036 43.6829L228.299 44.9891C231.07 46.5535 234.229 47.326 237.755 47.326V45.826ZM229.044 43.6874C226.519 42.2214 224.546 40.1889 223.118 37.5761L221.801 38.2959C223.359 41.1444 225.525 43.3786 228.291 44.9846L229.044 43.6874ZM223.12 37.5804C221.694 34.9331 220.969 31.8378 220.969 28.272H219.469C219.469 32.0449 220.238 35.3922 221.799 38.2916L223.12 37.5804ZM275.296 17.904V17.154H274.546V17.904H275.296ZM276.128 37.68L275.597 38.2103L275.618 38.2307L275.639 38.2494L276.128 37.68ZM283.232 38.448H283.982V37.698H283.232V38.448ZM283.232 46V46.75H283.982V46H283.232ZM266.272 17.904H267.022V17.154H266.272V17.904ZM262.048 17.904H261.298V18.654H262.048V17.904ZM262.048 10.544V9.794H261.298V10.544H262.048ZM266.272 10.544V11.294H267.022V10.544H266.272ZM266.272 1.776V1.026H265.522V1.776H266.272ZM275.296 1.776H276.046V1.026H275.296V1.776ZM275.296 10.544H274.546V11.294H275.296V10.544ZM283.232 10.544H283.982V9.794H283.232V10.544ZM283.232 17.904V18.654H283.982V17.904H283.232ZM274.546 17.904V35.056H276.046V17.904H274.546ZM274.546 35.056C274.546 36.3474 274.843 37.4563 275.597 38.2103L276.658 37.1497C276.303 36.7944 276.046 36.1539 276.046 35.056H274.546ZM275.639 38.2494C276.442 38.9374 277.647 39.198 279.072 39.198V37.698C277.766 37.698 277.008 37.4466 276.616 37.1106L275.639 38.2494ZM279.072 39.198H283.232V37.698H279.072V39.198ZM282.482 38.448V46H283.982V38.448H282.482ZM283.232 45.25H277.6V46.75H283.232V45.25ZM277.6 45.25C273.934 45.25 271.323 44.3593 269.626 42.7101C267.933 41.0648 267.022 38.5402 267.022 34.992H265.522C265.522 38.7825 266.498 41.7618 268.581 43.7859C270.66 45.806 273.713 46.75 277.6 46.75V45.25ZM267.022 34.992V17.904H265.522V34.992H267.022ZM266.272 17.154H262.048V18.654H266.272V17.154ZM262.798 17.904V10.544H261.298V17.904H262.798ZM262.048 11.294H266.272V9.794H262.048V11.294ZM267.022 10.544V1.776H265.522V10.544H267.022ZM266.272 2.526H275.296V1.026H266.272V2.526ZM274.546 1.776V10.544H276.046V1.776H274.546ZM275.296 11.294H283.232V9.794H275.296V11.294ZM282.482 10.544V17.904H283.982V10.544H282.482ZM283.232 17.154H275.296V18.654H283.232V17.154ZM321.438 1.328H322.188V0.577999H321.438V1.328ZM323.806 35.952L323.269 36.4753L323.276 36.4823L323.806 35.952ZM337.182 35.952L337.712 36.4824L337.719 36.4752L337.182 35.952ZM339.55 1.328V0.577999H338.8V1.328H339.55ZM348.574 1.328H349.324V0.577999H348.574V1.328ZM346.078 38.576L345.443 38.1767L345.441 38.1794L346.078 38.576ZM339.486 44.464L339.163 43.787L339.159 43.789L339.486 44.464ZM321.246 44.464L320.915 45.137L320.919 45.139L321.246 44.464ZM314.846 38.576L314.202 38.9604L314.205 38.965L314.846 38.576ZM312.478 1.328V0.577999H311.728V1.328H312.478ZM320.688 1.328V28.976H322.188V1.328H320.688ZM320.688 28.976C320.688 32.1328 321.513 34.6717 323.269 36.4752L324.343 35.4288C322.942 33.9896 322.188 31.8779 322.188 28.976H320.688ZM323.276 36.4823C325.032 38.2382 327.463 39.07 330.462 39.07V37.57C327.744 37.57 325.738 36.8231 324.336 35.4217L323.276 36.4823ZM330.462 39.07C333.5 39.07 335.954 38.2402 337.712 36.4823L336.652 35.4217C335.252 36.8211 333.227 37.57 330.462 37.57V39.07ZM337.719 36.4752C339.475 34.6717 340.3 32.1328 340.3 28.976H338.8C338.8 31.8779 338.046 33.9896 336.645 35.4288L337.719 36.4752ZM340.3 28.976V1.328H338.8V28.976H340.3ZM339.55 2.078H348.574V0.577999H339.55V2.078ZM347.824 1.328V28.912H349.324V1.328H347.824ZM347.824 28.912C347.824 32.5986 347.017 35.6744 345.443 38.1767L346.713 38.9753C348.467 36.1869 349.324 32.8201 349.324 28.912H347.824ZM345.441 38.1794C343.896 40.6604 341.808 42.5259 339.163 43.787L339.809 45.141C342.711 43.7568 345.017 41.697 346.715 38.9726L345.441 38.1794ZM339.159 43.789C336.541 45.0571 333.604 45.698 330.334 45.698V47.198C333.805 47.198 336.97 46.5163 339.813 45.139L339.159 43.789ZM330.334 45.698C327.108 45.698 324.192 45.0577 321.573 43.789L320.919 45.139C323.761 46.5157 326.904 47.198 330.334 47.198V45.698ZM321.577 43.7911C319.02 42.5326 316.993 40.6695 315.487 38.187L314.205 38.965C315.856 41.6878 318.096 43.7501 320.915 45.1369L321.577 43.7911ZM315.49 38.1917C313.995 35.6868 313.228 32.6053 313.228 28.912H311.728C311.728 32.8133 312.539 36.1746 314.202 38.9603L315.49 38.1917ZM313.228 28.912V1.328H311.728V28.912H313.228ZM312.478 2.078H321.438V0.577999H312.478V2.078ZM366.831 45.04L366.516 45.7207L366.526 45.7254L366.831 45.04ZM361.327 40.752L360.724 41.1974L360.73 41.2065L361.327 40.752ZM359.151 34.8V34.05H358.356L358.402 34.844L359.151 34.8ZM368.175 34.8L368.919 34.707L368.837 34.05H368.175V34.8ZM370.159 38.192L369.698 38.7841L369.709 38.792L370.159 38.192ZM378.543 38.512L378.115 37.8963L378.108 37.9008L378.102 37.9054L378.543 38.512ZM378.223 33.328L377.878 33.9938L377.892 34.0014L377.907 34.0083L378.223 33.328ZM372.655 31.408L372.848 30.6833L372.84 30.6811L372.831 30.679L372.655 31.408ZM366.127 29.424L365.842 30.1179L365.848 30.1204L366.127 29.424ZM361.775 26.288L361.203 26.7733L361.212 26.7831L361.775 26.288ZM361.647 15.216L361.036 14.7815L361.028 14.7925L361.647 15.216ZM366.511 11.376L366.209 10.6895L366.204 10.6918L366.511 11.376ZM384.111 13.168L383.626 13.7402L383.632 13.745L384.111 13.168ZM388.271 21.68V22.43H389.076L389.019 21.6266L388.271 21.68ZM379.695 21.68L378.948 21.7479L379.01 22.43H379.695V21.68ZM377.903 18.352L377.423 18.9282L377.436 18.9389L377.449 18.9491L377.903 18.352ZM369.967 17.968L369.551 17.344L369.544 17.3487L369.537 17.3536L369.967 17.968ZM370.479 23.216L370.125 23.8771L370.134 23.8821L370.144 23.8868L370.479 23.216ZM376.047 25.072L375.862 25.7989L375.865 25.7996L376.047 25.072ZM386.671 30.256L386.092 30.7328L386.1 30.7421L386.108 30.7511L386.671 30.256ZM388.591 35.888H389.341L389.341 35.8744L388.591 35.888ZM386.863 41.392L386.252 40.9575L386.244 40.9685L386.863 41.392ZM381.999 45.232L382.294 45.9214L382.301 45.9185L381.999 45.232ZM374.639 45.826C371.827 45.826 369.33 45.3301 367.136 44.3546L366.526 45.7254C368.94 46.7979 371.648 47.326 374.639 47.326V45.826ZM367.146 44.3594C364.939 43.3374 363.206 41.9805 361.924 40.2975L360.73 41.2065C362.179 43.1075 364.115 44.6092 366.516 45.7206L367.146 44.3594ZM361.93 40.3066C360.692 38.6288 360.019 36.7836 359.9 34.756L358.402 34.844C358.539 37.1684 359.317 39.2912 360.724 41.1974L361.93 40.3066ZM359.151 35.55H368.175V34.05H359.151V35.55ZM367.431 34.893C367.628 36.4686 368.4 37.7741 369.699 38.784L370.619 37.6C369.614 36.8179 369.064 35.862 368.919 34.707L367.431 34.893ZM369.709 38.792C371.055 39.8013 372.692 40.286 374.575 40.286V38.786C372.959 38.786 371.653 38.3747 370.609 37.592L369.709 38.792ZM374.575 40.286C376.369 40.286 377.87 39.929 378.984 39.1186L378.102 37.9054C377.339 38.4603 376.194 38.786 374.575 38.786V40.286ZM378.971 39.1277C380.126 38.3245 380.765 37.2328 380.765 35.888H379.265C379.265 36.6766 378.923 37.3342 378.115 37.8963L378.971 39.1277ZM380.765 35.888C380.765 35.1752 380.578 34.5199 380.181 33.9539C379.789 33.3939 379.225 32.9662 378.539 32.6477L377.907 34.0083C378.416 34.2444 378.747 34.5207 378.953 34.8141C379.154 35.1014 379.265 35.4488 379.265 35.888H380.765ZM378.568 32.6622C377.34 32.0254 375.418 31.3687 372.848 30.6833L372.462 32.1327C375.012 32.8127 376.802 33.4359 377.878 33.9938L378.568 32.6622ZM372.831 30.679C370.206 30.0439 368.067 29.3923 366.406 28.7276L365.848 30.1204C367.6 30.821 369.813 31.4921 372.479 32.137L372.831 30.679ZM366.412 28.7301C364.859 28.0932 363.503 27.1178 362.338 25.7929L361.212 26.7831C362.522 28.2742 364.067 29.3895 365.842 30.1179L366.412 28.7301ZM362.347 25.8028C361.298 24.566 360.733 22.8568 360.733 20.592H359.233C359.233 23.1058 359.863 25.194 361.203 26.7732L362.347 25.8028ZM360.733 20.592C360.733 18.7806 361.242 17.1362 362.266 15.6395L361.028 14.7925C359.833 16.5384 359.233 18.478 359.233 20.592H360.733ZM362.258 15.6504C363.322 14.1536 364.831 12.9526 366.818 12.0602L366.204 10.6918C364.01 11.6767 362.276 13.0357 361.036 14.7816L362.258 15.6504ZM366.813 12.0625C368.832 11.1741 371.221 10.718 373.999 10.718V9.218C371.059 9.218 368.456 9.70061 366.209 10.6895L366.813 12.0625ZM373.999 10.718C378.096 10.718 381.279 11.7507 383.626 13.7402L384.596 12.5958C381.909 10.3186 378.35 9.218 373.999 9.218V10.718ZM383.632 13.745C385.976 15.6915 387.28 18.3312 387.523 21.7334L389.019 21.6266C388.75 17.8608 387.281 14.8258 384.59 12.591L383.632 13.745ZM388.271 20.93H379.695V22.43H388.271V20.93ZM380.442 21.6121C380.296 20.0074 379.601 18.7007 378.357 17.7549L377.449 18.9491C378.338 19.6246 378.838 20.5366 378.948 21.7479L380.442 21.6121ZM378.383 17.7758C377.187 16.7792 375.612 16.322 373.743 16.322V17.822C375.372 17.822 376.571 18.2182 377.423 18.9282L378.383 17.7758ZM373.743 16.322C372.044 16.322 370.618 16.6327 369.551 17.344L370.383 18.592C371.108 18.1086 372.2 17.822 373.743 17.822V16.322ZM369.537 17.3536C368.477 18.0952 367.937 19.1596 367.937 20.464H369.437C369.437 19.6351 369.75 19.0354 370.397 18.5824L369.537 17.3536ZM367.937 20.464C367.937 21.1928 368.121 21.8657 368.507 22.4573C368.889 23.0439 369.442 23.5116 370.125 23.8771L370.833 22.5549C370.321 22.2804 369.979 21.9694 369.763 21.6387C369.551 21.3129 369.437 20.9298 369.437 20.464H367.937ZM370.144 23.8868C371.412 24.5212 373.332 25.1556 375.862 25.7989L376.232 24.3451C373.727 23.7084 371.935 23.1054 370.814 22.5452L370.144 23.8868ZM375.865 25.7996C378.405 26.4345 380.479 27.0856 382.098 27.7499L382.668 26.3621C380.959 25.661 378.809 24.9895 376.229 24.3444L375.865 25.7996ZM382.098 27.7499C383.643 28.3834 384.972 29.3732 386.092 30.7328L387.25 29.7792C385.98 28.2375 384.451 27.0939 382.668 26.3621L382.098 27.7499ZM386.108 30.7511C387.201 31.9948 387.801 33.6863 387.841 35.9016L389.341 35.8744C389.296 33.3963 388.616 31.3332 387.234 29.7609L386.108 30.7511ZM387.841 35.888C387.841 37.7853 387.311 39.4671 386.252 40.9576L387.474 41.8264C388.719 40.0742 389.341 38.0867 389.341 35.888H387.841ZM386.244 40.9685C385.227 42.4543 383.726 43.6526 381.697 44.5455L382.301 45.9185C384.538 44.9341 386.28 43.5724 387.482 41.8155L386.244 40.9685ZM381.704 44.5426C379.726 45.3903 377.377 45.826 374.639 45.826V47.326C377.533 47.326 380.091 46.8657 382.294 45.9214L381.704 44.5426Z" fill="url(#paint0_linear_3378_30389)"/>
<defs>
<linearGradient id="paint0_linear_3378_30389" x1="81.6995" y1="-97.1539" x2="42.8678" y2="69.4572" gradientUnits="userSpaceOnUse">
<stop stop-color="#2DD1DB"/>
<stop offset="0.60721" stop-color="#2D9CDB"/>
<stop offset="1" stop-color="#1A8ED0"/>
</linearGradient>
</defs>
</svg>
