<svg width="50" height="50" viewBox="0 0 50 50" fill="none" xmlns="http://www.w3.org/2000/svg">
<g clip-path="url(#clip0_3378_30397)">
<path d="M32.5 19.5312H31.875C30.7812 19.5312 30 18.5938 30 17.6563V15.625C27.5 17.3438 24.5312 17.9688 21.5625 17.3438L20.3125 17.1875C20.3125 17.1875 20.1562 17.3437 20.1562 17.5C20.1562 18.5937 19.2187 19.375 18.2812 19.375H17.6562C17.3437 19.375 17.0312 19.0625 16.875 18.75L15.625 13.75C15.4687 12.6563 15.625 11.5625 16.25 10.625C16.875 9.6875 17.8125 9.0625 18.9062 8.90625L26.7187 7.65625C28.125 7.5 29.375 7.8125 30.3125 8.59375C31.0937 9.21875 31.5625 10.1562 31.7187 11.0937C32.5 11.25 33.125 11.7188 33.75 12.3438C34.375 13.125 34.6875 14.2188 34.375 15.3125L33.2812 19.0625C33.125 19.2187 32.8125 19.5312 32.5 19.5312V19.5312ZM27.6562 9.21875H27.1875L19.375 10.4687C18.75 10.625 18.125 10.9375 17.6562 11.5625C17.1875 12.1875 17.1875 12.8125 17.1875 13.5937L18.125 17.9688C18.2812 17.9688 18.4375 17.8125 18.4375 17.6563C18.4375 16.5625 19.375 15.7813 20.3125 15.7813L21.7187 16.0938C24.375 16.5625 27.0312 15.9375 29.2187 14.375C29.6875 13.9062 30.3125 13.9062 30.7812 14.0625C31.25 14.2188 31.5625 14.6875 31.5625 15.3125V17.6563C31.5625 17.8125 31.7187 17.9688 31.875 17.9688L32.8125 14.8438C32.9687 14.375 32.8125 13.75 32.3437 13.2812C32.0312 12.8125 31.4062 12.5 30.7812 12.5C30.3125 12.5 30 12.1875 30 11.7188C30 10.9375 29.6875 10.1562 29.0625 9.6875C28.75 9.375 28.2812 9.21875 27.6562 9.21875V9.21875ZM9.375 32.1875H9.0625C8.59375 32.0313 6.25 30.7813 6.25 29.0625V27.3438C6.25 26.875 6.5625 26.5625 7.03125 26.5625C7.5 26.5625 7.8125 26.875 7.8125 27.3438V29.0625C7.8125 29.5313 8.75 30.1563 9.375 30.625C10.1562 30.1563 10.9375 29.5313 10.9375 29.0625V27.3438C10.9375 26.875 11.4062 26.5625 11.7187 26.5625C12.0312 26.5625 12.5 26.875 12.5 27.3438V29.0625C12.5 30.7813 10.1562 32.0313 9.6875 32.1875H9.375Z" fill="url(#paint0_linear_3378_30397)"/>
<path d="M9.375 28.5937C6.40625 28.5937 3.90625 26.0938 3.90625 23.125V21.875C3.90625 21.4062 4.21875 21.0938 4.6875 21.0938C5.15625 21.0938 5.46875 21.4062 5.46875 21.875V23.125C5.46875 25.3125 7.1875 27.0312 9.375 27.0312C11.5625 27.0312 13.2812 25.3125 13.2812 23.125V21.875C13.2812 21.4062 13.5937 21.0938 14.0625 21.0938C14.5313 21.0938 14.8438 21.4062 14.8438 21.875V23.125C14.8438 26.0938 12.3437 28.5937 9.375 28.5937Z" fill="url(#paint1_linear_3378_30397)"/>
<path d="M4.6875 22.8122H4.53125C4.21875 22.8122 4.0625 22.4997 4.0625 22.3435L3.125 19.9997C2.96875 19.2185 3.125 18.4372 3.59375 17.8122C3.90625 17.3435 4.375 17.1872 4.84375 17.031C5 16.406 5.3125 15.9372 5.78125 15.4685C6.40625 14.8435 7.34375 14.6872 8.125 14.8435L13.2812 15.6247C14.0625 15.781 14.6875 16.2497 15.1562 16.8747C15.625 17.4997 15.7813 18.281 15.625 19.0622L14.8438 22.3435C14.8438 22.656 14.5312 22.8122 14.375 22.9685C14.0625 23.1247 13.9062 22.9685 13.5937 22.8122L11.875 21.406C11.7187 21.2497 11.7188 21.2497 11.5625 21.2497H7.1875C7.03125 21.2497 6.875 21.2497 6.875 21.406L5.15625 22.8122H4.6875V22.8122ZM7.65625 16.2497C7.34375 16.2497 7.03125 16.406 6.875 16.5622C6.5625 16.8747 6.40625 17.1872 6.40625 17.4997C6.40625 17.9685 6.09375 18.281 5.625 18.281C5.3125 18.281 5 18.4372 4.84375 18.5935C4.6875 19.0622 4.53125 19.3747 4.6875 19.531L5.15625 20.781L5.9375 20.156C6.25 19.8435 6.71875 19.6872 7.34375 19.6872H11.7188C12.1875 19.6872 12.6562 19.8435 13.125 20.156L13.75 20.781L14.0625 18.5935C14.0625 18.281 14.0625 17.9685 13.75 17.656C13.4375 17.3435 13.2813 17.1872 12.9688 17.1872L7.96875 16.406C7.8125 16.2497 7.8125 16.2497 7.65625 16.2497V16.2497ZM4.84375 37.656H0.78125C0.3125 37.656 0 37.3435 0 36.8747V33.906C0 33.1247 0.15625 32.3435 0.625 31.7185C0.78125 31.406 1.09375 31.2497 1.40625 31.406C3.90625 31.7185 5.78125 33.7497 5.78125 36.2497V36.8747C5.625 37.3435 5.3125 37.656 4.84375 37.656V37.656ZM1.5625 36.0935H4.0625C4.0625 34.6872 2.96875 33.4372 1.71875 32.9685C1.5625 33.281 1.5625 33.5935 1.5625 33.906V36.0935Z" fill="url(#paint2_linear_3378_30397)"/>
<path d="M25 34.0625H24.6875C24.2187 33.9062 20.3125 32.0312 20.3125 29.375V26.5625C20.3125 26.0937 20.625 25.7812 21.0937 25.7812C21.5625 25.7812 21.875 26.0937 21.875 26.5625V29.375C21.875 30.4687 23.75 31.7188 25 32.3438C26.25 31.7188 28.125 30.4687 28.125 29.375V26.5625C28.125 26.0937 28.4375 25.7812 28.9063 25.7812C29.375 25.7812 29.6875 26.0937 29.6875 26.5625V29.375C29.6875 32.0312 25.7813 33.75 25.3125 34.0625H25Z" fill="url(#paint3_linear_3378_30397)"/>
<path d="M25 28.2812C20.625 28.2812 17.0312 24.6875 17.0312 20.3125V18.75C17.0312 18.2812 17.3437 17.9688 17.8125 17.9688C18.2812 17.9688 18.5937 18.2812 18.5937 18.75V20.3125C18.5937 23.75 21.4063 26.7187 25 26.7187C28.5937 26.7187 31.4063 23.9062 31.4063 20.3125V18.75C31.4063 18.2812 31.7188 17.9688 32.1875 17.9688C32.6563 17.9688 32.9688 18.2812 32.9688 18.75V20.3125C32.9688 24.6875 29.375 28.2812 25 28.2812ZM38.2812 42.3437H11.7188C11.25 42.3437 10.9375 42.0312 10.9375 41.5625V36.875C10.9375 34.2187 12.6562 31.875 15.1562 31.0937L20.9375 29.2188C21.4062 29.0625 21.7187 29.375 21.875 29.6875C22.0313 30.1562 21.7187 30.4687 21.4062 30.625L15.625 32.6562C13.75 33.2812 12.5 35 12.5 37.0312V40.9375H37.5V37.0312C37.5 35 36.25 33.2812 34.375 32.6562L28.5937 30.7813C28.125 30.625 27.9687 30.1562 28.125 29.8437C28.2813 29.375 28.75 29.2187 29.0625 29.375L34.8437 31.25C37.3437 32.0312 39.0625 34.375 39.0625 37.0312V41.7187C39.0625 42.0312 38.75 42.3437 38.2812 42.3437V42.3437Z" fill="url(#paint4_linear_3378_30397)"/>
<path d="M38.2812 42.3433H11.7188C11.25 42.3433 10.9375 42.0308 10.9375 41.5621V36.8746C10.9375 34.2183 12.6562 31.8746 15.1562 31.0933L20.9375 29.2183C21.4062 29.0621 21.7187 29.3746 21.875 29.6871C22.0313 30.1558 21.7187 30.4683 21.4062 30.6246L15.625 32.6558C13.75 33.2808 12.5 34.9996 12.5 37.0308V40.9371H37.5V37.0308C37.5 34.9996 36.25 33.2808 34.375 32.6558L28.5937 30.7808C28.125 30.6246 27.9687 30.1558 28.125 29.8433C28.2813 29.3746 28.75 29.2183 29.0625 29.3746L34.8437 31.2496C37.3437 32.0308 39.0625 34.3746 39.0625 37.0308V41.7183C39.0625 42.0308 38.75 42.3433 38.2812 42.3433V42.3433Z" fill="url(#paint5_linear_3378_30397)"/>
<path d="M38.2812 42.3433H11.7188C11.25 42.3433 10.9375 42.0308 10.9375 41.5621V36.8746C10.9375 34.2183 12.6562 31.8746 15.1562 31.0933L20.9375 29.2183C21.4062 29.0621 21.7187 29.3746 21.875 29.6871C22.0313 30.1558 21.7187 30.4683 21.4062 30.6246L15.625 32.6558C13.75 33.2808 12.5 34.9996 12.5 37.0308V40.9371H37.5V37.0308C37.5 34.9996 36.25 33.2808 34.375 32.6558L28.5937 30.7808C28.125 30.6246 27.9687 30.1558 28.125 29.8433C28.2813 29.3746 28.75 29.2183 29.0625 29.3746L34.8437 31.2496C37.3437 32.0308 39.0625 34.3746 39.0625 37.0308V41.7183C39.0625 42.0308 38.75 42.3433 38.2812 42.3433V42.3433Z" fill="url(#paint6_linear_3378_30397)"/>
<path d="M11.7187 37.6563H0.78125C0.3125 37.6563 0 37.3438 0 36.875V33.9063C0 32.0313 1.09375 30.4688 2.96875 29.8438L6.875 28.5937C7.34375 28.4375 7.65625 28.75 7.8125 29.0625C7.96875 29.5313 7.65625 29.8438 7.34375 30L3.4375 31.25C2.34375 31.7188 1.5625 32.8125 1.5625 33.9063V36.0938H10.9375C11.25 33.9063 12.6562 32.0313 14.8437 31.25L11.4062 30.1562C11.0937 30 10.9375 29.5313 10.9375 29.0625C11.0937 28.5938 11.5625 28.4375 11.875 28.5937L15.7812 29.8438C16.4062 30 16.875 30.3125 17.3437 30.7813C17.5 30.9375 17.6562 31.25 17.5 31.5625C17.5 31.875 17.1875 32.0313 17.0312 32.1875L15.4687 32.6563C13.5937 33.2813 12.3437 35 12.3437 36.875C12.5 37.3438 12.1875 37.6563 11.7187 37.6563V37.6563ZM38.2812 42.3437H31.875C31.4062 42.3437 31.0937 42.0312 31.0937 41.5625V40.4687C31.0937 36.875 33.75 33.75 37.3437 33.4375C37.6562 33.4375 37.9687 33.5938 38.125 33.75C38.75 34.6875 39.0625 35.7813 39.0625 36.875V41.5625C39.0625 42.0312 38.75 42.3437 38.2812 42.3437ZM32.6562 40.7813H37.5V36.875C37.5 36.25 37.3437 35.625 37.0312 35C34.5312 35.625 32.6562 37.8125 32.6562 40.4687V40.7813Z" fill="url(#paint7_linear_3378_30397)"/>
<path d="M40.625 28.4375C38.4375 28.4375 36.5625 26.5625 36.5625 24.375V21.0938C36.5625 20.625 36.875 20.3125 37.3438 20.3125C37.8125 20.3125 38.125 20.625 38.125 21.0938V24.375C38.125 25.7813 39.2188 26.875 40.625 26.875C42.0313 26.875 43.125 25.7813 43.125 24.375V21.0938C43.125 20.625 43.4375 20.3125 43.9063 20.3125C44.375 20.3125 44.6875 20.625 44.6875 21.0938V24.375C44.6875 26.7188 42.8125 28.4375 40.625 28.4375ZM49.2188 37.6563H45.1562C44.6875 37.6563 44.375 37.3438 44.375 36.875V36.25C44.375 33.75 46.25 31.7188 48.75 31.4063C49.0625 31.4063 49.375 31.5625 49.5313 31.7187C50 32.3437 50.1562 33.125 50.1562 33.9063V36.875C50 37.3438 49.6875 37.6563 49.2188 37.6563V37.6563ZM45.9375 36.0938H48.4375V33.9063C48.4375 33.5938 48.4375 33.2813 48.2812 32.9688C46.875 33.4375 45.9375 34.6875 45.9375 36.0938Z" fill="url(#paint8_linear_3378_30397)"/>
<path d="M37.9687 21.875H37.3438C36.875 21.875 36.5625 21.5625 36.5625 21.0938C36.5625 20.625 36.875 20.3125 37.3438 20.3125H37.9687C38.2812 20.3125 38.4375 20 38.4375 19.8438C38.4375 19.375 38.75 19.0625 39.2188 19.0625C39.6875 19.0625 40 19.375 40 19.8438C40.1563 20.9375 39.0625 21.875 37.9687 21.875ZM46.5625 25.7813C46.0937 25.7813 45.7812 25.4688 45.7812 25V23.75C45.7812 22.6563 45 21.875 43.9063 21.875H41.25C40.7812 21.875 40.4688 21.5625 40.4688 21.0938C40.4688 20.625 40.7812 20.3125 41.25 20.3125H43.9063C45.7813 20.3125 47.3437 21.875 47.3437 23.75V25C47.3437 25.4688 47.0312 25.7813 46.5625 25.7813Z" fill="url(#paint9_linear_3378_30397)"/>
<path d="M42.9687 29.0625C42.8125 29.0625 42.6563 29.0625 42.5 28.9062C42.3437 28.75 42.1875 28.5937 42.1875 28.2812V27.0312C42.1875 26.5625 42.5 26.25 42.9687 26.25C43.4375 26.25 43.75 26.5625 43.75 27.0312V27.5C44.2187 27.5 44.5312 27.3437 45 27.3437H45.3125C45.625 27.3437 45.7812 27.0313 45.7812 26.875V22.0313C45.7812 19.2188 43.4375 16.875 40.625 16.875C37.8125 16.875 35.4688 19.2188 35.4688 22.0313V26.5625C35.4688 26.875 35.625 27.0312 35.9375 27.0312H36.25C36.7188 27.1875 37.0312 27.1875 37.5 27.1875V26.7188C37.5 26.25 37.8125 25.9375 38.2812 25.9375C38.75 25.9375 39.0625 26.5625 39.0625 27.0312V28.2812C39.0625 28.4375 38.9062 28.75 38.75 28.9062C38.5937 29.0625 38.4375 29.0625 38.125 29.0625C37.3437 28.9062 36.5625 28.9062 35.9375 28.75H35.625C34.6875 28.5937 33.9062 27.6562 33.9062 26.7188V21.875C33.9062 18.125 36.875 15.1562 40.625 15.1562C44.375 15.1562 47.3437 18.125 47.3437 21.875V26.5625C47.3437 27.5 46.7187 28.4375 45.625 28.5937H45.3125C44.6875 28.9062 43.9062 29.0625 42.9687 29.0625C43.125 29.0625 43.125 29.0625 42.9687 29.0625Z" fill="url(#paint10_linear_3378_30397)"/>
<path d="M49.2187 37.6558H38.2812C37.8125 37.6558 37.5 37.3433 37.5 36.8746C37.5 34.9996 36.25 33.2808 34.375 32.6558L32.8125 32.1871C32.5 32.0308 32.3438 31.8746 32.3438 31.5621C32.3438 31.2496 32.3437 30.9371 32.5 30.7808C32.9687 30.3121 33.4375 29.9996 34.0625 29.8433L37.9687 28.5933C38.4375 28.4371 38.75 28.7496 38.9062 29.0621C39.0625 29.5308 38.75 29.8433 38.4375 29.9996L35.1562 31.2496C37.3437 32.0308 38.75 33.9058 39.0625 36.0933H48.4375V33.9058C48.4375 32.8121 47.6562 31.7183 46.5625 31.4058L42.6562 30.1558C42.1875 29.9996 42.0312 29.5308 42.1875 29.2183C42.3437 28.9058 42.8125 28.5933 43.125 28.7496L47.0312 29.9996C48.75 30.6246 50 32.1871 50 34.0621V37.0308C50 37.3433 49.6875 37.6558 49.2187 37.6558Z" fill="url(#paint11_linear_3378_30397)"/>
</g>
<defs>
<linearGradient id="paint0_linear_3378_30397" x1="12.2508" y1="-22.6232" x2="-18.3117" y2="4.16106" gradientUnits="userSpaceOnUse">
<stop stop-color="#2DD1DB"/>
<stop offset="0.60721" stop-color="#2D9CDB"/>
<stop offset="1" stop-color="#1A8ED0"/>
</linearGradient>
<linearGradient id="paint1_linear_3378_30397" x1="6.22976" y1="11.863" x2="-3.12819" y2="22.266" gradientUnits="userSpaceOnUse">
<stop stop-color="#2DD1DB"/>
<stop offset="0.60721" stop-color="#2D9CDB"/>
<stop offset="1" stop-color="#1A8ED0"/>
</linearGradient>
<linearGradient id="paint2_linear_3378_30397" x1="3.33175" y1="-13.3592" x2="-20.2303" y2="-1.04136" gradientUnits="userSpaceOnUse">
<stop stop-color="#2DD1DB"/>
<stop offset="0.60721" stop-color="#2D9CDB"/>
<stop offset="1" stop-color="#1A8ED0"/>
</linearGradient>
<linearGradient id="paint3_linear_3378_30397" x1="13.567" y1="12.1034" x2="2.41955" y2="29.773" gradientUnits="userSpaceOnUse">
<stop stop-color="#2DD1DB"/>
<stop offset="0.60721" stop-color="#2D9CDB"/>
<stop offset="1" stop-color="#1A8ED0"/>
</linearGradient>
<linearGradient id="paint4_linear_3378_30397" x1="16.9122" y1="-12.0313" x2="-13.4216" y2="14.6493" gradientUnits="userSpaceOnUse">
<stop stop-color="#2DD1DB"/>
<stop offset="0.60721" stop-color="#2D9CDB"/>
<stop offset="1" stop-color="#1A8ED0"/>
</linearGradient>
<linearGradient id="paint5_linear_3378_30397" x1="16.9122" y1="12.9718" x2="2.17799" y2="36.9638" gradientUnits="userSpaceOnUse">
<stop stop-color="#2DD1DB"/>
<stop offset="0.60721" stop-color="#2D9CDB"/>
<stop offset="1" stop-color="#1A8ED0"/>
</linearGradient>
<linearGradient id="paint6_linear_3378_30397" x1="16.9122" y1="12.9718" x2="2.17799" y2="36.9638" gradientUnits="userSpaceOnUse">
<stop stop-color="#2DD1DB"/>
<stop offset="0.60721" stop-color="#2D9CDB"/>
<stop offset="1" stop-color="#1A8ED0"/>
</linearGradient>
<linearGradient id="paint7_linear_3378_30397" x1="8.29825" y1="11.54" x2="-4.92698" y2="40.0589" gradientUnits="userSpaceOnUse">
<stop stop-color="#2DD1DB"/>
<stop offset="0.60721" stop-color="#2D9CDB"/>
<stop offset="1" stop-color="#1A8ED0"/>
</linearGradient>
<linearGradient id="paint8_linear_3378_30397" x1="39.4503" y1="-1.03366" x2="20.2871" y2="10.4158" gradientUnits="userSpaceOnUse">
<stop stop-color="#2DD1DB"/>
<stop offset="0.60721" stop-color="#2D9CDB"/>
<stop offset="1" stop-color="#1A8ED0"/>
</linearGradient>
<linearGradient id="paint9_linear_3378_30397" x1="38.8528" y1="10.7933" x2="30.5909" y2="20.8993" gradientUnits="userSpaceOnUse">
<stop stop-color="#2DD1DB"/>
<stop offset="0.60721" stop-color="#2D9CDB"/>
<stop offset="1" stop-color="#1A8ED0"/>
</linearGradient>
<linearGradient id="paint10_linear_3378_30397" x1="36.7608" y1="-1.95914" x2="20.0971" y2="10.3153" gradientUnits="userSpaceOnUse">
<stop stop-color="#2DD1DB"/>
<stop offset="0.60721" stop-color="#2D9CDB"/>
<stop offset="1" stop-color="#1A8ED0"/>
</linearGradient>
<linearGradient id="paint11_linear_3378_30397" x1="36.0946" y1="17.3468" x2="25.4921" y2="33.0212" gradientUnits="userSpaceOnUse">
<stop stop-color="#2DD1DB"/>
<stop offset="0.60721" stop-color="#2D9CDB"/>
<stop offset="1" stop-color="#1A8ED0"/>
</linearGradient>
<clipPath id="clip0_3378_30397">
<rect width="50" height="50" fill="white"/>
</clipPath>
</defs>
</svg>
