<svg width="48" height="48" viewBox="0 0 48 48" fill="none" xmlns="http://www.w3.org/2000/svg">
<path d="M29.9344 45.75H13.4062V44.8125H29.8969L39.0563 43.1437L45.15 37.6875L46.8938 32.1468H46.1062C44.7562 32.1468 43.4719 32.9437 42.8531 34.1718L42.0188 35.8406C41.9813 35.9156 41.925 35.9812 41.85 36.0281L35.7094 39.9375C35.6344 39.9843 35.55 40.0125 35.4563 40.0125H33.0656C32.8031 40.0125 32.5969 39.8062 32.5969 39.5437C32.5969 39.2812 32.8031 39.075 33.0656 39.075C34.1156 39.075 34.9688 38.2125 34.9688 37.1531C34.9688 36.0843 34.1156 35.2312 33.0656 35.2312H24.4219C24.3094 35.2312 24.2062 35.1937 24.1219 35.1187C22.4156 34.1906 20.325 34.2 18.6375 35.1468L15.4969 36.9093C15.4219 36.9468 15.3469 36.9656 15.2625 36.9656L11.5312 36.9562V36.0187L15.1406 36.0281L18.1781 34.3312C20.1375 33.2343 22.575 33.225 24.5625 34.2937H33.0656C34.6313 34.2937 35.9062 35.5687 35.9062 37.1437C35.9062 37.8843 35.625 38.5593 35.1656 39.075H35.3156L41.2312 35.3062L42.0094 33.75C42.7969 32.2031 44.4 31.2 46.1062 31.2H47.5312C47.6813 31.2 47.8219 31.275 47.9062 31.3875C47.9906 31.5093 48.0188 31.6593 47.9719 31.8093L45.9938 38.0812C45.9656 38.1656 45.9188 38.2312 45.8625 38.2875L39.5719 43.9125C39.5063 43.9687 39.4313 44.0062 39.3469 44.025L30.0188 45.7218C29.9906 45.75 29.9625 45.75 29.9344 45.75Z" fill="white"/>
<path d="M33.0938 39.0938H23.4375V40.0312H33.0938V39.0938Z" fill="white"/>
<path d="M8.25 36.5063H7.3125V47.5313H8.25V36.5063Z" fill="white"/>
<path d="M11.5312 48.0001H0.46875C0.20625 48.0001 0 47.7938 0 47.5313V36.5063C0 36.2438 0.20625 36.0376 0.46875 36.0376H11.5312C11.7937 36.0376 12 36.2438 12 36.5063V47.5313C12 47.7938 11.7937 48.0001 11.5312 48.0001ZM0.9375 47.0626H11.0625V36.9751H0.9375V47.0626Z" fill="white"/>
<path d="M24.4688 0H23.5312V2.53125H24.4688V0Z" fill="white"/>
<path d="M21.203 2.99604L20.2344 0.657471L19.3682 1.01624L20.3369 3.35481L21.203 2.99604Z" fill="white"/>
<path d="M28.6298 1.01599L27.7637 0.657227L26.795 2.9958L27.6611 3.35456L28.6298 1.01599Z" fill="white"/>
<path d="M42.2812 28.3125H5.71875C5.45625 28.3125 5.25 28.1063 5.25 27.8438V8.15625C5.25 7.89375 5.45625 7.6875 5.71875 7.6875H42.2812C42.5438 7.6875 42.75 7.89375 42.75 8.15625V27.8438C42.75 28.1063 42.5438 28.3125 42.2812 28.3125ZM6.1875 27.375H41.8125V8.625H6.1875V27.375Z" fill="white"/>
<path d="M37.5938 25.5H10.4062C10.2844 25.5 10.1625 25.4531 10.0781 25.3594L8.20312 23.4844C8.11875 23.4 8.0625 23.2781 8.0625 23.1562V12.8438C8.0625 12.7219 8.10938 12.6 8.20312 12.5156L10.0781 10.6406C10.1625 10.5563 10.2844 10.5 10.4062 10.5H35.7188V11.4375H10.6031L9 13.0406V22.9688L10.6031 24.5719H37.4062L39.0094 22.9688V13.0406L37.275 11.3062L37.9406 10.6406L39.8156 12.5156C39.9 12.6 39.9563 12.7219 39.9563 12.8438V23.1562C39.9563 23.2781 39.9094 23.4 39.8156 23.4844L37.9406 25.3594C37.8375 25.4531 37.7156 25.5 37.5938 25.5Z" fill="white"/>
<path d="M24 22.2188C21.675 22.2188 19.7812 20.325 19.7812 18C19.7812 15.675 21.675 13.7812 24 13.7812C26.325 13.7812 28.2188 15.675 28.2188 18C28.2188 20.325 26.325 22.2188 24 22.2188ZM24 14.7188C22.1906 14.7188 20.7188 16.1906 20.7188 18C20.7188 19.8094 22.1906 21.2812 24 21.2812C25.8094 21.2812 27.2812 19.8094 27.2812 18C27.2812 16.1906 25.8094 14.7188 24 14.7188Z" fill="white"/>
<path d="M32.9062 19.875C31.875 19.875 31.0312 19.0312 31.0312 18C31.0312 16.9688 31.875 16.125 32.9062 16.125C33.9375 16.125 34.7812 16.9688 34.7812 18C34.7812 19.0312 33.9375 19.875 32.9062 19.875ZM32.9062 17.0625C32.3906 17.0625 31.9688 17.4844 31.9688 18C31.9688 18.5156 32.3906 18.9375 32.9062 18.9375C33.4219 18.9375 33.8438 18.5156 33.8438 18C33.8438 17.4844 33.4219 17.0625 32.9062 17.0625Z" fill="white"/>
<path d="M14.625 19.875C13.5938 19.875 12.75 19.0312 12.75 18C12.75 16.9688 13.5938 16.125 14.625 16.125C15.6562 16.125 16.5 16.9688 16.5 18C16.5 19.0312 15.6562 19.875 14.625 19.875ZM14.625 17.0625C14.1094 17.0625 13.6875 17.4844 13.6875 18C13.6875 18.5156 14.1094 18.9375 14.625 18.9375C15.1406 18.9375 15.5625 18.5156 15.5625 18C15.5625 17.4844 15.1406 17.0625 14.625 17.0625Z" fill="white"/>
</svg>
