<svg width="80" height="80" viewBox="0 0 80 80" fill="none" xmlns="http://www.w3.org/2000/svg">
<path d="M53.7853 8H12.6642C10.0925 8 8 10.0859 8 12.6504V67.3347C8 69.907 10.0925 72 12.6642 72H53.7853C56.3569 72 58.4495 69.907 58.4495 67.3347V49.528L70.5996 37.3746C72.4668 35.5076 72.4668 32.4696 70.5996 30.6026L67.3273 27.3289C65.4601 25.4612 62.4235 25.4612 60.5563 27.3289L58.4495 29.4363V12.6504C58.4495 10.0859 56.3569 8 53.7853 8ZM47.2756 56.9324L41.0036 50.6589L57.9196 33.7383L64.1918 40.0121L47.2756 56.9324ZM39.8996 53.3264L44.6085 58.0364L38.5817 59.3546L39.8996 53.3264ZM55.7827 67.3347C55.7827 68.4365 54.8868 69.3326 53.7853 69.3326H12.6642C11.5626 69.3326 10.6667 68.4365 10.6667 67.3347V12.6504C10.6667 11.557 11.5626 10.6674 12.6642 10.6674H53.7853C54.8868 10.6674 55.7827 11.557 55.7827 12.6504V32.1038L45.0042 42.8852H18.2907C17.5537 42.8852 16.9573 43.4824 16.9573 44.2189C16.9573 44.9555 17.5537 45.5526 18.2907 45.5526H42.3376L38.1754 49.7159C38.0621 49.8288 37.9802 49.9646 37.9147 50.1085C37.8951 50.1513 37.8814 50.1934 37.8667 50.2377C37.8513 50.2839 37.8263 50.3263 37.816 50.3743L37.6078 51.327H18.2907C17.5537 51.327 16.9573 51.9242 16.9573 52.6607C16.9573 53.3972 17.5537 53.9944 18.2907 53.9944H37.0247L35.7627 59.7681H18.2907C17.5537 59.7681 16.9573 60.3653 16.9573 61.1018C16.9573 61.8384 17.5537 62.4355 18.2907 62.4355H36.8355C36.9306 62.4355 37.0256 62.4258 37.1207 62.4049L47.5611 60.1217C47.6096 60.1111 47.6527 60.0858 47.6995 60.0699C47.743 60.0552 47.7842 60.0416 47.8262 60.0224C47.9701 59.9566 48.1061 59.8746 48.2187 59.7616L55.7827 52.1955V67.3347ZM62.4418 29.2148C63.2699 28.3878 64.6137 28.3878 65.4419 29.2148L68.7141 32.4885C69.5409 33.3155 69.5409 34.6616 68.7141 35.4887L66.0773 38.1261L59.805 31.8523L62.4418 29.2148Z" fill="url(#paint0_linear_1344_12848)"/>
<path d="M21.3929 23.0572H46.9978C47.6295 23.0572 48.1406 22.5455 48.1406 21.9143C48.1406 21.2832 47.6295 20.7715 46.9978 20.7715H21.3929C20.7612 20.7715 20.25 21.2832 20.25 21.9143C20.25 22.5455 20.7612 23.0572 21.3929 23.0572ZM21.3929 30.291H46.9978C47.6295 30.291 48.1406 29.7793 48.1406 29.1482C48.1406 28.517 47.6295 28.0053 46.9978 28.0053H21.3929C20.7612 28.0053 20.25 28.517 20.25 29.1482C20.25 29.7793 20.7612 30.291 21.3929 30.291ZM21.3929 37.5243H46.9978C47.6295 37.5243 48.1406 37.0126 48.1406 36.3814C48.1406 35.7503 47.6295 35.2386 46.9978 35.2386H21.3929C20.7612 35.2386 20.25 35.7503 20.25 36.3814C20.25 37.0126 20.7612 37.5243 21.3929 37.5243Z" fill="url(#paint1_linear_1344_12848)"/>
<defs>
<linearGradient id="paint0_linear_1344_12848" x1="21.5959" y1="-70.7692" x2="-55.8366" y2="-11.7433" gradientUnits="userSpaceOnUse">
<stop stop-color="#2DD1DB"/>
<stop offset="0.60721" stop-color="#2D9CDB"/>
<stop offset="1" stop-color="#1A8ED0"/>
</linearGradient>
<linearGradient id="paint1_linear_1344_12848" x1="26.175" y1="0.152663" x2="5.73783" y2="26.0891" gradientUnits="userSpaceOnUse">
<stop stop-color="#2DD1DB"/>
<stop offset="0.60721" stop-color="#2D9CDB"/>
<stop offset="1" stop-color="#1A8ED0"/>
</linearGradient>
</defs>
</svg>
