<svg width="48" height="48" viewBox="0 0 48 48" fill="none" xmlns="http://www.w3.org/2000/svg">
<path d="M6.00006 3.00075C4.351 3.00075 3 4.35174 3 6.0008V38.2119C3 40.2664 4.55017 41.6221 5.99713 41.8873L5.99996 44.253C6.00506 44.8475 6.66681 45.2001 7.16307 44.8727L9.00149 43.6495L10.834 44.8727C11.33 45.1982 11.9898 44.8463 11.9957 44.253V41.9605H29.2475C31.3121 41.9605 33.002 40.2765 33.002 38.2119V35.9648H33.749C34.1632 35.9631 34.4977 35.626 34.4961 35.2118V6.0008C34.4961 4.35174 33.151 3.00075 31.5019 3.00075H6.00006ZM36.7507 3.00075C36.3359 2.99835 35.9979 3.33305 35.9963 3.74783V44.253C35.9979 44.6678 36.3359 45.0025 36.7507 45.0001H44.2523C44.6642 44.9985 44.9977 44.6649 44.9994 44.253V3.74783C44.9977 3.33591 44.6642 3.00239 44.2523 3.00075H36.7507ZM6.00006 4.50077H31.502C32.346 4.50077 33.0021 5.15681 33.0021 6.0008V34.4647H6.74714C5.87037 34.4647 5.14294 34.7391 4.50003 35.206V6.0008C4.50003 5.15681 5.15607 4.50077 6.00006 4.50077ZM37.4977 4.50077H43.4993V6.0008H41.2508V7.50083H43.4993V10.5024H41.9978V11.9965H43.4993V14.9981H41.2508V16.4981H43.4993V19.4981H41.9978V20.9996H43.4993V23.9997H41.2508V25.5012H43.4993V28.5013H41.9978V30.0013H43.4993V33.0028H41.2508V34.497H43.4993V37.4985H41.9978V38.9985H43.4993V43.5001H37.4977V4.50077ZM17.0628 6.0008C16.3943 6.0008 15.7502 6.51546 15.7502 7.24595V7.64146C13.6504 8.58407 12.0473 10.4798 11.382 12.8095C10.6111 13.0211 10.1134 13.8099 10.1134 14.6274C10.1134 15.5827 10.7886 16.4981 11.7907 16.4981H25.7099C26.712 16.4981 27.3872 15.5827 27.3872 14.6274C27.3872 13.8094 26.8903 13.0205 26.1186 12.8095C25.4531 10.482 23.8498 8.58634 21.7518 7.64293V7.24595C21.7518 6.51546 21.1078 6.0008 20.4393 6.0008H17.0628ZM17.2503 7.50083H20.2518V9.74355C20.2736 10.7216 21.7301 10.7216 21.7518 9.74355V9.34511C22.9972 10.0914 23.9809 11.287 24.5131 12.7495H23.8495C22.8485 12.7495 22.8485 14.251 23.8495 14.251H25.7099C25.7357 14.251 25.8872 14.3362 25.8872 14.6274C25.8872 14.9187 25.7359 14.9981 25.7099 14.9981H11.7907C11.7649 14.9981 11.6135 14.9187 11.6135 14.6274C11.6135 14.3362 11.7648 14.251 11.7907 14.251H13.6467C14.6477 14.251 14.6477 12.7495 13.6467 12.7495H12.9831C13.5163 11.2867 14.5034 10.0913 15.7502 9.34511V9.74355C15.7276 10.766 17.273 10.766 17.2503 9.74355L17.2503 7.50083ZM17.8201 10.4848C16.8191 10.4848 16.8191 11.9863 17.8201 11.9863H19.6747C20.6757 11.9863 20.6757 10.4848 19.6747 10.4848H17.8201ZM17.7483 12.7392C16.7716 12.808 16.8413 14.2641 17.8201 14.2392H19.6747C20.6527 14.2174 20.6527 12.7609 19.6747 12.7392H17.8201C17.7963 12.7381 17.7722 12.7381 17.7483 12.7392ZM10.4958 17.251V18.7511C10.4974 19.163 10.8309 19.4965 11.2428 19.4981H12.8381C12.8819 19.6116 12.9256 19.7257 12.9758 19.8365L11.8522 20.9601C11.5575 21.2533 11.5575 21.7303 11.8522 22.0236L13.9734 24.1447C14.2665 24.4385 14.7423 24.4385 15.0354 24.1447L16.159 23.0197C16.2703 23.0694 16.3834 23.1156 16.4974 23.1588V24.7526C16.4982 25.1651 16.832 25.4995 17.2444 25.5012H20.246C20.6607 25.5028 20.9981 25.1674 20.9989 24.7526V23.1647C21.1134 23.1206 21.2241 23.0703 21.3358 23.0197L22.4609 24.1447C22.7539 24.4385 23.2298 24.4385 23.5229 24.1447L25.644 22.0236C25.9388 21.7303 25.9388 21.2533 25.644 20.9601L24.5205 19.8424C24.5707 19.7298 24.6145 19.6135 24.6582 19.4981H26.2476C26.6618 19.4997 26.9989 19.1653 27.0005 18.7511V17.251H25.5005V17.9981H24.166C23.8269 17.9976 23.5296 18.2246 23.4409 18.5518C23.3354 18.9363 23.1823 19.306 22.9868 19.6534C22.8215 19.9462 22.8712 20.3131 23.1083 20.5514L24.0488 21.4918L22.9911 22.5553L22.0448 21.6076C21.8059 21.3682 21.4363 21.3184 21.1425 21.486C20.7962 21.684 20.4307 21.8437 20.0468 21.9518C19.7233 22.0416 19.499 22.3354 19.4974 22.6711V23.9997H17.9974V22.6652C17.9979 22.3261 17.7709 22.0288 17.4437 21.9401C17.0596 21.8345 16.695 21.6814 16.348 21.486C16.0542 21.3184 15.6846 21.3682 15.4456 21.6076L14.5037 22.5553L13.446 21.4918L14.388 20.5455C14.6273 20.3066 14.6771 19.937 14.5095 19.6432C14.3116 19.2973 14.1577 18.9295 14.0496 18.546C13.9586 18.221 13.6619 17.9968 13.3244 17.9981H11.9958V17.251L10.4958 17.251ZM15.7503 17.251C15.7503 18.899 17.1023 20.2526 18.7503 20.2526C20.3983 20.2526 21.7518 18.899 21.7518 17.251H20.2518C20.2518 18.0884 19.5876 18.7511 18.7503 18.7511C17.913 18.7511 17.2503 18.0884 17.2503 17.251H15.7503ZM12.0353 27.7483C11.0129 27.7256 11.0129 29.271 12.0353 29.2483H25.5005C26.5229 29.271 26.5229 27.7257 25.5005 27.7483H12.0353ZM12.0353 30.7484C11.0343 30.7484 11.0343 32.2499 12.0353 32.2499H25.5005C26.5014 32.2499 26.5014 30.7484 25.5005 30.7484H12.0353ZM6.74716 35.9648H31.502V38.2119C31.502 39.4714 30.5071 40.4605 29.2476 40.4605H11.9958V38.2514C11.9974 37.8372 11.6629 37.5002 11.2487 37.4985H6.74716C6.33295 37.5001 5.99849 37.8372 6.00007 38.2514V40.3272C5.1204 40.024 4.50004 39.2066 4.50004 38.2119C4.50004 36.9524 5.48766 35.9648 6.74716 35.9648ZM30.084 37.4619C30.0563 37.4613 30.0283 37.4623 30.0005 37.4647H14.2502C14.2244 37.4634 14.1985 37.4634 14.1726 37.4647C13.2346 37.5683 13.3066 38.9545 14.2502 38.9603H30.0005C30.9127 38.9603 31.0508 37.6229 30.084 37.4618V37.4619ZM7.5001 38.9985H10.5016C10.4995 40.2899 10.5016 41.5656 10.5016 42.8526L9.41615 42.126C9.16321 41.9562 8.83265 41.9562 8.57971 42.126L7.5001 42.8467V38.9985ZM40.4993 41.25C40.3004 41.25 40.1096 41.3291 39.9689 41.4697C39.8283 41.6104 39.7493 41.8011 39.7493 42.0001C39.7493 42.199 39.8283 42.3897 39.9689 42.5304C40.1096 42.671 40.3004 42.7501 40.4993 42.7501C40.5978 42.7501 40.6953 42.7307 40.7863 42.693C40.8773 42.6553 40.96 42.6 41.0296 42.5304C41.0993 42.4607 41.1545 42.3781 41.1922 42.2871C41.2299 42.1961 41.2493 42.0985 41.2493 42.0001C41.2493 41.8011 41.1703 41.6104 41.0296 41.4697C40.889 41.3291 40.6982 41.25 40.4993 41.25Z" fill="url(#paint0_linear_1704_14121)"/>
<defs>
<linearGradient id="paint0_linear_1704_14121" x1="11.9221" y1="-48.6908" x2="-38.8922" y2="-9.95562" gradientUnits="userSpaceOnUse">
<stop stop-color="#2DD1DB"/>
<stop offset="0.60721" stop-color="#2D9CDB"/>
<stop offset="1" stop-color="#1A8ED0"/>
</linearGradient>
</defs>
</svg>
