<svg width="48" height="48" viewBox="0 0 48 48" fill="none" xmlns="http://www.w3.org/2000/svg">
<path d="M27.375 22.5H25.125C24.9 22.5 24.75 22.35 24.75 22.125V18.375C24.75 18.15 24.9 18 25.125 18H27.375C27.6 18 27.75 18.15 27.75 18.375V22.125C27.75 22.35 27.6 22.5 27.375 22.5ZM25.5 21.75H27V18.75H25.5V21.75Z" fill="white"/>
<path d="M29.625 22.5H27.375C27.15 22.5 27 22.35 27 22.125V13.875C27 13.65 27.15 13.5 27.375 13.5H29.625C29.85 13.5 30 13.65 30 13.875V22.125C30 22.35 29.85 22.5 29.625 22.5ZM27.75 21.75H29.25V14.25H27.75V21.75ZM34.125 22.5H31.875C31.65 22.5 31.5 22.35 31.5 22.125V15.375C31.5 15.15 31.65 15 31.875 15H34.125C34.35 15 34.5 15.15 34.5 15.375V22.125C34.5 22.35 34.35 22.5 34.125 22.5ZM32.25 21.75H33.75V15.75H32.25V21.75Z" fill="white"/>
<path d="M36.375 22.5H34.125C33.9 22.5 33.75 22.35 33.75 22.125V8.625C33.75 8.4 33.9 8.25 34.125 8.25H36.375C36.6 8.25 36.75 8.4 36.75 8.625V22.125C36.75 22.35 36.6 22.5 36.375 22.5ZM34.5 21.75H36V9H34.5V21.75ZM40.875 22.5H38.625C38.4 22.5 38.25 22.35 38.25 22.125V6.375C38.25 6.15 38.4 6 38.625 6H40.875C41.1 6 41.25 6.15 41.25 6.375V22.125C41.25 22.35 41.1 22.5 40.875 22.5ZM39 21.75H40.5V6.75H39V21.75Z" fill="white"/>
<path d="M43.125 22.5H40.875C40.65 22.5 40.5 22.35 40.5 22.125V9.375C40.5 9.15 40.65 9 40.875 9H43.125C43.35 9 43.5 9.15 43.5 9.375V22.125C43.5 22.35 43.35 22.5 43.125 22.5ZM41.25 21.75H42.75V9.75H41.25V21.75Z" fill="white"/>
<path d="M44.625 22.5H22.125C21.9 22.5 21.75 22.35 21.75 22.125C21.75 21.9 21.9 21.75 22.125 21.75H44.625C44.85 21.75 45 21.9 45 22.125C45 22.35 44.85 22.5 44.625 22.5ZM39.375 24.75H27.375C27.15 24.75 27 24.6 27 24.375C27 24.15 27.15 24 27.375 24H39.375C39.6 24 39.75 24.15 39.75 24.375C39.75 24.6 39.6 24.75 39.375 24.75ZM39.375 32.25H28.125C27.9 32.25 27.75 32.1 27.75 31.875C27.75 31.65 27.9 31.5 28.125 31.5H39.375C39.6 31.5 39.75 31.65 39.75 31.875C39.75 32.1 39.6 32.25 39.375 32.25ZM39.375 30.75H28.125C27.9 30.75 27.75 30.6 27.75 30.375C27.75 30.15 27.9 30 28.125 30H39.375C39.6 30 39.75 30.15 39.75 30.375C39.75 30.6 39.6 30.75 39.375 30.75ZM39.375 36.75H28.125C27.9 36.75 27.75 36.6 27.75 36.375C27.75 36.15 27.9 36 28.125 36H39.375C39.6 36 39.75 36.15 39.75 36.375C39.75 36.6 39.6 36.75 39.375 36.75ZM39.375 35.25H28.125C27.9 35.25 27.75 35.1 27.75 34.875C27.75 34.65 27.9 34.5 28.125 34.5H39.375C39.6 34.5 39.75 34.65 39.75 34.875C39.75 35.1 39.6 35.25 39.375 35.25ZM39.375 39.75H28.125C27.9 39.75 27.75 39.6 27.75 39.375C27.75 39.15 27.9 39 28.125 39H39.375C39.6 39 39.75 39.15 39.75 39.375C39.75 39.6 39.6 39.75 39.375 39.75ZM39.375 41.25H28.125C27.9 41.25 27.75 41.1 27.75 40.875C27.75 40.65 27.9 40.5 28.125 40.5H39.375C39.6 40.5 39.75 40.65 39.75 40.875C39.75 41.1 39.6 41.25 39.375 41.25ZM22.875 11.4C22.65 11.4 22.5 11.25 22.5 11.025V6.375C22.5 6.15 22.65 6 22.875 6C23.1 6 23.25 6.15 23.25 6.375V11.025C23.25 11.175 23.1 11.4 22.875 11.4Z" fill="white"/>
<path d="M22.875 23.25C22.65 23.25 22.5 23.1 22.5 22.875V15C22.5 14.775 22.65 14.625 22.875 14.625C23.1 14.625 23.25 14.775 23.25 15V22.875C23.25 23.1 23.1 23.25 22.875 23.25ZM9.375 45C9.15 45 9 44.85 9 44.625V35.625C9 35.4 9.15 35.25 9.375 35.25C9.6 35.25 9.75 35.4 9.75 35.625V44.625C9.75 44.85 9.6 45 9.375 45ZM9.75 18C7.275 18 5.25 15.975 5.25 13.5C5.25 11.025 7.275 9 9.75 9C12.225 9 14.25 11.025 14.25 13.5C14.25 15.975 12.225 18 9.75 18ZM9.75 9.75C7.65 9.75 6 11.4 6 13.5C6 15.6 7.65 17.25 9.75 17.25C11.85 17.25 13.5 15.6 13.5 13.5C13.5 11.4 11.85 9.75 9.75 9.75ZM25.875 32.25H23.625C23.4 32.25 23.25 32.1 23.25 31.875V29.625C23.25 29.4 23.4 29.25 23.625 29.25H25.875C26.1 29.25 26.25 29.4 26.25 29.625V31.875C26.25 32.1 26.1 32.25 25.875 32.25ZM24 31.5H25.5V30H24V31.5ZM25.875 36.75H23.625C23.4 36.75 23.25 36.6 23.25 36.375V34.125C23.25 33.9 23.4 33.75 23.625 33.75H25.875C26.1 33.75 26.25 33.9 26.25 34.125V36.375C26.25 36.6 26.1 36.75 25.875 36.75ZM24 36H25.5V34.5H24V36ZM25.875 41.25H23.625C23.4 41.25 23.25 41.1 23.25 40.875V38.625C23.25 38.4 23.4 38.25 23.625 38.25H25.875C26.1 38.25 26.25 38.4 26.25 38.625V40.875C26.25 41.1 26.1 41.25 25.875 41.25ZM24 40.5H25.5V39H24V40.5Z" fill="white"/>
<path d="M10.95 45H7.725C6.75 45 5.925 44.25 5.85 43.275L5.325 34.125C5.25 33.9 5.1 33.75 4.875 33.75C3.825 33.75 3 32.925 3 31.875V22.875C3 21 4.5 19.5 6.375 19.5H13.8L22.2 11.025C22.8 10.425 23.775 10.35 24.375 10.875C25.05 11.475 25.2 12.45 24.675 13.125L15.75 25.05V31.875C15.75 32.925 14.925 33.75 13.875 33.75C13.65 33.75 13.5 33.9 13.425 34.125L12.825 43.2C12.75 44.25 11.925 45 10.95 45ZM6.375 20.25C4.95 20.25 3.75 21.45 3.75 22.875V31.875C3.75 32.475 4.275 33 4.875 33C5.475 33 6 33.45 6.075 34.125L6.675 43.2C6.75 43.8 7.2 44.25 7.8 44.25H11.025C11.625 44.25 12.075 43.8 12.15 43.2L12.75 34.125C12.825 33.525 13.275 33 13.95 33C14.55 33 15.075 32.475 15.075 31.875V24.9C15.075 24.825 15.075 24.75 15.15 24.675L24.15 12.75C24.45 12.375 24.375 11.85 24 11.55C23.625 11.25 23.1 11.25 22.8 11.625L14.175 20.175C14.1 20.25 14.025 20.25 13.875 20.25H6.375Z" fill="white"/>
<path d="M9.74982 25.5C9.59982 25.5 9.44982 25.425 9.37482 25.275L7.49982 20.025C7.42482 19.875 7.49982 19.8 7.57482 19.65C7.64982 19.575 7.72482 19.5 7.87482 19.5H11.6248C11.7748 19.5 11.8498 19.575 11.9248 19.65C11.9998 19.725 11.9998 19.875 11.9998 20.025L10.1248 25.275C10.0498 25.425 9.89982 25.5 9.74982 25.5ZM8.39982 20.25L9.74982 24L11.0998 20.25H8.39982Z" fill="white"/>
</svg>
