<svg width="456" height="62" viewBox="0 0 456 62" fill="none" xmlns="http://www.w3.org/2000/svg">
<path opacity="0.3" d="M25.9495 45L25.3686 45.4744L25.5937 45.75H25.9495V45ZM9.69351 25.096L10.2744 24.6216L8.94351 22.992V25.096H9.69351ZM9.69351 45V45.75H10.4435V45H9.69351ZM0.733505 45H-0.0164948V45.75H0.733505V45ZM0.733505 0.327999V-0.422001H-0.0164948V0.327999H0.733505ZM9.69351 0.327999H10.4435V-0.422001H9.69351V0.327999ZM9.69351 20.36H8.94351V22.4744L10.2759 20.8326L9.69351 20.36ZM25.9495 0.327999V-0.422001H25.5923L25.3671 -0.144595L25.9495 0.327999ZM36.7655 0.327999L37.3419 0.80781L38.3656 -0.422001H36.7655V0.327999ZM18.3335 22.472L17.7571 21.9922L17.3556 22.4745L17.7595 22.9547L18.3335 22.472ZM37.2775 45V45.75H38.8881L37.8515 44.5173L37.2775 45ZM26.5304 44.5256L10.2744 24.6216L9.11262 25.5704L25.3686 45.4744L26.5304 44.5256ZM8.94351 25.096V45H10.4435V25.096H8.94351ZM9.69351 44.25H0.733505V45.75H9.69351V44.25ZM1.48351 45V0.327999H-0.0164948V45H1.48351ZM0.733505 1.078H9.69351V-0.422001H0.733505V1.078ZM8.94351 0.327999V20.36H10.4435V0.327999H8.94351ZM10.2759 20.8326L26.5319 0.800593L25.3671 -0.144595L9.11114 19.8874L10.2759 20.8326ZM25.9495 1.078H36.7655V-0.422001H25.9495V1.078ZM36.1891 -0.151812L17.7571 21.9922L18.9099 22.9518L37.3419 0.80781L36.1891 -0.151812ZM17.7595 22.9547L36.7035 45.4827L37.8515 44.5173L18.9075 21.9893L17.7595 22.9547ZM37.2775 44.25H25.9495V45.75H37.2775V44.25ZM79.715 29.96V30.71H80.3503L80.4548 30.0833L79.715 29.96ZM53.795 29.96V29.21H52.9799L53.0476 30.0223L53.795 29.96ZM56.483 35.976L55.9755 36.5282L56.483 35.976ZM69.411 33.864V33.114H68.9444L68.7382 33.5326L69.411 33.864ZM79.075 33.864L79.7934 34.0795L80.083 33.114H79.075V33.864ZM73.187 42.312L73.637 42.912L73.6426 42.9078L73.187 42.312ZM53.283 43.336L52.9108 43.9873L52.9231 43.994L53.283 43.336ZM46.947 36.872L46.2866 37.2276L46.2909 37.2354L46.947 36.872ZM46.947 17.608L46.2867 17.2524L46.947 17.608ZM53.219 11.208L53.5832 11.8636L53.219 11.208ZM71.523 11.144L71.1624 11.8016L71.1668 11.804L71.523 11.144ZM77.731 17.352L77.071 17.7082L77.0744 17.7145L77.0779 17.7207L77.731 17.352ZM70.691 23.944V24.694H71.455L71.4409 23.9301L70.691 23.944ZM68.195 18.44L67.7032 19.0063L67.7119 19.0137L68.195 18.44ZM56.611 18.376L57.1083 18.9374L57.1093 18.9366L56.611 18.376ZM53.859 23.944L53.1165 23.8379L52.9942 24.694H53.859V23.944ZM79.221 26.504C79.221 27.7518 79.1377 28.8615 78.9752 29.8367L80.4548 30.0833C80.6336 29.0104 80.721 27.8162 80.721 26.504H79.221ZM79.715 29.21H53.795V30.71H79.715V29.21ZM53.0476 30.0223C53.2733 32.7306 54.2317 34.9258 55.9755 36.5282L56.9905 35.4238C55.577 34.1249 54.7434 32.3094 54.5424 29.8977L53.0476 30.0223ZM55.9755 36.5282C57.7035 38.1161 59.8304 38.902 62.307 38.902V37.402C60.1757 37.402 58.4199 36.7372 56.9905 35.4238L55.9755 36.5282ZM62.307 38.902C64.0797 38.902 65.6439 38.5205 66.9666 37.7221C68.2912 36.9225 69.3263 35.7334 70.0838 34.1954L68.7382 33.5326C68.0877 34.8533 67.2348 35.8081 66.1914 36.4379C65.1461 37.0688 63.8623 37.402 62.307 37.402V38.902ZM69.411 34.614H79.075V33.114H69.411V34.614ZM78.3566 33.6485C77.3792 36.9066 75.5107 39.5909 72.7314 41.7162L73.6426 42.9078C76.666 40.5957 78.7228 37.6481 79.7934 34.0795L78.3566 33.6485ZM72.737 41.712C69.9861 43.7752 66.5885 44.826 62.499 44.826V46.326C66.8575 46.326 70.5853 45.2008 73.637 42.912L72.737 41.712ZM62.499 44.826C59.199 44.826 56.2528 44.1053 53.6429 42.678L52.9231 43.994C55.7746 45.5534 58.9724 46.326 62.499 46.326V44.826ZM53.6551 42.6848C51.0893 41.2186 49.0742 39.1649 47.6031 36.5086L46.2909 37.2354C47.8918 40.1258 50.1007 42.3814 52.9109 43.9872L53.6551 42.6848ZM47.6074 36.5164C46.1812 33.8679 45.457 30.7935 45.457 27.272H43.957C43.957 31.0038 44.7261 34.3294 46.2867 37.2276L47.6074 36.5164ZM45.457 27.272C45.457 23.7062 46.1819 20.6109 47.6074 17.9636L46.2867 17.2524C44.7254 20.1518 43.957 23.4991 43.957 27.272H45.457ZM47.6074 17.9636C49.0345 15.3133 51.0238 13.2855 53.5832 11.8636L52.8548 10.5524C50.0382 12.1171 47.8462 14.3561 46.2867 17.2524L47.6074 17.9636ZM53.5832 11.8636C56.1452 10.4403 59.11 9.718 62.499 9.718V8.218C58.8907 8.218 55.6688 8.98904 52.8548 10.5524L53.5832 11.8636ZM62.499 9.718C65.7587 9.718 68.6401 10.4184 71.1624 11.8016L71.8836 10.4864C69.1153 8.96826 65.9807 8.218 62.499 8.218V9.718ZM71.1668 11.804C73.7261 13.1852 75.6898 15.1489 77.071 17.7082L78.391 16.9958C76.8709 14.1791 74.6959 12.0041 71.8792 10.484L71.1668 11.804ZM77.0779 17.7207C78.4994 20.2388 79.221 23.1591 79.221 26.504H80.721C80.721 22.9369 79.9493 19.7559 78.3841 16.9833L77.0779 17.7207ZM71.4409 23.9301C71.3946 21.431 70.4805 19.3842 68.6781 17.8663L67.7119 19.0137C69.1521 20.2265 69.9021 21.849 69.9411 23.9579L71.4409 23.9301ZM68.6868 17.8737C66.9159 16.3359 64.7523 15.578 62.243 15.578V17.078C64.427 17.078 66.2314 17.7281 67.7032 19.0063L68.6868 17.8737ZM62.243 15.578C59.8565 15.578 57.7974 16.3179 56.1127 17.8154L57.1093 18.9366C58.4966 17.7034 60.1922 17.078 62.243 17.078V15.578ZM56.1137 17.8146C54.4608 19.2786 53.4775 21.3111 53.1165 23.8379L54.6015 24.0501C54.9232 21.7983 55.7746 20.1187 57.1083 18.9374L56.1137 17.8146ZM53.859 24.694H70.691V23.194H53.859V24.694ZM124.271 9.544L124.962 9.83463L125.4 8.794H124.271V9.544ZM102.319 61.768V62.518H102.817L103.01 62.0586L102.319 61.768ZM92.783 61.768L92.0952 61.469L91.6391 62.518H92.783V61.768ZM100.463 44.104L101.151 44.403L101.277 44.1122L101.157 43.8188L100.463 44.104ZM86.255 9.544V8.794H85.1358L85.5613 9.82917L86.255 9.544ZM96.303 9.544L97.0065 9.28405L96.8254 8.794H96.303V9.544ZM105.455 34.312L104.751 34.572L105.45 36.4626L106.157 34.5751L105.455 34.312ZM114.735 9.544V8.794H114.215L114.033 9.28086L114.735 9.544ZM123.58 9.25337L101.628 61.4774L103.01 62.0586L124.962 9.83463L123.58 9.25337ZM102.319 61.018H92.783V62.518H102.319V61.018ZM93.4708 62.067L101.151 44.403L99.7752 43.805L92.0952 61.469L93.4708 62.067ZM101.157 43.8188L86.9487 9.25882L85.5613 9.82917L99.7693 44.3892L101.157 43.8188ZM86.255 10.294H96.303V8.794H86.255V10.294ZM95.5995 9.80395L104.751 34.572L106.159 34.052L97.0065 9.28405L95.5995 9.80395ZM106.157 34.5751L115.437 9.80714L114.033 9.28086L104.753 34.0489L106.157 34.5751ZM114.735 10.294H124.271V8.794H114.735V10.294ZM179.615 0.327999H180.365V-0.422001H179.615V0.327999ZM179.615 7.56V8.31H180.365V7.56H179.615ZM160.991 7.56V6.81H160.241V7.56H160.991ZM160.991 19.016H160.241V19.766H160.991V19.016ZM175.263 19.016H176.013V18.266H175.263V19.016ZM175.263 26.12V26.87H176.013V26.12H175.263ZM160.991 26.12V25.37H160.241V26.12H160.991ZM160.991 45V45.75H161.741V45H160.991ZM152.031 45H151.281V45.75H152.031V45ZM152.031 0.327999V-0.422001H151.281V0.327999H152.031ZM178.865 0.327999V7.56H180.365V0.327999H178.865ZM179.615 6.81H160.991V8.31H179.615V6.81ZM160.241 7.56V19.016H161.741V7.56H160.241ZM160.991 19.766H175.263V18.266H160.991V19.766ZM174.513 19.016V26.12H176.013V19.016H174.513ZM175.263 25.37H160.991V26.87H175.263V25.37ZM160.241 26.12V45H161.741V26.12H160.241ZM160.991 44.25H152.031V45.75H160.991V44.25ZM152.781 45V0.327999H151.281V45H152.781ZM152.031 1.078H179.615V-0.422001H152.031V1.078ZM222.513 29.96V30.71H223.148L223.252 30.0833L222.513 29.96ZM196.592 29.96V29.21H195.777L195.845 30.0223L196.592 29.96ZM199.281 35.976L198.773 36.5282L199.281 35.976ZM212.208 33.864V33.114H211.742L211.536 33.5326L212.208 33.864ZM221.872 33.864L222.591 34.0795L222.881 33.114H221.872V33.864ZM215.984 42.312L216.435 42.912L216.44 42.9078L215.984 42.312ZM196.081 43.336L195.708 43.9873L195.721 43.994L196.081 43.336ZM189.745 36.872L189.084 37.2276L189.088 37.2354L189.745 36.872ZM189.745 17.608L189.084 17.2524L189.745 17.608ZM196.017 11.208L196.381 11.8636L196.017 11.208ZM214.32 11.144L213.96 11.8016L213.964 11.804L214.32 11.144ZM220.529 17.352L219.868 17.7082L219.872 17.7145L219.875 17.7207L220.529 17.352ZM213.488 23.944V24.694H214.253L214.238 23.9301L213.488 23.944ZM210.993 18.44L210.501 19.0063L210.509 19.0137L210.993 18.44ZM199.409 18.376L199.906 18.9374L199.907 18.9366L199.409 18.376ZM196.657 23.944L195.914 23.8379L195.792 24.694H196.657V23.944ZM222.019 26.504C222.019 27.7518 221.935 28.8615 221.773 29.8367L223.252 30.0833C223.431 29.0104 223.519 27.8162 223.519 26.504H222.019ZM222.513 29.21H196.592V30.71H222.513V29.21ZM195.845 30.0223C196.071 32.7306 197.029 34.9258 198.773 36.5282L199.788 35.4238C198.375 34.1249 197.541 32.3094 197.34 29.8977L195.845 30.0223ZM198.773 36.5282C200.501 38.1161 202.628 38.902 205.105 38.902V37.402C202.973 37.402 201.217 36.7372 199.788 35.4238L198.773 36.5282ZM205.105 38.902C206.877 38.902 208.441 38.5205 209.764 37.7221C211.089 36.9225 212.124 35.7334 212.881 34.1954L211.536 33.5326C210.885 34.8533 210.032 35.8081 208.989 36.4379C207.944 37.0688 206.66 37.402 205.105 37.402V38.902ZM212.208 34.614H221.872V33.114H212.208V34.614ZM221.154 33.6485C220.177 36.9066 218.308 39.5909 215.529 41.7162L216.44 42.9078C219.464 40.5957 221.52 37.6481 222.591 34.0795L221.154 33.6485ZM215.535 41.712C212.784 43.7752 209.386 44.826 205.297 44.826V46.326C209.655 46.326 213.383 45.2008 216.435 42.912L215.535 41.712ZM205.297 44.826C201.996 44.826 199.05 44.1053 196.44 42.678L195.721 43.994C198.572 45.5534 201.77 46.326 205.297 46.326V44.826ZM196.453 42.6848C193.887 41.2186 191.872 39.1649 190.401 36.5086L189.088 37.2354C190.689 40.1258 192.898 42.3814 195.708 43.9872L196.453 42.6848ZM190.405 36.5164C188.979 33.8679 188.255 30.7935 188.255 27.272H186.755C186.755 31.0038 187.524 34.3294 189.084 37.2276L190.405 36.5164ZM188.255 27.272C188.255 23.7062 188.979 20.6109 190.405 17.9636L189.084 17.2524C187.523 20.1518 186.755 23.4991 186.755 27.272H188.255ZM190.405 17.9636C191.832 15.3133 193.821 13.2855 196.381 11.8636L195.652 10.5524C192.836 12.1171 190.644 14.3561 189.084 17.2524L190.405 17.9636ZM196.381 11.8636C198.943 10.4403 201.907 9.718 205.297 9.718V8.218C201.688 8.218 198.466 8.98904 195.652 10.5524L196.381 11.8636ZM205.297 9.718C208.556 9.718 211.438 10.4184 213.96 11.8016L214.681 10.4864C211.913 8.96826 208.778 8.218 205.297 8.218V9.718ZM213.964 11.804C216.524 13.1852 218.487 15.1489 219.868 17.7082L221.189 16.9958C219.668 14.1791 217.493 12.0041 214.677 10.484L213.964 11.804ZM219.875 17.7207C221.297 20.2388 222.019 23.1591 222.019 26.504H223.519C223.519 22.9369 222.747 19.7559 221.182 16.9833L219.875 17.7207ZM214.238 23.9301C214.192 21.431 213.278 19.3842 211.476 17.8663L210.509 19.0137C211.95 20.2265 212.7 21.849 212.739 23.9579L214.238 23.9301ZM211.484 17.8737C209.713 16.3359 207.55 15.578 205.04 15.578V17.078C207.225 17.078 209.029 17.7281 210.501 19.0063L211.484 17.8737ZM205.04 15.578C202.654 15.578 200.595 16.3179 198.91 17.8154L199.907 18.9366C201.294 17.7034 202.99 17.078 205.04 17.078V15.578ZM198.911 17.8146C197.258 19.2786 196.275 21.3111 195.914 23.8379L197.399 24.0501C197.721 21.7983 198.572 20.1187 199.906 18.9374L198.911 17.8146ZM196.657 24.694H213.488V23.194H196.657V24.694ZM232.956 17.608L232.292 17.2603L232.288 17.2685L232.956 17.608ZM238.781 11.208L238.393 10.5658L238.388 10.5689L238.781 11.208ZM253.948 10.568L253.59 11.227L253.596 11.2302L253.948 10.568ZM258.749 14.6L258.145 15.0449L259.499 16.8822V14.6H258.749ZM258.749 9.544V8.794H257.999V9.544H258.749ZM267.772 9.544H268.522V8.794H267.772V9.544ZM267.772 45V45.75H268.522V45H267.772ZM258.749 45H257.999V45.75H258.749V45ZM258.749 39.816H259.499V37.4151L258.132 39.3891L258.749 39.816ZM253.948 43.976L254.301 44.6382L254.306 44.6355L253.948 43.976ZM238.781 43.272L238.38 43.9061L238.385 43.9092L238.781 43.272ZM232.956 36.808L232.286 37.1435L232.292 37.1556L232.956 36.808ZM257.469 21.704L256.809 22.0607L256.813 22.0682L257.469 21.704ZM254.013 18.12L253.632 18.7664L253.639 18.7707L253.647 18.7747L254.013 18.12ZM244.732 18.056L244.358 17.406L244.732 18.056ZM241.277 21.64L240.624 21.2698L240.621 21.2758L241.277 21.64ZM241.277 32.776L240.613 33.1253L240.618 33.1358L240.624 33.1462L241.277 32.776ZM244.732 36.424L244.344 37.0655L244.352 37.0704L244.732 36.424ZM254.013 36.488L254.378 37.1427L254.386 37.1387L254.393 37.1344L254.013 36.488ZM257.469 32.904L258.124 33.2683L258.128 33.2606L257.469 32.904ZM231.594 27.144C231.594 23.66 232.278 20.6007 233.625 17.9475L232.288 17.2685C230.819 20.162 230.094 23.46 230.094 27.144H231.594ZM233.621 17.9556C235.015 15.2903 236.867 13.2629 239.173 11.8471L238.388 10.5689C235.83 12.1398 233.799 14.3791 232.292 17.2604L233.621 17.9556ZM239.168 11.8501C241.52 10.4308 244.137 9.718 247.036 9.718V8.218C243.877 8.218 240.99 8.9985 238.393 10.5659L239.168 11.8501ZM247.036 9.718C249.58 9.718 251.756 10.2302 253.59 11.227L254.307 9.90903C252.215 8.77251 249.784 8.218 247.036 8.218V9.718ZM253.596 11.2302C255.515 12.2509 257.025 13.5248 258.145 15.0449L259.352 14.1551C258.083 12.4325 256.392 11.0184 254.301 9.90584L253.596 11.2302ZM259.499 14.6V9.544H257.999V14.6H259.499ZM258.749 10.294H267.772V8.794H258.749V10.294ZM267.022 9.544V45H268.522V9.544H267.022ZM267.772 44.25H258.749V45.75H267.772V44.25ZM259.499 45V39.816H257.999V45H259.499ZM258.132 39.3891C257.056 40.9426 255.551 42.2548 253.591 43.3165L254.306 44.6355C256.442 43.4785 258.137 42.0174 259.365 40.2429L258.132 39.3891ZM253.596 43.3138C251.716 44.314 249.515 44.826 246.973 44.826V46.326C249.72 46.326 252.17 45.7713 254.301 44.6382L253.596 43.3138ZM246.973 44.826C244.122 44.826 241.529 44.0951 239.176 42.6348L238.385 43.9092C240.982 45.5209 243.85 46.326 246.973 46.326V44.826ZM239.181 42.6379C236.87 41.1786 235.016 39.1272 233.621 36.4604L232.292 37.1556C233.798 40.0354 235.827 42.2934 238.38 43.9061L239.181 42.6379ZM233.627 36.4726C232.279 33.7755 231.594 30.672 231.594 27.144H230.094C230.094 30.8694 230.818 34.2085 232.286 37.1434L233.627 36.4726ZM259.499 27.272C259.499 24.9986 259.052 23.0108 258.124 21.3398L256.813 22.0682C257.591 23.4692 257.999 25.1934 257.999 27.272H259.499ZM258.128 21.3474C257.213 19.6539 255.963 18.351 254.378 17.4653L253.647 18.7747C254.963 19.5104 256.017 20.5968 256.809 22.0606L258.128 21.3474ZM254.393 17.4735C252.828 16.5532 251.14 16.09 249.34 16.09V17.59C250.869 17.59 252.295 17.9801 253.632 18.7664L254.393 17.4735ZM249.34 16.09C247.548 16.09 245.883 16.5282 244.358 17.406L245.107 18.706C246.398 17.9625 247.805 17.59 249.34 17.59V16.09ZM244.358 17.406C242.821 18.2911 241.578 19.5887 240.624 21.2698L241.929 22.0102C242.767 20.5339 243.828 19.4423 245.107 18.706L244.358 17.406ZM240.621 21.2758C239.694 22.9447 239.247 24.9103 239.247 27.144H240.747C240.747 25.111 241.153 23.4073 241.932 22.0042L240.621 21.2758ZM239.247 27.144C239.247 29.379 239.694 31.3798 240.613 33.1253L241.94 32.4267C241.152 30.9295 240.747 29.1757 240.747 27.144H239.247ZM240.624 33.1462C241.577 34.8246 242.815 36.139 244.344 37.0654L245.121 35.7826C243.834 35.0023 242.768 33.8847 241.929 32.4058L240.624 33.1462ZM244.352 37.0704C245.914 37.9889 247.58 38.454 249.34 38.454V36.954C247.858 36.954 246.453 36.5658 245.113 35.7775L244.352 37.0704ZM249.34 38.454C251.132 38.454 252.816 38.0159 254.378 37.1427L253.647 35.8333C252.308 36.5814 250.877 36.954 249.34 36.954V38.454ZM254.393 37.1344C255.964 36.2102 257.209 34.9158 258.124 33.2682L256.813 32.5398C256.022 33.9642 254.962 35.0591 253.632 35.8415L254.393 37.1344ZM258.128 33.2606C259.052 31.5514 259.499 29.5463 259.499 27.272H257.999C257.999 29.3497 257.591 31.0992 256.809 32.5474L258.128 33.2606ZM290.796 16.904V16.154H290.046V16.904H290.796ZM291.628 36.68L291.097 37.2103L291.118 37.2307L291.139 37.2494L291.628 36.68ZM298.732 37.448H299.482V36.698H298.732V37.448ZM298.732 45V45.75H299.482V45H298.732ZM281.772 16.904H282.522V16.154H281.772V16.904ZM277.548 16.904H276.798V17.654H277.548V16.904ZM277.548 9.544V8.794H276.798V9.544H277.548ZM281.772 9.544V10.294H282.522V9.544H281.772ZM281.772 0.775997V0.0259972H281.022V0.775997H281.772ZM290.796 0.775997H291.546V0.0259972H290.796V0.775997ZM290.796 9.544H290.046V10.294H290.796V9.544ZM298.732 9.544H299.482V8.794H298.732V9.544ZM298.732 16.904V17.654H299.482V16.904H298.732ZM290.046 16.904V34.056H291.546V16.904H290.046ZM290.046 34.056C290.046 35.3474 290.343 36.4563 291.097 37.2103L292.158 36.1497C291.803 35.7944 291.546 35.1539 291.546 34.056H290.046ZM291.139 37.2494C291.942 37.9374 293.147 38.198 294.572 38.198V36.698C293.266 36.698 292.508 36.4466 292.116 36.1106L291.139 37.2494ZM294.572 38.198H298.732V36.698H294.572V38.198ZM297.982 37.448V45H299.482V37.448H297.982ZM298.732 44.25H293.1V45.75H298.732V44.25ZM293.1 44.25C289.434 44.25 286.823 43.3593 285.126 41.7101C283.433 40.0648 282.522 37.5402 282.522 33.992H281.022C281.022 37.7825 281.998 40.7618 284.081 42.7859C286.16 44.806 289.213 45.75 293.1 45.75V44.25ZM282.522 33.992V16.904H281.022V33.992H282.522ZM281.772 16.154H277.548V17.654H281.772V16.154ZM278.298 16.904V9.544H276.798V16.904H278.298ZM277.548 10.294H281.772V8.794H277.548V10.294ZM282.522 9.544V0.775997H281.022V9.544H282.522ZM281.772 1.526H290.796V0.0259972H281.772V1.526ZM290.046 0.775997V9.544H291.546V0.775997H290.046ZM290.796 10.294H298.732V8.794H290.796V10.294ZM297.982 9.544V16.904H299.482V9.544H297.982ZM298.732 16.154H290.796V17.654H298.732V16.154ZM342.488 9.544H343.238V8.794H342.488V9.544ZM342.488 45V45.75H343.238V45H342.488ZM333.464 45H332.714V45.75H333.464V45ZM333.464 40.52H334.214V38.27L332.864 40.07L333.464 40.52ZM328.92 44.168L329.236 44.8481L329.243 44.8449L328.92 44.168ZM315.544 43.72L315.178 44.3745L315.188 44.3799L315.544 43.72ZM310.488 38.536L309.822 38.8812L309.826 38.8887L309.83 38.896L310.488 38.536ZM308.696 9.544V8.794H307.946V9.544H308.696ZM317.656 9.544H318.406V8.794H317.656V9.544ZM319.768 35.592L319.215 36.0988L319.222 36.1065L319.768 35.592ZM331.352 35.592L331.898 36.1066L331.905 36.0988L331.352 35.592ZM333.464 9.544V8.794H332.714V9.544H333.464ZM341.738 9.544V45H343.238V9.544H341.738ZM342.488 44.25H333.464V45.75H342.488V44.25ZM334.214 45V40.52H332.714V45H334.214ZM332.864 40.07C331.791 41.5012 330.374 42.6428 328.597 43.4911L329.243 44.8449C331.22 43.9012 332.833 42.6108 334.064 40.97L332.864 40.07ZM328.604 43.488C326.875 44.2918 324.979 44.698 322.904 44.698V46.198C325.181 46.198 327.295 45.7509 329.236 44.848L328.604 43.488ZM322.904 44.698C320.237 44.698 317.909 44.1449 315.9 43.0601L315.188 44.3799C317.445 45.5991 320.024 46.198 322.904 46.198V44.698ZM315.91 43.0656C313.907 41.9436 312.32 40.3208 311.146 38.176L309.83 38.896C311.131 41.2739 312.915 43.1071 315.178 44.3744L315.91 43.0656ZM311.154 38.1908C310.025 36.0141 309.446 33.4069 309.446 30.344H307.946C307.946 33.5958 308.561 36.4499 309.822 38.8812L311.154 38.1908ZM309.446 30.344V9.544H307.946V30.344H309.446ZM308.696 10.294H317.656V8.794H308.696V10.294ZM316.906 9.544V29.064H318.406V9.544H316.906ZM316.906 29.064C316.906 32.0007 317.641 34.382 319.215 36.0988L320.321 35.0852C319.079 33.73 318.406 31.7593 318.406 29.064H316.906ZM319.222 36.1065C320.798 37.7778 322.931 38.582 325.528 38.582V37.082C323.261 37.082 321.554 36.3928 320.314 35.0775L319.222 36.1065ZM325.528 38.582C328.163 38.582 330.319 37.7805 331.898 36.1065L330.806 35.0775C329.569 36.3901 327.842 37.082 325.528 37.082V38.582ZM331.905 36.0988C333.479 34.382 334.214 32.0007 334.214 29.064H332.714C332.714 31.7593 332.041 33.73 330.799 35.0852L331.905 36.0988ZM334.214 29.064V9.544H332.714V29.064H334.214ZM333.464 10.294H342.488V8.794H333.464V10.294ZM364.129 15.048H363.379V17.7042L364.768 15.4403L364.129 15.048ZM368.608 10.632L368.238 9.97988L368.232 9.98362L368.608 10.632ZM375.009 9.032H375.759V8.282H375.009V9.032ZM375.009 18.44V19.19H375.759V18.44H375.009ZM366.241 20.424L365.735 19.8697L365.727 19.8774L366.241 20.424ZM364.129 45V45.75H364.879V45H364.129ZM355.169 45H354.419V45.75H355.169V45ZM355.169 9.544V8.794H354.419V9.544H355.169ZM364.129 9.544H364.879V8.794H364.129V9.544ZM364.768 15.4403C365.857 13.6645 367.262 12.2823 368.985 11.2804L368.232 9.98362C366.285 11.1151 364.704 12.6768 363.489 14.6557L364.768 15.4403ZM368.979 11.2841C370.732 10.2883 372.735 9.782 375.009 9.782V8.282C372.503 8.282 370.24 8.84241 368.238 9.97991L368.979 11.2841ZM374.259 9.032V18.44H375.759V9.032H374.259ZM375.009 17.69H372.641V19.19H375.009V17.69ZM372.641 17.69C369.718 17.69 367.374 18.3758 365.735 19.8698L366.746 20.9782C368.009 19.8269 369.931 19.19 372.641 19.19V17.69ZM365.727 19.8774C364.091 21.4142 363.379 23.9809 363.379 27.336H364.879C364.879 24.1205 365.574 22.0791 366.754 20.9706L365.727 19.8774ZM363.379 27.336V45H364.879V27.336H363.379ZM364.129 44.25H355.169V45.75H364.129V44.25ZM355.919 45V9.544H354.419V45H355.919ZM355.169 10.294H364.129V8.794H355.169V10.294ZM363.379 9.544V15.048H364.879V9.544H363.379ZM417.587 29.96V30.71H418.223L418.327 30.0833L417.587 29.96ZM391.668 29.96V29.21H390.852L390.92 30.0223L391.668 29.96ZM394.355 35.976L393.848 36.5282L394.355 35.976ZM407.284 33.864V33.114H406.817L406.611 33.5326L407.284 33.864ZM416.948 33.864L417.666 34.0795L417.956 33.114H416.948V33.864ZM411.06 42.312L411.51 42.912L411.515 42.9078L411.06 42.312ZM391.155 43.336L390.783 43.9873L390.796 43.994L391.155 43.336ZM384.819 36.872L384.159 37.2276L384.163 37.2354L384.819 36.872ZM384.819 17.608L384.159 17.2524L384.819 17.608ZM391.091 11.208L391.456 11.8636L391.091 11.208ZM409.396 11.144L409.035 11.8016L409.039 11.804L409.396 11.144ZM415.604 17.352L414.943 17.7082L414.947 17.7145L414.95 17.7207L415.604 17.352ZM408.564 23.944V24.694H409.328L409.313 23.9301L408.564 23.944ZM406.068 18.44L405.576 19.0063L405.584 19.0137L406.068 18.44ZM394.483 18.376L394.981 18.9374L394.982 18.9366L394.483 18.376ZM391.732 23.944L390.989 23.8379L390.867 24.694H391.732V23.944ZM417.094 26.504C417.094 27.7518 417.01 28.8615 416.848 29.8367L418.327 30.0833C418.506 29.0104 418.594 27.8162 418.594 26.504H417.094ZM417.587 29.21H391.668V30.71H417.587V29.21ZM390.92 30.0223C391.146 32.7306 392.104 34.9258 393.848 36.5282L394.863 35.4238C393.449 34.1249 392.616 32.3094 392.415 29.8977L390.92 30.0223ZM393.848 36.5282C395.576 38.1161 397.703 38.902 400.18 38.902V37.402C398.048 37.402 396.292 36.7372 394.863 35.4238L393.848 36.5282ZM400.18 38.902C401.952 38.902 403.516 38.5205 404.839 37.7221C406.164 36.9225 407.199 35.7334 407.956 34.1954L406.611 33.5326C405.96 34.8533 405.107 35.8081 404.064 36.4379C403.019 37.0688 401.735 37.402 400.18 37.402V38.902ZM407.284 34.614H416.948V33.114H407.284V34.614ZM416.229 33.6485C415.252 36.9066 413.383 39.5909 410.604 41.7162L411.515 42.9078C414.539 40.5957 416.595 37.6481 417.666 34.0795L416.229 33.6485ZM410.609 41.712C407.859 43.7752 404.461 44.826 400.371 44.826V46.326C404.73 46.326 408.458 45.2008 411.509 42.912L410.609 41.712ZM400.371 44.826C397.071 44.826 394.125 44.1053 391.515 42.678L390.796 43.994C393.647 45.5534 396.845 46.326 400.371 46.326V44.826ZM391.528 42.6848C388.962 41.2186 386.947 39.1649 385.476 36.5086L384.163 37.2354C385.764 40.1258 387.973 42.3814 390.783 43.9872L391.528 42.6848ZM385.48 36.5164C384.054 33.8679 383.329 30.7935 383.329 27.272H381.829C381.829 31.0038 382.599 34.3294 384.159 37.2276L385.48 36.5164ZM383.329 27.272C383.329 23.7062 384.054 20.6109 385.48 17.9636L384.159 17.2524C382.598 20.1518 381.829 23.4991 381.829 27.272H383.329ZM385.48 17.9636C386.907 15.3133 388.896 13.2855 391.456 11.8636L390.727 10.5524C387.911 12.1171 385.719 14.3561 384.159 17.2524L385.48 17.9636ZM391.456 11.8636C394.018 10.4403 396.982 9.718 400.371 9.718V8.218C396.763 8.218 393.541 8.98904 390.727 10.5524L391.456 11.8636ZM400.371 9.718C403.631 9.718 406.513 10.4184 409.035 11.8016L409.756 10.4864C406.988 8.96826 403.853 8.218 400.371 8.218V9.718ZM409.039 11.804C411.599 13.1852 413.562 15.1489 414.943 17.7082L416.264 16.9958C414.743 14.1791 412.568 12.0041 409.752 10.484L409.039 11.804ZM414.95 17.7207C416.372 20.2388 417.094 23.1591 417.094 26.504H418.594C418.594 22.9369 417.822 19.7559 416.257 16.9833L414.95 17.7207ZM409.313 23.9301C409.267 21.431 408.353 19.3842 406.551 17.8663L405.584 19.0137C407.025 20.2265 407.775 21.849 407.814 23.9579L409.313 23.9301ZM406.559 17.8737C404.788 16.3359 402.625 15.578 400.116 15.578V17.078C402.3 17.078 404.104 17.7281 405.576 19.0063L406.559 17.8737ZM400.116 15.578C397.729 15.578 395.67 16.3179 393.985 17.8154L394.982 18.9366C396.369 17.7034 398.065 17.078 400.116 17.078V15.578ZM393.986 17.8146C392.333 19.2786 391.35 21.3111 390.989 23.8379L392.474 24.0501C392.796 21.7983 393.647 20.1187 394.981 18.9374L393.986 17.8146ZM391.732 24.694H408.564V23.194H391.732V24.694ZM433.983 44.04L433.668 44.7207L433.679 44.7254L433.983 44.04ZM428.479 39.752L427.876 40.1974L427.883 40.2065L428.479 39.752ZM426.303 33.8V33.05H425.508L425.555 33.844L426.303 33.8ZM435.327 33.8L436.072 33.707L435.99 33.05H435.327V33.8ZM437.311 37.192L436.851 37.7841L436.861 37.792L437.311 37.192ZM445.695 37.512L445.267 36.8963L445.261 36.9008L445.254 36.9054L445.695 37.512ZM445.375 32.328L445.03 32.9938L445.045 33.0014L445.06 33.0083L445.375 32.328ZM439.807 30.408L440.001 29.6833L439.992 29.6811L439.984 29.679L439.807 30.408ZM433.279 28.424L432.995 29.1179L433.001 29.1204L433.279 28.424ZM428.927 25.288L428.356 25.7733L428.364 25.7831L428.927 25.288ZM428.799 14.216L428.188 13.7815L428.181 13.7925L428.799 14.216ZM433.663 10.376L433.361 9.68949L433.356 9.6918L433.663 10.376ZM451.263 12.168L450.779 12.7402L450.784 12.745L451.263 12.168ZM455.423 20.68V21.43H456.229L456.172 20.6266L455.423 20.68ZM446.848 20.68L446.101 20.7479L446.163 21.43H446.848V20.68ZM445.055 17.352L444.575 17.9282L444.588 17.9389L444.602 17.9491L445.055 17.352ZM437.12 16.968L436.703 16.344L436.696 16.3487L436.689 16.3536L437.12 16.968ZM437.632 22.216L437.277 22.8771L437.287 22.8821L437.296 22.8868L437.632 22.216ZM443.199 24.072L443.015 24.7989L443.018 24.7996L443.199 24.072ZM453.823 29.256L453.245 29.7328L453.252 29.7421L453.26 29.7511L453.823 29.256ZM455.743 34.888H456.494L456.493 34.8744L455.743 34.888ZM454.016 40.392L453.404 39.9575L453.397 39.9685L454.016 40.392ZM449.151 44.232L449.447 44.9214L449.454 44.9185L449.151 44.232ZM441.792 44.826C438.979 44.826 436.483 44.3301 434.288 43.3546L433.679 44.7254C436.092 45.7979 438.801 46.326 441.792 46.326V44.826ZM434.299 43.3594C432.091 42.3374 430.358 40.9805 429.076 39.2975L427.883 40.2065C429.331 42.1075 431.268 43.6092 433.668 44.7206L434.299 43.3594ZM429.083 39.3066C427.845 37.6288 427.171 35.7836 427.052 33.756L425.555 33.844C425.692 36.1684 426.469 38.2912 427.876 40.1974L429.083 39.3066ZM426.303 34.55H435.327V33.05H426.303V34.55ZM434.583 33.893C434.78 35.4686 435.553 36.7741 436.851 37.784L437.772 36.6C436.766 35.8179 436.216 34.862 436.072 33.707L434.583 33.893ZM436.861 37.792C438.207 38.8013 439.845 39.286 441.728 39.286V37.786C440.112 37.786 438.805 37.3747 437.762 36.592L436.861 37.792ZM441.728 39.286C443.521 39.286 445.022 38.929 446.137 38.1186L445.254 36.9054C444.491 37.4603 443.347 37.786 441.728 37.786V39.286ZM446.124 38.1277C447.278 37.3245 447.917 36.2328 447.917 34.888H446.417C446.417 35.6766 446.075 36.3342 445.267 36.8963L446.124 38.1277ZM447.917 34.888C447.917 34.1752 447.73 33.5199 447.334 32.9539C446.942 32.3939 446.377 31.9662 445.691 31.6477L445.06 33.0083C445.568 33.2444 445.9 33.5207 446.105 33.8141C446.306 34.1014 446.417 34.4488 446.417 34.888H447.917ZM445.721 31.6622C444.493 31.0254 442.571 30.3687 440.001 29.6833L439.614 31.1327C442.164 31.8127 443.954 32.4359 445.03 32.9938L445.721 31.6622ZM439.984 29.679C437.358 29.0439 435.22 28.3923 433.558 27.7276L433.001 29.1204C434.753 29.821 436.966 30.4921 439.631 31.137L439.984 29.679ZM433.564 27.7301C432.012 27.0932 430.655 26.1178 429.491 24.7929L428.364 25.7831C429.674 27.2742 431.219 28.3895 432.995 29.1179L433.564 27.7301ZM429.499 24.8028C428.45 23.566 427.885 21.8568 427.885 19.592H426.385C426.385 22.1058 427.016 24.194 428.356 25.7732L429.499 24.8028ZM427.885 19.592C427.885 17.7806 428.394 16.1362 429.418 14.6395L428.181 13.7925C426.986 15.5384 426.385 17.478 426.385 19.592H427.885ZM429.411 14.6504C430.474 13.1536 431.983 11.9526 433.971 11.0602L433.356 9.6918C431.163 10.6767 429.429 12.0357 428.188 13.7816L429.411 14.6504ZM433.966 11.0625C435.985 10.1741 438.374 9.718 441.151 9.718V8.218C438.212 8.218 435.609 8.70061 433.361 9.68951L433.966 11.0625ZM441.151 9.718C445.249 9.718 448.431 10.7507 450.779 12.7402L451.748 11.5958C449.061 9.31859 445.502 8.218 441.151 8.218V9.718ZM450.784 12.745C453.128 14.6915 454.432 17.3312 454.675 20.7334L456.172 20.6266C455.903 16.8608 454.434 13.8258 451.743 11.591L450.784 12.745ZM455.423 19.93H446.848V21.43H455.423V19.93ZM447.594 20.6121C447.449 19.0074 446.754 17.7007 445.509 16.7549L444.602 17.9491C445.491 18.6246 445.99 19.5366 446.101 20.7479L447.594 20.6121ZM445.536 16.7758C444.34 15.7792 442.765 15.322 440.896 15.322V16.822C442.525 16.822 443.723 17.2182 444.575 17.9282L445.536 16.7758ZM440.896 15.322C439.196 15.322 437.77 15.6327 436.703 16.344L437.536 17.592C438.261 17.1086 439.352 16.822 440.896 16.822V15.322ZM436.689 16.3536C435.63 17.0952 435.09 18.1596 435.09 19.464H436.59C436.59 18.6351 436.902 18.0354 437.55 17.5824L436.689 16.3536ZM435.09 19.464C435.09 20.1928 435.274 20.8657 435.659 21.4573C436.041 22.0439 436.595 22.5116 437.277 22.8771L437.986 21.5549C437.473 21.2804 437.131 20.9694 436.916 20.6387C436.704 20.3129 436.59 19.9298 436.59 19.464H435.09ZM437.296 22.8868C438.565 23.5212 440.484 24.1556 443.015 24.7989L443.384 23.3451C440.88 22.7084 439.087 22.1054 437.967 21.5452L437.296 22.8868ZM443.018 24.7996C445.557 25.4345 447.632 26.0856 449.251 26.7499L449.82 25.3621C448.111 24.661 445.962 23.9895 443.381 23.3444L443.018 24.7996ZM449.251 26.7499C450.795 27.3834 452.125 28.3732 453.245 29.7328L454.402 28.7792C453.133 27.2375 451.604 26.0939 449.82 25.3621L449.251 26.7499ZM453.26 29.7511C454.353 30.9948 454.953 32.6863 454.994 34.9016L456.493 34.8744C456.448 32.3963 455.769 30.3332 454.387 28.7609L453.26 29.7511ZM454.993 34.888C454.993 36.7853 454.463 38.4671 453.404 39.9576L454.627 40.8264C455.872 39.0742 456.493 37.0867 456.493 34.888H454.993ZM453.397 39.9685C452.38 41.4543 450.879 42.6526 448.849 43.5455L449.454 44.9185C451.691 43.9341 453.432 42.5724 454.634 40.8155L453.397 39.9685ZM448.856 43.5426C446.878 44.3903 444.529 44.826 441.792 44.826V46.326C444.686 46.326 447.244 45.8657 449.447 44.9214L448.856 43.5426Z" fill="url(#paint0_linear_1704_14185)"/>
<defs>
<linearGradient id="paint0_linear_1704_14185" x1="94.3575" y1="-98.1539" x2="60.8365" y2="70.8593" gradientUnits="userSpaceOnUse">
<stop stop-color="#2DD1DB"/>
<stop offset="0.60721" stop-color="#2D9CDB"/>
<stop offset="1" stop-color="#1A8ED0"/>
</linearGradient>
</defs>
</svg>
