<svg width="44" height="44" viewBox="0 0 44 44" fill="none" xmlns="http://www.w3.org/2000/svg">
<path d="M39.875 12.375V26.125C39.875 27.6375 38.6375 28.875 37.125 28.875H23.375C21.8625 28.875 20.625 27.6375 20.625 26.125V12.375C20.625 10.8625 21.8625 9.625 23.375 9.625H37.125C38.6375 9.625 39.875 10.8625 39.875 12.375ZM38.5 37.125H5.5C4.741 37.125 4.125 37.7396 4.125 38.5C4.125 39.2604 4.741 39.875 5.5 39.875H38.5C39.259 39.875 39.875 39.2604 39.875 38.5C39.875 37.7396 39.259 37.125 38.5 37.125ZM5.5 34.375H38.5C39.259 34.375 39.875 33.7604 39.875 33C39.875 32.2396 39.259 31.625 38.5 31.625H5.5C4.741 31.625 4.125 32.2396 4.125 33C4.125 33.7604 4.741 34.375 5.5 34.375ZM5.5 28.875H16.5C17.259 28.875 17.875 28.2604 17.875 27.5C17.875 26.7396 17.259 26.125 16.5 26.125H5.5C4.741 26.125 4.125 26.7396 4.125 27.5C4.125 28.2604 4.741 28.875 5.5 28.875ZM5.5 23.375H16.5C17.259 23.375 17.875 22.7604 17.875 22C17.875 21.2396 17.259 20.625 16.5 20.625H5.5C4.741 20.625 4.125 21.2396 4.125 22C4.125 22.7604 4.741 23.375 5.5 23.375ZM5.5 17.875H16.5C17.259 17.875 17.875 17.2604 17.875 16.5C17.875 15.7396 17.259 15.125 16.5 15.125H5.5C4.741 15.125 4.125 15.7396 4.125 16.5C4.125 17.2604 4.741 17.875 5.5 17.875ZM5.5 12.375H16.5C17.259 12.375 17.875 11.7604 17.875 11C17.875 10.2396 17.259 9.625 16.5 9.625H5.5C4.741 9.625 4.125 10.2396 4.125 11C4.125 11.7604 4.741 12.375 5.5 12.375ZM5.5 6.875H38.5C39.259 6.875 39.875 6.26038 39.875 5.5C39.875 4.73963 39.259 4.125 38.5 4.125H5.5C4.741 4.125 4.125 4.73963 4.125 5.5C4.125 6.26038 4.741 6.875 5.5 6.875Z" fill="white"/>
</svg>
