<svg width="78" height="106" viewBox="0 0 78 106" fill="none" xmlns="http://www.w3.org/2000/svg">
<path d="M24.0713 68.9486L19.029 70.6656L32.5844 110.473C33.4832 113.113 35.4077 115.282 37.9345 116.505C40.4612 117.727 43.3833 117.902 46.058 116.991L71.2696 108.406L54.3253 58.6464L24.0713 68.9486ZM89.6216 46.6272L64.4099 55.2124L81.3543 104.972L106.566 96.387C109.241 95.4763 111.449 93.5543 112.704 91.0439C113.96 88.5336 114.16 85.6404 113.262 83.001L99.7062 43.1932L89.6216 46.6272ZM85.1379 20.3892C85.0536 17.7179 84.5517 15.0791 83.6501 12.5663C80.3798 2.9627 69.8031 -2.15386 60.0714 1.16C51.8928 3.94502 48.9431 13.179 48.1347 22.3557C42.0934 16.0001 33.695 10.1418 24.7751 13.1792C15.0434 16.493 9.78724 27.0011 13.0575 36.6047C14.0674 39.5704 15.3011 41.8879 16.653 43.7098L0.472164 49.2197L7.2499 69.1237L52.6308 53.6704L49.242 43.7185L59.3266 40.2844L62.7155 50.2364L108.096 34.7832L101.319 14.8792L85.1379 20.3892ZM23.1421 33.1706C21.7409 29.0555 23.994 24.5511 28.164 23.1311C32.6416 21.6064 39.3905 27.7765 44.3303 34.2851L30.7261 38.9176C28.8403 39.5598 25.6838 40.6346 23.1421 33.1706ZM63.4603 11.112C67.6303 9.69198 72.1641 11.8853 73.5654 16.0004C76.1071 23.4644 72.9506 24.5392 71.0647 25.1814L58.5749 29.4345C58.4761 20.7166 59.7995 12.3585 63.4603 11.112Z" fill="white" fill-opacity="0.2"/>
</svg>
