<svg width="48" height="49" viewBox="0 0 48 49" fill="none" xmlns="http://www.w3.org/2000/svg">
<path d="M24 0.0585938C14.3945 0.0585938 6.29908 6.71582 3.69231 15.8081C1.36246 17.2112 0 19.914 0 23.0783C0 27.666 2.79692 31.386 7.38462 31.386C7.87425 31.386 8.34382 31.1915 8.69004 30.8453C9.03626 30.499 9.23077 30.0295 9.23077 29.5398V16.6167C9.23077 15.7675 8.62708 15.1011 7.84615 14.8851C10.5415 8.27213 16.7631 3.63829 24 3.63829C31.2369 3.63829 37.4585 8.27213 40.1538 14.8869C39.3729 15.1029 38.7692 15.7675 38.7692 16.6167V29.5398C38.7692 30.0295 38.9637 30.499 39.31 30.8453C39.6562 31.1915 40.1258 31.386 40.6154 31.386C41.0455 31.386 41.4295 31.3343 41.8265 31.2697C41.2302 34.7146 39.7828 37.2826 38.3077 39.0604C37.5524 39.9781 36.6797 40.7925 35.712 41.4826C35.4376 41.6782 35.1481 41.8517 34.8462 42.0014C34.7391 42.0531 34.6505 42.1011 34.6154 42.1177H31.1538C30.4892 40.1866 28.3735 38.7706 25.8462 38.7706C22.7871 38.7706 20.3077 40.8383 20.3077 43.386C20.3077 45.9337 22.7871 48.0014 25.8462 48.0014C28.3735 48.0014 30.4892 46.5835 31.1538 44.6543H34.7889C35.4129 44.6543 35.5717 44.4881 35.9428 44.3091C36.312 44.1281 36.7495 43.8826 37.2111 43.5595C38.1342 42.9134 39.2511 41.9718 40.3274 40.674C42.2732 38.3294 44.0862 34.8494 44.5385 30.1749C46.7169 28.7275 48 26.1281 48 23.0783C48 19.914 46.6375 17.2131 44.3077 15.8081C41.7009 6.71582 33.6055 0.0604399 24 0.0604399V0.0585938Z" fill="white"/>
</svg>
