<svg width="48" height="48" viewBox="0 0 48 48" fill="none" xmlns="http://www.w3.org/2000/svg">
<mask id="path-1-inside-1_1704_14136" fill="white">
<path d="M22.6875 39.0857V36.6977C22.6875 36.1009 22.4504 35.5286 22.0285 35.1067C21.6065 34.6847 21.0342 34.4477 20.4375 34.4477H3.9375C3.34076 34.4477 2.76847 34.6847 2.34651 35.1067C1.92455 35.5286 1.6875 36.1009 1.6875 36.6977V39.0857C1.25032 39.2402 0.871569 39.5261 0.603066 39.9041C0.334563 40.2822 0.189422 40.734 0.1875 41.1977L0.1875 44.1977C0.1875 44.3966 0.266518 44.5873 0.40717 44.728C0.547822 44.8686 0.738588 44.9477 0.9375 44.9477H23.4375C23.6364 44.9477 23.8272 44.8686 23.9678 44.728C24.1085 44.5873 24.1875 44.3966 24.1875 44.1977V41.1977C24.1856 40.734 24.0404 40.2822 23.7719 39.9041C23.5034 39.5261 23.1247 39.2402 22.6875 39.0857ZM3.1875 36.6977C3.1875 36.4988 3.26652 36.308 3.40717 36.1673C3.54782 36.0267 3.73859 35.9477 3.9375 35.9477H20.4375C20.6364 35.9477 20.8272 36.0267 20.9678 36.1673C21.1085 36.308 21.1875 36.4988 21.1875 36.6977V38.9477H3.1875V36.6977ZM22.6875 43.4477H1.6875V41.1977C1.6875 40.9988 1.76652 40.808 1.90717 40.6673C2.04782 40.5267 2.23859 40.4477 2.4375 40.4477H21.9375C22.1364 40.4477 22.3272 40.5267 22.4678 40.6673C22.6085 40.808 22.6875 40.9988 22.6875 41.1977V43.4477ZM46.8525 39.7667L27.9375 20.8562L31.4145 17.3792C31.6641 17.4494 31.9217 17.4872 32.181 17.4917C32.7739 17.4912 33.3535 17.3151 33.8464 16.9855C34.3393 16.656 34.7235 16.1877 34.9504 15.6399C35.1774 15.0921 35.2369 14.4894 35.1215 13.9078C35.0061 13.3262 34.7209 12.7918 34.302 12.3722L25.8225 3.88516C25.3579 3.41631 24.7511 3.11443 24.0969 3.02659C23.4427 2.93875 22.7778 3.06991 22.206 3.39959C21.6341 3.72927 21.1874 4.23895 20.9356 4.84912C20.6839 5.45929 20.6411 6.13563 20.814 6.77266L9.618 17.9702C8.98126 17.7986 8.30568 17.8423 7.69634 18.0944C7.08701 18.3466 6.57807 18.793 6.24871 19.3643C5.91934 19.9356 5.78801 20.5997 5.87514 21.2534C5.96228 21.907 6.26299 22.5136 6.7305 22.9787L15.216 31.4642C15.7786 32.0266 16.5415 32.3425 17.337 32.3425C18.1325 32.3425 18.8954 32.0266 19.458 31.4642C19.8279 31.0921 20.0935 30.6294 20.228 30.1223C20.3625 29.6152 20.3613 29.0816 20.2245 28.5752L23.7015 25.0982L42.6105 44.0087C42.8872 44.2952 43.2183 44.5237 43.5843 44.681C43.9503 44.8382 44.344 44.921 44.7423 44.9244C45.1406 44.9279 45.5357 44.852 45.9044 44.7011C46.273 44.5503 46.608 44.3275 46.8897 44.0458C47.1714 43.7642 47.3941 43.4292 47.545 43.0605C47.6958 42.6918 47.7717 42.2968 47.7682 41.8985C47.7648 41.5001 47.682 41.1065 47.5248 40.7404C47.3676 40.3744 47.139 40.0434 46.8525 39.7667ZM22.641 4.94716C22.9223 4.66595 23.3038 4.50798 23.7015 4.50798C24.0992 4.50798 24.4807 4.66595 24.762 4.94716L33.2475 13.4327C33.5287 13.714 33.6867 14.0954 33.6867 14.4932C33.6867 14.8909 33.5287 15.2724 33.2475 15.5537C32.9615 15.8265 32.5815 15.9787 32.1862 15.9787C31.791 15.9787 31.411 15.8265 31.125 15.5537L26.8875 11.3102L22.641 7.06816C22.3598 6.78687 22.2018 6.40541 22.2018 6.00766C22.2018 5.60991 22.3598 5.22845 22.641 4.94716ZM18.399 30.3977C18.1165 30.6771 17.7351 30.8339 17.3377 30.8339C16.9404 30.8339 16.559 30.6771 16.2765 30.3977L7.791 21.9167C7.50974 21.6352 7.35181 21.2535 7.35195 20.8556C7.35209 20.4577 7.51029 20.0762 7.79175 19.7949C8.07321 19.5136 8.45487 19.3557 8.85278 19.3559C9.25068 19.356 9.63224 19.5142 9.9135 19.7957L18.399 28.2797C18.5385 28.419 18.6491 28.5844 18.7246 28.7665C18.8001 28.9486 18.8389 29.1438 18.8389 29.3409C18.8389 29.538 18.8001 29.7332 18.7246 29.9153C18.6491 30.0974 18.5385 30.2629 18.399 30.4022V30.3977ZM19.4595 27.2147L10.9725 18.7352L21.579 8.12866L30.063 16.6142L19.4595 27.2147ZM45.7875 42.9482C45.5018 43.2209 45.122 43.373 44.727 43.373C44.332 43.373 43.9522 43.2209 43.6665 42.9482L24.762 24.0392L26.8875 21.9167L45.7875 40.8272C46.0687 41.1085 46.2267 41.4899 46.2267 41.8877C46.2267 42.2854 46.0687 42.6669 45.7875 42.9482Z"/>
</mask>
<path d="M22.6875 39.0857V36.6977C22.6875 36.1009 22.4504 35.5286 22.0285 35.1067C21.6065 34.6847 21.0342 34.4477 20.4375 34.4477H3.9375C3.34076 34.4477 2.76847 34.6847 2.34651 35.1067C1.92455 35.5286 1.6875 36.1009 1.6875 36.6977V39.0857C1.25032 39.2402 0.871569 39.5261 0.603066 39.9041C0.334563 40.2822 0.189422 40.734 0.1875 41.1977L0.1875 44.1977C0.1875 44.3966 0.266518 44.5873 0.40717 44.728C0.547822 44.8686 0.738588 44.9477 0.9375 44.9477H23.4375C23.6364 44.9477 23.8272 44.8686 23.9678 44.728C24.1085 44.5873 24.1875 44.3966 24.1875 44.1977V41.1977C24.1856 40.734 24.0404 40.2822 23.7719 39.9041C23.5034 39.5261 23.1247 39.2402 22.6875 39.0857ZM3.1875 36.6977C3.1875 36.4988 3.26652 36.308 3.40717 36.1673C3.54782 36.0267 3.73859 35.9477 3.9375 35.9477H20.4375C20.6364 35.9477 20.8272 36.0267 20.9678 36.1673C21.1085 36.308 21.1875 36.4988 21.1875 36.6977V38.9477H3.1875V36.6977ZM22.6875 43.4477H1.6875V41.1977C1.6875 40.9988 1.76652 40.808 1.90717 40.6673C2.04782 40.5267 2.23859 40.4477 2.4375 40.4477H21.9375C22.1364 40.4477 22.3272 40.5267 22.4678 40.6673C22.6085 40.808 22.6875 40.9988 22.6875 41.1977V43.4477ZM46.8525 39.7667L27.9375 20.8562L31.4145 17.3792C31.6641 17.4494 31.9217 17.4872 32.181 17.4917C32.7739 17.4912 33.3535 17.3151 33.8464 16.9855C34.3393 16.656 34.7235 16.1877 34.9504 15.6399C35.1774 15.0921 35.2369 14.4894 35.1215 13.9078C35.0061 13.3262 34.7209 12.7918 34.302 12.3722L25.8225 3.88516C25.3579 3.41631 24.7511 3.11443 24.0969 3.02659C23.4427 2.93875 22.7778 3.06991 22.206 3.39959C21.6341 3.72927 21.1874 4.23895 20.9356 4.84912C20.6839 5.45929 20.6411 6.13563 20.814 6.77266L9.618 17.9702C8.98126 17.7986 8.30568 17.8423 7.69634 18.0944C7.08701 18.3466 6.57807 18.793 6.24871 19.3643C5.91934 19.9356 5.78801 20.5997 5.87514 21.2534C5.96228 21.907 6.26299 22.5136 6.7305 22.9787L15.216 31.4642C15.7786 32.0266 16.5415 32.3425 17.337 32.3425C18.1325 32.3425 18.8954 32.0266 19.458 31.4642C19.8279 31.0921 20.0935 30.6294 20.228 30.1223C20.3625 29.6152 20.3613 29.0816 20.2245 28.5752L23.7015 25.0982L42.6105 44.0087C42.8872 44.2952 43.2183 44.5237 43.5843 44.681C43.9503 44.8382 44.344 44.921 44.7423 44.9244C45.1406 44.9279 45.5357 44.852 45.9044 44.7011C46.273 44.5503 46.608 44.3275 46.8897 44.0458C47.1714 43.7642 47.3941 43.4292 47.545 43.0605C47.6958 42.6918 47.7717 42.2968 47.7682 41.8985C47.7648 41.5001 47.682 41.1065 47.5248 40.7404C47.3676 40.3744 47.139 40.0434 46.8525 39.7667ZM22.641 4.94716C22.9223 4.66595 23.3038 4.50798 23.7015 4.50798C24.0992 4.50798 24.4807 4.66595 24.762 4.94716L33.2475 13.4327C33.5287 13.714 33.6867 14.0954 33.6867 14.4932C33.6867 14.8909 33.5287 15.2724 33.2475 15.5537C32.9615 15.8265 32.5815 15.9787 32.1862 15.9787C31.791 15.9787 31.411 15.8265 31.125 15.5537L26.8875 11.3102L22.641 7.06816C22.3598 6.78687 22.2018 6.40541 22.2018 6.00766C22.2018 5.60991 22.3598 5.22845 22.641 4.94716ZM18.399 30.3977C18.1165 30.6771 17.7351 30.8339 17.3377 30.8339C16.9404 30.8339 16.559 30.6771 16.2765 30.3977L7.791 21.9167C7.50974 21.6352 7.35181 21.2535 7.35195 20.8556C7.35209 20.4577 7.51029 20.0762 7.79175 19.7949C8.07321 19.5136 8.45487 19.3557 8.85278 19.3559C9.25068 19.356 9.63224 19.5142 9.9135 19.7957L18.399 28.2797C18.5385 28.419 18.6491 28.5844 18.7246 28.7665C18.8001 28.9486 18.8389 29.1438 18.8389 29.3409C18.8389 29.538 18.8001 29.7332 18.7246 29.9153C18.6491 30.0974 18.5385 30.2629 18.399 30.4022V30.3977ZM19.4595 27.2147L10.9725 18.7352L21.579 8.12866L30.063 16.6142L19.4595 27.2147ZM45.7875 42.9482C45.5018 43.2209 45.122 43.373 44.727 43.373C44.332 43.373 43.9522 43.2209 43.6665 42.9482L24.762 24.0392L26.8875 21.9167L45.7875 40.8272C46.0687 41.1085 46.2267 41.4899 46.2267 41.8877C46.2267 42.2854 46.0687 42.6669 45.7875 42.9482Z" fill="url(#paint0_linear_1704_14136)" stroke="url(#paint1_linear_1704_14136)" stroke-width="10" mask="url(#path-1-inside-1_1704_14136)"/>
<defs>
<linearGradient id="paint0_linear_1704_14136" x1="10.2954" y1="-48.6279" x2="-41.7858" y2="-3.59552" gradientUnits="userSpaceOnUse">
<stop stop-color="#2DD1DB"/>
<stop offset="0.60721" stop-color="#2D9CDB"/>
<stop offset="1" stop-color="#1A8ED0"/>
</linearGradient>
<linearGradient id="paint1_linear_1704_14136" x1="10.2954" y1="-48.6279" x2="-41.7858" y2="-3.59552" gradientUnits="userSpaceOnUse">
<stop stop-color="#2DD1DB"/>
<stop offset="0.60721" stop-color="#2D9CDB"/>
<stop offset="1" stop-color="#1A8ED0"/>
</linearGradient>
</defs>
</svg>
