<svg width="73" height="78" viewBox="0 0 73 78" fill="none" xmlns="http://www.w3.org/2000/svg">
<path d="M25.3575 1.5C25.3575 1.83152 25.2258 2.14946 24.9914 2.38388C24.757 2.6183 24.439 2.75 24.1075 2.75H21.6075C21.276 2.75 20.958 2.6183 20.7236 2.38388C20.4892 2.14946 20.3575 1.83152 20.3575 1.5C20.3575 1.16848 20.4892 0.850537 20.7236 0.616116C20.958 0.381696 21.276 0.25 21.6075 0.25H24.1075C24.439 0.25 24.757 0.381696 24.9914 0.616116C25.2258 0.850537 25.3575 1.16848 25.3575 1.5ZM16.6075 0.25H14.1075C13.776 0.25 13.458 0.381696 13.2236 0.616116C12.9892 0.850537 12.8575 1.16848 12.8575 1.5C12.8575 1.83152 12.9892 2.14946 13.2236 2.38388C13.458 2.6183 13.776 2.75 14.1075 2.75H16.6075C16.939 2.75 17.257 2.6183 17.4914 2.38388C17.7258 2.14946 17.8575 1.83152 17.8575 1.5C17.8575 1.16848 17.7258 0.850537 17.4914 0.616116C17.257 0.381696 16.939 0.25 16.6075 0.25ZM31.6075 0.25H29.1075C28.776 0.25 28.458 0.381696 28.2236 0.616116C27.9892 0.850537 27.8575 1.16848 27.8575 1.5C27.8575 1.83152 27.9892 2.14946 28.2236 2.38388C28.458 2.6183 28.776 2.75 29.1075 2.75H31.6075C31.939 2.75 32.257 2.6183 32.4914 2.38388C32.7258 2.14946 32.8575 1.83152 32.8575 1.5C32.8575 1.16848 32.7258 0.850537 32.4914 0.616116C32.257 0.381696 31.939 0.25 31.6075 0.25ZM9.1075 0.25H6.6075C6.27598 0.25 5.95804 0.381696 5.72362 0.616116C5.4892 0.850537 5.3575 1.16848 5.3575 1.5C5.3575 1.83152 5.4892 2.14946 5.72362 2.38388C5.95804 2.6183 6.27598 2.75 6.6075 2.75H9.1075C9.43902 2.75 9.75696 2.6183 9.99138 2.38388C10.2258 2.14946 10.3575 1.83152 10.3575 1.5C10.3575 1.16848 10.2258 0.850537 9.99138 0.616116C9.75696 0.381696 9.43902 0.25 9.1075 0.25ZM1.25 9.53625C0.918479 9.53625 0.600537 9.66795 0.366116 9.90237C0.131696 10.1368 0 10.4547 0 10.7863V13.2863C0 13.6178 0.131696 13.9357 0.366116 14.1701C0.600537 14.4046 0.918479 14.5363 1.25 14.5363C1.58152 14.5363 1.89946 14.4046 2.13388 14.1701C2.3683 13.9357 2.5 13.6178 2.5 13.2863V10.7863C2.5 10.4547 2.3683 10.1368 2.13388 9.90237C1.89946 9.66795 1.58152 9.53625 1.25 9.53625ZM39.1075 0.25H36.6075C36.276 0.25 35.958 0.381696 35.7236 0.616116C35.4892 0.850537 35.3575 1.16848 35.3575 1.5C35.3575 1.83152 35.4892 2.14946 35.7236 2.38388C35.958 2.6183 36.276 2.75 36.6075 2.75H39.1075C39.439 2.75 39.757 2.6183 39.9914 2.38388C40.2258 2.14946 40.3575 1.83152 40.3575 1.5C40.3575 1.16848 40.2258 0.850537 39.9914 0.616116C39.757 0.381696 39.439 0.25 39.1075 0.25ZM1.2475 2.75375C0.619102 3.59226 0.211611 4.57531 0.0624999 5.6125C0.0393663 5.7751 0.0485035 5.94067 0.0893891 6.09974C0.130275 6.25881 0.202107 6.40826 0.300781 6.53956C0.399455 6.67085 0.523035 6.78141 0.664459 6.86492C0.805884 6.94843 0.962379 7.00325 1.125 7.02625C1.18383 7.03428 1.24312 7.03846 1.3025 7.03875C1.60305 7.03815 1.89333 6.92927 2.12014 6.73207C2.34695 6.53487 2.49512 6.26255 2.5375 5.965C2.62685 5.34405 2.87101 4.75557 3.2475 4.25375C3.35072 4.12282 3.42671 3.97255 3.47098 3.81181C3.51525 3.65107 3.52692 3.48309 3.5053 3.31777C3.48368 3.15245 3.4292 2.99313 3.34508 2.84918C3.26095 2.70523 3.14888 2.57956 3.01546 2.47958C2.88203 2.37959 2.72996 2.30731 2.56818 2.26699C2.4064 2.22666 2.23819 2.21911 2.07345 2.24478C1.9087 2.27044 1.75076 2.3288 1.60892 2.41643C1.46707 2.50405 1.34419 2.61917 1.2475 2.755V2.75375ZM46.6075 0.25H44.1075C43.776 0.25 43.458 0.381696 43.2236 0.616116C42.9892 0.850537 42.8575 1.16848 42.8575 1.5C42.8575 1.83152 42.9892 2.14946 43.2236 2.38388C43.458 2.6183 43.776 2.75 44.1075 2.75H46.6075C46.939 2.75 47.257 2.6183 47.4914 2.38388C47.7258 2.14946 47.8575 1.83152 47.8575 1.5C47.8575 1.16848 47.7258 0.850537 47.4914 0.616116C47.257 0.381696 46.939 0.25 46.6075 0.25ZM71.25 5.25C70.9185 5.25 70.6005 5.3817 70.3661 5.61612C70.1317 5.85054 70 6.16848 70 6.5V9C70 9.33152 70.1317 9.64946 70.3661 9.88388C70.6005 10.1183 70.9185 10.25 71.25 10.25C71.5815 10.25 71.8995 10.1183 72.1339 9.88388C72.3683 9.64946 72.5 9.33152 72.5 9V6.5C72.5 6.16848 72.3683 5.85054 72.1339 5.61612C71.8995 5.3817 71.5815 5.25 71.25 5.25ZM71.25 20.25C70.9185 20.25 70.6005 20.3817 70.3661 20.6161C70.1317 20.8505 70 21.1685 70 21.5V24C70 24.3315 70.1317 24.6495 70.3661 24.8839C70.6005 25.1183 70.9185 25.25 71.25 25.25C71.5815 25.25 71.8995 25.1183 72.1339 24.8839C72.3683 24.6495 72.5 24.3315 72.5 24V21.5C72.5 21.1685 72.3683 20.8505 72.1339 20.6161C71.8995 20.3817 71.5815 20.25 71.25 20.25ZM71.25 12.75C70.9185 12.75 70.6005 12.8817 70.3661 13.1161C70.1317 13.3505 70 13.6685 70 14V16.5C70 16.8315 70.1317 17.1495 70.3661 17.3839C70.6005 17.6183 70.9185 17.75 71.25 17.75C71.5815 17.75 71.8995 17.6183 72.1339 17.3839C72.3683 17.1495 72.5 16.8315 72.5 16.5V14C72.5 13.6685 72.3683 13.3505 72.1339 13.1161C71.8995 12.8817 71.5815 12.75 71.25 12.75ZM54.1075 0.25H51.6075C51.276 0.25 50.958 0.381696 50.7236 0.616116C50.4892 0.850537 50.3575 1.16848 50.3575 1.5C50.3575 1.83152 50.4892 2.14946 50.7236 2.38388C50.958 2.6183 51.276 2.75 51.6075 2.75H54.1075C54.439 2.75 54.757 2.6183 54.9914 2.38388C55.2258 2.14946 55.3575 1.83152 55.3575 1.5C55.3575 1.16848 55.2258 0.850537 54.9914 0.616116C54.757 0.381696 54.439 0.25 54.1075 0.25ZM61.6075 0.25H59.1075C58.776 0.25 58.458 0.381696 58.2236 0.616116C57.9892 0.850537 57.8575 1.16848 57.8575 1.5C57.8575 1.83152 57.9892 2.14946 58.2236 2.38388C58.458 2.6183 58.776 2.75 59.1075 2.75H61.6075C61.939 2.75 62.257 2.6183 62.4914 2.38388C62.7258 2.14946 62.8575 1.83152 62.8575 1.5C62.8575 1.16848 62.7258 0.850537 62.4914 0.616116C62.257 0.381696 61.939 0.25 61.6075 0.25ZM69.63 1.2425C68.7487 0.676701 67.7396 0.341038 66.695 0.26625C66.3652 0.246527 66.0407 0.356771 65.7912 0.573364C65.5416 0.789957 65.3869 1.09567 65.36 1.425C65.3366 1.75549 65.4454 2.08174 65.6624 2.33207C65.8795 2.58239 66.187 2.73631 66.5175 2.76C67.1435 2.80476 67.7482 3.00591 68.2762 3.345C68.5551 3.52452 68.8938 3.58593 69.2178 3.51572C69.5419 3.44551 69.8249 3.24943 70.0044 2.97063C70.1839 2.69182 70.2453 2.35311 70.1751 2.02903C70.1049 1.70494 69.9088 1.42202 69.63 1.2425ZM72.1338 30.6162L52.1338 10.6163C51.8994 10.3818 51.5815 10.2501 51.25 10.25H26.25C24.593 10.252 23.0044 10.9111 21.8328 12.0828C20.6611 13.2544 20.002 14.843 20 16.5V71.5C20.002 73.157 20.6611 74.7456 21.8328 75.9172C23.0044 77.0889 24.593 77.748 26.25 77.75H66.25C67.907 77.748 69.4956 77.0889 70.6672 75.9172C71.8389 74.7456 72.498 73.157 72.5 71.5V31.5C72.4999 31.1685 72.3682 30.8506 72.1338 30.6162ZM52.5 14.5175L68.2325 30.25H56.25C55.2557 30.249 54.3025 29.8536 53.5994 29.1506C52.8964 28.4475 52.501 27.4943 52.5 26.5V14.5175ZM66.25 75.25H26.25C25.2557 75.249 24.3025 74.8536 23.5994 74.1506C22.8964 73.4475 22.501 72.4943 22.5 71.5V16.5C22.501 15.5057 22.8964 14.5525 23.5994 13.8494C24.3025 13.1464 25.2557 12.751 26.25 12.75H50V26.5C50.002 28.157 50.6611 29.7456 51.8328 30.9172C53.0044 32.0889 54.593 32.748 56.25 32.75H70V71.5C69.999 72.4943 69.6036 73.4475 68.9006 74.1506C68.1975 74.8536 67.2443 75.249 66.25 75.25ZM58.75 40.25C58.75 40.5815 58.6183 40.8995 58.3839 41.1339C58.1495 41.3683 57.8315 41.5 57.5 41.5H45C44.6685 41.5 44.3505 41.3683 44.1161 41.1339C43.8817 40.8995 43.75 40.5815 43.75 40.25C43.75 39.9185 43.8817 39.6005 44.1161 39.3661C44.3505 39.1317 44.6685 39 45 39H57.5C57.8315 39 58.1495 39.1317 58.3839 39.3661C58.6183 39.6005 58.75 39.9185 58.75 40.25ZM43.75 45.25C43.75 44.9185 43.8817 44.6005 44.1161 44.3661C44.3505 44.1317 44.6685 44 45 44H52.5C52.8315 44 53.1495 44.1317 53.3839 44.3661C53.6183 44.6005 53.75 44.9185 53.75 45.25C53.75 45.5815 53.6183 45.8995 53.3839 46.1339C53.1495 46.3683 52.8315 46.5 52.5 46.5H45C44.6685 46.5 44.3505 46.3683 44.1161 46.1339C43.8817 45.8995 43.75 45.5815 43.75 45.25ZM58.75 57.75C58.75 58.0815 58.6183 58.3995 58.3839 58.6339C58.1495 58.8683 57.8315 59 57.5 59H45C44.6685 59 44.3505 58.8683 44.1161 58.6339C43.8817 58.3995 43.75 58.0815 43.75 57.75C43.75 57.4185 43.8817 57.1005 44.1161 56.8661C44.3505 56.6317 44.6685 56.5 45 56.5H57.5C57.8315 56.5 58.1495 56.6317 58.3839 56.8661C58.6183 57.1005 58.75 57.4185 58.75 57.75ZM53.75 62.75C53.75 63.0815 53.6183 63.3995 53.3839 63.6339C53.1495 63.8683 52.8315 64 52.5 64H45C44.6685 64 44.3505 63.8683 44.1161 63.6339C43.8817 63.3995 43.75 63.0815 43.75 62.75C43.75 62.4185 43.8817 62.1005 44.1161 61.8661C44.3505 61.6317 44.6685 61.5 45 61.5H52.5C52.8315 61.5 53.1495 61.6317 53.3839 61.8661C53.6183 62.1005 53.75 62.4185 53.75 62.75ZM42.325 44.2138C41.9964 45.5754 41.2204 46.7874 40.1212 47.6557C39.022 48.5239 37.6632 48.9982 36.2625 49.0025C35.7652 49.0022 35.2697 48.943 34.7863 48.8262C33.9883 48.634 33.236 48.2865 32.5724 47.8036C31.9087 47.3206 31.3467 46.7117 30.9184 46.0115C30.4901 45.3114 30.2039 44.5337 30.0761 43.723C29.9484 42.9122 29.9815 42.0842 30.1737 41.2862C30.366 40.4883 30.7135 39.736 31.1964 39.0724C31.6794 38.4087 32.2883 37.8467 32.9885 37.4184C33.6886 36.9901 34.4663 36.7039 35.2771 36.5761C36.0878 36.4484 36.9158 36.4815 37.7138 36.6738C37.8763 36.7092 38.0302 36.7768 38.1663 36.8725C38.3024 36.9682 38.4181 37.0902 38.5065 37.2312C38.5948 37.3722 38.6542 37.5294 38.681 37.6936C38.7078 37.8579 38.7015 38.0258 38.6626 38.1876C38.6236 38.3494 38.5528 38.5018 38.4542 38.6358C38.3556 38.7698 38.2312 38.8828 38.0883 38.9682C37.9454 39.0535 37.787 39.1095 37.6222 39.1327C37.4574 39.156 37.2897 39.1462 37.1287 39.1038C36.4078 38.9299 35.6514 38.9737 34.9553 39.2297C34.2592 39.4857 33.6547 39.9423 33.2181 40.5419C32.7815 41.1414 32.5326 41.857 32.5026 42.598C32.4727 43.3391 32.6633 44.0724 33.0501 44.7052C33.4369 45.338 34.0027 45.8418 34.6759 46.1531C35.3491 46.4643 36.0995 46.5689 36.8322 46.4537C37.5648 46.3385 38.2469 46.0086 38.792 45.5058C39.3372 45.0029 39.7211 44.3497 39.895 43.6287C39.9334 43.4691 40.0029 43.3186 40.0995 43.1858C40.196 43.053 40.3178 42.9406 40.4579 42.8548C40.5979 42.7691 40.7535 42.7118 40.9157 42.6862C41.0778 42.6606 41.2435 42.6672 41.4031 42.7056C41.5628 42.744 41.7133 42.8135 41.8461 42.9101C41.9788 43.0067 42.0913 43.1285 42.177 43.2685C42.2627 43.4085 42.32 43.5641 42.3457 43.7263C42.3713 43.8885 42.3647 44.0541 42.3262 44.2138H42.325ZM42.325 27.9637C41.9964 29.3254 41.2204 30.5374 40.1212 31.4057C39.022 32.2739 37.6632 32.7482 36.2625 32.7525C35.7652 32.7522 35.2697 32.693 34.7863 32.5762C33.9883 32.384 33.236 32.0365 32.5724 31.5536C31.9087 31.0706 31.3467 30.4617 30.9184 29.7615C30.4901 29.0614 30.2039 28.2837 30.0761 27.4729C29.9484 26.6622 29.9815 25.8342 30.1737 25.0363C30.366 24.2383 30.7135 23.486 31.1964 22.8224C31.6794 22.1587 32.2883 21.5967 32.9885 21.1684C33.6886 20.7401 34.4663 20.4539 35.2771 20.3261C36.0878 20.1984 36.9158 20.2315 37.7138 20.4237C37.8763 20.4592 38.0302 20.5268 38.1663 20.6225C38.3024 20.7182 38.4181 20.8402 38.5065 20.9812C38.5948 21.1222 38.6542 21.2794 38.681 21.4436C38.7078 21.6079 38.7015 21.7758 38.6626 21.9376C38.6236 22.0994 38.5528 22.2518 38.4542 22.3858C38.3556 22.5198 38.2312 22.6328 38.0883 22.7182C37.9454 22.8035 37.787 22.8594 37.6222 22.8827C37.4574 22.906 37.2897 22.8962 37.1287 22.8538C36.4078 22.6799 35.6514 22.7237 34.9553 22.9797C34.2592 23.2357 33.6547 23.6923 33.2181 24.2919C32.7815 24.8914 32.5326 25.607 32.5026 26.348C32.4727 27.0891 32.6633 27.8224 33.0501 28.4552C33.4369 29.088 34.0027 29.5918 34.6759 29.9031C35.3491 30.2143 36.0995 30.3189 36.8322 30.2037C37.5648 30.0885 38.2469 29.7586 38.792 29.2558C39.3372 28.7529 39.7211 28.0997 39.895 27.3787C39.9334 27.2191 40.0029 27.0686 40.0995 26.9358C40.196 26.803 40.3178 26.6906 40.4579 26.6048C40.5979 26.5191 40.7535 26.4618 40.9157 26.4362C41.0778 26.4106 41.2435 26.4172 41.4031 26.4556C41.5628 26.494 41.7133 26.5635 41.8461 26.6601C41.9788 26.7567 42.0913 26.8785 42.177 27.0185C42.2627 27.1585 42.32 27.3141 42.3457 27.4763C42.3713 27.6385 42.3647 27.8041 42.3262 27.9637H42.325ZM42.325 61.7138C41.9964 63.0754 41.2204 64.2874 40.1212 65.1557C39.022 66.0239 37.6632 66.4982 36.2625 66.5025C35.7652 66.5022 35.2697 66.443 34.7863 66.3262C33.9883 66.134 33.236 65.7865 32.5724 65.3036C31.9087 64.8206 31.3467 64.2117 30.9184 63.5115C30.4901 62.8114 30.2039 62.0337 30.0761 61.223C29.9484 60.4122 29.9815 59.5842 30.1737 58.7862C30.366 57.9883 30.7135 57.236 31.1964 56.5724C31.6794 55.9087 32.2883 55.3467 32.9885 54.9184C33.6886 54.4901 34.4663 54.2039 35.2771 54.0761C36.0878 53.9484 36.9158 53.9815 37.7138 54.1738C37.8763 54.2092 38.0302 54.2768 38.1663 54.3725C38.3024 54.4682 38.4181 54.5902 38.5065 54.7312C38.5948 54.8722 38.6542 55.0294 38.681 55.1936C38.7078 55.3579 38.7015 55.5258 38.6626 55.6876C38.6236 55.8494 38.5528 56.0018 38.4542 56.1358C38.3556 56.2698 38.2312 56.3828 38.0883 56.4682C37.9454 56.5535 37.787 56.6095 37.6222 56.6327C37.4574 56.656 37.2897 56.6462 37.1287 56.6038C36.4078 56.4299 35.6514 56.4737 34.9553 56.7297C34.2592 56.9857 33.6547 57.4423 33.2181 58.0419C32.7815 58.6414 32.5326 59.357 32.5026 60.098C32.4727 60.8391 32.6633 61.5724 33.0501 62.2052C33.4369 62.838 34.0027 63.3418 34.6759 63.6531C35.3491 63.9643 36.0995 64.0689 36.8322 63.9537C37.5648 63.8385 38.2469 63.5086 38.792 63.0058C39.3372 62.5029 39.7211 61.8497 39.895 61.1287C39.9334 60.9691 40.0029 60.8186 40.0995 60.6858C40.196 60.553 40.3178 60.4406 40.4579 60.3548C40.5979 60.2691 40.7535 60.2118 40.9157 60.1862C41.0778 60.1606 41.2435 60.1672 41.4031 60.2056C41.5628 60.244 41.7133 60.3135 41.8461 60.4101C41.9788 60.5067 42.0913 60.6285 42.177 60.7685C42.2627 60.9085 42.32 61.0641 42.3457 61.2263C42.3713 61.3885 42.3647 61.5541 42.3262 61.7138H42.325ZM10.625 10.25C8.80225 10.252 7.05472 10.977 5.76583 12.2658C4.47695 13.5547 3.75199 15.3022 3.75 17.125V20.4275C2.6794 20.703 1.73045 21.326 1.05183 22.1987C0.373221 23.0713 0.00328889 24.1445 0 25.25V31.5C0 31.8315 0.131696 32.1495 0.366116 32.3839C0.600537 32.6183 0.918479 32.75 1.25 32.75C1.58152 32.75 1.89946 32.6183 2.13388 32.3839C2.3683 32.1495 2.5 31.8315 2.5 31.5V25.25C2.50132 24.8131 2.6175 24.3843 2.8369 24.0064C3.0563 23.6286 3.3712 23.3152 3.75 23.0975V67.75L3.75375 67.7663C3.75686 67.9118 3.78564 68.0557 3.83875 68.1913C3.8525 68.2275 3.87 68.2588 3.88625 68.2938C3.90444 68.3387 3.92531 68.3825 3.94875 68.425L9.57375 77.175C9.68696 77.351 9.84253 77.4957 10.0262 77.5959C10.2099 77.6962 10.4158 77.7487 10.625 77.7487C10.8342 77.7487 11.0401 77.6962 11.2238 77.5959C11.4075 77.4957 11.563 77.351 11.6762 77.175L17.3013 68.425C17.3247 68.3825 17.3455 68.3387 17.3638 68.2938C17.38 68.2588 17.3975 68.2275 17.4113 68.1913C17.4643 68.0557 17.4931 67.9118 17.4963 67.7663L17.5 67.75V17.125C17.498 15.3022 16.773 13.5547 15.4842 12.2658C14.1953 10.977 12.4478 10.252 10.625 10.25ZM6.25 22.75H15V66.5H6.25V22.75ZM10.625 12.75C11.7849 12.7513 12.8969 13.2127 13.7171 14.0329C14.5373 14.8531 14.9987 15.9651 15 17.125V20.25H6.25V17.125C6.25132 15.9651 6.71268 14.8531 7.53287 14.0329C8.35305 13.2127 9.46508 12.7513 10.625 12.75ZM10.625 74.1875L7.29 69H13.96L10.625 74.1875Z" fill="url(#paint0_linear_1340_12679)"/>
<path d="M36.2503 45.2503C36.0861 45.2504 35.9235 45.2182 35.7719 45.1553C35.6202 45.0925 35.4824 45.0003 35.3665 44.884L34.1165 43.634C33.8888 43.3983 33.7628 43.0825 33.7657 42.7548C33.7685 42.427 33.9 42.1135 34.1317 41.8817C34.3635 41.65 34.677 41.5185 35.0048 41.5157C35.3325 41.5128 35.6483 41.6388 35.884 41.8665L36.2503 42.2328L39.1165 39.3665C39.3523 39.1388 39.668 39.0128 39.9958 39.0157C40.3235 39.0185 40.637 39.15 40.8688 39.3817C41.1006 39.6135 41.232 39.927 41.2349 40.2548C41.2377 40.5825 41.1117 40.8983 40.884 41.134L37.134 44.884C37.0181 45.0003 36.8803 45.0925 36.7287 45.1553C36.577 45.2182 36.4144 45.2504 36.2503 45.2503ZM37.134 28.634L40.884 24.884C41.1117 24.6483 41.2377 24.3325 41.2349 24.0048C41.232 23.677 41.1006 23.3635 40.8688 23.1317C40.637 22.9 40.3235 22.7685 39.9958 22.7657C39.668 22.7628 39.3523 22.8888 39.1165 23.1165L36.2503 25.9828L35.884 25.6165C35.6483 25.3888 35.3325 25.2628 35.0048 25.2657C34.677 25.2685 34.3635 25.4 34.1317 25.6317C33.9 25.8635 33.7685 26.177 33.7657 26.5048C33.7628 26.8325 33.8888 27.1483 34.1165 27.384L35.3665 28.634C35.6009 28.8684 35.9188 29 36.2503 29C36.5817 29 36.8996 28.8684 37.134 28.634ZM37.134 62.384L40.884 58.634C41.1117 58.3983 41.2377 58.0825 41.2349 57.7548C41.232 57.427 41.1006 57.1135 40.8688 56.8817C40.637 56.65 40.3235 56.5185 39.9958 56.5157C39.668 56.5128 39.3523 56.6388 39.1165 56.8665L36.2503 59.7328L35.884 59.3665C35.6483 59.1388 35.3325 59.0128 35.0048 59.0157C34.677 59.0185 34.3635 59.15 34.1317 59.3817C33.9 59.6135 33.7685 59.927 33.7657 60.2548C33.7628 60.5825 33.8888 60.8983 34.1165 61.134L35.3665 62.384C35.6009 62.6184 35.9188 62.75 36.2503 62.75C36.5817 62.75 36.8996 62.6184 37.134 62.384Z" fill="url(#paint1_linear_1340_12679)"/>
<defs>
<linearGradient id="paint0_linear_1340_12679" x1="15.4016" y1="-95.1346" x2="-76.5341" y2="-29.5744" gradientUnits="userSpaceOnUse">
<stop stop-color="#2DD1DB"/>
<stop offset="0.60721" stop-color="#2D9CDB"/>
<stop offset="1" stop-color="#1A8ED0"/>
</linearGradient>
<linearGradient id="paint1_linear_1340_12679" x1="35.3524" y1="-26.4459" x2="21.3481" y2="-24.4517" gradientUnits="userSpaceOnUse">
<stop stop-color="#2DD1DB"/>
<stop offset="0.60721" stop-color="#2D9CDB"/>
<stop offset="1" stop-color="#1A8ED0"/>
</linearGradient>
</defs>
</svg>
