<svg width="54" height="73" viewBox="0 0 54 73" fill="none" xmlns="http://www.w3.org/2000/svg">
<path d="M28.5004 32.5002C28.0195 32.4992 27.5491 32.3595 27.1456 32.0979C26.7421 31.8363 26.4226 31.4638 26.2254 31.0252L16.0004 8.5502L5.77541 31.0502C5.50024 31.6536 4.99667 32.1229 4.37545 32.355C3.75424 32.5871 3.06627 32.5629 2.46291 32.2877C1.85954 32.0125 1.39019 31.509 1.15812 30.8877C0.926039 30.2665 0.950245 29.5786 1.22541 28.9752L13.7254 1.4752C13.9243 1.03873 14.2445 0.668675 14.6479 0.409185C15.0513 0.149694 15.5208 0.0117188 16.0004 0.0117188C16.48 0.0117188 16.9496 0.149694 17.3529 0.409185C17.7563 0.668675 18.0765 1.03873 18.2754 1.4752L30.7754 28.9752C30.9133 29.2754 30.9903 29.5998 31.002 29.9299C31.0137 30.26 30.9599 30.5891 30.8436 30.8983C30.7274 31.2075 30.5511 31.4906 30.3248 31.7312C30.0985 31.9718 29.8268 32.1652 29.5254 32.3002C29.2016 32.4383 28.8523 32.5064 28.5004 32.5002Z" fill="url(#paint0_linear_1344_12857)"/>
<path d="M53.2005 56.5256C52.9912 56.1217 52.6758 55.7826 52.2882 55.5447C51.9005 55.3068 51.4553 55.1792 51.0005 55.1756H48.5005V30.6006C48.5005 29.9375 48.2371 29.3017 47.7682 28.8328C47.2994 28.364 46.6635 28.1006 46.0005 28.1006C45.3374 28.1006 44.7015 28.364 44.2327 28.8328C43.7638 29.3017 43.5005 29.9375 43.5005 30.6006V55.1756H41.0005C40.5456 55.1792 40.1004 55.3068 39.7128 55.5447C39.3251 55.7826 39.0097 56.1217 38.8005 56.5256C38.5997 56.9165 38.5056 57.3535 38.5275 57.7924C38.5495 58.2313 38.6867 58.6566 38.9255 59.0256L43.9255 66.5256C44.1541 66.8659 44.463 67.1447 44.8249 67.3375C45.1867 67.5303 45.5904 67.6312 46.0005 67.6312C46.4105 67.6312 46.8142 67.5303 47.176 67.3375C47.5379 67.1447 47.8468 66.8659 48.0755 66.5256L53.0755 59.0256C53.3142 58.6566 53.4514 58.2313 53.4734 57.7924C53.4953 57.3535 53.4012 56.9165 53.2005 56.5256Z" fill="url(#paint1_linear_1344_12857)"/>
<path d="M28.5002 72.5002H3.50018C3.02201 72.5014 2.55353 72.3654 2.1503 72.1084C1.74707 71.8514 1.42601 71.4842 1.22518 71.0502C1.02494 70.6152 0.953826 70.1319 1.0203 69.6577C1.08678 69.1835 1.28805 68.7383 1.60018 68.3752L23.1002 42.9502H3.50018C2.83713 42.9502 2.20125 42.6868 1.73241 42.218C1.26357 41.7491 1.00018 41.1132 1.00018 40.4502C1.00018 39.7872 1.26357 39.1513 1.73241 38.6824C2.20125 38.2136 2.83713 37.9502 3.50018 37.9502H28.5002C28.9783 37.949 29.4468 38.085 29.85 38.342C30.2533 38.599 30.5743 38.9663 30.7752 39.4002C30.9702 39.832 31.0385 40.3104 30.9722 40.7796C30.9058 41.2488 30.7074 41.6894 30.4002 42.0502L8.90018 67.5002H28.5002C29.1632 67.5002 29.7991 67.7636 30.2679 68.2324C30.7368 68.7013 31.0002 69.3372 31.0002 70.0002C31.0002 70.6632 30.7368 71.2991 30.2679 71.768C29.7991 72.2368 29.1632 72.5002 28.5002 72.5002Z" fill="url(#paint2_linear_1344_12857)"/>
<defs>
<linearGradient id="paint0_linear_1344_12857" x1="7.37381" y1="-39.99" x2="-31.0121" y2="-12.9776" gradientUnits="userSpaceOnUse">
<stop stop-color="#2DD1DB"/>
<stop offset="0.60721" stop-color="#2D9CDB"/>
<stop offset="1" stop-color="#1A8ED0"/>
</linearGradient>
<linearGradient id="paint1_linear_1344_12857" x1="41.7008" y1="-20.5525" x2="15.2938" y2="-12.9386" gradientUnits="userSpaceOnUse">
<stop stop-color="#2DD1DB"/>
<stop offset="0.60721" stop-color="#2D9CDB"/>
<stop offset="1" stop-color="#1A8ED0"/>
</linearGradient>
<linearGradient id="paint2_linear_1344_12857" x1="7.37002" y1="-4.5729" x2="-32.5371" y2="21.8452" gradientUnits="userSpaceOnUse">
<stop stop-color="#2DD1DB"/>
<stop offset="0.60721" stop-color="#2D9CDB"/>
<stop offset="1" stop-color="#1A8ED0"/>
</linearGradient>
</defs>
</svg>
