<svg width="80" height="80" viewBox="0 0 80 80" fill="none" xmlns="http://www.w3.org/2000/svg">
<path d="M61.25 56.25H28.75C28.4185 56.25 28.1005 56.1183 27.8661 55.8839C27.6317 55.6495 27.5 55.3315 27.5 55C27.5 54.6685 27.6317 54.3505 27.8661 54.1161C28.1005 53.8817 28.4185 53.75 28.75 53.75H61.25C61.5815 53.75 61.8995 53.8817 62.1339 54.1161C62.3683 54.3505 62.5 54.6685 62.5 55C62.5 55.3315 62.3683 55.6495 62.1339 55.8839C61.8995 56.1183 61.5815 56.25 61.25 56.25ZM61.25 46.25H28.75C28.4185 46.25 28.1005 46.1183 27.8661 45.8839C27.6317 45.6495 27.5 45.3315 27.5 45C27.5 44.6685 27.6317 44.3505 27.8661 44.1161C28.1005 43.8817 28.4185 43.75 28.75 43.75H61.25C61.5815 43.75 61.8995 43.8817 62.1339 44.1161C62.3683 44.3505 62.5 44.6685 62.5 45C62.5 45.3315 62.3683 45.6495 62.1339 45.8839C61.8995 46.1183 61.5815 46.25 61.25 46.25ZM61.25 36.25H28.75C28.4185 36.25 28.1005 36.1183 27.8661 35.8839C27.6317 35.6495 27.5 35.3315 27.5 35C27.5 34.6685 27.6317 34.3505 27.8661 34.1161C28.1005 33.8817 28.4185 33.75 28.75 33.75H61.25C61.5815 33.75 61.8995 33.8817 62.1339 34.1161C62.3683 34.3505 62.5 34.6685 62.5 35C62.5 35.3315 62.3683 35.6495 62.1339 35.8839C61.8995 36.1183 61.5815 36.25 61.25 36.25ZM61.25 26.25H28.75C28.4185 26.25 28.1005 26.1183 27.8661 25.8839C27.6317 25.6495 27.5 25.3315 27.5 25C27.5 24.6685 27.6317 24.3505 27.8661 24.1161C28.1005 23.8817 28.4185 23.75 28.75 23.75H61.25C61.5815 23.75 61.8995 23.8817 62.1339 24.1161C62.3683 24.3505 62.5 24.6685 62.5 25C62.5 25.3315 62.3683 25.6495 62.1339 25.8839C61.8995 26.1183 61.5815 26.25 61.25 26.25ZM20 57.5C19.5055 57.5 19.0222 57.3534 18.6111 57.0787C18.2 56.804 17.8795 56.4135 17.6903 55.9567C17.5011 55.4999 17.4516 54.9972 17.548 54.5123C17.6445 54.0273 17.8826 53.5819 18.2322 53.2322C18.5819 52.8826 19.0273 52.6445 19.5123 52.548C19.9972 52.4516 20.4999 52.5011 20.9567 52.6903C21.4135 52.8795 21.804 53.2 22.0787 53.6111C22.3534 54.0222 22.5 54.5056 22.5 55C22.5 55.663 22.2366 56.2989 21.7678 56.7678C21.2989 57.2366 20.663 57.5 20 57.5ZM20 47.5C19.5055 47.5 19.0222 47.3534 18.6111 47.0787C18.2 46.804 17.8795 46.4135 17.6903 45.9567C17.5011 45.4999 17.4516 44.9972 17.548 44.5123C17.6445 44.0273 17.8826 43.5819 18.2322 43.2322C18.5819 42.8826 19.0273 42.6445 19.5123 42.548C19.9972 42.4516 20.4999 42.5011 20.9567 42.6903C21.4135 42.8795 21.804 43.2 22.0787 43.6111C22.3534 44.0222 22.5 44.5055 22.5 45C22.5 45.663 22.2366 46.2989 21.7678 46.7678C21.2989 47.2366 20.663 47.5 20 47.5ZM20 37.5C19.5055 37.5 19.0222 37.3534 18.6111 37.0787C18.2 36.804 17.8795 36.4135 17.6903 35.9567C17.5011 35.4999 17.4516 34.9972 17.548 34.5123C17.6445 34.0273 17.8826 33.5819 18.2322 33.2322C18.5819 32.8826 19.0273 32.6445 19.5123 32.548C19.9972 32.4516 20.4999 32.5011 20.9567 32.6903C21.4135 32.8795 21.804 33.2 22.0787 33.6111C22.3534 34.0222 22.5 34.5055 22.5 35C22.5 35.663 22.2366 36.2989 21.7678 36.7678C21.2989 37.2366 20.663 37.5 20 37.5ZM20 27.5C19.5055 27.5 19.0222 27.3534 18.6111 27.0787C18.2 26.804 17.8795 26.4135 17.6903 25.9567C17.5011 25.4999 17.4516 24.9972 17.548 24.5123C17.6445 24.0273 17.8826 23.5819 18.2322 23.2322C18.5819 22.8826 19.0273 22.6445 19.5123 22.548C19.9972 22.4516 20.4999 22.5011 20.9567 22.6903C21.4135 22.8795 21.804 23.2 22.0787 23.6111C22.3534 24.0222 22.5 24.5055 22.5 25C22.5 25.663 22.2366 26.2989 21.7678 26.7678C21.2989 27.2366 20.663 27.5 20 27.5Z" fill="url(#paint0_linear_1344_12893)"/>
<path d="M40 76.25C32.8304 76.25 25.8219 74.124 19.8606 70.1408C13.8993 66.1576 9.25306 60.4961 6.50938 53.8723C3.76571 47.2485 3.04784 39.9598 4.44655 32.928C5.84526 25.8962 9.29774 19.437 14.3674 14.3674C19.437 9.29774 25.8962 5.84526 32.928 4.44655C39.9598 3.04784 47.2485 3.76571 53.8723 6.50938C60.4961 9.25306 66.1576 13.8993 70.1408 19.8606C74.124 25.8219 76.25 32.8304 76.25 40C76.25 49.6141 72.4308 58.8344 65.6326 65.6326C58.8344 72.4308 49.6141 76.25 40 76.25ZM40 6.25002C33.3249 6.25002 26.7997 8.22942 21.2495 11.9379C15.6994 15.6464 11.3735 20.9174 8.81908 27.0844C6.26462 33.2515 5.59626 40.0375 6.89851 46.5843C8.20076 53.1312 11.4151 59.1448 16.1352 63.8649C20.8552 68.5849 26.8689 71.7993 33.4157 73.1015C39.9626 74.4038 46.7486 73.7354 52.9156 71.1809C59.0826 68.6265 64.3536 64.3007 68.0621 58.7505C71.7706 53.2004 73.75 46.6751 73.75 40C73.75 31.049 70.1942 22.4645 63.8649 16.1352C57.5355 9.80581 48.9511 6.25002 40 6.25002Z" fill="url(#paint1_linear_1344_12893)"/>
<defs>
<linearGradient id="paint0_linear_1344_12893" x1="27.0596" y1="-20.5769" x2="-16.8469" y2="22.4552" gradientUnits="userSpaceOnUse">
<stop stop-color="#2DD1DB"/>
<stop offset="0.60721" stop-color="#2D9CDB"/>
<stop offset="1" stop-color="#1A8ED0"/>
</linearGradient>
<linearGradient id="paint1_linear_1344_12893" x1="19.1516" y1="-85.4808" x2="-68.5649" y2="-18.6154" gradientUnits="userSpaceOnUse">
<stop stop-color="#2DD1DB"/>
<stop offset="0.60721" stop-color="#2D9CDB"/>
<stop offset="1" stop-color="#1A8ED0"/>
</linearGradient>
</defs>
</svg>
