<svg width="133" height="32" viewBox="0 0 133 32" fill="none" xmlns="http://www.w3.org/2000/svg">
<path d="M70.5547 31.6453L69.0423 28.3375L67.5303 31.6453L65.5605 26.5484H66.4458L67.3088 28.8482L67.6112 29.7286L67.9876 28.8626L69.0423 26.5484V26.5982V26.5484L70.1121 28.9191L70.4662 29.743L70.7464 28.9335L71.6392 26.5484H72.5244L70.5547 31.6453Z" fill="white"/>
<path d="M74.0811 29.6363H75.0548C75.63 29.6008 76.1024 29.0758 76.1024 28.4296C76.1024 27.8049 75.6745 27.2938 75.1358 27.2301H74.0811V29.6363ZM75.7555 30.1474L76.788 31.5246H75.7999L74.8849 30.2964H74.0811V31.5246H73.3066V26.5552H73.9628H74.0811H75.1358V26.57C76.0655 26.5982 76.8106 27.4285 76.8106 28.4296C76.8106 29.1961 76.3827 29.8494 75.7555 30.1474Z" fill="white"/>
<path d="M78.5507 31.5246H77.7461V26.5551H78.5507V31.5246Z" fill="white"/>
<path d="M83.1025 26.5698V27.2793H81.5535V31.5177H80.6826V27.2793H79.1777V26.5698H83.1025Z" fill="white"/>
<path d="M84.5117 31.5246H83.707V26.5551H84.5117V31.5246Z" fill="white"/>
<path d="M85.5078 26.4488L88.3552 29.1534L88.9745 29.7713L88.9673 29.012V26.5624H89.816V31.5883L86.8281 28.8056L86.3192 28.2806L86.3267 28.8981V31.4963H85.5078V26.4488Z" fill="white"/>
<path d="M96.1295 29.0473C96.1295 30.4882 95.0747 31.6383 93.5183 31.6383C92.0503 31.6383 90.8555 30.4882 90.8555 29.0473C90.8555 27.6203 92.0503 26.4418 93.5183 26.4418C94.6468 26.4418 95.2518 26.8964 95.7313 27.3506L95.0894 27.8334C94.7647 27.5422 94.278 27.2155 93.5183 27.2155C92.5076 27.2155 91.6962 28.0318 91.6962 29.0473C91.6962 30.0691 92.5076 30.893 93.5183 30.893C94.315 30.893 95.0085 30.4316 95.2296 29.6576H93.9386V28.962H96.1295V29.0473Z" fill="white"/>
<path d="M103.307 30.2471C103.27 31.049 102.378 31.6522 101.323 31.6028C100.453 31.553 99.7592 31.0773 99.5527 30.4813L100.453 30.2471C100.593 30.6017 100.888 30.7937 101.367 30.8148C101.913 30.8431 102.378 30.6232 102.393 30.1973C102.429 29.7854 102.002 29.4519 101.448 29.4232C101.426 29.4232 101.411 29.4232 101.389 29.4089C100.364 29.3312 99.6706 28.6213 99.7075 27.8472C99.7592 27.0381 100.563 26.4206 101.611 26.4844C102.334 26.5202 102.924 26.8533 103.226 27.3007L102.429 27.6202C102.267 27.3791 101.942 27.2441 101.567 27.2226C101.035 27.1871 100.526 27.4644 100.512 27.8827C100.489 28.295 100.939 28.6568 101.485 28.685C102.54 28.7416 103.359 29.4519 103.307 30.2471Z" fill="white"/>
<path d="M104.938 27.2226V29.3384H106.959V30.0053H104.938V30.8574H107.298V31.5247H104.178V26.5553H107.298V27.2226H104.938Z" fill="white"/>
<path d="M109.12 29.6363H110.094C110.669 29.6008 111.141 29.0758 111.141 28.4296C111.141 27.8049 110.714 27.2938 110.175 27.2301H109.12V29.6363ZM110.795 30.1474L111.827 31.5246H110.839L109.924 30.2964H109.12V31.5246H108.346V26.5552H109.002H109.12H110.175V26.57C111.105 26.5982 111.85 27.4285 111.85 28.4296C111.85 29.1961 111.422 29.8494 110.795 30.1474Z" fill="white"/>
<path d="M116.894 26.5554L114.526 31.624L112.52 26.5554H113.368L114.305 28.9692L114.593 29.7851L114.918 28.9903L116.024 26.5554H116.894Z" fill="white"/>
<path d="M118.318 31.5246H117.514V26.5551H118.318V31.5246Z" fill="white"/>
<path d="M123.976 30.4101C123.504 31.1272 122.678 31.6028 121.741 31.6028C120.296 31.6028 119.145 30.4455 119.145 29.0329C119.145 27.6131 120.296 26.4701 121.741 26.4701C122.627 26.4701 123.408 26.8816 123.895 27.5421L123.312 27.9326C122.943 27.4358 122.442 27.1234 121.741 27.1234C120.723 27.1234 119.875 27.9963 119.875 29.0329C119.875 30.0623 120.723 30.9427 121.741 30.9427C122.42 30.9427 122.966 30.6089 123.305 30.1336L123.976 30.4101Z" fill="white"/>
<path d="M125.643 27.2226V29.3384H127.664V30.0053H125.643V30.8574H128.003V31.5247H124.883V26.5553H128.003V27.2226H125.643Z" fill="white"/>
<path d="M132.54 30.2471C132.503 31.049 131.61 31.6522 130.556 31.6028C129.685 31.553 128.992 31.0773 128.785 30.4813L129.685 30.2471C129.825 30.6017 130.12 30.7937 130.6 30.8148C131.145 30.8431 131.61 30.6232 131.625 30.1973C131.662 29.7854 131.234 29.4519 130.681 29.4232C130.659 29.4232 130.644 29.4232 130.622 29.4089C129.597 29.3312 128.903 28.6213 128.94 27.8472C128.992 27.0381 129.796 26.4206 130.843 26.4844C131.566 26.5202 132.156 26.8533 132.459 27.3007L131.662 27.6202C131.5 27.3791 131.175 27.2441 130.799 27.2226C130.268 27.1871 129.759 27.4644 129.744 27.8827C129.722 28.295 130.172 28.6568 130.718 28.685C131.772 28.7416 132.592 29.4519 132.54 30.2471Z" fill="white"/>
<path d="M0.554688 24.913C0.554688 24.913 3.0976 25.3875 8.59787 21.1738C14.0973 16.9597 23.9884 10.0713 35.8154 10.2195C35.8154 10.2195 27.0188 6.73326 10.0761 16.6633L13.9199 9.00762L15.8567 12.8161L19.7925 11.2868L13.8604 0.164343L0.554688 24.913Z" fill="url(#paint0_linear_1704_13829)"/>
<path d="M17.2754 16.3442C17.2754 16.3442 20.7793 24.7943 26.8707 24.7349L21.5113 14.3001L17.2754 16.3442Z" fill="white"/>
<path fill-rule="evenodd" clip-rule="evenodd" d="M66.7009 13.2272C67.8168 12.1691 69.2121 11.6293 70.9095 11.6293C72.5835 11.6293 73.9784 12.1691 75.0946 13.2272C76.2113 14.2849 76.769 15.6019 76.769 17.1994V24.2173H74.9787V17.0269C74.9787 15.9907 74.5599 15.1055 73.7466 14.3498C72.9324 13.5941 72.0023 13.2272 70.9095 13.2272C69.8167 13.2272 68.8398 13.5941 68.0264 14.3498C67.2126 15.1055 66.8173 15.9907 66.8173 17.0269V24.2173H65.0266V17.1994C65.0266 15.6019 65.5847 14.2849 66.7009 13.2272ZM87.6743 13.9395C88.8139 12.277 90.3482 11.4998 92.2782 11.6508C93.72 11.7587 94.8827 12.2555 95.7893 13.1407C96.7424 14.069 97.2311 15.3215 97.2311 16.854V24.2173H95.3939V16.66C95.3939 15.7099 95.0914 14.8896 94.5103 14.2203C93.9288 13.5511 93.1384 13.2057 92.1853 13.2057C91.2088 13.2057 90.3712 13.5076 89.6507 14.0905C88.9529 14.6737 88.6043 15.4075 88.6043 16.2927V24.2173H86.7442V16.2927C86.7442 15.4075 86.3953 14.6737 85.6744 14.0905C84.9773 13.5076 84.1397 13.2057 83.1632 13.2057C82.2101 13.2057 81.4424 13.5511 80.8613 14.2203C80.2797 14.8896 80.0011 15.6884 80.0011 16.66V24.2173H78.1643V16.854C78.1643 15.3215 78.6292 14.069 79.5827 13.1407C80.4659 12.2555 81.6286 11.7587 83.0703 11.6508C85.0004 11.4998 86.5346 12.277 87.6743 13.9395ZM115.6 13.2272C116.716 12.1691 118.111 11.6293 119.808 11.6293C121.482 11.6293 122.878 12.1691 123.994 13.2272C125.11 14.2849 125.668 15.6019 125.668 17.1994V24.2173H123.878V17.0269C123.878 15.9907 123.459 15.1055 122.645 14.3498C121.831 13.5941 120.901 13.2272 119.808 13.2272C118.716 13.2272 117.739 13.5941 116.925 14.3498C116.111 15.1055 115.716 15.9907 115.716 17.0269V24.2173H113.926V17.1994C113.926 15.6019 114.484 14.2849 115.6 13.2272ZM131.899 11.8882V13.4216H128.854V20.3737C128.854 22.2091 129.877 23.1158 131.899 23.1158V24.4759C128.667 24.4759 127.063 23.2022 127.063 20.6542V7.59167H128.854V11.8882H131.899ZM100.765 13.4216C102.23 12.0826 103.927 11.4564 105.903 11.5643C107.671 11.6723 109.206 12.3416 110.508 13.5941C111.763 14.8247 112.391 16.2063 112.391 17.7396V18.6248H100.486C100.625 19.8558 101.184 20.892 102.183 21.6908C103.183 22.4899 104.346 22.8999 105.694 22.8784C107.787 22.8569 109.276 21.9497 110.182 20.1793H112.065C111.577 21.4968 110.74 22.5545 109.554 23.3317C108.369 24.109 107.066 24.4978 105.624 24.5197C103.811 24.5408 102.207 23.9365 100.811 22.684C99.4163 21.4103 98.6954 19.9204 98.6724 18.1715C98.6256 16.3365 99.323 14.7382 100.765 13.4216ZM31.5443 16.7895L33.0785 17.2648C34.8458 17.8261 35.7993 18.9272 35.9156 20.5466C36.0085 21.6478 35.5897 22.6194 34.66 23.4401C33.7295 24.2384 32.6601 24.6061 31.451 24.5408C30.3347 24.4759 29.4051 24.0444 28.6373 23.2887C27.8934 22.533 27.5215 21.6263 27.5215 20.5682H29.3582V20.9785C29.3582 21.3884 29.6143 21.8203 30.1025 22.274C30.5908 22.727 31.1255 22.9433 31.6836 22.9218C32.4275 22.8999 33.009 22.7059 33.4509 22.2955C33.8462 21.9286 34.032 21.4318 34.0554 20.8271C34.0788 19.7694 33.4274 19.0567 32.1254 18.6679L30.5674 18.2149C28.9398 17.7396 28.0796 16.7031 28.0097 15.1271C27.9633 14.1769 28.3122 13.3566 29.0327 12.6874C29.7766 12.0177 30.6606 11.6508 31.7066 11.6078C32.6137 11.5643 33.4509 11.8452 34.2178 12.428C35.0085 13.0113 35.4269 13.7236 35.4968 14.5872L35.5202 14.9542H33.6601V14.6737C33.6601 13.81 32.73 13.2272 31.7066 13.2272C30.7071 13.2487 29.8699 13.961 29.8465 14.9111C29.7766 15.7963 30.3582 16.4226 31.5443 16.7895ZM41.1939 16.7895L42.7282 17.2648C44.4955 17.8261 45.4489 18.9272 45.5653 20.5466C45.6581 21.6478 45.2394 22.6194 44.3097 23.4401C43.3796 24.2384 42.3098 24.6061 41.1007 24.5408C39.9848 24.4759 39.0547 24.0444 38.287 23.2887C37.5431 22.533 37.1712 21.6263 37.1712 20.5682H39.0083V20.9785C39.0083 21.3884 39.2639 21.8203 39.7522 22.274C40.2404 22.727 40.7752 22.9433 41.3333 22.9218C42.0772 22.8999 42.6587 22.7059 43.1005 22.2955C43.4959 21.9286 43.6817 21.4318 43.7051 20.8271C43.7285 19.7694 43.0771 19.0567 41.7751 18.6679L40.217 18.2149C38.5895 17.7396 37.7293 16.7031 37.6594 15.1271C37.613 14.1769 37.9619 13.3566 38.6824 12.6874C39.4263 12.0177 40.3103 11.6508 41.3563 11.6078C42.2634 11.5643 43.1005 11.8452 43.8679 12.428C44.6582 13.0113 45.0766 13.7236 45.1465 14.5872L45.1699 14.9542H43.3097V14.6737C43.3097 13.81 42.3797 13.2272 41.3563 13.2272C40.3568 13.2487 39.5196 13.961 39.4962 14.9111C39.4263 15.7963 40.0078 16.4226 41.1939 16.7895ZM56.9354 22.7923C58.3072 22.7923 59.4465 22.3386 60.3996 21.4103C61.3531 20.4817 61.8648 19.3806 61.8878 18.085C61.9347 16.7246 61.4464 15.5589 60.3996 14.5442C59.3767 13.5295 58.1445 13.0543 56.6793 13.1192C55.3078 13.1838 54.1681 13.702 53.2151 14.6737C52.2616 15.6454 51.7967 16.7676 51.8197 18.0631C51.8432 19.3806 52.3548 20.4817 53.3544 21.4103C54.3543 22.3386 55.54 22.7923 56.9354 22.7923ZM56.6563 11.4998C58.5629 11.4564 60.2138 12.0826 61.6091 13.3782C63.0271 14.6522 63.7015 16.1852 63.6785 17.9556V23.6341C63.6785 25.1886 62.981 26.4841 61.6091 27.4988C60.2373 28.5139 58.6792 29.0103 56.9119 28.9457C55.3308 28.8808 53.959 28.4489 52.8197 27.6072C51.7269 26.808 51.006 25.7714 50.634 24.5197H52.3548C52.6105 25.3615 53.2151 26.0957 54.1217 26.7C55.0288 27.3263 56.0283 27.6287 57.1215 27.6287C58.4236 27.6072 59.5398 27.1968 60.4929 26.3546C61.4464 25.5344 61.9347 24.5408 61.9347 23.3967V22.2306C60.6326 23.6126 59.0047 24.3468 57.0517 24.4113C55.1451 24.4759 53.4941 23.85 52.1222 22.5764C50.7503 21.2809 50.0529 19.7264 50.0529 17.9337C50.0529 16.2063 50.6805 14.7167 51.9595 13.4646C53.2385 12.2121 54.8196 11.5643 56.6563 11.4998ZM48.5643 24.2173H46.8204V11.9101H48.5643V24.2173ZM100.489 17.3788H110.611C110.611 14.0922 107.634 12.897 105.848 12.897C104.061 12.897 100.489 13.9129 100.489 17.3788Z" fill="white"/>
<path d="M45.9414 8.01285C45.9414 8.98092 46.723 9.76534 47.6876 9.76534C48.6522 9.76534 49.4343 8.98092 49.4343 8.01285C49.4343 7.04479 48.6522 6.26037 47.6876 6.26037C46.723 6.26037 45.9414 7.04479 45.9414 8.01285Z" fill="url(#paint1_linear_1704_13829)"/>
<defs>
<linearGradient id="paint0_linear_1704_13829" x1="8.0453" y1="55.4087" x2="-22.9236" y2="21.7959" gradientUnits="userSpaceOnUse">
<stop stop-color="#2DD1DB"/>
<stop offset="0.60721" stop-color="#2D9CDB"/>
<stop offset="1" stop-color="#1A8ED0"/>
</linearGradient>
<linearGradient id="paint1_linear_1704_13829" x1="46.6834" y1="14.0791" x2="42.4467" y2="10.8607" gradientUnits="userSpaceOnUse">
<stop stop-color="#2DD1DB"/>
<stop offset="0.60721" stop-color="#2D9CDB"/>
<stop offset="1" stop-color="#1A8ED0"/>
</linearGradient>
</defs>
</svg>
