<svg width="48" height="48" viewBox="0 0 48 48" fill="none" xmlns="http://www.w3.org/2000/svg">
<path d="M42.5976 34.3996C41.4251 33.0445 39.469 32.9411 39.4568 32.9594C39.3232 32.9411 39.2017 32.9168 39.0984 32.8804C39.0984 32.8804 39.0923 32.8804 39.0923 32.8743C38.7339 32.7588 38.5638 32.5765 38.5638 32.3091C39.9428 31.0087 40.1372 28.9425 40.1433 28.8635C40.198 28.4016 40.2041 27.9702 40.1615 27.5995C39.9246 24.8891 37.6708 24.2632 36.5651 24.2936C36.5044 24.2936 35.0099 24.251 33.9346 25.2902C33.236 25.9708 32.8897 26.9249 32.8958 28.1342C32.9018 28.3591 32.914 28.6022 32.9383 28.8452C32.9444 28.9364 33.1388 31.0087 34.5178 32.3091C34.4996 32.4793 34.3963 32.6859 33.9771 32.8196H33.9711H33.965C33.8678 32.8561 33.7584 32.8743 33.6309 32.8986C33.2907 32.9168 31.2616 33.1113 30.2228 34.6792C29.755 34.6002 29.4208 34.5759 29.3115 34.5698C29.0381 34.5272 28.789 34.4726 28.5703 34.4057H28.5643C28.1512 34.2659 27.8231 33.8831 27.5862 33.2572C27.2642 32.4368 27.2217 31.5009 27.2338 31.2457C27.2338 31.197 27.2399 31.1545 27.246 31.112C29.8157 28.8513 30.1681 25.035 30.1802 24.883C30.2714 24.0869 30.2835 23.3456 30.2228 22.7014C30.2228 22.7014 30.2228 22.7014 30.2228 22.6953V22.6892C30.2228 22.6771 30.2228 22.6589 30.2167 22.6406C29.7064 16.8249 24.0444 16.9708 24.0323 16.9708C23.9229 16.9647 21.3653 16.8918 19.5307 18.6784C18.34 19.8391 17.7446 21.486 17.7628 23.5826C17.7689 23.9897 17.7932 24.4273 17.8418 24.8648C17.854 25.0289 18.2124 28.8513 20.7821 31.118C20.7821 31.1484 20.7882 31.1727 20.7821 31.2092C20.77 32.0843 20.6971 33.2085 20.6302 33.4091C20.6302 33.4152 20.6242 33.4152 20.6242 33.4212C20.4176 33.8223 20.0167 34.1201 19.4152 34.3146C19.4152 34.3146 19.4152 34.3146 19.4092 34.3146C19.4092 34.3146 19.4092 34.3146 19.4031 34.3146C19.2026 34.3814 18.9718 34.4361 18.6923 34.4726C18.5769 34.4786 18.2185 34.5029 17.7264 34.5941C16.6025 33.0019 14.4458 32.8925 14.3851 32.8925C14.2514 32.8743 14.136 32.85 14.0327 32.8135C14.0267 32.8135 14.0267 32.8135 14.0206 32.8135H14.0145C13.6561 32.6981 13.486 32.5158 13.486 32.2484C14.865 30.9479 15.0594 28.8817 15.0655 28.8027C15.1202 28.3409 15.1263 27.9094 15.0837 27.5387C14.8468 24.8283 12.6112 24.1963 11.4873 24.2328C11.4265 24.2328 9.93208 24.1903 8.86288 25.2294C8.16424 25.9101 7.81797 26.8641 7.82404 28.0735C7.83012 28.2983 7.84227 28.5414 7.86657 28.7845C7.87264 28.8756 8.06704 30.9479 9.44608 32.2484C9.42786 32.4185 9.32458 32.6251 8.9054 32.7588H8.89933C8.80212 32.7892 8.69277 32.8135 8.57127 32.8318C8.28575 32.85 6.50576 33.0019 5.40617 34.272C4.72577 35.0559 4.45239 36.089 4.59212 37.3287L4.79867 39.2187C4.82297 39.4375 4.96269 39.6198 5.16925 39.7049C5.2786 39.7474 7.62357 40.6589 11.3476 40.6589C11.4691 40.6589 11.5966 40.6529 11.7181 40.6529C11.6878 41.1633 11.6938 41.6981 11.7607 42.2572L12.1434 45.7697C12.1677 45.9885 12.3074 46.1708 12.514 46.2559C12.7752 46.3592 17.0217 48 23.7346 48C27.082 48 31.0429 47.5928 35.423 46.3835C35.6538 46.3166 35.8239 46.1222 35.8543 45.8791L36.2371 42.3666C36.3039 41.7953 36.31 41.2484 36.2735 40.7319C36.3221 40.7319 36.3707 40.7319 36.4193 40.7319C38.5273 40.7319 40.6597 40.4402 42.7677 39.8568C42.9986 39.7899 43.1687 39.5955 43.1991 39.3524L43.4056 37.4564C43.5514 36.2167 43.278 35.1896 42.5976 34.3996ZM34.1229 28.7419C34.0986 28.5232 34.0865 28.3226 34.0865 28.1282C34.0804 27.2591 34.3052 26.5968 34.7608 26.1531C35.4655 25.4604 36.5226 25.4786 36.5712 25.4847C36.802 25.4786 38.8007 25.4907 38.9951 27.7271C39.0255 28.0248 39.0194 28.3652 38.9769 28.7602C38.9769 28.7784 38.7946 30.7595 37.4946 31.6893C37.4764 31.7014 37.4642 31.7075 37.446 31.7197C37.4156 31.744 37.3852 31.7622 37.3549 31.7804C36.8506 32.0904 36.2492 32.0904 35.745 31.7804C35.7146 31.7622 35.6842 31.7379 35.6538 31.7197C35.6356 31.7075 35.6235 31.6954 35.6052 31.6893C35.5627 31.6589 35.5263 31.6285 35.4898 31.5981C34.2991 30.6258 34.1229 28.7662 34.1229 28.7419ZM27.574 35.2079L26.1889 37.5961L24.8403 36.2227L26.8511 34.4239C27.0637 34.746 27.3067 35.0073 27.574 35.2079ZM24.014 37.0614L24.8463 37.9121L24.0566 38.7872C24.0384 38.8055 24.0262 38.8237 24.008 38.848C23.9958 38.8298 23.9776 38.8055 23.9594 38.7872L23.2121 37.9668L24.014 37.0614ZM21.8088 33.4638C21.8817 33.0384 21.9182 32.4489 21.9364 31.9202C22.5925 32.2605 23.2972 32.4368 24.008 32.4368C24.7248 32.4368 25.4356 32.2544 26.0856 31.9081C26.1221 32.3091 26.2071 32.7953 26.3529 33.2875L23.9837 35.4023L21.8088 33.4638ZM24.008 39.7717L24.9253 44.4206L24.008 45.1255L23.0846 44.4206L24.008 39.7717ZM20.3386 19.5292C21.8027 18.095 23.9655 18.1436 24.0323 18.1497C24.2085 18.1436 28.2544 18.0525 28.9652 22.1848C26.1342 22.3854 22.4285 20.4407 22.3859 20.4225C22.1855 20.3192 21.9485 20.3314 21.7663 20.459L19.0082 22.3915C19.1722 21.2004 19.6157 20.2402 20.3386 19.5292ZM19.0082 24.7493C18.9778 24.4455 18.9596 24.1538 18.9475 23.8743L22.1551 21.6318C23.1757 22.1302 26.3712 23.5582 29.0685 23.3577C29.0806 23.7953 29.0685 24.251 29.0077 24.7615C29.0017 24.804 28.6372 28.7359 26.0249 30.5833C26.0006 30.5954 25.9824 30.6076 25.9641 30.6258C25.8973 30.6744 25.8366 30.717 25.7697 30.7595C24.6702 31.4401 23.3579 31.4401 22.2523 30.7595C22.1855 30.717 22.1186 30.6744 22.0518 30.6258C22.0336 30.6076 22.0093 30.5954 21.985 30.5833C21.8939 30.5164 21.8027 30.4496 21.7177 30.3767C19.3545 28.4502 19.0143 24.798 19.0082 24.7493ZM21.256 34.5455L23.1635 36.247L21.9911 37.5779L20.4662 35.141C20.77 34.9769 21.0373 34.7825 21.256 34.5455ZM9.04513 28.6629C9.02083 28.4502 9.00868 28.2436 9.00868 28.0492C9.0026 27.1801 9.22738 26.5178 9.68301 26.0741C10.3877 25.3814 11.4508 25.4057 11.4934 25.4057C11.5845 25.4057 13.7168 25.351 13.9173 27.6481C13.9477 27.9398 13.9416 28.2801 13.8991 28.6751C13.8991 28.6933 13.7047 30.6805 12.4107 31.6103C12.3925 31.6224 12.3803 31.6285 12.3621 31.6407C12.3317 31.665 12.3014 31.6832 12.271 31.7014C11.7667 32.0114 11.1653 32.0114 10.6611 31.7014C10.6307 31.6832 10.6003 31.6589 10.57 31.6407C10.5517 31.6285 10.5396 31.6164 10.5214 31.6103C10.4788 31.5799 10.4424 31.5495 10.3999 31.5191C9.2213 30.5529 9.04513 28.6933 9.04513 28.6629ZM11.9065 39.4679C8.9054 39.5469 6.73053 38.9695 5.94078 38.7143L5.77675 37.1951C5.67347 36.2957 5.85573 35.5725 6.30528 35.0438C7.13756 34.0775 8.64417 34.0046 8.65632 34.0046C8.67455 34.0046 8.69885 34.0046 8.71707 33.9985C8.91148 33.9742 9.0998 33.9317 9.2699 33.877C9.27598 33.877 9.27598 33.8709 9.28205 33.8709C9.95638 33.6522 10.2905 33.2693 10.4667 32.9108C10.7887 33.0445 11.1289 33.1113 11.4751 33.1113C11.8093 33.1113 12.1434 33.0445 12.4593 32.9168C12.6659 33.3787 13.079 33.7372 13.6622 33.9256C13.6682 33.9256 13.6682 33.9256 13.6743 33.9256C13.8444 33.9803 14.0267 34.0229 14.2879 34.0593C14.3061 34.0593 15.594 34.1262 16.4506 34.904C15.3753 35.2504 14.1239 35.8642 13.1701 36.9702C12.5444 37.6873 12.1313 38.5259 11.9065 39.4679ZM35.0767 42.2329L34.7365 45.3504C23.4977 48.3464 15.0291 45.8609 13.2855 45.2775L12.9392 42.1296C12.7388 40.3186 13.1093 38.8419 14.0449 37.7541C15.0534 36.5813 16.5296 36.0647 17.5623 35.8338C17.5745 35.8338 17.5806 35.8277 17.5927 35.8277C18.2731 35.6758 18.7591 35.6515 18.7713 35.6515C18.7895 35.6515 18.8138 35.6515 18.832 35.6454C19.0082 35.6211 19.1722 35.5907 19.3241 35.5543L21.4018 38.8784C21.499 39.0364 21.6691 39.1397 21.8513 39.1518C21.8696 39.1518 21.8817 39.1518 21.8999 39.1518C22.07 39.1518 22.228 39.0789 22.3434 38.9513L22.4285 38.8541L22.8841 39.3585L21.8513 44.5543C21.8088 44.7731 21.8939 45.004 22.07 45.1377L23.6435 46.3349C23.7467 46.4139 23.8743 46.4564 24.0019 46.4564C24.1295 46.4564 24.2571 46.4139 24.3603 46.3349L25.9277 45.1377C26.1039 45.004 26.1889 44.7731 26.1464 44.5543L25.1197 39.3585L25.6665 38.7508L25.8852 38.9756C25.9945 39.0911 26.1464 39.1518 26.3043 39.1518C26.3286 39.1518 26.3529 39.1518 26.3772 39.1458C26.5595 39.1215 26.7235 39.0182 26.8146 38.8602L28.6736 35.6636C28.8376 35.7001 29.0017 35.7305 29.1778 35.7548C29.1961 35.7548 29.2204 35.7609 29.2386 35.7609C29.269 35.7609 32.2579 35.8885 33.9589 37.8574C34.9005 38.9452 35.2772 40.4159 35.0767 42.2329ZM42.2453 37.3287L42.0812 38.8237C40.0947 39.3342 38.0839 39.5651 36.1034 39.5347C35.8786 38.6049 35.4655 37.7845 34.858 37.0796C33.886 35.9493 32.5981 35.3294 31.5107 34.9891C32.3612 34.1505 33.722 34.0775 33.7341 34.0775C33.7584 34.0775 33.7888 34.0715 33.8131 34.0715C33.9832 34.0411 34.1594 34.0046 34.3356 33.9499C34.3416 33.9499 34.3416 33.9499 34.3477 33.9499C34.3538 33.9499 34.3538 33.9439 34.3599 33.9439H34.3659C34.3659 33.9439 34.3659 33.9439 34.372 33.9439C35.0403 33.7251 35.3744 33.3483 35.5445 32.9898C35.8665 33.1235 36.2067 33.1903 36.553 33.1903C36.8871 33.1903 37.2212 33.1235 37.5371 32.9958C37.7437 33.4577 38.1507 33.8102 38.7278 34.0046C38.7339 34.0046 38.74 34.0107 38.746 34.0168C38.9222 34.0715 39.1105 34.1079 39.3657 34.1444C39.3779 34.1444 40.8845 34.2234 41.7107 35.1836C42.1602 35.7001 42.3425 36.4233 42.2453 37.3287Z" fill="url(#paint0_linear_1704_14289)"/>
<path d="M24.0386 6.67761C23.6347 6.67761 23.2398 6.79741 22.9039 7.02184C22.568 7.24628 22.3062 7.56529 22.1516 7.93851C21.997 8.31174 21.9565 8.72243 22.0353 9.11865C22.1142 9.51486 22.3087 9.87881 22.5943 10.1645C22.88 10.4501 23.2439 10.6447 23.6402 10.7235C24.0364 10.8023 24.4471 10.7618 24.8203 10.6072C25.1935 10.4526 25.5125 10.1908 25.737 9.85495C25.9614 9.51905 26.0812 9.12414 26.0812 8.72017C26.0805 8.17866 25.8651 7.65953 25.4822 7.27662C25.0993 6.89372 24.5802 6.6783 24.0386 6.67761ZM24.0386 10.2423C23.7376 10.2423 23.4433 10.153 23.193 9.98579C22.9427 9.81854 22.7476 9.58081 22.6324 9.30267C22.5171 9.02453 22.487 8.71848 22.5457 8.42321C22.6045 8.12794 22.7494 7.85672 22.9623 7.64384C23.1752 7.43096 23.4464 7.28599 23.7417 7.22726C24.037 7.16852 24.343 7.19867 24.6212 7.31388C24.8993 7.42908 25.137 7.62418 25.3043 7.8745C25.4715 8.12482 25.5608 8.41911 25.5608 8.72017C25.5608 8.92006 25.5214 9.11799 25.4449 9.30267C25.3684 9.48735 25.2563 9.65515 25.115 9.79649C24.9736 9.93784 24.8058 10.05 24.6212 10.1265C24.4365 10.203 24.2385 10.2423 24.0386 10.2423Z" fill="url(#paint1_linear_1704_14289)"/>
<path d="M24.0387 5.26355C23.355 5.26355 22.6867 5.46628 22.1183 5.8461C21.5498 6.22592 21.1068 6.76577 20.8452 7.39738C20.5835 8.029 20.5151 8.72401 20.6485 9.39453C20.7818 10.0651 21.111 10.681 21.5945 11.1644C22.0779 11.6478 22.6938 11.977 23.3643 12.1104C24.0348 12.2438 24.7298 12.1753 25.3615 11.9137C25.9931 11.6521 26.5329 11.209 26.9127 10.6406C27.2926 10.0721 27.4953 9.40383 27.4953 8.72018C27.4946 7.80363 27.1302 6.92482 26.4821 6.27673C25.834 5.62863 24.9552 5.26423 24.0387 5.26355ZM24.0387 11.6617C23.4569 11.6617 22.8882 11.4891 22.4045 11.1659C21.9207 10.8427 21.5437 10.3833 21.3211 9.84583C21.0985 9.30835 21.0402 8.71691 21.1537 8.14632C21.2672 7.57573 21.5473 7.05161 21.9587 6.64024C22.3701 6.22886 22.8942 5.94871 23.4648 5.83522C24.0354 5.72172 24.6268 5.77997 25.1643 6.0026C25.7018 6.22524 26.1612 6.60225 26.4844 7.08598C26.8076 7.5697 26.9801 8.13841 26.9801 8.72018C26.9795 9.5001 26.6693 10.2479 26.1178 10.7994C25.5664 11.3509 24.8186 11.661 24.0387 11.6617Z" fill="url(#paint2_linear_1704_14289)"/>
<path d="M30.0163 7.3858L28.6742 7.23323C28.594 6.9792 28.4919 6.73262 28.369 6.49624L29.2095 5.43601C29.2489 5.38616 29.2686 5.32354 29.2647 5.2601C29.2609 5.19666 29.2339 5.13685 29.1888 5.09209L27.6683 3.57156C27.6235 3.52646 27.5637 3.49941 27.5002 3.4956C27.4368 3.49178 27.3742 3.51146 27.3243 3.55088L26.2641 4.3913C26.0277 4.26847 25.7811 4.16637 25.5271 4.08616L25.3745 2.74407C25.3675 2.68053 25.3372 2.62184 25.2894 2.57934C25.2417 2.53684 25.1799 2.51353 25.1159 2.51392H22.9645C22.9005 2.51353 22.8387 2.53684 22.791 2.57934C22.7432 2.62184 22.7129 2.68053 22.7059 2.74407L22.5533 4.08616C22.2994 4.16684 22.0529 4.26892 21.8163 4.3913L20.7561 3.55088C20.7062 3.51146 20.6436 3.49178 20.5802 3.4956C20.5167 3.49941 20.4569 3.52646 20.4122 3.57156L18.8916 5.09209C18.8465 5.13685 18.8195 5.19666 18.8157 5.2601C18.8118 5.32354 18.8315 5.38616 18.8709 5.43601L19.7114 6.49624C19.589 6.73283 19.4869 6.97937 19.4062 7.23323L18.0641 7.3858C18.0006 7.39283 17.9419 7.42315 17.8994 7.4709C17.8569 7.51866 17.8336 7.58046 17.834 7.64439V9.79588C17.8336 9.85981 17.8569 9.92161 17.8994 9.96937C17.9419 10.0171 18.0006 10.0474 18.0641 10.0545L19.4062 10.207C19.4869 10.4609 19.589 10.7074 19.7114 10.944L18.8709 12.0043C18.8315 12.0541 18.8118 12.1167 18.8157 12.1802C18.8195 12.2436 18.8465 12.3034 18.8916 12.3482L20.4122 13.8687C20.4569 13.9138 20.5167 13.9409 20.5802 13.9447C20.6436 13.9485 20.7062 13.9288 20.7561 13.8894L21.8163 13.049C22.0529 13.1714 22.2994 13.2734 22.5533 13.3541L22.7059 14.6962C22.7129 14.7597 22.7432 14.8184 22.791 14.8609C22.8387 14.9034 22.9005 14.9267 22.9645 14.9263H25.1159C25.1799 14.9267 25.2417 14.9034 25.2894 14.8609C25.3372 14.8184 25.3675 14.7597 25.3745 14.6962L25.5271 13.3541C25.7811 13.2739 26.0277 13.1718 26.2641 13.049L27.3243 13.8894C27.3742 13.9288 27.4368 13.9485 27.5002 13.9447C27.5637 13.9409 27.6235 13.9138 27.6683 13.8687L29.1888 12.3482C29.2339 12.3034 29.2609 12.2436 29.2647 12.1802C29.2686 12.1167 29.2489 12.0541 29.2095 12.0043L28.369 10.944C28.4914 10.7074 28.5935 10.4609 28.6742 10.207L30.0163 10.0545C30.0798 10.0474 30.1385 10.0171 30.181 9.96937C30.2235 9.92161 30.2468 9.85981 30.2464 9.79588V7.64439C30.2468 7.58046 30.2235 7.51866 30.181 7.4709C30.1385 7.42315 30.0798 7.39283 30.0163 7.3858ZM29.7292 9.56573L28.4363 9.71313C28.3853 9.71886 28.3372 9.73963 28.298 9.77278C28.2589 9.80594 28.2305 9.84998 28.2165 9.89932C28.1239 10.2294 27.9919 10.5472 27.8234 10.8458C27.7984 10.8905 27.7872 10.9417 27.7914 10.9928C27.7955 11.0439 27.8148 11.0927 27.8467 11.1328L28.6509 12.1439L27.4536 13.3412L26.4425 12.537C26.4021 12.5055 26.3533 12.4867 26.3022 12.483C26.251 12.4793 26.2 12.4909 26.1555 12.5163C25.8563 12.6828 25.5387 12.8139 25.209 12.9067C25.1597 12.9208 25.1157 12.9492 25.0825 12.9883C25.0494 13.0275 25.0286 13.0756 25.0229 13.1265L24.8755 14.4195H23.1946L23.0472 13.1265C23.0415 13.0756 23.0207 13.0275 22.9876 12.9883C22.9544 12.9492 22.9104 12.9208 22.861 12.9067C22.5314 12.8139 22.2138 12.6828 21.9146 12.5163C21.8701 12.4909 21.819 12.4793 21.7679 12.483C21.7168 12.4867 21.6679 12.5055 21.6275 12.537L20.6164 13.3412L19.4192 12.1439L20.2234 11.1328C20.2549 11.0924 20.2737 11.0435 20.2773 10.9924C20.281 10.9413 20.2694 10.8903 20.2441 10.8458C20.0775 10.5466 19.9464 10.2289 19.8536 9.89932C19.8396 9.84998 19.8112 9.80594 19.772 9.77278C19.7329 9.73963 19.6848 9.71886 19.6338 9.71313L18.3408 9.56573V7.87454L19.6338 7.72714C19.6848 7.72141 19.7329 7.70064 19.772 7.66749C19.8112 7.63433 19.8396 7.59029 19.8536 7.54095C19.9464 7.21134 20.0775 6.8937 20.2441 6.59451C20.2694 6.54999 20.281 6.49895 20.2773 6.44784C20.2737 6.39674 20.2549 6.34788 20.2234 6.30747L19.4192 5.29637L20.6164 4.09909L21.6275 4.90331C21.6679 4.93481 21.7168 4.95359 21.7679 4.95727C21.819 4.96096 21.8701 4.94938 21.9146 4.924C22.2138 4.75742 22.5314 4.62638 22.861 4.53353C22.9104 4.51949 22.9544 4.49109 22.9876 4.45195C23.0207 4.41281 23.0415 4.3647 23.0472 4.31372L23.1946 3.02076H24.8858L25.0332 4.31372C25.0389 4.3647 25.0597 4.41281 25.0929 4.45195C25.126 4.49109 25.17 4.51949 25.2194 4.53353C25.549 4.62638 25.8666 4.75742 26.1658 4.924C26.2103 4.94938 26.2614 4.96096 26.3125 4.95727C26.3636 4.95359 26.4125 4.93481 26.4529 4.90331L27.464 4.09909L28.6612 5.29637L27.857 6.30747C27.8251 6.34761 27.8059 6.39634 27.8017 6.44745C27.7976 6.49856 27.8087 6.54975 27.8338 6.59451C28.0022 6.8931 28.1342 7.21086 28.2268 7.54095C28.2409 7.59029 28.2692 7.63433 28.3084 7.66749C28.3475 7.70064 28.3956 7.72141 28.4466 7.72714L29.7396 7.87454L29.7292 9.56573Z" fill="url(#paint3_linear_1704_14289)"/>
<defs>
<linearGradient id="paint0_linear_1704_14289" x1="12.8176" y1="-21.2233" x2="-26.0771" y2="15.9319" gradientUnits="userSpaceOnUse">
<stop stop-color="#2DD1DB"/>
<stop offset="0.60721" stop-color="#2D9CDB"/>
<stop offset="1" stop-color="#1A8ED0"/>
</linearGradient>
<linearGradient id="paint1_linear_1704_14289" x1="22.8639" y1="1.64979" x2="17.9214" y2="5.4174" gradientUnits="userSpaceOnUse">
<stop stop-color="#2DD1DB"/>
<stop offset="0.60721" stop-color="#2D9CDB"/>
<stop offset="1" stop-color="#1A8ED0"/>
</linearGradient>
<linearGradient id="paint2_linear_1704_14289" x1="22.0507" y1="-3.24508" x2="13.6864" y2="3.13089" gradientUnits="userSpaceOnUse">
<stop stop-color="#2DD1DB"/>
<stop offset="0.60721" stop-color="#2D9CDB"/>
<stop offset="1" stop-color="#1A8ED0"/>
</linearGradient>
<linearGradient id="paint3_linear_1704_14289" x1="20.4708" y1="-12.7629" x2="5.45323" y2="-1.31518" gradientUnits="userSpaceOnUse">
<stop stop-color="#2DD1DB"/>
<stop offset="0.60721" stop-color="#2D9CDB"/>
<stop offset="1" stop-color="#1A8ED0"/>
</linearGradient>
</defs>
</svg>
