<svg width="48" height="48" viewBox="0 0 48 48" fill="none" xmlns="http://www.w3.org/2000/svg">
<path fill-rule="evenodd" clip-rule="evenodd" d="M4.00096 3.00098C3.86957 3.00086 3.73943 3.02664 3.618 3.07684C3.49657 3.12705 3.38622 3.20068 3.29326 3.29355C3.20031 3.38642 3.12656 3.4967 3.07624 3.61808C3.02592 3.73946 3.00001 3.86957 3 4.00097V43.9995C3.00001 44.1309 3.02592 44.261 3.07624 44.3824C3.12656 44.5038 3.20031 44.614 3.29326 44.7069C3.38622 44.7998 3.49657 44.8734 3.618 44.9236C3.73943 44.9738 3.86957 44.9996 4.00096 44.9995H43.9985C44.2639 44.9995 44.5183 44.8941 44.706 44.7064C44.8936 44.5188 44.999 44.2643 44.999 43.999C44.999 43.7337 44.8936 43.4792 44.706 43.2916C44.5183 43.1039 44.2639 42.9985 43.9985 42.9985H5.00095V40.9986H6.00094C6.13244 40.9987 6.26268 40.973 6.38422 40.9228C6.50576 40.8726 6.61621 40.7989 6.70925 40.706C6.8023 40.6131 6.87611 40.5027 6.92647 40.3813C6.97683 40.2598 7.00276 40.1296 7.00276 39.9981C7.00276 39.8666 6.97683 39.7364 6.92647 39.6149C6.87611 39.4934 6.8023 39.3831 6.70925 39.2902C6.61621 39.1972 6.50576 39.1236 6.38422 39.0734C6.26268 39.0232 6.13244 38.9974 6.00094 38.9976H5.00095V37.0015H6.00094C6.26628 37.0015 6.52076 36.8961 6.70838 36.7085C6.89601 36.5209 7.00141 36.2664 7.00141 36.0011C7.00141 35.7357 6.89601 35.4812 6.70838 35.2936C6.52076 35.106 6.26628 35.0006 6.00094 35.0006H5.00095V33.0006H6.00094C6.26628 33.0006 6.52076 32.8952 6.70838 32.7076C6.89601 32.5199 7.00141 32.2655 7.00141 32.0001C7.00141 31.7348 6.89601 31.4803 6.70838 31.2927C6.52076 31.1051 6.26628 30.9997 6.00094 30.9997H5.00095V28.9997H6.00094C6.26628 28.9997 6.52076 28.8943 6.70838 28.7066C6.89601 28.519 7.00141 28.2645 7.00141 27.9992C7.00141 27.7339 6.89601 27.4794 6.70838 27.2918C6.52076 27.1041 6.26628 26.9987 6.00094 26.9987H5.00095V24.9988H6.00094C6.26628 24.9988 6.52076 24.8933 6.70838 24.7057C6.89601 24.5181 7.00141 24.2636 7.00141 23.9983C7.00141 23.7329 6.89601 23.4785 6.70838 23.2908C6.52076 23.1032 6.26628 22.9978 6.00094 22.9978H5.00095V21.0017H6.00094C6.26628 21.0017 6.52076 20.8963 6.70838 20.7087C6.89601 20.5211 7.00141 20.2666 7.00141 20.0013C7.00141 19.7359 6.89601 19.4814 6.70838 19.2938C6.52076 19.1062 6.26628 19.0008 6.00094 19.0008H5.00095V17.0008H6.00094C6.26628 17.0008 6.52076 16.8954 6.70838 16.7078C6.89601 16.5201 7.00141 16.2657 7.00141 16.0003C7.00141 15.735 6.89601 15.4805 6.70838 15.2929C6.52076 15.1053 6.26628 14.9999 6.00094 14.9999H5.00095V12.9989H6.00094C6.13413 13.0019 6.26656 12.9782 6.39047 12.9292C6.51438 12.8803 6.62727 12.8071 6.72251 12.714C6.81775 12.6208 6.89342 12.5096 6.94508 12.3868C6.99674 12.264 7.02336 12.1321 7.02336 11.9989C7.02336 11.8657 6.99674 11.7338 6.94508 11.611C6.89342 11.4882 6.81775 11.377 6.72251 11.2838C6.62727 11.1907 6.51438 11.1175 6.39047 11.0686C6.26656 11.0197 6.13413 10.996 6.00094 10.9989H5.00095V8.99797H6.00094C6.13739 9.00673 6.27418 8.98741 6.40287 8.94122C6.53156 8.89503 6.64941 8.82294 6.74914 8.7294C6.84887 8.63587 6.92836 8.52288 6.9827 8.39741C7.03704 8.27194 7.06507 8.13667 7.06507 7.99994C7.06507 7.86321 7.03704 7.72793 6.9827 7.60247C6.92836 7.477 6.84887 7.36401 6.74914 7.27048C6.64941 7.17694 6.53156 7.10485 6.40287 7.05866C6.27418 7.01246 6.13739 6.99315 6.00094 7.0019H5.00095V5.00095H6.00094C6.13413 5.00391 6.26656 4.98023 6.39047 4.9313C6.51438 4.88238 6.62727 4.80919 6.72251 4.71604C6.81775 4.62289 6.89342 4.51165 6.94509 4.38886C6.99675 4.26606 7.02336 4.13419 7.02336 4.00097C7.02336 3.86775 6.99675 3.73587 6.94509 3.61307C6.89342 3.49028 6.81775 3.37904 6.72251 3.28589C6.62727 3.19274 6.51438 3.11956 6.39047 3.07063C6.26656 3.0217 6.13413 2.99802 6.00094 3.00098H4.00096ZM40.0015 12.9989C38.3565 12.9989 37.0005 14.3548 37.0005 15.9998C37.0005 16.3644 37.0704 16.7133 37.192 17.0379L29.526 23.4255C29.0769 23.1563 28.5545 22.9978 27.9977 22.9978C27.1952 22.9978 26.4636 23.3219 25.9235 23.8435L22.9753 22.3689C22.9904 22.2482 23.0007 22.1262 23.0007 22.0017C23.0007 20.3567 21.6448 19.0008 19.9998 19.0008C18.3548 19.0008 16.9988 20.3567 16.9988 22.0017C16.9988 22.3123 17.048 22.6127 17.1375 22.8953L13.6571 25.5066C13.1804 25.1868 12.6092 24.9988 11.9979 24.9988C10.3529 24.9988 9.0009 26.3537 9.0009 27.9987C9.0009 29.6437 10.3529 30.9997 11.9979 30.9997C13.6429 30.9997 14.9989 29.6437 14.9989 27.9987C14.9989 27.6877 14.9499 27.3873 14.8602 27.1042L18.3426 24.4929C18.819 24.8115 19.389 24.9988 19.9998 24.9988C20.8021 24.9988 21.534 24.6753 22.075 24.155L25.0261 25.6306C25.011 25.7516 25.0017 25.8739 25.0017 25.9987C25.0017 27.6437 26.3527 28.9997 27.9977 28.9997C29.6427 28.9997 30.9987 27.6437 30.9987 25.9987C30.9987 25.6345 30.9287 25.286 30.8073 24.9616L38.4732 18.573C38.9224 18.8424 39.4446 19.0008 40.0015 19.0008C41.6465 19.0008 42.9975 17.6448 42.9975 15.9998C42.9975 14.3548 41.6465 12.9989 40.0015 12.9989ZM40.0015 14.9999C40.5656 14.9999 41.0015 15.4357 41.0015 15.9998C41.0015 16.564 40.5656 17.0008 40.0015 17.0008C39.4374 17.0008 39.0005 16.564 39.0005 15.9998C39.0005 15.4357 39.4374 14.9999 40.0015 14.9999ZM39.9995 20.9998C39.7343 20.9998 39.48 21.1051 39.2924 21.2927C39.1049 21.4802 38.9995 21.7346 38.9995 21.9998C38.9995 22.265 39.1049 22.5193 39.2924 22.7069C39.48 22.8944 39.7343 22.9998 39.9995 22.9998C40.2648 22.9998 40.5191 22.8944 40.7066 22.7069C40.8942 22.5193 40.9995 22.265 40.9995 21.9998C40.9995 21.7346 40.8942 21.4802 40.7066 21.2927C40.5191 21.1051 40.2648 20.9998 39.9995 20.9998ZM19.9998 21.0017C20.5639 21.0017 21.0008 21.4376 21.0008 22.0017C21.0008 22.5658 20.5639 22.9978 19.9998 22.9978C19.4357 22.9978 18.9998 22.5658 18.9998 22.0017C18.9998 21.4376 19.4357 21.0017 19.9998 21.0017ZM39.9859 23.987C39.7212 23.9909 39.4688 24.0996 39.2841 24.2893C39.0994 24.4789 38.9974 24.734 39.0005 24.9988V39.9986C39.0005 40.2639 39.1059 40.5184 39.2936 40.706C39.4812 40.8936 39.7357 40.999 40.001 40.999C40.2663 40.999 40.5208 40.8936 40.7084 40.706C40.8961 40.5184 41.0015 40.2639 41.0015 39.9986V24.9988C41.003 24.8651 40.9778 24.7325 40.9273 24.6088C40.8768 24.4851 40.8019 24.3728 40.7073 24.2785C40.6126 24.1842 40.5 24.1098 40.3761 24.0597C40.2522 24.0097 40.1195 23.985 39.9859 23.987ZM35.9849 24.987C35.7202 24.9909 35.4679 25.0996 35.2832 25.2892C35.0985 25.4789 34.9965 25.734 34.9996 25.9987V39.9986C34.9996 40.2639 35.105 40.5184 35.2926 40.706C35.4803 40.8936 35.7347 40.999 36.0001 40.999C36.2654 40.999 36.5199 40.8936 36.7075 40.706C36.8951 40.5184 37.0005 40.2639 37.0005 39.9986V25.9987C37.0021 25.8651 36.9769 25.7325 36.9264 25.6088C36.8758 25.4851 36.801 25.3728 36.7063 25.2785C36.6117 25.1842 36.499 25.1098 36.3751 25.0597C36.2512 25.0097 36.1186 24.9849 35.9849 24.987ZM27.9977 24.9988C28.5619 24.9988 28.9987 25.4346 28.9987 25.9987C28.9987 26.5629 28.5619 26.9987 27.9977 26.9987C27.4336 26.9987 26.9977 26.5629 26.9977 25.9987C26.9977 25.4346 27.4336 24.9988 27.9977 24.9988ZM11.9979 26.9987C12.5621 26.9987 12.9979 27.4346 12.9979 27.9987C12.9979 28.5628 12.5621 28.9997 11.9979 28.9997C11.4338 28.9997 11.0019 28.5628 11.0019 27.9987C11.0019 27.4346 11.4338 26.9987 11.9979 26.9987ZM19.9998 26.9997C19.7346 26.9997 19.4802 27.1051 19.2927 27.2926C19.1052 27.4801 18.9998 27.7345 18.9998 27.9997C18.9998 28.2649 19.1052 28.5193 19.2927 28.7068C19.4802 28.8943 19.7346 28.9997 19.9998 28.9997C20.265 28.9997 20.5194 28.8943 20.7069 28.7068C20.8944 28.5193 20.9998 28.2649 20.9998 27.9997C20.9998 27.7345 20.8944 27.4801 20.7069 27.2926C20.5194 27.1051 20.265 26.9997 19.9998 26.9997ZM23.9861 28.985C23.8547 28.987 23.7251 29.0147 23.6045 29.0668C23.4839 29.1188 23.3748 29.1941 23.2833 29.2883C23.1918 29.3825 23.1197 29.4938 23.0712 29.6159C23.0228 29.7379 22.9988 29.8683 23.0007 29.9997V39.9986C23.0007 40.2639 23.1061 40.5184 23.2938 40.706C23.4814 40.8936 23.7359 40.999 24.0012 40.999C24.2665 40.999 24.521 40.8936 24.7086 40.706C24.8963 40.5184 25.0017 40.2639 25.0017 39.9986V29.9997C25.0036 29.8658 24.9787 29.7329 24.9284 29.6088C24.878 29.4848 24.8032 29.3721 24.7085 29.2775C24.6138 29.1829 24.5011 29.1082 24.377 29.058C24.2529 29.0077 24.1199 28.9829 23.9861 28.985ZM31.984 28.985C31.8527 28.987 31.723 29.0147 31.6024 29.0668C31.4819 29.1188 31.3727 29.1941 31.2812 29.2883C31.1897 29.3825 31.1177 29.4938 31.0692 29.6159C31.0207 29.7379 30.9967 29.8683 30.9987 29.9997V39.9986C30.9987 40.2639 31.1041 40.5184 31.2917 40.706C31.4793 40.8936 31.7338 40.999 31.9991 40.999C32.2645 40.999 32.519 40.8936 32.7066 40.706C32.8942 40.5184 32.9996 40.2639 32.9996 39.9986V29.9997C33.0016 29.8658 32.9767 29.7329 32.9263 29.6088C32.8759 29.4848 32.8012 29.3721 32.7065 29.2775C32.6118 29.1829 32.499 29.1082 32.3749 29.058C32.2508 29.0077 32.1179 28.9829 31.984 28.985ZM19.9851 29.985C19.8538 29.9869 19.7242 30.0147 19.6036 30.0667C19.483 30.1188 19.3738 30.194 19.2823 30.2883C19.1908 30.3825 19.1188 30.4938 19.0703 30.6159C19.0218 30.7379 18.9979 30.8683 18.9998 30.9997V39.9986C18.9998 40.2639 19.1052 40.5184 19.2928 40.706C19.4805 40.8936 19.7349 40.999 20.0003 40.999C20.2656 40.999 20.5201 40.8936 20.7077 40.706C20.8953 40.5184 21.0008 40.2639 21.0008 39.9986V30.9997C21.0027 30.8658 20.9778 30.7329 20.9274 30.6088C20.8771 30.4848 20.8023 30.3721 20.7076 30.2775C20.6129 30.1828 20.5001 30.1082 20.376 30.058C20.2519 30.0077 20.119 29.9829 19.9851 29.985ZM15.9842 30.985C15.8528 30.9869 15.7231 31.0147 15.6024 31.0668C15.4818 31.1189 15.3726 31.1943 15.2811 31.2886C15.1895 31.3829 15.1175 31.4943 15.0691 31.6165C15.0207 31.7387 14.9968 31.8692 14.9989 32.0006V39.9986C14.9959 40.1318 15.0196 40.2642 15.0685 40.3881C15.1175 40.512 15.1906 40.6249 15.2838 40.7201C15.3769 40.8154 15.4882 40.891 15.611 40.9427C15.7338 40.9944 15.8656 41.021 15.9989 41.021C16.1321 41.021 16.264 40.9944 16.3868 40.9427C16.5095 40.891 16.6208 40.8154 16.7139 40.7201C16.8071 40.6249 16.8803 40.512 16.9292 40.3881C16.9781 40.2642 17.0018 40.1318 16.9988 39.9986V32.0006C17.0009 31.8667 16.9761 31.7338 16.9259 31.6097C16.8757 31.4856 16.801 31.3729 16.7064 31.2782C16.6118 31.1834 16.4991 31.1087 16.375 31.0583C16.251 31.008 16.1181 30.983 15.9842 30.985ZM27.9831 30.985C27.8517 30.9869 27.7219 31.0147 27.6013 31.0668C27.4806 31.1189 27.3714 31.1943 27.2799 31.2886C27.1884 31.3829 27.1164 31.4943 27.068 31.6165C27.0196 31.7387 26.9957 31.8692 26.9977 32.0006V39.9986C26.9977 40.2639 27.1032 40.5184 27.2908 40.706C27.4784 40.8936 27.7329 40.999 27.9982 40.999C28.2636 40.999 28.518 40.8936 28.7057 40.706C28.8933 40.5184 28.9987 40.2639 28.9987 39.9986V32.0006C29.0008 31.8667 28.976 31.7337 28.9257 31.6095C28.8754 31.4853 28.8006 31.3725 28.7059 31.2778C28.6112 31.1831 28.4984 31.1083 28.3742 31.058C28.25 31.0077 28.117 30.9829 27.9831 30.985ZM11.9833 32.986C11.7188 32.9909 11.4669 33.1004 11.283 33.2906C11.0991 33.4807 10.998 33.736 11.0019 34.0006V39.9986C10.9931 40.135 11.0124 40.2718 11.0586 40.4005C11.1048 40.5292 11.1769 40.647 11.2704 40.7468C11.364 40.8465 11.477 40.926 11.6024 40.9803C11.7279 41.0347 11.8632 41.0627 11.9999 41.0627C12.1366 41.0627 12.2719 41.0347 12.3974 40.9803C12.5228 40.926 12.6358 40.8465 12.7293 40.7468C12.8229 40.647 12.895 40.5292 12.9412 40.4005C12.9874 40.2718 13.0067 40.135 12.9979 39.9986V34.0006C12.9999 33.8668 12.975 33.734 12.9247 33.61C12.8744 33.486 12.7997 33.3734 12.7051 33.2788C12.6105 33.1842 12.4979 33.1095 12.3739 33.0592C12.2499 33.0089 12.1171 32.984 11.9833 32.986Z" fill="url(#paint0_linear_1704_14116)"/>
<defs>
<linearGradient id="paint0_linear_1704_14116" x1="11.9221" y1="-48.69" x2="-38.8916" y2="-9.95512" gradientUnits="userSpaceOnUse">
<stop stop-color="#2DD1DB"/>
<stop offset="0.60721" stop-color="#2D9CDB"/>
<stop offset="1" stop-color="#1A8ED0"/>
</linearGradient>
</defs>
</svg>
