<svg width="48" height="48" viewBox="0 0 48 48" fill="none" xmlns="http://www.w3.org/2000/svg">
<path d="M8.646 32.4956C6.26 30.7076 3.28 28.6196 0 26.2356L11.628 21.7636L16.398 25.3416C12.82 29.5156 10.436 31.0056 8.646 32.4976V32.4956ZM40.546 19.9756C39.652 17.5896 39.056 15.2056 38.16 12.8196C37.266 10.1356 36.372 7.75164 34.88 5.66364C34.284 4.76964 33.092 2.68164 31.6 2.68164C31.302 2.68164 31.004 2.97964 30.706 2.97964C29.812 3.27764 28.62 5.06564 28.32 6.25964C27.426 7.74964 25.636 10.1356 24.444 11.6256C24.146 12.2216 23.55 12.8176 23.252 13.1156C22.358 13.7116 21.464 14.6056 20.27 15.2016C19.972 15.2016 19.674 15.4996 19.376 15.4996C18.482 15.4996 17.886 16.0956 17.29 16.3936C16.396 17.2876 15.502 18.4796 14.606 19.3756C14.606 19.6736 14.308 19.9716 14.01 20.2696L18.482 23.5496C21.762 19.6736 25.638 15.7976 28.32 8.34564C28.32 8.34564 27.426 16.3956 20.27 25.0416C15.798 30.1096 12.22 32.7936 11.624 33.3896C11.624 33.3896 12.816 33.0916 14.01 33.6876C16.396 34.5816 17.588 37.8616 18.482 40.2456C19.078 42.0336 19.972 43.5256 20.568 45.3136C22.954 44.7176 24.444 43.8236 25.934 42.3316C27.424 40.8396 28.916 39.0516 30.406 37.5616C33.09 34.2816 36.368 30.1076 40.542 32.1956C41.138 32.4936 42.032 33.0896 42.33 33.3876C43.224 33.9836 43.82 34.5796 44.716 35.4736C46.206 36.6656 46.802 37.5596 47.996 38.1576C45.014 32.1956 42.928 26.2316 40.542 19.9716L40.546 19.9756Z" fill="white"/>
</svg>
