<svg width="956" height="110" viewBox="0 0 956 110" fill="none" xmlns="http://www.w3.org/2000/svg">
<path opacity="0.5" d="M24.6096 102.631L24.9765 101.977L24.6096 102.631ZM6.71371 85.1484L6.06644 85.5273L6.0685 85.5307L6.71371 85.1484ZM6.71371 34.4894L7.35894 34.8717L7.36098 34.8682L6.71371 34.4894ZM24.6096 16.8688L24.2426 16.2147L24.6096 16.8688ZM74.1673 16.8688L73.7969 17.521L73.8004 17.5229L74.1673 16.8688ZM91.9255 34.4894L91.2747 34.8624L91.2803 34.8717L91.9255 34.4894ZM91.9255 85.1484L91.2782 84.7695L91.2768 84.772L91.9255 85.1484ZM74.1673 102.631L73.8004 101.977L74.1673 102.631ZM64.6687 87.9016L65.0467 88.5495L65.0566 88.5435L64.6687 87.9016ZM74.9933 76.6134L75.6615 76.9539L74.9933 76.6134ZM74.9933 42.8866L74.325 43.2271L74.3276 43.2323L74.9933 42.8866ZM64.6687 31.7362L64.2908 32.384L64.6687 31.7362ZM33.9705 31.7362L33.5984 31.0849L33.5926 31.0883L33.9705 31.7362ZM23.6459 42.8866L24.3116 43.2323L24.3142 43.2271L23.6459 42.8866ZM23.6459 76.6134L24.3142 76.273L23.6459 76.6134ZM33.9705 87.9016L33.5826 88.5435L33.5904 88.5482L33.5984 88.5528L33.9705 87.9016ZM49.3884 108.214C40.5175 108.214 32.385 106.133 24.9765 101.977L24.2426 103.285C31.885 107.573 40.2718 109.714 49.3884 109.714V108.214ZM24.9765 101.977C17.5663 97.8202 11.6969 92.0864 7.35893 84.766L6.0685 85.5307C10.5408 93.0777 16.602 98.9991 24.2426 103.285L24.9765 101.977ZM7.36098 84.7695C3.02873 77.3686 0.856016 69.0123 0.856016 59.6812H-0.643984C-0.643984 69.2555 1.58844 77.8773 6.06645 85.5273L7.36098 84.7695ZM0.856016 59.6812C0.856016 50.4433 3.02807 42.18 7.35893 34.8717L6.0685 34.107C1.5891 41.666 -0.643984 50.1974 -0.643984 59.6812H0.856016ZM7.36098 34.8682C11.6995 27.4565 17.5686 21.6786 24.9765 17.5229L24.2426 16.2147C16.5997 20.5022 10.5382 26.4713 6.06645 34.1105L7.36098 34.8682ZM24.9765 17.5229C32.385 13.3669 40.5175 11.2865 49.3884 11.2865V9.78646C40.2718 9.78646 31.885 11.9276 24.2426 16.2147L24.9765 17.5229ZM49.3884 11.2865C58.3526 11.2865 66.4833 13.3676 73.7969 17.521L74.5377 16.2167C66.984 11.9269 58.5954 9.78646 49.3884 9.78646V11.2865ZM73.8004 17.5229C81.2069 21.6778 87.0285 27.4539 91.2748 34.8623L92.5762 34.1164C88.1958 26.474 82.1786 20.503 74.5342 16.2147L73.8004 17.5229ZM91.2803 34.8717C95.6111 42.18 97.7832 50.4433 97.7832 59.6812H99.2832C99.2832 50.1974 97.0501 41.666 92.5707 34.107L91.2803 34.8717ZM97.7832 59.6812C97.7832 69.0123 95.6105 77.3686 91.2782 84.7695L92.5727 85.5273C97.0508 77.8773 99.2832 69.2555 99.2832 59.6812H97.7832ZM91.2768 84.772C87.0311 92.089 81.2092 97.821 73.8004 101.977L74.5342 103.285C82.1763 98.9984 88.1932 93.0751 92.5742 85.5248L91.2768 84.772ZM73.8004 101.977C66.3918 106.133 58.2594 108.214 49.3884 108.214V109.714C58.5051 109.714 66.8919 107.573 74.5342 103.285L73.8004 101.977ZM49.3884 92.5061C55.2849 92.5061 60.5121 91.1945 65.0466 88.5494L64.2908 87.2538C60.0151 89.7479 55.0555 91.0061 49.3884 91.0061V92.5061ZM65.0566 88.5435C69.5888 85.8053 73.1242 81.9347 75.6615 76.9539L74.325 76.273C71.9066 81.0202 68.5589 84.675 64.2809 87.2597L65.0566 88.5435ZM75.6615 76.9539C78.2019 71.9673 79.4601 66.2028 79.4601 59.6812H77.9601C77.9601 66.0079 76.7404 71.5316 74.325 76.273L75.6615 76.9539ZM79.4601 59.6812C79.4601 53.16 78.202 47.4389 75.6589 42.541L74.3276 43.2323C76.7403 47.8788 77.9601 53.3541 77.9601 59.6812H79.4601ZM75.6615 42.5462C73.1232 37.5634 69.5849 33.7356 65.0466 31.0883L64.2908 32.384C68.5629 34.876 71.9076 38.4818 74.325 43.2271L75.6615 42.5462ZM65.0466 31.0883C60.5121 28.4432 55.2849 27.1317 49.3884 27.1317V28.6317C55.0555 28.6317 60.0151 29.8898 64.2908 32.384L65.0466 31.0883ZM49.3884 27.1317C43.4917 27.1317 38.2213 28.4433 33.5984 31.085L34.3426 32.3873C38.7134 29.8897 43.7217 28.6317 49.3884 28.6317V27.1317ZM33.5926 31.0883C29.0543 33.7356 25.516 37.5634 22.9777 42.5462L24.3142 43.2271C26.7316 38.4818 30.0764 34.876 34.3484 32.384L33.5926 31.0883ZM22.9803 42.541C20.4372 47.4389 19.1791 53.16 19.1791 59.6812H20.6791C20.6791 53.3541 21.8989 47.8788 24.3116 43.2323L22.9803 42.541ZM19.1791 59.6812C19.1791 66.2028 20.4373 71.9673 22.9777 76.9539L24.3142 76.273C21.8988 71.5316 20.6791 66.0079 20.6791 59.6812H19.1791ZM22.9777 76.9539C25.515 81.9347 29.0504 85.8053 33.5826 88.5435L34.3583 87.2597C30.0803 84.675 26.7326 81.0202 24.3142 76.273L22.9777 76.9539ZM33.5984 88.5528C38.2213 91.1945 43.4917 92.5061 49.3884 92.5061V91.0061C43.7217 91.0061 38.7134 89.748 34.3426 87.2504L33.5984 88.5528ZM193.127 31.7362H193.877V30.9862H193.127V31.7362ZM193.127 108V108.75H193.877V108H193.127ZM173.717 108H172.967V108.75H173.717V108ZM173.717 98.3638H174.467V96.1138L173.117 97.9138L173.717 98.3638ZM163.943 106.21L164.26 106.89L164.266 106.887L163.943 106.21ZM135.172 105.247L134.806 105.901L134.816 105.907L135.172 105.247ZM124.297 94.0963L123.631 94.4415L123.635 94.449L123.639 94.4563L124.297 94.0963ZM120.443 31.7362V30.9862H119.693V31.7362H120.443ZM139.715 31.7362H140.465V30.9862H139.715V31.7362ZM144.258 87.7639L143.705 88.2708L143.712 88.2784L144.258 87.7639ZM169.174 87.7639L169.72 88.2785L169.727 88.2707L169.174 87.7639ZM173.717 31.7362V30.9862H172.967V31.7362H173.717ZM192.377 31.7362V108H193.877V31.7362H192.377ZM193.127 107.25H173.717V108.75H193.127V107.25ZM174.467 108V98.3638H172.967V108H174.467ZM173.117 97.9138C170.718 101.113 167.558 103.654 163.62 105.534L164.266 106.887C168.404 104.912 171.761 102.222 174.317 98.8138L173.117 97.9138ZM163.627 105.53C159.787 107.316 155.583 108.214 151.003 108.214V109.714C155.785 109.714 160.207 108.775 164.26 106.89L163.627 105.53ZM151.003 108.214C145.144 108.214 139.993 106.998 135.529 104.587L134.816 105.907C139.529 108.452 144.932 109.714 151.003 109.714V108.214ZM135.539 104.592C131.08 102.095 127.553 98.4838 124.955 93.7363L123.639 94.4563C126.364 99.4368 130.088 103.259 134.806 105.901L135.539 104.592ZM124.963 93.7511C122.459 88.9227 121.193 83.1726 121.193 76.4758H119.693C119.693 83.3615 120.996 89.3584 123.631 94.4415L124.963 93.7511ZM121.193 76.4758V31.7362H119.693V76.4758H121.193ZM120.443 32.4862H139.715V30.9862H120.443V32.4862ZM138.965 31.7362V73.7226H140.465V31.7362H138.965ZM138.965 73.7226C138.965 79.9003 140.511 84.7861 143.705 88.2707L144.811 87.2571C141.948 84.1341 140.465 79.6589 140.465 73.7226H138.965ZM143.712 88.2784C146.909 91.6685 151.251 93.332 156.647 93.332V91.832C151.581 91.832 147.664 90.2835 144.804 87.2494L143.712 88.2784ZM156.647 93.332C162.131 93.332 166.521 91.6712 169.72 88.2784L168.629 87.2494C165.771 90.2808 161.81 91.832 156.647 91.832V93.332ZM169.727 88.2707C172.922 84.7861 174.467 79.9003 174.467 73.7226H172.967C172.967 79.6589 171.484 84.1341 168.622 87.2571L169.727 88.2707ZM174.467 73.7226V31.7362H172.967V73.7226H174.467ZM173.717 32.4862H193.127V30.9862H173.717V32.4862ZM239.675 43.5749H238.925V46.2312L240.314 43.9672L239.675 43.5749ZM249.311 34.0764L248.941 33.4243L248.934 33.428L249.311 34.0764ZM263.077 30.6349H263.827V29.8849H263.077V30.6349ZM263.077 50.8709V51.6209H263.827V50.8709H263.077ZM244.218 55.1384L243.712 54.5841L243.704 54.5918L244.218 55.1384ZM239.675 108V108.75H240.425V108H239.675ZM220.402 108H219.652V108.75H220.402V108ZM220.402 31.7362V30.9862H219.652V31.7362H220.402ZM239.675 31.7362H240.425V30.9862H239.675V31.7362ZM240.314 43.9672C242.73 40.0308 245.853 36.9543 249.688 34.7248L248.934 33.428C244.876 35.7871 241.576 39.043 239.036 43.1827L240.314 43.9672ZM249.682 34.7285C253.595 32.505 258.054 31.3849 263.077 31.3849V29.8849C257.822 29.8849 253.103 31.0591 248.941 33.4243L249.682 34.7285ZM262.327 30.6349V50.8709H263.827V30.6349H262.327ZM263.077 50.1209H257.984V51.6209H263.077V50.1209ZM257.984 50.1209C251.82 50.1209 247.021 51.5679 243.712 54.5842L244.723 55.6926C247.655 53.019 252.033 51.6209 257.984 51.6209V50.1209ZM243.704 54.5918C240.448 57.651 238.925 62.8694 238.925 70.0057H240.425C240.425 63.009 241.931 58.3158 244.731 55.6851L243.704 54.5918ZM238.925 70.0057V108H240.425V70.0057H238.925ZM239.675 107.25H220.402V108.75H239.675V107.25ZM221.152 108V31.7362H219.652V108H221.152ZM220.402 32.4862H239.675V30.9862H220.402V32.4862ZM238.925 31.7362V43.5749H240.425V31.7362H238.925ZM340.384 105.522L340.087 106.211L340.092 106.213L340.384 105.522ZM327.719 95.6106L327.112 96.0502L327.719 95.6106ZM322.901 80.3303V79.5803H322.139L322.151 80.342L322.901 80.3303ZM343.55 80.3303L344.299 80.2781L344.25 79.5803H343.55V80.3303ZM347.68 89.6912L347.171 90.2416L347.181 90.2506L347.68 89.6912ZM368.742 89.9665L369.218 90.546L369.224 90.541L369.23 90.5359L368.742 89.9665ZM369.981 74.4109L369.437 74.9274L369.981 74.4109ZM363.373 70.1434L363.078 70.8328L363.093 70.839L363.107 70.8446L363.373 70.1434ZM352.636 66.5642L352.424 67.2838L352.434 67.2864L352.636 66.5642ZM337.356 61.1955L337.033 61.8726L337.043 61.8772L337.053 61.8815L337.356 61.1955ZM327.306 53.0735L326.706 53.5235L326.713 53.5319L326.719 53.5402L327.306 53.0735ZM327.444 23.6142L328.066 24.0333L327.444 23.6142ZM339.421 13.978L339.716 14.6674L339.726 14.6628L339.421 13.978ZM381.132 17.8325L380.666 18.4207L380.676 18.4282L381.132 17.8325ZM391.456 37.9309V38.6809H392.264L392.204 37.8752L391.456 37.9309ZM370.256 37.9309L369.508 37.9725L369.547 38.6809H370.256V37.9309ZM365.989 29.8089L365.501 30.3783L365.512 30.3876L365.523 30.3965L365.989 29.8089ZM346.579 29.3959L346.096 28.8216L346.091 28.8265L346.085 28.8315L346.579 29.3959ZM345.753 44.2632L345.208 44.7791L345.222 44.7938L345.237 44.8077L345.753 44.2632ZM352.085 48.3931L351.781 49.0784L351.796 49.0851L351.811 49.0911L352.085 48.3931ZM362.823 51.9722L362.607 52.6906L362.611 52.6917L362.823 51.9722ZM388.29 65.7383L387.697 66.1977L388.29 65.7383ZM388.565 94.5093L387.923 94.1214L388.565 94.5093ZM376.864 105.109L377.2 105.78L377.209 105.775L376.864 105.109ZM358.555 108.214C351.942 108.214 345.987 107.082 340.677 104.832L340.092 106.213C345.611 108.551 351.769 109.714 358.555 109.714V108.214ZM340.681 104.833C335.471 102.588 331.361 99.3652 328.327 95.171L327.112 96.0502C330.318 100.483 334.652 103.868 340.087 106.211L340.681 104.833ZM328.327 95.171C325.306 90.9951 323.741 86.0549 323.651 80.3186L322.151 80.342C322.245 86.3527 323.892 91.5993 327.112 96.0502L328.327 95.171ZM322.901 81.0803H343.55V79.5803H322.901V81.0803ZM342.802 80.3825C343.088 84.4842 344.529 87.7956 347.171 90.2415L348.19 89.1409C345.876 86.9981 344.563 84.0688 344.299 80.2781L342.802 80.3825ZM347.181 90.2506C349.923 92.6989 353.606 93.8827 358.142 93.8827V92.3827C353.869 92.3827 350.577 91.2721 348.18 89.1317L347.181 90.2506ZM358.142 93.8827C362.752 93.8827 366.474 92.8004 369.218 90.546L368.266 89.3869C365.871 91.3541 362.527 92.3827 358.142 92.3827V93.8827ZM369.23 90.5359C371.972 88.186 373.347 85.1302 373.347 81.4315H371.847C371.847 84.7076 370.652 87.3419 368.254 89.397L369.23 90.5359ZM373.347 81.4315C373.347 78.4201 372.418 75.8868 370.525 73.8943L369.437 74.9274C371.032 76.6059 371.847 78.7531 371.847 81.4315H373.347ZM370.525 73.8943C368.694 71.9676 366.393 70.4866 363.639 69.4421L363.107 70.8446C365.677 71.8192 367.78 73.1832 369.437 74.9274L370.525 73.8943ZM363.669 69.454C361.055 68.3339 357.44 67.1305 352.838 65.842L352.434 67.2864C357.009 68.5676 360.552 69.7504 363.078 70.8328L363.669 69.454ZM352.848 65.8447C346.624 64.0143 341.564 62.2352 337.659 60.5095L337.053 61.8815C341.039 63.6431 346.166 65.4432 352.424 67.2838L352.848 65.8447ZM337.678 60.5183C333.934 58.7354 330.673 56.1031 327.894 52.6068L326.719 53.5402C329.63 57.2023 333.068 59.9846 337.033 61.8726L337.678 60.5183ZM327.906 52.6235C325.278 49.1184 323.927 44.428 323.927 38.4815H322.427C322.427 44.6491 323.829 49.6867 326.706 53.5235L327.906 52.6235ZM323.927 38.4815C323.927 32.9226 325.314 28.1168 328.066 24.0333L326.822 23.195C323.884 27.5548 322.427 32.6604 322.427 38.4815H323.927ZM328.066 24.0333C330.823 19.943 334.696 16.8189 339.716 14.6673L339.125 13.2886C333.867 15.5422 329.756 18.8422 326.822 23.195L328.066 24.0333ZM339.726 14.6628C344.754 12.4183 350.521 11.2865 357.041 11.2865V9.78646C350.346 9.78646 344.366 10.949 339.115 13.2931L339.726 14.6628ZM357.041 11.2865C366.829 11.2865 374.682 13.6865 380.666 18.4207L381.597 17.2442C375.284 12.2504 367.076 9.78646 357.041 9.78646V11.2865ZM380.676 18.4282C386.728 23.0564 390.08 29.5492 390.708 37.9866L392.204 37.8752C391.548 29.0591 388.016 22.153 381.587 17.2367L380.676 18.4282ZM391.456 37.1809H370.256V38.6809H391.456V37.1809ZM371.005 37.8893C370.81 34.3649 369.279 31.4613 366.455 29.2213L365.523 30.3965C368.021 32.3781 369.336 34.8891 369.508 37.9725L371.005 37.8893ZM366.477 29.2395C363.738 26.8913 360.106 25.7551 355.664 25.7551V27.2551C359.849 27.2551 363.101 28.3214 365.501 30.3783L366.477 29.2395ZM355.664 25.7551C351.772 25.7551 348.558 26.7543 346.096 28.8216L347.061 29.9702C349.189 28.1831 352.032 27.2551 355.664 27.2551V25.7551ZM346.085 28.8315C343.68 30.936 342.525 33.9653 342.525 37.7932H344.025C344.025 34.2792 345.073 31.7103 347.073 29.9604L346.085 28.8315ZM342.525 37.7932C342.525 40.5401 343.415 42.8857 345.208 44.7791L346.297 43.7474C344.787 42.1534 344.025 40.1857 344.025 37.7932H342.525ZM345.237 44.8077C347.05 46.5253 349.235 47.9469 351.781 49.0784L352.39 47.7077C349.98 46.6366 347.943 45.305 346.269 43.7188L345.237 44.8077ZM351.811 49.0911C354.409 50.1117 358.011 51.3117 362.607 52.6906L363.038 51.2539C358.457 49.8796 354.901 48.6934 352.36 47.695L351.811 49.0911ZM362.611 52.6917C368.832 54.5213 373.887 56.3446 377.787 58.1587L378.419 56.7986C374.427 54.9417 369.295 53.0941 363.034 51.2527L362.611 52.6917ZM377.787 58.1587C381.617 59.9404 384.92 62.6148 387.697 66.1977L388.883 65.2788C385.97 61.5199 382.481 58.6879 378.419 56.7986L377.787 58.1587ZM387.697 66.1977C390.414 69.7038 391.807 74.3459 391.807 80.1926H393.307C393.307 74.1088 391.855 69.1146 388.883 65.2788L387.697 66.1977ZM391.807 80.1926C391.807 85.195 390.514 89.8332 387.923 94.1214L389.207 94.8971C391.939 90.3752 393.307 85.4688 393.307 80.1926H391.807ZM387.923 94.1214C385.342 98.394 381.552 101.837 376.519 104.443L377.209 105.775C382.455 103.058 386.466 99.4348 389.207 94.8971L387.923 94.1214ZM376.529 104.438C371.515 106.945 365.532 108.214 358.555 108.214V109.714C365.712 109.714 371.935 108.412 377.2 105.78L376.529 104.438ZM487.87 75.6498V76.3998H488.505L488.61 75.7731L487.87 75.6498ZM432.118 75.6498V74.8998H431.302L431.37 75.7121L432.118 75.6498ZM437.899 88.5899L437.392 89.1421L437.899 88.5899ZM465.707 84.0471V83.2971H465.24L465.034 83.7157L465.707 84.0471ZM486.493 84.0471L487.212 84.2626L487.501 83.2971H486.493V84.0471ZM473.829 102.218L474.279 102.818L474.284 102.814L473.829 102.218ZM431.016 104.421L430.644 105.072L430.656 105.079L431.016 104.421ZM417.388 90.5171L416.728 90.8727L416.732 90.8805L417.388 90.5171ZM417.388 49.0814L416.728 48.7258L417.388 49.0814ZM430.879 35.3153L431.243 35.9709L430.879 35.3153ZM470.25 35.1777L469.889 35.8353L469.893 35.8377L470.25 35.1777ZM483.603 48.5307L482.943 48.8869L482.946 48.8932L482.949 48.8994L483.603 48.5307ZM468.46 62.7097V63.4597H469.224L469.21 62.6958L468.46 62.7097ZM463.091 50.8709L462.599 51.4373L462.608 51.4446L463.091 50.8709ZM438.175 50.7333L438.672 51.2947L438.673 51.2938L438.175 50.7333ZM432.255 62.7097L431.513 62.6037L431.391 63.4597H432.255V62.7097ZM487.671 68.2162C487.671 70.9372 487.489 73.3728 487.13 75.5265L488.61 75.7731C488.985 73.5217 489.171 71.0016 489.171 68.2162H487.671ZM487.87 74.8998H432.118V76.3998H487.87V74.8998ZM431.37 75.7121C431.841 81.3668 433.831 85.87 437.392 89.1421L438.407 88.0376C435.176 85.0692 433.312 80.9456 432.865 75.5875L431.37 75.7121ZM437.392 89.1421C440.937 92.3996 445.298 94.0203 450.426 94.0203V92.5203C445.643 92.5203 441.653 91.0208 438.407 88.0376L437.392 89.1421ZM450.426 94.0203C454.114 94.0203 457.317 93.2276 460.003 91.6066C462.69 89.9845 464.812 87.5616 466.38 84.3785L465.034 83.7157C463.573 86.6814 461.634 88.8701 459.228 90.3224C456.82 91.7759 453.897 92.5203 450.426 92.5203V94.0203ZM465.707 84.7971H486.493V83.2971H465.707V84.7971ZM485.775 83.8316C483.619 91.0182 479.492 96.9436 473.373 101.622L474.284 102.814C480.647 97.9484 484.963 91.7597 487.212 84.2626L485.775 83.8316ZM473.379 101.618C467.288 106.186 459.79 108.489 450.839 108.489V109.989C460.06 109.989 467.888 107.612 474.279 102.818L473.379 101.618ZM450.839 108.489C443.611 108.489 437.129 106.909 431.376 103.763L430.656 105.079C436.651 108.357 443.384 109.989 450.839 109.989V108.489ZM431.388 103.77C425.729 100.536 421.283 96.002 418.044 90.1538L416.732 90.8805C420.101 96.9629 424.74 101.698 430.644 105.072L431.388 103.77ZM418.048 90.1616C414.903 84.3211 413.32 77.5637 413.32 69.8681H411.82C411.82 77.774 413.448 84.7826 416.728 90.8727L418.048 90.1616ZM413.32 69.8681C413.32 62.0791 414.904 55.2762 418.048 49.4369L416.728 48.7258C413.448 54.8171 411.82 61.872 411.82 69.8681H413.32ZM418.048 49.4369C421.194 43.5947 425.59 39.1116 431.243 35.9709L430.514 34.6597C424.604 37.9432 420.006 42.6375 416.728 48.7258L418.048 49.4369ZM431.243 35.9709C436.899 32.8289 443.424 31.2472 450.839 31.2472V29.7472C443.204 29.7472 436.422 31.3776 430.514 34.6597L431.243 35.9709ZM450.839 31.2472C457.979 31.2472 464.322 32.7824 469.889 35.8353L470.61 34.5201C464.797 31.3323 458.201 29.7472 450.839 29.7472V31.2472ZM469.893 35.8377C475.546 38.8885 479.892 43.2339 482.943 48.8869L484.263 48.1745C481.073 42.264 476.516 37.7074 470.606 34.5176L469.893 35.8377ZM482.949 48.8994C486.09 54.4621 487.671 60.8936 487.671 68.2162H489.171C489.171 60.6714 487.54 53.9792 484.256 48.162L482.949 48.8994ZM469.21 62.6958C469.114 57.545 467.243 53.3865 463.574 50.2973L462.608 51.4446C465.914 54.2289 467.622 57.9629 467.71 62.7236L469.21 62.6958ZM463.583 50.3047C459.946 47.1463 455.499 45.5782 450.289 45.5782V47.0782C455.174 47.0782 459.262 48.5385 462.599 51.4372L463.583 50.3047ZM450.289 45.5782C445.349 45.5782 441.129 47.1038 437.676 50.1727L438.673 51.2938C441.828 48.4893 445.684 47.0782 450.289 47.0782V45.5782ZM437.677 50.1718C434.306 53.1582 432.267 57.3268 431.513 62.6037L432.998 62.8158C433.712 57.814 435.619 53.9983 438.672 51.2947L437.677 50.1718ZM432.255 63.4597H468.46V61.9597H432.255V63.4597ZM530.02 43.5749H529.27V46.2312L530.659 43.9672L530.02 43.5749ZM539.656 34.0764L539.286 33.4243L539.279 33.428L539.656 34.0764ZM553.422 30.6349H554.172V29.8849H553.422V30.6349ZM553.422 50.8709V51.6209H554.172V50.8709H553.422ZM534.563 55.1384L534.057 54.5841L534.049 54.5918L534.563 55.1384ZM530.02 108V108.75H530.77V108H530.02ZM510.747 108H509.997V108.75H510.747V108ZM510.747 31.7362V30.9862H509.997V31.7362H510.747ZM530.02 31.7362H530.77V30.9862H530.02V31.7362ZM530.659 43.9672C533.075 40.0308 536.198 36.9543 540.033 34.7248L539.279 33.428C535.221 35.7871 531.921 39.043 529.381 43.1827L530.659 43.9672ZM540.027 34.7285C543.94 32.505 548.399 31.3849 553.422 31.3849V29.8849C548.167 29.8849 543.448 31.0591 539.286 33.4243L540.027 34.7285ZM552.672 30.6349V50.8709H554.172V30.6349H552.672ZM553.422 50.1209H548.329V51.6209H553.422V50.1209ZM548.329 50.1209C542.165 50.1209 537.366 51.5679 534.057 54.5842L535.068 55.6926C538 53.019 542.378 51.6209 548.329 51.6209V50.1209ZM534.049 54.5918C530.793 57.651 529.27 62.8694 529.27 70.0057H530.77C530.77 63.009 532.276 58.3158 535.076 55.6851L534.049 54.5918ZM529.27 70.0057V108H530.77V70.0057H529.27ZM530.02 107.25H510.747V108.75H530.02V107.25ZM511.497 108V31.7362H509.997V108H511.497ZM510.747 32.4862H530.02V30.9862H510.747V32.4862ZM529.27 31.7362V43.5749H530.77V31.7362H529.27ZM606.462 90.2418L605.75 90.4765L606.462 92.6389L607.175 90.4765L606.462 90.2418ZM625.735 31.7362V30.9862H625.192L625.022 31.5015L625.735 31.7362ZM646.246 31.7362L646.95 31.9964L647.323 30.9862H646.246V31.7362ZM618.026 108V108.75H618.548L618.729 108.26L618.026 108ZM594.624 108L593.92 108.259L594.1 108.75H594.624V108ZM566.541 31.7362V30.9862H565.465L565.837 31.9953L566.541 31.7362ZM587.19 31.7362L587.902 31.5015L587.732 30.9862H587.19V31.7362ZM607.175 90.4765L626.447 31.9708L625.022 31.5015L605.75 90.0072L607.175 90.4765ZM625.735 32.4862H646.246V30.9862H625.735V32.4862ZM645.543 31.4759L617.322 107.74L618.729 108.26L646.95 31.9964L645.543 31.4759ZM618.026 107.25H594.624V108.75H618.026V107.25ZM595.327 107.741L567.245 31.477L565.837 31.9953L593.92 108.259L595.327 107.741ZM566.541 32.4862H587.19V30.9862H566.541V32.4862ZM586.477 31.9708L605.75 90.4765L607.175 90.0072L587.902 31.5015L586.477 31.9708ZM666.569 19.4844L666.039 20.0147L666.05 20.0258L666.062 20.0363L666.569 19.4844ZM666.569 3.37811L667.088 3.9196L667.089 3.91915L666.569 3.37811ZM683.502 3.37811L682.971 3.90844L682.982 3.91949L682.994 3.93006L683.502 3.37811ZM683.502 19.4844L684.021 20.0259L684.021 20.0254L683.502 19.4844ZM684.603 31.7362H685.353V30.9862H684.603V31.7362ZM684.603 108V108.75H685.353V108H684.603ZM665.33 108H664.58V108.75H665.33V108ZM665.33 31.7362V30.9862H664.58V31.7362H665.33ZM675.104 21.9006C671.879 21.9006 669.22 20.904 667.077 18.9324L666.062 20.0363C668.507 22.2863 671.539 23.4006 675.104 23.4006V21.9006ZM667.1 18.9541C665.043 16.897 664.016 14.3825 664.016 11.3624H662.516C662.516 14.7665 663.691 17.6667 666.039 20.0147L667.1 18.9541ZM664.016 11.3624C664.016 8.34268 665.042 5.88077 667.088 3.9196L666.05 2.83662C663.692 5.09704 662.516 7.958 662.516 11.3624H664.016ZM667.089 3.91915C669.233 1.86034 671.888 0.824265 675.104 0.824265V-0.675735C671.529 -0.675735 668.494 0.490757 666.05 2.83707L667.089 3.91915ZM675.104 0.824265C678.321 0.824265 680.923 1.8599 682.971 3.90844L684.032 2.84778C681.675 0.491192 678.679 -0.675735 675.104 -0.675735V0.824265ZM682.994 3.93006C685.129 5.89403 686.193 8.35289 686.193 11.3624H687.693C687.693 7.94779 686.463 5.08378 684.009 2.82616L682.994 3.93006ZM686.193 11.3624C686.193 14.3726 685.128 16.8838 682.982 18.9433L684.021 20.0254C686.464 17.6798 687.693 14.7764 687.693 11.3624H686.193ZM682.983 18.9429C680.936 20.9043 678.33 21.9006 675.104 21.9006V23.4006C678.67 23.4006 681.662 22.2861 684.021 20.0259L682.983 18.9429ZM683.853 31.7362V108H685.353V31.7362H683.853ZM684.603 107.25H665.33V108.75H684.603V107.25ZM666.08 108V31.7362H664.58V108H666.08ZM665.33 32.4862H684.603V30.9862H665.33V32.4862ZM711.766 49.219L712.424 49.5789L712.426 49.5746L711.766 49.219ZM725.119 35.453L725.488 36.1062L725.496 36.1016L725.119 35.453ZM768.069 37.6555L767.609 38.2481L767.619 38.2555L768.069 37.6555ZM780.596 57.4786V58.2286H781.554L781.324 57.2986L780.596 57.4786ZM759.81 57.4786L759.098 57.7158L759.269 58.2286H759.81V57.4786ZM754.165 49.7697L753.715 50.3697L753.727 50.3786L753.74 50.3871L754.165 49.7697ZM731.451 52.9359L732.033 53.4093L732.038 53.4027L731.451 52.9359ZM731.451 86.8003L730.865 87.2672L730.87 87.2738L731.451 86.8003ZM759.81 82.2575V81.5075H759.273L759.1 82.0147L759.81 82.2575ZM780.596 82.2575L781.323 82.4432L781.562 81.5075H780.596V82.2575ZM768.069 101.943L768.53 102.534V102.534L768.069 101.943ZM725.119 104.421L724.742 105.069L724.75 105.074L725.119 104.421ZM711.766 90.6548L711.106 91.0104L711.108 91.0147L711.766 90.6548ZM707.698 69.8681C707.698 62.0788 709.282 55.3238 712.424 49.5789L711.108 48.8592C707.826 54.8612 706.198 61.8723 706.198 69.8681H707.698ZM712.426 49.5746C715.574 43.7292 719.926 39.2459 725.488 36.1061L724.75 34.7999C718.932 38.0842 714.382 42.7783 711.106 48.8634L712.426 49.5746ZM725.496 36.1016C731.058 32.8716 737.442 31.2472 744.667 31.2472V29.7472C737.208 29.7472 730.56 31.4267 724.742 34.8044L725.496 36.1016ZM744.667 31.2472C753.99 31.2472 761.618 33.5984 767.609 38.248L768.529 37.0631C762.222 32.1683 754.249 29.7472 744.667 29.7472V31.2472ZM767.619 38.2555C773.704 42.8191 777.793 49.269 779.868 57.6587L781.324 57.2986C779.178 48.6184 774.916 41.8529 768.519 37.0555L767.619 38.2555ZM780.596 56.7286H759.81V58.2286H780.596V56.7286ZM760.521 57.2415C759.372 53.7959 757.397 51.0874 754.591 49.1523L753.74 50.3871C756.257 52.1228 758.044 54.5537 759.098 57.7158L760.521 57.2415ZM754.615 49.1697C751.892 47.1268 748.513 46.1288 744.529 46.1288V47.6288C748.255 47.6288 751.3 48.5581 753.715 50.3697L754.615 49.1697ZM744.529 46.1288C738.812 46.1288 734.23 48.2386 730.865 52.469L732.038 53.4027C735.098 49.557 739.234 47.6288 744.529 47.6288V46.1288ZM730.87 52.4624C727.51 56.5906 725.883 62.4282 725.883 69.8681H727.383C727.383 62.6242 728.969 57.1736 732.033 53.4093L730.87 52.4624ZM725.883 69.8681C725.883 77.2203 727.511 83.0519 730.865 87.2672L732.038 86.3334C728.967 82.4727 727.383 77.016 727.383 69.8681H725.883ZM730.87 87.2738C734.237 91.4108 738.818 93.4697 744.529 93.4697V91.9697C739.227 91.9697 735.09 90.0823 732.033 86.3269L730.87 87.2738ZM744.529 93.4697C748.541 93.4697 751.923 92.5722 754.624 90.723C757.328 88.8713 759.284 86.11 760.519 82.5003L759.1 82.0147C757.949 85.3798 756.165 87.8496 753.776 89.4853C751.384 91.1235 748.318 91.9697 744.529 91.9697V93.4697ZM759.81 83.0075H780.596V81.5075H759.81V83.0075ZM779.87 82.0718C777.797 90.1838 773.707 96.5976 767.608 101.351L768.53 102.534C774.912 97.5602 779.174 90.8505 781.323 82.4432L779.87 82.0718ZM767.608 101.351C761.522 106.095 753.893 108.489 744.667 108.489V109.989C754.163 109.989 762.135 107.519 768.53 102.534L767.608 101.351ZM744.667 108.489C737.438 108.489 731.052 106.909 725.488 103.768L724.75 105.074C730.566 108.357 737.212 109.989 744.667 109.989V108.489ZM725.496 103.772C719.926 100.538 715.572 96.0505 712.424 90.2949L711.108 91.0147C714.385 97.0061 718.932 101.696 724.742 105.069L725.496 103.772ZM712.426 90.2992C709.282 84.46 707.698 77.657 707.698 69.8681H706.198C706.198 77.8642 707.826 84.919 711.106 91.0104L712.426 90.2992ZM873.319 75.6498V76.3998H873.954L874.059 75.7731L873.319 75.6498ZM817.567 75.6498V74.8998H816.752L816.819 75.7121L817.567 75.6498ZM823.348 88.5899L822.841 89.1421L823.348 88.5899ZM851.156 84.0471V83.2971H850.689L850.483 83.7157L851.156 84.0471ZM871.943 84.0471L872.661 84.2626L872.951 83.2971H871.943V84.0471ZM859.278 102.218L859.728 102.818L859.733 102.814L859.278 102.218ZM816.465 104.421L816.093 105.072L816.105 105.079L816.465 104.421ZM802.837 90.5171L802.177 90.8727L802.181 90.8805L802.837 90.5171ZM802.837 49.0814L802.177 48.7258L802.837 49.0814ZM816.328 35.3153L816.692 35.9709L816.328 35.3153ZM855.699 35.1777L855.338 35.8353L855.342 35.8377L855.699 35.1777ZM869.052 48.5307L868.392 48.8869L868.395 48.8932L868.398 48.8994L869.052 48.5307ZM853.909 62.7097V63.4597H854.673L854.659 62.6958L853.909 62.7097ZM848.54 50.8709L848.048 51.4373L848.057 51.4446L848.54 50.8709ZM823.624 50.7333L824.121 51.2947L824.122 51.2938L823.624 50.7333ZM817.704 62.7097L816.962 62.6037L816.84 63.4597H817.704V62.7097ZM873.12 68.2162C873.12 70.9372 872.938 73.3728 872.579 75.5265L874.059 75.7731C874.434 73.5217 874.62 71.0016 874.62 68.2162H873.12ZM873.319 74.8998H817.567V76.3998H873.319V74.8998ZM816.819 75.7121C817.29 81.3668 819.28 85.87 822.841 89.1421L823.856 88.0376C820.625 85.0692 818.761 80.9456 818.314 75.5875L816.819 75.7121ZM822.841 89.1421C826.386 92.3996 830.747 94.0203 835.875 94.0203V92.5203C831.092 92.5203 827.102 91.0208 823.856 88.0376L822.841 89.1421ZM835.875 94.0203C839.563 94.0203 842.766 93.2276 845.452 91.6066C848.139 89.9845 850.261 87.5616 851.829 84.3785L850.483 83.7157C849.022 86.6814 847.083 88.8701 844.677 90.3224C842.269 91.7759 839.346 92.5203 835.875 92.5203V94.0203ZM851.156 84.7971H871.943V83.2971H851.156V84.7971ZM871.224 83.8316C869.068 91.0182 864.941 96.9436 858.822 101.622L859.733 102.814C866.096 97.9484 870.412 91.7597 872.661 84.2626L871.224 83.8316ZM858.828 101.618C852.738 106.186 845.24 108.489 836.288 108.489V109.989C845.509 109.989 853.337 107.612 859.728 102.818L858.828 101.618ZM836.288 108.489C829.06 108.489 822.578 106.909 816.825 103.763L816.105 105.079C822.1 108.357 828.833 109.989 836.288 109.989V108.489ZM816.837 103.77C811.178 100.536 806.732 96.002 803.493 90.1538L802.181 90.8805C805.55 96.9629 810.189 101.698 816.093 105.072L816.837 103.77ZM803.497 90.1616C800.352 84.3211 798.769 77.5637 798.769 69.8681H797.269C797.269 77.774 798.897 84.7826 802.177 90.8727L803.497 90.1616ZM798.769 69.8681C798.769 62.0791 800.353 55.2762 803.497 49.4369L802.177 48.7258C798.897 54.8171 797.269 61.872 797.269 69.8681H798.769ZM803.497 49.4369C806.643 43.5947 811.039 39.1116 816.692 35.9709L815.963 34.6597C810.053 37.9432 805.455 42.6375 802.177 48.7258L803.497 49.4369ZM816.692 35.9709C822.348 32.8289 828.873 31.2472 836.288 31.2472V29.7472C828.653 29.7472 821.871 31.3776 815.963 34.6597L816.692 35.9709ZM836.288 31.2472C843.428 31.2472 849.771 32.7824 855.338 35.8353L856.059 34.5201C850.246 31.3323 843.65 29.7472 836.288 29.7472V31.2472ZM855.342 35.8377C860.995 38.8885 865.341 43.2339 868.392 48.8869L869.712 48.1745C866.522 42.264 861.965 37.7074 856.055 34.5176L855.342 35.8377ZM868.398 48.8994C871.539 54.4621 873.12 60.8936 873.12 68.2162H874.62C874.62 60.6714 872.989 53.9792 869.705 48.162L868.398 48.8994ZM854.659 62.6958C854.563 57.545 852.692 53.3865 849.023 50.2973L848.057 51.4446C851.363 54.2289 853.071 57.9629 853.159 62.7236L854.659 62.6958ZM849.032 50.3047C845.395 47.1463 840.948 45.5782 835.738 45.5782V47.0782C840.623 47.0782 844.711 48.5385 848.048 51.4372L849.032 50.3047ZM835.738 45.5782C830.798 45.5782 826.578 47.1038 823.125 50.1727L824.122 51.2938C827.277 48.4893 831.133 47.0782 835.738 47.0782V45.5782ZM823.126 50.1718C819.755 53.1582 817.716 57.3268 816.962 62.6037L818.447 62.8158C819.161 57.814 821.069 53.9983 824.121 51.2947L823.126 50.1718ZM817.704 63.4597H853.909V61.9597H817.704V63.4597ZM908.586 105.935L908.271 106.616L908.281 106.62L908.586 105.935ZM896.747 96.7119L896.144 97.1573L896.151 97.1664L896.747 96.7119ZM892.067 83.9094V83.1594H891.271L891.318 83.9535L892.067 83.9094ZM911.477 83.9094L912.221 83.8164L912.139 83.1594H911.477V83.9094ZM915.744 91.2054L915.284 91.7975L915.294 91.8054L915.744 91.2054ZM933.778 91.8937L933.349 91.2781L933.343 91.2826L933.337 91.2872L933.778 91.8937ZM933.089 80.7432L932.744 81.4091L932.759 81.4166L932.774 81.4235L933.089 80.7432ZM921.113 76.6134L921.306 75.8888L921.298 75.8865L921.289 75.8845L921.113 76.6134ZM907.072 72.346L906.787 73.0399L906.793 73.0423L907.072 72.346ZM897.711 65.6006L897.139 66.0859L897.147 66.0957L897.711 65.6006ZM897.435 41.7854L896.824 41.3509L896.816 41.3618L897.435 41.7854ZM907.898 33.5257L907.596 32.8392L907.59 32.8415L907.898 33.5257ZM945.754 37.3802L945.269 37.9524L945.275 37.9572L945.754 37.3802ZM954.702 55.6891V56.4391H955.508L955.45 55.6356L954.702 55.6891ZM936.256 55.6891L935.509 55.757L935.571 56.4391H936.256V55.6891ZM932.401 48.5307L931.921 49.1069L931.934 49.1177L931.947 49.1278L932.401 48.5307ZM915.331 47.7048L914.915 47.0807L914.908 47.0854L914.901 47.0903L915.331 47.7048ZM916.433 58.9929L916.078 59.654L916.088 59.659L916.097 59.6637L916.433 58.9929ZM928.409 62.9851L928.224 63.7119L928.227 63.7127L928.409 62.9851ZM951.261 74.1356L950.682 74.6123L950.689 74.6216L950.697 74.6306L951.261 74.1356ZM955.39 86.2497H956.141L956.14 86.236L955.39 86.2497ZM951.674 98.0885L951.062 97.654L951.055 97.6649L951.674 98.0885ZM941.211 106.348L941.507 107.037L941.513 107.035L941.211 106.348ZM925.38 108.489C919.229 108.489 913.737 107.404 908.891 105.25L908.281 106.62C913.346 108.872 919.051 109.989 925.38 109.989V108.489ZM908.901 105.254C904.042 103.005 900.198 100.003 897.344 96.2573L896.151 97.1664C899.17 101.13 903.219 104.277 908.271 106.616L908.901 105.254ZM897.351 96.2665C894.59 92.5262 893.082 88.3975 892.815 83.8654L891.318 83.9535C891.602 88.7823 893.214 93.1886 896.144 97.1572L897.351 96.2665ZM892.067 84.6594H911.477V83.1594H892.067V84.6594ZM910.733 84.0025C911.126 87.1495 912.659 89.7563 915.284 91.7974L916.205 90.6134C913.873 88.8001 912.562 86.5429 912.221 83.8164L910.733 84.0025ZM915.294 91.8054C918.015 93.846 921.347 94.8463 925.243 94.8463V93.3463C921.614 93.3463 918.613 92.4193 916.194 90.6054L915.294 91.8054ZM925.243 94.8463C929.001 94.8463 932.024 94.0965 934.219 92.5003L933.337 91.2872C931.493 92.6277 928.826 93.3463 925.243 93.3463V94.8463ZM934.206 92.5094C936.49 90.9205 937.694 88.8221 937.694 86.2497H936.194C936.194 88.2659 935.287 89.9302 933.349 91.2781L934.206 92.5094ZM937.694 86.2497C937.694 84.8739 937.335 83.6416 936.595 82.5845C935.859 81.5335 934.779 80.7007 933.405 80.063L932.774 81.4235C933.97 81.9789 934.817 82.6603 935.366 83.4447C935.911 84.2231 936.194 85.1476 936.194 86.2497H937.694ZM933.435 80.0774C930.881 78.7532 926.823 77.3598 921.306 75.8888L920.92 77.3381C926.416 78.8038 930.342 80.1637 932.744 81.4091L933.435 80.0774ZM921.289 75.8845C915.619 74.5127 910.976 73.1 907.35 71.6496L906.793 73.0423C910.509 74.5287 915.227 75.961 920.937 77.3424L921.289 75.8845ZM907.356 71.6521C903.889 70.2295 900.863 68.051 898.274 65.1055L897.147 66.0957C899.882 69.2073 903.096 71.5257 906.787 73.0398L907.356 71.6521ZM898.283 65.1154C895.858 62.2581 894.606 58.3637 894.606 53.3488H893.106C893.106 58.6126 894.424 62.8861 897.139 66.0858L898.283 65.1154ZM894.606 53.3488C894.606 49.2785 895.754 45.5717 898.054 42.2089L896.816 41.3618C894.345 44.9739 893.106 48.9759 893.106 53.3488H894.606ZM898.047 42.2198C900.436 38.8569 903.811 36.1827 908.205 34.2099L907.59 32.8415C902.991 34.9068 899.39 37.739 896.824 41.351L898.047 42.2198ZM908.2 34.2122C912.674 32.2434 917.936 31.2472 924.004 31.2472V29.7472C917.774 29.7472 912.298 30.77 907.596 32.8393L908.2 34.2122ZM924.004 31.2472C932.963 31.2472 940.025 33.5076 945.269 37.9524L946.239 36.8081C940.655 32.0755 933.216 29.7472 924.004 29.7472V31.2472ZM945.275 37.9572C950.516 42.31 953.416 48.2153 953.954 55.7425L955.45 55.6356C954.887 47.7449 951.822 41.4443 946.233 36.8033L945.275 37.9572ZM954.702 54.9391H936.256V56.4391H954.702V54.9391ZM937.003 55.6212C936.709 52.396 935.327 49.8125 932.855 47.9336L931.947 49.1278C934.064 50.7364 935.251 52.9251 935.509 55.757L937.003 55.6212ZM932.881 47.9546C930.507 45.9757 927.336 45.0275 923.453 45.0275V46.5275C927.096 46.5275 929.891 47.4147 931.921 49.1069L932.881 47.9546ZM923.453 45.0275C919.888 45.0275 917.013 45.682 914.915 47.0807L915.747 48.3288C917.504 47.1579 920.044 46.5275 923.453 46.5275V45.0275ZM914.901 47.0903C912.86 48.5195 911.828 50.5415 911.828 53.0735H913.328C913.328 51.0169 914.132 49.4597 915.761 48.3192L914.901 47.0903ZM911.828 53.0735C911.828 54.4898 912.184 55.7704 912.913 56.8899C913.639 58.0044 914.709 58.9202 916.078 59.654L916.787 58.3318C915.587 57.6891 914.729 56.9299 914.17 56.0714C913.614 55.2176 913.328 54.2269 913.328 53.0735H911.828ZM916.097 59.6637C918.741 60.9856 922.797 62.332 928.224 63.7119L928.594 62.2582C923.192 60.8849 919.263 59.5698 916.768 58.3221L916.097 59.6637ZM928.227 63.7127C933.713 65.0842 938.218 66.4964 941.753 67.9464L942.322 66.5587C938.698 65.0719 934.118 63.6392 928.591 62.2574L928.227 63.7127ZM941.753 67.9464C945.212 69.3657 948.187 71.5831 950.682 74.6123L951.84 73.6588C949.195 70.4474 946.021 68.0761 942.322 66.5587L941.753 67.9464ZM950.697 74.6306C953.214 77.4948 954.551 81.3471 954.641 86.2633L956.14 86.236C956.046 81.0571 954.63 76.8333 951.824 73.6405L950.697 74.6306ZM954.64 86.2497C954.64 90.5041 953.447 94.2975 951.062 97.654L952.285 98.5229C954.856 94.9046 956.14 90.8055 956.14 86.2497H954.64ZM951.055 97.6649C948.761 101.017 945.394 103.688 940.909 105.662L941.513 107.035C946.206 104.97 949.814 102.135 952.293 98.512L951.055 97.6649ZM940.916 105.659C936.532 107.538 931.359 108.489 925.38 108.489V109.989C931.516 109.989 936.897 109.013 941.507 107.037L940.916 105.659Z" fill="url(#paint0_linear_492_5338)"/>
<defs>
<linearGradient id="paint0_linear_492_5338" x1="200.425" y1="-201.846" x2="125.929" y2="161.82" gradientUnits="userSpaceOnUse">
<stop stop-color="#2DD1DB"/>
<stop offset="0.60721" stop-color="#2D9CDB"/>
<stop offset="1" stop-color="#1A8ED0"/>
</linearGradient>
</defs>
</svg>
