<svg width="607" height="94" viewBox="0 0 607 94" fill="none" xmlns="http://www.w3.org/2000/svg">
<path opacity="0.5" d="M17.5855 64.256L17.9525 63.6019L17.5855 64.256ZM5.10551 52.064L4.45824 52.4429L4.46029 52.4464L5.10551 52.064ZM5.10551 16.736L5.75074 17.1184L5.75277 17.1149L5.10551 16.736ZM17.5855 4.44799L17.2186 3.79389H17.2186L17.5855 4.44799ZM52.1455 4.44799L51.7751 5.10017L51.7786 5.1021L52.1455 4.44799ZM64.5295 16.736L63.8788 17.109L63.8843 17.1183L64.5295 16.736ZM64.5295 52.064L63.8822 51.6851L63.8808 51.6876L64.5295 52.064ZM52.1455 64.256L51.7786 63.6019L52.1455 64.256ZM45.5215 53.984L45.8995 54.6319L45.9094 54.6259L45.5215 53.984ZM52.7215 46.112L53.3898 46.4524L52.7215 46.112ZM52.7215 22.592L52.0532 22.9325L52.0559 22.9376L52.7215 22.592ZM45.5215 14.816L45.1436 15.4638L45.5215 14.816ZM24.1135 14.816L23.7414 14.1648L23.7356 14.1682L24.1135 14.816ZM16.9135 22.592L17.5792 22.9376L17.5818 22.9324L16.9135 22.592ZM16.9135 46.112L17.5818 45.7716L16.9135 46.112ZM24.1135 53.984L23.7257 54.6259L23.7335 54.6307L23.7414 54.6352L24.1135 53.984ZM34.8655 67.922C28.7164 67.922 23.0835 66.4803 17.9525 63.6019L17.2186 64.9101C22.5835 67.9197 28.4707 69.422 34.8655 69.422V67.922ZM17.9525 63.6019C12.8197 60.7225 8.75558 56.7523 5.75073 51.6816L4.46029 52.4464C7.59944 57.7437 11.8554 61.9015 17.2186 64.9101L17.9525 63.6019ZM5.75277 51.6851C2.75366 46.5616 1.24751 40.7744 1.24751 34.304H-0.252488C-0.252488 41.0176 1.31337 47.0704 4.45825 52.4429L5.75277 51.6851ZM1.24751 34.304C1.24751 27.8989 2.753 22.177 5.75073 17.1183L4.46029 16.3536C1.31403 21.663 -0.252488 27.653 -0.252488 34.304H1.24751ZM5.75277 17.1149C8.7582 11.9806 12.822 7.98018 17.9525 5.1021L17.2186 3.79389C11.8531 6.80381 7.59683 10.9954 4.45825 16.3571L5.75277 17.1149ZM17.9525 5.1021C23.0835 2.22369 28.7164 0.782 34.8655 0.782V-0.718C28.4707 -0.718 22.5835 0.784307 17.2186 3.79389L17.9525 5.1021ZM34.8655 0.782C41.0801 0.782 46.7112 2.22433 51.7751 5.10017L52.5159 3.79582C47.2119 0.783663 41.3229 -0.718 34.8655 -0.718V0.782ZM51.7786 5.1021C56.9077 7.97939 60.9379 11.9779 63.8788 17.109L65.1802 16.363C62.1051 10.998 57.8794 6.8046 52.5125 3.79389L51.7786 5.1021ZM63.8843 17.1183C66.882 22.177 68.3875 27.8989 68.3875 34.304H69.8875C69.8875 27.653 68.321 21.663 65.1747 16.3536L63.8843 17.1183ZM68.3875 34.304C68.3875 40.7744 66.8814 46.5616 63.8823 51.6851L65.1768 52.4429C68.3217 47.0704 69.8875 41.0176 69.8875 34.304H68.3875ZM63.8808 51.6876C60.9405 56.755 56.91 60.7233 51.7786 63.6019L52.5125 64.9101C57.877 61.9007 62.1026 57.741 65.1782 52.4404L63.8808 51.6876ZM51.7786 63.6019C46.6475 66.4803 41.0147 67.922 34.8655 67.922V69.422C41.2604 69.422 47.1475 67.9197 52.5125 64.9101L51.7786 63.6019ZM34.8655 57.422C39.0122 57.422 42.698 56.4993 45.8994 54.6318L45.1436 53.3362C42.201 55.0527 38.7828 55.922 34.8655 55.922V57.422ZM45.9094 54.6259C49.1085 52.6931 51.6023 49.9612 53.3898 46.4524L52.0532 45.7716C50.3847 49.0468 48.0785 51.5629 45.1337 53.3421L45.9094 54.6259ZM53.3898 46.4524C55.1802 42.9379 56.0635 38.8815 56.0635 34.304H54.5635C54.5635 38.6865 53.7188 42.5021 52.0532 45.7716L53.3898 46.4524ZM56.0635 34.304C56.0635 29.727 55.1804 25.7001 53.3871 22.2464L52.0559 22.9376C53.7186 26.1399 54.5635 29.921 54.5635 34.304H56.0635ZM53.3898 22.2516C51.6013 18.7408 49.1045 16.0378 45.8994 14.1682L45.1436 15.4638C48.0825 17.1782 50.3857 19.6592 52.0532 22.9324L53.3898 22.2516ZM45.8994 14.1682C42.698 12.3007 39.0122 11.378 34.8655 11.378V12.878C38.7828 12.878 42.201 13.7473 45.1436 15.4638L45.8994 14.1682ZM34.8655 11.378C30.7185 11.378 27.0035 12.3008 23.7414 14.1648L24.4856 15.4672C27.4955 13.7472 30.9485 12.878 34.8655 12.878V11.378ZM23.7356 14.1682C20.5305 16.0378 18.0337 18.7408 16.2452 22.2516L17.5818 22.9324C19.2493 19.6592 21.5525 17.1782 24.4914 15.4638L23.7356 14.1682ZM16.2479 22.2464C14.4546 25.7001 13.5715 29.727 13.5715 34.304H15.0715C15.0715 29.921 15.9164 26.1399 17.5791 22.9376L16.2479 22.2464ZM13.5715 34.304C13.5715 38.8815 14.4548 42.9379 16.2452 46.4524L17.5818 45.7716C15.9162 42.5021 15.0715 38.6865 15.0715 34.304H13.5715ZM16.2452 46.4524C18.0327 49.9612 20.5265 52.6931 23.7257 54.6259L24.5014 53.3421C21.5565 51.5629 19.2503 49.0468 17.5818 45.7716L16.2452 46.4524ZM23.7414 54.6352C27.0035 56.4992 30.7185 57.422 34.8655 57.422V55.922C30.9485 55.922 27.4955 55.0528 24.4856 53.3328L23.7414 54.6352ZM135.105 14.816H135.855V14.066H135.105V14.816ZM135.105 68V68.75H135.855V68H135.105ZM121.569 68H120.819V68.75H121.569V68ZM121.569 61.28H122.319V59.03L120.969 60.83L121.569 61.28ZM114.753 66.752L115.069 67.4321L115.076 67.4289L114.753 66.752ZM94.6885 66.08L94.322 66.7345L94.3322 66.7399L94.6885 66.08ZM87.1045 58.304L86.4387 58.6492L86.4426 58.6567L86.4466 58.664L87.1045 58.304ZM84.4165 14.816V14.066H83.6665V14.816H84.4165ZM97.8565 14.816H98.6065V14.066H97.8565V14.816ZM101.025 53.888L100.472 54.3948L100.479 54.4025L101.025 53.888ZM118.401 53.888L118.946 54.4026L118.953 54.3948L118.401 53.888ZM121.569 14.816V14.066H120.819V14.816H121.569ZM134.355 14.816V68H135.855V14.816H134.355ZM135.105 67.25H121.569V68.75H135.105V67.25ZM122.319 68V61.28H120.819V68H122.319ZM120.969 60.83C119.319 63.0292 117.146 64.7788 114.429 66.0751L115.076 67.4289C117.992 66.0372 120.362 64.1388 122.169 61.73L120.969 60.83ZM114.436 66.072C111.791 67.3025 108.892 67.922 105.729 67.922V69.422C109.093 69.422 112.21 68.7615 115.069 67.432L114.436 66.072ZM105.729 67.922C101.675 67.922 98.1205 67.0809 95.0449 65.4201L94.3322 66.7399C97.6565 68.5351 101.462 69.422 105.729 69.422V67.922ZM95.055 65.4256C91.9846 63.7062 89.5547 61.2195 87.7625 57.944L86.4466 58.664C88.3663 62.1725 90.9924 64.8698 94.3221 66.7344L95.055 65.4256ZM87.7703 57.9588C86.0444 54.6301 85.1665 50.6575 85.1665 46.016H83.6665C83.6665 50.8465 84.5807 55.0659 86.4387 58.6492L87.7703 57.9588ZM85.1665 46.016V14.816H83.6665V46.016H85.1665ZM84.4165 15.566H97.8565V14.066H84.4165V15.566ZM97.1065 14.816V44.096H98.6065V14.816H97.1065ZM97.1065 44.096C97.1065 48.4407 98.1939 51.91 100.472 54.3948L101.577 53.3812C99.6311 51.258 98.6065 48.1993 98.6065 44.096H97.1065ZM100.479 54.4025C102.759 56.8205 105.851 57.998 109.665 57.998V56.498C106.182 56.498 103.514 55.4355 101.57 53.3735L100.479 54.4025ZM109.665 57.998C113.537 57.998 116.664 56.8232 118.946 54.4025L117.855 53.3735C115.913 55.4328 113.216 56.498 109.665 56.498V57.998ZM118.953 54.3948C121.231 51.91 122.319 48.4407 122.319 44.096H120.819C120.819 48.1993 119.794 51.258 117.848 53.3812L118.953 54.3948ZM122.319 44.096V14.816H120.819V44.096H122.319ZM121.569 15.566H135.105V14.066H121.569V15.566ZM167.565 23.072H166.815V25.7282L168.205 23.4643L167.565 23.072ZM174.285 16.448L173.915 15.7959L173.908 15.7996L174.285 16.448ZM183.885 14.048H184.635V13.298H183.885V14.048ZM183.885 28.16V28.91H184.635V28.16H183.885ZM170.733 31.136L170.228 30.5817L170.22 30.5894L170.733 31.136ZM167.565 68V68.75H168.315V68H167.565ZM154.125 68H153.375V68.75H154.125V68ZM154.125 14.816V14.066H153.375V14.816H154.125ZM167.565 14.816H168.315V14.066H167.565V14.816ZM168.205 23.4643C169.87 20.7499 172.022 18.6316 174.662 17.0964L173.908 15.7996C171.045 17.4644 168.716 19.7621 166.926 22.6797L168.205 23.4643ZM174.656 17.1001C177.347 15.5709 180.417 14.798 183.885 14.798V13.298C180.186 13.298 176.855 14.1251 173.915 15.7959L174.656 17.1001ZM183.135 14.048V28.16H184.635V14.048H183.135ZM183.885 27.41H180.333V28.91H183.885V27.41ZM180.333 27.41C176.003 27.41 172.592 28.4264 170.228 30.5818L171.239 31.6902C173.227 29.8776 176.216 28.91 180.333 28.91V27.41ZM170.22 30.5894C167.88 32.7876 166.815 36.5062 166.815 41.504H168.315C168.315 36.6458 169.363 33.4524 171.247 31.6826L170.22 30.5894ZM166.815 41.504V68H168.315V41.504H166.815ZM167.565 67.25H154.125V68.75H167.565V67.25ZM154.875 68V14.816H153.375V68H154.875ZM154.125 15.566H167.565V14.066H154.125V15.566ZM166.815 14.816V23.072H168.315V14.816H166.815ZM240.773 11.84V11.09H240.023V11.84H240.773ZM240.773 28.64H240.023V29.39H240.773V28.64ZM263.333 28.64H264.083V27.89H263.333V28.64ZM263.333 39.296V40.046H264.083V39.296H263.333ZM240.773 39.296V38.546H240.023V39.296H240.773ZM240.773 57.056H240.023V57.806H240.773V57.056ZM266.213 57.056H266.963V56.306H266.213V57.056ZM266.213 68V68.75H266.963V68H266.213ZM227.333 68H226.583V68.75H227.333V68ZM227.333 0.895994V0.145994H226.583V0.895994H227.333ZM266.213 0.895994H266.963V0.145994H266.213V0.895994ZM266.213 11.84V12.59H266.963V11.84H266.213ZM240.023 11.84V28.64H241.523V11.84H240.023ZM240.773 29.39H263.333V27.89H240.773V29.39ZM262.583 28.64V39.296H264.083V28.64H262.583ZM263.333 38.546H240.773V40.046H263.333V38.546ZM240.023 39.296V57.056H241.523V39.296H240.023ZM240.773 57.806H266.213V56.306H240.773V57.806ZM265.463 57.056V68H266.963V57.056H265.463ZM266.213 67.25H227.333V68.75H266.213V67.25ZM228.083 68V0.895994H226.583V68H228.083ZM227.333 1.64599H266.213V0.145994H227.333V1.64599ZM265.463 0.895994V11.84H266.963V0.895994H265.463ZM266.213 11.09H240.773V12.59H266.213V11.09ZM313.562 68L312.937 68.4143L313.16 68.75H313.562V68ZM302.618 51.488L303.244 51.0737L302.58 50.0724L301.972 51.1082L302.618 51.488ZM292.923 68V68.75H293.352L293.569 68.3798L292.923 68ZM278.522 68L277.894 67.5908L277.139 68.75H278.522V68ZM295.898 41.312L296.527 41.7212L296.796 41.3082L296.524 40.8975L295.898 41.312ZM278.331 14.816V14.066H276.933L277.705 15.2305L278.331 14.816ZM293.499 14.816L294.124 14.4025L293.902 14.066H293.499V14.816ZM304.346 31.232L303.721 31.6455L304.379 32.6416L304.991 31.6162L304.346 31.232ZM314.138 14.816V14.066H313.713L313.494 14.4318L314.138 14.816ZM328.539 14.816L329.165 15.2289L329.931 14.066H328.539V14.816ZM311.066 41.312L310.44 40.8991L310.168 41.3128L310.441 41.7259L311.066 41.312ZM328.73 68V68.75H330.126L329.356 67.5861L328.73 68ZM314.188 67.5857L303.244 51.0737L301.993 51.9023L312.937 68.4143L314.188 67.5857ZM301.972 51.1082L292.276 67.6202L293.569 68.3798L303.265 51.8678L301.972 51.1082ZM292.923 67.25H278.522V68.75H292.923V67.25ZM279.151 68.4092L296.527 41.7212L295.27 40.9028L277.894 67.5908L279.151 68.4092ZM296.524 40.8975L278.956 14.4015L277.705 15.2305L295.273 41.7265L296.524 40.8975ZM278.331 15.566H293.499V14.066H278.331V15.566ZM292.873 15.2295L303.721 31.6455L304.972 30.8185L294.124 14.4025L292.873 15.2295ZM304.991 31.6162L314.783 15.2002L313.494 14.4318L303.702 30.8478L304.991 31.6162ZM314.138 15.566H328.539V14.066H314.138V15.566ZM327.912 14.4031L310.44 40.8991L311.693 41.7249L329.165 15.2289L327.912 14.4031ZM310.441 41.7259L328.105 68.4139L329.356 67.5861L311.692 40.8981L310.441 41.7259ZM328.73 67.25H313.562V68.75H328.73V67.25ZM355.23 22.496H354.48V24.8464L355.842 22.9304L355.23 22.496ZM362.334 16.448L362.686 17.1102L362.691 17.1075L362.334 16.448ZM385.086 17.312L384.694 17.9511L384.699 17.9541L385.086 17.312ZM393.822 26.912L393.153 27.2516L393.16 27.2639L393.822 26.912ZM393.822 55.712L393.156 55.3685L393.154 55.3725L393.822 55.712ZM385.086 65.408L384.691 64.7708L384.686 64.7739L385.086 65.408ZM362.43 66.464L362.072 67.123L362.078 67.1262L362.43 66.464ZM355.23 60.416L355.826 59.961L354.48 58.197V60.416H355.23ZM355.23 93.344V94.094H355.98V93.344H355.23ZM341.79 93.344H341.04V94.094H341.79V93.344ZM341.79 14.816V14.066H341.04V14.816H341.79ZM355.23 14.816H355.98V14.066H355.23V14.816ZM381.342 32.96L380.682 33.3166L380.688 33.3274L380.694 33.3379L381.342 32.96ZM376.158 27.584L375.784 28.234L375.792 28.2387L376.158 27.584ZM362.334 27.68L362.708 28.33L362.715 28.3265L362.334 27.68ZM357.15 33.056L356.498 32.6858L356.494 32.6925L356.49 32.6994L357.15 33.056ZM357.15 49.76L356.49 50.1166L356.494 50.1235L356.498 50.1302L357.15 49.76ZM362.334 55.232L361.946 55.8734L361.957 55.8803L361.968 55.8867L362.334 55.232ZM376.158 55.136L375.778 54.4895L375.77 54.4946L376.158 55.136ZM381.342 49.664L380.69 49.2938L380.686 49.3005L380.682 49.3074L381.342 49.664ZM355.842 22.9304C357.493 20.6061 359.767 18.6632 362.686 17.1102L361.982 15.7858C358.886 17.4328 356.423 19.5219 354.619 22.0616L355.842 22.9304ZM362.691 17.1075C365.641 15.5096 369.004 14.702 372.798 14.702V13.202C368.784 13.202 365.171 14.0584 361.977 15.7885L362.691 17.1075ZM372.798 14.702C377.213 14.702 381.171 15.7881 384.694 17.9511L385.479 16.6729C381.705 14.3559 377.472 13.202 372.798 13.202V14.702ZM384.699 17.9541C388.281 20.116 391.1 23.2068 393.154 27.2515L394.491 26.5725C392.32 22.2972 389.315 18.988 385.474 16.6699L384.699 17.9541ZM393.16 27.2639C395.269 31.2342 396.336 35.8775 396.336 41.216H397.836C397.836 35.6745 396.727 30.7818 394.485 26.5601L393.16 27.2639ZM396.336 41.216C396.336 46.5539 395.269 51.2652 393.156 55.3685L394.489 56.0555C396.727 51.7108 397.836 46.7581 397.836 41.216H396.336ZM393.154 55.3725C391.099 59.4188 388.278 62.5441 384.691 64.7708L385.482 66.0452C389.318 63.6639 392.321 60.3252 394.491 56.0515L393.154 55.3725ZM384.686 64.7739C381.164 66.9981 377.208 68.114 372.798 68.114V69.614C377.476 69.614 381.712 68.4259 385.487 66.0421L384.686 64.7739ZM372.798 68.114C368.999 68.114 365.667 67.3362 362.782 65.8018L362.078 67.1262C365.209 68.7918 368.789 69.614 372.798 69.614V68.114ZM362.788 65.805C359.928 64.2506 357.612 62.3013 355.826 59.961L354.634 60.871C356.56 63.3947 359.044 65.4774 362.072 67.123L362.788 65.805ZM354.48 60.416V93.344H355.98V60.416H354.48ZM355.23 92.594H341.79V94.094H355.23V92.594ZM342.54 93.344V14.816H341.04V93.344H342.54ZM341.79 15.566H355.23V14.066H341.79V15.566ZM354.48 14.816V22.496H355.98V14.816H354.48ZM384.108 41.216C384.108 37.9098 383.413 35.0218 381.99 32.5821L380.694 33.3379C381.959 35.5062 382.608 38.1222 382.608 41.216H384.108ZM382.002 32.6034C380.66 30.1205 378.834 28.2203 376.524 26.9293L375.792 28.2387C377.834 29.3797 379.465 31.0635 380.682 33.3166L382.002 32.6034ZM376.532 26.934C374.304 25.6509 371.87 25.01 369.246 25.01V26.51C371.614 26.51 373.789 27.0851 375.784 28.234L376.532 26.934ZM369.246 25.01C366.675 25.01 364.241 25.6884 361.954 27.0335L362.715 28.3265C364.78 27.1115 366.953 26.51 369.246 26.51V25.01ZM361.96 27.03C359.719 28.3204 357.9 30.2154 356.498 32.6858L357.803 33.4262C359.088 31.1606 360.726 29.4716 362.708 28.33L361.96 27.03ZM356.49 32.6994C355.141 35.1958 354.48 38.1069 354.48 41.408H355.98C355.98 38.3091 356.599 35.6521 357.81 33.4126L356.49 32.6994ZM354.48 41.408C354.48 44.7091 355.141 47.6201 356.49 50.1166L357.81 49.4034C356.599 47.1638 355.98 44.5069 355.98 41.408H354.48ZM356.498 50.1302C357.899 52.5979 359.713 54.5204 361.946 55.8734L362.723 54.5906C360.732 53.3836 359.09 51.6581 357.803 49.3898L356.498 50.1302ZM361.968 55.8867C364.253 57.1636 366.683 57.806 369.246 57.806V56.306C366.946 56.306 364.767 55.7324 362.7 54.5773L361.968 55.8867ZM369.246 57.806C371.878 57.806 374.316 57.1292 376.547 55.7774L375.77 54.4946C373.776 55.7028 371.607 56.306 369.246 56.306V57.806ZM376.539 55.7824C378.84 54.4285 380.661 52.5006 382.002 50.0206L380.682 49.3074C379.463 51.5634 377.828 53.2835 375.778 54.4895L376.539 55.7824ZM381.995 50.0342C383.414 47.5328 384.108 44.584 384.108 41.216H382.608C382.608 44.376 381.958 47.0592 380.69 49.2938L381.995 50.0342ZM461.669 45.44V46.19H462.304L462.409 45.5633L461.669 45.44ZM422.789 45.44V44.69H421.974L422.041 45.5023L422.789 45.44ZM426.821 54.464L426.313 55.0162L426.821 54.464ZM446.213 51.296V50.546H445.746L445.54 50.9646L446.213 51.296ZM460.709 51.296L461.427 51.5115L461.717 50.546H460.709V51.296ZM451.877 63.968L452.327 64.568L452.332 64.5638L451.877 63.968ZM422.021 65.504L421.649 66.1553L421.661 66.162L422.021 65.504ZM412.517 55.808L411.856 56.1636L411.861 56.1714L412.517 55.808ZM412.517 26.912L411.856 26.5564L412.517 26.912ZM421.925 17.312L422.289 17.9676L421.925 17.312ZM449.381 17.216L449.02 17.8736L449.025 17.876L449.381 17.216ZM458.693 26.528L458.033 26.8842L458.036 26.8905L458.04 26.8967L458.693 26.528ZM448.133 36.416V37.166H448.897L448.883 36.4021L448.133 36.416ZM444.389 28.16L443.897 28.7263L443.906 28.7337L444.389 28.16ZM427.013 28.064L427.51 28.6254L427.511 28.6246L427.013 28.064ZM422.885 36.416L422.142 36.3099L422.02 37.166H422.885V36.416ZM461.303 40.256C461.303 42.1438 461.177 43.8295 460.929 45.3167L462.409 45.5633C462.673 43.9785 462.803 42.2082 462.803 40.256H461.303ZM461.669 44.69H422.789V46.19H461.669V44.69ZM422.041 45.5023C422.374 49.4906 423.78 52.6884 426.313 55.0162L427.328 53.9118C425.125 51.8876 423.844 49.0694 423.536 45.3777L422.041 45.5023ZM426.313 55.0162C428.831 57.3294 431.928 58.478 435.557 58.478V56.978C432.273 56.978 429.547 55.9506 427.328 53.9118L426.313 55.0162ZM435.557 58.478C438.161 58.478 440.438 57.9178 442.352 56.7621C444.269 55.6052 445.776 53.8801 446.886 51.6274L445.54 50.9646C444.537 52.9999 443.213 54.4908 441.577 55.4779C439.94 56.4662 437.944 56.978 435.557 56.978V58.478ZM446.213 52.046H460.709V50.546H446.213V52.046ZM459.99 51.0805C458.501 56.0452 455.651 60.1376 451.421 63.3722L452.332 64.5638C456.806 61.1424 459.845 56.7868 461.427 51.5115L459.99 51.0805ZM451.427 63.368C447.225 66.5192 442.046 68.114 435.845 68.114V69.614C442.315 69.614 447.824 67.9448 452.327 64.568L451.427 63.368ZM435.845 68.114C430.838 68.114 426.356 67.0199 422.381 64.846L421.661 66.162C425.878 68.4681 430.611 69.614 435.845 69.614V68.114ZM422.393 64.8528C418.483 62.6186 415.412 59.4875 413.173 55.4446L411.861 56.1714C414.23 60.4485 417.494 63.7813 421.649 66.1552L422.393 64.8528ZM413.177 55.4524C411.004 51.4172 409.907 46.7428 409.907 41.408H408.407C408.407 46.9532 409.549 51.8788 411.856 56.1636L413.177 55.4524ZM409.907 41.408C409.907 36.0076 411.005 31.3015 413.177 27.2676L411.856 26.5564C409.549 30.8425 408.407 35.8004 408.407 41.408H409.907ZM413.177 27.2676C415.351 23.2306 418.386 20.1362 422.289 17.9676L421.561 16.6564C417.4 18.9678 414.163 22.2734 411.856 26.5564L413.177 27.2676ZM422.289 17.9676C426.195 15.7976 430.706 14.702 435.845 14.702V13.202C430.487 13.202 425.719 14.3464 421.561 16.6564L422.289 17.9676ZM435.845 14.702C440.79 14.702 445.175 15.7651 449.02 17.8736L449.741 16.5584C445.65 14.3149 441.012 13.202 435.845 13.202V14.702ZM449.025 17.876C452.928 19.9825 455.926 22.9809 458.033 26.8842L459.353 26.1718C457.107 22.0111 453.898 18.8015 449.737 16.556L449.025 17.876ZM458.04 26.8967C460.208 30.7374 461.303 35.1831 461.303 40.256H462.803C462.803 34.9609 461.658 30.2546 459.346 26.1593L458.04 26.8967ZM448.883 36.4021C448.815 32.751 447.485 29.7868 444.872 27.5863L443.906 28.7337C446.157 30.6292 447.323 33.169 447.383 36.4299L448.883 36.4021ZM444.881 27.5937C442.299 25.3519 439.143 24.242 435.461 24.242V25.742C438.818 25.742 441.615 26.7441 443.897 28.7263L444.881 27.5937ZM435.461 24.242C431.965 24.242 428.967 25.3233 426.514 27.5034L427.511 28.6246C429.666 26.7087 432.301 25.742 435.461 25.742V24.242ZM426.516 27.5026C424.116 29.6279 422.674 32.5884 422.142 36.3099L423.627 36.5221C424.12 33.0756 425.43 30.4681 427.51 28.6254L426.516 27.5026ZM422.885 37.166H448.133V35.666H422.885V37.166ZM491.063 23.072H490.313V25.7282L491.702 23.4643L491.063 23.072ZM497.783 16.448L497.412 15.7959L497.406 15.7996L497.783 16.448ZM507.383 14.048H508.133V13.298H507.383V14.048ZM507.383 28.16V28.91H508.133V28.16H507.383ZM494.231 31.136L493.725 30.5817L493.717 30.5894L494.231 31.136ZM491.063 68V68.75H491.813V68H491.063ZM477.623 68H476.873V68.75H477.623V68ZM477.623 14.816V14.066H476.873V14.816H477.623ZM491.063 14.816H491.813V14.066H491.063V14.816ZM491.702 23.4643C493.368 20.7499 495.519 18.6316 498.16 17.0964L497.406 15.7996C494.542 17.4644 492.214 19.7621 490.424 22.6797L491.702 23.4643ZM498.153 17.1001C500.845 15.5709 503.914 14.798 507.383 14.798V13.298C503.683 13.298 500.353 14.1251 497.412 15.7959L498.153 17.1001ZM506.633 14.048V28.16H508.133V14.048H506.633ZM507.383 27.41H503.831V28.91H507.383V27.41ZM503.831 27.41C499.5 27.41 496.089 28.4264 493.725 30.5818L494.736 31.6902C496.724 29.8776 499.713 28.91 503.831 28.91V27.41ZM493.717 30.5894C491.377 32.7876 490.313 36.5062 490.313 41.504H491.813C491.813 36.6458 492.86 33.4524 494.744 31.6826L493.717 30.5894ZM490.313 41.504V68H491.813V41.504H490.313ZM491.063 67.25H477.623V68.75H491.063V67.25ZM478.373 68V14.816H476.873V68H478.373ZM477.623 15.566H491.063V14.066H477.623V15.566ZM490.313 14.816V23.072H491.813V14.816H490.313ZM537.843 25.856V25.106H537.093V25.856H537.843ZM539.091 55.52L538.561 56.0503L538.581 56.0707L538.603 56.0894L539.091 55.52ZM549.747 56.672H550.497V55.922H549.747V56.672ZM549.747 68V68.75H550.497V68H549.747ZM524.307 25.856H525.057V25.106H524.307V25.856ZM517.971 25.856H517.221V26.606H517.971V25.856ZM517.971 14.816V14.066H517.221V14.816H517.971ZM524.307 14.816V15.566H525.057V14.816H524.307ZM524.307 1.664V0.913996H523.557V1.664H524.307ZM537.843 1.664H538.593V0.913996H537.843V1.664ZM537.843 14.816H537.093V15.566H537.843V14.816ZM549.747 14.816H550.497V14.066H549.747V14.816ZM549.747 25.856V26.606H550.497V25.856H549.747ZM537.093 25.856V51.584H538.593V25.856H537.093ZM537.093 51.584C537.093 53.4727 537.53 55.019 538.561 56.0503L539.622 54.9897C538.989 54.357 538.593 53.2793 538.593 51.584H537.093ZM538.603 56.0894C539.705 57.0334 541.4 57.422 543.507 57.422V55.922C541.519 55.922 540.27 55.5426 539.579 54.9506L538.603 56.0894ZM543.507 57.422H549.747V55.922H543.507V57.422ZM548.997 56.672V68H550.497V56.672H548.997ZM549.747 67.25H541.299V68.75H549.747V67.25ZM541.299 67.25C535.746 67.25 531.719 65.9006 529.078 63.3341C526.441 60.7715 525.057 56.8708 525.057 51.488H523.557C523.557 57.1132 525.006 61.4685 528.033 64.4099C531.056 67.3474 535.525 68.75 541.299 68.75V67.25ZM525.057 51.488V25.856H523.557V51.488H525.057ZM524.307 25.106H517.971V26.606H524.307V25.106ZM518.721 25.856V14.816H517.221V25.856H518.721ZM517.971 15.566H524.307V14.066H517.971V15.566ZM525.057 14.816V1.664H523.557V14.816H525.057ZM524.307 2.414H537.843V0.913996H524.307V2.414ZM537.093 1.664V14.816H538.593V1.664H537.093ZM537.843 15.566H549.747V14.066H537.843V15.566ZM548.997 14.816V25.856H550.497V14.816H548.997ZM549.747 25.106H537.843V26.606H549.747V25.106ZM573.814 66.56L573.499 67.2407L573.509 67.2454L573.814 66.56ZM565.558 60.128L564.954 60.5734L564.961 60.5825L565.558 60.128ZM562.294 51.2V50.45H561.499L561.545 51.244L562.294 51.2ZM575.83 51.2L576.574 51.107L576.492 50.45H575.83V51.2ZM578.806 56.288L578.345 56.8801L578.356 56.888L578.806 56.288ZM591.382 56.768L590.954 56.1523L590.947 56.1568L590.941 56.1614L591.382 56.768ZM590.902 48.992L590.557 49.6578L590.571 49.6654L590.586 49.6723L590.902 48.992ZM582.55 46.112L582.743 45.3873L582.735 45.3851L582.726 45.383L582.55 46.112ZM572.758 43.136L572.473 43.8299L572.479 43.8324L572.758 43.136ZM566.23 38.432L565.658 38.9173L565.667 38.9271L566.23 38.432ZM566.038 21.824L565.427 21.3895L565.419 21.4005L566.038 21.824ZM573.334 16.064L573.032 15.3775L573.027 15.3798L573.334 16.064ZM599.734 18.752L599.249 19.3242L599.255 19.329L599.734 18.752ZM605.974 31.52V32.27H606.779L606.722 31.4666L605.974 31.52ZM593.11 31.52L592.363 31.5879L592.425 32.27H593.11V31.52ZM590.422 26.528L589.942 27.1042L589.955 27.1149L589.968 27.1251L590.422 26.528ZM578.518 25.952L578.102 25.328L578.095 25.3327L578.088 25.3376L578.518 25.952ZM579.286 33.824L578.932 34.4851L578.941 34.4901L578.951 34.4948L579.286 33.824ZM587.638 36.608L587.453 37.3349L587.456 37.3356L587.638 36.608ZM603.574 44.384L602.995 44.8608L603.003 44.8701L603.011 44.8791L603.574 44.384ZM606.454 52.832H607.204L607.204 52.8184L606.454 52.832ZM603.862 61.088L603.25 60.6535L603.243 60.6645L603.862 61.088ZM596.566 66.848L596.861 67.5374L596.868 67.5345L596.566 66.848ZM585.526 68.114C581.263 68.114 577.465 67.3621 574.119 65.8746L573.509 67.2454C577.075 68.8299 581.085 69.614 585.526 69.614V68.114ZM574.129 65.8794C570.77 64.3241 568.12 62.2525 566.155 59.6735L564.961 60.5825C567.092 63.3795 569.946 65.5959 573.499 67.2406L574.129 65.8794ZM566.161 59.6826C564.262 57.1088 563.226 54.2716 563.043 51.156L561.545 51.244C561.746 54.6564 562.886 57.7712 564.955 60.5734L566.161 59.6826ZM562.294 51.95H575.83V50.45H562.294V51.95ZM575.086 51.293C575.368 53.5513 576.471 55.4221 578.346 56.88L579.266 55.696C577.685 54.4659 576.804 52.9447 576.574 51.107L575.086 51.293ZM578.356 56.888C580.299 58.3453 582.673 59.054 585.43 59.054V57.554C582.939 57.554 580.897 56.9187 579.256 55.688L578.356 56.888ZM585.43 59.054C588.077 59.054 590.239 58.5264 591.823 57.3745L590.941 56.1614C589.709 57.0576 587.903 57.554 585.43 57.554V59.054ZM591.81 57.3837C593.456 56.2392 594.34 54.7101 594.34 52.832H592.84C592.84 54.1539 592.252 55.2488 590.954 56.1523L591.81 57.3837ZM594.34 52.832C594.34 51.8312 594.078 50.9252 593.532 50.1459C592.991 49.3726 592.202 48.7689 591.218 48.3117L590.586 49.6723C591.394 50.0471 591.949 50.4994 592.304 51.0061C592.654 51.5068 592.84 52.1048 592.84 52.832H594.34ZM591.247 48.3262C589.443 47.3907 586.593 46.414 582.743 45.3873L582.357 46.8367C586.187 47.858 588.905 48.8013 590.557 49.6578L591.247 48.3262ZM582.726 45.383C578.778 44.4279 575.552 43.4457 573.037 42.4396L572.479 43.8324C575.084 44.8743 578.386 45.8761 582.374 46.841L582.726 45.383ZM573.043 42.4421C570.658 41.4639 568.576 39.9658 566.793 37.9369L565.667 38.9271C567.596 41.1222 569.866 42.7601 572.473 43.8299L573.043 42.4421ZM566.802 37.9468C565.155 36.006 564.292 33.3475 564.292 29.888H562.792C562.792 33.5965 563.721 36.634 565.658 38.9172L566.802 37.9468ZM564.292 29.888C564.292 27.0953 565.078 24.5549 566.657 22.2475L565.419 21.4005C563.67 23.9571 562.792 26.7927 562.792 29.888H564.292ZM566.649 22.2584C568.289 19.9509 570.608 18.11 573.641 16.7482L573.027 15.3798C569.788 16.834 567.243 18.8331 565.427 21.3896L566.649 22.2584ZM573.636 16.7505C576.722 15.3927 580.359 14.702 584.566 14.702V13.202C580.197 13.202 576.346 13.9193 573.032 15.3775L573.636 16.7505ZM584.566 14.702C590.775 14.702 595.643 16.2681 599.249 19.3242L600.219 18.1798C596.273 14.8359 591.029 13.202 584.566 13.202V14.702ZM599.255 19.329C602.857 22.3209 604.855 26.3792 605.226 31.5734L606.722 31.4666C606.325 25.9088 604.163 21.4551 600.213 18.175L599.255 19.329ZM605.974 30.77H593.11V32.27H605.974V30.77ZM593.857 31.4521C593.647 29.1434 592.654 27.282 590.876 25.9309L589.968 27.1251C591.39 28.206 592.189 29.6726 592.363 31.5879L593.857 31.4521ZM590.902 25.9518C589.194 24.5285 586.926 23.858 584.182 23.858V25.358C586.686 25.358 588.578 25.9675 589.942 27.1042L590.902 25.9518ZM584.182 23.858C581.672 23.858 579.617 24.318 578.102 25.328L578.934 26.576C580.107 25.7939 581.828 25.358 584.182 25.358V23.858ZM578.088 25.3376C576.602 26.3779 575.848 27.8583 575.848 29.696H577.348C577.348 28.3337 577.874 27.3181 578.948 26.5664L578.088 25.3376ZM575.848 29.696C575.848 30.7235 576.107 31.6604 576.641 32.4813C577.173 33.2973 577.951 33.9595 578.932 34.4851L579.64 33.1629C578.829 32.7284 578.263 32.2227 577.898 31.6627C577.537 31.1076 577.348 30.4605 577.348 29.696H575.848ZM578.951 34.4948C580.817 35.4279 583.664 36.3716 587.453 37.3349L587.823 35.8811C584.06 34.9244 581.339 34.0121 579.621 33.1532L578.951 34.4948ZM587.456 37.3356C591.276 38.2905 594.406 39.2723 596.857 40.2779L597.427 38.8901C594.886 37.8477 591.68 36.8455 587.82 35.8804L587.456 37.3356ZM596.857 40.2779C599.234 41.2528 601.278 42.7759 602.995 44.8608L604.153 43.9072C602.286 41.6401 600.042 39.9632 597.427 38.8901L596.857 40.2779ZM603.011 44.8791C604.722 46.8268 605.643 49.457 605.704 52.8456L607.204 52.8184C607.137 49.167 606.138 46.1652 604.137 43.8889L603.011 44.8791ZM605.704 52.832C605.704 55.7533 604.886 58.3525 603.251 60.6536L604.473 61.5224C606.294 58.9595 607.204 56.0547 607.204 52.832H605.704ZM603.243 60.6645C601.672 62.961 599.36 64.7993 596.264 66.1615L596.868 67.5345C600.172 66.0807 602.724 64.079 604.481 61.5115L603.243 60.6645ZM596.271 66.1586C593.247 67.4543 589.672 68.114 585.526 68.114V69.614C589.828 69.614 593.613 68.9297 596.861 67.5374L596.271 66.1586Z" fill="url(#paint0_linear_673_7881)"/>
<defs>
<linearGradient id="paint0_linear_673_7881" x1="127.435" y1="-149.462" x2="70.132" y2="103.562" gradientUnits="userSpaceOnUse">
<stop stop-color="#2DD1DB"/>
<stop offset="0.60721" stop-color="#2D9CDB"/>
<stop offset="1" stop-color="#1A8ED0"/>
</linearGradient>
</defs>
</svg>
