<svg width="80" height="80" viewBox="0 0 80 80" fill="none" xmlns="http://www.w3.org/2000/svg">
<path d="M27.5 6.25H80V8.75H27.5V6.25Z" fill="url(#paint0_linear_1340_12733)"/>
<path d="M27.5 18.75H70V21.25H27.5V18.75Z" fill="url(#paint1_linear_1340_12733)"/>
<path d="M27.5 31.25H80V33.75H27.5V31.25Z" fill="url(#paint2_linear_1340_12733)"/>
<path d="M27.5 43.75H72.5V46.25H27.5V43.75Z" fill="url(#paint3_linear_1340_12733)"/>
<path d="M71.25 58.75H72.5V60H75V56.25H71.25V58.75Z" fill="url(#paint4_linear_1340_12733)"/>
<path d="M48.75 56.25H53.75V58.75H48.75V56.25Z" fill="url(#paint5_linear_1340_12733)"/>
<path d="M33.75 56.25H38.75V58.75H33.75V56.25Z" fill="url(#paint6_linear_1340_12733)"/>
<path d="M56.25 56.25H61.25V58.75H56.25V56.25Z" fill="url(#paint7_linear_1340_12733)"/>
<path d="M41.25 56.25H46.25V58.75H41.25V56.25Z" fill="url(#paint8_linear_1340_12733)"/>
<path d="M63.75 56.25H68.75V58.75H63.75V56.25Z" fill="url(#paint9_linear_1340_12733)"/>
<path d="M30 58.75H31.25V56.25H27.5V60H30V58.75Z" fill="url(#paint10_linear_1340_12733)"/>
<path d="M27.5 62.5H30V66.25H27.5V62.5Z" fill="url(#paint11_linear_1340_12733)"/>
<path d="M27.5 71.25H31.25V68.75H30V67.5H27.5V71.25Z" fill="url(#paint12_linear_1340_12733)"/>
<path d="M63.75 68.75H68.75V71.25H63.75V68.75Z" fill="url(#paint13_linear_1340_12733)"/>
<path d="M56.25 68.75H61.25V71.25H56.25V68.75Z" fill="url(#paint14_linear_1340_12733)"/>
<path d="M48.75 68.75H53.75V71.25H48.75V68.75Z" fill="url(#paint15_linear_1340_12733)"/>
<path d="M41.25 68.75H46.25V71.25H41.25V68.75Z" fill="url(#paint16_linear_1340_12733)"/>
<path d="M33.75 68.75H38.75V71.25H33.75V68.75Z" fill="url(#paint17_linear_1340_12733)"/>
<path d="M72.5 68.75H71.25V71.25H75V67.5H72.5V68.75Z" fill="url(#paint18_linear_1340_12733)"/>
<path d="M72.5 62.5H75V66.25H72.5V62.5Z" fill="url(#paint19_linear_1340_12733)"/>
<path d="M11.6163 71.6162L13.5675 73.3837L22.5 64.6337V62.8662L13.5675 54.1162L11.7075 55.8837L18.2325 62.5H0V65H18.2325L11.6163 71.6162Z" fill="url(#paint20_linear_1340_12733)"/>
<defs>
<linearGradient id="paint0_linear_1340_12733" x1="38.6528" y1="3.17308" x2="38.2625" y2="9.42231" gradientUnits="userSpaceOnUse">
<stop stop-color="#2DD1DB"/>
<stop offset="0.60721" stop-color="#2D9CDB"/>
<stop offset="1" stop-color="#1A8ED0"/>
</linearGradient>
<linearGradient id="paint1_linear_1340_12733" x1="36.5285" y1="15.6731" x2="36.0472" y2="21.9096" gradientUnits="userSpaceOnUse">
<stop stop-color="#2DD1DB"/>
<stop offset="0.60721" stop-color="#2D9CDB"/>
<stop offset="1" stop-color="#1A8ED0"/>
</linearGradient>
<linearGradient id="paint2_linear_1340_12733" x1="38.6528" y1="28.1731" x2="38.2625" y2="34.4223" gradientUnits="userSpaceOnUse">
<stop stop-color="#2DD1DB"/>
<stop offset="0.60721" stop-color="#2D9CDB"/>
<stop offset="1" stop-color="#1A8ED0"/>
</linearGradient>
<linearGradient id="paint3_linear_1340_12733" x1="37.0596" y1="40.6731" x2="36.6048" y2="46.9136" gradientUnits="userSpaceOnUse">
<stop stop-color="#2DD1DB"/>
<stop offset="0.60721" stop-color="#2D9CDB"/>
<stop offset="1" stop-color="#1A8ED0"/>
</linearGradient>
<linearGradient id="paint4_linear_1340_12733" x1="72.0466" y1="51.6346" x2="67.5096" y2="55.0932" gradientUnits="userSpaceOnUse">
<stop stop-color="#2DD1DB"/>
<stop offset="0.60721" stop-color="#2D9CDB"/>
<stop offset="1" stop-color="#1A8ED0"/>
</linearGradient>
<linearGradient id="paint5_linear_1340_12733" x1="49.8122" y1="53.1731" x2="46.935" y2="57.5595" gradientUnits="userSpaceOnUse">
<stop stop-color="#2DD1DB"/>
<stop offset="0.60721" stop-color="#2D9CDB"/>
<stop offset="1" stop-color="#1A8ED0"/>
</linearGradient>
<linearGradient id="paint6_linear_1340_12733" x1="34.8122" y1="53.1731" x2="31.935" y2="57.5595" gradientUnits="userSpaceOnUse">
<stop stop-color="#2DD1DB"/>
<stop offset="0.60721" stop-color="#2D9CDB"/>
<stop offset="1" stop-color="#1A8ED0"/>
</linearGradient>
<linearGradient id="paint7_linear_1340_12733" x1="57.3122" y1="53.1731" x2="54.435" y2="57.5595" gradientUnits="userSpaceOnUse">
<stop stop-color="#2DD1DB"/>
<stop offset="0.60721" stop-color="#2D9CDB"/>
<stop offset="1" stop-color="#1A8ED0"/>
</linearGradient>
<linearGradient id="paint8_linear_1340_12733" x1="42.3122" y1="53.1731" x2="39.435" y2="57.5595" gradientUnits="userSpaceOnUse">
<stop stop-color="#2DD1DB"/>
<stop offset="0.60721" stop-color="#2D9CDB"/>
<stop offset="1" stop-color="#1A8ED0"/>
</linearGradient>
<linearGradient id="paint9_linear_1340_12733" x1="64.8122" y1="53.1731" x2="61.935" y2="57.5595" gradientUnits="userSpaceOnUse">
<stop stop-color="#2DD1DB"/>
<stop offset="0.60721" stop-color="#2D9CDB"/>
<stop offset="1" stop-color="#1A8ED0"/>
</linearGradient>
<linearGradient id="paint10_linear_1340_12733" x1="28.2966" y1="51.6346" x2="23.7596" y2="55.0932" gradientUnits="userSpaceOnUse">
<stop stop-color="#2DD1DB"/>
<stop offset="0.60721" stop-color="#2D9CDB"/>
<stop offset="1" stop-color="#1A8ED0"/>
</linearGradient>
<linearGradient id="paint11_linear_1340_12733" x1="28.0311" y1="57.8846" x2="24.2303" y2="59.8161" gradientUnits="userSpaceOnUse">
<stop stop-color="#2DD1DB"/>
<stop offset="0.60721" stop-color="#2D9CDB"/>
<stop offset="1" stop-color="#1A8ED0"/>
</linearGradient>
<linearGradient id="paint12_linear_1340_12733" x1="28.2966" y1="62.8846" x2="23.7596" y2="66.3432" gradientUnits="userSpaceOnUse">
<stop stop-color="#2DD1DB"/>
<stop offset="0.60721" stop-color="#2D9CDB"/>
<stop offset="1" stop-color="#1A8ED0"/>
</linearGradient>
<linearGradient id="paint13_linear_1340_12733" x1="64.8122" y1="65.6731" x2="61.935" y2="70.0595" gradientUnits="userSpaceOnUse">
<stop stop-color="#2DD1DB"/>
<stop offset="0.60721" stop-color="#2D9CDB"/>
<stop offset="1" stop-color="#1A8ED0"/>
</linearGradient>
<linearGradient id="paint14_linear_1340_12733" x1="57.3122" y1="65.6731" x2="54.435" y2="70.0595" gradientUnits="userSpaceOnUse">
<stop stop-color="#2DD1DB"/>
<stop offset="0.60721" stop-color="#2D9CDB"/>
<stop offset="1" stop-color="#1A8ED0"/>
</linearGradient>
<linearGradient id="paint15_linear_1340_12733" x1="49.8122" y1="65.6731" x2="46.935" y2="70.0595" gradientUnits="userSpaceOnUse">
<stop stop-color="#2DD1DB"/>
<stop offset="0.60721" stop-color="#2D9CDB"/>
<stop offset="1" stop-color="#1A8ED0"/>
</linearGradient>
<linearGradient id="paint16_linear_1340_12733" x1="42.3122" y1="65.6731" x2="39.435" y2="70.0595" gradientUnits="userSpaceOnUse">
<stop stop-color="#2DD1DB"/>
<stop offset="0.60721" stop-color="#2D9CDB"/>
<stop offset="1" stop-color="#1A8ED0"/>
</linearGradient>
<linearGradient id="paint17_linear_1340_12733" x1="34.8122" y1="65.6731" x2="31.935" y2="70.0595" gradientUnits="userSpaceOnUse">
<stop stop-color="#2DD1DB"/>
<stop offset="0.60721" stop-color="#2D9CDB"/>
<stop offset="1" stop-color="#1A8ED0"/>
</linearGradient>
<linearGradient id="paint18_linear_1340_12733" x1="72.0466" y1="62.8846" x2="67.5096" y2="66.3432" gradientUnits="userSpaceOnUse">
<stop stop-color="#2DD1DB"/>
<stop offset="0.60721" stop-color="#2D9CDB"/>
<stop offset="1" stop-color="#1A8ED0"/>
</linearGradient>
<linearGradient id="paint19_linear_1340_12733" x1="73.0311" y1="57.8846" x2="69.2303" y2="59.8161" gradientUnits="userSpaceOnUse">
<stop stop-color="#2DD1DB"/>
<stop offset="0.60721" stop-color="#2D9CDB"/>
<stop offset="1" stop-color="#1A8ED0"/>
</linearGradient>
<linearGradient id="paint20_linear_1340_12733" x1="4.77979" y1="30.4024" x2="-19.233" y2="51.778" gradientUnits="userSpaceOnUse">
<stop stop-color="#2DD1DB"/>
<stop offset="0.60721" stop-color="#2D9CDB"/>
<stop offset="1" stop-color="#1A8ED0"/>
</linearGradient>
</defs>
</svg>
