<svg width="50" height="50" viewBox="0 0 50 50" fill="none" xmlns="http://www.w3.org/2000/svg">
<path d="M22.7031 2.34375C21.8234 2.34375 21.0938 3.07344 21.0938 3.95312V40.625C21.0938 40.8322 21.1761 41.0309 21.3226 41.1774C21.4691 41.3239 21.6678 41.4062 21.875 41.4062H28.125C28.3322 41.4062 28.5309 41.3239 28.6774 41.1774C28.8239 41.0309 28.9062 40.8322 28.9062 40.625V3.95312C28.9062 3.07344 28.1766 2.34375 27.2969 2.34375H22.7031ZM22.7031 3.90625H27.2969C27.3328 3.90625 27.3438 3.91719 27.3438 3.95312V39.8438H22.6562V3.95312C22.6562 3.91719 22.6672 3.90625 22.7031 3.90625Z" fill="url(#paint0_linear_3378_30456)"/>
<path d="M21.875 8.59375V10.1562H28.125V8.59375H21.875ZM25 11.7188C24.7928 11.7188 24.5941 11.8011 24.4476 11.9476C24.3011 12.0941 24.2188 12.2928 24.2188 12.5V26.5625C24.2188 26.7697 24.3011 26.9684 24.4476 27.1149C24.5941 27.2614 24.7928 27.3438 25 27.3438C25.2072 27.3438 25.4059 27.2614 25.5524 27.1149C25.6989 26.9684 25.7812 26.7697 25.7812 26.5625V12.5C25.7812 12.2928 25.6989 12.0941 25.5524 11.9476C25.4059 11.8011 25.2072 11.7188 25 11.7188ZM25 30.4688C24.7928 30.4688 24.5941 30.5511 24.4476 30.6976C24.3011 30.8441 24.2188 31.0428 24.2188 31.25V40.625C24.2188 40.8322 24.3011 41.0309 24.4476 41.1774C24.5941 41.3239 24.7928 41.4062 25 41.4062C25.2072 41.4062 25.4059 41.3239 25.5524 41.1774C25.6989 41.0309 25.7812 40.8322 25.7812 40.625V31.25C25.7812 31.0428 25.6989 30.8441 25.5524 30.6976C25.4059 30.5511 25.2072 30.4688 25 30.4688Z" fill="url(#paint1_linear_3378_30456)"/>
<path d="M22.1221 39.8828C21.9261 39.8185 21.7127 39.8342 21.5283 39.9266C21.3429 40.0188 21.2018 40.1809 21.1359 40.3772C21.0699 40.5735 21.0846 40.788 21.1767 40.9734L24.3017 47.2234C24.3667 47.353 24.4664 47.462 24.5898 47.5381C24.7131 47.6143 24.8552 47.6546 25.0002 47.6546C25.1451 47.6546 25.2872 47.6143 25.4106 47.5381C25.5339 47.462 25.6337 47.353 25.6986 47.2234L28.8236 40.9734C28.9158 40.7882 28.9308 40.5739 28.8652 40.3776C28.7995 40.1813 28.6587 40.0191 28.4736 39.9266C28.2884 39.8343 28.0741 39.8194 27.8778 39.885C27.6815 39.9506 27.5193 40.0915 27.4267 40.2766L25.0002 45.1297L22.5736 40.2766C22.528 40.1844 22.4646 40.1022 22.3871 40.0347C22.3096 39.9671 22.2195 39.9155 22.1221 39.8828V39.8828ZM34.3752 2.34375C34.168 2.34375 33.9693 2.42606 33.8228 2.57257C33.6762 2.71909 33.5939 2.9178 33.5939 3.125V40.625C33.5939 40.8322 33.6762 41.0309 33.8228 41.1774C33.9693 41.3239 34.168 41.4062 34.3752 41.4062H40.6252C40.8324 41.4062 41.0311 41.3239 41.1776 41.1774C41.3241 41.0309 41.4064 40.8322 41.4064 40.625V3.125C41.4064 2.9178 41.3241 2.71909 41.1776 2.57257C41.0311 2.42606 40.8324 2.34375 40.6252 2.34375H34.3752ZM35.1564 3.90625H39.8439V39.8437H35.1564V3.90625Z" fill="url(#paint2_linear_3378_30456)"/>
<path d="M35.0734 40.2766L33.6766 40.9734L36.8016 47.2234C36.8665 47.353 36.9662 47.462 37.0896 47.5382C37.2129 47.6143 37.355 47.6546 37.5 47.6546C37.645 47.6546 37.7871 47.6143 37.9104 47.5382C38.0338 47.462 38.1335 47.353 38.1984 47.2234L41.3234 40.9734L39.9266 40.2766L37.5 45.1297L35.0734 40.2766ZM34.375 7.03125V8.59375H40.625V7.03125H34.375ZM21.875 11.7188V13.2813H28.125V11.7188H21.875Z" fill="url(#paint3_linear_3378_30456)"/>
<path d="M34.375 2.34375C34.1678 2.34375 33.9691 2.42606 33.8226 2.57257C33.6761 2.71909 33.5938 2.9178 33.5938 3.125V40.625C33.5938 40.8322 33.6761 41.0309 33.8226 41.1774C33.9691 41.3239 34.1678 41.4062 34.375 41.4062H40.625C40.8322 41.4062 41.0309 41.3239 41.1774 41.1774C41.3239 41.0309 41.4062 40.8322 41.4062 40.625V3.125C41.4062 2.9178 41.3239 2.71909 41.1774 2.57257C41.0309 2.42606 40.8322 2.34375 40.625 2.34375H34.375ZM35.1562 3.90625H39.8438V39.8438H35.1562V3.90625Z" fill="url(#paint4_linear_3378_30456)"/>
<path d="M35.0734 40.2766L33.6766 40.9734L36.8016 47.2234C36.8665 47.353 36.9662 47.462 37.0896 47.5382C37.2129 47.6143 37.355 47.6546 37.5 47.6546C37.645 47.6546 37.7871 47.6143 37.9104 47.5382C38.0338 47.462 38.1335 47.353 38.1984 47.2234L41.3234 40.9734L39.9266 40.2766L37.5 45.1297L35.0734 40.2766ZM34.375 7.03125V8.59375H40.625V7.03125H34.375ZM9.7875 7.03125C9.47166 7.0337 9.16944 7.16026 8.9461 7.3836C8.72276 7.60694 8.5962 7.90916 8.59375 8.225V40.625C8.59387 40.7791 8.63953 40.9296 8.725 41.0578L11.85 45.7453C11.9213 45.8523 12.018 45.94 12.1314 46.0007C12.2448 46.0614 12.3714 46.0931 12.5 46.0931C12.6286 46.0931 12.7552 46.0614 12.8686 46.0007C12.982 45.94 13.0787 45.8523 13.15 45.7453L16.275 41.0578C16.3605 40.9296 16.4061 40.7791 16.4062 40.625V8.225C16.4038 7.90916 16.2772 7.60694 16.0539 7.3836C15.8306 7.16026 15.5283 7.0337 15.2125 7.03125H9.7875ZM10.1562 8.59375H14.8437V40.3875L12.5 43.9031L10.1562 40.3875V8.59375Z" fill="url(#paint5_linear_3378_30456)"/>
<path d="M11.35 2.34375C11.0342 2.3462 10.7319 2.47276 10.5086 2.6961C10.2853 2.91944 10.1587 3.22166 10.1562 3.5375V7.8125H11.7187V3.90625H13.2812V7.8125H14.8437V3.5375C14.8413 3.22166 14.7147 2.91944 14.4914 2.6961C14.2681 2.47276 13.9658 2.3462 13.65 2.34375H11.35ZM9.375 22.6562V24.2188H15.625V22.6562H9.375ZM15.0719 8.82187C14.9991 8.89445 14.9414 8.98066 14.902 9.07557C14.8626 9.17049 14.8424 9.27224 14.8424 9.375C14.8424 9.47776 14.8626 9.57951 14.902 9.67443C14.9414 9.76934 14.9991 9.85555 15.0719 9.92813L17.9687 12.8234V20.3125C17.9687 20.5197 18.0511 20.7184 18.1976 20.8649C18.3441 21.0114 18.5428 21.0938 18.75 21.0938C18.9572 21.0938 19.1559 21.0114 19.3024 20.8649C19.4489 20.7184 19.5312 20.5197 19.5312 20.3125V12.5C19.5314 12.3973 19.5114 12.2956 19.4722 12.2007C19.4331 12.1058 19.3756 12.0196 19.3031 11.9469L16.1781 8.82187C16.1056 8.74912 16.0193 8.6914 15.9244 8.65201C15.8295 8.61263 15.7278 8.59235 15.625 8.59235C15.5222 8.59235 15.4205 8.61263 15.3256 8.65201C15.2307 8.6914 15.1444 8.74912 15.0719 8.82187V8.82187ZM12.5 44.5312C12.2928 44.5312 12.0941 44.6136 11.9476 44.7601C11.8011 44.9066 11.7187 45.1053 11.7187 45.3125V46.875C11.7187 47.0822 11.8011 47.2809 11.9476 47.4274C12.0941 47.5739 12.2928 47.6562 12.5 47.6562C12.7072 47.6562 12.9059 47.5739 13.0524 47.4274C13.1989 47.2809 13.2812 47.0822 13.2812 46.875V45.3125C13.2812 45.1053 13.1989 44.9066 13.0524 44.7601C12.9059 44.6136 12.7072 44.5312 12.5 44.5312ZM9.375 25.7812V27.3438H15.625V25.7812H9.375Z" fill="url(#paint6_linear_3378_30456)"/>
<defs>
<linearGradient id="paint0_linear_3378_30456" x1="22.7534" y1="-45.7332" x2="8.14813" y2="-43.5065" gradientUnits="userSpaceOnUse">
<stop stop-color="#2DD1DB"/>
<stop offset="0.60721" stop-color="#2D9CDB"/>
<stop offset="1" stop-color="#1A8ED0"/>
</linearGradient>
<linearGradient id="paint1_linear_3378_30456" x1="23.2027" y1="-31.7909" x2="11.4938" y2="-30.0908" gradientUnits="userSpaceOnUse">
<stop stop-color="#2DD1DB"/>
<stop offset="0.60721" stop-color="#2D9CDB"/>
<stop offset="1" stop-color="#1A8ED0"/>
</linearGradient>
<linearGradient id="paint2_linear_3378_30456" x1="25.41" y1="-53.4235" x2="-9.38148" y2="-41.535" gradientUnits="userSpaceOnUse">
<stop stop-color="#2DD1DB"/>
<stop offset="0.60721" stop-color="#2D9CDB"/>
<stop offset="1" stop-color="#1A8ED0"/>
</linearGradient>
<linearGradient id="paint3_linear_3378_30456" x1="26.0065" y1="-42.9668" x2="-6.82432" y2="-30.9853" gradientUnits="userSpaceOnUse">
<stop stop-color="#2DD1DB"/>
<stop offset="0.60721" stop-color="#2D9CDB"/>
<stop offset="1" stop-color="#1A8ED0"/>
</linearGradient>
<linearGradient id="paint4_linear_3378_30456" x1="35.2534" y1="-45.7332" x2="20.6481" y2="-43.5065" gradientUnits="userSpaceOnUse">
<stop stop-color="#2DD1DB"/>
<stop offset="0.60721" stop-color="#2D9CDB"/>
<stop offset="1" stop-color="#1A8ED0"/>
</linearGradient>
<linearGradient id="paint5_linear_3378_30456" x1="15.5467" y1="-42.9668" x2="-29.9148" y2="-15.0459" gradientUnits="userSpaceOnUse">
<stop stop-color="#2DD1DB"/>
<stop offset="0.60721" stop-color="#2D9CDB"/>
<stop offset="1" stop-color="#1A8ED0"/>
</linearGradient>
<linearGradient id="paint6_linear_3378_30456" x1="11.5325" y1="-53.4255" x2="-7.34456" y2="-50.2002" gradientUnits="userSpaceOnUse">
<stop stop-color="#2DD1DB"/>
<stop offset="0.60721" stop-color="#2D9CDB"/>
<stop offset="1" stop-color="#1A8ED0"/>
</linearGradient>
</defs>
</svg>
