<svg width="48" height="48" viewBox="0 0 48 48" fill="none" xmlns="http://www.w3.org/2000/svg">
<path d="M10.1325 10.1333L37.8658 37.8666M9.29139 9.29212C17.4143 1.16923 30.584 1.16923 38.7071 9.29212C46.8299 17.415 46.8299 30.5847 38.7071 38.7078C30.584 46.8307 17.4143 46.8307 9.29139 38.7078C1.16849 30.5847 1.16849 17.415 9.29139 9.29212Z" stroke="white" stroke-width="2" stroke-linecap="round"/>
<path fill-rule="evenodd" clip-rule="evenodd" d="M16.3984 16.1833L18.3784 14.2H29.0982L36.1984 21.3122V36.0166L34.2184 38H18.3784L16.3984 36.0166V16.1833ZM34.2184 22.1333L28.2784 16.1833H18.3784V36.0166H34.2184V22.1333Z" fill="white"/>
<path fill-rule="evenodd" clip-rule="evenodd" d="M14.1954 10L12.1992 11.9833V31.8167L14.1954 33.8V11.9833H26.9992L25.003 10H14.1954Z" fill="white"/>
</svg>
