<svg width="267" height="52" viewBox="0 0 267 52" fill="none" xmlns="http://www.w3.org/2000/svg">
<path opacity="0.3" d="M31.3727 26.872L30.7158 26.51L30.7102 26.5205L31.3727 26.872ZM26.0608 31.928L25.7114 31.2643L25.7066 31.2669L26.0608 31.928ZM9.48475 33.848V33.098H8.73475V33.848H9.48475ZM9.48475 51V51.75H10.2347V51H9.48475ZM0.52475 51H-0.22525V51.75H0.52475V51ZM0.52475 6.328V5.578H-0.22525V6.328H0.52475ZM25.8048 8.12L25.4741 8.79316L25.8048 8.12ZM31.2448 13.048L30.5935 13.4201L30.5993 13.43L31.2448 13.048ZM22.0928 24.952L22.6032 25.5017L22.6134 25.4919L22.0928 24.952ZM9.48475 13.624V12.874H8.73475V13.624H9.48475ZM9.48475 26.616H8.73475V27.366H9.48475V26.616ZM32.3507 20.152C32.3507 22.4149 31.8067 24.5303 30.7159 26.51L32.0296 27.234C33.2428 25.0323 33.8507 22.6678 33.8507 20.152H32.3507ZM30.7102 26.5205C29.6824 28.4575 28.0321 30.0429 25.7114 31.2643L26.4101 32.5917C28.9534 31.2531 30.8444 29.4678 32.0353 27.2235L30.7102 26.5205ZM25.7066 31.2669C23.4579 32.4716 20.5603 33.098 16.9727 33.098V34.598C20.7239 34.598 23.885 33.9444 26.4149 32.5891L25.7066 31.2669ZM16.9727 33.098H9.48475V34.598H16.9727V33.098ZM8.73475 33.848V51H10.2347V33.848H8.73475ZM9.48475 50.25H0.52475V51.75H9.48475V50.25ZM1.27475 51V6.328H-0.22525V51H1.27475ZM0.52475 7.078H16.9727V5.578H0.52475V7.078ZM16.9727 7.078C20.3447 7.078 23.1693 7.66101 25.4741 8.79316L26.1354 7.44683C23.5762 6.18966 20.5128 5.578 16.9727 5.578V7.078ZM25.4741 8.79316C27.789 9.93033 29.4824 11.4755 30.5936 13.4201L31.8959 12.6759C30.6178 10.4392 28.6845 8.699 26.1354 7.44683L25.4741 8.79316ZM30.5993 13.43C31.7622 15.3948 32.3507 17.6287 32.3507 20.152H33.8507C33.8507 17.3846 33.202 14.8825 31.8902 12.666L30.5993 13.43ZM16.5888 27.366C19.1573 27.366 21.2128 26.7926 22.6031 25.5016L21.5824 24.4024C20.5833 25.3301 18.9695 25.866 16.5888 25.866V27.366ZM22.6134 25.4919C23.9876 24.1667 24.6348 22.3528 24.6348 20.152H23.1348C23.1348 22.0472 22.5873 23.4333 21.5721 24.4121L22.6134 25.4919ZM24.6348 20.152C24.6348 17.8375 23.9842 15.9706 22.5608 14.6971C21.1534 13.4377 19.1171 12.874 16.5888 12.874V14.374C18.9244 14.374 20.5361 14.8983 21.5607 15.8149C22.5693 16.7174 23.1348 18.1145 23.1348 20.152H24.6348ZM16.5888 12.874H9.48475V14.374H16.5888V12.874ZM8.73475 13.624V26.616H10.2347V13.624H8.73475ZM9.48475 27.366H16.5888V25.866H9.48475V27.366ZM49.8302 49.336L49.4625 49.9897L49.4704 49.994L49.8302 49.336ZM43.3662 42.872L42.7101 43.2354L42.7145 43.243L43.3662 42.872ZM43.4302 23.672L42.7827 23.2935L42.7785 23.301L43.4302 23.672ZM50.0223 17.272L50.3778 17.9324L50.3856 17.9281L50.0223 17.272ZM68.5823 17.272L68.2188 17.9281L68.2267 17.9324L68.5823 17.272ZM75.1103 23.672L74.4584 24.043L74.4628 24.0505L75.1103 23.672ZM75.0462 42.872L74.4031 42.4861L74.3988 42.4935L75.0462 42.872ZM68.3903 49.336L68.7458 49.9964L68.7494 49.9944L68.3903 49.336ZM63.5902 42.616L63.9494 43.2745L63.9561 43.2707L63.5902 42.616ZM67.0462 39.032L67.706 39.3886L67.0462 39.032ZM65.6383 25.528L65.0954 26.0456L65.1016 26.052L65.1079 26.0583L65.6383 25.528ZM52.7103 25.528L52.1674 25.0104L52.1671 25.0108L52.7103 25.528ZM52.6462 41.08L52.0907 41.5839L52.0968 41.5906L52.1031 41.5972L52.6462 41.08ZM59.0462 50.826C55.7462 50.826 52.8 50.1053 50.1901 48.678L49.4704 49.994C52.3218 51.5534 55.5196 52.326 59.0462 52.326V50.826ZM50.1979 48.6823C47.5882 47.2143 45.5307 45.1584 44.018 42.501L42.7145 43.243C44.3591 46.1323 46.611 48.3857 49.4626 49.9897L50.1979 48.6823ZM44.0223 42.5086C42.5563 39.8616 41.8122 36.7901 41.8122 33.272H40.3122C40.3122 37.0073 41.1042 40.3357 42.7102 43.2354L44.0223 42.5086ZM41.8122 33.272C41.8122 29.7574 42.5761 26.6886 44.082 24.043L42.7785 23.301C41.1271 26.2021 40.3122 29.5333 40.3122 33.272H41.8122ZM44.0777 24.0505C45.631 21.3937 47.7284 19.359 50.3778 17.9324L49.6667 16.6116C46.7695 18.1717 44.4722 20.4037 42.7828 23.2935L44.0777 24.0505ZM50.3856 17.9281C53.0393 16.4584 56.006 15.718 59.3022 15.718V14.218C55.7718 14.218 52.5519 15.0136 49.6589 16.6159L50.3856 17.9281ZM59.3022 15.718C62.5985 15.718 65.5652 16.4584 68.2189 17.9281L68.9456 16.6159C66.0526 15.0136 62.8327 14.218 59.3022 14.218V15.718ZM68.2267 17.9324C70.8744 19.358 72.9485 21.3903 74.4585 24.043L75.7621 23.301C74.1147 20.407 71.8368 18.1726 68.9378 16.6116L68.2267 17.9324ZM74.4628 24.0505C76.0087 26.6948 76.7923 29.7609 76.7923 33.272H78.2923C78.2923 29.5298 77.4545 26.1959 75.7577 23.2935L74.4628 24.0505ZM76.7923 33.272C76.7923 36.7796 75.989 39.843 74.4031 42.4861L75.6894 43.2579C77.4315 40.3543 78.2923 37.0177 78.2923 33.272H76.7923ZM74.3988 42.4935C72.8462 45.1492 70.7271 47.207 68.0311 48.6776L68.7494 49.9944C71.6854 48.393 74.0036 46.1415 75.6937 43.2505L74.3988 42.4935ZM68.0347 48.6756C65.381 50.1046 62.3905 50.826 59.0462 50.826V52.326C62.614 52.326 65.8528 51.5541 68.7458 49.9964L68.0347 48.6756ZM59.0462 44.518C60.7916 44.518 62.43 44.1032 63.9494 43.2744L63.2311 41.9576C61.9345 42.6648 60.5435 43.018 59.0462 43.018V44.518ZM63.9561 43.2707C65.541 42.385 66.7906 41.0821 67.706 39.3886L66.3865 38.6754C65.5952 40.1392 64.5408 41.2256 63.2244 41.9613L63.9561 43.2707ZM67.706 39.3886C68.632 37.6755 69.0762 35.6261 69.0762 33.272H67.5762C67.5762 35.4406 67.1671 37.2311 66.3865 38.6754L67.706 39.3886ZM69.0762 33.272C69.0762 29.7703 68.1429 26.972 66.1686 24.9977L65.1079 26.0583C66.7176 27.668 67.5762 30.0324 67.5762 33.272H69.0762ZM66.1811 25.0104C64.2886 23.0257 61.9371 22.026 59.1742 22.026V23.526C61.5314 23.526 63.4892 24.361 65.0954 26.0456L66.1811 25.0104ZM59.1742 22.026C56.4114 22.026 54.0599 23.0257 52.1674 25.0104L53.2531 26.0456C54.8593 24.361 56.8171 23.526 59.1742 23.526V22.026ZM52.1671 25.0108C50.2857 26.9863 49.4002 29.7797 49.4002 33.272H50.9002C50.9002 30.023 51.7215 27.6537 53.2534 26.0452L52.1671 25.0108ZM49.4002 33.272C49.4002 36.761 50.2624 39.568 52.0907 41.5839L53.2018 40.5761C51.7021 38.9226 50.9002 36.5243 50.9002 33.272H49.4002ZM52.1031 41.5972C53.9568 43.5435 56.289 44.518 59.0462 44.518V43.018C56.6835 43.018 54.7491 42.2005 53.1894 40.5628L52.1031 41.5972ZM96.9147 3.64H97.6647V2.89H96.9147V3.64ZM96.9147 51V51.75H97.6647V51H96.9147ZM87.9548 51H87.2048V51.75H87.9548V51ZM87.9548 3.64V2.89H87.2048V3.64H87.9548ZM96.1647 3.64V51H97.6647V3.64H96.1647ZM96.9147 50.25H87.9548V51.75H96.9147V50.25ZM88.7048 51V3.64H87.2048V51H88.7048ZM87.9548 4.39H96.9147V2.89H87.9548V4.39ZM110.183 9.848L109.653 10.3783L109.664 10.3894L109.675 10.3999L110.183 9.848ZM110.183 2.36L110.702 2.90149L110.703 2.90104L110.183 2.36ZM118.055 2.36L117.525 2.89033L117.536 2.90137L117.547 2.91195L118.055 2.36ZM118.055 9.848L118.574 10.3895L118.575 10.389L118.055 9.848ZM118.567 15.544H119.317V14.794H118.567V15.544ZM118.567 51V51.75H119.317V51H118.567ZM109.607 51H108.857V51.75H109.607V51ZM109.607 15.544V14.794H108.857V15.544H109.607ZM114.151 10.57C112.742 10.57 111.606 10.1382 110.691 9.29605L109.675 10.3999C110.893 11.5205 112.403 12.07 114.151 12.07V10.57ZM110.714 9.31767C109.835 8.43915 109.397 7.37336 109.397 6.072H107.897C107.897 7.7573 108.483 9.20884 109.653 10.3783L110.714 9.31767ZM109.397 6.072C109.397 4.771 109.834 3.7332 110.702 2.90149L109.664 1.81851C108.484 2.94946 107.897 4.38633 107.897 6.072H109.397ZM110.703 2.90104C111.62 2.02079 112.752 1.574 114.151 1.574V0.0739975C112.393 0.0739975 110.88 0.651208 109.664 1.81896L110.703 2.90104ZM114.151 1.574C115.551 1.574 116.655 2.02035 117.525 2.89033L118.586 1.82967C117.408 0.651642 115.909 0.0739975 114.151 0.0739975V1.574ZM117.547 2.91195C118.455 3.74645 118.905 4.78122 118.905 6.072H120.405C120.405 4.37611 119.789 2.93621 118.563 1.80805L117.547 2.91195ZM118.905 6.072C118.905 7.36341 118.454 8.42597 117.536 9.30696L118.575 10.389C119.79 9.22202 120.405 7.76725 120.405 6.072H118.905ZM117.536 9.30651C116.668 10.1384 115.56 10.57 114.151 10.57V12.07C115.9 12.07 117.394 11.5202 118.574 10.3895L117.536 9.30651ZM117.817 15.544V51H119.317V15.544H117.817ZM118.567 50.25H109.607V51.75H118.567V50.25ZM110.357 51V15.544H108.857V51H110.357ZM109.607 16.294H118.567V14.794H109.607V16.294ZM131.196 23.672L131.854 24.0319L131.856 24.0276L131.196 23.672ZM137.404 17.272L137.772 17.9252L137.78 17.9206L137.404 17.272ZM157.372 18.296L156.912 18.8886L156.922 18.896L157.372 18.296ZM163.196 27.512V28.262H164.154L163.924 27.3319L163.196 27.512ZM153.532 27.512L152.82 27.7492L152.991 28.262H153.532V27.512ZM150.908 23.928L150.458 24.528L150.47 24.5369L150.482 24.5454L150.908 23.928ZM140.348 25.4L140.929 25.8735L140.935 25.8669L140.348 25.4ZM140.348 41.144L139.761 41.6109L139.766 41.6175L140.348 41.144ZM153.532 39.032V38.282H152.996L152.822 38.7892L153.532 39.032ZM163.196 39.032L163.922 39.2177L164.162 38.282H163.196V39.032ZM157.372 48.184L157.833 48.7755L157.372 48.184ZM137.404 49.336L137.027 49.9846L137.035 49.9891L137.404 49.336ZM131.196 42.936L130.535 43.2916L130.538 43.2959L131.196 42.936ZM129.706 33.272C129.706 29.7059 130.431 26.634 131.854 24.0319L130.538 23.3121C128.974 26.1714 128.206 29.4995 128.206 33.272H129.706ZM131.856 24.0276C133.285 21.3741 135.255 19.3461 137.772 17.9251L137.035 16.6189C134.262 18.1845 132.093 20.4232 130.535 23.3164L131.856 24.0276ZM137.78 17.9206C140.298 16.4585 143.195 15.718 146.492 15.718V14.218C142.962 14.218 139.8 15.0135 137.027 16.6234L137.78 17.9206ZM146.492 15.718C150.757 15.718 154.211 16.7924 156.912 18.8885L157.832 17.7035C154.815 15.3623 151.016 14.218 146.492 14.218V15.718ZM156.922 18.896C159.667 20.9551 161.522 23.8693 162.468 27.6921L163.924 27.3319C162.907 23.2187 160.879 19.9889 157.822 17.696L156.922 18.896ZM163.196 26.762H153.532V28.262H163.196V26.762ZM154.243 27.2748C153.684 25.5971 152.715 24.2636 151.334 23.3106L150.482 24.5454C151.575 25.2991 152.355 26.3549 152.82 27.7492L154.243 27.2748ZM151.358 23.328C150.009 22.3163 148.349 21.834 146.428 21.834V23.334C148.091 23.334 149.417 23.7477 150.458 24.528L151.358 23.328ZM146.428 21.834C143.657 21.834 141.407 22.8635 139.761 24.9331L140.935 25.8669C142.275 24.1818 144.079 23.334 146.428 23.334V21.834ZM139.766 24.9265C138.125 26.9431 137.358 29.7606 137.358 33.272H138.858C138.858 29.9567 139.584 27.5262 140.929 25.8735L139.766 24.9265ZM137.358 33.272C137.358 36.7448 138.126 39.5563 139.761 41.6109L140.935 40.6771C139.582 38.9771 138.858 36.5405 138.858 33.272H137.358ZM139.766 41.6175C141.415 43.6429 143.663 44.646 146.428 44.646V43.146C144.072 43.146 142.267 42.3144 140.929 40.6705L139.766 41.6175ZM146.428 44.646C148.352 44.646 150.009 44.215 151.347 43.2988C152.689 42.3802 153.645 41.0184 154.241 39.2748L152.822 38.7892C152.309 40.2882 151.526 41.3585 150.5 42.0612C149.47 42.7663 148.13 43.146 146.428 43.146V44.646ZM153.532 39.782H163.196V38.282H153.532V39.782ZM162.469 38.8463C161.526 42.5386 159.671 45.4414 156.911 47.5925L157.833 48.7755C160.876 46.404 162.903 43.2054 163.922 39.2177L162.469 38.8463ZM156.911 47.5925C154.164 49.7332 150.708 50.826 146.492 50.826V52.326C150.979 52.326 154.777 51.1575 157.833 48.7755L156.911 47.5925ZM146.492 50.826C143.191 50.826 140.292 50.1052 137.772 48.6829L137.035 49.9891C139.806 51.5535 142.965 52.326 146.492 52.326V50.826ZM137.78 48.6874C135.256 47.2214 133.283 45.1889 131.854 42.5761L130.538 43.2959C132.096 46.1444 134.261 48.3786 137.027 49.9846L137.78 48.6874ZM131.856 42.5804C130.431 39.9331 129.706 36.8378 129.706 33.272H128.206C128.206 37.0449 128.974 40.3922 130.535 43.2916L131.856 42.5804ZM174.176 9.848L173.645 10.3783L173.656 10.3894L173.668 10.3999L174.176 9.848ZM174.176 2.36L174.695 2.90149L174.695 2.90104L174.176 2.36ZM182.048 2.36L181.517 2.89033L181.528 2.90137L181.54 2.91195L182.048 2.36ZM182.048 9.848L182.567 10.3895L182.567 10.389L182.048 9.848ZM182.56 15.544H183.31V14.794H182.56V15.544ZM182.56 51V51.75H183.31V51H182.56ZM173.6 51H172.85V51.75H173.6V51ZM173.6 15.544V14.794H172.85V15.544H173.6ZM178.144 10.57C176.735 10.57 175.599 10.1382 174.684 9.29605L173.668 10.3999C174.886 11.5205 176.395 12.07 178.144 12.07V10.57ZM174.706 9.31767C173.828 8.43915 173.39 7.37336 173.39 6.072H171.89C171.89 7.7573 172.476 9.20884 173.645 10.3783L174.706 9.31767ZM173.39 6.072C173.39 4.771 173.827 3.7332 174.695 2.90149L173.657 1.81851C172.477 2.94946 171.89 4.38633 171.89 6.072H173.39ZM174.695 2.90104C175.612 2.02079 176.744 1.574 178.144 1.574V0.0739975C176.386 0.0739975 174.873 0.651208 173.656 1.81896L174.695 2.90104ZM178.144 1.574C179.543 1.574 180.647 2.02035 181.517 2.89033L182.578 1.82967C181.4 0.651642 179.902 0.0739975 178.144 0.0739975V1.574ZM181.54 2.91195C182.447 3.74645 182.898 4.78122 182.898 6.072H184.398C184.398 4.37611 183.782 2.93621 182.556 1.80805L181.54 2.91195ZM182.898 6.072C182.898 7.36341 182.446 8.42597 181.528 9.30696L182.567 10.389C183.783 9.22202 184.398 7.76725 184.398 6.072H182.898ZM181.529 9.30651C180.661 10.1384 179.553 10.57 178.144 10.57V12.07C179.892 12.07 181.387 11.5202 182.567 10.3895L181.529 9.30651ZM181.81 15.544V51H183.31V15.544H181.81ZM182.56 50.25H173.6V51.75H182.56V50.25ZM174.35 51V15.544H172.85V51H174.35ZM173.6 16.294H182.56V14.794H173.6V16.294ZM227.956 35.96V36.71H228.592L228.696 36.0833L227.956 35.96ZM202.036 35.96V35.21H201.221L201.289 36.0223L202.036 35.96ZM204.724 41.976L204.217 42.5282L204.724 41.976ZM217.652 39.864V39.114H217.186L216.979 39.5326L217.652 39.864ZM227.316 39.864L228.035 40.0795L228.324 39.114H227.316V39.864ZM221.428 48.312L221.878 48.912L221.884 48.9078L221.428 48.312ZM201.524 49.336L201.152 49.9873L201.164 49.994L201.524 49.336ZM195.188 42.872L194.528 43.2276L194.532 43.2354L195.188 42.872ZM195.188 23.608L194.528 23.2524L195.188 23.608ZM201.46 17.208L201.824 17.8636L201.46 17.208ZM219.764 17.144L219.404 17.8016L219.408 17.804L219.764 17.144ZM225.972 23.352L225.312 23.7082L225.316 23.7145L225.319 23.7207L225.972 23.352ZM218.932 29.944V30.694H219.696L219.682 29.9301L218.932 29.944ZM216.436 24.44L215.944 25.0063L215.953 25.0137L216.436 24.44ZM204.852 24.376L205.35 24.9374L205.351 24.9366L204.852 24.376ZM202.1 29.944L201.358 29.8379L201.235 30.694H202.1V29.944ZM227.462 32.504C227.462 33.7518 227.379 34.8615 227.216 35.8367L228.696 36.0833C228.875 35.0104 228.962 33.8162 228.962 32.504H227.462ZM227.956 35.21H202.036V36.71H227.956V35.21ZM201.289 36.0223C201.515 38.7306 202.473 40.9258 204.217 42.5282L205.232 41.4238C203.818 40.1249 202.985 38.3094 202.784 35.8977L201.289 36.0223ZM204.217 42.5282C205.945 44.1161 208.072 44.902 210.548 44.902V43.402C208.417 43.402 206.661 42.7372 205.232 41.4238L204.217 42.5282ZM210.548 44.902C212.321 44.902 213.885 44.5205 215.208 43.7221C216.532 42.9225 217.568 41.7334 218.325 40.1954L216.979 39.5326C216.329 40.8533 215.476 41.8081 214.433 42.4379C213.387 43.0688 212.104 43.402 210.548 43.402V44.902ZM217.652 40.614H227.316V39.114H217.652V40.614ZM226.598 39.6485C225.62 42.9066 223.752 45.5909 220.973 47.7162L221.884 48.9078C224.907 46.5957 226.964 43.6481 228.035 40.0795L226.598 39.6485ZM220.978 47.712C218.227 49.7752 214.83 50.826 210.74 50.826V52.326C215.099 52.326 218.827 51.2008 221.878 48.912L220.978 47.712ZM210.74 50.826C207.44 50.826 204.494 50.1053 201.884 48.678L201.164 49.994C204.016 51.5534 207.214 52.326 210.74 52.326V50.826ZM201.896 48.6848C199.331 47.2186 197.315 45.1649 195.844 42.5086L194.532 43.2354C196.133 46.1258 198.342 48.3814 201.152 49.9872L201.896 48.6848ZM195.849 42.5164C194.422 39.8679 193.698 36.7935 193.698 33.272H192.198C192.198 37.0038 192.967 40.3294 194.528 43.2276L195.849 42.5164ZM193.698 33.272C193.698 29.7062 194.423 26.6109 195.849 23.9636L194.528 23.2524C192.967 26.1518 192.198 29.4991 192.198 33.272H193.698ZM195.849 23.9636C197.276 21.3133 199.265 19.2855 201.824 17.8636L201.096 16.5524C198.279 18.1171 196.087 20.3561 194.528 23.2524L195.849 23.9636ZM201.824 17.8636C204.386 16.4403 207.351 15.718 210.74 15.718V14.218C207.132 14.218 203.91 14.989 201.096 16.5524L201.824 17.8636ZM210.74 15.718C214 15.718 216.881 16.4184 219.404 17.8016L220.125 16.4864C217.357 14.9683 214.222 14.218 210.74 14.218V15.718ZM219.408 17.804C221.967 19.1852 223.931 21.1489 225.312 23.7082L226.632 22.9958C225.112 20.1791 222.937 18.0041 220.12 16.484L219.408 17.804ZM225.319 23.7207C226.741 26.2388 227.462 29.1591 227.462 32.504H228.962C228.962 28.9369 228.191 25.7559 226.625 22.9833L225.319 23.7207ZM219.682 29.9301C219.636 27.431 218.722 25.3842 216.919 23.8663L215.953 25.0137C217.393 26.2265 218.143 27.849 218.182 29.9579L219.682 29.9301ZM216.928 23.8737C215.157 22.3359 212.994 21.578 210.484 21.578V23.078C212.668 23.078 214.473 23.7281 215.944 25.0063L216.928 23.8737ZM210.484 21.578C208.098 21.578 206.039 22.3179 204.354 23.8154L205.351 24.9366C206.738 23.7034 208.433 23.078 210.484 23.078V21.578ZM204.355 23.8146C202.702 25.2786 201.719 27.3111 201.358 29.8379L202.843 30.0501C203.164 27.7983 204.016 26.1187 205.35 24.9374L204.355 23.8146ZM202.1 30.694H218.932V29.194H202.1V30.694ZM244.352 50.04L244.037 50.7207L244.048 50.7254L244.352 50.04ZM238.848 45.752L238.245 46.1974L238.252 46.2065L238.848 45.752ZM236.672 39.8V39.05H235.877L235.924 39.844L236.672 39.8ZM245.696 39.8L246.44 39.707L246.358 39.05H245.696V39.8ZM247.68 43.192L247.22 43.7841L247.23 43.792L247.68 43.192ZM256.064 43.512L255.636 42.8963L255.629 42.9008L255.623 42.9054L256.064 43.512ZM255.744 38.328L255.399 38.9938L255.414 39.0014L255.428 39.0083L255.744 38.328ZM250.176 36.408L250.37 35.6833L250.361 35.6811L250.353 35.679L250.176 36.408ZM243.648 34.424L243.364 35.1179L243.37 35.1204L243.648 34.424ZM239.296 31.288L238.724 31.7733L238.733 31.7831L239.296 31.288ZM239.168 20.216L238.557 19.7815L238.549 19.7925L239.168 20.216ZM244.032 16.376L243.73 15.6895L243.725 15.6918L244.032 16.376ZM261.632 18.168L261.147 18.7402L261.153 18.745L261.632 18.168ZM265.792 26.68V27.43H266.598L266.54 26.6266L265.792 26.68ZM257.216 26.68L256.469 26.7479L256.531 27.43H257.216V26.68ZM255.424 23.352L254.944 23.9282L254.957 23.9389L254.97 23.9491L255.424 23.352ZM247.488 22.968L247.072 22.344L247.065 22.3487L247.058 22.3536L247.488 22.968ZM248 28.216L247.646 28.8771L247.655 28.8821L247.665 28.8868L248 28.216ZM253.568 30.072L253.383 30.7989L253.386 30.7996L253.568 30.072ZM264.192 35.256L263.613 35.7328L263.621 35.7421L263.629 35.7511L264.192 35.256ZM266.112 40.888H266.862L266.862 40.8744L266.112 40.888ZM264.384 46.392L263.773 45.9575L263.765 45.9685L264.384 46.392ZM259.52 50.232L259.816 50.9214L259.822 50.9185L259.52 50.232ZM252.16 50.826C249.348 50.826 246.852 50.3301 244.657 49.3546L244.048 50.7254C246.461 51.7979 249.17 52.326 252.16 52.326V50.826ZM244.667 49.3594C242.46 48.3374 240.727 46.9805 239.445 45.2975L238.252 46.2065C239.7 48.1075 241.637 49.6092 244.037 50.7206L244.667 49.3594ZM239.452 45.3066C238.213 43.6288 237.54 41.7836 237.421 39.756L235.924 39.844C236.06 42.1684 236.838 44.2912 238.245 46.1974L239.452 45.3066ZM236.672 40.55H245.696V39.05H236.672V40.55ZM244.952 39.893C245.149 41.4686 245.921 42.7741 247.22 43.784L248.141 42.6C247.135 41.8179 246.585 40.862 246.44 39.707L244.952 39.893ZM247.23 43.792C248.576 44.8013 250.213 45.286 252.096 45.286V43.786C250.48 43.786 249.174 43.3747 248.13 42.592L247.23 43.792ZM252.096 45.286C253.89 45.286 255.391 44.929 256.505 44.1186L255.623 42.9054C254.86 43.4603 253.716 43.786 252.096 43.786V45.286ZM256.493 44.1277C257.647 43.3245 258.286 42.2328 258.286 40.888H256.786C256.786 41.6766 256.444 42.3342 255.636 42.8963L256.493 44.1277ZM258.286 40.888C258.286 40.1752 258.099 39.5199 257.703 38.9539C257.311 38.3939 256.746 37.9662 256.06 37.6477L255.428 39.0083C255.937 39.2444 256.268 39.5207 256.474 39.8141C256.675 40.1014 256.786 40.4488 256.786 40.888H258.286ZM256.09 37.6622C254.861 37.0254 252.94 36.3687 250.37 35.6833L249.983 37.1327C252.533 37.8127 254.323 38.4359 255.399 38.9938L256.09 37.6622ZM250.353 35.679C247.727 35.0439 245.589 34.3923 243.927 33.7276L243.37 35.1204C245.121 35.821 247.335 36.4921 250 37.137L250.353 35.679ZM243.933 33.7301C242.38 33.0932 241.024 32.1178 239.86 30.7929L238.733 31.7831C240.043 33.2742 241.588 34.3895 243.364 35.1179L243.933 33.7301ZM239.868 30.8028C238.819 29.566 238.254 27.8568 238.254 25.592H236.754C236.754 28.1058 237.384 30.194 238.724 31.7732L239.868 30.8028ZM238.254 25.592C238.254 23.7806 238.763 22.1362 239.787 20.6395L238.549 19.7925C237.355 21.5384 236.754 23.478 236.754 25.592H238.254ZM239.78 20.6504C240.843 19.1536 242.352 17.9526 244.339 17.0602L243.725 15.6918C241.531 16.6767 239.797 18.0357 238.557 19.7816L239.78 20.6504ZM244.334 17.0625C246.353 16.1741 248.743 15.718 251.52 15.718V14.218C248.581 14.218 245.978 14.7006 243.73 15.6895L244.334 17.0625ZM251.52 15.718C255.618 15.718 258.8 16.7507 261.147 18.7402L262.117 17.5958C259.43 15.3186 255.871 14.218 251.52 14.218V15.718ZM261.153 18.745C263.497 20.6915 264.801 23.3312 265.044 26.7334L266.54 26.6266C266.271 22.8608 264.802 19.8258 262.111 17.591L261.153 18.745ZM265.792 25.93H257.216V27.43H265.792V25.93ZM257.963 26.6121C257.817 25.0074 257.123 23.7007 255.878 22.7549L254.97 23.9491C255.859 24.6246 256.359 25.5366 256.469 26.7479L257.963 26.6121ZM255.904 22.7758C254.708 21.7792 253.134 21.322 251.264 21.322V22.822C252.894 22.822 254.092 23.2182 254.944 23.9282L255.904 22.7758ZM251.264 21.322C249.565 21.322 248.139 21.6327 247.072 22.344L247.904 23.592C248.629 23.1086 249.721 22.822 251.264 22.822V21.322ZM247.058 22.3536C245.999 23.0952 245.458 24.1596 245.458 25.464H246.958C246.958 24.6351 247.271 24.0354 247.918 23.5824L247.058 22.3536ZM245.458 25.464C245.458 26.1928 245.643 26.8657 246.028 27.4573C246.41 28.0439 246.964 28.5116 247.646 28.8771L248.354 27.5549C247.842 27.2804 247.5 26.9694 247.285 26.6387C247.073 26.3129 246.958 25.9298 246.958 25.464H245.458ZM247.665 28.8868C248.934 29.5212 250.853 30.1556 253.383 30.7989L253.753 29.3451C251.249 28.7084 249.456 28.1054 248.336 27.5452L247.665 28.8868ZM253.386 30.7996C255.926 31.4345 258 32.0856 259.62 32.7499L260.189 31.3621C258.48 30.661 256.331 29.9895 253.75 29.3444L253.386 30.7996ZM259.62 32.7499C261.164 33.3834 262.494 34.3732 263.613 35.7328L264.771 34.7792C263.502 33.2375 261.973 32.0939 260.189 31.3621L259.62 32.7499ZM263.629 35.7511C264.722 36.9948 265.322 38.6863 265.362 40.9016L266.862 40.8744C266.817 38.3963 266.137 36.3332 264.756 34.7609L263.629 35.7511ZM265.362 40.888C265.362 42.7853 264.832 44.4671 263.773 45.9576L264.996 46.8264C266.241 45.0742 266.862 43.0867 266.862 40.888H265.362ZM263.765 45.9685C262.749 47.4543 261.248 48.6526 259.218 49.5455L259.822 50.9185C262.06 49.9341 263.801 48.5724 265.003 46.8155L263.765 45.9685ZM259.225 49.5426C257.247 50.3903 254.898 50.826 252.16 50.826V52.326C255.054 52.326 257.612 51.8657 259.816 50.9214L259.225 49.5426Z" fill="url(#paint0_linear_3131_23318)"/>
<defs>
<linearGradient id="paint0_linear_3131_23318" x1="54.8446" y1="-92.1539" x2="2.37697" y2="66.114" gradientUnits="userSpaceOnUse">
<stop stop-color="#2DD1DB"/>
<stop offset="0.60721" stop-color="#2D9CDB"/>
<stop offset="1" stop-color="#1A8ED0"/>
</linearGradient>
</defs>
</svg>
