<svg width="48" height="48" viewBox="0 0 48 48" fill="none" xmlns="http://www.w3.org/2000/svg">
<path d="M3.99982 13.5C3.99982 12.0413 4.57929 10.6424 5.61074 9.61091C6.64219 8.57946 8.04113 8 9.49982 8H38.4998C39.9585 8 41.3575 8.57946 42.3889 9.61091C43.4204 10.6424 43.9998 12.0413 43.9998 13.5V34.5C43.9998 35.2223 43.8576 35.9375 43.5812 36.6048C43.3048 37.2721 42.8996 37.8784 42.3889 38.3891C41.8782 38.8998 41.2719 39.3049 40.6046 39.5813C39.9373 39.8577 39.2221 40 38.4998 40H24.9498L20.8498 35.9C21.5858 34.426 21.9998 32.76 21.9998 31H30.4998C30.8976 31 31.2792 30.842 31.5605 30.5607C31.8418 30.2794 31.9998 29.8978 31.9998 29.5C31.9998 29.1022 31.8418 28.7206 31.5605 28.4393C31.2792 28.158 30.8976 28 30.4998 28H21.5858C21.2852 26.9369 20.8253 25.9254 20.2218 25H34.4998C34.8976 25 35.2792 24.842 35.5605 24.5607C35.8418 24.2794 35.9998 23.8978 35.9998 23.5C35.9998 23.1022 35.8418 22.7206 35.5605 22.4393C35.2792 22.158 34.8976 22 34.4998 22H17.3258C15.5358 20.74 13.3538 20 10.9998 20C8.33982 20 5.89982 20.944 3.99982 22.514V13.5ZM13.4998 16C13.102 16 12.7205 16.158 12.4392 16.4393C12.1579 16.7206 11.9998 17.1022 11.9998 17.5C11.9998 17.8978 12.1579 18.2794 12.4392 18.5607C12.7205 18.842 13.102 19 13.4998 19H26.4998C26.8976 19 27.2792 18.842 27.5605 18.5607C27.8418 18.2794 27.9998 17.8978 27.9998 17.5C27.9998 17.1022 27.8418 16.7206 27.5605 16.4393C27.2792 16.158 26.8976 16 26.4998 16H13.4998ZM10.9998 40C12.8688 40.0027 14.6919 39.4209 16.2138 38.336L21.4398 43.56C21.5771 43.7074 21.7427 43.8256 21.9267 43.9076C22.1107 43.9895 22.3094 44.0336 22.5108 44.0372C22.7122 44.0407 22.9122 44.0037 23.099 43.9282C23.2858 43.8528 23.4555 43.7405 23.5979 43.5981C23.7403 43.4556 23.8526 43.286 23.9281 43.0992C24.0035 42.9124 24.0406 42.7124 24.037 42.511C24.0335 42.3096 23.9894 42.1109 23.9074 41.9269C23.8254 41.7429 23.7072 41.5773 23.5598 41.44L18.3358 36.214C19.5047 34.5695 20.087 32.58 19.9895 30.5648C19.8919 28.5496 19.1201 26.6256 17.7979 25.1018C16.4756 23.5779 14.6797 22.5424 12.6984 22.1617C10.7171 21.781 8.66537 22.077 6.8725 23.0023C5.07963 23.9275 3.64965 25.4284 2.81212 27.2639C1.97459 29.0994 1.77808 31.1631 2.25414 33.1236C2.7302 35.0842 3.85122 36.828 5.43723 38.075C7.02325 39.322 8.98228 40 10.9998 40ZM10.9998 37C9.40852 37 7.8824 36.3679 6.75718 35.2426C5.63196 34.1174 4.99982 32.5913 4.99982 31C4.99982 29.4087 5.63196 27.8826 6.75718 26.7574C7.8824 25.6321 9.40852 25 10.9998 25C12.5911 25 14.1172 25.6321 15.2425 26.7574C16.3677 27.8826 16.9998 29.4087 16.9998 31C16.9998 32.5913 16.3677 34.1174 15.2425 35.2426C14.1172 36.3679 12.5911 37 10.9998 37Z" fill="white"/>
</svg>
