<svg width="120" height="120" viewBox="0 0 120 120" fill="none" xmlns="http://www.w3.org/2000/svg">
<path d="M100.677 27.3035C100.473 27.0737 100.223 26.887 99.9428 26.755C99.6625 26.6229 99.3576 26.5483 99.0467 26.5357C98.8184 26.5357 76.2592 25.6428 61.4572 13.6383C61.0476 13.3066 60.5325 13.125 60.0007 13.125C59.4689 13.125 58.9537 13.3066 58.5442 13.6383C43.7422 25.6741 21.1921 26.5357 20.9547 26.5357C20.645 26.5461 20.3407 26.618 20.0604 26.747C19.78 26.8761 19.5295 27.0596 19.324 27.2864C19.1186 27.5132 18.9625 27.7785 18.8653 28.0662C18.768 28.3539 18.7317 28.6579 18.7586 28.9598C18.7586 28.9598 20.8725 52.817 21.7719 62.692C22.6851 72.4198 24.3242 90.5136 59.0191 106.661C59.3262 106.802 59.6614 106.875 60.0007 106.875C60.34 106.875 60.6752 106.802 60.9823 106.661C95.6818 90.5136 97.3391 72.4198 98.2294 62.692C99.1426 52.817 101.243 28.9598 101.243 28.9598C101.267 28.6607 101.23 28.3599 101.132 28.0753C101.035 27.7907 100.88 27.5282 100.677 27.3035V27.3035ZM93.682 62.317C92.8784 71.0626 91.3991 87.2591 60.0007 102.183C28.6023 87.2591 27.1275 71.0626 26.3194 62.317C25.5889 54.2813 24.0365 37.0491 23.5069 30.8616C36.6029 29.893 49.199 25.5323 60.0007 18.2276C70.8024 25.5323 83.3985 29.893 96.4945 30.8616C95.9466 37.0491 94.4125 54.2947 93.682 62.317ZM56.7499 64.3037L68.3697 50.7366C68.7584 50.282 69.3158 49.9969 69.9195 49.9442C70.5231 49.8914 71.1235 50.0753 71.5885 50.4554C72.0535 50.8355 72.345 51.3806 72.3989 51.9708C72.4529 52.5611 72.2648 53.1481 71.8761 53.6027L58.4301 69.2947C58.2159 69.5461 57.9479 69.7484 57.6449 69.8873C57.3419 70.0262 57.0115 70.0982 56.6769 70.0983H56.6358C56.2941 70.0914 55.9584 70.0097 55.6533 69.859C55.3483 69.7083 55.0818 69.4926 54.8734 69.2278L48.075 60.6117C47.8805 60.3809 47.7354 60.1142 47.6483 59.8275C47.5612 59.5409 47.534 59.24 47.5681 58.9428C47.6023 58.6456 47.6971 58.3581 47.8471 58.0975C47.9971 57.8369 48.1991 57.6083 48.4412 57.4255C48.6832 57.2427 48.9604 57.1093 49.2562 57.0333C49.552 56.9572 49.8604 56.9401 50.1631 56.9828C50.4658 57.0256 50.7567 57.1274 51.0184 57.2822C51.2801 57.437 51.5073 57.6417 51.6865 57.884L56.7499 64.3037Z" fill="white"/>
</svg>
