<svg width="12" height="15" viewBox="0 0 12 15" fill="none" xmlns="http://www.w3.org/2000/svg">
<path d="M6.93125 8.85626C7.04071 8.78186 7.17521 8.7539 7.30525 8.7785C7.43529 8.80311 7.55028 8.87827 7.625 8.98751L10.5187 13.2188C10.5931 13.3282 10.6211 13.4627 10.5965 13.5928C10.5719 13.7228 10.4967 13.8378 10.3875 13.9125C10.3336 13.9502 10.2727 13.9767 10.2084 13.9905C10.1441 14.0043 10.0776 14.0051 10.013 13.9928C9.94838 13.9806 9.88685 13.9556 9.83203 13.9193C9.7772 13.8829 9.73019 13.836 9.69375 13.7813L6.8 9.55626C6.74128 9.47203 6.71066 9.37141 6.7125 9.26876C6.71265 9.18739 6.73265 9.10729 6.77077 9.03541C6.80889 8.96352 6.86398 8.90203 6.93125 8.85626ZM1.6125 13.9125C1.54484 13.8671 1.48945 13.8057 1.45128 13.7337C1.41311 13.6618 1.39335 13.5815 1.39375 13.5C1.39477 13.3997 1.42519 13.3019 1.48125 13.2188L5.39375 7.50001L3.575 4.84376C3.31208 4.94658 3.03231 4.99956 2.75 5.00001C2.23152 5.00164 1.7283 4.82465 1.325 4.49882C0.92169 4.17299 0.642908 3.7182 0.53555 3.21096C0.428192 2.70371 0.498809 2.17497 0.73552 1.71368C0.972232 1.25239 1.36059 0.886699 1.83527 0.678128C2.30995 0.469557 2.84198 0.430834 3.34186 0.568472C3.84173 0.70611 4.27896 1.01171 4.57997 1.43386C4.88098 1.85602 5.02742 2.36896 4.99464 2.8864C4.96186 3.40385 4.75187 3.89421 4.4 4.27501L6 6.61251L7.6 4.27501C7.21272 3.86187 6.99806 3.31628 7 2.75001C7.0001 2.26898 7.15435 1.80065 7.44013 1.41373C7.72591 1.0268 8.12817 0.74164 8.58789 0.60009C9.04762 0.458539 9.54061 0.468048 9.99453 0.62722C10.4485 0.786392 10.8394 1.08685 11.1101 1.48451C11.3807 1.88217 11.5168 2.3561 11.4983 2.83677C11.4799 3.31744 11.3079 3.77954 11.0075 4.15529C10.7072 4.53103 10.2944 4.80063 9.82958 4.92454C9.36479 5.04844 8.87252 5.02013 8.425 4.84376L2.30625 13.7813C2.26981 13.836 2.2228 13.8829 2.16797 13.9193C2.11315 13.9556 2.05161 13.9806 1.98699 13.9928C1.92236 14.0051 1.85594 14.0043 1.79164 13.9905C1.72733 13.9767 1.66642 13.9502 1.6125 13.9125ZM2.75 4.00001C2.91405 4.00035 3.07651 3.96791 3.22784 3.90458C3.37918 3.84126 3.51633 3.74833 3.63125 3.63126C3.74803 3.51613 3.84077 3.37893 3.90406 3.22764C3.96736 3.07636 3.99995 2.914 3.99995 2.75001C3.99995 2.58601 3.96736 2.42366 3.90406 2.27237C3.84077 2.12109 3.74803 1.98389 3.63125 1.86876C3.51612 1.75198 3.37892 1.65924 3.22764 1.59594C3.07635 1.53265 2.91399 1.50005 2.75 1.50005C2.58601 1.50005 2.42365 1.53265 2.27236 1.59594C2.12108 1.65924 1.98388 1.75198 1.86875 1.86876C1.75272 1.98432 1.66065 2.12165 1.59783 2.27288C1.53501 2.42411 1.50267 2.58625 1.50267 2.75001C1.50267 2.91376 1.53501 3.07591 1.59783 3.22714C1.66065 3.37837 1.75272 3.5157 1.86875 3.63126C1.98367 3.74833 2.12082 3.84126 2.27215 3.90458C2.42349 3.96791 2.58595 4.00035 2.75 4.00001ZM8.36875 3.63126C8.48388 3.74804 8.62108 3.84078 8.77236 3.90407C8.92365 3.96737 9.08601 3.99996 9.25 3.99996C9.41399 3.99996 9.57635 3.96737 9.72763 3.90407C9.87892 3.84078 10.0161 3.74804 10.1312 3.63126C10.248 3.51613 10.3408 3.37893 10.4041 3.22764C10.4674 3.07636 10.5 2.914 10.5 2.75001C10.5 2.58602 10.4674 2.42366 10.4041 2.27237C10.3408 2.12109 10.248 1.98389 10.1312 1.86876C10.0161 1.75198 9.87892 1.65924 9.72764 1.59594C9.57635 1.53265 9.41399 1.50005 9.25 1.50005C9.08601 1.50005 8.92365 1.53265 8.77236 1.59594C8.62108 1.65924 8.48388 1.75198 8.36875 1.86876C8.25272 1.98432 8.16065 2.12165 8.09783 2.27288C8.03501 2.42411 8.00267 2.58625 8.00267 2.75001C8.00267 2.91377 8.03501 3.07591 8.09783 3.22714C8.16065 3.37837 8.25272 3.5157 8.36875 3.63126Z" fill="#2D9CDB"/>
</svg>
