<svg width="120" height="120" viewBox="0 0 120 120" fill="none" xmlns="http://www.w3.org/2000/svg">
<path d="M105.282 30.7405L93.8394 26.1606L89.2614 14.7158L83.2705 20.7048C76.2314 16.5142 68.1921 14.3005 60 14.2969C34.8004 14.2969 14.2969 34.8004 14.2969 60C14.2969 85.1996 34.8004 105.703 60 105.703C85.1996 105.703 105.703 85.1996 105.703 60C105.703 51.7772 103.475 43.7735 99.2952 36.7295L105.282 30.7405ZM90.9067 29.0933L98.5049 32.1325L93.8165 36.819L86.2222 33.7778L83.1829 26.1816L87.8694 21.4932L90.9067 29.0933ZM101.895 60C101.895 83.101 83.101 101.895 60 101.895C36.899 101.895 18.1055 83.101 18.1055 60C18.1055 36.899 36.899 18.1055 60 18.1055C67.2135 18.1055 74.2537 19.9545 80.5036 23.4718L78.7116 25.2637L82.5202 34.7871L80.1227 37.1846C74.7507 32.4372 67.7162 29.5312 60 29.5312C43.2003 29.5312 29.5312 43.2003 29.5312 60C29.5312 76.7997 43.2003 90.4688 60 90.4688C76.7997 90.4688 90.4688 76.7997 90.4688 60C90.4688 52.2838 87.5628 45.2493 82.8173 39.8754L85.2148 37.4779L94.7382 41.2865L96.5301 39.4945C100.051 45.7549 101.899 52.8173 101.895 60ZM71.4258 60C71.4258 66.3013 66.3013 71.4258 60 71.4258C53.6987 71.4258 48.5742 66.3013 48.5742 60C48.5742 53.6987 53.6987 48.5742 60 48.5742C62.4642 48.5742 64.7417 49.3664 66.6098 50.6975L60.975 56.3323C60.6574 56.2437 60.3297 56.1963 60 56.1914C59.2467 56.1914 58.5104 56.4148 57.8841 56.8333C57.2577 57.2518 56.7696 57.8466 56.4813 58.5425C56.1931 59.2384 56.1176 60.0042 56.2646 60.743C56.4115 61.4818 56.7743 62.1604 57.3069 62.6931C57.8396 63.2257 58.5182 63.5885 59.257 63.7354C59.9958 63.8824 60.7616 63.8069 61.4575 63.5187C62.1534 63.2304 62.7482 62.7423 63.1667 62.1159C63.5852 61.4896 63.8086 60.7533 63.8086 60C63.8086 59.661 63.7496 59.3392 63.6677 59.025L69.3025 53.3902C70.6832 55.3176 71.4257 57.6291 71.4258 60ZM69.3272 47.9801C66.6641 45.8976 63.3807 44.766 60 44.7656C51.6001 44.7656 44.7656 51.6001 44.7656 60C44.7656 68.3999 51.6001 75.2344 60 75.2344C68.3999 75.2344 75.2344 68.3999 75.2344 60C75.234 56.6193 74.1024 53.3359 72.0199 50.6728L80.1265 42.5662C84.339 47.3973 86.6599 53.5902 86.6602 60C86.6602 74.7012 74.7012 86.6602 60 86.6602C45.2988 86.6602 33.3398 74.7012 33.3398 60C33.3398 45.2988 45.2988 33.3398 60 33.3398C66.665 33.3398 72.7531 35.8154 77.4319 39.8754L69.3272 47.9801Z" fill="white"/>
</svg>
