<svg width="700" height="52" viewBox="0 0 700 52" fill="none" xmlns="http://www.w3.org/2000/svg">
<path opacity="0.3" d="M32.8635 6.328H33.6135V5.578H32.8635V6.328ZM32.8635 13.56V14.31H33.6135V13.56H32.8635ZM20.9595 13.56V12.81H20.2095V13.56H20.9595ZM20.9595 51V51.75H21.7095V51H20.9595ZM11.9995 51H11.2495V51.75H11.9995V51ZM11.9995 13.56H12.7495V12.81H11.9995V13.56ZM0.095516 13.56H-0.654484V14.31H0.095516V13.56ZM0.095516 6.328V5.578H-0.654484V6.328H0.095516ZM32.1135 6.328V13.56H33.6135V6.328H32.1135ZM32.8635 12.81H20.9595V14.31H32.8635V12.81ZM20.2095 13.56V51H21.7095V13.56H20.2095ZM20.9595 50.25H11.9995V51.75H20.9595V50.25ZM12.7495 51V13.56H11.2495V51H12.7495ZM11.9995 12.81H0.095516V14.31H11.9995V12.81ZM0.845516 13.56V6.328H-0.654484V13.56H0.845516ZM0.095516 7.078H32.8635V5.578H0.095516V7.078ZM75.945 35.96V36.71H76.5804L76.6848 36.0833L75.945 35.96ZM50.025 35.96V35.21H49.2099L49.2776 36.0223L50.025 35.96ZM52.713 41.976L52.2055 42.5282L52.713 41.976ZM65.641 39.864V39.114H65.1744L64.9682 39.5326L65.641 39.864ZM75.305 39.864L76.0234 40.0795L76.313 39.114H75.305V39.864ZM69.417 48.312L69.867 48.912L69.8726 48.9078L69.417 48.312ZM49.513 49.336L49.1408 49.9873L49.1532 49.994L49.513 49.336ZM43.177 42.872L42.5166 43.2276L42.5209 43.2354L43.177 42.872ZM43.177 23.608L42.5167 23.2524L43.177 23.608ZM49.449 17.208L49.8132 17.8636L49.449 17.208ZM67.753 17.144L67.3924 17.8016L67.3968 17.804L67.753 17.144ZM73.961 23.352L73.301 23.7082L73.3044 23.7145L73.3079 23.7207L73.961 23.352ZM66.921 29.944V30.694H67.685L67.6709 29.9301L66.921 29.944ZM64.425 24.44L63.9332 25.0063L63.9419 25.0137L64.425 24.44ZM52.841 24.376L53.3383 24.9374L53.3393 24.9366L52.841 24.376ZM50.089 29.944L49.3466 29.8379L49.2243 30.694H50.089V29.944ZM75.451 32.504C75.451 33.7518 75.3678 34.8615 75.2052 35.8367L76.6848 36.0833C76.8636 35.0104 76.951 33.8162 76.951 32.504H75.451ZM75.945 35.21H50.025V36.71H75.945V35.21ZM49.2776 36.0223C49.5033 38.7306 50.4617 40.9258 52.2055 42.5282L53.2205 41.4238C51.807 40.1249 50.9734 38.3094 50.7724 35.8977L49.2776 36.0223ZM52.2055 42.5282C53.9335 44.1161 56.0604 44.902 58.537 44.902V43.402C56.4057 43.402 54.6499 42.7372 53.2205 41.4238L52.2055 42.5282ZM58.537 44.902C60.3097 44.902 61.8739 44.5205 63.1966 43.7221C64.5213 42.9225 65.5563 41.7334 66.3138 40.1954L64.9682 39.5326C64.3177 40.8533 63.4648 41.8081 62.4214 42.4379C61.3762 43.0688 60.0923 43.402 58.537 43.402V44.902ZM65.641 40.614H75.305V39.114H65.641V40.614ZM74.5866 39.6485C73.6092 42.9066 71.7407 45.5909 68.9614 47.7162L69.8726 48.9078C72.896 46.5957 74.9528 43.6481 76.0234 40.0795L74.5866 39.6485ZM68.967 47.712C66.2161 49.7752 62.8185 50.826 58.729 50.826V52.326C63.0876 52.326 66.8153 51.2008 69.867 48.912L68.967 47.712ZM58.729 50.826C55.429 50.826 52.4828 50.1053 49.8729 48.678L49.1532 49.994C52.0046 51.5534 55.2024 52.326 58.729 52.326V50.826ZM49.8851 48.6848C47.3193 47.2186 45.3043 45.1649 43.8331 42.5086L42.5209 43.2354C44.1218 46.1258 46.3307 48.3814 49.1409 49.9872L49.8851 48.6848ZM43.8374 42.5164C42.4112 39.8679 41.687 36.7935 41.687 33.272H40.187C40.187 37.0038 40.9561 40.3294 42.5167 43.2276L43.8374 42.5164ZM41.687 33.272C41.687 29.7062 42.4119 26.6109 43.8374 23.9636L42.5167 23.2524C40.9555 26.1518 40.187 29.4991 40.187 33.272H41.687ZM43.8374 23.9636C45.2645 21.3133 47.2538 19.2855 49.8132 17.8636L49.0848 16.5524C46.2682 18.1171 44.0762 20.3561 42.5167 23.2524L43.8374 23.9636ZM49.8132 17.8636C52.3752 16.4403 55.34 15.718 58.729 15.718V14.218C55.1207 14.218 51.8988 14.989 49.0848 16.5524L49.8132 17.8636ZM58.729 15.718C61.9887 15.718 64.8701 16.4184 67.3924 17.8016L68.1136 16.4864C65.3453 14.9683 62.2107 14.218 58.729 14.218V15.718ZM67.3968 17.804C69.9561 19.1852 71.9198 21.1489 73.301 23.7082L74.621 22.9958C73.1009 20.1791 70.9259 18.0041 68.1092 16.484L67.3968 17.804ZM73.3079 23.7207C74.7294 26.2388 75.451 29.1591 75.451 32.504H76.951C76.951 28.9369 76.1793 25.7559 74.6141 22.9833L73.3079 23.7207ZM67.6709 29.9301C67.6246 27.431 66.7106 25.3842 64.9081 23.8663L63.9419 25.0137C65.3821 26.2265 66.1321 27.849 66.1711 29.9579L67.6709 29.9301ZM64.9168 23.8737C63.146 22.3359 60.9823 21.578 58.473 21.578V23.078C60.6571 23.078 62.4614 23.7281 63.9333 25.0063L64.9168 23.8737ZM58.473 21.578C56.0865 21.578 54.0274 22.3179 52.3427 23.8154L53.3393 24.9366C54.7266 23.7034 56.4222 23.078 58.473 23.078V21.578ZM52.3437 23.8146C50.6908 25.2786 49.7075 27.3111 49.3466 29.8379L50.8315 30.0501C51.1532 27.7983 52.0046 26.1187 53.3383 24.9374L52.3437 23.8146ZM50.089 30.694H66.921V29.194H50.089V30.694ZM95.541 21.048H94.791V23.7042L96.1803 21.4403L95.541 21.048ZM100.021 16.632L99.6505 15.9799L99.6441 15.9836L100.021 16.632ZM106.421 15.032H107.171V14.282H106.421V15.032ZM106.421 24.44V25.19H107.171V24.44H106.421ZM97.653 26.424L97.1476 25.8697L97.1395 25.8774L97.653 26.424ZM95.541 51V51.75H96.291V51H95.541ZM86.581 51H85.831V51.75H86.581V51ZM86.581 15.544V14.794H85.831V15.544H86.581ZM95.541 15.544H96.291V14.794H95.541V15.544ZM96.1803 21.4403C97.2699 19.6645 98.6747 18.2823 100.398 17.2804L99.6441 15.9836C97.698 17.1151 96.1161 18.6768 94.9018 20.6557L96.1803 21.4403ZM100.392 17.2841C102.144 16.2883 104.147 15.782 106.421 15.782V14.282C103.916 14.282 101.653 14.8424 99.6505 15.9799L100.392 17.2841ZM105.671 15.032V24.44H107.171V15.032H105.671ZM106.421 23.69H104.053V25.19H106.421V23.69ZM104.053 23.69C101.131 23.69 98.7863 24.3758 97.1477 25.8698L98.1583 26.9782C99.4211 25.8269 101.343 25.19 104.053 25.19V23.69ZM97.1395 25.8774C95.5035 27.4142 94.791 29.9809 94.791 33.336H96.291C96.291 30.1205 96.9865 28.0791 98.1665 26.9706L97.1395 25.8774ZM94.791 33.336V51H96.291V33.336H94.791ZM95.541 50.25H86.581V51.75H95.541V50.25ZM87.331 51V15.544H85.831V51H87.331ZM86.581 16.294H95.541V14.794H86.581V16.294ZM94.791 15.544V21.048H96.291V15.544H94.791ZM170.824 19.064L170.289 19.5901L170.298 19.5986L170.824 19.064ZM174.856 51V51.75H175.606V51H174.856ZM165.896 51H165.146V51.75H165.896V51ZM163.784 25.08L163.238 25.5946L163.246 25.6024L163.784 25.08ZM152.2 25.08L151.662 24.5574L151.662 24.5576L152.2 25.08ZM150.088 51V51.75H150.838V51H150.088ZM141.128 51H140.378V51.75H141.128V51ZM139.016 25.08L138.47 25.5946L138.478 25.6024L139.016 25.08ZM127.368 25.08L126.83 24.5574L126.83 24.5576L127.368 25.08ZM125.256 51V51.75H126.006V51H125.256ZM116.296 51H115.546V51.75H116.296V51ZM116.296 15.544V14.794H115.546V15.544H116.296ZM125.256 15.544H126.006V14.794H125.256V15.544ZM125.256 19.832H124.506V22.0321L125.85 20.2901L125.256 19.832ZM129.672 16.312L129.356 15.6319L129.35 15.6349L129.672 16.312ZM143.112 16.824L142.751 17.4815L142.761 17.4868L143.112 16.824ZM148.168 21.816L147.511 22.1769L148.16 23.3599L148.822 22.1837L148.168 21.816ZM153.16 16.888L152.795 16.233L152.789 16.236L153.16 16.888ZM160.328 15.782C164.513 15.782 167.807 17.0676 170.289 19.5901L171.359 18.5379C168.55 15.6844 164.847 14.282 160.328 14.282V15.782ZM170.298 19.5986C172.807 22.0676 174.106 25.5657 174.106 30.2H175.606C175.606 25.2769 174.217 21.351 171.35 18.5294L170.298 19.5986ZM174.106 30.2V51H175.606V30.2H174.106ZM174.856 50.25H165.896V51.75H174.856V50.25ZM166.646 51V31.416H165.146V51H166.646ZM166.646 31.416C166.646 28.5215 165.91 26.1935 164.322 24.5576L163.246 25.6024C164.474 26.8678 165.146 28.7639 165.146 31.416H166.646ZM164.33 24.5655C162.754 22.8942 160.621 22.09 158.024 22.09V23.59C160.291 23.59 161.998 24.2792 163.238 25.5945L164.33 24.5655ZM158.024 22.09C155.426 22.09 153.278 22.8942 151.662 24.5574L152.738 25.6026C154.024 24.2792 155.758 23.59 158.024 23.59V22.09ZM151.662 24.5576C150.074 26.1935 149.338 28.5215 149.338 31.416H150.838C150.838 28.7639 151.51 26.8678 152.738 25.6024L151.662 24.5576ZM149.338 31.416V51H150.838V31.416H149.338ZM150.088 50.25H141.128V51.75H150.088V50.25ZM141.878 51V31.416H140.378V51H141.878ZM141.878 31.416C141.878 28.5215 141.142 26.1935 139.554 24.5576L138.478 25.6024C139.706 26.8678 140.378 28.7639 140.378 31.416H141.878ZM139.562 24.5655C137.986 22.8942 135.853 22.09 133.256 22.09V23.59C135.523 23.59 137.23 24.2792 138.47 25.5945L139.562 24.5655ZM133.256 22.09C130.62 22.09 128.448 22.8916 126.83 24.5574L127.906 25.6026C129.189 24.2818 130.943 23.59 133.256 23.59V22.09ZM126.83 24.5576C125.242 26.1935 124.506 28.5215 124.506 31.416H126.006C126.006 28.7639 126.678 26.8678 127.906 25.6024L126.83 24.5576ZM124.506 31.416V51H126.006V31.416H124.506ZM125.256 50.25H116.296V51.75H125.256V50.25ZM117.046 51V15.544H115.546V51H117.046ZM116.296 16.294H125.256V14.794H116.296V16.294ZM124.506 15.544V19.832H126.006V15.544H124.506ZM125.85 20.2901C126.926 18.895 128.303 17.7945 129.994 16.9891L129.35 15.6349C127.457 16.5361 125.89 17.7823 124.662 19.3739L125.85 20.2901ZM129.988 16.992C131.717 16.1882 133.613 15.782 135.688 15.782V14.282C133.411 14.282 131.297 14.7291 129.356 15.632L129.988 16.992ZM135.688 15.782C138.35 15.782 140.698 16.3544 142.751 17.4814L143.473 16.1666C141.174 14.9043 138.572 14.282 135.688 14.282V15.782ZM142.761 17.4868C144.807 18.5697 146.386 20.1282 147.511 22.1769L148.825 21.4551C147.561 19.1518 145.77 17.3823 143.463 16.1612L142.761 17.4868ZM148.822 22.1837C149.903 20.2622 151.465 18.7146 153.531 17.54L152.789 16.236C150.503 17.5361 148.737 19.2738 147.514 21.4483L148.822 22.1837ZM153.525 17.543C155.631 16.3685 157.895 15.782 160.328 15.782V14.282C157.641 14.282 155.126 14.9329 152.795 16.233L153.525 17.543ZM192.959 50.04L192.643 50.7207L192.654 50.7254L192.959 50.04ZM187.455 45.752L186.851 46.1974L186.858 46.2065L187.455 45.752ZM185.279 39.8V39.05H184.483L184.53 39.844L185.279 39.8ZM194.303 39.8L195.047 39.707L194.965 39.05H194.303V39.8ZM196.287 43.192L195.826 43.7841L195.837 43.792L196.287 43.192ZM204.671 43.512L204.242 42.8963L204.236 42.9008L204.229 42.9054L204.671 43.512ZM204.351 38.328L204.005 38.9938L204.02 39.0014L204.035 39.0083L204.351 38.328ZM198.783 36.408L198.976 35.6833L198.967 35.6811L198.959 35.679L198.783 36.408ZM192.255 34.424L191.97 35.1179L191.976 35.1204L192.255 34.424ZM187.903 31.288L187.331 31.7733L187.339 31.7831L187.903 31.288ZM187.775 20.216L187.163 19.7815L187.156 19.7925L187.775 20.216ZM192.639 16.376L192.336 15.6895L192.331 15.6918L192.639 16.376ZM210.239 18.168L209.754 18.7402L209.759 18.745L210.239 18.168ZM214.399 26.68V27.43H215.204L215.147 26.6266L214.399 26.68ZM205.823 26.68L205.076 26.7479L205.138 27.43H205.823V26.68ZM204.031 23.352L203.55 23.9282L203.563 23.9389L203.577 23.9491L204.031 23.352ZM196.095 22.968L195.678 22.344L195.671 22.3487L195.664 22.3536L196.095 22.968ZM196.607 28.216L196.252 28.8771L196.262 28.8821L196.271 28.8868L196.607 28.216ZM202.175 30.072L201.99 30.7989L201.993 30.7996L202.175 30.072ZM212.799 35.256L212.22 35.7328L212.227 35.7421L212.235 35.7511L212.799 35.256ZM214.719 40.888H215.469L215.468 40.8744L214.719 40.888ZM212.991 46.392L212.379 45.9575L212.372 45.9685L212.991 46.392ZM208.127 50.232L208.422 50.9214L208.429 50.9185L208.127 50.232ZM200.767 50.826C197.954 50.826 195.458 50.3301 193.263 49.3546L192.654 50.7254C195.067 51.7979 197.776 52.326 200.767 52.326V50.826ZM193.274 49.3594C191.066 48.3374 189.333 46.9805 188.051 45.2975L186.858 46.2065C188.306 48.1075 190.243 49.6092 192.643 50.7206L193.274 49.3594ZM188.058 45.3066C186.82 43.6288 186.146 41.7836 186.027 39.756L184.53 39.844C184.667 42.1684 185.444 44.2912 186.851 46.1974L188.058 45.3066ZM185.279 40.55H194.303V39.05H185.279V40.55ZM193.558 39.893C193.755 41.4686 194.528 42.7741 195.826 43.784L196.747 42.6C195.741 41.8179 195.191 40.862 195.047 39.707L193.558 39.893ZM195.837 43.792C197.182 44.8013 198.82 45.286 200.703 45.286V43.786C199.087 43.786 197.78 43.3747 196.737 42.592L195.837 43.792ZM200.703 45.286C202.497 45.286 203.997 44.929 205.112 44.1186L204.229 42.9054C203.466 43.4603 202.322 43.786 200.703 43.786V45.286ZM205.099 44.1277C206.253 43.3245 206.893 42.2328 206.893 40.888H205.393C205.393 41.6766 205.05 42.3342 204.242 42.8963L205.099 44.1277ZM206.893 40.888C206.893 40.1752 206.705 39.5199 206.309 38.9539C205.917 38.3939 205.352 37.9662 204.666 37.6477L204.035 39.0083C204.543 39.2444 204.875 39.5207 205.08 39.8141C205.281 40.1014 205.393 40.4488 205.393 40.888H206.893ZM204.696 37.6622C203.468 37.0254 201.546 36.3687 198.976 35.6833L198.589 37.1327C201.139 37.8127 202.929 38.4359 204.005 38.9938L204.696 37.6622ZM198.959 35.679C196.333 35.0439 194.195 34.3923 192.533 33.7276L191.976 35.1204C193.728 35.821 195.941 36.4921 198.606 37.137L198.959 35.679ZM192.539 33.7301C190.987 33.0932 189.63 32.1178 188.466 30.7929L187.339 31.7831C188.649 33.2742 190.194 34.3895 191.97 35.1179L192.539 33.7301ZM188.474 30.8028C187.425 29.566 186.861 27.8568 186.861 25.592H185.361C185.361 28.1058 185.991 30.194 187.331 31.7732L188.474 30.8028ZM186.861 25.592C186.861 23.7806 187.369 22.1362 188.393 20.6395L187.156 19.7925C185.961 21.5384 185.361 23.478 185.361 25.592H186.861ZM188.386 20.6504C189.449 19.1536 190.958 17.9526 192.946 17.0602L192.331 15.6918C190.138 16.6767 188.404 18.0357 187.163 19.7816L188.386 20.6504ZM192.941 17.0625C194.96 16.1741 197.349 15.718 200.127 15.718V14.218C197.187 14.218 194.584 14.7006 192.336 15.6895L192.941 17.0625ZM200.127 15.718C204.224 15.718 207.406 16.7507 209.754 18.7402L210.723 17.5958C208.036 15.3186 204.477 14.218 200.127 14.218V15.718ZM209.759 18.745C212.103 20.6915 213.407 23.3312 213.65 26.7334L215.147 26.6266C214.878 22.8608 213.409 19.8258 210.718 17.591L209.759 18.745ZM214.399 25.93H205.823V27.43H214.399V25.93ZM206.569 26.6121C206.424 25.0074 205.729 23.7007 204.484 22.7549L203.577 23.9491C204.466 24.6246 204.965 25.5366 205.076 26.7479L206.569 26.6121ZM204.511 22.7758C203.315 21.7792 201.74 21.322 199.871 21.322V22.822C201.5 22.822 202.698 23.2182 203.55 23.9282L204.511 22.7758ZM199.871 21.322C198.171 21.322 196.745 21.6327 195.678 22.344L196.511 23.592C197.236 23.1086 198.327 22.822 199.871 22.822V21.322ZM195.664 22.3536C194.605 23.0952 194.065 24.1596 194.065 25.464H195.565C195.565 24.6351 195.877 24.0354 196.525 23.5824L195.664 22.3536ZM194.065 25.464C194.065 26.1928 194.249 26.8657 194.634 27.4573C195.016 28.0439 195.57 28.5116 196.252 28.8771L196.961 27.5549C196.448 27.2804 196.106 26.9694 195.891 26.6387C195.679 26.3129 195.565 25.9298 195.565 25.464H194.065ZM196.271 28.8868C197.54 29.5212 199.459 30.1556 201.99 30.7989L202.359 29.3451C199.855 28.7084 198.062 28.1054 196.942 27.5452L196.271 28.8868ZM201.993 30.7996C204.532 31.4345 206.607 32.0856 208.226 32.7499L208.795 31.3621C207.086 30.661 204.937 29.9895 202.356 29.3444L201.993 30.7996ZM208.226 32.7499C209.77 33.3834 211.1 34.3732 212.22 35.7328L213.377 34.7792C212.108 33.2375 210.579 32.0939 208.795 31.3621L208.226 32.7499ZM212.235 35.7511C213.328 36.9948 213.928 38.6863 213.969 40.9016L215.468 40.8744C215.423 38.3963 214.744 36.3332 213.362 34.7609L212.235 35.7511ZM213.969 40.888C213.969 42.7853 213.438 44.4671 212.379 45.9576L213.602 46.8264C214.847 45.0742 215.469 43.0867 215.469 40.888H213.969ZM212.372 45.9685C211.355 47.4543 209.854 48.6526 207.824 49.5455L208.429 50.9185C210.666 49.9341 212.407 48.5724 213.609 46.8155L212.372 45.9685ZM207.831 49.5426C205.853 50.3903 203.504 50.826 200.767 50.826V52.326C203.661 52.326 206.219 51.8657 208.422 50.9214L207.831 49.5426ZM279.372 51L278.845 51.5338L279.064 51.75H279.372V51ZM274.508 46.2L275.034 45.6662L274.532 45.1705L274.007 45.6417L274.508 46.2ZM250.636 50.104L250.319 50.7839L250.326 50.7872L250.333 50.7903L250.636 50.104ZM244.876 45.304L244.248 45.7141L244.251 45.72L244.876 45.304ZM245.324 30.136L245.935 30.5698L245.324 30.136ZM252.684 24.44L252.99 25.1246L253.885 24.7241L253.264 23.9651L252.684 24.44ZM250.188 20.408L249.488 20.6788L249.491 20.6865L250.188 20.408ZM251.02 10.68L251.646 11.0922L251.651 11.0847L251.02 10.68ZM255.564 6.776L255.246 6.09671L255.24 6.0994L255.564 6.776ZM269.452 6.904L269.099 7.56576V7.56576L269.452 6.904ZM273.74 11L273.082 11.3614L273.74 11ZM274.956 16.696V17.446H275.661L275.704 16.7418L274.956 16.696ZM266.252 16.696L265.502 16.6733L265.478 17.446H266.252V16.696ZM265.228 13.496L264.682 14.011L264.69 14.0188L264.697 14.0263L265.228 13.496ZM259.276 13.432L259.774 13.9926L259.776 13.9909L259.276 13.432ZM259.083 19.32L258.44 19.7059L258.448 19.7175L259.083 19.32ZM262.22 23.16L261.674 23.675L261.683 23.6843L261.692 23.6933L262.22 23.16ZM273.484 34.296L272.956 34.8293L273.487 35.3536L274.014 34.8263L273.484 34.296ZM273.804 33.784L273.16 33.3981L273.146 33.4228L273.133 33.4486L273.804 33.784ZM277.452 27.704V26.954H277.027L276.808 27.3181L277.452 27.704ZM286.796 27.704L287.447 28.075L288.085 26.954H286.796V27.704ZM282.316 35.576L281.664 35.205L281.656 35.2192L281.648 35.2338L282.316 35.576ZM279.564 40.312L278.937 39.9001L278.599 40.4136L279.036 40.8455L279.564 40.312ZM290.38 51V51.75H292.206L290.907 50.4665L290.38 51ZM268.876 40.632L269.383 41.1838L269.962 40.6513L269.403 40.0986L268.876 40.632ZM257.868 29.752L258.395 29.2186L258.031 28.8591L257.564 29.0663L257.868 29.752ZM253.836 42.424L253.33 42.9783L253.339 42.9864L253.836 42.424ZM279.898 50.4662L275.034 45.6662L273.981 46.7338L278.845 51.5338L279.898 50.4662ZM274.007 45.6417C270.016 49.2206 265.143 51.018 259.34 51.018V52.518C265.483 52.518 270.721 50.6034 275.008 46.7583L274.007 45.6417ZM259.34 51.018C256.138 51.018 253.343 50.4777 250.938 49.4177L250.333 50.7903C252.962 51.949 255.97 52.518 259.34 52.518V51.018ZM250.952 49.4241C248.588 48.3236 246.78 46.8092 245.5 44.888L244.251 45.72C245.701 47.8948 247.734 49.5804 250.319 50.7839L250.952 49.4241ZM245.503 44.8939C244.225 42.9365 243.578 40.6712 243.578 38.072H242.078C242.078 40.9341 242.795 43.4901 244.248 45.7141L245.503 44.8939ZM243.578 38.072C243.578 35.2795 244.363 32.7866 245.935 30.5698L244.712 29.7022C242.956 32.1788 242.078 34.9764 242.078 38.072H243.578ZM245.935 30.5698C247.505 28.3556 249.841 26.5333 252.99 25.1246L252.377 23.7554C249.041 25.248 246.47 27.2231 244.712 29.7022L245.935 30.5698ZM253.264 23.9651C252.146 22.5985 251.36 21.3199 250.884 20.1295L249.491 20.6865C250.039 22.0561 250.917 23.4655 252.103 24.9149L253.264 23.9651ZM250.887 20.1373C250.41 18.9054 250.17 17.5897 250.17 16.184H248.67C248.67 17.765 248.941 19.2652 249.488 20.6787L250.887 20.1373ZM250.17 16.184C250.17 14.274 250.664 12.5842 251.646 11.0922L250.393 10.2678C249.241 12.0184 248.67 13.998 248.67 16.184H250.17ZM251.651 11.0847C252.635 9.5499 254.037 8.33732 255.887 7.4526L255.24 6.0994C253.164 7.09201 251.538 8.4821 250.388 10.2752L251.651 11.0847ZM255.881 7.45527C257.77 6.57137 259.983 6.118 262.54 6.118V4.618C259.805 4.618 257.368 5.10329 255.246 6.09673L255.881 7.45527ZM262.54 6.118C265.133 6.118 267.31 6.61178 269.099 7.56576L269.804 6.24224C267.753 5.14821 265.322 4.618 262.54 4.618V6.118ZM269.099 7.56576C270.906 8.52959 272.222 9.7969 273.082 11.3614L274.397 10.6386C273.38 8.78977 271.837 7.32641 269.804 6.24223L269.099 7.56576ZM273.082 11.3614C273.947 12.9343 274.327 14.69 274.207 16.6502L275.704 16.7418C275.84 14.5206 275.409 12.479 274.397 10.6386L273.082 11.3614ZM274.956 15.946H266.252V17.446H274.956V15.946ZM267.001 16.7187C267.048 15.1836 266.678 13.8854 265.758 12.9657L264.697 14.0263C265.228 14.5573 265.541 15.3924 265.502 16.6733L267.001 16.7187ZM265.773 12.981C264.881 12.0372 263.689 11.594 262.284 11.594V13.094C263.353 13.094 264.123 13.4188 264.682 14.011L265.773 12.981ZM262.284 11.594C260.924 11.594 259.738 12.0122 258.775 12.8731L259.776 13.9909C260.435 13.4011 261.254 13.094 262.284 13.094V11.594ZM258.777 12.8714C257.835 13.7087 257.374 14.8156 257.374 16.12H258.874C258.874 15.2057 259.18 14.5206 259.774 13.9926L258.777 12.8714ZM257.374 16.12C257.374 17.3438 257.742 18.5423 258.44 19.7059L259.727 18.9341C259.145 17.9644 258.874 17.0295 258.874 16.12H257.374ZM258.448 19.7175C259.126 20.8035 260.211 22.1254 261.674 23.675L262.765 22.645C261.327 21.1226 260.321 19.8845 259.72 18.9225L258.448 19.7175ZM261.692 23.6933L272.956 34.8293L274.011 33.7626L262.747 22.6266L261.692 23.6933ZM274.014 34.8263C274.142 34.6984 274.26 34.549 274.346 34.3754L273.005 33.7046C273.006 33.7016 272.996 33.7229 272.953 33.7657L274.014 34.8263ZM274.346 34.3754C274.389 34.2901 274.432 34.2048 274.474 34.1194L273.133 33.4486C273.09 33.5339 273.047 33.6193 273.005 33.7046L274.346 34.3754ZM274.447 34.1699L278.095 28.0899L276.808 27.3181L273.16 33.3981L274.447 34.1699ZM277.452 28.454H286.796V26.954H277.452V28.454ZM286.144 27.333L281.664 35.205L282.967 35.947L287.447 28.075L286.144 27.333ZM281.648 35.2338C280.807 36.8749 279.903 38.4303 278.937 39.9001L280.19 40.7239C281.187 39.2071 282.118 37.6051 282.983 35.9182L281.648 35.2338ZM279.036 40.8455L289.852 51.5335L290.907 50.4665L280.091 39.7785L279.036 40.8455ZM290.38 50.25H279.372V51.75H290.38V50.25ZM259.596 45.094C263.291 45.094 266.564 43.7797 269.383 41.1838L268.368 40.0802C265.811 42.4336 262.897 43.594 259.596 43.594V45.094ZM269.403 40.0986L258.395 29.2186L257.34 30.2854L268.348 41.1654L269.403 40.0986ZM257.564 29.0663C253.265 30.972 250.91 33.7878 250.91 37.56H252.41C252.41 34.5909 254.193 32.2013 258.171 30.4376L257.564 29.0663ZM250.91 37.56C250.91 39.6963 251.728 41.5171 253.33 42.9782L254.341 41.8698C253.042 40.6856 252.41 39.2637 252.41 37.56H250.91ZM253.339 42.9864C254.957 44.4139 257.068 45.094 259.596 45.094V43.594C257.344 43.594 255.615 42.9941 254.332 41.8616L253.339 42.9864ZM318.514 16.824L317.863 16.451L317.862 16.4536L318.514 16.824ZM326.642 8.696L327.01 9.34969L327.012 9.34817L326.642 8.696ZM359.218 20.216V20.966H360.255L359.93 19.9808L359.218 20.216ZM348.914 20.216L348.238 20.5405L348.442 20.966H348.914V20.216ZM344.562 15.416L344.185 16.0644L344.191 16.0681L344.562 15.416ZM331.186 15.672L331.57 16.3163L331.574 16.3139L331.186 15.672ZM326.45 20.792L325.784 20.4463L325.779 20.4566L326.45 20.792ZM326.45 36.408L325.777 36.7383L325.78 36.746L325.784 36.7536L326.45 36.408ZM331.186 41.592L330.792 42.2303L330.8 42.2352L330.808 42.2398L331.186 41.592ZM344.562 41.784L344.939 42.4324L344.944 42.4297L344.562 41.784ZM348.914 36.92V36.17H348.442L348.238 36.5955L348.914 36.92ZM359.218 36.92L359.931 37.1532L360.252 36.17H359.218V36.92ZM351.346 47.608L351.767 48.2287L351.769 48.2277L351.346 47.608ZM326.642 48.504L326.268 49.1543L326.278 49.1596L326.642 48.504ZM318.514 40.376L317.862 40.7464L317.865 40.7524L318.514 40.376ZM316.32 28.6C316.32 24.3211 317.274 20.5258 319.166 17.1944L317.862 16.4536C315.828 20.0342 314.82 24.0896 314.82 28.6H316.32ZM319.165 17.197C321.105 13.812 323.718 11.2013 327.01 9.34968L326.274 8.04232C322.739 10.0307 319.934 12.8386 317.863 16.451L319.165 17.197ZM327.012 9.34817C330.347 7.45432 334.079 6.502 338.226 6.502V5.002C333.839 5.002 329.849 6.01234 326.272 8.04383L327.012 9.34817ZM338.226 6.502C343.083 6.502 347.306 7.74492 350.924 10.2117L351.769 8.97233C347.877 6.31908 343.353 5.002 338.226 5.002V6.502ZM350.924 10.2117C354.535 12.6741 357.062 16.0769 358.506 20.4512L359.93 19.9808C358.388 15.3097 355.666 11.6299 351.769 8.97233L350.924 10.2117ZM359.218 19.466H348.914V20.966H359.218V19.466ZM349.59 19.8914C348.507 17.6342 346.955 15.9133 344.933 14.7639L344.191 16.0681C345.923 17.052 347.273 18.5311 348.238 20.5405L349.59 19.8914ZM344.939 14.7676C342.974 13.6252 340.707 13.066 338.162 13.066V14.566C340.481 14.566 342.481 15.0735 344.185 16.0644L344.939 14.7676ZM338.162 13.066C335.435 13.066 332.973 13.7159 330.798 15.0301L331.574 16.3139C333.495 15.1535 335.684 14.566 338.162 14.566V13.066ZM330.802 15.0277C328.668 16.2989 326.996 18.113 325.784 20.4464L327.116 21.1376C328.208 19.0336 329.693 17.4345 331.57 16.3163L330.802 15.0277ZM325.779 20.4566C324.608 22.7985 324.036 25.5204 324.036 28.6H325.536C325.536 25.7063 326.073 23.2228 327.121 21.1274L325.779 20.4566ZM324.036 28.6C324.036 31.6393 324.609 34.3582 325.777 36.7383L327.123 36.0777C326.072 33.9352 325.536 31.4487 325.536 28.6H324.036ZM325.784 36.7536C326.995 39.085 328.664 40.9174 330.792 42.2303L331.58 40.9537C329.697 39.792 328.209 38.1684 327.116 36.0624L325.784 36.7536ZM330.808 42.2398C332.982 43.5078 335.44 44.134 338.162 44.134V42.634C335.679 42.634 333.486 42.0655 331.564 40.9442L330.808 42.2398ZM338.162 44.134C340.707 44.134 342.974 43.5748 344.939 42.4324L344.185 41.1356C342.481 42.1265 340.481 42.634 338.162 42.634V44.134ZM344.944 42.4297C346.96 41.2384 348.508 39.4998 349.59 37.2445L348.238 36.5955C347.272 38.6069 345.919 40.111 344.18 41.1383L344.944 42.4297ZM348.914 37.67H359.218V36.17H348.914V37.67ZM358.505 36.6868C357.06 41.1044 354.533 44.5271 350.924 46.9883L351.769 48.2277C355.668 45.5689 358.389 41.8662 359.931 37.1532L358.505 36.6868ZM350.925 46.9873C347.352 49.4103 343.13 50.634 338.226 50.634V52.134C343.392 52.134 347.916 50.8404 351.767 48.2287L350.925 46.9873ZM338.226 50.634C334.076 50.634 330.342 49.7016 327.006 47.8484L326.278 49.1596C329.854 51.1464 333.842 52.134 338.226 52.134V50.634ZM327.016 47.8538C323.718 45.9577 321.103 43.3436 319.163 39.9996L317.865 40.7524C319.936 44.3204 322.739 47.1249 326.268 49.1542L327.016 47.8538ZM319.166 40.0056C317.274 36.6742 316.32 32.8789 316.32 28.6H314.82C314.82 33.1104 315.828 37.1658 317.862 40.7464L319.166 40.0056ZM377.239 49.336L376.871 49.9897L376.879 49.994L377.239 49.336ZM370.775 42.872L370.119 43.2354L370.123 43.243L370.775 42.872ZM370.839 23.672L370.191 23.2935L370.187 23.301L370.839 23.672ZM377.431 17.272L377.787 17.9324L377.794 17.9281L377.431 17.272ZM395.991 17.272L395.628 17.9281L395.635 17.9324L395.991 17.272ZM402.519 23.672L401.867 24.043L401.872 24.0505L402.519 23.672ZM402.455 42.872L401.812 42.4861L401.808 42.4935L402.455 42.872ZM395.799 49.336L396.155 49.9964L396.158 49.9944L395.799 49.336ZM390.999 42.616L391.358 43.2745L391.365 43.2707L390.999 42.616ZM394.455 39.032L395.115 39.3886L394.455 39.032ZM393.047 25.528L392.504 26.0456L392.51 26.052L392.517 26.0583L393.047 25.528ZM380.119 25.528L379.576 25.0104L379.576 25.0108L380.119 25.528ZM380.055 41.08L379.499 41.5839L379.506 41.5906L379.512 41.5972L380.055 41.08ZM386.455 50.826C383.155 50.826 380.209 50.1053 377.599 48.678L376.879 49.994C379.731 51.5534 382.928 52.326 386.455 52.326V50.826ZM377.607 48.6823C374.997 47.2143 372.939 45.1584 371.427 42.501L370.123 43.243C371.768 46.1323 374.02 48.3857 376.871 49.9897L377.607 48.6823ZM371.431 42.5086C369.965 39.8616 369.221 36.7901 369.221 33.272H367.721C367.721 37.0073 368.513 40.3357 370.119 43.2354L371.431 42.5086ZM369.221 33.272C369.221 29.7574 369.985 26.6886 371.491 24.043L370.187 23.301C368.536 26.2021 367.721 29.5333 367.721 33.272H369.221ZM371.486 24.0505C373.04 21.3937 375.137 19.359 377.787 17.9324L377.075 16.6116C374.178 18.1717 371.881 20.4037 370.192 23.2935L371.486 24.0505ZM377.794 17.9281C380.448 16.4584 383.415 15.718 386.711 15.718V14.218C383.181 14.218 379.961 15.0136 377.068 16.6159L377.794 17.9281ZM386.711 15.718C390.007 15.718 392.974 16.4584 395.628 17.9281L396.354 16.6159C393.461 15.0136 390.241 14.218 386.711 14.218V15.718ZM395.635 17.9324C398.283 19.358 400.357 21.3903 401.867 24.043L403.171 23.301C401.523 20.407 399.246 18.1726 396.347 16.6116L395.635 17.9324ZM401.872 24.0505C403.417 26.6948 404.201 29.7609 404.201 33.272H405.701C405.701 29.5298 404.863 26.1959 403.167 23.2935L401.872 24.0505ZM404.201 33.272C404.201 36.7796 403.398 39.843 401.812 42.4861L403.098 43.2579C404.84 40.3543 405.701 37.0177 405.701 33.272H404.201ZM401.808 42.4935C400.255 45.1492 398.136 47.207 395.44 48.6776L396.158 49.9944C399.094 48.393 401.412 46.1415 403.102 43.2505L401.808 42.4935ZM395.443 48.6756C392.79 50.1046 389.799 50.826 386.455 50.826V52.326C390.023 52.326 393.262 51.5541 396.155 49.9964L395.443 48.6756ZM386.455 44.518C388.2 44.518 389.839 44.1032 391.358 43.2744L390.64 41.9576C389.343 42.6648 387.952 43.018 386.455 43.018V44.518ZM391.365 43.2707C392.95 42.385 394.199 41.0821 395.115 39.3886L393.795 38.6754C393.004 40.1392 391.95 41.2256 390.633 41.9613L391.365 43.2707ZM395.115 39.3886C396.041 37.6755 396.485 35.6261 396.485 33.272H394.985C394.985 35.4406 394.576 37.2311 393.795 38.6754L395.115 39.3886ZM396.485 33.272C396.485 29.7703 395.552 26.972 393.577 24.9977L392.517 26.0583C394.126 27.668 394.985 30.0324 394.985 33.272H396.485ZM393.59 25.0104C391.697 23.0257 389.346 22.026 386.583 22.026V23.526C388.94 23.526 390.898 24.361 392.504 26.0456L393.59 25.0104ZM386.583 22.026C383.82 22.026 381.469 23.0257 379.576 25.0104L380.662 26.0456C382.268 24.361 384.226 23.526 386.583 23.526V22.026ZM379.576 25.0108C377.694 26.9863 376.809 29.7797 376.809 33.272H378.309C378.309 30.023 379.13 27.6537 380.662 26.0452L379.576 25.0108ZM376.809 33.272C376.809 36.761 377.671 39.568 379.499 41.5839L380.611 40.5761C379.111 38.9226 378.309 36.5243 378.309 33.272H376.809ZM379.512 41.5972C381.366 43.5435 383.698 44.518 386.455 44.518V43.018C384.092 43.018 382.158 42.2005 380.598 40.5628L379.512 41.5972ZM445.252 19.064L444.713 19.5857L444.717 19.59L445.252 19.064ZM449.156 51V51.75H449.906V51H449.156ZM440.195 51H439.445V51.75H440.195V51ZM438.083 24.952L437.531 25.4588L437.538 25.4665L438.083 24.952ZM426.436 24.952L425.89 24.437L425.89 24.4375L426.436 24.952ZM424.324 51V51.75H425.074V51H424.324ZM415.364 51H414.614V51.75H415.364V51ZM415.364 15.544V14.794H414.614V15.544H415.364ZM424.324 15.544H425.074V14.794H424.324V15.544ZM424.324 19.96H423.574V22.1459L424.916 20.4205L424.324 19.96ZM428.868 16.376L429.184 17.0561L429.191 17.0529L428.868 16.376ZM435.012 15.782C439.061 15.782 442.27 17.063 444.713 19.5857L445.79 18.5423C443.028 15.689 439.41 14.282 435.012 14.282V15.782ZM444.717 19.59C447.145 22.0579 448.406 25.5591 448.406 30.2H449.906C449.906 25.2836 448.563 21.3607 445.786 18.538L444.717 19.59ZM448.406 30.2V51H449.906V30.2H448.406ZM449.156 50.25H440.195V51.75H449.156V50.25ZM440.945 51V31.416H439.445V51H440.945ZM440.945 31.416C440.945 28.4808 440.211 26.1148 438.629 24.4375L437.538 25.4665C438.772 26.7758 439.445 28.7192 439.445 31.416H440.945ZM438.636 24.4452C437.062 22.728 434.927 21.898 432.324 21.898V23.398C434.584 23.398 436.289 24.104 437.531 25.4588L438.636 24.4452ZM432.324 21.898C429.681 21.898 427.507 22.7252 425.89 24.437L426.981 25.467C428.265 24.1068 430.017 23.398 432.324 23.398V21.898ZM425.89 24.4375C424.308 26.1148 423.574 28.4808 423.574 31.416H425.074C425.074 28.7192 425.747 26.7758 426.981 25.4665L425.89 24.4375ZM423.574 31.416V51H425.074V31.416H423.574ZM424.324 50.25H415.364V51.75H424.324V50.25ZM416.114 51V15.544H414.614V51H416.114ZM415.364 16.294H424.324V14.794H415.364V16.294ZM423.574 15.544V19.96H425.074V15.544H423.574ZM424.916 20.4205C426.034 18.9823 427.453 17.8612 429.184 17.056L428.551 15.696C426.613 16.5975 425.002 17.8657 423.732 19.4995L424.916 20.4205ZM429.191 17.0529C430.96 16.2082 432.897 15.782 435.012 15.782V14.282C432.689 14.282 430.529 14.7518 428.544 15.6991L429.191 17.0529ZM461.324 23.608L460.659 23.2603L460.655 23.2685L461.324 23.608ZM467.212 17.208L467.6 17.8501L467.212 17.208ZM482.06 16.504L481.73 17.1776L481.741 17.1829L482.06 16.504ZM487.052 20.472L486.45 20.9195L487.802 22.7375V20.472H487.052ZM487.052 3.64V2.89H486.302V3.64H487.052ZM496.14 3.64H496.89V2.89H496.14V3.64ZM496.14 51V51.75H496.89V51H496.14ZM487.052 51H486.302V51.75H487.052V51ZM487.052 45.752H487.802V43.1689L486.419 45.3503L487.052 45.752ZM482.38 49.976L482.028 49.3138L482.38 49.976ZM467.212 49.272L467.608 48.6348L467.212 49.272ZM461.324 42.808L460.653 43.1435L460.659 43.1556L461.324 42.808ZM485.836 27.704L485.176 28.0607L485.18 28.0682L485.836 27.704ZM482.38 24.12L482 24.7664L482.007 24.7707L482.014 24.7747L482.38 24.12ZM473.1 24.056L472.726 23.406L473.1 24.056ZM469.644 27.64L468.992 27.2698L468.988 27.2758L469.644 27.64ZM469.644 38.776L468.98 39.1253L468.986 39.1358L468.992 39.1462L469.644 38.776ZM473.1 42.424L472.711 43.0655L472.72 43.0704L473.1 42.424ZM482.38 42.488L482.746 43.1427L482.753 43.1387L482.76 43.1344L482.38 42.488ZM485.836 38.904L486.492 39.2683L486.496 39.2606L485.836 38.904ZM459.962 33.144C459.962 29.66 460.646 26.6007 461.993 23.9475L460.655 23.2685C459.186 26.162 458.462 29.46 458.462 33.144H459.962ZM461.989 23.9556C463.381 21.2935 465.252 19.2667 467.6 17.8501L466.824 16.5659C464.223 18.136 462.168 20.3758 460.659 23.2604L461.989 23.9556ZM467.6 17.8501C469.952 16.4308 472.568 15.718 475.468 15.718V14.218C472.309 14.218 469.422 14.9985 466.824 16.5659L467.6 17.8501ZM475.468 15.718C477.656 15.718 479.741 16.2033 481.73 17.1775L482.39 15.8305C480.198 14.7567 477.888 14.218 475.468 14.218V15.718ZM481.741 17.1829C483.733 18.1178 485.295 19.3657 486.45 20.9195L487.654 20.0245C486.335 18.2503 484.568 16.8529 482.379 15.8251L481.741 17.1829ZM487.802 20.472V3.64H486.302V20.472H487.802ZM487.052 4.39H496.14V2.89H487.052V4.39ZM495.39 3.64V51H496.89V3.64H495.39ZM496.14 50.25H487.052V51.75H496.14V50.25ZM487.802 51V45.752H486.302V51H487.802ZM486.419 45.3503C485.385 46.9796 483.93 48.3021 482.028 49.3138L482.732 50.6382C484.841 49.5165 486.5 48.0231 487.685 46.1537L486.419 45.3503ZM482.028 49.3138C480.147 50.314 477.947 50.826 475.404 50.826V52.326C478.152 52.326 480.602 51.7713 482.732 50.6382L482.028 49.3138ZM475.404 50.826C472.553 50.826 469.96 50.0951 467.608 48.6348L466.816 49.9092C469.413 51.5209 472.281 52.326 475.404 52.326V50.826ZM467.608 48.6348C465.255 47.1748 463.382 45.124 461.989 42.4604L460.659 43.1556C462.167 46.0386 464.219 48.2972 466.816 49.9092L467.608 48.6348ZM461.995 42.4726C460.646 39.7755 459.962 36.672 459.962 33.144H458.462C458.462 36.8694 459.186 40.2085 460.653 43.1434L461.995 42.4726ZM487.866 33.272C487.866 30.9986 487.42 29.0108 486.492 27.3398L485.18 28.0682C485.959 29.4692 486.366 31.1934 486.366 33.272H487.866ZM486.496 27.3474C485.58 25.6539 484.331 24.351 482.746 23.4653L482.014 24.7747C483.331 25.5104 484.385 26.5968 485.176 28.0606L486.496 27.3474ZM482.76 23.4735C481.196 22.5532 479.507 22.09 477.708 22.09V23.59C479.237 23.59 480.663 23.9801 482 24.7664L482.76 23.4735ZM477.708 22.09C475.916 22.09 474.25 22.5282 472.726 23.406L473.474 24.706C474.766 23.9625 476.172 23.59 477.708 23.59V22.09ZM472.726 23.406C471.189 24.2911 469.946 25.5887 468.992 27.2698L470.296 28.0102C471.134 26.5339 472.195 25.4423 473.474 24.706L472.726 23.406ZM468.988 27.2758C468.061 28.9447 467.614 30.9103 467.614 33.144H469.114C469.114 31.111 469.52 29.4073 470.3 28.0042L468.988 27.2758ZM467.614 33.144C467.614 35.379 468.062 37.3798 468.98 39.1253L470.308 38.4267C469.52 36.9295 469.114 35.1757 469.114 33.144H467.614ZM468.992 39.1462C469.944 40.8246 471.183 42.139 472.711 43.0654L473.489 41.7826C472.201 41.0023 471.136 39.8847 470.296 38.4058L468.992 39.1462ZM472.72 43.0704C474.281 43.9889 475.948 44.454 477.708 44.454V42.954C476.226 42.954 474.82 42.5658 473.48 41.7775L472.72 43.0704ZM477.708 44.454C479.5 44.454 481.183 44.0159 482.746 43.1427L482.014 41.8333C480.675 42.5814 479.244 42.954 477.708 42.954V44.454ZM482.76 43.1344C484.331 42.2102 485.576 40.9158 486.492 39.2682L485.18 38.5398C484.389 39.9642 483.33 41.0591 482 41.8415L482.76 43.1344ZM486.496 39.2606C487.42 37.5514 487.866 35.5463 487.866 33.272H486.366C486.366 35.3497 485.959 37.0992 485.176 38.5474L486.496 39.2606ZM509.307 9.848L508.777 10.3783L508.788 10.3894L508.799 10.3999L509.307 9.848ZM509.307 2.36L509.826 2.90149L509.826 2.90104L509.307 2.36ZM517.179 2.36L516.649 2.89033L516.66 2.90137L516.671 2.91195L517.179 2.36ZM517.179 9.848L517.698 10.3895L517.698 10.389L517.179 9.848ZM517.691 15.544H518.441V14.794H517.691V15.544ZM517.691 51V51.75H518.441V51H517.691ZM508.731 51H507.981V51.75H508.731V51ZM508.731 15.544V14.794H507.981V15.544H508.731ZM513.275 10.57C511.866 10.57 510.73 10.1382 509.815 9.29605L508.799 10.3999C510.017 11.5205 511.526 12.07 513.275 12.07V10.57ZM509.837 9.31767C508.959 8.43915 508.521 7.37336 508.521 6.072H507.021C507.021 7.7573 507.607 9.20884 508.777 10.3783L509.837 9.31767ZM508.521 6.072C508.521 4.771 508.958 3.7332 509.826 2.90149L508.788 1.81851C507.608 2.94946 507.021 4.38633 507.021 6.072H508.521ZM509.826 2.90104C510.743 2.02079 511.876 1.574 513.275 1.574V0.0739975C511.517 0.0739975 510.004 0.651208 508.788 1.81896L509.826 2.90104ZM513.275 1.574C514.674 1.574 515.779 2.02035 516.649 2.89033L517.709 1.82967C516.531 0.651642 515.033 0.0739975 513.275 0.0739975V1.574ZM516.671 2.91195C517.578 3.74645 518.029 4.78122 518.029 6.072H519.529C519.529 4.37611 518.913 2.93621 517.687 1.80805L516.671 2.91195ZM518.029 6.072C518.029 7.36341 517.577 8.42597 516.66 9.30696L517.698 10.389C518.914 9.22202 519.529 7.76725 519.529 6.072H518.029ZM516.66 9.30651C515.792 10.1384 514.684 10.57 513.275 10.57V12.07C515.023 12.07 516.518 11.5202 517.698 10.3895L516.66 9.30651ZM516.941 15.544V51H518.441V15.544H516.941ZM517.691 50.25H508.731V51.75H517.691V50.25ZM509.481 51V15.544H507.981V51H509.481ZM508.731 16.294H517.691V14.794H508.731V16.294ZM540.816 22.904V22.154H540.066V22.904H540.816ZM541.648 42.68L541.117 43.2103L541.138 43.2307L541.159 43.2494L541.648 42.68ZM548.752 43.448H549.502V42.698H548.752V43.448ZM548.752 51V51.75H549.502V51H548.752ZM531.792 22.904H532.542V22.154H531.792V22.904ZM527.568 22.904H526.818V23.654H527.568V22.904ZM527.568 15.544V14.794H526.818V15.544H527.568ZM531.792 15.544V16.294H532.542V15.544H531.792ZM531.792 6.776V6.026H531.042V6.776H531.792ZM540.816 6.776H541.566V6.026H540.816V6.776ZM540.816 15.544H540.066V16.294H540.816V15.544ZM548.752 15.544H549.502V14.794H548.752V15.544ZM548.752 22.904V23.654H549.502V22.904H548.752ZM540.066 22.904V40.056H541.566V22.904H540.066ZM540.066 40.056C540.066 41.3474 540.363 42.4563 541.117 43.2103L542.178 42.1497C541.823 41.7944 541.566 41.1539 541.566 40.056H540.066ZM541.159 43.2494C541.962 43.9374 543.167 44.198 544.592 44.198V42.698C543.286 42.698 542.528 42.4466 542.136 42.1106L541.159 43.2494ZM544.592 44.198H548.752V42.698H544.592V44.198ZM548.002 43.448V51H549.502V43.448H548.002ZM548.752 50.25H543.12V51.75H548.752V50.25ZM543.12 50.25C539.454 50.25 536.843 49.3593 535.146 47.7101C533.453 46.0648 532.542 43.5402 532.542 39.992H531.042C531.042 43.7825 532.018 46.7618 534.101 48.7859C536.18 50.806 539.233 51.75 543.12 51.75V50.25ZM532.542 39.992V22.904H531.042V39.992H532.542ZM531.792 22.154H527.568V23.654H531.792V22.154ZM528.318 22.904V15.544H526.818V22.904H528.318ZM527.568 16.294H531.792V14.794H527.568V16.294ZM532.542 15.544V6.776H531.042V15.544H532.542ZM531.792 7.526H540.816V6.026H531.792V7.526ZM540.066 6.776V15.544H541.566V6.776H540.066ZM540.816 16.294H548.752V14.794H540.816V16.294ZM548.002 15.544V22.904H549.502V15.544H548.002ZM548.752 22.154H540.816V23.654H548.752V22.154ZM559.612 9.848L559.082 10.3783L559.093 10.3894L559.104 10.3999L559.612 9.848ZM559.612 2.36L560.131 2.90149L560.131 2.90104L559.612 2.36ZM567.484 2.36L566.954 2.89033L566.965 2.90137L566.976 2.91195L567.484 2.36ZM567.484 9.848L568.003 10.3895L568.003 10.389L567.484 9.848ZM567.996 15.544H568.746V14.794H567.996V15.544ZM567.996 51V51.75H568.746V51H567.996ZM559.036 51H558.286V51.75H559.036V51ZM559.036 15.544V14.794H558.286V15.544H559.036ZM563.58 10.57C562.171 10.57 561.035 10.1382 560.12 9.29605L559.104 10.3999C560.322 11.5205 561.831 12.07 563.58 12.07V10.57ZM560.142 9.31767C559.264 8.43915 558.826 7.37336 558.826 6.072H557.326C557.326 7.7573 557.912 9.20884 559.082 10.3783L560.142 9.31767ZM558.826 6.072C558.826 4.771 559.263 3.7332 560.131 2.90149L559.093 1.81851C557.913 2.94946 557.326 4.38633 557.326 6.072H558.826ZM560.131 2.90104C561.048 2.02079 562.181 1.574 563.58 1.574V0.0739975C561.822 0.0739975 560.309 0.651208 559.093 1.81896L560.131 2.90104ZM563.58 1.574C564.979 1.574 566.084 2.02035 566.954 2.89033L568.014 1.82967C566.836 0.651642 565.338 0.0739975 563.58 0.0739975V1.574ZM566.976 2.91195C567.883 3.74645 568.334 4.78122 568.334 6.072H569.834C569.834 4.37611 569.218 2.93621 567.992 1.80805L566.976 2.91195ZM568.334 6.072C568.334 7.36341 567.882 8.42597 566.965 9.30696L568.003 10.389C569.219 9.22202 569.834 7.76725 569.834 6.072H568.334ZM566.965 9.30651C566.097 10.1384 564.989 10.57 563.58 10.57V12.07C565.328 12.07 566.823 11.5202 568.003 10.3895L566.965 9.30651ZM567.246 15.544V51H568.746V15.544H567.246ZM567.996 50.25H559.036V51.75H567.996V50.25ZM559.786 51V15.544H558.286V51H559.786ZM559.036 16.294H567.996V14.794H559.036V16.294ZM587.216 49.336L586.849 49.9897L586.857 49.994L587.216 49.336ZM580.752 42.872L580.096 43.2354L580.101 43.243L580.752 42.872ZM580.816 23.672L580.169 23.2935L580.165 23.301L580.816 23.672ZM587.408 17.272L587.764 17.9324L587.772 17.9281L587.408 17.272ZM605.968 17.272L605.605 17.9281L605.613 17.9324L605.968 17.272ZM612.496 23.672L611.845 24.043L611.849 24.0505L612.496 23.672ZM612.432 42.872L611.789 42.4861L611.785 42.4935L612.432 42.872ZM605.776 49.336L606.132 49.9964L606.136 49.9944L605.776 49.336ZM600.976 42.616L601.336 43.2745L601.342 43.2707L600.976 42.616ZM604.432 39.032L605.092 39.3886L604.432 39.032ZM603.024 25.528L602.482 26.0456L602.488 26.052L602.494 26.0583L603.024 25.528ZM590.096 25.528L589.554 25.0104L589.553 25.0108L590.096 25.528ZM590.032 41.08L589.477 41.5839L589.483 41.5906L589.489 41.5972L590.032 41.08ZM596.432 50.826C593.132 50.826 590.186 50.1053 587.576 48.678L586.857 49.994C589.708 51.5534 592.906 52.326 596.432 52.326V50.826ZM587.584 48.6823C584.974 47.2143 582.917 45.1584 581.404 42.501L580.101 43.243C581.745 46.1323 583.997 48.3857 586.849 49.9897L587.584 48.6823ZM581.409 42.5086C579.943 39.8616 579.198 36.7901 579.198 33.272H577.698C577.698 37.0073 578.49 40.3357 580.096 43.2354L581.409 42.5086ZM579.198 33.272C579.198 29.7574 579.962 26.6886 581.468 24.043L580.165 23.301C578.513 26.2021 577.698 29.5333 577.698 33.272H579.198ZM581.464 24.0505C583.017 21.3937 585.115 19.359 587.764 17.9324L587.053 16.6116C584.156 18.1717 581.858 20.4037 580.169 23.2935L581.464 24.0505ZM587.772 17.9281C590.425 16.4584 593.392 15.718 596.688 15.718V14.218C593.158 14.218 589.938 15.0136 587.045 16.6159L587.772 17.9281ZM596.688 15.718C599.985 15.718 602.951 16.4584 605.605 17.9281L606.332 16.6159C603.439 15.0136 600.219 14.218 596.688 14.218V15.718ZM605.613 17.9324C608.261 19.358 610.335 21.3903 611.845 24.043L613.148 23.301C611.501 20.407 609.223 18.1726 606.324 16.6116L605.613 17.9324ZM611.849 24.0505C613.395 26.6948 614.178 29.7609 614.178 33.272H615.678C615.678 29.5298 614.841 26.1959 613.144 23.2935L611.849 24.0505ZM614.178 33.272C614.178 36.7796 613.375 39.843 611.789 42.4861L613.076 43.2579C614.818 40.3543 615.678 37.0177 615.678 33.272H614.178ZM611.785 42.4935C610.232 45.1492 608.113 47.207 605.417 48.6776L606.136 49.9944C609.072 48.393 611.39 46.1415 613.08 43.2505L611.785 42.4935ZM605.421 48.6756C602.767 50.1046 599.777 50.826 596.432 50.826V52.326C600 52.326 603.239 51.5541 606.132 49.9964L605.421 48.6756ZM596.432 44.518C598.178 44.518 599.816 44.1032 601.336 43.2744L600.617 41.9576C599.321 42.6648 597.93 43.018 596.432 43.018V44.518ZM601.342 43.2707C602.927 42.385 604.177 41.0821 605.092 39.3886L603.773 38.6754C602.981 40.1392 601.927 41.2256 600.611 41.9613L601.342 43.2707ZM605.092 39.3886C606.018 37.6755 606.462 35.6261 606.462 33.272H604.962C604.962 35.4406 604.553 37.2311 603.773 38.6754L605.092 39.3886ZM606.462 33.272C606.462 29.7703 605.529 26.972 603.555 24.9977L602.494 26.0583C604.104 27.668 604.962 30.0324 604.962 33.272H606.462ZM603.567 25.0104C601.675 23.0257 599.323 22.026 596.56 22.026V23.526C598.918 23.526 600.875 24.361 602.482 26.0456L603.567 25.0104ZM596.56 22.026C593.798 22.026 591.446 23.0257 589.554 25.0104L590.639 26.0456C592.245 24.361 594.203 23.526 596.56 23.526V22.026ZM589.553 25.0108C587.672 26.9863 586.786 29.7797 586.786 33.272H588.286C588.286 30.023 589.108 27.6537 590.64 26.0452L589.553 25.0108ZM586.786 33.272C586.786 36.761 587.649 39.568 589.477 41.5839L590.588 40.5761C589.088 38.9226 588.286 36.5243 588.286 33.272H586.786ZM589.489 41.5972C591.343 43.5435 593.675 44.518 596.432 44.518V43.018C594.07 43.018 592.135 42.2005 590.576 40.5628L589.489 41.5972ZM655.229 19.064L654.69 19.5857L654.694 19.59L655.229 19.064ZM659.133 51V51.75H659.883V51H659.133ZM650.173 51H649.423V51.75H650.173V51ZM648.061 24.952L647.508 25.4588L647.515 25.4665L648.061 24.952ZM636.413 24.952L635.868 24.437L635.867 24.4375L636.413 24.952ZM634.301 51V51.75H635.051V51H634.301ZM625.341 51H624.591V51.75H625.341V51ZM625.341 15.544V14.794H624.591V15.544H625.341ZM634.301 15.544H635.051V14.794H634.301V15.544ZM634.301 19.96H633.551V22.1459L634.893 20.4205L634.301 19.96ZM638.845 16.376L639.161 17.0561L639.168 17.0529L638.845 16.376ZM644.989 15.782C649.039 15.782 652.248 17.063 654.69 19.5857L655.768 18.5423C653.005 15.689 649.387 14.282 644.989 14.282V15.782ZM654.694 19.59C657.123 22.0579 658.383 25.5591 658.383 30.2H659.883C659.883 25.2836 658.541 21.3607 655.764 18.538L654.694 19.59ZM658.383 30.2V51H659.883V30.2H658.383ZM659.133 50.25H650.173V51.75H659.133V50.25ZM650.923 51V31.416H649.423V51H650.923ZM650.923 31.416C650.923 28.4808 650.188 26.1148 648.607 24.4375L647.515 25.4665C648.75 26.7758 649.423 28.7192 649.423 31.416H650.923ZM648.614 24.4452C647.04 22.728 644.905 21.898 642.301 21.898V23.398C644.561 23.398 646.266 24.104 647.508 25.4588L648.614 24.4452ZM642.301 21.898C639.659 21.898 637.485 22.7252 635.868 24.437L636.958 25.467C638.243 24.1068 639.994 23.398 642.301 23.398V21.898ZM635.867 24.4375C634.286 26.1148 633.551 28.4808 633.551 31.416H635.051C635.051 28.7192 635.724 26.7758 636.959 25.4665L635.867 24.4375ZM633.551 31.416V51H635.051V31.416H633.551ZM634.301 50.25H625.341V51.75H634.301V50.25ZM626.091 51V15.544H624.591V51H626.091ZM625.341 16.294H634.301V14.794H625.341V16.294ZM633.551 15.544V19.96H635.051V15.544H633.551ZM634.893 20.4205C636.012 18.9823 637.43 17.8612 639.161 17.056L638.529 15.696C636.591 16.5975 634.98 17.8657 633.709 19.4995L634.893 20.4205ZM639.168 17.0529C640.938 16.2082 642.875 15.782 644.989 15.782V14.282C642.666 14.282 640.507 14.7518 638.522 15.6991L639.168 17.0529ZM677.254 50.04L676.938 50.7207L676.949 50.7254L677.254 50.04ZM671.75 45.752L671.146 46.1974L671.153 46.2065L671.75 45.752ZM669.573 39.8V39.05H668.778L668.825 39.844L669.573 39.8ZM678.598 39.8L679.342 39.707L679.26 39.05H678.598V39.8ZM680.582 43.192L680.121 43.7841L680.132 43.792L680.582 43.192ZM688.966 43.512L688.537 42.8963L688.531 42.9008L688.524 42.9054L688.966 43.512ZM688.646 38.328L688.3 38.9938L688.315 39.0014L688.33 39.0083L688.646 38.328ZM683.078 36.408L683.271 35.6833L683.262 35.6811L683.254 35.679L683.078 36.408ZM676.549 34.424L676.265 35.1179L676.271 35.1204L676.549 34.424ZM672.198 31.288L671.626 31.7733L671.634 31.7831L672.198 31.288ZM672.07 20.216L671.458 19.7815L671.451 19.7925L672.07 20.216ZM676.934 16.376L676.631 15.6895L676.626 15.6918L676.934 16.376ZM694.534 18.168L694.049 18.7402L694.054 18.745L694.534 18.168ZM698.694 26.68V27.43H699.499L699.442 26.6266L698.694 26.68ZM690.117 26.68L689.371 26.7479L689.433 27.43H690.117V26.68ZM688.326 23.352L687.845 23.9282L687.858 23.9389L687.872 23.9491L688.326 23.352ZM680.39 22.968L679.974 22.344L679.966 22.3487L679.959 22.3536L680.39 22.968ZM680.901 28.216L680.547 28.8771L680.557 28.8821L680.566 28.8868L680.901 28.216ZM686.47 30.072L686.285 30.7989L686.288 30.7996L686.47 30.072ZM697.094 35.256L696.515 35.7328L696.522 35.7421L696.53 35.7511L697.094 35.256ZM699.013 40.888H699.764L699.763 40.8744L699.013 40.888ZM697.286 46.392L696.674 45.9575L696.667 45.9685L697.286 46.392ZM692.422 50.232L692.717 50.9214L692.724 50.9185L692.422 50.232ZM685.062 50.826C682.249 50.826 679.753 50.3301 677.558 49.3546L676.949 50.7254C679.362 51.7979 682.071 52.326 685.062 52.326V50.826ZM677.569 49.3594C675.361 48.3374 673.628 46.9805 672.346 45.2975L671.153 46.2065C672.601 48.1075 674.538 49.6092 676.938 50.7206L677.569 49.3594ZM672.353 45.3066C671.115 43.6288 670.441 41.7836 670.322 39.756L668.825 39.844C668.962 42.1684 669.739 44.2912 671.146 46.1974L672.353 45.3066ZM669.573 40.55H678.598V39.05H669.573V40.55ZM677.853 39.893C678.05 41.4686 678.823 42.7741 680.121 43.784L681.042 42.6C680.036 41.8179 679.486 40.862 679.342 39.707L677.853 39.893ZM680.132 43.792C681.477 44.8013 683.115 45.286 684.997 45.286V43.786C683.382 43.786 682.075 43.3747 681.031 42.592L680.132 43.792ZM684.997 45.286C686.792 45.286 688.292 44.929 689.407 44.1186L688.524 42.9054C687.761 43.4603 686.617 43.786 684.997 43.786V45.286ZM689.394 44.1277C690.548 43.3245 691.188 42.2328 691.188 40.888H689.688C689.688 41.6766 689.345 42.3342 688.537 42.8963L689.394 44.1277ZM691.188 40.888C691.188 40.1752 691 39.5199 690.604 38.9539C690.212 38.3939 689.647 37.9662 688.961 37.6477L688.33 39.0083C688.838 39.2444 689.17 39.5207 689.375 39.8141C689.576 40.1014 689.688 40.4488 689.688 40.888H691.188ZM688.991 37.6622C687.763 37.0254 685.841 36.3687 683.271 35.6833L682.884 37.1327C685.434 37.8127 687.224 38.4359 688.3 38.9938L688.991 37.6622ZM683.254 35.679C680.628 35.0439 678.49 34.3923 676.828 33.7276L676.271 35.1204C678.023 35.821 680.236 36.4921 682.901 37.137L683.254 35.679ZM676.834 33.7301C675.282 33.0932 673.925 32.1178 672.761 30.7929L671.634 31.7831C672.945 33.2742 674.489 34.3895 676.265 35.1179L676.834 33.7301ZM672.769 30.8028C671.72 29.566 671.156 27.8568 671.156 25.592H669.656C669.656 28.1058 670.286 30.194 671.626 31.7732L672.769 30.8028ZM671.156 25.592C671.156 23.7806 671.664 22.1362 672.688 20.6395L671.451 19.7925C670.256 21.5384 669.656 23.478 669.656 25.592H671.156ZM672.681 20.6504C673.744 19.1536 675.253 17.9526 677.241 17.0602L676.626 15.6918C674.433 16.6767 672.699 18.0357 671.458 19.7816L672.681 20.6504ZM677.236 17.0625C679.255 16.1741 681.644 15.718 684.422 15.718V14.218C681.482 14.218 678.879 14.7006 676.631 15.6895L677.236 17.0625ZM684.422 15.718C688.519 15.718 691.701 16.7507 694.049 18.7402L695.018 17.5958C692.331 15.3186 688.772 14.218 684.422 14.218V15.718ZM694.054 18.745C696.398 20.6915 697.702 23.3312 697.945 26.7334L699.442 26.6266C699.173 22.8608 697.704 19.8258 695.013 17.591L694.054 18.745ZM698.694 25.93H690.117V27.43H698.694V25.93ZM690.864 26.6121C690.719 25.0074 690.024 23.7007 688.779 22.7549L687.872 23.9491C688.76 24.6246 689.26 25.5366 689.371 26.7479L690.864 26.6121ZM688.806 22.7758C687.61 21.7792 686.035 21.322 684.166 21.322V22.822C685.795 22.822 686.993 23.2182 687.845 23.9282L688.806 22.7758ZM684.166 21.322C682.466 21.322 681.04 21.6327 679.974 22.344L680.806 23.592C681.531 23.1086 682.622 22.822 684.166 22.822V21.322ZM679.959 22.3536C678.9 23.0952 678.359 24.1596 678.359 25.464H679.859C679.859 24.6351 680.172 24.0354 680.82 23.5824L679.959 22.3536ZM678.359 25.464C678.359 26.1928 678.544 26.8657 678.929 27.4573C679.311 28.0439 679.865 28.5116 680.547 28.8771L681.256 27.5549C680.743 27.2804 680.401 26.9694 680.186 26.6387C679.974 26.3129 679.859 25.9298 679.859 25.464H678.359ZM680.566 28.8868C681.835 29.5212 683.754 30.1556 686.285 30.7989L686.654 29.3451C684.15 28.7084 682.357 28.1054 681.237 27.5452L680.566 28.8868ZM686.288 30.7996C688.827 31.4345 690.902 32.0856 692.521 32.7499L693.09 31.3621C691.381 30.661 689.232 29.9895 686.651 29.3444L686.288 30.7996ZM692.521 32.7499C694.065 33.3834 695.395 34.3732 696.515 35.7328L697.672 34.7792C696.403 33.2375 694.874 32.0939 693.09 31.3621L692.521 32.7499ZM696.53 35.7511C697.623 36.9948 698.223 38.6863 698.264 40.9016L699.763 40.8744C699.718 38.3963 699.039 36.3332 697.657 34.7609L696.53 35.7511ZM698.263 40.888C698.263 42.7853 697.733 44.4671 696.674 45.9576L697.897 46.8264C699.142 45.0742 699.763 43.0867 699.763 40.888H698.263ZM696.667 45.9685C695.65 47.4543 694.149 48.6526 692.119 49.5455L692.724 50.9185C694.961 49.9341 696.702 48.5724 697.904 46.8155L696.667 45.9685ZM692.126 49.5426C690.148 50.3903 687.799 50.826 685.062 50.826V52.326C687.956 52.326 690.514 51.8657 692.717 50.9214L692.126 49.5426Z" fill="url(#paint0_linear_3131_22803)"/>
<defs>
<linearGradient id="paint0_linear_3131_22803" x1="147.554" y1="-92.1539" x2="125.025" y2="80.5689" gradientUnits="userSpaceOnUse">
<stop stop-color="#2DD1DB"/>
<stop offset="0.60721" stop-color="#2D9CDB"/>
<stop offset="1" stop-color="#1A8ED0"/>
</linearGradient>
</defs>
</svg>
