<svg width="48" height="48" viewBox="0 0 48 48" fill="none" xmlns="http://www.w3.org/2000/svg">
<g clip-path="url(#clip0_1704_14131)">
<path d="M40.8105 24.08C41.3305 23.5933 41.8305 23.1033 42.3105 22.61C43.1345 22.9709 44.0562 23.0436 44.9266 22.8162C45.797 22.5888 46.5653 22.0747 47.1075 21.3568C47.6496 20.6389 47.934 19.7592 47.9146 18.8598C47.8952 17.9604 47.5731 17.0938 47.0005 16.4C50.3005 9.87997 46.2905 4.60997 32.0005 9.39997C28.0605 -3.09003 20.0005 -3.16003 16.0005 9.30997C-0.429487 3.87997 -5.41949 11.94 7.48051 24.09C6.96051 24.58 6.48051 25.09 6.00051 25.55C1.90051 23.17 -2.10949 28.65 1.23051 31.87C-0.319486 35 0.110513 37 0.780513 38.08C3.27051 42.24 11.4805 40.37 16.0905 38.85C20.0905 51.09 27.9905 51.05 31.9405 38.76C48.7305 44.42 53.7805 36.29 40.8105 24.08ZM44.0005 21C43.605 21 43.2183 20.8827 42.8894 20.6629C42.5605 20.4431 42.3041 20.1308 42.1528 19.7653C42.0014 19.3999 41.9618 18.9978 42.0389 18.6098C42.1161 18.2218 42.3066 17.8655 42.5863 17.5858C42.866 17.3061 43.2224 17.1156 43.6103 17.0384C43.9983 16.9612 44.4004 17.0008 44.7659 17.1522C45.1313 17.3036 45.4437 17.5599 45.6635 17.8888C45.8832 18.2177 46.0005 18.6044 46.0005 19C46.0005 19.5304 45.7898 20.0391 45.4147 20.4142C45.0397 20.7893 44.5309 21 44.0005 21ZM45.3505 15.25C44.5506 14.9703 43.6826 14.9518 42.8715 15.1973C42.0605 15.4427 41.3483 15.9394 40.8378 16.6157C40.3272 17.292 40.0446 18.113 40.0307 18.9602C40.0168 19.8075 40.2724 20.6373 40.7605 21.33C40.3105 21.8 39.8305 22.26 39.3305 22.73C30.6705 15.18 35.3305 22.21 32.5405 11.34C40.0605 8.78997 48.8005 8.09997 45.3505 15.25ZM24.1505 33.25C21.385 31.8319 18.7129 30.2386 16.1505 28.48C15.9155 25.5614 15.9155 22.6286 16.1505 19.71C18.7142 17.9563 21.3862 16.3665 24.1505 14.95C26.7949 16.3152 29.353 17.8414 31.8105 19.52C32.0606 22.5715 32.0606 25.6384 31.8105 28.69C29.3503 30.3582 26.7924 31.8776 24.1505 33.24V33.25ZM31.5205 31.25C31.3062 32.8934 30.9957 34.5229 30.5905 36.13C29.2105 35.6 27.7905 34.99 26.3505 34.31C28.4205 33.21 29.7805 32.4 31.5205 31.27V31.25ZM21.9405 34.31C20.4105 35.03 18.9405 35.68 17.4305 36.23C16.9927 34.5218 16.6587 32.7886 16.4305 31.04C18.4505 32.36 19.9205 33.24 21.9405 34.33V34.31ZM14.0805 27C12.8005 26.05 11.5905 25.08 10.4605 24.11C11.5905 23.11 12.7905 22.17 14.0705 21.23C14.0005 23.18 14.0005 25 14.0805 27ZM16.4205 17.16C16.6382 15.3965 16.9723 13.6494 17.4205 11.93C18.9005 12.49 20.4205 13.14 21.9605 13.87C19.7605 15 18.2405 16 16.4205 17.14V17.16ZM26.4205 13.87C27.8738 13.2033 29.2938 12.5966 30.6805 12.05C31.0831 13.6605 31.3903 15.2933 31.6005 16.94C29.6605 15.7 28.1305 14.81 26.3705 13.85L26.4205 13.87ZM33.9205 21C35.3105 22 36.6205 23.05 37.8205 24.1C36.6105 25.15 35.3005 26.2 33.9105 27.22C34.0288 25.1484 34.0321 23.0719 33.9205 21ZM30.0905 10.09C28.1705 10.82 26.1705 11.69 24.1505 12.7C22.1274 11.6957 20.0548 10.7946 17.9405 9.99997C21.3605 -0.82003 26.8105 -0.420031 30.0905 10.09ZM15.4905 11.23C12.5905 22.52 17.2805 15.48 9.00051 22.74C-2.54949 12 1.16051 6.47997 15.4905 11.23ZM4.00051 27C4.39608 27 4.78276 27.1173 5.11165 27.337C5.44055 27.5568 5.6969 27.8692 5.84827 28.2346C5.99965 28.6001 6.03925 29.0022 5.96208 29.3902C5.88491 29.7781 5.69443 30.1345 5.41473 30.4142C5.13502 30.6939 4.77866 30.8844 4.39069 30.9615C4.00273 31.0387 3.6006 30.9991 3.23515 30.8477C2.86969 30.6964 2.55734 30.44 2.33757 30.1111C2.11781 29.7822 2.00051 29.3955 2.00051 29C2.00051 28.4695 2.21123 27.9608 2.5863 27.5858C2.96137 27.2107 3.47008 27 4.00051 27ZM3.00051 32.85C3.75732 33.0316 4.55067 32.9885 5.28334 32.7259C6.016 32.4633 6.65615 31.9927 7.12533 31.3717C7.59451 30.7507 7.87234 30.0064 7.92477 29.2299C7.9772 28.4533 7.80196 27.6784 7.42051 27C7.91051 26.49 8.42051 26 8.96051 25.48C17.3205 32.77 12.5805 25.7 15.5305 36.96C8.00051 39.42 -0.509486 40 3.00051 32.85ZM18.0005 38.18C20.0986 37.3857 22.1546 36.4845 24.1605 35.48C26.1605 36.48 28.1605 37.35 30.0505 38.08C26.7505 48.43 21.3705 48.7 18.0005 38.18ZM32.5005 36.83C35.3305 25.94 30.6405 33 39.3305 25.43C50.7305 36.1 47.4605 41.91 32.4905 36.83H32.5005Z" fill="url(#paint0_linear_1704_14131)"/>
</g>
<defs>
<linearGradient id="paint0_linear_1704_14131" x1="10.2166" y1="-59.093" x2="-47.9128" y2="-14.6532" gradientUnits="userSpaceOnUse">
<stop stop-color="#2DD1DB"/>
<stop offset="0.60721" stop-color="#2D9CDB"/>
<stop offset="1" stop-color="#1A8ED0"/>
</linearGradient>
<clipPath id="clip0_1704_14131">
<rect width="48" height="48" fill="white"/>
</clipPath>
</defs>
</svg>
