<svg width="302" height="68" viewBox="0 0 302 68" fill="none" xmlns="http://www.w3.org/2000/svg">
<path opacity="0.3" d="M8.85825 49.848L8.56137 50.5368L8.56564 50.5386L8.85825 49.848ZM2.97025 45.24L2.36258 45.6796L2.97025 45.24ZM0.730248 38.136V37.386H-0.0315626L-0.0196607 38.1477L0.730248 38.136ZM10.3302 38.136L11.0784 38.0838L11.0297 37.386H10.3302V38.136ZM12.2502 42.488L11.7406 43.0384L11.7507 43.0475L12.2502 42.488ZM22.0422 42.616L22.5183 43.1955L22.5244 43.1906L22.5303 43.1854L22.0422 42.616ZM22.6182 35.384L22.0745 35.9006L22.6182 35.384ZM19.5462 33.4L19.2508 34.0894L19.2654 34.0956L19.2803 34.1012L19.5462 33.4ZM14.5542 31.736L14.3426 32.4556L14.352 32.4582L14.5542 31.736ZM7.45025 29.24L7.1278 29.9171L7.1374 29.9217L7.14713 29.926L7.45025 29.24ZM2.77825 25.464L2.17825 25.914L2.18457 25.9224L2.19113 25.9307L2.77825 25.464ZM2.84225 11.768L3.4642 12.1871L2.84225 11.768ZM8.41025 7.288L8.70572 7.97743L8.71599 7.97285L8.41025 7.288ZM27.8022 9.08L27.3369 9.66829L27.3467 9.67577L27.8022 9.08ZM32.6022 18.424V19.174H33.4102L33.3502 18.3683L32.6022 18.424ZM22.7462 18.424L21.9974 18.4656L22.0368 19.174H22.7462V18.424ZM20.7622 14.648L20.2742 15.2174L20.285 15.2267L20.2962 15.2356L20.7622 14.648ZM11.7382 14.456L11.2559 13.8817L11.2501 13.8866L11.2444 13.8916L11.7382 14.456ZM11.3542 21.368L10.8098 21.8838L10.8237 21.8985L10.8384 21.9125L11.3542 21.368ZM14.2982 23.288L13.9936 23.9734L14.0087 23.98L14.024 23.9861L14.2982 23.288ZM19.2902 24.952L19.0747 25.6704L19.0786 25.6715L19.2902 24.952ZM31.1302 31.352L30.5374 31.8114L31.1302 31.352ZM31.2582 44.728L30.6163 44.3402L31.2582 44.728ZM25.8182 49.656L26.1537 50.3269L26.1631 50.322L25.8182 49.656ZM17.3062 50.698C14.2782 50.698 11.5636 50.1798 9.15086 49.1574L8.56564 50.5386C11.1876 51.6495 14.105 52.198 17.3062 52.198V50.698ZM9.15512 49.1593C6.79323 48.1412 4.94237 46.6866 3.57792 44.8004L2.36258 45.6796C3.89946 47.8041 5.97393 49.4215 8.56138 50.5367L9.15512 49.1593ZM3.57792 44.8004C2.22672 42.9326 1.52068 40.7178 1.48016 38.1243L-0.0196607 38.1477C0.0251496 41.0156 0.812447 43.5368 2.36258 45.6796L3.57792 44.8004ZM0.730248 38.886H10.3302V37.386H0.730248V38.886ZM9.58207 38.1882C9.72092 40.1784 10.425 41.8201 11.7407 43.0383L12.7598 41.9377C11.7715 41.0226 11.1956 39.763 11.0784 38.0838L9.58207 38.1882ZM11.7507 43.0475C13.1178 44.268 14.9349 44.838 17.1142 44.838V43.338C15.1976 43.338 13.772 42.8413 12.7498 41.9285L11.7507 43.0475ZM17.1142 44.838C19.3174 44.838 21.1488 44.3205 22.5183 43.1955L21.5662 42.0365C20.5464 42.8742 19.0924 43.338 17.1142 43.338V44.838ZM22.5303 43.1854C23.897 42.0141 24.5842 40.4806 24.5842 38.648H23.0842C23.0842 40.058 22.5769 41.1699 21.5542 42.0466L22.5303 43.1854ZM24.5842 38.648C24.5842 37.1588 24.1218 35.8778 23.162 34.8674L22.0745 35.9006C22.736 36.5969 23.0842 37.4918 23.0842 38.648H24.5842ZM23.162 34.8674C22.2646 33.9228 21.1417 33.203 19.8122 32.6988L19.2803 34.1012C20.4255 34.5356 21.3505 35.1385 22.0745 35.9006L23.162 34.8674ZM19.8417 32.7106C18.6029 32.1797 16.9028 31.6147 14.7565 31.0138L14.352 32.4582C16.4724 33.0519 18.1002 33.5963 19.2508 34.0894L19.8417 32.7106ZM14.7659 31.0165C11.8818 30.1682 9.54744 29.3467 7.75337 28.554L7.14713 29.926C9.02239 30.7546 11.4241 31.5971 14.3426 32.4555L14.7659 31.0165ZM7.7727 28.5629C6.09101 27.7621 4.62213 26.5784 3.36537 24.9973L2.19113 25.9307C3.5797 27.6776 5.22548 29.0113 7.1278 29.9171L7.7727 28.5629ZM3.37825 25.014C2.22266 23.4732 1.60825 21.3855 1.60825 18.68H0.108248C0.108248 21.6065 0.773836 24.0415 2.17825 25.914L3.37825 25.014ZM1.60825 18.68C1.60825 16.1658 2.23464 14.0116 3.4642 12.1871L2.2203 11.3489C0.804523 13.4497 0.108248 15.9036 0.108248 18.68H1.60825ZM3.4642 12.1871C4.69842 10.3557 6.43537 8.95035 8.70569 7.97736L8.11481 6.59864C5.60646 7.67365 3.63141 9.25495 2.2203 11.3489L3.4642 12.1871ZM8.71599 7.97285C10.9938 6.95596 13.6175 6.438 16.6022 6.438V4.938C13.443 4.938 10.6053 5.48671 8.10451 6.60314L8.71599 7.97285ZM16.6022 6.438C21.0868 6.438 24.6424 7.53674 27.3369 9.66821L28.2676 8.49179C25.2447 6.1006 21.3337 4.938 16.6022 4.938V6.438ZM27.3467 9.67577C30.0596 11.7504 31.5698 14.6584 31.8543 18.4797L33.3502 18.3683C33.0374 14.1683 31.3476 10.847 28.2578 8.48423L27.3467 9.67577ZM32.6022 17.674H22.7462V19.174H32.6022V17.674ZM23.4951 18.3824C23.3975 16.6259 22.6285 15.1709 21.2283 14.0604L20.2962 15.2356C21.3707 16.0878 21.9243 17.1501 21.9974 18.4656L23.4951 18.3824ZM21.2503 14.0786C19.8858 12.909 18.0962 12.362 15.9622 12.362V13.862C17.839 13.862 19.2493 14.339 20.2742 15.2174L21.2503 14.0786ZM15.9622 12.362C14.0829 12.362 12.4894 12.8456 11.2559 13.8817L12.2206 15.0303C13.1205 14.2744 14.343 13.862 15.9622 13.862V12.362ZM11.2444 13.8916C10.0177 14.9649 9.45225 16.4964 9.45225 18.36H10.9522C10.9522 16.8103 11.4108 15.7391 12.2321 15.0204L11.2444 13.8916ZM9.45225 18.36C9.45225 19.7318 9.90002 20.9235 10.8098 21.8838L11.8987 20.8522C11.2725 20.1912 10.9522 19.3775 10.9522 18.36H9.45225ZM10.8384 21.9125C11.7184 22.7461 12.7737 23.4312 13.9936 23.9734L14.6029 22.6026C13.5188 22.1208 12.6114 21.5259 11.8701 20.8235L10.8384 21.9125ZM14.024 23.9861C15.2469 24.4665 16.9337 25.028 19.0747 25.6704L19.5058 24.2336C17.3802 23.5959 15.7389 23.0482 14.5725 22.5899L14.024 23.9861ZM19.0786 25.6715C21.9598 26.5189 24.2893 27.3601 26.078 28.192L26.7105 26.832C24.8299 25.9572 22.4234 25.0917 19.5019 24.2325L19.0786 25.6715ZM26.078 28.192C27.7969 28.9916 29.283 30.1928 30.5374 31.8114L31.7231 30.8926C30.3322 29.0979 28.6609 27.7391 26.7105 26.832L26.078 28.192ZM30.5374 31.8114C31.7324 33.3533 32.3643 35.4172 32.3643 38.072H33.8643C33.8643 35.1801 33.1735 32.7641 31.7231 30.8926L30.5374 31.8114ZM32.3643 38.072C32.3643 40.3244 31.7831 42.409 30.6163 44.3402L31.9002 45.1158C33.2081 42.951 33.8643 40.5983 33.8643 38.072H32.3643ZM30.6163 44.3402C29.4591 46.2556 27.7556 47.8081 25.4734 48.99L26.1631 50.322C28.6595 49.0292 30.5827 47.2964 31.9002 45.1158L30.6163 44.3402ZM25.4828 48.9852C23.2189 50.1172 20.5014 50.698 17.3062 50.698V52.198C20.6817 52.198 23.639 51.5842 26.1537 50.3268L25.4828 48.9852ZM78.1942 15.544H78.9442V14.794H78.1942V15.544ZM78.1942 51V51.75H78.9442V51H78.1942ZM69.1702 51H68.4202V51.75H69.1702V51ZM69.1702 46.52H69.9202V44.27L68.5703 46.07L69.1702 46.52ZM64.6263 50.168L64.9426 50.8481L64.9493 50.8449L64.6263 50.168ZM51.2502 49.72L50.8838 50.3745L50.8939 50.3799L51.2502 49.72ZM46.1942 44.536L45.5284 44.8812L45.5323 44.8887L45.5363 44.896L46.1942 44.536ZM44.4022 15.544V14.794H43.6522V15.544H44.4022ZM53.3622 15.544H54.1122V14.794H53.3622V15.544ZM55.4743 41.592L54.9213 42.0988L54.9286 42.1065L55.4743 41.592ZM67.0583 41.592L67.604 42.1066L67.6111 42.0988L67.0583 41.592ZM69.1702 15.544V14.794H68.4202V15.544H69.1702ZM77.4442 15.544V51H78.9442V15.544H77.4442ZM78.1942 50.25H69.1702V51.75H78.1942V50.25ZM69.9202 51V46.52H68.4202V51H69.9202ZM68.5703 46.07C67.4969 47.5012 66.0806 48.6428 64.3032 49.4911L64.9493 50.8449C66.9266 49.9012 68.5396 48.6108 69.7702 46.97L68.5703 46.07ZM64.31 49.488C62.5817 50.2918 60.6854 50.698 58.6102 50.698V52.198C60.8871 52.198 63.0015 51.7509 64.9426 50.848L64.31 49.488ZM58.6102 50.698C55.9433 50.698 53.6156 50.1449 51.6066 49.0601L50.8939 50.3799C53.1516 51.5991 55.7306 52.198 58.6102 52.198V50.698ZM51.6167 49.0656C49.613 47.9436 48.0258 46.3208 46.8522 44.176L45.5363 44.896C46.8374 47.2739 48.6208 49.1071 50.8838 50.3744L51.6167 49.0656ZM46.8601 44.1908C45.7314 42.0141 45.1522 39.4069 45.1522 36.344H43.6522C43.6522 39.5958 44.2677 42.4499 45.5284 44.8812L46.8601 44.1908ZM45.1522 36.344V15.544H43.6522V36.344H45.1522ZM44.4022 16.294H53.3622V14.794H44.4022V16.294ZM52.6122 15.544V35.064H54.1122V15.544H52.6122ZM52.6122 35.064C52.6122 38.0007 53.3476 40.382 54.9214 42.0988L56.0271 41.0852C54.7848 39.73 54.1122 37.7593 54.1122 35.064H52.6122ZM54.9286 42.1065C56.5044 43.7778 58.6371 44.582 61.2343 44.582V43.082C58.9674 43.082 57.2601 42.3928 56.0199 41.0775L54.9286 42.1065ZM61.2343 44.582C63.8696 44.582 66.0256 43.7805 67.6039 42.1065L66.5126 41.0775C65.2749 42.3901 63.5482 43.082 61.2343 43.082V44.582ZM67.6111 42.0988C69.1849 40.382 69.9202 38.0007 69.9202 35.064H68.4202C68.4202 37.7593 67.7477 39.73 66.5054 41.0852L67.6111 42.0988ZM69.9202 35.064V15.544H68.4202V35.064H69.9202ZM69.1702 16.294H78.1942V14.794H69.1702V16.294ZM99.8347 20.728H99.0847V23.1797L100.456 21.1476L99.8347 20.728ZM104.571 16.568L104.224 15.9028L104.219 15.9058L104.571 16.568ZM119.739 17.208L119.346 17.8471L119.351 17.8501L119.739 17.208ZM125.563 23.608L124.894 23.9476L124.9 23.9599L125.563 23.608ZM125.563 42.808L124.896 42.4645L124.894 42.4685L125.563 42.808ZM119.739 49.272L119.343 48.6348L119.338 48.6379L119.739 49.272ZM104.571 50.04L104.213 50.699L104.221 50.7036L104.23 50.708L104.571 50.04ZM99.8347 45.944L100.444 45.5066L99.0847 43.6134V45.944H99.8347ZM99.8347 51V51.75H100.585V51H99.8347ZM90.8747 51H90.1247V51.75H90.8747V51ZM90.8747 3.64V2.89H90.1247V3.64H90.8747ZM99.8347 3.64H100.585V2.89H99.8347V3.64ZM117.243 27.64L116.583 27.9966L116.589 28.0074L116.595 28.0179L117.243 27.64ZM113.787 24.056L113.412 24.706L113.421 24.7107L113.787 24.056ZM104.571 24.12L104.945 24.77L104.951 24.7664L104.571 24.12ZM101.115 27.704L100.462 27.3338L100.459 27.3405L100.455 27.3474L101.115 27.704ZM101.115 38.84L100.455 39.1966L100.459 39.2035L100.462 39.2102L101.115 38.84ZM104.571 42.488L104.182 43.1294L104.193 43.1363L104.205 43.1427L104.571 42.488ZM113.787 42.424L113.406 41.7775L113.398 41.7826L113.787 42.424ZM117.243 38.776L116.59 38.4058L116.587 38.4125L116.583 38.4194L117.243 38.776ZM100.456 21.1476C101.533 19.5528 103.015 18.2453 104.923 17.2302L104.219 15.9058C102.116 17.0241 100.441 18.4899 99.2131 20.3084L100.456 21.1476ZM104.917 17.2332C106.845 16.229 109.049 15.718 111.547 15.718V14.218C108.839 14.218 106.392 14.7737 104.224 15.9028L104.917 17.2332ZM111.547 15.718C114.446 15.718 117.04 16.4308 119.346 17.8471L120.131 16.5689C117.574 14.9985 114.706 14.218 111.547 14.218V15.718ZM119.351 17.8501C121.697 19.2654 123.545 21.2895 124.894 23.9475L126.231 23.2685C124.765 20.3798 122.73 18.1373 120.126 16.5659L119.351 17.8501ZM124.9 23.9599C126.284 26.5649 126.989 29.6188 126.989 33.144H128.489C128.489 29.4159 127.743 26.1125 126.225 23.2561L124.9 23.9599ZM126.989 33.144C126.989 36.6686 126.285 39.7692 124.896 42.4645L126.229 43.1515C127.742 40.2148 128.489 36.8727 128.489 33.144H126.989ZM124.894 42.4685C123.544 45.1281 121.693 47.1761 119.343 48.6348L120.134 49.9092C122.734 48.2959 124.766 46.0346 126.231 43.1475L124.894 42.4685ZM119.338 48.6379C117.033 50.0941 114.442 50.826 111.547 50.826V52.326C114.71 52.326 117.581 51.5219 120.139 49.9061L119.338 48.6379ZM111.547 50.826C108.999 50.826 106.795 50.3334 104.912 49.372L104.23 50.708C106.358 51.7946 108.804 52.326 111.547 52.326V50.826ZM104.929 49.381C103.056 48.3634 101.567 47.0707 100.444 45.5066L99.2255 46.3814C100.492 48.1453 102.16 49.5833 104.213 50.699L104.929 49.381ZM99.0847 45.944V51H100.585V45.944H99.0847ZM99.8347 50.25H90.8747V51.75H99.8347V50.25ZM91.6247 51V3.64H90.1247V51H91.6247ZM90.8747 4.39H99.8347V2.89H90.8747V4.39ZM99.0847 3.64V20.728H100.585V3.64H99.0847ZM119.337 33.144C119.337 30.9044 118.866 28.9338 117.891 27.2621L116.595 28.0179C117.412 29.4182 117.837 31.1169 117.837 33.144H119.337ZM117.903 27.2834C116.987 25.5899 115.738 24.287 114.153 23.4013L113.421 24.7107C114.737 25.4464 115.792 26.5328 116.583 27.9966L117.903 27.2834ZM114.161 23.406C112.636 22.5282 110.971 22.09 109.179 22.09V23.59C110.715 23.59 112.121 23.9625 113.413 24.706L114.161 23.406ZM109.179 22.09C107.418 22.09 105.752 22.5551 104.19 23.4735L104.951 24.7664C106.291 23.9782 107.696 23.59 109.179 23.59V22.09ZM104.197 23.47C102.659 24.3551 101.417 25.6527 100.462 27.3338L101.767 28.0742C102.605 26.5979 103.666 25.5063 104.945 24.77L104.197 23.47ZM100.455 27.3474C99.5322 29.0545 99.0847 31.0376 99.0847 33.272H100.585C100.585 31.2397 100.991 29.5108 101.775 28.0606L100.455 27.3474ZM99.0847 33.272C99.0847 35.5064 99.5322 37.4895 100.455 39.1966L101.775 38.4834C100.991 37.0332 100.585 35.3043 100.585 33.272H99.0847ZM100.462 39.2102C101.415 40.8886 102.654 42.203 104.182 43.1294L104.959 41.8466C103.672 41.0663 102.606 39.9487 101.767 38.4698L100.462 39.2102ZM104.205 43.1427C105.764 44.0142 107.426 44.454 109.179 44.454V42.954C107.689 42.954 106.278 42.5831 104.937 41.8333L104.205 43.1427ZM109.179 44.454C110.978 44.454 112.649 43.9906 114.175 43.0654L113.398 41.7826C112.109 42.5641 110.707 42.954 109.179 42.954V44.454ZM114.167 43.0704C115.743 42.1432 116.989 40.8233 117.903 39.1326L116.583 38.4194C115.79 39.886 114.731 40.9982 113.406 41.7775L114.167 43.0704ZM117.895 39.1462C118.867 37.4342 119.337 35.424 119.337 33.144H117.837C117.837 35.216 117.411 36.9605 116.59 38.4058L117.895 39.1462ZM138.602 9.848L138.071 10.3783L138.082 10.3894L138.094 10.3999L138.602 9.848ZM138.602 2.36L139.121 2.90149L139.121 2.90104L138.602 2.36ZM146.538 2.36L146.007 2.89033L146.013 2.89597L146.019 2.90149L146.538 2.36ZM146.538 9.848L147.057 10.3895L147.062 10.384L147.068 10.3783L146.538 9.848ZM144.106 65.272L143.614 64.706L143.607 64.7117L143.601 64.7176L144.106 65.272ZM131.818 67.896H131.068V68.646H131.818V67.896ZM131.818 60.28V59.53H131.068V60.28H131.818ZM137.258 59.448L136.749 58.8969L136.738 58.9071L136.727 58.9177L137.258 59.448ZM138.09 15.544V14.794H137.34V15.544H138.09ZM147.05 15.544H147.8V14.794H147.05V15.544ZM142.634 10.57C141.176 10.57 140.021 10.1346 139.11 9.29605L138.094 10.3999C139.316 11.5241 140.848 12.07 142.634 12.07V10.57ZM139.132 9.31767C138.254 8.43915 137.816 7.37336 137.816 6.072H136.316C136.316 7.7573 136.902 9.20884 138.071 10.3783L139.132 9.31767ZM137.816 6.072C137.816 4.771 138.253 3.7332 139.121 2.90149L138.083 1.81851C136.903 2.94946 136.316 4.38633 136.316 6.072H137.816ZM139.121 2.90104C140.034 2.02463 141.186 1.574 142.634 1.574V0.0739975C140.839 0.0739975 139.303 0.647368 138.082 1.81896L139.121 2.90104ZM142.634 1.574C144.033 1.574 145.137 2.02035 146.007 2.89033L147.068 1.82967C145.89 0.651642 144.392 0.0739975 142.634 0.0739975V1.574ZM146.019 2.90149C146.887 3.7332 147.324 4.771 147.324 6.072H148.824C148.824 4.38633 148.237 2.94946 147.057 1.81851L146.019 2.90149ZM147.324 6.072C147.324 7.37336 146.886 8.43915 146.007 9.31767L147.068 10.3783C148.238 9.20884 148.824 7.7573 148.824 6.072H147.324ZM146.019 9.30651C145.151 10.1384 144.043 10.57 142.634 10.57V12.07C144.382 12.07 145.877 11.5202 147.057 10.3895L146.019 9.30651ZM146.3 56.824C146.3 60.6437 145.344 63.2015 143.614 64.706L144.598 65.838C146.793 63.9292 147.8 60.855 147.8 56.824H146.3ZM143.601 64.7176C141.865 66.2987 139.3 67.146 135.786 67.146V68.646C139.525 68.646 142.506 67.7439 144.611 65.8264L143.601 64.7176ZM135.786 67.146H131.818V68.646H135.786V67.146ZM132.568 67.896V60.28H131.068V67.896H132.568ZM131.818 61.03H134.378V59.53H131.818V61.03ZM134.378 61.03C135.805 61.03 137.019 60.7473 137.788 59.9783L136.727 58.9177C136.387 59.258 135.681 59.53 134.378 59.53V61.03ZM137.766 59.9991C138.545 59.2805 138.84 58.1726 138.84 56.888H137.34C137.34 57.9927 137.08 58.5915 136.749 58.8969L137.766 59.9991ZM138.84 56.888V15.544H137.34V56.888H138.84ZM138.09 16.294H147.05V14.794H138.09V16.294ZM146.3 15.544V56.824H147.8V15.544H146.3ZM192.446 35.96V36.71H193.082L193.186 36.0833L192.446 35.96ZM166.526 35.96V35.21H165.711L165.779 36.0223L166.526 35.96ZM169.214 41.976L168.707 42.5282L169.214 41.976ZM182.142 39.864V39.114H181.676L181.469 39.5326L182.142 39.864ZM191.806 39.864L192.525 40.0795L192.814 39.114H191.806V39.864ZM185.918 48.312L186.368 48.912L186.374 48.9078L185.918 48.312ZM166.014 49.336L165.642 49.9873L165.654 49.994L166.014 49.336ZM159.678 42.872L159.018 43.2276L159.022 43.2354L159.678 42.872ZM159.678 23.608L159.018 23.2524L159.678 23.608ZM165.95 17.208L166.314 17.8636L165.95 17.208ZM184.254 17.144L183.894 17.8016L183.898 17.804L184.254 17.144ZM190.462 23.352L189.802 23.7082L189.806 23.7145L189.809 23.7207L190.462 23.352ZM183.422 29.944V30.694H184.186L184.172 29.9301L183.422 29.944ZM180.926 24.44L180.434 25.0063L180.443 25.0137L180.926 24.44ZM169.342 24.376L169.84 24.9374L169.841 24.9366L169.342 24.376ZM166.59 29.944L165.848 29.8379L165.725 30.694H166.59V29.944ZM191.952 32.504C191.952 33.7518 191.869 34.8615 191.706 35.8367L193.186 36.0833C193.365 35.0104 193.452 33.8162 193.452 32.504H191.952ZM192.446 35.21H166.526V36.71H192.446V35.21ZM165.779 36.0223C166.005 38.7306 166.963 40.9258 168.707 42.5282L169.722 41.4238C168.308 40.1249 167.475 38.3094 167.274 35.8977L165.779 36.0223ZM168.707 42.5282C170.435 44.1161 172.562 44.902 175.038 44.902V43.402C172.907 43.402 171.151 42.7372 169.722 41.4238L168.707 42.5282ZM175.038 44.902C176.811 44.902 178.375 44.5205 179.698 43.7221C181.022 42.9225 182.058 41.7334 182.815 40.1954L181.469 39.5326C180.819 40.8533 179.966 41.8081 178.923 42.4379C177.877 43.0688 176.594 43.402 175.038 43.402V44.902ZM182.142 40.614H191.806V39.114H182.142V40.614ZM191.088 39.6485C190.11 42.9066 188.242 45.5909 185.463 47.7162L186.374 48.9078C189.397 46.5957 191.454 43.6481 192.525 40.0795L191.088 39.6485ZM185.468 47.712C182.717 49.7752 179.32 50.826 175.23 50.826V52.326C179.589 52.326 183.317 51.2008 186.368 48.912L185.468 47.712ZM175.23 50.826C171.93 50.826 168.984 50.1053 166.374 48.678L165.654 49.994C168.506 51.5534 171.704 52.326 175.23 52.326V50.826ZM166.386 48.6848C163.821 47.2186 161.805 45.1649 160.334 42.5086L159.022 43.2354C160.623 46.1258 162.832 48.3814 165.642 49.9872L166.386 48.6848ZM160.339 42.5164C158.912 39.8679 158.188 36.7935 158.188 33.272H156.688C156.688 37.0038 157.457 40.3294 159.018 43.2276L160.339 42.5164ZM158.188 33.272C158.188 29.7062 158.913 26.6109 160.339 23.9636L159.018 23.2524C157.457 26.1518 156.688 29.4991 156.688 33.272H158.188ZM160.339 23.9636C161.766 21.3133 163.755 19.2855 166.314 17.8636L165.586 16.5524C162.769 18.1171 160.577 20.3561 159.018 23.2524L160.339 23.9636ZM166.314 17.8636C168.876 16.4403 171.841 15.718 175.23 15.718V14.218C171.622 14.218 168.4 14.989 165.586 16.5524L166.314 17.8636ZM175.23 15.718C178.49 15.718 181.371 16.4184 183.894 17.8016L184.615 16.4864C181.847 14.9683 178.712 14.218 175.23 14.218V15.718ZM183.898 17.804C186.457 19.1852 188.421 21.1489 189.802 23.7082L191.122 22.9958C189.602 20.1791 187.427 18.0041 184.61 16.484L183.898 17.804ZM189.809 23.7207C191.231 26.2388 191.952 29.1591 191.952 32.504H193.452C193.452 28.9369 192.681 25.7559 191.115 22.9833L189.809 23.7207ZM184.172 29.9301C184.126 27.431 183.212 25.3842 181.409 23.8663L180.443 25.0137C181.883 26.2265 182.633 27.849 182.672 29.9579L184.172 29.9301ZM181.418 23.8737C179.647 22.3359 177.484 21.578 174.974 21.578V23.078C177.158 23.078 178.963 23.7281 180.434 25.0063L181.418 23.8737ZM174.974 21.578C172.588 21.578 170.529 22.3179 168.844 23.8154L169.841 24.9366C171.228 23.7034 172.923 23.078 174.974 23.078V21.578ZM168.845 23.8146C167.192 25.2786 166.209 27.3111 165.848 29.8379L167.333 30.0501C167.654 27.7983 168.506 26.1187 169.84 24.9374L168.845 23.8146ZM166.59 30.694H183.422V29.194H166.59V30.694ZM203.018 23.672L203.676 24.0319L203.679 24.0276L203.018 23.672ZM209.226 17.272L209.595 17.9252L209.603 17.9206L209.226 17.272ZM229.194 18.296L228.734 18.8886L228.744 18.896L229.194 18.296ZM235.018 27.512V28.262H235.976L235.746 27.3319L235.018 27.512ZM225.354 27.512L224.643 27.7492L224.814 28.262H225.354V27.512ZM222.73 23.928L222.28 24.528L222.292 24.5369L222.304 24.5454L222.73 23.928ZM212.17 25.4L212.752 25.8735L212.757 25.8669L212.17 25.4ZM212.17 41.144L211.583 41.6109L211.589 41.6175L212.17 41.144ZM225.354 39.032V38.282H224.818L224.645 38.7892L225.354 39.032ZM235.018 39.032L235.745 39.2177L235.984 38.282H235.018V39.032ZM229.194 48.184L229.655 48.7755L229.194 48.184ZM209.226 49.336L208.85 49.9846L208.858 49.9891L209.226 49.336ZM203.018 42.936L202.358 43.2916L202.36 43.2959L203.018 42.936ZM201.528 33.272C201.528 29.7059 202.253 26.634 203.676 24.0319L202.36 23.3121C200.797 26.1714 200.028 29.4995 200.028 33.272H201.528ZM203.679 24.0276C205.107 21.3741 207.078 19.3461 209.595 17.9251L208.858 16.6189C206.084 18.1845 203.916 20.4232 202.358 23.3164L203.679 24.0276ZM209.603 17.9206C212.121 16.4585 215.018 15.718 218.314 15.718V14.218C214.784 14.218 211.622 15.0135 208.85 16.6234L209.603 17.9206ZM218.314 15.718C222.579 15.718 226.034 16.7924 228.734 18.8885L229.654 17.7035C226.638 15.3623 222.839 14.218 218.314 14.218V15.718ZM228.744 18.896C231.49 20.9551 233.345 23.8693 234.29 27.6921L235.746 27.3319C234.729 23.2187 232.701 19.9889 229.644 17.696L228.744 18.896ZM235.018 26.762H225.354V28.262H235.018V26.762ZM226.066 27.2748C225.507 25.5971 224.538 24.2636 223.156 23.3106L222.304 24.5454C223.397 25.2991 224.178 26.3549 224.643 27.7492L226.066 27.2748ZM223.18 23.328C221.831 22.3163 220.171 21.834 218.25 21.834V23.334C219.913 23.334 221.24 23.7477 222.28 24.528L223.18 23.328ZM218.25 21.834C215.479 21.834 213.23 22.8635 211.583 24.9331L212.757 25.8669C214.098 24.1818 215.901 23.334 218.25 23.334V21.834ZM211.589 24.9265C209.947 26.9431 209.18 29.7606 209.18 33.272H210.68C210.68 29.9567 211.407 27.5262 212.752 25.8735L211.589 24.9265ZM209.18 33.272C209.18 36.7448 209.949 39.5563 211.583 41.6109L212.757 40.6771C211.405 38.9771 210.68 36.5405 210.68 33.272H209.18ZM211.589 41.6175C213.237 43.6429 215.486 44.646 218.25 44.646V43.146C215.895 43.146 214.09 42.3144 212.752 40.6705L211.589 41.6175ZM218.25 44.646C220.175 44.646 221.832 44.215 223.17 43.2988C224.512 42.3802 225.467 41.0184 226.064 39.2748L224.645 38.7892C224.132 40.2882 223.349 41.3585 222.323 42.0612C221.293 42.7663 219.952 43.146 218.25 43.146V44.646ZM225.354 39.782H235.018V38.282H225.354V39.782ZM234.292 38.8463C233.348 42.5386 231.493 45.4414 228.733 47.5925L229.655 48.7755C232.698 46.404 234.726 43.2054 235.745 39.2177L234.292 38.8463ZM228.733 47.5925C225.987 49.7332 222.531 50.826 218.314 50.826V52.326C222.802 52.326 226.599 51.1575 229.655 48.7755L228.733 47.5925ZM218.314 50.826C215.014 50.826 212.114 50.1052 209.595 48.6829L208.858 49.9891C211.629 51.5535 214.788 52.326 218.314 52.326V50.826ZM209.603 48.6874C207.078 47.2214 205.105 45.1889 203.676 42.5761L202.36 43.2959C203.918 46.1444 206.084 48.3786 208.85 49.9846L209.603 48.6874ZM203.679 42.5804C202.253 39.9331 201.528 36.8378 201.528 33.272H200.028C200.028 37.0449 200.797 40.3922 202.358 43.2916L203.679 42.5804ZM255.854 22.904V22.154H255.104V22.904H255.854ZM256.686 42.68L256.156 43.2103L256.176 43.2307L256.198 43.2494L256.686 42.68ZM263.79 43.448H264.54V42.698H263.79V43.448ZM263.79 51V51.75H264.54V51H263.79ZM246.83 22.904H247.58V22.154H246.83V22.904ZM242.606 22.904H241.856V23.654H242.606V22.904ZM242.606 15.544V14.794H241.856V15.544H242.606ZM246.83 15.544V16.294H247.58V15.544H246.83ZM246.83 6.776V6.026H246.08V6.776H246.83ZM255.854 6.776H256.604V6.026H255.854V6.776ZM255.854 15.544H255.104V16.294H255.854V15.544ZM263.79 15.544H264.54V14.794H263.79V15.544ZM263.79 22.904V23.654H264.54V22.904H263.79ZM255.104 22.904V40.056H256.604V22.904H255.104ZM255.104 40.056C255.104 41.3474 255.402 42.4563 256.156 43.2103L257.217 42.1497C256.861 41.7944 256.604 41.1539 256.604 40.056H255.104ZM256.198 43.2494C257.001 43.9374 258.206 44.198 259.63 44.198V42.698C258.324 42.698 257.566 42.4466 257.174 42.1106L256.198 43.2494ZM259.63 44.198H263.79V42.698H259.63V44.198ZM263.04 43.448V51H264.54V43.448H263.04ZM263.79 50.25H258.158V51.75H263.79V50.25ZM258.158 50.25C254.493 50.25 251.882 49.3593 250.185 47.7101C248.492 46.0648 247.58 43.5402 247.58 39.992H246.08C246.08 43.7825 247.057 46.7618 249.14 48.7859C251.218 50.806 254.272 51.75 258.158 51.75V50.25ZM247.58 39.992V22.904H246.08V39.992H247.58ZM246.83 22.154H242.606V23.654H246.83V22.154ZM243.356 22.904V15.544H241.856V22.904H243.356ZM242.606 16.294H246.83V14.794H242.606V16.294ZM247.58 15.544V6.776H246.08V15.544H247.58ZM246.83 7.526H255.854V6.026H246.83V7.526ZM255.104 6.776V15.544H256.604V6.776H255.104ZM255.854 16.294H263.79V14.794H255.854V16.294ZM263.04 15.544V22.904H264.54V15.544H263.04ZM263.79 22.154H255.854V23.654H263.79V22.154ZM279.835 50.04L279.52 50.7207L279.53 50.7254L279.835 50.04ZM274.331 45.752L273.727 46.1974L273.734 46.2065L274.331 45.752ZM272.155 39.8V39.05H271.359L271.406 39.844L272.155 39.8ZM281.179 39.8L281.923 39.707L281.841 39.05H281.179V39.8ZM283.163 43.192L282.702 43.7841L282.713 43.792L283.163 43.192ZM291.547 43.512L291.118 42.8963L291.112 42.9008L291.106 42.9054L291.547 43.512ZM291.227 38.328L290.882 38.9938L290.896 39.0014L290.911 39.0083L291.227 38.328ZM285.659 36.408L285.852 35.6833L285.844 35.6811L285.835 35.679L285.659 36.408ZM279.131 34.424L278.846 35.1179L278.852 35.1204L279.131 34.424ZM274.779 31.288L274.207 31.7733L274.215 31.7831L274.779 31.288ZM274.651 20.216L274.039 19.7815L274.032 19.7925L274.651 20.216ZM279.515 16.376L279.213 15.6895L279.208 15.6918L279.515 16.376ZM297.115 18.168L296.63 18.7402L296.636 18.745L297.115 18.168ZM301.275 26.68V27.43H302.08L302.023 26.6266L301.275 26.68ZM292.699 26.68L291.952 26.7479L292.014 27.43H292.699V26.68ZM290.907 23.352L290.427 23.9282L290.44 23.9389L290.453 23.9491L290.907 23.352ZM282.971 22.968L282.555 22.344L282.548 22.3487L282.541 22.3536L282.971 22.968ZM283.483 28.216L283.129 28.8771L283.138 28.8821L283.147 28.8868L283.483 28.216ZM289.051 30.072L288.866 30.7989L288.869 30.7996L289.051 30.072ZM299.675 35.256L299.096 35.7328L299.103 35.7421L299.111 35.7511L299.675 35.256ZM301.595 40.888H302.345L302.345 40.8744L301.595 40.888ZM299.867 46.392L299.255 45.9575L299.248 45.9685L299.867 46.392ZM295.003 50.232L295.298 50.9214L295.305 50.9185L295.003 50.232ZM287.643 50.826C284.831 50.826 282.334 50.3301 280.139 49.3546L279.53 50.7254C281.943 51.7979 284.652 52.326 287.643 52.326V50.826ZM280.15 49.3594C277.942 48.3374 276.21 46.9805 274.927 45.2975L273.734 46.2065C275.182 48.1075 277.119 49.6092 279.52 50.7206L280.15 49.3594ZM274.934 45.3066C273.696 43.6288 273.023 41.7836 272.903 39.756L271.406 39.844C271.543 42.1684 272.32 44.2912 273.727 46.1974L274.934 45.3066ZM272.155 40.55H281.179V39.05H272.155V40.55ZM280.435 39.893C280.632 41.4686 281.404 42.7741 282.702 43.784L283.623 42.6C282.618 41.8179 282.067 40.862 281.923 39.707L280.435 39.893ZM282.713 43.792C284.059 44.8013 285.696 45.286 287.579 45.286V43.786C285.963 43.786 284.656 43.3747 283.613 42.592L282.713 43.792ZM287.579 45.286C289.373 45.286 290.873 44.929 291.988 44.1186L291.106 42.9054C290.343 43.4603 289.198 43.786 287.579 43.786V45.286ZM291.975 44.1277C293.13 43.3245 293.769 42.2328 293.769 40.888H292.269C292.269 41.6766 291.927 42.3342 291.118 42.8963L291.975 44.1277ZM293.769 40.888C293.769 40.1752 293.581 39.5199 293.185 38.9539C292.793 38.3939 292.229 37.9662 291.543 37.6477L290.911 39.0083C291.42 39.2444 291.751 39.5207 291.956 39.8141C292.157 40.1014 292.269 40.4488 292.269 40.888H293.769ZM291.572 37.6622C290.344 37.0254 288.422 36.3687 285.852 35.6833L285.466 37.1327C288.015 37.8127 289.806 38.4359 290.882 38.9938L291.572 37.6622ZM285.835 35.679C283.21 35.0439 281.071 34.3923 279.409 33.7276L278.852 35.1204C280.604 35.821 282.817 36.4921 285.482 37.137L285.835 35.679ZM279.415 33.7301C277.863 33.0932 276.506 32.1178 275.342 30.7929L274.215 31.7831C275.526 33.2742 277.071 34.3895 278.846 35.1179L279.415 33.7301ZM275.351 30.8028C274.301 29.566 273.737 27.8568 273.737 25.592H272.237C272.237 28.1058 272.867 30.194 274.207 31.7732L275.351 30.8028ZM273.737 25.592C273.737 23.7806 274.246 22.1362 275.27 20.6395L274.032 19.7925C272.837 21.5384 272.237 23.478 272.237 25.592H273.737ZM275.262 20.6504C276.326 19.1536 277.834 17.9526 279.822 17.0602L279.208 15.6918C277.014 16.6767 275.28 18.0357 274.039 19.7816L275.262 20.6504ZM279.817 17.0625C281.836 16.1741 284.225 15.718 287.003 15.718V14.218C284.063 14.218 281.46 14.7006 279.213 15.6895L279.817 17.0625ZM287.003 15.718C291.1 15.718 294.282 16.7507 296.63 18.7402L297.6 17.5958C294.913 15.3186 291.353 14.218 287.003 14.218V15.718ZM296.636 18.745C298.979 20.6915 300.284 23.3312 300.527 26.7334L302.023 26.6266C301.754 22.8608 300.285 19.8258 297.594 17.591L296.636 18.745ZM301.275 25.93H292.699V27.43H301.275V25.93ZM293.446 26.6121C293.3 25.0074 292.605 23.7007 291.361 22.7549L290.453 23.9491C291.342 24.6246 291.842 25.5366 291.952 26.7479L293.446 26.6121ZM291.387 22.7758C290.191 21.7792 288.616 21.322 286.747 21.322V22.822C288.376 22.822 289.575 23.2182 290.427 23.9282L291.387 22.7758ZM286.747 21.322C285.047 21.322 283.622 21.6327 282.555 22.344L283.387 23.592C284.112 23.1086 285.203 22.822 286.747 22.822V21.322ZM282.541 22.3536C281.481 23.0952 280.941 24.1596 280.941 25.464H282.441C282.441 24.6351 282.754 24.0354 283.401 23.5824L282.541 22.3536ZM280.941 25.464C280.941 26.1928 281.125 26.8657 281.51 27.4573C281.892 28.0439 282.446 28.5116 283.129 28.8771L283.837 27.5549C283.325 27.2804 282.983 26.9694 282.767 26.6387C282.555 26.3129 282.441 25.9298 282.441 25.464H280.941ZM283.147 28.8868C284.416 29.5212 286.336 30.1556 288.866 30.7989L289.236 29.3451C286.731 28.7084 284.939 28.1054 283.818 27.5452L283.147 28.8868ZM288.869 30.7996C291.408 31.4345 293.483 32.0856 295.102 32.7499L295.671 31.3621C293.963 30.661 291.813 29.9895 289.233 29.3444L288.869 30.7996ZM295.102 32.7499C296.646 33.3834 297.976 34.3732 299.096 35.7328L300.254 34.7792C298.984 33.2375 297.455 32.0939 295.671 31.3621L295.102 32.7499ZM299.111 35.7511C300.204 36.9948 300.805 38.6863 300.845 40.9016L302.345 40.8744C302.3 38.3963 301.62 36.3332 300.238 34.7609L299.111 35.7511ZM300.845 40.888C300.845 42.7853 300.314 44.4671 299.255 45.9576L300.478 46.8264C301.723 45.0742 302.345 43.0867 302.345 40.888H300.845ZM299.248 45.9685C298.231 47.4543 296.73 48.6526 294.701 49.5455L295.305 50.9185C297.542 49.9341 299.284 48.5724 300.486 46.8155L299.248 45.9685ZM294.707 49.5426C292.729 50.3903 290.381 50.826 287.643 50.826V52.326C290.537 52.326 293.095 51.8657 295.298 50.9214L294.707 49.5426Z" fill="url(#paint0_linear_1704_14179)"/>
<defs>
<linearGradient id="paint0_linear_1704_14179" x1="62.43" y1="-92.1539" x2="14.3329" y2="69.1677" gradientUnits="userSpaceOnUse">
<stop stop-color="#2DD1DB"/>
<stop offset="0.60721" stop-color="#2D9CDB"/>
<stop offset="1" stop-color="#1A8ED0"/>
</linearGradient>
</defs>
</svg>
