<svg width="753" height="68" viewBox="0 0 753 68" fill="none" xmlns="http://www.w3.org/2000/svg">
<path opacity="0.3" d="M11.9332 47.504L12.3002 46.8499L11.9332 47.504ZM3.61324 39.376L2.96597 39.7549L2.96802 39.7584L3.61324 39.376ZM3.61324 15.824L4.25847 16.2064L4.2605 16.2029L3.61324 15.824ZM11.9332 7.632L11.5663 6.97789H11.5663L11.9332 7.632ZM34.9732 7.632L34.6029 8.28418L34.6063 8.2861L34.9732 7.632ZM43.2292 15.824L42.5785 16.197L42.584 16.2064L43.2292 15.824ZM43.2292 39.376L42.582 38.9971L42.5805 38.9996L43.2292 39.376ZM34.9732 47.504L34.6063 46.8499L34.9732 47.504ZM30.5572 40.656L30.9352 41.3039L30.9451 41.2979L30.5572 40.656ZM35.3572 35.408L36.0255 35.7484H36.0255L35.3572 35.408ZM35.3572 19.728L34.6889 20.0685L34.6916 20.0736L35.3572 19.728ZM30.5572 14.544L30.1793 15.1918L30.5572 14.544ZM16.2852 14.544L15.9131 13.8928L15.9073 13.8962L16.2852 14.544ZM11.4852 19.728L12.1509 20.0736L12.1535 20.0684L11.4852 19.728ZM11.4852 35.408L12.1535 35.0676L11.4852 35.408ZM16.2852 40.656L15.8974 41.2979L15.9052 41.3027L15.9131 41.3072L16.2852 40.656ZM23.4532 49.698C19.3948 49.698 15.6819 48.747 12.3002 46.8499L11.5663 48.1581C15.1819 50.1864 19.1491 51.198 23.4532 51.198V49.698ZM12.3002 46.8499C8.91673 44.9519 6.23931 42.3363 4.25846 38.9936L2.96802 39.7584C5.08317 43.3277 7.95242 46.1308 11.5663 48.1581L12.3002 46.8499ZM4.2605 38.9971C2.28539 35.623 1.29124 31.809 1.29124 27.536H-0.208761C-0.208761 32.0523 0.845093 36.1317 2.96598 39.7549L4.2605 38.9971ZM1.29124 27.536C1.29124 23.3069 2.28473 19.537 4.25846 16.2063L2.96802 15.4416C0.845753 19.023 -0.208761 23.0611 -0.208761 27.536H1.29124ZM4.2605 16.2029C6.24192 12.818 8.91903 10.1828 12.3002 8.2861L11.5663 6.97789C7.95011 9.00648 5.08056 11.8327 2.96598 15.4451L4.2605 16.2029ZM12.3002 8.2861C15.6819 6.38902 19.3948 5.438 23.4532 5.438V3.938C19.1491 3.938 15.1819 4.94964 11.5663 6.97789L12.3002 8.2861ZM23.4532 5.438C27.5558 5.438 31.2669 6.38967 34.6029 8.28417L35.3436 6.97983C31.7676 4.949 27.7986 3.938 23.4532 3.938V5.438ZM34.6063 8.2861C37.9861 10.1821 40.6403 12.8153 42.5785 16.197L43.8799 15.451C41.8075 11.8354 38.9578 9.00726 35.3402 6.97789L34.6063 8.2861ZM42.584 16.2064C44.5578 19.537 45.5512 23.3069 45.5512 27.536H47.0512C47.0512 23.0611 45.9967 19.023 43.8745 15.4416L42.584 16.2064ZM45.5512 27.536C45.5512 31.809 44.5571 35.623 42.582 38.9971L43.8765 39.7549C45.9974 36.1317 47.0512 32.0523 47.0512 27.536H45.5512ZM42.5805 38.9996C40.6429 42.339 37.9884 44.9526 34.6063 46.8499L35.3402 48.1581C38.9554 46.13 41.805 43.325 43.8779 39.7524L42.5805 38.9996ZM34.6063 46.8499C31.2245 48.747 27.5117 49.698 23.4532 49.698V51.198C27.7574 51.198 31.7246 50.1864 35.3402 48.1581L34.6063 46.8499ZM23.4532 43.198C26.2559 43.198 28.7578 42.574 30.9351 41.3038L30.1793 40.0082C28.2607 41.1274 26.0265 41.698 23.4532 41.698V43.198ZM30.9451 41.2979C33.1202 39.9838 34.814 38.1266 36.0255 35.7484L34.689 35.0676C33.5965 37.2121 32.0903 38.8535 30.1694 40.0141L30.9451 41.2979ZM36.0255 35.7484C37.24 33.3645 37.8352 30.6201 37.8352 27.536H36.3352C36.3352 30.4252 35.7785 32.9288 34.689 35.0676L36.0255 35.7484ZM37.8352 27.536C37.8352 24.4523 37.2401 21.7267 36.0229 19.3824L34.6916 20.0736C35.7784 22.1666 36.3352 24.6464 36.3352 27.536H37.8352ZM36.0255 19.3876C34.813 17.0075 33.1163 15.1685 30.9351 13.8962L30.1793 15.1918C32.0942 16.3089 33.5975 17.9259 34.689 20.0684L36.0255 19.3876ZM30.9351 13.8962C28.7578 12.626 26.2559 12.002 23.4532 12.002V13.502C26.0265 13.502 28.2607 14.0726 30.1793 15.1918L30.9351 13.8962ZM23.4532 12.002C20.6502 12.002 18.1299 12.6261 15.9131 13.8928L16.6573 15.1952C18.6219 14.0726 20.8802 13.502 23.4532 13.502V12.002ZM15.9073 13.8962C13.7262 15.1685 12.0295 17.0075 10.817 19.3876L12.1535 20.0684C13.245 17.9259 14.7483 16.3089 16.6631 15.1918L15.9073 13.8962ZM10.8196 19.3824C9.60236 21.7267 9.00724 24.4523 9.00724 27.536H10.5072C10.5072 24.6464 11.0641 22.1666 12.1509 20.0736L10.8196 19.3824ZM9.00724 27.536C9.00724 30.6201 9.60251 33.3645 10.817 35.7484L12.1535 35.0676C11.064 32.9288 10.5072 30.4252 10.5072 27.536H9.00724ZM10.817 35.7484C12.0285 38.1266 13.7223 39.9838 15.8974 41.2979L16.6731 40.0141C14.7522 38.8535 13.246 37.2121 12.1535 35.0676L10.817 35.7484ZM15.9131 41.3072C18.1299 42.5739 20.6502 43.198 23.4532 43.198V41.698C20.8802 41.698 18.6219 41.1274 16.6573 40.0048L15.9131 41.3072ZM90.2792 14.544H91.0292V13.794H90.2792V14.544ZM90.2792 50V50.75H91.0292V50H90.2792ZM81.2552 50H80.5052V50.75H81.2552V50ZM81.2552 45.52H82.0052V43.27L80.6552 45.07L81.2552 45.52ZM76.7112 49.168L77.0276 49.8481L77.0343 49.8449L76.7112 49.168ZM63.3352 48.72L62.9687 49.3745L62.9789 49.3799L63.3352 48.72ZM58.2792 43.536L57.6134 43.8812L57.6173 43.8887L57.6213 43.896L58.2792 43.536ZM56.4872 14.544V13.794H55.7372V14.544H56.4872ZM65.4472 14.544H66.1972V13.794H65.4472V14.544ZM67.5592 40.592L67.0063 41.0988L67.0135 41.1065L67.5592 40.592ZM79.1432 40.592L79.689 41.1066L79.6961 41.0988L79.1432 40.592ZM81.2552 14.544V13.794H80.5052V14.544H81.2552ZM89.5292 14.544V50H91.0292V14.544H89.5292ZM90.2792 49.25H81.2552V50.75H90.2792V49.25ZM82.0052 50V45.52H80.5052V50H82.0052ZM80.6552 45.07C79.5818 46.5012 78.1656 47.6428 76.3882 48.4911L77.0343 49.8449C79.0116 48.9012 80.6246 47.6108 81.8552 45.97L80.6552 45.07ZM76.3949 48.488C74.6667 49.2918 72.7703 49.698 70.6952 49.698V51.198C72.9721 51.198 75.0865 50.7509 77.0275 49.848L76.3949 48.488ZM70.6952 49.698C68.0282 49.698 65.7006 49.1449 63.6916 48.0601L62.9789 49.3799C65.2366 50.5991 67.8156 51.198 70.6952 51.198V49.698ZM63.7017 48.0656C61.698 46.9436 60.1108 45.3208 58.9372 43.176L57.6213 43.896C58.9224 46.2739 60.7058 48.1071 62.9688 49.3744L63.7017 48.0656ZM58.9451 43.1908C57.8164 41.0141 57.2372 38.4069 57.2372 35.344H55.7372C55.7372 38.5958 56.3527 41.4499 57.6134 43.8812L58.9451 43.1908ZM57.2372 35.344V14.544H55.7372V35.344H57.2372ZM56.4872 15.294H65.4472V13.794H56.4872V15.294ZM64.6972 14.544V34.064H66.1972V14.544H64.6972ZM64.6972 34.064C64.6972 37.0007 65.4326 39.382 67.0064 41.0988L68.1121 40.0852C66.8698 38.73 66.1972 36.7593 66.1972 34.064H64.6972ZM67.0135 41.1065C68.5894 42.7778 70.7221 43.582 73.3192 43.582V42.082C71.0524 42.082 69.3451 41.3928 68.1049 40.0775L67.0135 41.1065ZM73.3192 43.582C75.9546 43.582 78.1106 42.7805 79.6889 41.1065L78.5975 40.0775C77.3599 41.3901 75.6332 42.082 73.3192 42.082V43.582ZM79.6961 41.0988C81.2698 39.382 82.0052 37.0007 82.0052 34.064H80.5052C80.5052 36.7593 79.8326 38.73 78.5904 40.0852L79.6961 41.0988ZM82.0052 34.064V14.544H80.5052V34.064H82.0052ZM81.2552 15.294H90.2792V13.794H81.2552V15.294ZM111.92 20.048H111.17V22.7042L112.559 20.4403L111.92 20.048ZM116.4 15.632L116.029 14.9799L116.023 14.9836L116.4 15.632ZM122.8 14.032H123.55V13.282H122.8V14.032ZM122.8 23.44V24.19H123.55V23.44H122.8ZM114.032 25.424L113.526 24.8697L113.518 24.8774L114.032 25.424ZM111.92 50V50.75H112.67V50H111.92ZM102.96 50H102.21V50.75H102.96V50ZM102.96 14.544V13.794H102.21V14.544H102.96ZM111.92 14.544H112.67V13.794H111.92V14.544ZM112.559 20.4403C113.649 18.6645 115.053 17.2823 116.777 16.2804L116.023 14.9836C114.077 16.1151 112.495 17.6768 111.28 19.6557L112.559 20.4403ZM116.77 16.2841C118.523 15.2883 120.526 14.782 122.8 14.782V13.282C120.295 13.282 118.031 13.8424 116.029 14.9799L116.77 16.2841ZM122.05 14.032V23.44H123.55V14.032H122.05ZM122.8 22.69H120.432V24.19H122.8V22.69ZM120.432 22.69C117.509 22.69 115.165 23.3758 113.526 24.8698L114.537 25.9782C115.8 24.8269 117.722 24.19 120.432 24.19V22.69ZM113.518 24.8774C111.882 26.4142 111.17 28.9809 111.17 32.336H112.67C112.67 29.1205 113.365 27.0791 114.545 25.9706L113.518 24.8774ZM111.17 32.336V50H112.67V32.336H111.17ZM111.92 49.25H102.96V50.75H111.92V49.25ZM103.71 50V14.544H102.21V50H103.71ZM102.96 15.294H111.92V13.794H102.96V15.294ZM111.17 14.544V20.048H112.67V14.544H111.17ZM174.805 50L174.152 50.3695L174.368 50.75H174.805V50ZM164.949 32.592L165.601 32.2225L165.386 31.842H164.949V32.592ZM160.725 32.592V31.842H159.975V32.592H160.725ZM160.725 50V50.75H161.475V50H160.725ZM151.765 50H151.015V50.75H151.765V50ZM151.765 5.328V4.578H151.015V5.328H151.765ZM177.365 7.184L177.025 7.85252L177.034 7.85716L177.365 7.184ZM182.805 12.112L182.154 12.4841L182.158 12.492L182.163 12.4998L182.805 12.112ZM182.101 27.024L182.707 27.4651L182.711 27.4599L182.101 27.024ZM174.485 31.888L174.292 31.1632L173.336 31.4173L173.839 32.2692L174.485 31.888ZM185.173 50V50.75H186.486L185.819 49.6188L185.173 50ZM160.725 25.872H159.975V26.622H160.725V25.872ZM173.653 24.144L174.173 24.684L174.183 24.6743L173.653 24.144ZM173.653 14.48L173.132 15.02L173.142 15.0296L173.653 14.48ZM160.725 12.752V12.002H159.975V12.752H160.725ZM175.457 49.6305L165.601 32.2225L164.296 32.9615L174.152 50.3695L175.457 49.6305ZM164.949 31.842H160.725V33.342H164.949V31.842ZM159.975 32.592V50H161.475V32.592H159.975ZM160.725 49.25H151.765V50.75H160.725V49.25ZM152.515 50V5.328H151.015V50H152.515ZM151.765 6.078H168.533V4.578H151.765V6.078ZM168.533 6.078C171.901 6.078 174.722 6.6811 177.025 7.85246L177.705 6.51554C175.143 5.21224 172.076 4.578 168.533 4.578V6.078ZM177.034 7.85716C179.349 8.99433 181.042 10.5395 182.154 12.4841L183.456 11.7399C182.178 9.50318 180.244 7.763 177.695 6.51083L177.034 7.85716ZM182.163 12.4998C183.324 14.4226 183.911 16.5908 183.911 19.024H185.411C185.411 16.3372 184.76 13.8974 183.447 11.7242L182.163 12.4998ZM183.911 19.024C183.911 21.8121 183.106 24.3263 181.49 26.5881L182.711 27.4599C184.509 24.943 185.411 22.1239 185.411 19.024H183.911ZM181.494 26.5829C179.908 28.7636 177.531 30.3021 174.292 31.1632L174.677 32.6128C178.18 31.6819 180.88 29.9777 182.707 27.4651L181.494 26.5829ZM173.839 32.2692L184.527 50.3812L185.819 49.6188L175.131 31.5068L173.839 32.2692ZM185.173 49.25H174.805V50.75H185.173V49.25ZM160.725 26.622H168.213V25.122H160.725V26.622ZM168.213 26.622C170.749 26.622 172.785 26.0222 174.173 24.6839L173.132 23.6041C172.131 24.5698 170.54 25.122 168.213 25.122V26.622ZM174.183 24.6743C175.55 23.3072 176.195 21.4555 176.195 19.216H174.695C174.695 21.1578 174.145 22.5915 173.122 23.6137L174.183 24.6743ZM176.195 19.216C176.195 17.0165 175.548 15.2163 174.163 13.9304L173.142 15.0296C174.147 15.9624 174.695 17.3195 174.695 19.216H176.195ZM174.173 13.9401C172.785 12.6018 170.749 12.002 168.213 12.002V13.502C170.54 13.502 172.131 14.0542 173.132 15.0199L174.173 13.9401ZM168.213 12.002H160.725V13.502H168.213V12.002ZM159.975 12.752V25.872H161.475V12.752H159.975ZM229.309 34.96V35.71H229.944L230.049 35.0833L229.309 34.96ZM203.389 34.96V34.21H202.574L202.641 35.0223L203.389 34.96ZM206.077 40.976L205.569 41.5282L206.077 40.976ZM219.005 38.864V38.114H218.538L218.332 38.5326L219.005 38.864ZM228.669 38.864L229.387 39.0795L229.677 38.114H228.669V38.864ZM222.781 47.312L223.231 47.912L223.236 47.9078L222.781 47.312ZM202.877 48.336L202.505 48.9873L202.517 48.994L202.877 48.336ZM196.541 41.872L195.88 42.2276L195.885 42.2354L196.541 41.872ZM196.541 22.608L195.88 22.2524L196.541 22.608ZM202.813 16.208L203.177 16.8636L202.813 16.208ZM221.117 16.144L220.756 16.8016L220.761 16.804L221.117 16.144ZM227.325 22.352L226.665 22.7082L226.668 22.7145L226.672 22.7207L227.325 22.352ZM220.285 28.944V29.694H221.049L221.035 28.9301L220.285 28.944ZM217.789 23.44L217.297 24.0063L217.306 24.0137L217.789 23.44ZM206.205 23.376L206.702 23.9374L206.703 23.9366L206.205 23.376ZM203.453 28.944L202.71 28.8379L202.588 29.694H203.453V28.944ZM228.815 31.504C228.815 32.7518 228.731 33.8615 228.569 34.8367L230.049 35.0833C230.227 34.0104 230.315 32.8162 230.315 31.504H228.815ZM229.309 34.21H203.389V35.71H229.309V34.21ZM202.641 35.0223C202.867 37.7306 203.825 39.9258 205.569 41.5282L206.584 40.4238C205.171 39.1249 204.337 37.3094 204.136 34.8977L202.641 35.0223ZM205.569 41.5282C207.297 43.1161 209.424 43.902 211.901 43.902V42.402C209.769 42.402 208.014 41.7372 206.584 40.4238L205.569 41.5282ZM211.901 43.902C213.673 43.902 215.238 43.5205 216.56 42.7221C217.885 41.9225 218.92 40.7334 219.678 39.1954L218.332 38.5326C217.681 39.8533 216.829 40.8081 215.785 41.4379C214.74 42.0688 213.456 42.402 211.901 42.402V43.902ZM219.005 39.614H228.669V38.114H219.005V39.614ZM227.95 38.6485C226.973 41.9066 225.104 44.5909 222.325 46.7162L223.236 47.9078C226.26 45.5957 228.317 42.6481 229.387 39.0795L227.95 38.6485ZM222.331 46.712C219.58 48.7752 216.182 49.826 212.093 49.826V51.326C216.451 51.326 220.179 50.2008 223.231 47.912L222.331 46.712ZM212.093 49.826C208.793 49.826 205.846 49.1053 203.237 47.678L202.517 48.994C205.368 50.5534 208.566 51.326 212.093 51.326V49.826ZM203.249 47.6848C200.683 46.2186 198.668 44.1649 197.197 41.5086L195.885 42.2354C197.485 45.1258 199.694 47.3814 202.505 48.9872L203.249 47.6848ZM197.201 41.5164C195.775 38.8679 195.051 35.7935 195.051 32.272H193.551C193.551 36.0038 194.32 39.3294 195.88 42.2276L197.201 41.5164ZM195.051 32.272C195.051 28.7062 195.776 25.6109 197.201 22.9636L195.88 22.2524C194.319 25.1518 193.551 28.4991 193.551 32.272H195.051ZM197.201 22.9636C198.628 20.3133 200.618 18.2855 203.177 16.8636L202.449 15.5524C199.632 17.1171 197.44 19.3561 195.88 22.2524L197.201 22.9636ZM203.177 16.8636C205.739 15.4403 208.704 14.718 212.093 14.718V13.218C208.484 13.218 205.263 13.989 202.449 15.5524L203.177 16.8636ZM212.093 14.718C215.352 14.718 218.234 15.4184 220.756 16.8016L221.477 15.4864C218.709 13.9683 215.574 13.218 212.093 13.218V14.718ZM220.761 16.804C223.32 18.1852 225.284 20.1489 226.665 22.7082L227.985 21.9958C226.465 19.1791 224.29 17.0041 221.473 15.484L220.761 16.804ZM226.672 22.7207C228.093 25.2388 228.815 28.1591 228.815 31.504H230.315C230.315 27.9369 229.543 24.7559 227.978 21.9833L226.672 22.7207ZM221.035 28.9301C220.988 26.431 220.074 24.3842 218.272 22.8663L217.306 24.0137C218.746 25.2265 219.496 26.849 219.535 28.9579L221.035 28.9301ZM218.281 22.8737C216.51 21.3359 214.346 20.578 211.837 20.578V22.078C214.021 22.078 215.825 22.7281 217.297 24.0063L218.281 22.8737ZM211.837 20.578C209.45 20.578 207.391 21.3179 205.706 22.8154L206.703 23.9366C208.09 22.7034 209.786 22.078 211.837 22.078V20.578ZM205.707 22.8146C204.055 24.2786 203.071 26.3111 202.71 28.8379L204.195 29.0501C204.517 26.7983 205.368 25.1187 206.702 23.9374L205.707 22.8146ZM203.453 29.694H220.285V28.194H203.453V29.694ZM256.201 21.904V22.654H256.951V21.904H256.201ZM249.993 21.904V21.154H249.243V21.904H249.993ZM249.993 50V50.75H250.743V50H249.993ZM240.905 50H240.155V50.75H240.905V50ZM240.905 21.904H241.655V21.154H240.905V21.904ZM236.873 21.904H236.123V22.654H236.873V21.904ZM236.873 14.544V13.794H236.123V14.544H236.873ZM240.905 14.544V15.294H241.655V14.544H240.905ZM244.617 3.152L244.139 2.5742L244.617 3.152ZM255.817 0.271999H256.567V-0.459016L255.836 -0.477754L255.817 0.271999ZM255.817 7.824L255.802 8.57385L256.567 8.58885V7.824H255.817ZM251.273 8.912L250.771 8.35453L251.273 8.912ZM249.993 14.544H249.243V15.294H249.993V14.544ZM256.201 14.544H256.951V13.794H256.201V14.544ZM256.201 21.154H249.993V22.654H256.201V21.154ZM249.243 21.904V50H250.743V21.904H249.243ZM249.993 49.25H240.905V50.75H249.993V49.25ZM241.655 50V21.904H240.155V50H241.655ZM240.905 21.154H236.873V22.654H240.905V21.154ZM237.623 21.904V14.544H236.123V21.904H237.623ZM236.873 15.294H240.905V13.794H236.873V15.294ZM241.655 14.544V12.752H240.155V14.544H241.655ZM241.655 12.752C241.655 8.53945 242.848 5.58924 245.095 3.72979L244.139 2.5742C241.436 4.81076 240.155 8.26055 240.155 12.752H241.655ZM245.095 3.72979C247.371 1.84653 250.891 0.895936 255.798 1.02175L255.836 -0.477754C250.759 -0.60794 246.812 0.361466 244.139 2.5742L245.095 3.72979ZM255.067 0.271999V7.824H256.567V0.271999H255.067ZM255.831 7.07414C253.616 7.03069 251.848 7.38539 250.771 8.35453L251.774 9.46947C252.404 8.90261 253.666 8.53197 255.802 8.57385L255.831 7.07414ZM250.771 8.35453C249.675 9.34086 249.243 11.0035 249.243 13.072H250.743C250.743 11.1299 251.164 10.0191 251.774 9.46947L250.771 8.35453ZM249.243 13.072V14.544H250.743V13.072H249.243ZM249.993 15.294H256.201V13.794H249.993V15.294ZM255.451 14.544V21.904H256.951V14.544H255.451ZM282.103 21.904V22.654H282.853V21.904H282.103ZM275.895 21.904V21.154H275.145V21.904H275.895ZM275.895 50V50.75H276.645V50H275.895ZM266.807 50H266.057V50.75H266.807V50ZM266.807 21.904H267.557V21.154H266.807V21.904ZM262.775 21.904H262.025V22.654H262.775V21.904ZM262.775 14.544V13.794H262.025V14.544H262.775ZM266.807 14.544V15.294H267.557V14.544H266.807ZM270.519 3.152L270.041 2.5742L270.519 3.152ZM281.719 0.271999H282.469V-0.459016L281.738 -0.477754L281.719 0.271999ZM281.719 7.824L281.705 8.57385L282.469 8.58885V7.824H281.719ZM277.175 8.912L276.674 8.35453L277.175 8.912ZM275.895 14.544H275.145V15.294H275.895V14.544ZM282.103 14.544H282.853V13.794H282.103V14.544ZM282.103 21.154H275.895V22.654H282.103V21.154ZM275.145 21.904V50H276.645V21.904H275.145ZM275.895 49.25H266.807V50.75H275.895V49.25ZM267.557 50V21.904H266.057V50H267.557ZM266.807 21.154H262.775V22.654H266.807V21.154ZM263.525 21.904V14.544H262.025V21.904H263.525ZM262.775 15.294H266.807V13.794H262.775V15.294ZM267.557 14.544V12.752H266.057V14.544H267.557ZM267.557 12.752C267.557 8.53945 268.751 5.58924 270.997 3.72979L270.041 2.5742C267.339 4.81076 266.057 8.26055 266.057 12.752H267.557ZM270.997 3.72979C273.273 1.84653 276.793 0.895936 281.7 1.02175L281.738 -0.477754C276.661 -0.60794 272.715 0.361466 270.041 2.5742L270.997 3.72979ZM280.969 0.271999V7.824H282.469V0.271999H280.969ZM281.734 7.07414C279.518 7.03069 277.75 7.38539 276.674 8.35453L277.677 9.46947C278.307 8.90261 279.568 8.53197 281.705 8.57385L281.734 7.07414ZM276.674 8.35453C275.578 9.34086 275.145 11.0035 275.145 13.072H276.645C276.645 11.1299 277.066 10.0191 277.677 9.46947L276.674 8.35453ZM275.145 13.072V14.544H276.645V13.072H275.145ZM275.895 15.294H282.103V13.794H275.895V15.294ZM281.353 14.544V21.904H282.853V14.544H281.353ZM324.454 34.96V35.71H325.089L325.194 35.0833L324.454 34.96ZM298.534 34.96V34.21H297.719L297.786 35.0223L298.534 34.96ZM301.222 40.976L300.714 41.5282L301.222 40.976ZM314.15 38.864V38.114H313.683L313.477 38.5326L314.15 38.864ZM323.814 38.864L324.532 39.0795L324.822 38.114H323.814V38.864ZM317.926 47.312L318.376 47.912L318.381 47.9078L317.926 47.312ZM298.022 48.336L297.65 48.9873L297.662 48.994L298.022 48.336ZM291.686 41.872L291.025 42.2276L291.03 42.2354L291.686 41.872ZM291.686 22.608L291.025 22.2524L291.686 22.608ZM297.958 16.208L298.322 16.8636L297.958 16.208ZM316.262 16.144L315.901 16.8016L315.906 16.804L316.262 16.144ZM322.47 22.352L321.81 22.7082L321.813 22.7145L321.817 22.7207L322.47 22.352ZM315.43 28.944V29.694H316.194L316.18 28.9301L315.43 28.944ZM312.934 23.44L312.442 24.0063L312.451 24.0137L312.934 23.44ZM301.35 23.376L301.847 23.9374L301.848 23.9366L301.35 23.376ZM298.598 28.944L297.855 28.8379L297.733 29.694H298.598V28.944ZM323.96 31.504C323.96 32.7518 323.876 33.8615 323.714 34.8367L325.194 35.0833C325.372 34.0104 325.46 32.8162 325.46 31.504H323.96ZM324.454 34.21H298.534V35.71H324.454V34.21ZM297.786 35.0223C298.012 37.7306 298.97 39.9258 300.714 41.5282L301.729 40.4238C300.316 39.1249 299.482 37.3094 299.281 34.8977L297.786 35.0223ZM300.714 41.5282C302.442 43.1161 304.569 43.902 307.046 43.902V42.402C304.914 42.402 303.159 41.7372 301.729 40.4238L300.714 41.5282ZM307.046 43.902C308.818 43.902 310.383 43.5205 311.705 42.7221C313.03 41.9225 314.065 40.7334 314.823 39.1954L313.477 38.5326C312.826 39.8533 311.974 40.8081 310.93 41.4379C309.885 42.0688 308.601 42.402 307.046 42.402V43.902ZM314.15 39.614H323.814V38.114H314.15V39.614ZM323.095 38.6485C322.118 41.9066 320.249 44.5909 317.47 46.7162L318.381 47.9078C321.405 45.5957 323.462 42.6481 324.532 39.0795L323.095 38.6485ZM317.476 46.712C314.725 48.7752 311.327 49.826 307.238 49.826V51.326C311.596 51.326 315.324 50.2008 318.376 47.912L317.476 46.712ZM307.238 49.826C303.938 49.826 300.991 49.1053 298.382 47.678L297.662 48.994C300.513 50.5534 303.711 51.326 307.238 51.326V49.826ZM298.394 47.6848C295.828 46.2186 293.813 44.1649 292.342 41.5086L291.03 42.2354C292.63 45.1258 294.839 47.3814 297.65 48.9872L298.394 47.6848ZM292.346 41.5164C290.92 38.8679 290.196 35.7935 290.196 32.272H288.696C288.696 36.0038 289.465 39.3294 291.025 42.2276L292.346 41.5164ZM290.196 32.272C290.196 28.7062 290.921 25.6109 292.346 22.9636L291.025 22.2524C289.464 25.1518 288.696 28.4991 288.696 32.272H290.196ZM292.346 22.9636C293.773 20.3133 295.763 18.2855 298.322 16.8636L297.594 15.5524C294.777 17.1171 292.585 19.3561 291.025 22.2524L292.346 22.9636ZM298.322 16.8636C300.884 15.4403 303.849 14.718 307.238 14.718V13.218C303.629 13.218 300.408 13.989 297.594 15.5524L298.322 16.8636ZM307.238 14.718C310.497 14.718 313.379 15.4184 315.901 16.8016L316.622 15.4864C313.854 13.9683 310.719 13.218 307.238 13.218V14.718ZM315.906 16.804C318.465 18.1852 320.429 20.1489 321.81 22.7082L323.13 21.9958C321.61 19.1791 319.435 17.0041 316.618 15.484L315.906 16.804ZM321.817 22.7207C323.238 25.2388 323.96 28.1591 323.96 31.504H325.46C325.46 27.9369 324.688 24.7559 323.123 21.9833L321.817 22.7207ZM316.18 28.9301C316.133 26.431 315.219 24.3842 313.417 22.8663L312.451 24.0137C313.891 25.2265 314.641 26.849 314.68 28.9579L316.18 28.9301ZM313.426 22.8737C311.655 21.3359 309.491 20.578 306.982 20.578V22.078C309.166 22.078 310.97 22.7281 312.442 24.0063L313.426 22.8737ZM306.982 20.578C304.595 20.578 302.536 21.3179 300.851 22.8154L301.848 23.9366C303.235 22.7034 304.931 22.078 306.982 22.078V20.578ZM300.852 22.8146C299.2 24.2786 298.216 26.3111 297.855 28.8379L299.34 29.0501C299.662 26.7983 300.513 25.1187 301.847 23.9374L300.852 22.8146ZM298.598 29.694H315.43V28.194H298.598V29.694ZM344.05 20.048H343.3V22.7042L344.689 20.4403L344.05 20.048ZM348.53 15.632L348.159 14.9799L348.153 14.9836L348.53 15.632ZM354.93 14.032H355.68V13.282H354.93V14.032ZM354.93 23.44V24.19H355.68V23.44H354.93ZM346.162 25.424L345.656 24.8697L345.648 24.8774L346.162 25.424ZM344.05 50V50.75H344.8V50H344.05ZM335.09 50H334.34V50.75H335.09V50ZM335.09 14.544V13.794H334.34V14.544H335.09ZM344.05 14.544H344.8V13.794H344.05V14.544ZM344.689 20.4403C345.779 18.6645 347.183 17.2823 348.907 16.2804L348.153 14.9836C346.207 16.1151 344.625 17.6768 343.41 19.6557L344.689 20.4403ZM348.9 16.2841C350.653 15.2883 352.656 14.782 354.93 14.782V13.282C352.425 13.282 350.161 13.8424 348.159 14.9799L348.9 16.2841ZM354.18 14.032V23.44H355.68V14.032H354.18ZM354.93 22.69H352.562V24.19H354.93V22.69ZM352.562 22.69C349.639 22.69 347.295 23.3758 345.656 24.8698L346.667 25.9782C347.93 24.8269 349.852 24.19 352.562 24.19V22.69ZM345.648 24.8774C344.012 26.4142 343.3 28.9809 343.3 32.336H344.8C344.8 29.1205 345.495 27.0791 346.675 25.9706L345.648 24.8774ZM343.3 32.336V50H344.8V32.336H343.3ZM344.05 49.25H335.09V50.75H344.05V49.25ZM335.84 50V14.544H334.34V50H335.84ZM335.09 15.294H344.05V13.794H335.09V15.294ZM343.3 14.544V20.048H344.8V14.544H343.3ZM364.613 22.608L363.948 22.2603L363.944 22.2685L364.613 22.608ZM370.437 16.208L370.049 15.5658L370.044 15.5689L370.437 16.208ZM385.605 15.568L385.247 16.227L385.253 16.2302L385.605 15.568ZM390.405 19.6L389.801 20.0449L391.155 21.8822V19.6H390.405ZM390.405 14.544V13.794H389.655V14.544H390.405ZM399.429 14.544H400.179V13.794H399.429V14.544ZM399.429 50V50.75H400.179V50H399.429ZM390.405 50H389.655V50.75H390.405V50ZM390.405 44.816H391.155V42.4151L389.788 44.3891L390.405 44.816ZM385.605 48.976L385.957 49.6382L385.962 49.6355L385.605 48.976ZM370.437 48.272L370.036 48.9061L370.041 48.9092L370.437 48.272ZM364.613 41.808L363.942 42.1435L363.948 42.1556L364.613 41.808ZM389.125 26.704L388.465 27.0607L388.469 27.0682L389.125 26.704ZM385.669 23.12L385.288 23.7664L385.296 23.7707L385.303 23.7747L385.669 23.12ZM376.389 23.056L376.014 22.406L376.389 23.056ZM372.933 26.64L372.28 26.2698L372.277 26.2758L372.933 26.64ZM372.933 37.776L372.269 38.1253L372.275 38.1358L372.28 38.1462L372.933 37.776ZM376.389 41.424L376 42.0655L376.008 42.0704L376.389 41.424ZM385.669 41.488L386.035 42.1427L386.042 42.1387L386.049 42.1344L385.669 41.488ZM389.125 37.904L389.78 38.2683L389.785 38.2606L389.125 37.904ZM363.251 32.144C363.251 28.66 363.935 25.6007 365.281 22.9475L363.944 22.2685C362.475 25.162 361.751 28.46 361.751 32.144H363.251ZM365.277 22.9556C366.671 20.2903 368.524 18.2629 370.829 16.8471L370.044 15.5689C367.486 17.1398 365.455 19.3791 363.948 22.2604L365.277 22.9556ZM370.824 16.8501C373.176 15.4308 375.793 14.718 378.693 14.718V13.218C375.534 13.218 372.647 13.9985 370.049 15.5659L370.824 16.8501ZM378.693 14.718C381.236 14.718 383.412 15.2302 385.247 16.227L385.963 14.909C383.872 13.7725 381.44 13.218 378.693 13.218V14.718ZM385.253 16.2302C387.172 17.2509 388.681 18.5248 389.801 20.0449L391.009 19.1551C389.739 17.4325 388.049 16.0184 385.957 14.9058L385.253 16.2302ZM391.155 19.6V14.544H389.655V19.6H391.155ZM390.405 15.294H399.429V13.794H390.405V15.294ZM398.679 14.544V50H400.179V14.544H398.679ZM399.429 49.25H390.405V50.75H399.429V49.25ZM391.155 50V44.816H389.655V50H391.155ZM389.788 44.3891C388.713 45.9426 387.208 47.2548 385.248 48.3165L385.962 49.6355C388.098 48.4785 389.793 47.0174 391.021 45.2429L389.788 44.3891ZM385.253 48.3138C383.372 49.314 381.172 49.826 378.629 49.826V51.326C381.377 51.326 383.827 50.7713 385.957 49.6382L385.253 48.3138ZM378.629 49.826C375.778 49.826 373.185 49.0951 370.832 47.6348L370.041 48.9092C372.638 50.5209 375.506 51.326 378.629 51.326V49.826ZM370.837 47.6379C368.527 46.1786 366.672 44.1272 365.277 41.4604L363.948 42.1556C365.455 45.0354 367.483 47.2934 370.036 48.9061L370.837 47.6379ZM365.284 41.4726C363.935 38.7755 363.251 35.672 363.251 32.144H361.751C361.751 35.8694 362.474 39.2085 363.942 42.1434L365.284 41.4726ZM391.155 32.272C391.155 29.9986 390.709 28.0108 389.78 26.3398L388.469 27.0682C389.247 28.4692 389.655 30.1934 389.655 32.272H391.155ZM389.785 26.3474C388.869 24.6539 387.619 23.351 386.035 22.4653L385.303 23.7747C386.619 24.5104 387.674 25.5968 388.465 27.0606L389.785 26.3474ZM386.049 22.4735C384.484 21.5532 382.796 21.09 380.997 21.09V22.59C382.525 22.59 383.952 22.9801 385.288 23.7664L386.049 22.4735ZM380.997 21.09C379.205 21.09 377.539 21.5282 376.014 22.406L376.763 23.706C378.054 22.9625 379.461 22.59 380.997 22.59V21.09ZM376.014 22.406C374.477 23.2911 373.235 24.5887 372.28 26.2698L373.585 27.0102C374.423 25.5339 375.484 24.4423 376.763 23.706L376.014 22.406ZM372.277 26.2758C371.35 27.9447 370.903 29.9103 370.903 32.144H372.403C372.403 30.111 372.809 28.4073 373.588 27.0042L372.277 26.2758ZM370.903 32.144C370.903 34.379 371.35 36.3798 372.269 38.1253L373.596 37.4267C372.808 35.9295 372.403 34.1757 372.403 32.144H370.903ZM372.28 38.1462C373.233 39.8246 374.471 41.139 376 42.0654L376.777 40.7826C375.49 40.0023 374.424 38.8847 373.585 37.4058L372.28 38.1462ZM376.008 42.0704C377.57 42.9889 379.236 43.454 380.997 43.454V41.954C379.514 41.954 378.109 41.5658 376.769 40.7775L376.008 42.0704ZM380.997 43.454C382.789 43.454 384.472 43.0159 386.035 42.1427L385.303 40.8333C383.964 41.5814 382.533 41.954 380.997 41.954V43.454ZM386.049 42.1344C387.62 41.2102 388.865 39.9158 389.78 38.2682L388.469 37.5398C387.678 38.9642 386.619 40.0591 385.288 40.8415L386.049 42.1344ZM389.785 38.2606C390.708 36.5514 391.155 34.5463 391.155 32.272H389.655C389.655 34.3497 389.248 36.0992 388.465 37.5474L389.785 38.2606ZM420.98 2.64H421.73V1.89H420.98V2.64ZM420.98 50V50.75H421.73V50H420.98ZM412.02 50H411.27V50.75H412.02V50ZM412.02 2.64V1.89H411.27V2.64H412.02ZM420.23 2.64V50H421.73V2.64H420.23ZM420.98 49.25H412.02V50.75H420.98V49.25ZM412.77 50V2.64H411.27V50H412.77ZM412.02 3.39H420.98V1.89H412.02V3.39ZM483.61 25.872L482.953 25.51L482.948 25.5205L483.61 25.872ZM478.298 30.928L477.949 30.2643L477.944 30.2669L478.298 30.928ZM461.722 32.848V32.098H460.972V32.848H461.722ZM461.722 50V50.75H462.472V50H461.722ZM452.762 50H452.012V50.75H452.762V50ZM452.762 5.328V4.578H452.012V5.328H452.762ZM478.042 7.12L477.712 7.79316L478.042 7.12ZM483.482 12.048L482.831 12.4201L482.837 12.43L483.482 12.048ZM474.33 23.952L474.841 24.5017L474.851 24.4919L474.33 23.952ZM461.722 12.624V11.874H460.972V12.624H461.722ZM461.722 25.616H460.972V26.366H461.722V25.616ZM484.588 19.152C484.588 21.4149 484.044 23.5303 482.953 25.51L484.267 26.234C485.48 24.0323 486.088 21.6678 486.088 19.152H484.588ZM482.948 25.5205C481.92 27.4575 480.27 29.0429 477.949 30.2643L478.648 31.5917C481.191 30.2531 483.082 28.4678 484.273 26.2235L482.948 25.5205ZM477.944 30.2669C475.695 31.4716 472.798 32.098 469.21 32.098V33.598C472.961 33.598 476.122 32.9444 478.652 31.5891L477.944 30.2669ZM469.21 32.098H461.722V33.598H469.21V32.098ZM460.972 32.848V50H462.472V32.848H460.972ZM461.722 49.25H452.762V50.75H461.722V49.25ZM453.512 50V5.328H452.012V50H453.512ZM452.762 6.078H469.21V4.578H452.762V6.078ZM469.21 6.078C472.582 6.078 475.407 6.66101 477.712 7.79316L478.373 6.44683C475.814 5.18966 472.75 4.578 469.21 4.578V6.078ZM477.712 7.79316C480.027 8.93033 481.72 10.4755 482.831 12.4201L484.133 11.6759C482.855 9.43918 480.922 7.699 478.373 6.44683L477.712 7.79316ZM482.837 12.43C484 14.3948 484.588 16.6287 484.588 19.152H486.088C486.088 16.3846 485.439 13.8825 484.128 11.666L482.837 12.43ZM468.826 26.366C471.395 26.366 473.45 25.7926 474.841 24.5016L473.82 23.4024C472.821 24.3301 471.207 24.866 468.826 24.866V26.366ZM474.851 24.4919C476.225 23.1667 476.872 21.3528 476.872 19.152H475.372C475.372 21.0472 474.825 22.4333 473.81 23.4121L474.851 24.4919ZM476.872 19.152C476.872 16.8375 476.222 14.9706 474.798 13.6971C473.391 12.4377 471.355 11.874 468.826 11.874V13.374C471.162 13.374 472.774 13.8983 473.798 14.8149C474.807 15.7174 475.372 17.1145 475.372 19.152H476.872ZM468.826 11.874H461.722V13.374H468.826V11.874ZM460.972 12.624V25.616H462.472V12.624H460.972ZM461.722 26.366H468.826V24.866H461.722V26.366ZM504.5 20.048H503.75V22.7042L505.139 20.4403L504.5 20.048ZM508.98 15.632L508.609 14.9799L508.603 14.9836L508.98 15.632ZM515.38 14.032H516.13V13.282H515.38V14.032ZM515.38 23.44V24.19H516.13V23.44H515.38ZM506.612 25.424L506.106 24.8697L506.098 24.8774L506.612 25.424ZM504.5 50V50.75H505.25V50H504.5ZM495.54 50H494.79V50.75H495.54V50ZM495.54 14.544V13.794H494.79V14.544H495.54ZM504.5 14.544H505.25V13.794H504.5V14.544ZM505.139 20.4403C506.229 18.6645 507.633 17.2823 509.357 16.2804L508.603 14.9836C506.657 16.1151 505.075 17.6768 503.861 19.6557L505.139 20.4403ZM509.35 16.2841C511.103 15.2883 513.106 14.782 515.38 14.782V13.282C512.875 13.282 510.611 13.8424 508.609 14.9799L509.35 16.2841ZM514.63 14.032V23.44H516.13V14.032H514.63ZM515.38 22.69H513.012V24.19H515.38V22.69ZM513.012 22.69C510.089 22.69 507.745 23.3758 506.106 24.8698L507.117 25.9782C508.38 24.8269 510.302 24.19 513.012 24.19V22.69ZM506.098 24.8774C504.462 26.4142 503.75 28.9809 503.75 32.336H505.25C505.25 29.1205 505.945 27.0791 507.125 25.9706L506.098 24.8774ZM503.75 32.336V50H505.25V32.336H503.75ZM504.5 49.25H495.54V50.75H504.5V49.25ZM496.29 50V14.544H494.79V50H496.29ZM495.54 15.294H504.5V13.794H495.54V15.294ZM503.75 14.544V20.048H505.25V14.544H503.75ZM531.783 48.336L531.415 48.9897L531.423 48.994L531.783 48.336ZM525.319 41.872L524.663 42.2354L524.667 42.243L525.319 41.872ZM525.383 22.672L524.735 22.2935L524.731 22.301L525.383 22.672ZM531.975 16.272L532.33 16.9324L532.338 16.9281L531.975 16.272ZM550.535 16.272L550.171 16.9281L550.179 16.9324L550.535 16.272ZM557.063 22.672L556.411 23.043L556.415 23.0505L557.063 22.672ZM556.999 41.872L556.356 41.4861L556.351 41.4935L556.999 41.872ZM550.343 48.336L550.698 48.9964L550.702 48.9944L550.343 48.336ZM545.543 41.616L545.902 42.2745L545.909 42.2707L545.543 41.616ZM548.999 38.032L549.659 38.3886L548.999 38.032ZM547.591 24.528L547.048 25.0456L547.054 25.052L547.06 25.0583L547.591 24.528ZM534.663 24.528L534.12 24.0104L534.12 24.0108L534.663 24.528ZM534.599 40.08L534.043 40.5839L534.049 40.5906L534.056 40.5972L534.599 40.08ZM540.999 49.826C537.699 49.826 534.753 49.1053 532.143 47.678L531.423 48.994C534.274 50.5534 537.472 51.326 540.999 51.326V49.826ZM532.15 47.6823C529.541 46.2143 527.483 44.1584 525.971 41.501L524.667 42.243C526.312 45.1323 528.563 47.3857 531.415 48.9897L532.15 47.6823ZM525.975 41.5086C524.509 38.8616 523.765 35.7901 523.765 32.272H522.265C522.265 36.0073 523.057 39.3357 524.663 42.2354L525.975 41.5086ZM523.765 32.272C523.765 28.7574 524.529 25.6886 526.035 23.043L524.731 22.301C523.08 25.2021 522.265 28.5333 522.265 32.272H523.765ZM526.03 23.0505C527.583 20.3937 529.681 18.359 532.33 16.9324L531.619 15.6116C528.722 17.1717 526.425 19.4037 524.735 22.2935L526.03 23.0505ZM532.338 16.9281C534.992 15.4584 537.958 14.718 541.255 14.718V13.218C537.724 13.218 534.504 14.0136 531.611 15.6159L532.338 16.9281ZM541.255 14.718C544.551 14.718 547.518 15.4584 550.171 16.9281L550.898 15.6159C548.005 14.0136 544.785 13.218 541.255 13.218V14.718ZM550.179 16.9324C552.827 18.358 554.901 20.3903 556.411 23.043L557.715 22.301C556.067 19.407 553.789 17.1726 550.89 15.6116L550.179 16.9324ZM556.415 23.0505C557.961 25.6948 558.745 28.7609 558.745 32.272H560.245C560.245 28.5298 559.407 25.1959 557.71 22.2935L556.415 23.0505ZM558.745 32.272C558.745 35.7796 557.941 38.843 556.356 41.4861L557.642 42.2579C559.384 39.3543 560.245 36.0177 560.245 32.272H558.745ZM556.351 41.4935C554.799 44.1492 552.68 46.207 549.984 47.6776L550.702 48.9944C553.638 47.393 555.956 45.1415 557.646 42.2505L556.351 41.4935ZM549.987 47.6756C547.333 49.1046 544.343 49.826 540.999 49.826V51.326C544.567 51.326 547.805 50.5541 550.698 48.9964L549.987 47.6756ZM540.999 43.518C542.744 43.518 544.382 43.1032 545.902 42.2744L545.184 40.9576C543.887 41.6648 542.496 42.018 540.999 42.018V43.518ZM545.909 42.2707C547.494 41.385 548.743 40.0821 549.659 38.3886L548.339 37.6754C547.548 39.1392 546.493 40.2256 545.177 40.9613L545.909 42.2707ZM549.659 38.3886C550.585 36.6755 551.029 34.6261 551.029 32.272H549.529C549.529 34.4406 549.12 36.2311 548.339 37.6754L549.659 38.3886ZM551.029 32.272C551.029 28.7703 550.095 25.972 548.121 23.9977L547.06 25.0583C548.67 26.668 549.529 29.0324 549.529 32.272H551.029ZM548.134 24.0104C546.241 22.0257 543.89 21.026 541.127 21.026V22.526C543.484 22.526 545.442 23.361 547.048 25.0456L548.134 24.0104ZM541.127 21.026C538.364 21.026 536.012 22.0257 534.12 24.0104L535.206 25.0456C536.812 23.361 538.77 22.526 541.127 22.526V21.026ZM534.12 24.0108C532.238 25.9863 531.353 28.7797 531.353 32.272H532.853C532.853 29.023 533.674 26.6537 535.206 25.0452L534.12 24.0108ZM531.353 32.272C531.353 35.761 532.215 38.568 534.043 40.5839L535.154 39.5761C533.655 37.9226 532.853 35.5243 532.853 32.272H531.353ZM534.056 40.5972C535.909 42.5435 538.241 43.518 540.999 43.518V42.018C538.636 42.018 536.702 41.2005 535.142 39.5628L534.056 40.5972ZM590.771 15.568L590.419 16.2302L590.43 16.236L590.771 15.568ZM595.507 19.6L594.891 20.0269L596.257 22.0009V19.6H595.507ZM595.507 14.544V13.794H594.757V14.544H595.507ZM604.531 14.544H605.281V13.794H604.531V14.544ZM602.547 59.024L601.881 58.6797L601.879 58.6842L602.547 59.024ZM596.595 65.168L596.227 64.5148L596.219 64.5194L596.595 65.168ZM574.579 63.952L574.136 64.5568L574.14 64.5596L574.579 63.952ZM569.139 54.352V53.602H568.306L568.393 54.4305L569.139 54.352ZM578.035 54.352L578.756 54.1435L578.599 53.602H578.035V54.352ZM581.043 58.192L581.439 57.555L581.434 57.552L581.043 58.192ZM593.075 57.296L592.559 56.7515L592.552 56.7586L593.075 57.296ZM595.507 44.752H596.257V42.351L594.891 44.3251L595.507 44.752ZM590.707 48.912L590.35 48.2525L590.344 48.2557L590.707 48.912ZM575.603 48.272L575.999 47.6348L575.603 48.272ZM569.715 41.808L569.044 42.1435L569.051 42.1556L569.715 41.808ZM569.715 22.608L569.051 22.2603L569.046 22.2685L569.715 22.608ZM575.539 16.208L575.152 15.5658L575.147 15.5689L575.539 16.208ZM594.227 26.704L593.567 27.0607L593.572 27.0682L594.227 26.704ZM590.771 23.12L590.391 23.7664L590.398 23.7707L590.405 23.7747L590.771 23.12ZM581.491 23.056L581.117 22.406L581.491 23.056ZM578.035 26.64L577.383 26.2698L577.38 26.2758L578.035 26.64ZM578.035 37.776L577.372 38.1253L577.377 38.1358L577.383 38.1462L578.035 37.776ZM581.491 41.424L581.102 42.0655L581.111 42.0704L581.491 41.424ZM590.771 41.488L591.137 42.1427L591.144 42.1387L591.151 42.1344L590.771 41.488ZM594.227 37.904L594.883 38.2683L594.887 38.2606L594.227 37.904ZM583.795 14.718C586.338 14.718 588.539 15.23 590.419 16.2302L591.123 14.9058C588.993 13.7727 586.543 13.218 583.795 13.218V14.718ZM590.43 16.236C592.338 17.2101 593.817 18.4759 594.891 20.0269L596.124 19.1731C594.894 17.3961 593.215 15.9739 591.112 14.9L590.43 16.236ZM596.257 19.6V14.544H594.757V19.6H596.257ZM595.507 15.294H604.531V13.794H595.507V15.294ZM603.781 14.544V50.256H605.281V14.544H603.781ZM603.781 50.256C603.781 53.4385 603.141 56.2402 601.881 58.6797L603.214 59.3683C604.598 56.6878 605.281 53.6442 605.281 50.256H603.781ZM601.879 58.6842C600.626 61.1497 598.749 63.0911 596.227 64.5149L596.964 65.8211C599.732 64.2583 601.823 62.1037 603.216 59.3638L601.879 58.6842ZM596.219 64.5194C593.711 65.9754 590.648 66.722 586.995 66.722V68.222C590.852 68.222 594.189 67.4326 596.972 65.8166L596.219 64.5194ZM586.995 66.722C582.077 66.722 578.104 65.577 575.019 63.3444L574.14 64.5596C577.54 67.0203 581.844 68.222 586.995 68.222V66.722ZM575.023 63.3472C571.998 61.1293 570.29 58.1231 569.885 54.2735L568.393 54.4305C568.841 58.6876 570.76 62.0814 574.136 64.5568L575.023 63.3472ZM569.139 55.102H578.035V53.602H569.139V55.102ZM577.315 54.5605C577.84 56.3744 578.968 57.8027 580.652 58.832L581.434 57.552C580.046 56.7039 579.169 55.5723 578.756 54.1435L577.315 54.5605ZM580.647 58.829C582.366 59.8974 584.408 60.414 586.739 60.414V58.914C584.633 58.914 582.878 58.4493 581.439 57.555L580.647 58.829ZM586.739 60.414C589.506 60.414 591.816 59.569 593.598 57.8334L592.552 56.7586C591.092 58.1804 589.178 58.914 586.739 58.914V60.414ZM593.591 57.8405C595.415 56.1125 596.257 53.5324 596.257 50.256H594.757C594.757 53.2943 593.978 55.4075 592.559 56.7515L593.591 57.8405ZM596.257 50.256V44.752H594.757V50.256H596.257ZM594.891 44.3251C593.815 45.8786 592.31 47.1908 590.35 48.2525L591.064 49.5715C593.2 48.4145 594.895 46.9534 596.124 45.1789L594.891 44.3251ZM590.344 48.2557C588.464 49.2956 586.288 49.826 583.795 49.826V51.326C586.507 51.326 588.939 50.747 591.07 49.5683L590.344 48.2557ZM583.795 49.826C580.945 49.826 578.352 49.0951 575.999 47.6348L575.208 48.9092C577.804 50.5209 580.673 51.326 583.795 51.326V49.826ZM575.999 47.6348C573.647 46.1748 571.773 44.124 570.38 41.4604L569.051 42.1556C570.559 45.0386 572.611 47.2972 575.208 48.9092L575.999 47.6348ZM570.386 41.4726C569.037 38.7755 568.353 35.672 568.353 32.144H566.853C566.853 35.8694 567.577 39.2085 569.044 42.1434L570.386 41.4726ZM568.353 32.144C568.353 28.66 569.037 25.6007 570.384 22.9475L569.046 22.2685C567.577 25.162 566.853 28.46 566.853 32.144H568.353ZM570.38 22.9556C571.774 20.2903 573.626 18.2629 575.932 16.8471L575.147 15.5689C572.588 17.1398 570.558 19.3791 569.051 22.2604L570.38 22.9556ZM575.927 16.8501C578.279 15.4308 580.896 14.718 583.795 14.718V13.218C580.636 13.218 577.749 13.9985 575.152 15.5659L575.927 16.8501ZM596.257 32.272C596.257 29.9986 595.811 28.0108 594.883 26.3398L593.572 27.0682C594.35 28.4692 594.757 30.1934 594.757 32.272H596.257ZM594.887 26.3474C593.972 24.6539 592.722 23.351 591.137 22.4653L590.405 23.7747C591.722 24.5104 592.776 25.5968 593.567 27.0606L594.887 26.3474ZM591.151 22.4735C589.587 21.5532 587.899 21.09 586.099 21.09V22.59C587.628 22.59 589.054 22.9801 590.391 23.7664L591.151 22.4735ZM586.099 21.09C584.307 21.09 582.642 21.5282 581.117 22.406L581.865 23.706C583.157 22.9625 584.563 22.59 586.099 22.59V21.09ZM581.117 22.406C579.58 23.2911 578.337 24.5887 577.383 26.2698L578.688 27.0102C579.525 25.5339 580.587 24.4423 581.865 23.706L581.117 22.406ZM577.38 26.2758C576.452 27.9447 576.005 29.9103 576.005 32.144H577.505C577.505 30.111 577.911 28.4073 578.691 27.0042L577.38 26.2758ZM576.005 32.144C576.005 34.379 576.453 36.3798 577.372 38.1253L578.699 37.4267C577.911 35.9295 577.505 34.1757 577.505 32.144H576.005ZM577.383 38.1462C578.336 39.8246 579.574 41.139 581.102 42.0654L581.88 40.7826C580.592 40.0023 579.527 38.8847 578.688 37.4058L577.383 38.1462ZM581.111 42.0704C582.672 42.9889 584.339 43.454 586.099 43.454V41.954C584.617 41.954 583.211 41.5658 581.871 40.7775L581.111 42.0704ZM586.099 43.454C587.891 43.454 589.574 43.0159 591.137 42.1427L590.405 40.8333C589.067 41.5814 587.635 41.954 586.099 41.954V43.454ZM591.151 42.1344C592.723 41.2102 593.968 39.9158 594.883 38.2682L593.572 37.5398C592.78 38.9642 591.721 40.0591 590.391 40.8415L591.151 42.1344ZM594.887 38.2606C595.811 36.5514 596.257 34.5463 596.257 32.272H594.757C594.757 34.3497 594.35 36.0992 593.567 37.5474L594.887 38.2606ZM626.082 20.048H625.332V22.7042L626.721 20.4403L626.082 20.048ZM630.562 15.632L630.192 14.9799L630.185 14.9836L630.562 15.632ZM636.962 14.032H637.712V13.282H636.962V14.032ZM636.962 23.44V24.19H637.712V23.44H636.962ZM628.194 25.424L627.689 24.8697L627.681 24.8774L628.194 25.424ZM626.082 50V50.75H626.832V50H626.082ZM617.122 50H616.372V50.75H617.122V50ZM617.122 14.544V13.794H616.372V14.544H617.122ZM626.082 14.544H626.832V13.794H626.082V14.544ZM626.721 20.4403C627.811 18.6645 629.216 17.2823 630.939 16.2804L630.185 14.9836C628.239 16.1151 626.657 17.6768 625.443 19.6557L626.721 20.4403ZM630.933 16.2841C632.685 15.2883 634.689 14.782 636.962 14.782V13.282C634.457 13.282 632.194 13.8424 630.192 14.9799L630.933 16.2841ZM636.212 14.032V23.44H637.712V14.032H636.212ZM636.962 22.69H634.594V24.19H636.962V22.69ZM634.594 22.69C631.672 22.69 629.327 23.3758 627.689 24.8698L628.699 25.9782C629.962 24.8269 631.885 24.19 634.594 24.19V22.69ZM627.681 24.8774C626.045 26.4142 625.332 28.9809 625.332 32.336H626.832C626.832 29.1205 627.528 27.0791 628.708 25.9706L627.681 24.8774ZM625.332 32.336V50H626.832V32.336H625.332ZM626.082 49.25H617.122V50.75H626.082V49.25ZM617.872 50V14.544H616.372V50H617.872ZM617.122 15.294H626.082V13.794H617.122V15.294ZM625.332 14.544V20.048H626.832V14.544H625.332ZM646.645 22.608L645.981 22.2603L645.977 22.2685L646.645 22.608ZM652.469 16.208L652.082 15.5658L652.077 15.5689L652.469 16.208ZM667.637 15.568L667.279 16.227L667.285 16.2302L667.637 15.568ZM672.437 19.6L671.833 20.0449L673.187 21.8822V19.6H672.437ZM672.437 14.544V13.794H671.687V14.544H672.437ZM681.461 14.544H682.211V13.794H681.461V14.544ZM681.461 50V50.75H682.211V50H681.461ZM672.437 50H671.687V50.75H672.437V50ZM672.437 44.816H673.187V42.4151L671.821 44.3891L672.437 44.816ZM667.637 48.976L667.99 49.6382L667.995 49.6355L667.637 48.976ZM652.469 48.272L652.069 48.9061L652.074 48.9092L652.469 48.272ZM646.645 41.808L645.974 42.1435L645.981 42.1556L646.645 41.808ZM671.157 26.704L670.497 27.0607L670.502 27.0682L671.157 26.704ZM667.701 23.12L667.321 23.7664L667.328 23.7707L667.335 23.7747L667.701 23.12ZM658.421 23.056L658.047 22.406L658.421 23.056ZM654.965 26.64L654.313 26.2698L654.31 26.2758L654.965 26.64ZM654.965 37.776L654.302 38.1253L654.307 38.1358L654.313 38.1462L654.965 37.776ZM658.421 41.424L658.033 42.0655L658.041 42.0704L658.421 41.424ZM667.701 41.488L668.067 42.1427L668.074 42.1387L668.082 42.1344L667.701 41.488ZM671.157 37.904L671.813 38.2683L671.817 38.2606L671.157 37.904ZM645.283 32.144C645.283 28.66 645.967 25.6007 647.314 22.9475L645.977 22.2685C644.508 25.162 643.783 28.46 643.783 32.144H645.283ZM647.31 22.9556C648.704 20.2903 650.556 18.2629 652.862 16.8471L652.077 15.5689C649.518 17.1398 647.488 19.3791 645.981 22.2604L647.31 22.9556ZM652.857 16.8501C655.209 15.4308 657.826 14.718 660.725 14.718V13.218C657.566 13.218 654.679 13.9985 652.082 15.5659L652.857 16.8501ZM660.725 14.718C663.269 14.718 665.445 15.2302 667.279 16.227L667.995 14.909C665.904 13.7725 663.473 13.218 660.725 13.218V14.718ZM667.285 16.2302C669.204 17.2509 670.713 18.5248 671.833 20.0449L673.041 19.1551C671.772 17.4325 670.081 16.0184 667.99 14.9058L667.285 16.2302ZM673.187 19.6V14.544H671.687V19.6H673.187ZM672.437 15.294H681.461V13.794H672.437V15.294ZM680.711 14.544V50H682.211V14.544H680.711ZM681.461 49.25H672.437V50.75H681.461V49.25ZM673.187 50V44.816H671.687V50H673.187ZM671.821 44.3891C670.745 45.9426 669.24 47.2548 667.28 48.3165L667.995 49.6355C670.13 48.4785 671.825 47.0174 673.054 45.2429L671.821 44.3891ZM667.285 48.3138C665.405 49.314 663.204 49.826 660.661 49.826V51.326C663.409 51.326 665.859 50.7713 667.99 49.6382L667.285 48.3138ZM660.661 49.826C657.811 49.826 655.218 49.0951 652.865 47.6348L652.074 48.9092C654.67 50.5209 657.539 51.326 660.661 51.326V49.826ZM652.87 47.6379C650.559 46.1786 648.705 44.1272 647.31 41.4604L645.981 42.1556C647.487 45.0354 649.515 47.2934 652.069 48.9061L652.87 47.6379ZM647.316 41.4726C645.968 38.7755 645.283 35.672 645.283 32.144H643.783C643.783 35.8694 644.507 39.2085 645.974 42.1434L647.316 41.4726ZM673.187 32.272C673.187 29.9986 672.741 28.0108 671.813 26.3398L670.502 27.0682C671.28 28.4692 671.687 30.1934 671.687 32.272H673.187ZM671.817 26.3474C670.902 24.6539 669.652 23.351 668.067 22.4653L667.335 23.7747C668.652 24.5104 669.706 25.5968 670.497 27.0606L671.817 26.3474ZM668.082 22.4735C666.517 21.5532 664.829 21.09 663.029 21.09V22.59C664.558 22.59 665.984 22.9801 667.321 23.7664L668.082 22.4735ZM663.029 21.09C661.237 21.09 659.572 21.5282 658.047 22.406L658.795 23.706C660.087 22.9625 661.493 22.59 663.029 22.59V21.09ZM658.047 22.406C656.51 23.2911 655.267 24.5887 654.313 26.2698L655.618 27.0102C656.455 25.5339 657.517 24.4423 658.795 23.706L658.047 22.406ZM654.31 26.2758C653.382 27.9447 652.935 29.9103 652.935 32.144H654.435C654.435 30.111 654.841 28.4073 655.621 27.0042L654.31 26.2758ZM652.935 32.144C652.935 34.379 653.383 36.3798 654.302 38.1253L655.629 37.4267C654.841 35.9295 654.435 34.1757 654.435 32.144H652.935ZM654.313 38.1462C655.266 39.8246 656.504 41.139 658.033 42.0654L658.81 40.7826C657.523 40.0023 656.457 38.8847 655.618 37.4058L654.313 38.1462ZM658.041 42.0704C659.602 42.9889 661.269 43.454 663.029 43.454V41.954C661.547 41.954 660.142 41.5658 658.802 40.7775L658.041 42.0704ZM663.029 43.454C664.821 43.454 666.505 43.0159 668.067 42.1427L667.335 40.8333C665.997 41.5814 664.565 41.954 663.029 41.954V43.454ZM668.082 42.1344C669.653 41.2102 670.898 39.9158 671.813 38.2682L670.502 37.5398C669.71 38.9642 668.651 40.0591 667.321 40.8415L668.082 42.1344ZM671.817 38.2606C672.741 36.5514 673.187 34.5463 673.187 32.272H671.687C671.687 34.3497 671.28 36.0992 670.497 37.5474L671.817 38.2606ZM748.58 18.064L748.046 18.5901L748.054 18.5986L748.58 18.064ZM752.612 50V50.75H753.362V50H752.612ZM743.652 50H742.902V50.75H743.652V50ZM741.54 24.08L740.995 24.5946L741.002 24.6024L741.54 24.08ZM729.956 24.08L729.418 23.5574L729.418 23.5576L729.956 24.08ZM727.844 50V50.75H728.594V50H727.844ZM718.884 50H718.134V50.75H718.884V50ZM716.772 24.08L716.227 24.5946L716.234 24.6024L716.772 24.08ZM705.124 24.08L704.586 23.5574L704.586 23.5576L705.124 24.08ZM703.012 50V50.75H703.762V50H703.012ZM694.052 50H693.302V50.75H694.052V50ZM694.052 14.544V13.794H693.302V14.544H694.052ZM703.012 14.544H703.762V13.794H703.012V14.544ZM703.012 18.832H702.262V21.0321L703.606 19.2901L703.012 18.832ZM707.428 15.312L707.112 14.6319L707.106 14.6349L707.428 15.312ZM720.868 15.824L720.507 16.4815L720.517 16.4868L720.868 15.824ZM725.924 20.816L725.267 21.1769L725.916 22.3599L726.578 21.1837L725.924 20.816ZM730.916 15.888L730.551 15.233L730.546 15.236L730.916 15.888ZM738.084 14.782C742.269 14.782 745.563 16.0676 748.046 18.5901L749.115 17.5379C746.307 14.6844 742.604 13.282 738.084 13.282V14.782ZM748.054 18.5986C750.563 21.0676 751.862 24.5657 751.862 29.2H753.362C753.362 24.2769 751.973 20.351 749.106 17.5294L748.054 18.5986ZM751.862 29.2V50H753.362V29.2H751.862ZM752.612 49.25H743.652V50.75H752.612V49.25ZM744.402 50V30.416H742.902V50H744.402ZM744.402 30.416C744.402 27.5215 743.666 25.1935 742.078 23.5576L741.002 24.6024C742.23 25.8678 742.902 27.7639 742.902 30.416H744.402ZM742.086 23.5655C740.51 21.8942 738.377 21.09 735.78 21.09V22.59C738.047 22.59 739.754 23.2792 740.995 24.5945L742.086 23.5655ZM735.78 21.09C733.182 21.09 731.034 21.8942 729.418 23.5574L730.494 24.6026C731.78 23.2792 733.514 22.59 735.78 22.59V21.09ZM729.418 23.5576C727.83 25.1935 727.094 27.5215 727.094 30.416H728.594C728.594 27.7639 729.266 25.8678 730.494 24.6024L729.418 23.5576ZM727.094 30.416V50H728.594V30.416H727.094ZM727.844 49.25H718.884V50.75H727.844V49.25ZM719.634 50V30.416H718.134V50H719.634ZM719.634 30.416C719.634 27.5215 718.898 25.1935 717.31 23.5576L716.234 24.6024C717.462 25.8678 718.134 27.7639 718.134 30.416H719.634ZM717.318 23.5655C715.742 21.8942 713.609 21.09 711.012 21.09V22.59C713.279 22.59 714.986 23.2792 716.227 24.5945L717.318 23.5655ZM711.012 21.09C708.376 21.09 706.205 21.8916 704.586 23.5574L705.662 24.6026C706.945 23.2818 708.699 22.59 711.012 22.59V21.09ZM704.586 23.5576C702.998 25.1935 702.262 27.5215 702.262 30.416H703.762C703.762 27.7639 704.434 25.8678 705.662 24.6024L704.586 23.5576ZM702.262 30.416V50H703.762V30.416H702.262ZM703.012 49.25H694.052V50.75H703.012V49.25ZM694.802 50V14.544H693.302V50H694.802ZM694.052 15.294H703.012V13.794H694.052V15.294ZM702.262 14.544V18.832H703.762V14.544H702.262ZM703.606 19.2901C704.682 17.895 706.059 16.7945 707.751 15.9891L707.106 14.6349C705.213 15.5361 703.646 16.7823 702.418 18.3739L703.606 19.2901ZM707.745 15.992C709.473 15.1882 711.369 14.782 713.444 14.782V13.282C711.167 13.282 709.053 13.7291 707.112 14.632L707.745 15.992ZM713.444 14.782C716.106 14.782 718.454 15.3544 720.507 16.4814L721.229 15.1666C718.93 13.9043 716.329 13.282 713.444 13.282V14.782ZM720.517 16.4868C722.563 17.5697 724.142 19.1282 725.267 21.1769L726.582 20.4551C725.317 18.1518 723.526 16.3823 721.219 15.1612L720.517 16.4868ZM726.578 21.1837C727.659 19.2622 729.221 17.7146 731.287 16.54L730.546 15.236C728.259 16.5361 726.494 18.2738 725.271 20.4483L726.578 21.1837ZM731.282 16.543C733.388 15.3685 735.651 14.782 738.084 14.782V13.282C735.397 13.282 732.882 13.9329 730.551 15.233L731.282 16.543Z" fill="url(#paint0_linear_3352_25285)"/>
<defs>
<linearGradient id="paint0_linear_3352_25285" x1="159.238" y1="-93.1539" x2="138.292" y2="79.9734" gradientUnits="userSpaceOnUse">
<stop stop-color="#2DD1DB"/>
<stop offset="0.60721" stop-color="#2D9CDB"/>
<stop offset="1" stop-color="#1A8ED0"/>
</linearGradient>
</defs>
</svg>
