<svg width="15" height="15" viewBox="0 0 15 15" fill="none" xmlns="http://www.w3.org/2000/svg">
<path fill-rule="evenodd" clip-rule="evenodd" d="M14.7303 12.9961C14.2673 14.4031 12.4533 15.1048 11.1573 14.9878C9.3873 14.8278 7.4613 13.889 5.9993 12.855C3.8503 11.335 1.8373 8.9838 0.664297 6.4888C-0.164703 4.7258 -0.350704 2.5582 0.882296 0.9512C1.3383 0.3572 1.83229 0.0399573 2.57229 0.00295733C3.60029 -0.0470427 3.7443 0.541059 4.0973 1.45706C4.3603 2.14206 4.7113 2.84081 4.9073 3.55081C5.2743 4.87581 3.99129 4.93119 3.82929 6.01419C3.72929 6.69719 4.5563 7.61313 4.9303 8.10013C5.65118 9.0486 6.53411 9.86196 7.53829 10.503C8.10829 10.862 9.0263 11.5089 9.6783 11.1519C10.6823 10.6019 10.5883 8.90896 11.9913 9.48196C12.7183 9.77796 13.4223 10.2051 14.1163 10.5791C15.1893 11.1561 15.1393 11.7541 14.7303 12.9961C15.0363 12.0681 14.4243 13.9241 14.7303 12.9961Z" fill="#2D9CDB"/>
</svg>
