<svg width="14" height="18" viewBox="0 0 14 18" fill="none" xmlns="http://www.w3.org/2000/svg">
<path d="M6.99967 0.666992C5.23217 0.668977 3.53763 1.37199 2.28782 2.62181C1.03801 3.87162 0.334993 5.56616 0.333008 7.33366C0.333008 10.0462 2.30217 12.2987 4.38801 14.6828C5.04801 15.4378 5.73134 16.2187 6.33967 17.0087C6.41752 17.1096 6.51751 17.1914 6.63193 17.2477C6.74635 17.304 6.87216 17.3332 6.99967 17.3332C7.12718 17.3332 7.253 17.304 7.36742 17.2477C7.48184 17.1914 7.58183 17.1096 7.65967 17.0087C8.26801 16.2187 8.95134 15.4378 9.61134 14.6828C11.6972 12.2987 13.6663 10.0462 13.6663 7.33366C13.6644 5.56616 12.9613 3.87162 11.7115 2.62181C10.4617 1.37199 8.76717 0.668977 6.99967 0.666992ZM6.99967 9.83366C6.50522 9.83366 6.02187 9.68704 5.61075 9.41233C5.19963 9.13763 4.87919 8.74718 4.68998 8.29037C4.50076 7.83355 4.45125 7.33089 4.54771 6.84593C4.64417 6.36098 4.88228 5.91552 5.23191 5.56589C5.58154 5.21626 6.027 4.97816 6.51195 4.8817C6.9969 4.78523 7.49957 4.83474 7.95638 5.02396C8.4132 5.21318 8.80364 5.53361 9.07835 5.94473C9.35305 6.35586 9.49967 6.83921 9.49967 7.33366C9.49967 7.9967 9.23628 8.63259 8.76744 9.10143C8.2986 9.57027 7.66272 9.83366 6.99967 9.83366Z" fill="#2D9CDB"/>
</svg>
