<svg width="50" height="50" viewBox="0 0 50 50" fill="none" xmlns="http://www.w3.org/2000/svg">
<path d="M8.59375 43.75C6.44062 43.75 4.6875 41.9984 4.6875 39.8438V17.9688C4.6875 17.5375 5.0375 17.1875 5.46875 17.1875H8.59375C9.025 17.1875 9.375 17.5375 9.375 17.9688C9.375 18.4 9.025 18.75 8.59375 18.75H6.25V39.8438C6.25 41.1359 7.30156 42.1875 8.59375 42.1875C9.025 42.1875 9.375 42.5375 9.375 42.9688C9.375 43.4 9.025 43.75 8.59375 43.75Z" fill="url(#paint0_linear_3378_30425)"/>
<path d="M8.59375 43.75C8.1625 43.75 7.8125 43.4 7.8125 42.9688C7.8125 42.5375 8.1625 42.1875 8.59375 42.1875C9.88594 42.1875 10.9375 41.1359 10.9375 39.8438V5.46875C10.9375 5.0375 11.2875 4.6875 11.7188 4.6875C12.15 4.6875 12.5 5.0375 12.5 5.46875V39.8438C12.5 41.9984 10.7469 43.75 8.59375 43.75Z" fill="url(#paint1_linear_3378_30425)"/>
<path d="M8.59375 46.875C4.71719 46.875 1.5625 43.7203 1.5625 39.8438V19.5312C1.5625 19.1 1.9125 18.75 2.34375 18.75C2.775 18.75 3.125 19.1 3.125 19.5312V39.8438C3.125 42.8594 5.57813 45.3125 8.59375 45.3125C9.025 45.3125 9.375 45.6625 9.375 46.0938C9.375 46.525 9.025 46.875 8.59375 46.875Z" fill="url(#paint2_linear_3378_30425)"/>
<path d="M41.4062 46.875H8.59375C8.1625 46.875 7.8125 46.525 7.8125 46.0937C7.8125 45.6625 8.1625 45.3125 8.59375 45.3125C11.6094 45.3125 14.0625 42.8594 14.0625 39.8437V3.90625C14.0625 3.475 14.4125 3.125 14.8437 3.125H47.6562C48.0875 3.125 48.4375 3.475 48.4375 3.90625V39.8437C48.4375 43.7203 45.2828 46.875 41.4062 46.875ZM13.0094 45.3125H41.4062C44.4219 45.3125 46.875 42.8594 46.875 39.8437V4.6875H15.625V39.8437C15.625 42.05 14.6031 44.0234 13.0094 45.3125Z" fill="url(#paint3_linear_3378_30425)"/>
<path d="M37.4971 15.6248C37.1736 15.6248 36.8799 15.4248 36.7658 15.1185L34.4221 8.86854C34.2705 8.46385 34.4752 8.01385 34.8783 7.86229C35.2814 7.70448 35.733 7.91385 35.8846 8.31854L37.2674 12.0076L37.9814 8.43885C38.0658 8.01541 38.4783 7.73729 38.9002 7.82635C39.3236 7.91073 39.5971 8.32166 39.5127 8.74666L38.2611 14.9967C38.1924 15.3389 37.9049 15.5935 37.558 15.6201C37.5393 15.6232 37.5174 15.6248 37.4971 15.6248Z" fill="url(#paint4_linear_3378_30425)"/>
<path d="M32.8094 15.6252C32.7891 15.6252 32.7672 15.6236 32.7453 15.6221C32.3969 15.5939 32.1109 15.3377 32.0422 14.9971L30.7969 8.74705C30.7125 8.32362 30.9875 7.91268 31.4109 7.8283C31.8328 7.73924 32.2453 8.01737 32.3297 8.44237L33.0391 12.0049L34.4203 8.32049C34.5719 7.9158 35.0219 7.70643 35.4266 7.86424C35.8297 8.0158 36.0344 8.4658 35.8828 8.87049L33.5391 15.1205C33.4266 15.4252 33.1328 15.6252 32.8094 15.6252ZM22.6562 15.6252C22.4016 15.6252 22.1562 15.5002 22.0078 15.2799L18.75 10.4517V14.8439C18.75 15.2752 18.4 15.6252 17.9687 15.6252C17.5375 15.6252 17.1875 15.2752 17.1875 14.8439V8.59393C17.1875 8.16268 17.5375 7.81268 17.9687 7.81268H18.4391C18.6984 7.81268 18.9406 7.94237 19.0875 8.15799L21.875 12.2892V8.59393C21.875 8.16268 22.225 7.81268 22.6562 7.81268C23.0875 7.81268 23.4375 8.16268 23.4375 8.59393V14.8439C23.4375 15.1877 23.2125 15.4908 22.8844 15.5924C22.8094 15.6142 22.7328 15.6252 22.6562 15.6252ZM28.9062 15.6252H25.7812C25.35 15.6252 25 15.2752 25 14.8439V8.59393C25 8.16268 25.35 7.81268 25.7812 7.81268H28.9062C29.3375 7.81268 29.6875 8.16268 29.6875 8.59393C29.6875 9.02518 29.3375 9.37518 28.9062 9.37518H26.5625V14.0627H28.9062C29.3375 14.0627 29.6875 14.4127 29.6875 14.8439C29.6875 15.2752 29.3375 15.6252 28.9062 15.6252Z" fill="url(#paint5_linear_3378_30425)"/>
<path d="M28.125 12.5H25.7813C25.35 12.5 25 12.15 25 11.7188C25 11.2875 25.35 10.9375 25.7813 10.9375H28.125C28.5563 10.9375 28.9063 11.2875 28.9063 11.7188C28.9063 12.15 28.5563 12.5 28.125 12.5ZM42.9688 15.625C41.6766 15.625 40.6172 14.8922 40.1359 13.6641C39.9781 13.2625 40.1766 12.8094 40.5781 12.6516C40.9781 12.4953 41.4344 12.6906 41.5906 13.0938C41.7641 13.5359 42.1438 14.0625 42.9688 14.0625C43.5328 14.0625 43.7953 13.5313 43.7953 13.1719C43.7953 12.8625 43.5266 12.6828 42.7203 12.3047C42.2047 12.0641 41.6219 11.7891 41.2125 11.3219C40.6531 10.6844 40.5016 9.75781 40.8391 9.0125C41.1844 8.25 41.9406 7.8125 42.9141 7.8125C44.1656 7.8125 44.825 8.51719 44.8969 8.59687C45.1828 8.92031 45.1531 9.41406 44.8313 9.7C44.5125 9.98438 44.0281 9.95938 43.7406 9.64844C43.7125 9.62188 43.4438 9.375 42.9141 9.375C42.675 9.375 42.3688 9.42344 42.2625 9.65781C42.1766 9.84688 42.2297 10.1125 42.3859 10.2906C42.5813 10.5141 42.9906 10.7062 43.3844 10.8906C44.2172 11.2828 45.3578 11.8172 45.3578 13.1719C45.3578 14.3516 44.4453 15.625 42.9688 15.625Z" fill="url(#paint6_linear_3378_30425)"/>
<path d="M42.9688 40.625H33.5938C33.1625 40.625 32.8125 40.275 32.8125 39.8438C32.8125 39.4125 33.1625 39.0625 33.5938 39.0625H42.9688C43.4 39.0625 43.75 39.4125 43.75 39.8438C43.75 40.275 43.4 40.625 42.9688 40.625ZM28.9062 40.625H19.5312C19.1 40.625 18.75 40.275 18.75 39.8438C18.75 39.4125 19.1 39.0625 19.5312 39.0625H28.9062C29.3375 39.0625 29.6875 39.4125 29.6875 39.8438C29.6875 40.275 29.3375 40.625 28.9062 40.625ZM42.9688 37.5H33.5938C33.1625 37.5 32.8125 37.15 32.8125 36.7188C32.8125 36.2875 33.1625 35.9375 33.5938 35.9375H42.9688C43.4 35.9375 43.75 36.2875 43.75 36.7188C43.75 37.15 43.4 37.5 42.9688 37.5ZM28.9062 37.5H19.5312C19.1 37.5 18.75 37.15 18.75 36.7188C18.75 36.2875 19.1 35.9375 19.5312 35.9375H28.9062C29.3375 35.9375 29.6875 36.2875 29.6875 36.7188C29.6875 37.15 29.3375 37.5 28.9062 37.5ZM42.9688 34.375H33.5938C33.1625 34.375 32.8125 34.025 32.8125 33.5938C32.8125 33.1625 33.1625 32.8125 33.5938 32.8125H42.9688C43.4 32.8125 43.75 33.1625 43.75 33.5938C43.75 34.025 43.4 34.375 42.9688 34.375ZM28.9062 34.375H19.5312C19.1 34.375 18.75 34.025 18.75 33.5938C18.75 33.1625 19.1 32.8125 19.5312 32.8125H28.9062C29.3375 32.8125 29.6875 33.1625 29.6875 33.5938C29.6875 34.025 29.3375 34.375 28.9062 34.375ZM42.9688 31.25H33.5938C33.1625 31.25 32.8125 30.9 32.8125 30.4688C32.8125 30.0375 33.1625 29.6875 33.5938 29.6875H42.9688C43.4 29.6875 43.75 30.0375 43.75 30.4688C43.75 30.9 43.4 31.25 42.9688 31.25ZM28.9062 31.25H19.5312C19.1 31.25 18.75 30.9 18.75 30.4688C18.75 30.0375 19.1 29.6875 19.5312 29.6875H28.9062C29.3375 29.6875 29.6875 30.0375 29.6875 30.4688C29.6875 30.9 29.3375 31.25 28.9062 31.25Z" fill="url(#paint7_linear_3378_30425)"/>
<path d="M42.9688 28.125H33.5938C33.1625 28.125 32.8125 27.775 32.8125 27.3438C32.8125 26.9125 33.1625 26.5625 33.5938 26.5625H42.9688C43.4 26.5625 43.75 26.9125 43.75 27.3438C43.75 27.775 43.4 28.125 42.9688 28.125ZM28.9062 28.125H19.5312C19.1 28.125 18.75 27.775 18.75 27.3438C18.75 26.9125 19.1 26.5625 19.5312 26.5625H28.9062C29.3375 26.5625 29.6875 26.9125 29.6875 27.3438C29.6875 27.775 29.3375 28.125 28.9062 28.125Z" fill="url(#paint8_linear_3378_30425)"/>
<path d="M42.9688 25H33.5938C33.1625 25 32.8125 24.65 32.8125 24.2188C32.8125 23.7875 33.1625 23.4375 33.5938 23.4375H42.9688C43.4 23.4375 43.75 23.7875 43.75 24.2188C43.75 24.65 43.4 25 42.9688 25ZM28.9062 25H19.5312C19.1 25 18.75 24.65 18.75 24.2188C18.75 23.7875 19.1 23.4375 19.5312 23.4375H28.9062C29.3375 23.4375 29.6875 23.7875 29.6875 24.2188C29.6875 24.65 29.3375 25 28.9062 25Z" fill="url(#paint9_linear_3378_30425)"/>
<path d="M42.9688 21.875H33.5938C33.1625 21.875 32.8125 21.525 32.8125 21.0938C32.8125 20.6625 33.1625 20.3125 33.5938 20.3125H42.9688C43.4 20.3125 43.75 20.6625 43.75 21.0938C43.75 21.525 43.4 21.875 42.9688 21.875ZM28.9062 21.875H19.5312C19.1 21.875 18.75 21.525 18.75 21.0938C18.75 20.6625 19.1 20.3125 19.5312 20.3125H28.9062C29.3375 20.3125 29.6875 20.6625 29.6875 21.0938C29.6875 21.525 29.3375 21.875 28.9062 21.875Z" fill="url(#paint10_linear_3378_30425)"/>
<defs>
<linearGradient id="paint0_linear_3378_30425" x1="5.68329" y1="-15.5048" x2="-3.12418" y2="-14.32" gradientUnits="userSpaceOnUse">
<stop stop-color="#2DD1DB"/>
<stop offset="0.60721" stop-color="#2D9CDB"/>
<stop offset="1" stop-color="#1A8ED0"/>
</linearGradient>
<linearGradient id="paint1_linear_3378_30425" x1="8.80829" y1="-43.3894" x2="-0.0841491" y2="-42.576" gradientUnits="userSpaceOnUse">
<stop stop-color="#2DD1DB"/>
<stop offset="0.60721" stop-color="#2D9CDB"/>
<stop offset="1" stop-color="#1A8ED0"/>
</linearGradient>
<linearGradient id="paint2_linear_3378_30425" x1="3.22215" y1="-15.8654" x2="-11.0813" y2="-12.8367" gradientUnits="userSpaceOnUse">
<stop stop-color="#2DD1DB"/>
<stop offset="0.60721" stop-color="#2D9CDB"/>
<stop offset="1" stop-color="#1A8ED0"/>
</linearGradient>
<linearGradient id="paint3_linear_3378_30425" x1="16.4427" y1="-50.7212" x2="-35.3299" y2="-14.0744" gradientUnits="userSpaceOnUse">
<stop stop-color="#2DD1DB"/>
<stop offset="0.60721" stop-color="#2D9CDB"/>
<stop offset="1" stop-color="#1A8ED0"/>
</linearGradient>
<linearGradient id="paint4_linear_3378_30425" x1="35.4674" y1="-1.80916" x2="27.5954" y2="2.14967" gradientUnits="userSpaceOnUse">
<stop stop-color="#2DD1DB"/>
<stop offset="0.60721" stop-color="#2D9CDB"/>
<stop offset="1" stop-color="#1A8ED0"/>
</linearGradient>
<linearGradient id="paint5_linear_3378_30425" x1="21.1697" y1="-1.80528" x2="12.9157" y2="13.2893" gradientUnits="userSpaceOnUse">
<stop stop-color="#2DD1DB"/>
<stop offset="0.60721" stop-color="#2D9CDB"/>
<stop offset="1" stop-color="#1A8ED0"/>
</linearGradient>
<linearGradient id="paint6_linear_3378_30425" x1="29.3247" y1="-1.80289" x2="21.4506" y2="13.8381" gradientUnits="userSpaceOnUse">
<stop stop-color="#2DD1DB"/>
<stop offset="0.60721" stop-color="#2D9CDB"/>
<stop offset="1" stop-color="#1A8ED0"/>
</linearGradient>
<linearGradient id="paint7_linear_3378_30425" x1="24.0609" y1="16.226" x2="12.2114" y2="36.8723" gradientUnits="userSpaceOnUse">
<stop stop-color="#2DD1DB"/>
<stop offset="0.60721" stop-color="#2D9CDB"/>
<stop offset="1" stop-color="#1A8ED0"/>
</linearGradient>
<linearGradient id="paint8_linear_3378_30425" x1="24.0609" y1="24.6394" x2="23.7415" y2="28.5343" gradientUnits="userSpaceOnUse">
<stop stop-color="#2DD1DB"/>
<stop offset="0.60721" stop-color="#2D9CDB"/>
<stop offset="1" stop-color="#1A8ED0"/>
</linearGradient>
<linearGradient id="paint9_linear_3378_30425" x1="24.0609" y1="21.5144" x2="23.7415" y2="25.4093" gradientUnits="userSpaceOnUse">
<stop stop-color="#2DD1DB"/>
<stop offset="0.60721" stop-color="#2D9CDB"/>
<stop offset="1" stop-color="#1A8ED0"/>
</linearGradient>
<linearGradient id="paint10_linear_3378_30425" x1="24.0609" y1="18.3894" x2="23.7415" y2="22.2843" gradientUnits="userSpaceOnUse">
<stop stop-color="#2DD1DB"/>
<stop offset="0.60721" stop-color="#2D9CDB"/>
<stop offset="1" stop-color="#1A8ED0"/>
</linearGradient>
</defs>
</svg>
