<svg width="24" height="24" viewBox="0 0 24 24" fill="none" xmlns="http://www.w3.org/2000/svg">
<path d="M17.7346 2H6.26542C3.90969 2 2 3.90969 2 6.26542V17.7346C2 20.0903 3.90969 22 6.26542 22H17.7346C20.0903 22 22 20.0903 22 17.7346V6.26542C22 3.90969 20.0903 2 17.7346 2Z" fill="#2D9CDB"/>
<path fill-rule="evenodd" clip-rule="evenodd" d="M17.997 9.07122C17.5481 9.2546 17.0719 9.37494 16.5844 9.42822C17.0942 9.14594 17.4841 8.70038 17.6641 8.17179C17.1818 8.43556 16.6544 8.62179 16.1045 8.72252C15.7675 8.38873 15.3293 8.15641 14.8471 8.05584C14.3649 7.95527 13.861 7.99113 13.4013 8.15874C12.9415 8.32635 12.5471 8.61794 12.2696 8.99545C11.9921 9.37297 11.8443 9.8189 11.8455 10.2751C11.8449 10.4492 11.8661 10.6229 11.9085 10.7926C10.9302 10.7473 9.97316 10.5128 9.09942 10.1042C8.22569 9.6956 7.45481 9.12209 6.83679 8.42086C6.52065 8.92074 6.42344 9.51318 6.56505 10.077C6.70666 10.6408 7.07639 11.1334 7.5986 11.454C7.20734 11.4427 6.82473 11.3449 6.48288 11.169V11.1966C6.48288 12.2981 7.33167 13.2169 8.45639 13.4244C8.09457 13.5155 7.71491 13.5288 7.34666 13.4632C7.50394 13.9141 7.80985 14.3085 8.22171 14.5913C8.63357 14.874 9.13082 15.0311 9.64409 15.0406C9.13359 15.4109 8.54894 15.6846 7.92363 15.8461C7.29832 16.0075 6.64463 16.0536 6 15.9816C7.08873 16.6264 8.3814 17 9.77306 17C14.3019 17 16.7763 13.5407 16.7763 10.538C16.7763 10.4411 16.7763 10.3443 16.7703 10.2446C17.2502 9.92636 17.6701 9.52508 18 9.07122H17.997Z" fill="white"/>
</svg>
