<svg width="776" height="77" viewBox="0 0 776 77" fill="none" xmlns="http://www.w3.org/2000/svg">
<path opacity="0.6" d="M5.11725 24.736L4.24965 24.2387L4.24769 24.2422L5.11725 24.736ZM17.3092 12.544L17.7995 13.4156L17.8031 13.4136L17.3092 12.544ZM66.1732 29.824V30.824H67.5565L67.1228 29.5105L66.1732 29.824ZM50.7173 29.824L49.8157 30.2567L50.088 30.824H50.7173V29.824ZM44.1893 22.624L43.6866 23.4885L43.6952 23.4935L44.1893 22.624ZM24.1252 23.008L24.6371 23.8671L24.6424 23.8639L24.1252 23.008ZM17.0212 30.688L16.1338 30.2272L16.1302 30.234L16.1268 30.2408L17.0212 30.688ZM17.0212 54.112L16.1235 54.5524L16.1285 54.5627L16.1338 54.5728L17.0212 54.112ZM24.1252 61.888L23.6001 62.739L23.6107 62.7455L23.6214 62.7518L24.1252 61.888ZM44.1893 62.176L44.6919 63.0405L44.698 63.0369L44.1893 62.176ZM50.7173 54.88V53.88H50.088L49.8157 54.4473L50.7173 54.88ZM66.1732 54.88L67.1237 55.1909L67.5525 53.88H66.1732V54.88ZM54.3652 70.912L54.9265 71.7396L54.9286 71.7382L54.3652 70.912ZM17.3092 72.256L16.8108 73.1229L16.8172 73.1266L16.8236 73.1302L17.3092 72.256ZM5.11725 60.064L4.24765 60.5578L4.25231 60.5659L5.11725 60.064ZM1.70125 42.4C1.70125 35.9624 3.13711 30.2478 5.98681 25.2298L4.24769 24.2422C1.20939 29.5922 -0.298752 35.6536 -0.298752 42.4H1.70125ZM5.98484 25.2333C8.90592 20.1369 12.8416 16.2044 17.7995 13.4156L16.819 11.6724C11.5369 14.6436 7.34457 18.8391 4.24966 24.2387L5.98484 25.2333ZM17.8031 13.4136C22.8255 10.5613 28.4452 9.128 34.6852 9.128V7.128C28.1253 7.128 22.161 8.63868 16.8154 11.6744L17.8031 13.4136ZM34.6852 9.128C41.993 9.128 48.3523 10.9986 53.8019 14.7142L54.9286 13.0618C49.1142 9.09744 42.3535 7.128 34.6852 7.128V9.128ZM53.8019 14.7142C59.2432 18.4242 63.049 23.5515 65.2237 30.1375L67.1228 29.5105C64.8175 22.5285 60.7513 17.0318 54.9286 13.0618L53.8019 14.7142ZM66.1732 28.824H50.7173V30.824H66.1732V28.824ZM51.6188 29.3913C50.0035 26.026 47.6934 23.4649 44.6833 21.7545L43.6952 23.4935C46.3171 24.9831 48.359 27.222 49.8157 30.2567L51.6188 29.3913ZM44.6919 21.7595C41.7661 20.0585 38.3876 19.224 34.5892 19.224V21.224C38.0869 21.224 41.1084 21.9895 43.6866 23.4885L44.6919 21.7595ZM34.5892 19.224C30.5195 19.224 26.8497 20.1936 23.6081 22.1521L24.6424 23.8639C27.5448 22.1104 30.851 21.224 34.5892 21.224V19.224ZM23.6134 22.1489C20.4342 24.0429 17.9412 26.7463 16.1338 30.2272L17.9087 31.1488C19.5573 27.9737 21.8003 25.5571 24.6371 23.8671L23.6134 22.1489ZM16.1268 30.2408C14.3806 33.7332 13.5252 37.7961 13.5252 42.4H15.5252C15.5252 38.0439 16.3339 34.2988 17.9157 31.1352L16.1268 30.2408ZM13.5252 42.4C13.5252 46.943 14.3817 51.002 16.1235 54.5524L17.919 53.6716C16.3327 50.438 15.5252 46.689 15.5252 42.4H13.5252ZM16.1338 54.5728C17.9398 58.0511 20.4288 60.7823 23.6001 62.739L24.6504 61.037C21.8057 59.2817 19.5587 56.8289 17.9087 53.6512L16.1338 54.5728ZM23.6214 62.7518C26.861 64.6415 30.526 65.576 34.5892 65.576V63.576C30.8445 63.576 27.5335 62.7184 24.6291 61.0242L23.6214 62.7518ZM34.5892 65.576C38.3876 65.576 41.7661 64.7415 44.6919 63.0405L43.6866 61.3115C41.1084 62.8105 38.0869 63.576 34.5892 63.576V65.576ZM44.698 63.0369C47.699 61.2636 50.0047 58.6753 51.6188 55.3127L49.8157 54.4473C48.3578 57.4847 46.3115 59.7604 43.6805 61.3151L44.698 63.0369ZM50.7173 55.88H66.1732V53.88H50.7173V55.88ZM65.2228 54.5691C63.0472 61.2201 59.2407 66.3775 53.8019 70.0858L54.9286 71.7382C60.7538 67.7665 64.8193 62.2359 67.1237 55.1909L65.2228 54.5691ZM53.804 70.0844C48.4215 73.7346 42.0626 75.576 34.6852 75.576V77.576C42.4119 77.576 49.173 75.6414 54.9265 71.7396L53.804 70.0844ZM34.6852 75.576C28.4413 75.576 22.8187 74.1728 17.7949 71.3818L16.8236 73.1302C22.1678 76.0992 28.1292 77.576 34.6852 77.576V75.576ZM17.8077 71.3891C12.8421 68.5339 8.90353 64.5968 5.98219 59.5621L4.25231 60.5659C7.34697 65.8992 11.5364 70.0901 16.8108 73.1229L17.8077 71.3891ZM5.98681 59.5702C3.13711 54.5522 1.70125 48.8376 1.70125 42.4H-0.298752C-0.298752 49.1464 1.20939 55.2078 4.24769 60.5578L5.98681 59.5702ZM96.8528 4.96H97.8528V3.96H96.8528V4.96ZM96.8528 76V77H97.8528V76H96.8528ZM83.4128 76H82.4128V77H83.4128V76ZM83.4128 4.96V3.96H82.4128V4.96H83.4128ZM95.8528 4.96V76H97.8528V4.96H95.8528ZM96.8528 75H83.4128V77H96.8528V75ZM84.4128 76V4.96H82.4128V76H84.4128ZM83.4128 5.96H96.8528V3.96H83.4128V5.96ZM116.756 14.272L116.048 14.9791L116.063 14.9938L116.078 15.0079L116.756 14.272ZM116.756 3.04L117.447 3.76198L117.448 3.76138L116.756 3.04ZM128.564 3.04L127.856 3.7471L127.871 3.76183L127.886 3.77593L128.564 3.04ZM128.564 14.272L129.255 14.994L129.256 14.9934L128.564 14.272ZM129.331 22.816H130.331V21.816H129.331V22.816ZM129.331 76V77H130.331V76H129.331ZM115.892 76H114.892V77H115.892V76ZM115.892 22.816V21.816H114.892V22.816H115.892ZM122.708 15.48C120.566 15.48 118.831 14.8225 117.433 13.5361L116.078 15.0079C117.88 16.6655 120.113 17.48 122.708 17.48V15.48ZM117.463 13.5649C116.121 12.2229 115.451 10.592 115.451 8.608H113.451C113.451 11.104 114.318 13.2491 116.048 14.9791L117.463 13.5649ZM115.451 8.608C115.451 6.62445 116.12 5.03449 117.447 3.76198L116.064 2.31801C114.319 3.9895 113.451 6.11155 113.451 8.608H115.451ZM117.448 3.76138C118.848 2.41705 120.578 1.736 122.708 1.736V-0.264004C120.101 -0.264004 117.863 0.590943 116.063 2.31861L117.448 3.76138ZM122.708 1.736C124.837 1.736 126.526 2.41647 127.856 3.7471L129.271 2.33289C127.529 0.591522 125.314 -0.264004 122.708 -0.264004V1.736ZM127.886 3.77593C129.274 5.05216 129.964 6.63807 129.964 8.608H131.964C131.964 6.09793 131.053 3.97183 129.241 2.30406L127.886 3.77593ZM129.964 8.608C129.964 10.5788 129.272 12.2053 127.871 13.5506L129.256 14.9934C131.055 13.2667 131.964 11.1172 131.964 8.608H129.964ZM127.872 13.55C126.543 14.8228 124.849 15.48 122.708 15.48V17.48C125.302 17.48 127.512 16.6652 129.255 14.994L127.872 13.55ZM128.331 22.816V76H130.331V22.816H128.331ZM129.331 75H115.892V77H129.331V75ZM116.892 76V22.816H114.892V76H116.892ZM115.892 23.816H129.331V21.816H115.892V23.816ZM197.426 53.44V54.44H198.273L198.413 53.6044L197.426 53.44ZM158.546 53.44V52.44H157.459L157.55 53.523L158.546 53.44ZM162.578 62.464L161.902 63.2003L162.578 62.464ZM181.97 59.296V58.296H181.348L181.073 58.8541L181.97 59.296ZM196.466 59.296L197.424 59.5834L197.81 58.296H196.466V59.296ZM187.634 71.968L188.234 72.768L188.242 72.7624L187.634 71.968ZM157.778 73.504L157.282 74.3722L157.29 74.3769L157.298 74.3814L157.778 73.504ZM148.274 63.808L147.394 64.2821L147.399 64.2925L148.274 63.808ZM148.274 34.912L147.394 34.4379L148.274 34.912ZM157.682 25.312L158.168 26.1862L157.682 25.312ZM185.138 25.216L184.657 26.0928L184.663 26.096L185.138 25.216ZM194.45 34.528L193.57 35.0029L193.575 35.0113L193.579 35.0196L194.45 34.528ZM183.89 44.416V45.416H184.909L184.89 44.3975L183.89 44.416ZM180.146 36.16L179.491 36.915L179.496 36.92L179.502 36.9249L180.146 36.16ZM162.77 36.064L163.433 36.8126L163.435 36.8114L162.77 36.064ZM158.642 44.416L157.652 44.2746L157.489 45.416H158.642V44.416ZM196.81 48.256C196.81 50.1331 196.685 51.8047 196.44 53.2756L198.413 53.6044C198.68 52.0033 198.81 50.2189 198.81 48.256H196.81ZM197.426 52.44H158.546V54.44H197.426V52.44ZM157.55 53.523C157.886 57.5608 159.313 60.8219 161.902 63.2003L163.255 61.7277C161.107 59.7541 159.846 56.9992 159.543 53.357L157.55 53.523ZM161.902 63.2003C164.469 65.5592 167.628 66.728 171.314 66.728V64.728C168.088 64.728 165.424 63.7208 163.255 61.7277L161.902 63.2003ZM171.314 66.728C173.955 66.728 176.278 66.1598 178.239 64.9761C180.203 63.7909 181.74 62.0268 182.867 59.7378L181.073 58.8541C180.089 60.8532 178.794 62.3051 177.205 63.2639C175.614 64.2242 173.665 64.728 171.314 64.728V66.728ZM181.97 60.296H196.466V58.296H181.97V60.296ZM195.508 59.0087C194.035 63.9217 191.216 67.9701 187.027 71.1736L188.242 72.7624C192.756 69.3099 195.826 64.9103 197.424 59.5834L195.508 59.0087ZM187.034 71.168C182.883 74.2816 177.759 75.864 171.602 75.864V77.864C178.118 77.864 183.682 76.1824 188.234 72.768L187.034 71.168ZM171.602 75.864C166.633 75.864 162.193 74.7786 158.258 72.6266L157.298 74.3814C161.555 76.7094 166.331 77.864 171.602 77.864V75.864ZM158.274 72.6358C154.405 70.4249 151.367 67.3274 149.149 63.3235L147.399 64.2925C149.79 68.6086 153.087 71.9751 157.282 74.3722L158.274 72.6358ZM149.155 63.3339C147.004 59.3403 145.914 54.7078 145.914 49.408H143.914C143.914 54.9882 145.064 59.9557 147.394 64.2821L149.155 63.3339ZM145.914 49.408C145.914 44.0421 147.005 39.378 149.155 35.3861L147.394 34.4379C145.063 38.766 143.914 43.7659 143.914 49.408H145.914ZM149.155 35.3861C151.306 31.3901 154.307 28.3309 158.168 26.1862L157.197 24.4378C152.993 26.7731 149.722 30.1139 147.394 34.4379L149.155 35.3861ZM158.168 26.1862C162.032 24.0395 166.5 22.952 171.602 22.952V20.952C166.208 20.952 161.397 22.1045 157.197 24.4378L158.168 26.1862ZM171.602 22.952C176.51 22.952 180.853 24.0068 184.657 26.0928L185.619 24.3392C181.487 22.0732 176.806 20.952 171.602 20.952V22.952ZM184.663 26.096C188.524 28.1794 191.487 31.1426 193.57 35.0029L195.33 34.0531C193.062 29.8494 189.817 26.6046 185.613 24.336L184.663 26.096ZM193.579 35.0196C195.724 38.8179 196.81 43.2202 196.81 48.256H198.81C198.81 42.9238 197.657 38.1741 195.321 34.0364L193.579 35.0196ZM184.89 44.3975C184.821 40.6814 183.464 37.6464 180.79 35.3951L179.502 36.9249C181.693 38.7696 182.831 41.2386 182.89 44.4345L184.89 44.3975ZM180.802 35.405C178.171 33.1199 174.955 31.992 171.218 31.992V33.992C174.521 33.992 177.258 34.9761 179.491 36.915L180.802 35.405ZM171.218 31.992C167.666 31.992 164.608 33.0924 162.106 35.3166L163.435 36.8114C165.54 34.9396 168.114 33.992 171.218 33.992V31.992ZM162.107 35.3154C159.654 37.4879 158.19 40.5072 157.652 44.2746L159.632 44.5574C160.118 41.1568 161.406 38.6081 163.433 36.8126L162.107 35.3154ZM158.642 45.416H183.89V43.416H158.642V45.416ZM258.212 28.096L257.494 28.7916L257.499 28.7973L258.212 28.096ZM264.068 76V77H265.068V76H264.068ZM250.628 76H249.628V77H250.628V76ZM247.46 36.928L246.723 37.6038L246.733 37.614L247.46 36.928ZM229.988 36.928L229.261 36.2414L229.261 36.242L229.988 36.928ZM226.82 76V77H227.82V76H226.82ZM213.38 76H212.38V77H213.38V76ZM213.38 22.816V21.816H212.38V22.816H213.38ZM226.82 22.816H227.82V21.816H226.82V22.816ZM226.82 29.44H225.82V32.3545L227.61 30.0539L226.82 29.44ZM233.636 24.064L234.058 24.9708L234.067 24.9665L233.636 24.064ZM242.852 23.048C248.956 23.048 253.803 24.98 257.494 28.7916L258.931 27.4004C254.813 23.148 249.421 21.048 242.852 21.048V23.048ZM257.499 28.7973C261.171 32.5288 263.068 37.8157 263.068 44.8H265.068C265.068 37.4483 263.062 31.5992 258.925 27.3947L257.499 28.7973ZM263.068 44.8V76H265.068V44.8H263.068ZM264.068 75H250.628V77H264.068V75ZM251.628 76V46.624H249.628V76H251.628ZM251.628 46.624C251.628 42.2411 250.531 38.7274 248.188 36.242L246.733 37.614C248.613 39.6086 249.628 42.5589 249.628 46.624H251.628ZM248.197 36.2523C245.864 33.7066 242.697 32.472 238.82 32.472V34.472C242.239 34.472 244.833 35.5414 246.723 37.6037L248.197 36.2523ZM238.82 32.472C234.884 32.472 231.659 33.7029 229.261 36.2414L230.715 37.6146C232.67 35.5451 235.332 34.472 238.82 34.472V32.472ZM229.261 36.242C226.917 38.7274 225.82 42.2411 225.82 46.624H227.82C227.82 42.5589 228.835 39.6086 230.716 37.614L229.261 36.242ZM225.82 46.624V76H227.82V46.624H225.82ZM226.82 75H213.38V77H226.82V75ZM214.38 76V22.816H212.38V76H214.38ZM213.38 23.816H226.82V21.816H213.38V23.816ZM225.82 22.816V29.44H227.82V22.816H225.82ZM227.61 30.0539C229.3 27.8804 231.444 26.1865 234.058 24.9707L233.215 23.1573C230.324 24.5015 227.924 26.3916 226.031 28.8261L227.61 30.0539ZM234.067 24.9665C236.74 23.6909 239.663 23.048 242.852 23.048V21.048C239.385 21.048 236.165 21.7491 233.206 23.1615L234.067 24.9665ZM298.257 33.856V32.856H297.257V33.856H298.257ZM299.505 63.52L298.798 64.2271L298.825 64.2543L298.854 64.2793L299.505 63.52ZM310.161 64.672H311.161V63.672H310.161V64.672ZM310.161 76V77H311.161V76H310.161ZM284.721 33.856H285.721V32.856H284.721V33.856ZM278.385 33.856H277.385V34.856H278.385V33.856ZM278.385 22.816V21.816H277.385V22.816H278.385ZM284.721 22.816V23.816H285.721V22.816H284.721ZM284.721 9.664V8.664H283.721V9.664H284.721ZM298.257 9.664H299.257V8.664H298.257V9.664ZM298.257 22.816H297.257V23.816H298.257V22.816ZM310.161 22.816H311.161V21.816H310.161V22.816ZM310.161 33.856V34.856H311.161V33.856H310.161ZM297.257 33.856V59.584H299.257V33.856H297.257ZM297.257 59.584C297.257 61.505 297.7 63.1293 298.798 64.2271L300.212 62.8129C299.646 62.2467 299.257 61.247 299.257 59.584H297.257ZM298.854 64.2793C300.024 65.2819 301.794 65.672 303.921 65.672V63.672C301.952 63.672 300.778 63.2941 300.156 62.7607L298.854 64.2793ZM303.921 65.672H310.161V63.672H303.921V65.672ZM309.161 64.672V76H311.161V64.672H309.161ZM310.161 75H301.713V77H310.161V75ZM301.713 75C296.196 75 292.243 73.6595 289.666 71.1548C287.094 68.6553 285.721 64.8305 285.721 59.488H283.721C283.721 65.1535 285.18 69.5846 288.272 72.5892C291.359 75.5885 295.902 77 301.713 77V75ZM285.721 59.488V33.856H283.721V59.488H285.721ZM284.721 32.856H278.385V34.856H284.721V32.856ZM279.385 33.856V22.816H277.385V33.856H279.385ZM278.385 23.816H284.721V21.816H278.385V23.816ZM285.721 22.816V9.664H283.721V22.816H285.721ZM284.721 10.664H298.257V8.664H284.721V10.664ZM297.257 9.664V22.816H299.257V9.664H297.257ZM298.257 23.816H310.161V21.816H298.257V23.816ZM309.161 22.816V33.856H311.161V22.816H309.161ZM310.161 32.856H298.257V34.856H310.161V32.856ZM388.783 76L387.913 76.4927L388.2 77H388.783V76ZM373.999 49.888L374.869 49.3953L374.582 48.888H373.999V49.888ZM367.663 49.888V48.888H366.663V49.888H367.663ZM367.663 76V77H368.663V76H367.663ZM354.223 76H353.223V77H354.223V76ZM354.223 8.992V7.992H353.223V8.992H354.223ZM392.623 11.776L392.169 12.6674L392.182 12.6736L392.623 11.776ZM400.783 19.168L399.915 19.6641L399.921 19.6747L399.927 19.6851L400.783 19.168ZM399.727 41.536L400.536 42.1242L400.54 42.1172L399.727 41.536ZM388.303 48.832L388.046 47.8656L386.771 48.2044L387.442 49.3402L388.303 48.832ZM404.335 76V77H406.086L405.196 75.4918L404.335 76ZM367.663 39.808H366.663V40.808H367.663V39.808ZM387.055 37.216L387.749 37.9358L387.755 37.9295L387.762 37.9231L387.055 37.216ZM387.055 22.72L386.361 23.4398L386.367 23.4464L386.374 23.4528L387.055 22.72ZM367.663 20.128V19.128H366.663V20.128H367.663ZM389.653 75.5073L374.869 49.3953L373.129 50.3807L387.913 76.4927L389.653 75.5073ZM373.999 48.888H367.663V50.888H373.999V48.888ZM366.663 49.888V76H368.663V49.888H366.663ZM367.663 75H354.223V77H367.663V75ZM355.223 76V8.992H353.223V76H355.223ZM354.223 9.992H379.375V7.992H354.223V9.992ZM379.375 9.992C384.442 9.992 388.694 10.8992 392.169 12.6673L393.076 10.8847C389.255 8.94076 384.675 7.992 379.375 7.992V9.992ZM392.182 12.6736C395.674 14.3889 398.234 16.7229 399.915 19.6641L401.651 18.6719C399.748 15.3411 396.868 12.7471 393.064 10.8784L392.182 12.6736ZM399.927 19.6851C401.682 22.5901 402.567 25.865 402.567 29.536H404.567C404.567 25.527 403.596 21.8899 401.639 18.6509L399.927 19.6851ZM402.567 29.536C402.567 33.7442 401.352 37.5408 398.913 40.9548L400.54 42.1172C403.222 38.3632 404.567 34.1598 404.567 29.536H402.567ZM398.918 40.9478C396.519 44.2466 392.926 46.5682 388.046 47.8656L388.56 49.7984C393.791 48.4078 397.815 45.8654 400.535 42.1242L398.918 40.9478ZM387.442 49.3402L403.474 76.5082L405.196 75.4918L389.164 48.3238L387.442 49.3402ZM404.335 75H388.783V77H404.335V75ZM367.663 40.808H378.895V38.808H367.663V40.808ZM378.895 40.808C382.682 40.808 385.699 39.9122 387.749 37.9358L386.361 36.4962C384.826 37.9758 382.403 38.808 378.895 38.808V40.808ZM387.762 37.9231C389.784 35.9011 390.743 33.1585 390.743 29.824H388.743C388.743 32.7615 387.91 34.9469 386.348 36.5089L387.762 37.9231ZM390.743 29.824C390.743 26.55 389.781 23.8866 387.735 21.9872L386.374 23.4528C387.913 24.8814 388.743 26.954 388.743 29.824H390.743ZM387.749 22.0002C385.699 20.0238 382.682 19.128 378.895 19.128V21.128C382.403 21.128 384.826 21.9602 386.361 23.4398L387.749 22.0002ZM378.895 19.128H367.663V21.128H378.895V19.128ZM366.663 20.128V39.808H368.663V20.128H366.663ZM470.539 53.44V54.44H471.386L471.525 53.6044L470.539 53.44ZM431.659 53.44V52.44H430.572L430.662 53.523L431.659 53.44ZM435.691 62.464L435.014 63.2003L435.691 62.464ZM455.083 59.296V58.296H454.461L454.186 58.8541L455.083 59.296ZM469.579 59.296L470.537 59.5834L470.923 58.296H469.579V59.296ZM460.747 71.968L461.347 72.768L461.354 72.7624L460.747 71.968ZM430.891 73.504L430.395 74.3722L430.403 74.3769L430.411 74.3814L430.891 73.504ZM421.387 63.808L420.506 64.2821L420.512 64.2925L421.387 63.808ZM421.387 34.912L420.506 34.4379L421.387 34.912ZM430.795 25.312L431.28 26.1862L430.795 25.312ZM458.251 25.216L457.77 26.0928L457.776 26.096L458.251 25.216ZM467.563 34.528L466.683 35.0029L466.687 35.0113L466.692 35.0196L467.563 34.528ZM457.003 44.416V45.416H458.021L458.003 44.3975L457.003 44.416ZM453.259 36.16L452.603 36.915L452.609 36.92L452.615 36.9249L453.259 36.16ZM435.883 36.064L436.546 36.8126L436.547 36.8114L435.883 36.064ZM431.755 44.416L430.765 44.2746L430.602 45.416H431.755V44.416ZM469.923 48.256C469.923 50.1331 469.798 51.8047 469.552 53.2756L471.525 53.6044C471.792 52.0033 471.923 50.2189 471.923 48.256H469.923ZM470.539 52.44H431.659V54.44H470.539V52.44ZM430.662 53.523C430.999 57.5608 432.426 60.8219 435.014 63.2003L436.367 61.7277C434.22 59.7541 432.959 56.9992 432.655 53.357L430.662 53.523ZM435.014 63.2003C437.581 65.5592 440.741 66.728 444.427 66.728V64.728C441.201 64.728 438.536 63.7208 436.367 61.7277L435.014 63.2003ZM444.427 66.728C447.068 66.728 449.391 66.1598 451.352 64.9761C453.315 63.7909 454.852 62.0268 455.98 59.7378L454.186 58.8541C453.201 60.8532 451.906 62.3051 450.318 63.2639C448.727 64.2242 446.778 64.728 444.427 64.728V66.728ZM455.083 60.296H469.579V58.296H455.083V60.296ZM468.621 59.0087C467.147 63.9217 464.329 67.9701 460.139 71.1736L461.354 72.7624C465.869 69.3099 468.939 64.9103 470.537 59.5834L468.621 59.0087ZM460.147 71.168C455.995 74.2816 450.871 75.864 444.715 75.864V77.864C451.23 77.864 456.794 76.1824 461.347 72.768L460.147 71.168ZM444.715 75.864C439.746 75.864 435.306 74.7786 431.371 72.6266L430.411 74.3814C434.668 76.7094 439.444 77.864 444.715 77.864V75.864ZM431.387 72.6358C427.518 70.4249 424.479 67.3274 422.262 63.3235L420.512 64.2925C422.902 68.6086 426.2 71.9751 430.395 74.3722L431.387 72.6358ZM422.267 63.3339C420.117 59.3403 419.027 54.7078 419.027 49.408H417.027C417.027 54.9882 418.177 59.9557 420.506 64.2821L422.267 63.3339ZM419.027 49.408C419.027 44.0421 420.118 39.378 422.267 35.3861L420.506 34.4379C418.176 38.766 417.027 43.7659 417.027 49.408H419.027ZM422.267 35.3861C424.419 31.3901 427.42 28.3309 431.28 26.1862L430.309 24.4378C426.106 26.7731 422.835 30.1139 420.506 34.4379L422.267 35.3861ZM431.28 26.1862C435.144 24.0395 439.613 22.952 444.715 22.952V20.952C439.321 20.952 434.509 22.1045 430.309 24.4378L431.28 26.1862ZM444.715 22.952C449.623 22.952 453.966 24.0068 457.77 26.0928L458.732 24.3392C454.6 22.0732 449.919 20.952 444.715 20.952V22.952ZM457.776 26.096C461.636 28.1794 464.599 31.1426 466.683 35.0029L468.443 34.0531C466.174 29.8494 462.929 26.6046 458.726 24.336L457.776 26.096ZM466.692 35.0196C468.836 38.8179 469.923 43.2202 469.923 48.256H471.923C471.923 42.9238 470.769 38.1741 468.434 34.0364L466.692 35.0196ZM458.003 44.3975C457.934 40.6814 456.576 37.6464 453.903 35.3951L452.615 36.9249C454.805 38.7696 455.944 41.2386 456.003 44.4345L458.003 44.3975ZM453.914 35.405C451.283 33.1199 448.068 31.992 444.331 31.992V33.992C447.634 33.992 450.37 34.9761 452.603 36.915L453.914 35.405ZM444.331 31.992C440.779 31.992 437.721 33.0924 435.218 35.3166L436.547 36.8114C438.653 34.9396 441.227 33.992 444.331 33.992V31.992ZM435.22 35.3154C432.767 37.4879 431.303 40.5072 430.765 44.2746L432.745 44.5574C433.231 41.1568 434.519 38.6081 436.546 36.8126L435.22 35.3154ZM431.755 45.416H457.003V43.416H431.755V45.416ZM508.669 63.616L507.719 63.9289L508.669 66.8122L509.619 63.9289L508.669 63.616ZM522.109 22.816V21.816H521.385L521.159 22.5031L522.109 22.816ZM536.413 22.816L537.351 23.163L537.849 21.816H536.413V22.816ZM516.733 76V77H517.429L517.671 76.347L516.733 76ZM500.413 76L499.474 76.3456L499.715 77H500.413V76ZM480.829 22.816V21.816H479.395L479.89 23.1615L480.829 22.816ZM495.229 22.816L496.179 22.5031L495.952 21.816H495.229V22.816ZM509.619 63.9289L523.059 23.1289L521.159 22.5031L507.719 63.3031L509.619 63.9289ZM522.109 23.816H536.413V21.816H522.109V23.816ZM535.475 22.469L515.795 75.653L517.671 76.347L537.351 23.163L535.475 22.469ZM516.733 75H500.413V77H516.733V75ZM501.351 75.6544L481.767 22.4705L479.89 23.1615L499.474 76.3456L501.351 75.6544ZM480.829 23.816H495.229V21.816H480.829V23.816ZM494.279 23.1289L507.719 63.9289L509.619 63.3031L496.179 22.5031L494.279 23.1289ZM550.585 14.272L549.878 14.9791L549.893 14.9938L549.908 15.0079L550.585 14.272ZM550.585 3.04L551.277 3.76198L551.278 3.76138L550.585 3.04ZM562.393 3.04L561.686 3.7471L561.701 3.76183L561.716 3.77593L562.393 3.04ZM562.393 14.272L563.085 14.994L563.086 14.9934L562.393 14.272ZM563.161 22.816H564.161V21.816H563.161V22.816ZM563.161 76V77H564.161V76H563.161ZM549.721 76H548.721V77H549.721V76ZM549.721 22.816V21.816H548.721V22.816H549.721ZM556.537 15.48C554.396 15.48 552.661 14.8225 551.263 13.5361L549.908 15.0079C551.71 16.6655 553.943 17.48 556.537 17.48V15.48ZM551.293 13.5649C549.951 12.2229 549.281 10.592 549.281 8.608H547.281C547.281 11.104 548.148 13.2491 549.878 14.9791L551.293 13.5649ZM549.281 8.608C549.281 6.62445 549.95 5.03449 551.277 3.76198L549.894 2.31801C548.149 3.9895 547.281 6.11155 547.281 8.608H549.281ZM551.278 3.76138C552.678 2.41705 554.408 1.736 556.537 1.736V-0.264004C553.931 -0.264004 551.693 0.590943 549.893 2.31861L551.278 3.76138ZM556.537 1.736C558.667 1.736 560.356 2.41647 561.686 3.7471L563.101 2.33289C561.359 0.591522 559.144 -0.264004 556.537 -0.264004V1.736ZM561.716 3.77593C563.104 5.05216 563.793 6.63807 563.793 8.608H565.793C565.793 6.09793 564.883 3.97183 563.071 2.30406L561.716 3.77593ZM563.793 8.608C563.793 10.5788 563.102 12.2053 561.701 13.5506L563.086 14.9934C564.885 13.2667 565.793 11.1172 565.793 8.608H563.793ZM561.702 13.55C560.373 14.8228 558.679 15.48 556.537 15.48V17.48C559.132 17.48 561.341 16.6652 563.085 14.994L561.702 13.55ZM562.161 22.816V76H564.161V22.816H562.161ZM563.161 75H549.721V77H563.161V75ZM550.721 76V22.816H548.721V76H550.721ZM549.721 23.816H563.161V21.816H549.721V23.816ZM631.256 53.44V54.44H632.103L632.243 53.6044L631.256 53.44ZM592.376 53.44V52.44H591.289L591.38 53.523L592.376 53.44ZM596.408 62.464L595.732 63.2003L596.408 62.464ZM615.8 59.296V58.296H615.178L614.903 58.8541L615.8 59.296ZM630.296 59.296L631.254 59.5834L631.64 58.296H630.296V59.296ZM621.464 71.968L622.064 72.768L622.072 72.7624L621.464 71.968ZM591.608 73.504L591.112 74.3722L591.12 74.3769L591.128 74.3814L591.608 73.504ZM582.104 63.808L581.224 64.2821L581.229 64.2925L582.104 63.808ZM582.104 34.912L581.224 34.4379L582.104 34.912ZM591.512 25.312L591.998 26.1862L591.512 25.312ZM618.968 25.216L618.487 26.0928L618.493 26.096L618.968 25.216ZM628.28 34.528L627.4 35.0029L627.405 35.0113L627.409 35.0196L628.28 34.528ZM617.72 44.416V45.416H618.739L618.72 44.3975L617.72 44.416ZM613.976 36.16L613.321 36.915L613.326 36.92L613.332 36.9249L613.976 36.16ZM596.6 36.064L597.263 36.8126L597.265 36.8114L596.6 36.064ZM592.472 44.416L591.482 44.2746L591.319 45.416H592.472V44.416ZM630.64 48.256C630.64 50.1331 630.515 51.8047 630.27 53.2756L632.243 53.6044C632.509 52.0033 632.64 50.2189 632.64 48.256H630.64ZM631.256 52.44H592.376V54.44H631.256V52.44ZM591.38 53.523C591.716 57.5608 593.143 60.8219 595.732 63.2003L597.085 61.7277C594.937 59.7541 593.676 56.9992 593.373 53.357L591.38 53.523ZM595.732 63.2003C598.299 65.5592 601.458 66.728 605.144 66.728V64.728C601.918 64.728 599.254 63.7208 597.085 61.7277L595.732 63.2003ZM605.144 66.728C607.785 66.728 610.108 66.1598 612.069 64.9761C614.033 63.7909 615.57 62.0268 616.697 59.7378L614.903 58.8541C613.919 60.8532 612.624 62.3051 611.035 63.2639C609.444 64.2242 607.495 64.728 605.144 64.728V66.728ZM615.8 60.296H630.296V58.296H615.8V60.296ZM629.338 59.0087C627.865 63.9217 625.046 67.9701 620.857 71.1736L622.072 72.7624C626.586 69.3099 629.656 64.9103 631.254 59.5834L629.338 59.0087ZM620.864 71.168C616.713 74.2816 611.589 75.864 605.432 75.864V77.864C611.948 77.864 617.512 76.1824 622.064 72.768L620.864 71.168ZM605.432 75.864C600.463 75.864 596.023 74.7786 592.088 72.6266L591.128 74.3814C595.385 76.7094 600.161 77.864 605.432 77.864V75.864ZM592.104 72.6358C588.235 70.4249 585.197 67.3274 582.979 63.3235L581.229 64.2925C583.62 68.6086 586.917 71.9751 591.112 74.3722L592.104 72.6358ZM582.985 63.3339C580.834 59.3403 579.744 54.7078 579.744 49.408H577.744C577.744 54.9882 578.894 59.9557 581.224 64.2821L582.985 63.3339ZM579.744 49.408C579.744 44.0421 580.835 39.378 582.985 35.3861L581.224 34.4379C578.893 38.766 577.744 43.7659 577.744 49.408H579.744ZM582.985 35.3861C585.136 31.3901 588.137 28.3309 591.998 26.1862L591.027 24.4378C586.823 26.7731 583.552 30.1139 581.224 34.4379L582.985 35.3861ZM591.998 26.1862C595.862 24.0395 600.33 22.952 605.432 22.952V20.952C600.038 20.952 595.227 22.1045 591.027 24.4378L591.998 26.1862ZM605.432 22.952C610.34 22.952 614.683 24.0068 618.487 26.0928L619.449 24.3392C615.317 22.0732 610.636 20.952 605.432 20.952V22.952ZM618.493 26.096C622.354 28.1794 625.317 31.1426 627.4 35.0029L629.16 34.0531C626.892 29.8494 623.647 26.6046 619.443 24.336L618.493 26.096ZM627.409 35.0196C629.554 38.8179 630.64 43.2202 630.64 48.256H632.64C632.64 42.9238 631.487 38.1741 629.151 34.0364L627.409 35.0196ZM618.72 44.3975C618.651 40.6814 617.294 37.6464 614.62 35.3951L613.332 36.9249C615.523 38.7696 616.661 41.2386 616.72 44.4345L618.72 44.3975ZM614.632 35.405C612.001 33.1199 608.785 31.992 605.048 31.992V33.992C608.351 33.992 611.088 34.9761 613.321 36.915L614.632 35.405ZM605.048 31.992C601.496 31.992 598.438 33.0924 595.936 35.3166L597.265 36.8114C599.37 34.9396 601.944 33.992 605.048 33.992V31.992ZM595.937 35.3154C593.484 37.4879 592.021 40.5072 591.482 44.2746L593.462 44.5574C593.948 41.1568 595.236 38.6081 597.263 36.8126L595.937 35.3154ZM592.472 45.416H617.72V43.416H592.472V45.416ZM720.938 22.816L721.898 23.0967L722.273 21.816H720.938V22.816ZM705.386 76V77H706.136L706.346 76.2807L705.386 76ZM690.89 76L689.923 76.2525L690.118 77H690.89V76ZM681.194 38.848L682.162 38.5955L681.194 34.888L680.227 38.5955L681.194 38.848ZM671.498 76V77H672.271L672.466 76.2525L671.498 76ZM656.906 76L655.947 76.2823L656.158 77H656.906V76ZM641.258 22.816V21.816H639.922L640.299 23.0983L641.258 22.816ZM654.89 22.816L655.864 22.5898L655.685 21.816H654.89V22.816ZM664.298 63.328L663.324 63.5542L665.268 63.5716L664.298 63.328ZM674.474 22.816V21.816H673.694L673.504 22.5724L674.474 22.816ZM688.682 22.816L689.653 22.5762L689.465 21.816H688.682V22.816ZM698.666 63.232L697.695 63.4718L699.64 63.4587L698.666 63.232ZM708.074 22.816V21.816H707.28L707.1 22.5893L708.074 22.816ZM719.978 22.5353L704.426 75.7193L706.346 76.2807L721.898 23.0967L719.978 22.5353ZM705.386 75H690.89V77H705.386V75ZM691.858 75.7475L682.162 38.5955L680.227 39.1005L689.923 76.2525L691.858 75.7475ZM680.227 38.5955L670.531 75.7475L672.466 76.2525L682.162 39.1005L680.227 38.5955ZM671.498 75H656.906V77H671.498V75ZM657.866 75.7177L642.218 22.5337L640.299 23.0983L655.947 76.2823L657.866 75.7177ZM641.258 23.816H654.89V21.816H641.258V23.816ZM653.916 23.0422L663.324 63.5542L665.272 63.1018L655.864 22.5898L653.916 23.0422ZM665.268 63.5716L675.444 23.0596L673.504 22.5724L663.328 63.0844L665.268 63.5716ZM674.474 23.816H688.682V21.816H674.474V23.816ZM687.711 23.0558L697.695 63.4718L699.637 62.9922L689.653 22.5762L687.711 23.0558ZM699.64 63.4587L709.048 23.0427L707.1 22.5893L697.692 63.0053L699.64 63.4587ZM708.074 23.816H720.938V21.816H708.074V23.816ZM742.61 74.56L742.19 75.4675L742.197 75.4707L742.204 75.4738L742.61 74.56ZM734.354 68.128L733.55 68.7219L733.554 68.728L733.559 68.734L734.354 68.128ZM731.09 59.2V58.2H730.03L730.092 59.2587L731.09 59.2ZM744.626 59.2L745.619 59.076L745.509 58.2H744.626V59.2ZM747.602 64.288L746.988 65.0774L746.995 65.0827L747.002 65.088L747.602 64.288ZM760.178 64.768L759.607 63.9471L759.599 63.9531L759.59 63.9593L760.178 64.768ZM759.698 56.992L759.238 57.8798L759.257 57.8898L759.277 57.899L759.698 56.992ZM751.346 54.112L751.604 53.1458L751.593 53.1428L751.581 53.14L751.346 54.112ZM741.554 51.136L741.175 52.0612L741.183 52.0645L741.554 51.136ZM735.026 46.432L734.264 47.079L734.269 47.0856L734.275 47.0921L735.026 46.432ZM734.834 29.824L734.019 29.2448L734.014 29.252L734.009 29.2593L734.834 29.824ZM742.13 24.064L741.727 23.1487L741.721 23.1517L742.13 24.064ZM768.53 26.752L767.884 27.5149L767.891 27.5213L768.53 26.752ZM774.77 39.52V40.52H775.844L775.768 39.4487L774.77 39.52ZM761.906 39.52L760.91 39.6105L760.993 40.52H761.906V39.52ZM759.218 34.528L758.578 35.2962L758.595 35.3106L758.613 35.3242L759.218 34.528ZM747.314 33.952L746.76 33.1199L746.75 33.1263L746.741 33.1328L747.314 33.952ZM748.082 41.824L747.61 42.7055L747.622 42.7121L747.635 42.7184L748.082 41.824ZM756.434 44.608L756.188 45.5772L756.192 45.5781L756.434 44.608ZM772.37 52.384L771.598 53.0197L771.609 53.0321L771.619 53.0441L772.37 52.384ZM775.25 60.832H776.25V60.8229L776.25 60.8138L775.25 60.832ZM772.658 69.088L771.843 68.5088L771.838 68.516L771.833 68.5233L772.658 69.088ZM765.362 74.848L765.756 75.7672L765.765 75.7633L765.362 74.848ZM754.322 75.864C750.089 75.864 746.327 75.1174 743.016 73.6462L742.204 75.4738C745.806 77.0746 749.851 77.864 754.322 77.864V75.864ZM743.03 73.6525C739.703 72.1122 737.087 70.0647 735.15 67.522L733.559 68.734C735.717 71.5673 738.605 73.8078 742.19 75.4675L743.03 73.6525ZM735.159 67.5341C733.287 64.9984 732.269 62.2075 732.089 59.1413L730.092 59.2587C730.296 62.7205 731.453 65.8816 733.55 68.7219L735.159 67.5341ZM731.09 60.2H744.626V58.2H731.09V60.2ZM743.634 59.324C743.925 61.6524 745.065 63.5815 746.988 65.0774L748.216 63.4986C746.683 62.3065 745.839 60.8436 745.619 59.076L743.634 59.324ZM747.002 65.088C748.996 66.5831 751.424 67.304 754.226 67.304V65.304C751.78 65.304 749.793 64.6809 748.202 63.488L747.002 65.088ZM754.226 67.304C756.903 67.304 759.124 66.7712 760.766 65.5767L759.59 63.9593C758.416 64.8128 756.67 65.304 754.226 65.304V67.304ZM760.749 65.5889C762.452 64.4042 763.386 62.8028 763.386 60.832H761.386C761.386 62.0612 760.848 63.0838 759.607 63.9471L760.749 65.5889ZM763.386 60.832C763.386 59.7856 763.112 58.8283 762.534 58.0025C761.961 57.1848 761.134 56.5558 760.119 56.085L759.277 57.899C760.055 58.2601 760.571 58.6872 760.895 59.1495C761.213 59.6037 761.386 60.1504 761.386 60.832H763.386ZM760.159 56.1042C758.329 55.1557 755.457 54.1733 751.604 53.1458L751.089 55.0782C754.915 56.0987 757.611 57.0363 759.238 57.8798L760.159 56.1042ZM751.581 53.14C747.64 52.1865 744.426 51.2076 741.926 50.2075L741.183 52.0645C743.803 53.1124 747.117 54.1175 751.111 55.084L751.581 53.14ZM741.934 50.2108C739.587 49.2478 737.536 47.7731 735.777 45.7719L734.275 47.0921C736.228 49.3149 738.53 50.9762 741.175 52.0612L741.934 50.2108ZM735.789 45.785C734.19 43.9014 733.338 41.306 733.338 37.888H731.338C731.338 41.638 732.278 44.7386 734.264 47.079L735.789 45.785ZM733.338 37.888C733.338 35.1457 734.109 32.6545 735.66 30.3887L734.009 29.2593C732.231 31.8575 731.338 34.7423 731.338 37.888H733.338ZM735.649 30.4032C737.259 28.1372 739.541 26.3226 742.54 24.9763L741.721 23.1517C738.447 24.6214 735.865 26.6467 734.019 29.2448L735.649 30.4032ZM742.533 24.9793C745.581 23.6383 749.182 22.952 753.362 22.952V20.952C748.966 20.952 745.08 21.6737 741.728 23.1487L742.533 24.9793ZM753.362 22.952C759.529 22.952 764.334 24.5068 767.884 27.5149L769.177 25.9891C765.174 22.5972 759.867 20.952 753.362 20.952V22.952ZM767.891 27.5213C771.436 30.4652 773.406 34.4576 773.773 39.5912L775.768 39.4487C775.366 33.8304 773.177 29.3108 769.169 25.9827L767.891 27.5213ZM774.77 38.52H761.906V40.52H774.77V38.52ZM762.902 39.4295C762.686 37.0552 761.66 35.1281 759.823 33.7318L758.613 35.3242C759.976 36.3599 760.742 37.7607 760.91 39.6105L762.902 39.4295ZM759.858 33.7598C758.093 32.2887 755.762 31.608 752.978 31.608V33.608C755.442 33.608 757.271 34.2073 758.578 35.2962L759.858 33.7598ZM752.978 31.608C750.442 31.608 748.331 32.0721 746.76 33.1199L747.869 34.784C748.985 34.0399 750.65 33.608 752.978 33.608V31.608ZM746.741 33.1328C745.186 34.2212 744.394 35.779 744.394 37.696H746.394C746.394 36.413 746.883 35.4748 747.888 34.7712L746.741 33.1328ZM744.394 37.696C744.394 38.7673 744.665 39.7525 745.228 40.6177C745.787 41.4763 746.601 42.1647 747.61 42.7055L748.555 40.9425C747.772 40.5233 747.241 40.0437 746.904 39.5263C746.572 39.0155 746.394 38.4167 746.394 37.696H744.394ZM747.635 42.7184C749.526 43.6639 752.395 44.6128 756.188 45.5772L756.681 43.6388C752.922 42.6832 750.223 41.7761 748.529 40.9296L747.635 42.7184ZM756.192 45.5781C760.004 46.5313 763.123 47.5097 765.559 48.5092L766.318 46.6588C763.762 45.6103 760.544 44.6047 756.677 43.6379L756.192 45.5781ZM765.559 48.5092C767.895 49.4677 769.906 50.9652 771.598 53.0197L773.142 51.7483C771.25 49.4508 768.973 47.7483 766.318 46.6588L765.559 48.5092ZM771.619 53.0441C773.283 54.937 774.19 57.5054 774.25 60.8502L776.25 60.8138C776.183 57.1186 775.17 54.055 773.121 51.7239L771.619 53.0441ZM774.25 60.832C774.25 63.703 773.447 66.2513 771.843 68.5088L773.473 69.6672C775.325 67.0607 776.25 64.105 776.25 60.832H774.25ZM771.833 68.5233C770.293 70.7746 768.021 72.5857 764.96 73.9327L765.765 75.7633C769.104 74.2943 771.696 72.2654 773.484 69.6527L771.833 68.5233ZM764.968 73.9289C761.983 75.2084 758.442 75.864 754.322 75.864V77.864C758.65 77.864 762.47 77.1756 765.756 75.7671L764.968 73.9289Z" fill="url(#paint0_linear_673_8232)"/>
<defs>
<linearGradient id="paint0_linear_673_8232" x1="163.337" y1="-141.462" x2="117.541" y2="116.407" gradientUnits="userSpaceOnUse">
<stop stop-color="#2DD1DB"/>
<stop offset="0.60721" stop-color="#2D9CDB"/>
<stop offset="1" stop-color="#1A8ED0"/>
</linearGradient>
</defs>
</svg>
