<svg width="96" height="96" viewBox="0 0 96 96" fill="none" xmlns="http://www.w3.org/2000/svg">
<path d="M93.2 79.8L79.6 66.2C80.6 63.8 81.4 61.2 81.6 58.6C82.2 51.8 80.2 45 75.8 39.8C73.4 36.8 70.4 34.6 67 33V22.6C67 17.8 63 13.8 58 13.8H52.6V11C52.6 8 50.2 5.6 47 5.6H41C40 2.4 37 0 33.6 0C30 0 27.2 2.4 26.2 5.4H20.2C17 5.6 14.6 8 14.6 11V13.8H9.19998C4.19998 13.8 0.199976 17.8 0.199976 22.6V87.2C-2.37226e-05 92 4.19998 96 9.19998 96H58C63 96 67 92 67 87V80.6L79.6 93.2C83.2 96.8 89.2 97 93 93.2C96.8 89.4 97 83.4 93.2 79.8ZM72.8 42.2C76.4 46.6 78.2 52.4 77.6 58C76.8 66.2 71.6 73 64.4 76C64.4 76 64.4 76 64.2 76C61 77.4 57.6 77.8 53.8 77.6C41.8 76.4 33.2 65.8 34.4 53.8C35 48.2 37.6 43.2 41.6 39.6C41.6 39.6 41.6 39.6 41.8 39.4C46.2 35.6 52.2 33.6 58.2 34.2C60.4 34.4 62.4 35 64.4 35.8C67.6 37.4 70.4 39.4 72.8 42.2ZM18.6 11C18.6 10.2 19.4 9.6 20.2 9.6H28C29.2 9.6 30 8.8 30 7.6C30 5.6 31.6 4.2 33.6 4.2C35.6 4.2 37.4 5.8 37.4 7.6C37.4 8.8 38.2 9.6 39.4 9.6H47.2C48 9.6 48.8 10.2 48.8 11V20.6C48.8 21.4 48 22 47.2 22H20.2C19.4 22 18.6 21.4 18.6 20.6V11ZM58 92H9.19998C6.39998 92 3.99998 89.8 3.99998 87.2V22.6C3.99998 20 6.19998 17.8 8.99998 17.8H14.4V20.6C14.4 23.6 16.8 26 20 26H47C50 26 52.6 23.6 52.6 20.6V17.8H58C60.8 17.8 63 20 63 22.6V31.4C61.6 31 60 30.6 58.4 30.6C51.2 29.8 44.6 32.2 39.4 36.4H15.4C14.2 36.4 13.4 37.2 13.4 38.4C13.4 39.6 14.2 40.4 15.4 40.4H35.6C34.2 42.2 33.2 44 32.2 46.2H15.6C14.4 46.2 13.6 47 13.6 48.2C13.6 49.4 14.4 50.2 15.6 50.2H31.2C31 51.4 30.6 52.6 30.6 53.8C30.6 54.6 30.6 55.2 30.6 56H15.6C14.4 56 13.6 56.8 13.6 58C13.6 59.2 14.4 60 15.6 60H30.6C30.8 62 31.4 63.8 32 65.8H15.6C14.4 65.8 13.6 66.6 13.6 67.8C13.6 69 14.4 69.8 15.6 69.8H34C35.2 72 36.8 73.8 38.6 75.4H15.6C14.4 75.4 13.6 76.2 13.6 77.4C13.6 78.6 14.4 79.4 15.6 79.4H44.6C47.4 80.8 50.2 81.6 53.4 82C56.6 82.4 59.8 82 63 81.2V87.4C63.2 89.6 60.8 92 58 92ZM90.4 90.4C88.2 92.6 84.8 92.6 82.6 90.4L69.8 77.8C73 75.8 75.6 73.2 77.6 70L90.2 82.6C92.6 84.8 92.6 88.2 90.4 90.4Z" fill="url(#paint0_linear_194_2435)"/>
<defs>
<linearGradient id="paint0_linear_194_2435" x1="20.5357" y1="-118.154" x2="-95.5353" y2="-29.8964" gradientUnits="userSpaceOnUse">
<stop stop-color="#2DD1DB"/>
<stop offset="0.60721" stop-color="#2D9CDB"/>
<stop offset="1" stop-color="#1A8ED0"/>
</linearGradient>
</defs>
</svg>
