<svg width="100" height="90" viewBox="0 0 100 90" fill="none" xmlns="http://www.w3.org/2000/svg">
<path d="M49.8874 1.25437C49.6516 1.27208 49.4236 1.34313 49.2191 1.46189L0.776714 29.5928C-0.275716 30.204 -0.253895 31.73 0.813329 32.3149L12.5074 38.7236V52.8104H9.38245C8.51479 52.8104 7.81389 53.5113 7.81389 54.379V74.5022L4.8385 81.0573C4.73119 81.2663 4.6859 81.5423 4.6859 81.6981V87.1882C4.6859 89.2725 7.81387 89.2725 7.81387 87.1882V83.2728H12.5043V87.1882C12.5043 89.273 15.6292 89.273 15.6292 87.1882V83.2728H20.3166V87.1882C20.3166 89.273 23.4415 89.273 23.4415 87.1882V81.6981C23.4528 81.4695 23.3866 81.2574 23.3042 81.0695L20.3166 74.3709V54.379C20.3166 53.5161 19.6232 52.8104 18.7603 52.8104H15.6323V40.4356L23.4171 44.705V59.0604C23.4171 61.0548 24.358 62.8983 25.8188 64.4131C27.2796 65.9279 29.2705 67.1837 31.6658 68.2308C36.4566 70.3251 42.8774 71.5664 49.9912 71.5664C57.1049 71.5664 63.5411 70.3251 68.3318 68.2308C70.7271 67.1837 72.718 65.9279 74.1788 64.4131C75.6396 62.8983 76.5774 61.0548 76.5774 59.0604V44.7111L99.1965 32.3149C100.264 31.73 100.27 30.204 99.2178 29.5928L50.7877 1.46188C50.5155 1.30379 50.2014 1.23115 49.8874 1.25436V1.25437ZM50.0034 4.62043L95.2507 30.8959L50.0034 55.7157L18.5833 38.4856L45.728 32.0281C46.4589 33.6693 48.1028 34.8296 50.0034 34.8296C52.5737 34.8296 54.6877 32.7155 54.6877 30.1452C54.6877 27.5748 52.5737 25.4638 50.0034 25.4638C47.8808 25.4638 46.0898 26.9108 45.5235 28.8604L14.5123 36.2517L4.74391 30.8959L50.0034 4.62043ZM50.0034 28.5888C50.8848 28.5888 51.5598 29.2637 51.5598 30.1452C51.5598 31.0266 50.8848 31.7138 50.0034 31.7138C49.122 31.7138 48.4348 31.0266 48.4348 30.1452C48.4348 29.2637 49.122 28.5888 50.0034 28.5888ZM26.5451 46.417L49.2557 58.8651C49.7226 59.1209 50.2872 59.1209 50.7541 58.8651L73.4525 46.4231V59.0604C73.4525 60.0956 72.9944 61.1423 71.9297 62.2464C70.8651 63.3504 69.2015 64.4416 67.0745 65.3714C62.8206 67.231 56.7384 68.4384 49.9912 68.4384C43.244 68.4384 37.1648 67.231 32.9109 65.3714C30.784 64.4416 29.1326 63.3504 28.0679 62.2464C27.0033 61.1423 26.5451 60.0956 26.5451 59.0604L26.5451 46.417ZM10.9388 55.9354H17.1887V73.1228H10.9388V55.9354ZM10.4536 76.2477H17.7441L19.4744 80.1448H8.67754L10.4536 76.2477Z" fill="url(#paint0_linear_194_2429)" stroke="url(#paint1_linear_194_2429)"/>
<defs>
<linearGradient id="paint0_linear_194_2429" x1="21.2439" y1="-106.444" x2="-87.511" y2="-11.6983" gradientUnits="userSpaceOnUse">
<stop stop-color="#2DD1DB"/>
<stop offset="0.60721" stop-color="#2D9CDB"/>
<stop offset="1" stop-color="#1A8ED0"/>
</linearGradient>
<linearGradient id="paint1_linear_194_2429" x1="21.2439" y1="-106.444" x2="-87.511" y2="-11.6983" gradientUnits="userSpaceOnUse">
<stop stop-color="#2DD1DB"/>
<stop offset="0.60721" stop-color="#2D9CDB"/>
<stop offset="1" stop-color="#1A8ED0"/>
</linearGradient>
</defs>
</svg>
