<svg width="32" height="32" viewBox="0 0 32 32" fill="none" xmlns="http://www.w3.org/2000/svg">
<path d="M6.66683 13.3334C5.86683 13.3334 5.3335 12.8 5.3335 12C5.3335 6.80002 9.46683 2.66669 14.6668 2.66669C18.6668 2.66669 22.2668 5.33335 23.6002 9.20002C23.7335 9.86669 23.4668 10.6667 22.6668 10.8C22.0002 11.0667 21.2002 10.6667 20.9335 10C20.1335 7.20002 17.6002 5.33335 14.6668 5.33335C10.9335 5.33335 8.00016 8.26669 8.00016 12C8.00016 12.8 7.46683 13.3334 6.66683 13.3334Z" fill="#2D9CDB"/>
<path d="M24.0002 24C23.2002 24 22.6668 23.4667 22.6668 22.6667C22.6668 21.8667 23.2002 21.3333 24.0002 21.3333C26.9335 21.3333 29.3335 18.9333 29.3335 16C29.3335 13.0667 26.9335 10.6667 24.0002 10.6667C23.6002 10.6667 23.0668 10.6667 22.6668 10.8C22.0002 10.9333 21.2002 10.5333 21.0668 9.86667C20.9335 9.2 21.3335 8.4 22.0002 8.26667C22.6668 8.13333 23.3335 8 24.0002 8C28.4002 8 32.0002 11.6 32.0002 16C32.0002 20.4 28.4002 24 24.0002 24ZM10.6668 24H6.66683C5.86683 24 5.3335 23.4667 5.3335 22.6667C5.3335 21.8667 5.86683 21.3333 6.66683 21.3333H10.6668C11.4668 21.3333 12.0002 21.8667 12.0002 22.6667C12.0002 23.4667 11.4668 24 10.6668 24Z" fill="#2D9CDB"/>
<path d="M24 24H21.3333C20.5333 24 20 23.4667 20 22.6667C20 21.8667 20.5333 21.3334 21.3333 21.3334H24C24.8 21.3334 25.3333 21.8667 25.3333 22.6667C25.3333 23.4667 24.8 24 24 24ZM6.66667 24C2.93333 24 0 21.0667 0 17.3334C0 13.6 2.93333 10.6667 6.66667 10.6667C7.46667 10.6667 8 11.2 8 12C8 12.8 7.46667 13.3334 6.66667 13.3334C4.4 13.3334 2.66667 15.0667 2.66667 17.3334C2.66667 19.6 4.4 21.3334 6.66667 21.3334C7.46667 21.3334 8 21.8667 8 22.6667C8 23.4667 7.46667 24 6.66667 24ZM16 29.3334C15.2 29.3334 14.6667 28.8 14.6667 28V14.6667C14.6667 13.8667 15.2 13.3334 16 13.3334C16.8 13.3334 17.3333 13.8667 17.3333 14.6667V28C17.3333 28.8 16.8 29.3334 16 29.3334Z" fill="#2D9CDB"/>
<path d="M11.9998 20C11.5998 20 11.3332 19.8666 11.0665 19.6C10.5332 19.0666 10.5332 18.2666 11.0665 17.7333L15.0665 13.7333C15.5998 13.2 16.3998 13.2 16.9332 13.7333C17.4665 14.2666 17.4665 15.0666 16.9332 15.6L12.9332 19.6C12.6665 19.8666 12.3998 20 11.9998 20Z" fill="#2D9CDB"/>
<path d="M19.9998 20C19.5998 20 19.3332 19.8666 19.0665 19.6L15.0665 15.6C14.5332 15.0666 14.5332 14.2666 15.0665 13.7333C15.5998 13.2 16.3998 13.2 16.9332 13.7333L20.9332 17.7333C21.4665 18.2666 21.4665 19.0666 20.9332 19.6C20.6665 19.8666 20.3998 20 19.9998 20Z" fill="#2D9CDB"/>
</svg>
