<svg width="78" height="77" viewBox="0 0 78 77" fill="none" xmlns="http://www.w3.org/2000/svg">
<g clip-path="url(#clip0_1063_9886)">
<path d="M75.465 42.2531C73.1651 39.5957 69.3279 39.3931 69.3041 39.4289C69.0419 39.3931 68.8036 39.3455 68.601 39.274C68.601 39.274 68.5891 39.2739 68.5891 39.262C67.886 39.0356 67.5523 38.6781 67.5523 38.1538C70.2574 35.6036 70.6387 31.552 70.6507 31.397C70.7579 30.4914 70.7698 29.6453 70.6864 28.9184C70.2216 23.6035 65.8006 22.3761 63.6317 22.4357C63.5126 22.4357 60.5811 22.3523 58.4718 24.39C57.1014 25.7247 56.4221 27.5956 56.4341 29.967C56.446 30.408 56.4698 30.8846 56.5175 31.3613C56.5294 31.54 56.9107 35.6036 59.6158 38.1538C59.5801 38.4874 59.3775 38.8926 58.5552 39.1548H58.5433H58.5314C58.3407 39.2263 58.1262 39.262 57.876 39.3097C57.2086 39.3455 53.2285 39.7268 51.1907 42.8013C50.2731 42.6464 49.6177 42.5987 49.4032 42.5868C48.867 42.5034 48.3784 42.3961 47.9494 42.265H47.9375C47.1271 41.991 46.4836 41.2402 46.0189 40.0128C45.3873 38.404 45.3039 36.5689 45.3277 36.0684C45.3277 35.973 45.3396 35.8896 45.3516 35.8062C50.3923 31.3732 51.0835 23.8895 51.1073 23.5916C51.2861 22.0305 51.3099 20.5767 51.1907 19.3135C51.1907 19.3135 51.1907 19.3135 51.1907 19.3016V19.2897C51.1907 19.2659 51.1907 19.2301 51.1788 19.1944C50.1778 7.79012 39.0715 8.07612 39.0476 8.07612C38.8331 8.0642 33.8162 7.9212 30.2174 11.4247C27.8817 13.7008 26.7139 16.9302 26.7496 21.0415C26.7616 21.8399 26.8092 22.6979 26.9046 23.5559C26.9284 23.8776 27.6315 31.3732 32.6722 35.8181C32.6722 35.8777 32.6841 35.9254 32.6722 35.9969C32.6484 37.7129 32.5054 39.9174 32.3743 40.3107C32.3743 40.3226 32.3624 40.3226 32.3624 40.3345C31.9572 41.121 31.1707 41.7049 29.991 42.0863C29.991 42.0863 29.991 42.0863 29.9791 42.0863C29.9791 42.0863 29.9791 42.0863 29.9671 42.0863C29.5739 42.2174 29.1211 42.3246 28.5729 42.3961C28.3465 42.408 27.6434 42.4557 26.6781 42.6345C24.4736 39.5123 20.2431 39.2978 20.124 39.2978C19.8618 39.262 19.6354 39.2144 19.4328 39.1429C19.4209 39.1429 19.4209 39.1429 19.409 39.1429H19.3971C18.694 38.9165 18.3603 38.559 18.3603 38.0346C21.0654 35.4845 21.4467 31.4328 21.4586 31.2779C21.5659 30.3722 21.5778 29.5261 21.4944 28.7992C21.0296 23.4844 16.6443 22.245 14.4397 22.3165C14.3206 22.3165 11.3891 22.2331 9.29173 24.2709C7.92131 25.6055 7.24206 27.4764 7.25398 29.8479C7.2659 30.2888 7.28973 30.7654 7.3374 31.2421C7.34931 31.4209 7.73065 35.4845 10.4357 38.0346C10.4 38.3683 10.1974 38.7735 9.37515 39.0356H9.36323C9.17256 39.0952 8.95806 39.1429 8.71973 39.1786C8.15965 39.2144 4.66806 39.5123 2.51115 42.0029C1.17648 43.5401 0.640229 45.566 0.914313 47.997L1.31948 51.703C1.36715 52.132 1.64123 52.4895 2.0464 52.6564C2.2609 52.7398 6.86073 54.5273 14.1656 54.5273C14.404 54.5273 14.6542 54.5154 14.8926 54.5154C14.833 55.5164 14.8449 56.565 14.976 57.6614L15.7267 64.5492C15.7744 64.9782 16.0485 65.3357 16.4536 65.5025C16.9661 65.7051 25.2958 68.9226 38.4637 68.9226C45.0298 68.9226 52.7995 68.1242 61.3914 65.7528C61.8442 65.6217 62.1779 65.2404 62.2375 64.7637L62.9882 57.8759C63.1193 56.7557 63.1312 55.6832 63.0597 54.6703C63.1551 54.6703 63.2504 54.6703 63.3457 54.6703C67.4808 54.6703 71.6636 54.0983 75.7987 52.9543C76.2515 52.8232 76.5852 52.4419 76.6447 51.9652L77.0499 48.2472C77.3359 45.8162 76.7997 43.8023 75.465 42.2531ZM58.8412 31.1587C58.7936 30.7297 58.7697 30.3365 58.7697 29.9551C58.7578 28.251 59.1987 26.9521 60.0925 26.0822C61.4748 24.7237 63.5483 24.7595 63.6437 24.7714C64.0965 24.7595 68.0171 24.7833 68.3984 29.1686C68.458 29.7525 68.4461 30.4199 68.3626 31.1945C68.3626 31.2302 68.0051 35.115 65.455 36.9383C65.4192 36.9621 65.3954 36.974 65.3596 36.9979C65.3001 37.0455 65.2405 37.0813 65.1809 37.117C64.1918 37.7248 63.0121 37.7248 62.023 37.117C61.9634 37.0813 61.9038 37.0336 61.8442 36.9979C61.8085 36.974 61.7846 36.9502 61.7489 36.9383C61.6655 36.8787 61.594 36.8191 61.5225 36.7595C59.1868 34.8529 58.8412 31.2064 58.8412 31.1587ZM45.9951 43.838L43.2781 48.5213L40.6326 45.8281L44.577 42.3008C44.9941 42.9324 45.4707 43.4448 45.9951 43.838ZM39.0119 47.4726L40.6445 49.1409L39.0953 50.8569C39.0596 50.8927 39.0357 50.9285 39 50.9761C38.9761 50.9404 38.9404 50.8927 38.9046 50.8569L37.4389 49.2482L39.0119 47.4726ZM34.6861 40.4179C34.8291 39.5838 34.9007 38.4279 34.9364 37.3911C36.2234 38.0585 37.6057 38.404 39 38.404C40.4061 38.404 41.8004 38.0465 43.0755 37.3673C43.147 38.1538 43.3138 39.1071 43.5998 40.0724L38.9523 44.2194L34.6861 40.4179ZM39 52.7875L40.7994 61.9037L39 63.286L37.1886 61.9037L39 52.7875ZM31.8023 13.093C34.6742 10.2807 38.9166 10.376 39.0476 10.388C39.3932 10.376 47.3297 10.1973 48.724 18.3006C43.1708 18.6939 35.9016 14.8805 35.8182 14.8448C35.425 14.6422 34.9602 14.666 34.6027 14.9163L29.1926 18.7058C29.5143 16.3701 30.3842 14.4873 31.8023 13.093ZM29.1926 23.3295C29.133 22.7336 29.0972 22.1616 29.0734 21.6135L35.3654 17.2162C37.3674 18.1934 43.6356 20.9938 48.9266 20.6005C48.9504 21.4585 48.9266 22.3523 48.8074 23.3533C48.7955 23.4367 48.0805 31.1468 42.9563 34.7695C42.9086 34.7933 42.8729 34.8171 42.8372 34.8529C42.7061 34.9482 42.5869 35.0316 42.4558 35.115C40.2989 36.4497 37.7249 36.4497 35.5561 35.115C35.425 35.0316 35.2939 34.9482 35.1628 34.8529C35.1271 34.8171 35.0794 34.7933 35.0317 34.7695C34.853 34.6384 34.6742 34.5073 34.5074 34.3643C29.8718 30.5867 29.2045 23.4248 29.1926 23.3295ZM33.6017 42.5391L37.3436 45.8758L35.0436 48.4855L32.0526 43.7069C32.6484 43.3852 33.1727 43.0039 33.6017 42.5391ZM9.64923 31.0038C9.60156 30.5867 9.57773 30.1815 9.57773 29.8002C9.56581 28.0961 10.0067 26.7972 10.9005 25.9273C12.2828 24.5688 14.3682 24.6165 14.4516 24.6165C14.6304 24.6165 18.8131 24.5092 19.2064 29.0137C19.266 29.5857 19.2541 30.253 19.1706 31.0276C19.1706 31.0634 18.7893 34.9601 16.2511 36.7834C16.2153 36.8072 16.1915 36.8191 16.1557 36.843C16.0961 36.8906 16.0366 36.9264 15.977 36.9621C14.9879 37.5699 13.8081 37.5699 12.8191 36.9621C12.7595 36.9264 12.6999 36.8787 12.6403 36.843C12.6046 36.8191 12.5807 36.7953 12.545 36.7834C12.4616 36.7238 12.3901 36.6642 12.3066 36.6046C9.99481 34.7099 9.64923 31.0634 9.64923 31.0038ZM15.262 52.1916C9.37515 52.3465 5.10898 51.2145 3.55981 50.714L3.23806 47.7348C3.03548 45.9711 3.39298 44.553 4.27481 43.5163C5.9074 41.6215 8.86273 41.4785 8.88656 41.4785C8.92231 41.4785 8.96998 41.4785 9.00573 41.4666C9.38706 41.419 9.75648 41.3355 10.0901 41.2283C10.1021 41.2283 10.1021 41.2164 10.114 41.2164C11.4367 40.7874 12.0921 40.0366 12.4377 39.3335C13.0693 39.5957 13.7366 39.7268 14.4159 39.7268C15.0713 39.7268 15.7267 39.5957 16.3464 39.3454C16.7516 40.2511 17.5619 40.9542 18.7059 41.3236C18.7178 41.3236 18.7178 41.3236 18.7297 41.3236C19.0634 41.4309 19.4209 41.5143 19.9333 41.5858C19.9691 41.5858 22.4954 41.7169 24.1756 43.2422C22.0664 43.9214 19.6116 45.125 17.7406 47.2939C16.5132 48.7 15.7029 50.3445 15.262 52.1916ZM60.7122 57.6137L60.0448 63.7269C37.999 69.6019 21.3871 64.7279 17.9671 63.5839L17.2878 57.4111C16.8946 53.8599 17.6215 50.9642 19.4566 48.8311C21.4348 46.5312 24.3306 45.5183 26.3564 45.0654C26.3802 45.0654 26.3921 45.0535 26.416 45.0535C27.7506 44.7556 28.704 44.7079 28.7278 44.7079C28.7636 44.7079 28.8112 44.708 28.847 44.696C29.1926 44.6484 29.5143 44.5888 29.8122 44.5173L33.8877 51.0357C34.0784 51.3455 34.4121 51.5481 34.7696 51.5719C34.8053 51.5719 34.8291 51.5719 34.8649 51.5719C35.1986 51.5719 35.5084 51.4289 35.7348 51.1787L35.9016 50.988L36.7954 51.9771L34.7696 62.1659C34.6861 62.5949 34.853 63.0477 35.1986 63.3099L38.285 65.6575C38.4876 65.8124 38.7378 65.8958 38.9881 65.8958C39.2383 65.8958 39.4886 65.8124 39.6912 65.6575L42.7656 63.3099C43.1112 63.0477 43.2781 62.5949 43.1946 62.1659L41.1807 51.9771L42.2532 50.7854L42.6822 51.2264C42.8967 51.4528 43.1946 51.5719 43.5045 51.5719C43.5521 51.5719 43.5998 51.5719 43.6475 51.56C44.005 51.5124 44.3267 51.3098 44.5055 51L48.152 44.7318C48.4737 44.8033 48.7955 44.8629 49.1411 44.9105C49.1768 44.9105 49.2245 44.9224 49.2602 44.9224C49.3198 44.9224 55.1828 45.1727 58.5195 49.0337C60.3666 51.1668 61.1054 54.0506 60.7122 57.6137ZM74.7738 47.997L74.4521 50.9285C70.5553 51.9295 66.6109 52.3823 62.7261 52.3227C62.2851 50.4994 61.4748 48.8907 60.2831 47.5084C58.3765 45.2919 55.8501 44.0764 53.7171 43.409C55.3854 41.7645 58.0547 41.6215 58.0786 41.6215C58.1262 41.6215 58.1858 41.6096 58.2335 41.6096C58.5672 41.55 58.9127 41.4785 59.2583 41.3713C59.2702 41.3713 59.2702 41.3713 59.2822 41.3713C59.2941 41.3713 59.2941 41.3594 59.306 41.3594H59.3179C59.3179 41.3594 59.3179 41.3594 59.3298 41.3594C60.6407 40.9304 61.2961 40.1915 61.6297 39.4885C62.2613 39.7506 62.9286 39.8817 63.6079 39.8817C64.2633 39.8817 64.9187 39.7506 65.5384 39.5004C65.9436 40.406 66.742 41.0972 67.8741 41.4785C67.886 41.4785 67.8979 41.4905 67.9098 41.5024C68.2554 41.6096 68.6248 41.6811 69.1253 41.7526C69.1491 41.7526 72.1045 41.9075 73.7252 43.7904C74.607 44.8033 74.9645 46.2214 74.7738 47.997Z" fill="white"/>
</g>
<defs>
<clipPath id="clip0_1063_9886">
<rect width="76.2667" height="76.2667" fill="white" transform="translate(0.866699 0.366699)"/>
</clipPath>
</defs>
</svg>
