<svg width="44" height="54" viewBox="0 0 44 54" fill="none" xmlns="http://www.w3.org/2000/svg">
<path d="M19.2001 36.4673L34.2668 21.4006L30.4667 17.6007L19.2001 28.8673L13.6001 23.2673L9.80008 27.0673L19.2001 36.4673ZM22.0001 53.6673C15.8223 52.1118 10.7227 48.5669 6.70142 43.0326C2.6783 37.5002 0.666748 31.3562 0.666748 24.6007V8.33398L22.0001 0.333984L43.3334 8.33398V24.6007C43.3334 31.3562 41.3228 37.5002 37.3014 43.0326C33.2783 48.5669 28.1779 52.1118 22.0001 53.6673ZM22.0001 48.0673C26.6223 46.6006 30.4445 43.6673 33.4667 39.2673C36.489 34.8673 38.0001 29.9784 38.0001 24.6007V12.0007L22.0001 6.00065L6.00008 12.0007V24.6007C6.00008 29.9784 7.51119 34.8673 10.5334 39.2673C13.5556 43.6673 17.3779 46.6006 22.0001 48.0673Z" fill="url(#paint0_linear_864_7472)"/>
<defs>
<linearGradient id="paint0_linear_864_7472" x1="9.73065" y1="-65.307" x2="-49.7624" y2="-29.0263" gradientUnits="userSpaceOnUse">
<stop stop-color="#2DD1DB"/>
<stop offset="0.60721" stop-color="#2D9CDB"/>
<stop offset="1" stop-color="#1A8ED0"/>
</linearGradient>
</defs>
</svg>
