<svg width="255" height="80" viewBox="0 0 255 80" fill="none" xmlns="http://www.w3.org/2000/svg">
<path opacity="0.8" d="M42.11 0.991999H43.11V-0.00800133H42.11V0.991999ZM42.11 11.84V12.84H43.11V11.84H42.11ZM14.174 11.84V10.84H13.174V11.84H14.174ZM14.174 29.024H13.174V30.024H14.174V29.024ZM35.582 29.024H36.582V28.024H35.582V29.024ZM35.582 39.68V40.68H36.582V39.68H35.582ZM14.174 39.68V38.68H13.174V39.68H14.174ZM14.174 68V69H15.174V68H14.174ZM0.734001 68H-0.265999V69H0.734001V68ZM0.734001 0.991999V-0.00800133H-0.265999V0.991999H0.734001ZM41.11 0.991999V11.84H43.11V0.991999H41.11ZM42.11 10.84H14.174V12.84H42.11V10.84ZM13.174 11.84V29.024H15.174V11.84H13.174ZM14.174 30.024H35.582V28.024H14.174V30.024ZM34.582 29.024V39.68H36.582V29.024H34.582ZM35.582 38.68H14.174V40.68H35.582V38.68ZM13.174 39.68V68H15.174V39.68H13.174ZM14.174 67H0.734001V69H14.174V67ZM1.734 68V0.991999H-0.265999V68H1.734ZM0.734001 1.992H42.11V-0.00800133H0.734001V1.992ZM98.4883 55.232L99.4333 54.9051L99.2005 54.232H98.4883V55.232ZM71.8003 55.232V54.232H71.088L70.8552 54.9051L71.8003 55.232ZM67.3843 68V69H68.0965L68.3293 68.3269L67.3843 68ZM53.2723 68L52.3311 67.662L51.8507 69H53.2723V68ZM77.3683 0.895994V-0.104006H76.6648L76.4271 0.558037L77.3683 0.895994ZM93.0163 0.895994L93.9574 0.558037L93.7197 -0.104006H93.0163V0.895994ZM117.112 68V69H118.534L118.053 67.662L117.112 68ZM102.904 68L101.959 68.3269L102.192 69H102.904V68ZM94.8403 44.48V45.48H96.2443L95.7853 44.1531L94.8403 44.48ZM85.1443 16.448L86.0893 16.1211L85.1443 13.3889L84.1992 16.1211L85.1443 16.448ZM75.4482 44.48L74.5032 44.1531L74.0442 45.48H75.4482V44.48ZM98.4883 54.232H71.8003V56.232H98.4883V54.232ZM70.8552 54.9051L66.4392 67.6731L68.3293 68.3269L72.7453 55.5589L70.8552 54.9051ZM67.3843 67H53.2723V69H67.3843V67ZM54.2134 68.338L78.3094 1.23395L76.4271 0.558037L52.3311 67.662L54.2134 68.338ZM77.3683 1.89599H93.0163V-0.104006H77.3683V1.89599ZM92.0751 1.23395L116.171 68.338L118.053 67.662L93.9574 0.558037L92.0751 1.23395ZM117.112 67H102.904V69H117.112V67ZM103.849 67.6731L99.4333 54.9051L97.5432 55.5589L101.959 68.3269L103.849 67.6731ZM95.7853 44.1531L86.0893 16.1211L84.1992 16.7749L93.8952 44.8069L95.7853 44.1531ZM84.1992 16.1211L74.5032 44.1531L76.3933 44.8069L86.0893 16.7749L84.1992 16.1211ZM75.4482 45.48H94.8403V43.48H75.4482V45.48ZM181.799 79.808L181.031 80.4488L181.331 80.808H181.799V79.808ZM171.623 67.616L172.391 66.9752L171.989 66.4938L171.38 66.6459L171.623 67.616ZM145.703 64.256L146.192 63.3839L145.703 64.256ZM133.223 52.064L132.36 52.5692L132.363 52.5738L133.223 52.064ZM133.223 16.736L134.083 17.2458L134.086 17.2412L133.223 16.736ZM145.703 4.44799L145.214 3.57585L145.703 4.44799ZM180.263 4.44799L179.769 5.31757L179.774 5.32014L180.263 4.44799ZM192.647 16.736L191.779 17.2333L191.783 17.2396L191.787 17.2458L192.647 16.736ZM193.415 50.624L192.528 50.163L192.525 50.1674L193.415 50.624ZM183.143 62.528L182.566 61.711L181.652 62.3562L182.396 63.1924L183.143 62.528ZM198.503 79.808V80.808H200.73L199.25 79.1436L198.503 79.808ZM145.031 46.112L145.922 45.6581L145.031 46.112ZM152.231 53.984L151.714 54.8399L151.724 54.8462L151.735 54.8522L152.231 53.984ZM173.639 53.984L174.143 54.8478L174.15 54.8439L174.156 54.8399L173.639 53.984ZM180.839 46.112L181.73 46.5659L180.839 46.112ZM180.839 22.592L179.948 23.0459L179.952 23.0528L180.839 22.592ZM173.639 14.816L173.135 15.6798V15.6798L173.639 14.816ZM152.231 14.816L151.735 13.9477L151.727 13.9522L152.231 14.816ZM145.031 22.592L145.919 23.0528L145.922 23.0459L145.031 22.592ZM182.567 79.1672L172.391 66.9752L170.855 68.2568L181.031 80.4488L182.567 79.1672ZM171.38 66.6459C168.645 67.3297 165.846 67.672 162.983 67.672V69.672C166.008 69.672 168.969 69.3103 171.866 68.5861L171.38 66.6459ZM162.983 67.672C156.875 67.672 151.284 66.2404 146.192 63.3839L145.214 65.1281C150.618 68.1596 156.547 69.672 162.983 69.672V67.672ZM146.192 63.3839C141.098 60.526 137.066 56.5871 134.083 51.5542L132.363 52.5738C135.524 57.9089 139.812 62.098 145.214 65.1281L146.192 63.3839ZM134.086 51.5588C131.111 46.4768 129.615 40.7338 129.615 34.304H127.615C127.615 41.0582 129.191 47.1552 132.36 52.5692L134.086 51.5588ZM129.615 34.304C129.615 27.9399 131.11 22.2627 134.083 17.2458L132.363 16.2262C129.192 21.5773 127.615 27.6121 127.615 34.304H129.615ZM134.086 17.2412C137.069 12.1448 141.101 8.17624 146.192 5.32014L145.214 3.57585C139.809 6.60775 135.521 10.8312 132.36 16.2308L134.086 17.2412ZM146.192 5.32014C151.284 2.46358 156.875 1.032 162.983 1.032V-0.968C156.547 -0.968 150.618 0.544411 145.214 3.57585L146.192 5.32014ZM162.983 1.032C169.157 1.032 174.745 2.46445 179.769 5.31756L180.757 3.57843C175.413 0.54355 169.481 -0.968 162.983 -0.968V1.032ZM179.774 5.32014C184.863 8.17519 188.861 12.1413 191.779 17.2333L193.515 16.2387C190.417 10.8347 186.159 6.6088 180.752 3.57585L179.774 5.32014ZM191.787 17.2458C194.76 22.2627 196.255 27.9399 196.255 34.304H198.255C198.255 27.6121 196.678 21.5773 193.507 16.2262L191.787 17.2458ZM196.255 34.304C196.255 40.1073 195.008 45.3875 192.528 50.163L194.302 51.085C196.942 46.0045 198.255 40.4047 198.255 34.304H196.255ZM192.525 50.1674C190.101 54.8917 186.783 58.7346 182.566 61.711L183.72 63.345C188.207 60.1774 191.737 56.0843 194.305 51.0806L192.525 50.1674ZM182.396 63.1924L197.756 80.4724L199.25 79.1436L183.89 61.8636L182.396 63.1924ZM198.503 78.808H181.799V80.808H198.503V78.808ZM141.439 34.304C141.439 38.914 142.329 43.0105 144.14 46.5659L145.922 45.6581C144.277 42.4295 143.439 38.654 143.439 34.304H141.439ZM144.14 46.5659C145.947 50.1136 148.472 52.8815 151.714 54.8399L152.748 53.1281C149.846 51.3745 147.571 48.8943 145.922 45.6581L144.14 46.5659ZM151.735 54.8522C155.039 56.7403 158.798 57.672 162.983 57.672V55.672C159.104 55.672 155.695 54.8117 152.727 53.1158L151.735 54.8522ZM162.983 57.672C167.168 57.672 170.898 56.7404 174.143 54.8478L173.135 53.1202C170.236 54.8116 166.862 55.672 162.983 55.672V57.672ZM174.156 54.8399C177.398 52.8815 179.923 50.1136 181.73 46.5659L179.948 45.6581C178.299 48.8943 176.024 51.3745 173.122 53.1281L174.156 54.8399ZM181.73 46.5659C183.541 43.0105 184.431 38.914 184.431 34.304H182.431C182.431 38.654 181.593 42.4295 179.948 45.6581L181.73 46.5659ZM184.431 34.304C184.431 29.6946 183.542 25.6267 181.727 22.1312L179.952 23.0528C181.592 26.2132 182.431 29.9534 182.431 34.304H184.431ZM181.73 22.1381C179.921 18.5877 177.392 15.8477 174.143 13.9522L173.135 15.6798C176.03 17.3682 178.301 19.8123 179.948 23.0459L181.73 22.1381ZM174.143 13.9522C170.898 12.0596 167.168 11.128 162.983 11.128V13.128C166.862 13.128 170.236 13.9884 173.135 15.6798L174.143 13.9522ZM162.983 11.128C158.798 11.128 155.039 12.0597 151.735 13.9478L152.727 15.6842C155.695 13.9883 159.104 13.128 162.983 13.128V11.128ZM151.727 13.9522C148.478 15.8477 145.949 18.5877 144.14 22.1381L145.922 23.0459C147.569 19.8123 149.84 17.3682 152.735 15.6798L151.727 13.9522ZM144.144 22.1312C142.329 25.6267 141.439 29.6946 141.439 34.304H143.439C143.439 29.9534 144.278 26.2132 145.919 23.0528L144.144 22.1312ZM221.842 66.56L221.421 67.4675L221.428 67.4707L221.435 67.4738L221.842 66.56ZM213.585 60.128L212.781 60.7219L212.785 60.728L212.79 60.734L213.585 60.128ZM210.322 51.2V50.2H209.261L209.323 51.2587L210.322 51.2ZM223.857 51.2L224.85 51.076L224.74 50.2H223.857V51.2ZM226.833 56.288L226.22 57.0774L226.226 57.0827L226.234 57.088L226.833 56.288ZM239.41 56.768L238.838 55.9471L238.83 55.9531L238.821 55.9593L239.41 56.768ZM238.93 48.992L238.469 49.8798L238.489 49.8898L238.508 49.899L238.93 48.992ZM230.577 46.112L230.835 45.1458L230.824 45.1428L230.813 45.14L230.577 46.112ZM220.785 43.136L220.406 44.0612L220.414 44.0645L220.785 43.136ZM214.258 38.432L213.495 39.079L213.501 39.0856L213.506 39.0921L214.258 38.432ZM214.066 21.824L213.25 21.2448L213.245 21.252L213.24 21.2593L214.066 21.824ZM221.361 16.064L220.959 15.1487L220.952 15.1517L221.361 16.064ZM247.762 18.752L247.115 19.5149L247.123 19.5213L247.762 18.752ZM254.001 31.52V32.52H255.075L254.999 31.4487L254.001 31.52ZM241.137 31.52L240.142 31.6105L240.224 32.52H241.137V31.52ZM238.449 26.528L237.809 27.2962L237.827 27.3106L237.844 27.3242L238.449 26.528ZM226.546 25.952L225.991 25.1199L225.981 25.1263L225.972 25.1328L226.546 25.952ZM227.314 33.824L226.841 34.7055L226.854 34.7121L226.866 34.7184L227.314 33.824ZM235.665 36.608L235.419 37.5772L235.423 37.5781L235.665 36.608ZM251.602 44.384L250.83 45.0197L250.84 45.0321L250.85 45.0441L251.602 44.384ZM254.482 52.832H255.482V52.8229L255.481 52.8138L254.482 52.832ZM251.889 61.088L251.074 60.5088L251.069 60.516L251.064 60.5233L251.889 61.088ZM244.594 66.848L244.987 67.7672L244.996 67.7633L244.594 66.848ZM233.553 67.864C229.32 67.864 225.558 67.1174 222.248 65.6462L221.435 67.4738C225.037 69.0746 229.083 69.864 233.553 69.864V67.864ZM222.262 65.6525C218.934 64.1122 216.318 62.0647 214.381 59.522L212.79 60.734C214.949 63.5673 217.837 65.8078 221.421 67.4675L222.262 65.6525ZM214.39 59.5341C212.518 56.9984 211.5 54.2075 211.32 51.1413L209.323 51.2587C209.527 54.7205 210.685 57.8816 212.781 60.7219L214.39 59.5341ZM210.322 52.2H223.857V50.2H210.322V52.2ZM222.865 51.324C223.156 53.6524 224.296 55.5815 226.22 57.0774L227.447 55.4986C225.915 54.3065 225.071 52.8436 224.85 51.076L222.865 51.324ZM226.234 57.088C228.227 58.5831 230.656 59.304 233.458 59.304V57.304C231.011 57.304 229.024 56.6809 227.434 55.488L226.234 57.088ZM233.458 59.304C236.134 59.304 238.355 58.7712 239.998 57.5767L238.821 55.9593C237.648 56.8128 235.901 57.304 233.458 57.304V59.304ZM239.981 57.5889C241.684 56.4042 242.617 54.8028 242.617 52.832H240.617C240.617 54.0612 240.079 55.0838 238.838 55.9471L239.981 57.5889ZM242.617 52.832C242.617 51.7856 242.343 50.8283 241.765 50.0025C241.192 49.1848 240.365 48.5558 239.351 48.085L238.508 49.899C239.286 50.2601 239.803 50.6872 240.126 51.1495C240.444 51.6037 240.617 52.1504 240.617 52.832H242.617ZM239.39 48.1042C237.56 47.1557 234.689 46.1733 230.835 45.1458L230.32 47.0782C234.146 48.0987 236.843 49.0363 238.469 49.8798L239.39 48.1042ZM230.813 45.14C226.871 44.1865 223.657 43.2076 221.157 42.2075L220.414 44.0645C223.034 45.1124 226.348 46.1175 230.342 47.084L230.813 45.14ZM221.165 42.2108C218.818 41.2478 216.767 39.7731 215.009 37.7719L213.506 39.0921C215.46 41.3149 217.761 42.9762 220.406 44.0612L221.165 42.2108ZM215.02 37.785C213.422 35.9014 212.57 33.306 212.57 29.888H210.57C210.57 33.638 211.509 36.7386 213.495 39.079L215.02 37.785ZM212.57 29.888C212.57 27.1457 213.34 24.6545 214.891 22.3887L213.24 21.2593C211.463 23.8575 210.57 26.7423 210.57 29.888H212.57ZM214.881 22.4032C216.491 20.1372 218.772 18.3226 221.771 16.9763L220.952 15.1517C217.679 16.6214 215.096 18.6467 213.25 21.2448L214.881 22.4032ZM221.764 16.9793C224.812 15.6383 228.414 14.952 232.594 14.952V12.952C228.197 12.952 224.311 13.6737 220.959 15.1487L221.764 16.9793ZM232.594 14.952C238.761 14.952 243.565 16.5068 247.115 19.5149L248.408 17.9891C244.406 14.5972 239.098 12.952 232.594 12.952V14.952ZM247.123 19.5213C250.667 22.4652 252.637 26.4576 253.004 31.5912L254.999 31.4487C254.598 25.8304 252.408 21.3108 248.4 17.9827L247.123 19.5213ZM254.001 30.52H241.137V32.52H254.001V30.52ZM242.133 31.4295C241.918 29.0552 240.892 27.1281 239.055 25.7318L237.844 27.3242C239.207 28.3599 239.973 29.7607 240.142 31.6105L242.133 31.4295ZM239.09 25.7598C237.324 24.2887 234.993 23.608 232.21 23.608V25.608C234.674 25.608 236.503 26.2073 237.809 27.2962L239.09 25.7598ZM232.21 23.608C229.674 23.608 227.563 24.0721 225.991 25.1199L227.1 26.784C228.216 26.0399 229.881 25.608 232.21 25.608V23.608ZM225.972 25.1328C224.417 26.2212 223.626 27.779 223.626 29.696H225.626C225.626 28.413 226.114 27.4748 227.119 26.7712L225.972 25.1328ZM223.626 29.696C223.626 30.7673 223.896 31.7525 224.46 32.6177C225.019 33.4763 225.832 34.1647 226.841 34.7055L227.786 32.9425C227.003 32.5233 226.472 32.0437 226.135 31.5263C225.803 31.0155 225.626 30.4167 225.626 29.696H223.626ZM226.866 34.7184C228.757 35.6639 231.626 36.6128 235.419 37.5772L235.912 35.6388C232.153 34.6832 229.454 33.7761 227.761 32.9296L226.866 34.7184ZM235.423 37.5781C239.236 38.5313 242.354 39.5097 244.79 40.5092L245.549 38.6588C242.993 37.6103 239.775 36.6047 235.908 35.6379L235.423 37.5781ZM244.79 40.5092C247.126 41.4677 249.138 42.9652 250.83 45.0197L252.373 43.7483C250.481 41.4508 248.205 39.7483 245.549 38.6588L244.79 40.5092ZM250.85 45.0441C252.514 46.937 253.421 49.5054 253.482 52.8502L255.481 52.8138C255.414 49.1186 254.401 46.055 252.353 43.7239L250.85 45.0441ZM253.482 52.832C253.482 55.703 252.678 58.2513 251.074 60.5088L252.705 61.6672C254.557 59.0607 255.482 56.105 255.482 52.832H253.482ZM251.064 60.5233C249.524 62.7746 247.252 64.5857 244.191 65.9327L244.996 67.7633C248.335 66.2943 250.927 64.2654 252.715 61.6527L251.064 60.5233ZM244.2 65.9289C241.214 67.2084 237.673 67.864 233.553 67.864V69.864C237.882 69.864 241.701 69.1756 244.987 67.7671L244.2 65.9289Z" fill="url(#paint0_linear_673_4670)"/>
<defs>
<linearGradient id="paint0_linear_673_4670" x1="50.2953" y1="-149.462" x2="-59.1497" y2="59.1105" gradientUnits="userSpaceOnUse">
<stop stop-color="#2DD1DB"/>
<stop offset="0.60721" stop-color="#2D9CDB"/>
<stop offset="1" stop-color="#1A8ED0"/>
</linearGradient>
</defs>
</svg>
