<svg width="32" height="32" viewBox="0 0 32 32" fill="none" xmlns="http://www.w3.org/2000/svg">
<path d="M27.166 29.5551H5.16602C5.03341 29.5551 4.90623 29.5024 4.81246 29.4086C4.71869 29.3149 4.66602 29.1877 4.66602 29.0551V2.94507C4.66602 2.81246 4.71869 2.68528 4.81246 2.59152C4.90623 2.49775 5.03341 2.44507 5.16602 2.44507H21.316C21.3817 2.44665 21.4464 2.46115 21.5064 2.48775C21.5665 2.51434 21.6207 2.55251 21.666 2.60007L27.516 8.66007C27.6078 8.74992 27.6616 8.87167 27.666 9.00007V29.0501C27.6667 29.1161 27.6542 29.1817 27.6294 29.2429C27.6046 29.3042 27.5678 29.3599 27.5213 29.4069C27.4749 29.4538 27.4195 29.4911 27.3585 29.5165C27.2975 29.542 27.2321 29.5551 27.166 29.5551ZM5.66602 28.5551H26.666V9.20507L21.106 3.44507H5.66602V28.5551Z" fill="white"/>
<path d="M21.1504 9.50007C21.0178 9.50007 20.8906 9.44739 20.7968 9.35362C20.7031 9.25985 20.6504 9.13268 20.6504 9.00007V2.94507C20.6504 2.81246 20.7031 2.68528 20.7968 2.59152C20.8906 2.49775 21.0178 2.44507 21.1504 2.44507C21.283 2.44507 21.4102 2.49775 21.5039 2.59152C21.5977 2.68528 21.6504 2.81246 21.6504 2.94507V9.00007C21.6504 9.13268 21.5977 9.25985 21.5039 9.35362C21.4102 9.44739 21.283 9.50007 21.1504 9.50007Z" fill="white"/>
<path d="M24.0001 9.5H21.1501C21.0175 9.5 20.8903 9.44732 20.7965 9.35355C20.7028 9.25979 20.6501 9.13261 20.6501 9C20.6501 8.86739 20.7028 8.74021 20.7965 8.64645C20.8903 8.55268 21.0175 8.5 21.1501 8.5H24.0001C24.1327 8.5 24.2599 8.55268 24.3536 8.64645C24.4474 8.74021 24.5001 8.86739 24.5001 9C24.5001 9.13261 24.4474 9.25979 24.3536 9.35355C24.2599 9.44732 24.1327 9.5 24.0001 9.5ZM14.5451 12.93H8.59008C8.45747 12.93 8.33029 12.8773 8.23652 12.7836C8.14276 12.6898 8.09008 12.5626 8.09008 12.43V6.5C8.09008 6.36739 8.14276 6.24021 8.23652 6.14645C8.33029 6.05268 8.45747 6 8.59008 6H14.5451C14.6777 6 14.8049 6.05268 14.8986 6.14645C14.9924 6.24021 15.0451 6.36739 15.0451 6.5V12.43C15.0451 12.5626 14.9924 12.6898 14.8986 12.7836C14.8049 12.8773 14.6777 12.93 14.5451 12.93ZM9.09008 11.93H14.0451V7H9.09008V11.93ZM23.4201 17H8.58008C8.44747 17 8.32029 16.9473 8.22652 16.8536C8.13276 16.7598 8.08008 16.6326 8.08008 16.5C8.08008 16.3674 8.13276 16.2402 8.22652 16.1464C8.32029 16.0527 8.44747 16 8.58008 16H23.4201C23.5527 16 23.6799 16.0527 23.7736 16.1464C23.8674 16.2402 23.9201 16.3674 23.9201 16.5C23.9201 16.6326 23.8674 16.7598 23.7736 16.8536C23.6799 16.9473 23.5527 17 23.4201 17ZM23.4201 20.925H8.58008C8.44747 20.925 8.32029 20.8723 8.22652 20.7786C8.13276 20.6848 8.08008 20.5576 8.08008 20.425C8.08008 20.2924 8.13276 20.1652 8.22652 20.0714C8.32029 19.9777 8.44747 19.925 8.58008 19.925H23.4201C23.5527 19.925 23.6799 19.9777 23.7736 20.0714C23.8674 20.1652 23.9201 20.2924 23.9201 20.425C23.9201 20.5576 23.8674 20.6848 23.7736 20.7786C23.6799 20.8723 23.5527 20.925 23.4201 20.925ZM23.4201 24.855H8.58008C8.44747 24.855 8.32029 24.8023 8.22652 24.7086C8.13276 24.6148 8.08008 24.4876 8.08008 24.355C8.08008 24.2224 8.13276 24.0952 8.22652 24.0014C8.32029 23.9077 8.44747 23.855 8.58008 23.855H23.4201C23.5527 23.855 23.6799 23.9077 23.7736 24.0014C23.8674 24.0952 23.9201 24.2224 23.9201 24.355C23.9201 24.4876 23.8674 24.6148 23.7736 24.7086C23.6799 24.8023 23.5527 24.855 23.4201 24.855Z" fill="white"/>
</svg>
