<svg width="32" height="32" viewBox="0 0 32 32" fill="none" xmlns="http://www.w3.org/2000/svg">
<path d="M12.8772 25.8854C13.6037 25.8854 14.1918 25.293 14.1918 24.5708C14.1918 23.8486 13.5994 23.2562 12.8772 23.2562C12.1507 23.2562 11.5626 23.8486 11.5626 24.5708C11.5626 25.293 12.1507 25.8854 12.8772 25.8854ZM12.8772 23.6886C13.3659 23.6886 13.7594 24.0865 13.7594 24.5708C13.7594 25.0595 13.3615 25.453 12.8772 25.453C12.3886 25.453 11.995 25.0551 11.995 24.5708C11.9907 24.0822 12.3886 23.6886 12.8772 23.6886ZM9.3572 16.9557L12.5875 18.0454C12.6091 18.0541 12.635 18.0584 12.6567 18.0584C12.7129 18.0584 12.7691 18.0368 12.808 17.9935C12.8642 17.9373 12.8859 17.8508 12.8599 17.773L11.8091 14.6508C12.2069 13.8984 12.4188 13.0551 12.4188 12.1989C12.4188 9.31027 10.0664 6.96216 7.17775 6.96216C4.29342 6.96216 1.94531 9.31027 1.94531 12.1989C1.94531 15.0832 4.29342 17.4313 7.17775 17.4313C7.9345 17.4313 8.66531 17.2713 9.3572 16.9557ZM2.37774 12.1989C2.37774 9.5481 4.53126 7.39459 7.17775 7.39459C9.82856 7.39459 11.9864 9.5481 11.9864 12.1989C11.9864 13.0119 11.7788 13.8162 11.3853 14.5254C11.355 14.5773 11.3507 14.6422 11.368 14.6984L12.3107 17.4962L9.4091 16.5189C9.38748 16.5103 9.36153 16.5059 9.33991 16.5059C9.30964 16.5059 9.27504 16.5146 9.2491 16.5276C8.5918 16.8389 7.89558 16.9946 7.17342 16.9946C4.53126 16.9989 2.37774 14.8454 2.37774 12.1989Z" fill="white" stroke="white" stroke-width="0.5"/>
<path d="M10.4121 14.0237V13.708C10.4121 13.6475 10.3992 13.5913 10.3775 13.5394C10.5029 13.414 10.5765 13.241 10.5765 13.055C10.5765 12.8691 10.5029 12.7005 10.3862 12.575C10.5029 12.4496 10.5765 12.2853 10.5765 12.0994C10.5765 11.9005 10.49 11.7188 10.3559 11.5934C10.3905 11.5242 10.4121 11.455 10.4035 11.3772C10.2781 9.91991 9.08025 8.82153 7.6143 8.82153H6.96997C6.21754 8.82153 5.517 9.11126 4.98943 9.64315C4.52241 10.1102 4.237 10.7242 4.18079 11.3772C4.17214 11.455 4.19376 11.5242 4.22835 11.5934C4.0943 11.7188 4.00781 11.9005 4.00781 12.0994C4.00781 12.2853 4.08133 12.4496 4.20241 12.575C4.08133 12.7005 4.00781 12.8691 4.00781 13.055C4.00781 13.2799 4.12024 13.4875 4.30187 13.6129C4.29322 13.6432 4.28457 13.6734 4.28457 13.7037V14.015C4.28457 14.6075 4.76457 15.0875 5.357 15.0875H9.34835C9.92781 15.0918 10.4121 14.6118 10.4121 14.0237ZM4.70835 13.2799C4.67376 13.2799 4.63916 13.2929 4.60457 13.3015C4.50511 13.2626 4.43592 13.1675 4.43592 13.0594C4.43592 12.9123 4.55268 12.7956 4.6997 12.7956H9.88024C10.0229 12.7956 10.1397 12.9123 10.1397 13.0594C10.1397 13.1545 10.0921 13.2367 10.01 13.2842C10.01 13.2842 10.01 13.2842 10.0056 13.2886C9.997 13.2886 9.98835 13.2842 9.9797 13.2842H4.70835V13.2799ZM4.43592 12.1037C4.43592 11.9567 4.55268 11.8399 4.6997 11.8399H9.88024C10.0229 11.8399 10.1397 11.9567 10.1397 12.1037C10.1397 12.2507 10.0273 12.3632 9.88024 12.3632H4.6997C4.55268 12.3632 4.43592 12.2464 4.43592 12.1037ZM5.29214 9.95018C5.73322 9.50478 6.32997 9.25829 6.96565 9.25829H7.60997C8.84673 9.25829 9.86295 10.188 9.96673 11.4075C9.95808 11.4075 9.94943 11.4118 9.94078 11.4118C9.91916 11.4118 9.90187 11.4075 9.88024 11.4075H4.6997C4.66943 11.4075 4.63916 11.4118 4.60889 11.4161C4.65646 10.8626 4.89862 10.3437 5.29214 9.95018ZM4.70835 14.0237L4.70403 13.7123H9.97538V14.0237C9.97538 14.374 9.68997 14.6637 9.33538 14.6637H5.34403C4.99808 14.6594 4.70835 14.374 4.70835 14.0237Z" fill="white" stroke="white" stroke-width="0.5"/>
<path d="M30.0538 22.5255C30.0538 21.1979 29.15 20.0736 27.857 19.7839L27.5803 19.7233V12.545V11.0315V8.8174C27.5803 5.02929 24.497 1.94604 20.7089 1.94604C16.9208 1.94604 13.8376 5.02929 13.8376 8.8174V10.8023C13.8246 10.8758 13.8159 10.9536 13.8159 11.0315V12.545C13.8159 12.6228 13.8289 12.7006 13.8376 12.7742V19.1569H4.95107C4.62242 19.1569 4.31107 19.2996 4.09485 19.546C3.87864 19.7925 3.77918 20.1212 3.82242 20.4455L4.98566 29.0725C5.05918 29.6347 5.5435 30.0542 6.10999 30.0542H28.7997C29.4916 30.0542 30.0538 29.492 30.0538 28.8001V22.5255ZM29.6213 22.5255V24.5752L27.563 25.4574C27.1003 25.6563 26.8019 26.106 26.8019 26.612V29.6217H20.4884C20.6094 29.466 20.6959 29.2801 20.7219 29.0725L21.6862 21.9244C22.5813 21.3147 23.6927 20.385 24.2765 19.265C24.5057 19.4163 24.7651 19.5331 25.0505 19.5979L27.7662 20.2077C28.8559 20.4498 29.6213 21.4012 29.6213 22.5255ZM21.6127 19.5417C21.3965 19.2952 21.0851 19.1525 20.7565 19.1525H17.2754C17.8159 18.7287 18.1576 18.0801 18.1576 17.3579V17.3536C18.8408 17.9677 19.6797 18.3742 20.7219 18.3742C21.7467 18.3742 22.5813 17.972 23.2559 17.3666C23.2603 17.9936 23.5154 18.5601 23.9305 18.9752C23.4505 19.9525 22.4905 20.7958 21.7597 21.332L21.8808 20.4369C21.9284 20.1169 21.8289 19.7925 21.6127 19.5417ZM14.2657 10.8196C14.3651 10.3569 14.7759 10.0066 15.2689 10.0066H15.6192V13.5698H15.2689C14.7759 13.5698 14.3651 13.2196 14.2657 12.7569V10.8196ZM15.2689 9.57415C15.1867 9.57415 15.1132 9.58713 15.0354 9.59578V9.2628C15.0354 6.14496 17.5738 3.60659 20.6959 3.60659C23.8138 3.60659 26.3521 6.14496 26.3521 9.2628V9.59578C26.2743 9.5828 26.2008 9.57415 26.1186 9.57415H25.5565C25.4354 9.57415 25.3403 9.66929 25.3403 9.79037V9.91577C24.0862 9.2801 23.204 8.38064 22.7284 7.22604C22.7024 7.16118 22.6419 7.11361 22.5727 7.09632C22.5035 7.08334 22.43 7.10064 22.3781 7.15253C20.7867 8.64875 18.6549 9.57848 16.0516 9.9201V9.79469C16.0516 9.67361 15.9565 9.57848 15.8354 9.57848H15.2689V9.57415ZM27.1478 12.545C27.1478 13.0077 26.8408 13.3925 26.417 13.5223V13.159C26.417 13.0379 26.3219 12.9428 26.2008 12.9428C26.0797 12.9428 25.9846 13.0379 25.9846 13.159V13.5742H25.7727V10.0109H26.123C26.6894 10.0109 27.1478 10.4693 27.1478 11.0358V12.545ZM25.3532 13.8466C25.3792 13.9331 25.4613 14.0023 25.5565 14.0023H25.9846V14.1839C25.9846 14.6639 25.6732 15.079 25.2149 15.2174L24.7219 15.3644C24.977 14.8585 25.1846 14.3352 25.3532 13.8466ZM16.0516 10.3569C18.6549 10.0239 20.804 9.12442 22.4473 7.67145C23.0138 8.85199 23.9867 9.76875 25.3359 10.4044V12.3028C25.15 13.1115 24.7824 14.4001 24.1338 15.546L21.9543 16.199C21.7165 15.9266 21.31 15.7493 20.8516 15.7493C20.1208 15.7493 19.5284 16.199 19.5284 16.7569C19.5284 17.3147 20.1208 17.7644 20.8516 17.7644C21.5824 17.7644 22.1749 17.3147 22.1749 16.7569C22.1749 16.7006 22.1662 16.6444 22.1532 16.5925L23.7878 16.1039C23.07 17.1417 22.0797 17.9504 20.7219 17.9504C17.5651 17.9504 16.3543 13.5266 16.0516 12.1342V10.3569ZM21.7424 16.7525C21.7424 17.0639 21.3316 17.3277 20.8516 17.3277C20.3673 17.3277 19.9608 17.0639 19.9608 16.7525C19.9608 16.4412 20.3716 16.1774 20.8516 16.1774C21.3359 16.1774 21.7424 16.4412 21.7424 16.7525ZM25.1413 19.1742C24.2851 18.9839 23.6884 18.2358 23.6884 17.3623V16.9342C23.9651 16.6185 24.2073 16.2725 24.4235 15.9093L25.3359 15.6369C25.9803 15.4423 26.4127 14.8585 26.4127 14.1882V13.972C26.6938 13.9158 26.9446 13.7731 27.1435 13.5785V19.6239L25.1413 19.1742ZM20.7089 2.37848C24.2592 2.37848 27.1478 5.26713 27.1478 8.8174V9.99794C27.044 9.89415 26.9186 9.81199 26.7846 9.7428V9.26713C26.7846 5.91145 24.0516 3.17848 20.6959 3.17848C17.3359 3.17848 14.603 5.91145 14.603 9.26713V9.74713C14.4819 9.81199 14.3651 9.88983 14.2657 9.98064V8.82172C14.2657 5.26713 17.1543 2.37848 20.7089 2.37848ZM14.2657 13.6001C14.5251 13.8509 14.8797 14.0023 15.2689 14.0023H15.8354C15.9565 14.0023 16.0516 13.9071 16.0516 13.786V13.7687C16.3976 14.8152 16.9294 16.0087 17.7251 16.9169V17.3623C17.7251 18.2098 17.1543 18.945 16.3327 19.1569H14.27V13.6001H14.2657ZM5.41377 29.012L4.25485 20.385C4.22891 20.186 4.28945 19.9828 4.4235 19.8271C4.55756 19.6714 4.74783 19.585 4.95107 19.585H20.7565C20.9597 19.585 21.15 19.6714 21.284 19.8271C21.4181 19.9785 21.4786 20.1817 21.4527 20.385L20.2894 29.012C20.2419 29.3536 19.9478 29.6131 19.6019 29.6174H6.10999C5.75972 29.6217 5.46134 29.3579 5.41377 29.012ZM28.7997 29.6217H27.2386V26.612C27.2386 26.2833 27.4332 25.985 27.7359 25.8552L29.6213 25.0466V28.8001C29.6213 29.2498 29.2538 29.6217 28.7997 29.6217Z" fill="white" stroke="white" stroke-width="0.5"/>
</svg>
