<svg width="40" height="40" viewBox="0 0 40 40" fill="none" xmlns="http://www.w3.org/2000/svg">
<path d="M31.4058 1.65733C30.1382 1.65733 29.2182 2.42799 29.2182 3.48983V11.4739C28.7273 11.472 28.1206 11.4702 27.457 11.4687C28.2153 10.8625 28.7666 10.0358 29.0349 9.10279C29.3032 8.16978 29.2752 7.17648 28.9547 6.26009C28.6342 5.3437 28.0371 4.54943 27.2458 3.98698C26.4545 3.42453 25.5081 3.12166 24.5372 3.1202C23.5664 3.11873 22.6191 3.41874 21.8261 3.9788C21.0331 4.53886 20.4336 5.33132 20.1104 6.24674C19.7871 7.16216 19.7561 8.15537 20.0215 9.08919C20.287 10.023 20.8359 10.8514 21.5923 11.4598C20.74 11.459 20.1757 11.4586 20.1563 11.4586C18.9934 11.4673 17.8691 11.8769 16.9731 12.6183C16.0771 13.3597 15.4643 14.3875 15.2381 15.5282C15.1844 15.6211 15.1559 15.7264 15.1552 15.8337V16.1792C15.1509 16.2481 15.1419 16.3157 15.1404 16.3853C15.1396 16.4544 15.1446 16.5235 15.1552 16.5918V24.7399C15.1747 25.2717 15.3951 25.7764 15.7721 26.152C16.149 26.5276 16.6544 26.7463 17.1863 26.7638L17.1754 28.0102C17.1715 28.3182 17.2825 28.6166 17.4868 28.8471C17.6911 29.0776 17.9741 29.2236 18.2803 29.2566V37.5002C18.2811 38.1628 18.5448 38.798 19.0136 39.2663C19.4824 39.7345 20.1178 39.9975 20.7804 39.9975C21.443 39.9975 22.0785 39.7345 22.5473 39.2663C23.016 38.798 23.2798 38.1628 23.2805 37.5002V29.2711H24.5306V37.5002C24.5313 38.1628 24.795 38.798 25.2638 39.2663C25.7326 39.7345 26.3681 39.9975 27.0306 39.9975C27.6932 39.9975 28.3287 39.7345 28.7975 39.2663C29.2663 38.798 29.53 38.1628 29.5307 37.5002V29.2269C29.7986 29.1582 30.036 29.0026 30.2057 28.7843C30.3754 28.566 30.4678 28.2976 30.4683 28.0211V18.4754C30.4687 18.3316 30.502 18.1898 30.5656 18.0608C30.6293 17.9319 30.7215 17.8192 30.8354 17.7314L32.2473 16.6489C32.6648 16.3269 33.0031 15.9137 33.2364 15.4409C33.4697 14.9681 33.5918 14.4482 33.5934 13.9209V3.48982C33.5934 2.42799 32.6734 1.65733 31.4058 1.65733ZM21.0929 7.81274C21.0929 7.13284 21.2945 6.4682 21.6722 5.90287C22.0499 5.33754 22.5868 4.89691 23.2149 4.63671C23.8431 4.37651 24.5343 4.30841 25.2011 4.44104C25.868 4.57367 26.4805 4.90106 26.9613 5.38181C27.442 5.86257 27.7695 6.47509 27.9021 7.14193C28.0348 7.80877 27.9667 8.49996 27.7065 9.12811C27.4463 9.75626 27.0057 10.2932 26.4404 10.6709C25.8751 11.0486 25.2105 11.2502 24.5306 11.2502C24.0791 11.2503 23.6321 11.1613 23.2151 10.9886C22.798 10.8159 22.419 10.5627 22.0998 10.2435C21.7806 9.92425 21.5274 9.5453 21.3546 9.12824C21.1819 8.71118 21.0929 8.26417 21.0929 7.81274ZM22.0305 37.5002C22.0305 37.8318 21.8988 38.1497 21.6643 38.3842C21.4299 38.6186 21.112 38.7503 20.7804 38.7503C20.4489 38.7503 20.1309 38.6186 19.8965 38.3842C19.6621 38.1497 19.5304 37.8318 19.5304 37.5002V29.2711H22.0305V37.5002ZM28.2807 37.5002C28.2807 37.8318 28.149 38.1497 27.9146 38.3842C27.6801 38.6186 27.3622 38.7503 27.0306 38.7503C26.6991 38.7503 26.3812 38.6186 26.1467 38.3842C25.9123 38.1497 25.7806 37.8318 25.7806 37.5002V29.2711H28.2807V37.5002ZM32.3433 13.9209C32.3433 14.2566 32.2661 14.5878 32.1175 14.8888C31.969 15.1899 31.7532 15.4527 31.4867 15.6569L30.0748 16.7394C29.8084 16.9436 29.5926 17.2064 29.444 17.5075C29.2955 17.8085 29.2182 18.1397 29.2182 18.4754V28.0211H18.4254L18.4387 26.4951C18.7626 26.3288 19.0352 26.0777 19.2275 25.7686C19.4197 25.4595 19.5244 25.1039 19.5304 24.7399V19.2712C19.5304 19.1054 19.4645 18.9464 19.3473 18.8292C19.2301 18.712 19.0711 18.6462 18.9054 18.6462C18.7396 18.6462 18.5806 18.712 18.4634 18.8292C18.3462 18.9464 18.2803 19.1054 18.2803 19.2712V24.7399C18.2576 24.967 18.1466 25.1761 17.9712 25.3222C17.7959 25.4683 17.5703 25.5397 17.3428 25.5212C17.1153 25.5397 16.8897 25.4683 16.7143 25.3222C16.539 25.1761 16.428 24.967 16.4053 24.7399V16.5211L16.4956 16.6204L16.4053 16.4586V16.2017C16.4809 15.2562 16.9077 14.3732 17.6018 13.7267C18.2959 13.0802 19.2069 12.717 20.1554 12.7086C20.1554 12.7086 26.9783 12.7134 29.5284 12.7252L29.5328 12.7252C29.6558 12.7252 29.7776 12.7009 29.8912 12.6537C30.0048 12.6066 30.108 12.5375 30.1949 12.4504C30.2818 12.3633 30.3506 12.26 30.3975 12.1463C30.4444 12.0326 30.4685 11.9107 30.4683 11.7877V3.48982C30.4683 3.1015 30.937 2.90732 31.4058 2.90732C31.8746 2.90732 32.3433 3.10148 32.3433 3.48982V13.9209ZM15.6018 10.3664L15.0518 7.76834L16.8784 6.87654C17.4473 6.58986 17.8883 6.10075 18.1147 5.50538C18.3412 4.91001 18.3367 4.25147 18.1022 3.65923L17.2858 1.58014C17.1098 1.11686 16.7974 0.717855 16.3899 0.43579C15.9824 0.153725 15.499 0.00186088 15.0034 0.000244143C14.7109 0.000230078 14.4209 0.0536685 14.1477 0.157925L8.00956 2.49087C7.70239 2.60783 7.42169 2.785 7.18395 3.01196C6.9462 3.23893 6.75621 3.51111 6.62513 3.81253C6.48821 4.12417 6.41403 4.45974 6.40683 4.80006C6.39963 5.14038 6.45954 5.47878 6.58315 5.79594L7.61823 8.43209C7.79436 8.89544 8.10685 9.29449 8.51447 9.57657C8.92208 9.85864 9.40564 10.0105 9.90133 10.0121C10.2681 10.0124 10.63 9.92837 10.9591 9.76651L11.0903 9.70242L13.624 11.6216C13.8272 11.7755 14.0725 11.8636 14.3271 11.8742C14.5818 11.8847 14.8335 11.8172 15.0487 11.6806C15.2639 11.544 15.4322 11.345 15.531 11.1101C15.6299 10.8752 15.6545 10.6157 15.6018 10.3664ZM13.6269 7.073L14.3788 10.6252L11.2325 8.24199L10.4106 8.64326C10.2521 8.72121 10.0779 8.76185 9.90132 8.76207C9.65715 8.75906 9.41959 8.68232 9.2198 8.5419C9.02002 8.40149 8.86735 8.20397 8.78181 7.97525L7.74673 5.33912C7.61841 5.02255 7.62076 4.66804 7.75327 4.3532C7.88577 4.03836 8.13763 3.78885 8.4537 3.65931L14.5918 1.32637C14.7232 1.27616 14.8627 1.25036 15.0034 1.25024C15.2474 1.2534 15.4848 1.33021 15.6845 1.47059C15.8841 1.61098 16.0367 1.8084 16.1223 2.03699L16.9386 4.11605C17.0592 4.41574 17.0637 4.74964 16.9511 5.05244C16.8385 5.35524 16.6171 5.60515 16.33 5.75328L13.6269 7.073Z" fill="white"/>
</svg>
