<svg width="32" height="32" viewBox="0 0 32 32" fill="none" xmlns="http://www.w3.org/2000/svg">
<path d="M13.0957 3.00195V3.00391C12.5354 2.98191 11.9669 3.14761 11.4941 3.50391C10.7122 4.09341 10.371 5.0731 10.5605 6H8.5C8.22387 6.0001 8.00002 6.2239 8 6.5V7H3.5C3.22387 7.0001 3.00002 7.2239 3 7.5V30.5C3.00002 30.7762 3.22387 31 3.5 31H22.5C22.7761 31 23 30.7762 23 30.5V7.5C23 7.2239 22.7761 7.0001 22.5 7H18V6.5C18 6.2239 17.7761 6.0001 17.5 6H15.4453C15.6194 5.142 15.3369 4.22655 14.6523 3.62305C14.2083 3.23155 13.656 3.02345 13.0957 3.00195ZM13.0586 4.00195V4.00781C13.3938 4.02081 13.7239 4.14446 13.9922 4.38086C14.5287 4.85386 14.6562 5.63135 14.3008 6.25195C14.1845 6.45615 14.226 6.71369 14.4004 6.87109H14.4023C14.4103 6.88109 14.419 6.88462 14.4277 6.89062L14.4375 6.90039C14.4435 6.91039 14.4504 6.91102 14.457 6.91602C14.4697 6.92602 14.4827 6.93245 14.4961 6.93945H14.5059C14.5806 6.98045 14.6646 7.00295 14.75 7.00195H17V7.41992C16.991 7.47392 16.991 7.52968 17 7.58398V9.41992C16.991 9.47392 16.991 9.52968 17 9.58398V10.002H9V9.58008C9.009 9.52708 9.009 9.47292 9 9.41992V7.58008C9.009 7.52708 9.009 7.47292 9 7.41992V7.00195H11.25C11.6443 7.01195 11.89 6.57633 11.6836 6.24023C11.6736 6.20823 11.6607 6.17648 11.6445 6.14648C11.3376 5.50048 11.5265 4.73519 12.0977 4.30469C12.3832 4.08949 12.7234 3.98925 13.0586 4.00195ZM26.5 7C26.2239 7 26 7.2239 26 7.5V9.00195H25.5703H24.5H24.498C24.2219 9.00295 23.9989 9.22781 24 9.50391V15.5059C23.992 16.1805 25.008 16.1805 25 15.5059V10.0039H25.5703H26V26.502C26 26.7781 26.2239 27.002 26.5 27.002H26.6289V28.5039C26.6289 28.78 26.8528 29.0039 27.1289 29.0039H27.5V31.002H28.5V29.0039H28.873C29.1499 29.0039 29.3732 28.7769 29.3711 28.5V27.002H29.5C29.7761 27.002 30 26.7781 30 26.502V9.26367C30.0004 9.25267 30.0004 9.24147 30 9.23047V7.50195C30 7.22585 29.7761 7.00195 29.5 7.00195H26.5V7ZM27 8H29V9.00195H27V8ZM4 8.00391H8V9.00391H5.5C5.22387 9.00391 5.00002 9.22781 5 9.50391V28.5039C5.00002 28.78 5.22387 29.0039 5.5 29.0039H20.5C20.7761 29.0039 21 28.78 21 28.5039V9.50391C21 9.22781 20.7761 9.00391 20.5 9.00391H18V8.00391H22V30.0039H4V8.00391ZM27 10H29V14.998H27V10ZM6 10.0039H8V10.5039C8.00002 10.78 8.22387 11.0039 8.5 11.0039H17.5C17.7761 11.0039 18 10.78 18 10.5039V10.0039H20V28.0039H6V10.0039ZM10.5098 13.0039C10.38 13.0039 10.2567 13.0609 10.166 13.1543L8.50977 14.7988L7.85742 14.1523C7.38481 13.663 6.66038 14.3914 7.15234 14.8613L8.15625 15.8594C8.35129 16.0533 8.6663 16.0533 8.86133 15.8594L10.8691 13.8633C11.1964 13.5468 10.9649 12.9932 10.5098 13.0039ZM12.457 13.0039C11.7914 13.0389 11.842 14.0368 12.5078 14.0039H15.5078C16.184 14.0139 16.184 12.9943 15.5078 13.0039H12.5078C12.4909 13.003 12.4739 13.003 12.457 13.0039ZM12.4687 15.0039C11.8011 15.0369 11.852 16.0387 12.5195 16.0039H18.4805C19.1566 16.0139 19.1566 14.9943 18.4805 15.0039H12.5195C12.5026 15.003 12.4856 15.003 12.4687 15.0039ZM27 15.998H29V25.998H28.9062C28.8945 25.9976 28.8828 25.9976 28.8711 25.998H27.127C27.119 25.9978 27.1101 25.9978 27.1016 25.998H27V15.998ZM10.5098 18.0039C10.38 18.0039 10.2567 18.0609 10.166 18.1543L8.50977 19.7988L7.85742 19.1523C7.38481 18.663 6.66038 19.3914 7.15234 19.8613L8.15625 20.8594C8.35129 21.0533 8.66629 21.0533 8.86133 20.8594L10.8691 18.8633C11.1964 18.5468 10.9649 17.9932 10.5098 18.0039ZM12.457 18.0039C11.7894 18.0369 11.8402 19.0387 12.5078 19.0039H15.5078C16.184 19.0139 16.184 17.9943 15.5078 18.0039H12.5078C12.4909 18.003 12.4739 18.003 12.457 18.0039ZM12.4687 20.0039C11.8011 20.0369 11.852 21.0387 12.5195 21.0039H18.4805C19.1566 21.0139 19.1566 19.9943 18.4805 20.0039H12.5195C12.5026 20.003 12.4856 20.003 12.4687 20.0039ZM10.5098 23.0039C10.38 23.0039 10.2567 23.0609 10.166 23.1543L8.50977 24.7988L7.85742 24.1523C7.38481 23.663 6.66038 24.3914 7.15234 24.8613L8.15625 25.8594C8.35129 26.0533 8.66629 26.0533 8.86133 25.8594L10.8691 23.8633C11.1964 23.5468 10.9649 22.9932 10.5098 23.0039ZM12.457 23.0039C11.7914 23.0389 11.842 24.0368 12.5078 24.0039H15.5078C16.184 24.0139 16.184 22.9943 15.5078 23.0039H12.5078C12.4909 23.003 12.4739 23.003 12.457 23.0039ZM12.4687 25.0039C11.8011 25.0369 11.852 26.0387 12.5195 26.0039H18.4805C19.1566 26.0139 19.1566 24.9943 18.4805 25.0039H12.5195C12.5026 25.003 12.4856 25.003 12.4687 25.0039ZM27.627 26.998H28.3711V27.998H27.627V26.998Z" fill="white"/>
</svg>
