<svg width="32" height="32" viewBox="0 0 32 32" fill="none" xmlns="http://www.w3.org/2000/svg">
<path d="M15.5 22H5.5C5.36739 22 5.24021 22.0527 5.14645 22.1464C5.05268 22.2402 5 22.3674 5 22.5C5 22.6326 5.05268 22.7598 5.14645 22.8536C5.24021 22.9473 5.36739 23 5.5 23H15.5C15.6326 23 15.7598 22.9473 15.8536 22.8536C15.9473 22.7598 16 22.6326 16 22.5C16 22.3674 15.9473 22.2402 15.8536 22.1464C15.7598 22.0527 15.6326 22 15.5 22ZM25.268 23.732L22.793 26.207L21.732 25.146C21.6377 25.0549 21.5114 25.0045 21.3803 25.0057C21.2492 25.0068 21.1238 25.0594 21.0311 25.1521C20.9384 25.2448 20.8858 25.3702 20.8847 25.5013C20.8835 25.6324 20.9339 25.7587 21.025 25.853L22.439 27.267C22.5328 27.3607 22.6599 27.4134 22.7925 27.4134C22.9251 27.4134 23.0522 27.3607 23.146 27.267L25.974 24.439C26.0651 24.3447 26.1155 24.2184 26.1143 24.0873C26.1132 23.9562 26.0606 23.8308 25.9679 23.7381C25.8752 23.6454 25.7498 23.5928 25.6187 23.5917C25.4876 23.5905 25.3613 23.6409 25.267 23.732H25.268ZM25 19.182V8.5C24.9971 8.4784 24.9928 8.45702 24.987 8.436C24.9845 8.41474 24.9805 8.39369 24.975 8.373C24.9555 8.28794 24.9137 8.2096 24.854 8.146L16.854 0.146C16.7902 0.0857312 16.7115 0.0436097 16.626 0.024C16.6072 0.0191498 16.5882 0.0154759 16.569 0.013C16.5463 0.00701212 16.5233 0.0026675 16.5 0L4.5 0C3.83696 0 3.20107 0.263392 2.73223 0.732233C2.26339 1.20107 2 1.83696 2 2.5V29.5C2 30.163 2.26339 30.7989 2.73223 31.2678C3.20107 31.7366 3.83696 32 4.5 32H24.417C24.5333 31.9983 24.6453 31.9554 24.733 31.879C26.1923 31.5983 27.5112 30.8256 28.4695 29.6899C29.4279 28.5542 29.9677 27.1241 29.9989 25.6384C30.0302 24.1527 29.5509 22.7012 28.6412 21.5262C27.7314 20.3512 26.4462 19.5238 25 19.182ZM17 1.707L23.293 8H18.5C18.1022 8 17.7206 7.84196 17.4393 7.56066C17.158 7.27936 17 6.89782 17 6.5V1.707ZM4.5 31C4.10218 31 3.72064 30.842 3.43934 30.5607C3.15804 30.2794 3 29.8978 3 29.5V2.5C3 2.10218 3.15804 1.72064 3.43934 1.43934C3.72064 1.15804 4.10218 1 4.5 1H16V6.5C16 7.16304 16.2634 7.79893 16.7322 8.26777C17.2011 8.73661 17.837 9 18.5 9H24V19.025C23.834 19.012 23.669 19 23.5 19C22.0896 18.999 20.7173 19.4571 19.5904 20.3052C18.4635 21.1532 17.6433 22.3451 17.2538 23.7006C16.8643 25.0561 16.9267 26.5016 17.4315 27.8185C17.9364 29.1354 18.8562 30.2522 20.052 31H4.5ZM23.5 31C22.4122 31 21.3488 30.6774 20.4444 30.0731C19.5399 29.4687 18.8349 28.6098 18.4187 27.6048C18.0024 26.5998 17.8935 25.4939 18.1057 24.427C18.3179 23.3601 18.8417 22.3801 19.6109 21.6109C20.3801 20.8417 21.3601 20.3179 22.427 20.1057C23.4939 19.8935 24.5998 20.0024 25.6048 20.4187C26.6098 20.8349 27.4687 21.5399 28.0731 22.4444C28.6774 23.3488 29 24.4122 29 25.5C28.9981 26.9581 28.4181 28.356 27.387 29.387C26.356 30.4181 24.9581 30.9981 23.5 31ZM5 16.5C5 16.6326 5.05268 16.7598 5.14645 16.8536C5.24021 16.9473 5.36739 17 5.5 17H21.5C21.6326 17 21.7598 16.9473 21.8536 16.8536C21.9473 16.7598 22 16.6326 22 16.5C22 16.3674 21.9473 16.2402 21.8536 16.1464C21.7598 16.0527 21.6326 16 21.5 16H5.5C5.36739 16 5.24021 16.0527 5.14645 16.1464C5.05268 16.2402 5 16.3674 5 16.5ZM17.5 19H5.5C5.36739 19 5.24021 19.0527 5.14645 19.1464C5.05268 19.2402 5 19.3674 5 19.5C5 19.6326 5.05268 19.7598 5.14645 19.8536C5.24021 19.9473 5.36739 20 5.5 20H17.5C17.6326 20 17.7598 19.9473 17.8536 19.8536C17.9473 19.7598 18 19.6326 18 19.5C18 19.3674 17.9473 19.2402 17.8536 19.1464C17.7598 19.0527 17.6326 19 17.5 19ZM9.5 9C9.79667 9 10.0867 8.91203 10.3334 8.7472C10.58 8.58238 10.7723 8.34811 10.8858 8.07403C10.9994 7.79994 11.0291 7.49834 10.9712 7.20736C10.9133 6.91639 10.7704 6.64912 10.5607 6.43934C10.3509 6.22956 10.0836 6.0867 9.79264 6.02882C9.50166 5.97094 9.20006 6.00065 8.92597 6.11418C8.65189 6.22771 8.41762 6.41997 8.2528 6.66664C8.08797 6.91332 8 7.20333 8 7.5C8 7.89782 8.15804 8.27936 8.43934 8.56066C8.72064 8.84196 9.10218 9 9.5 9ZM9.5 7C9.59889 7 9.69556 7.02932 9.77779 7.08427C9.86001 7.13921 9.9241 7.2173 9.96194 7.30866C9.99978 7.40002 10.0097 7.50055 9.99039 7.59755C9.9711 7.69454 9.92348 7.78363 9.85355 7.85355C9.78363 7.92348 9.69454 7.9711 9.59755 7.99039C9.50056 8.00969 9.40002 7.99978 9.30866 7.96194C9.2173 7.9241 9.13921 7.86001 9.08426 7.77779C9.02932 7.69556 9 7.59889 9 7.5C9 7.36739 9.05268 7.24021 9.14645 7.14645C9.24021 7.05268 9.36739 7 9.5 7ZM5.5 26H14.5C14.6326 26 14.7598 25.9473 14.8536 25.8536C14.9473 25.7598 15 25.6326 15 25.5C15 25.3674 14.9473 25.2402 14.8536 25.1464C14.7598 25.0527 14.6326 25 14.5 25H5.5C5.36739 25 5.24021 25.0527 5.14645 25.1464C5.05268 25.2402 5 25.3674 5 25.5C5 25.6326 5.05268 25.7598 5.14645 25.8536C5.24021 25.9473 5.36739 26 5.5 26ZM15.5 28H5.5C5.36739 28 5.24021 28.0527 5.14645 28.1464C5.05268 28.2402 5 28.3674 5 28.5C5 28.6326 5.05268 28.7598 5.14645 28.8536C5.24021 28.9473 5.36739 29 5.5 29H15.5C15.6326 29 15.7598 28.9473 15.8536 28.8536C15.9473 28.7598 16 28.6326 16 28.5C16 28.3674 15.9473 28.2402 15.8536 28.1464C15.7598 28.0527 15.6326 28 15.5 28ZM5.637 9.1C5.68571 9.27812 5.70828 9.46238 5.704 9.647C5.66677 10.1019 5.80567 10.5536 6.092 10.909C6.44752 11.1951 6.89918 11.3339 7.354 11.297L7.511 11.306C7.50677 11.3225 7.50343 11.3392 7.501 11.356V14.556C7.50105 14.6464 7.52562 14.7352 7.57211 14.8128C7.6186 14.8903 7.68527 14.9539 7.765 14.9965C7.84473 15.0392 7.93455 15.0595 8.02489 15.0552C8.11523 15.0508 8.20271 15.0221 8.278 14.972L9.5 14.15L10.723 14.965C10.8049 15.0201 10.9013 15.0496 11 15.05C11.0824 15.05 11.1636 15.0294 11.236 14.99C11.3157 14.9474 11.3823 14.8839 11.4287 14.8064C11.4752 14.729 11.4999 14.6404 11.5 14.55V11.3L11.646 11.292C12.1008 11.3288 12.5524 11.19 12.908 10.904C13.1945 10.5501 13.3348 10.1 13.3 9.646C13.2955 9.46137 13.318 9.27708 13.367 9.099C13.4551 8.94864 13.5642 8.81159 13.691 8.692C14.0471 8.39112 14.2726 7.9638 14.32 7.5C14.2716 7.03561 14.0446 6.6082 13.687 6.308C13.5602 6.18841 13.4511 6.05136 13.363 5.901C13.3143 5.72288 13.2917 5.53862 13.296 5.354C13.3332 4.89915 13.1943 4.44737 12.908 4.092C12.5531 3.80451 12.1013 3.6642 11.646 3.7C11.4617 3.7049 11.2778 3.68266 11.1 3.634C10.9495 3.54601 10.8125 3.4369 10.693 3.31C10.392 2.95328 9.9643 2.72739 9.5 2.68C9.03474 2.72817 8.60651 2.95556 8.306 3.314C8.18663 3.44062 8.04994 3.5497 7.9 3.638C7.72187 3.68659 7.53758 3.70882 7.353 3.704C6.89819 3.66718 6.44657 3.80603 6.091 4.092C5.80387 4.44708 5.66392 4.89878 5.7 5.354C5.70453 5.53863 5.68195 5.72292 5.633 5.901C5.54488 6.05136 5.43578 6.18841 5.309 6.308C4.95288 6.60888 4.72739 7.0362 4.68 7.5C4.72841 7.96439 4.95539 8.3918 5.313 8.692C5.43986 8.8119 5.54895 8.94928 5.637 9.1ZM10.5 13.615L9.777 13.134C9.69484 13.0792 9.59827 13.0499 9.4995 13.0499C9.40073 13.0499 9.30417 13.0792 9.222 13.134L8.499 13.615V11.862C8.76359 12.134 9.12023 12.2973 9.499 12.32C9.87777 12.2973 10.2344 12.134 10.499 11.862L10.5 13.615ZM6.043 6.991C6.25672 6.78797 6.43219 6.54815 6.561 6.283C6.65912 5.99642 6.70617 5.69485 6.7 5.392C6.68792 5.18963 6.72212 4.98717 6.8 4.8C6.98758 4.7223 7.19032 4.68811 7.393 4.7C7.69604 4.70549 7.99768 4.65742 8.284 4.558C8.54909 4.42914 8.78863 4.2533 8.991 4.039C9.164 3.877 9.379 3.676 9.501 3.676C9.623 3.676 9.838 3.876 10.011 4.039C10.2135 4.25353 10.4535 4.4294 10.719 4.558C11.0053 4.65759 11.3069 4.70566 11.61 4.7C11.8127 4.68808 12.0154 4.72227 12.203 4.8C12.281 4.9875 12.3152 5.1903 12.303 5.393C12.2974 5.69638 12.3455 5.99835 12.445 6.285C12.5738 6.55015 12.7493 6.78997 12.963 6.993C13.125 7.165 13.326 7.38 13.326 7.502C13.326 7.624 13.126 7.839 12.963 8.011C12.7493 8.21403 12.5738 8.45385 12.445 8.719C12.3454 9.00565 12.297 9.30758 12.302 9.611C12.3142 9.8137 12.28 10.0165 12.202 10.204C12.0144 10.2817 11.8117 10.3159 11.609 10.304C11.306 10.2985 11.0043 10.3466 10.718 10.446C10.4529 10.5749 10.2134 10.7507 10.011 10.965C9.838 11.127 9.623 11.328 9.501 11.328C9.379 11.328 9.164 11.128 8.991 10.965C8.78845 10.7505 8.54854 10.5746 8.283 10.446C7.99672 10.3464 7.69506 10.2983 7.392 10.304C7.18932 10.3159 6.98657 10.2817 6.799 10.204C6.72103 10.0165 6.68683 9.8137 6.699 9.611C6.70457 9.30762 6.6565 9.00565 6.557 8.719C6.42819 8.45385 6.25272 8.21403 6.039 8.011C5.877 7.839 5.676 7.624 5.676 7.502C5.676 7.38 5.881 7.163 6.043 6.991Z" fill="white"/>
</svg>
