<svg width="32" height="32" viewBox="0 0 32 32" fill="none" xmlns="http://www.w3.org/2000/svg">
<path d="M2.37709 29.3677C2.05887 29.3623 1.74612 29.2841 1.4628 29.1391C1.09475 28.9709 0.782762 28.7006 0.563946 28.3602C0.345131 28.0198 0.228703 27.6237 0.228516 27.2191V13.2031C0.228516 10.0508 1.48076 7.02763 3.70976 4.79863C5.93876 2.56962 8.96194 1.31738 12.1142 1.31738H19.8491C23.0014 1.31738 26.0246 2.56962 28.2536 4.79863C30.4826 7.02763 31.7348 10.0508 31.7348 13.2031C31.7348 16.3554 30.4826 19.3786 28.2536 21.6076C26.0246 23.8366 23.0014 25.0888 19.8491 25.0888H8.61252L3.65709 28.9197C3.28966 29.2027 2.84081 29.3598 2.37709 29.3677ZM12.1325 3.58481C9.58233 3.58723 7.13729 4.60136 5.33403 6.40462C3.53078 8.20787 2.51665 10.6529 2.51423 13.2031V26.9174L7.52452 23.1048C7.72043 22.9335 7.96857 22.8336 8.22852 22.8214H19.8674C22.311 22.6705 24.6052 21.5934 26.2822 19.8096C27.9592 18.0258 28.8929 15.6697 28.8929 13.2214C28.8929 10.7731 27.9592 8.41692 26.2822 6.63315C24.6052 4.84938 22.311 3.77228 19.8674 3.62138L12.1325 3.58481Z" fill="white"/>
<path d="M22.0062 12.3062H9.99247C9.68936 12.3062 9.39867 12.1858 9.18434 11.9715C8.97002 11.7572 8.84961 11.4665 8.84961 11.1634C8.84961 10.8603 8.97002 10.5696 9.18434 10.3552C9.39867 10.1409 9.68936 10.0205 9.99247 10.0205H22.0062C22.3093 10.0205 22.6 10.1409 22.8143 10.3552C23.0286 10.5696 23.149 10.8603 23.149 11.1634C23.149 11.4665 23.0286 11.7572 22.8143 11.9715C22.6 12.1858 22.3093 12.3062 22.0062 12.3062ZM16.5753 17.9017H9.99247C9.68936 17.9017 9.39867 17.7812 9.18434 17.5669C8.97002 17.3526 8.84961 17.0619 8.84961 16.7588C8.84961 16.4557 8.97002 16.165 9.18434 15.9507C9.39867 15.7363 9.68936 15.6159 9.99247 15.6159H16.5753C16.8784 15.6159 17.1691 15.7363 17.3834 15.9507C17.5978 16.165 17.7182 16.4557 17.7182 16.7588C17.7182 17.0619 17.5978 17.3526 17.3834 17.5669C17.1691 17.7812 16.8784 17.9017 16.5753 17.9017Z" fill="white"/>
</svg>
