<svg width="546" height="65" viewBox="0 0 546 65" fill="none" xmlns="http://www.w3.org/2000/svg">
<path opacity="0.3" d="M8.512 46.848L8.21512 47.5368L8.21938 47.5386L8.512 46.848ZM2.624 42.24L2.01633 42.6796L2.624 42.24ZM0.383995 35.136V34.386H-0.377815L-0.365913 35.1477L0.383995 35.136ZM9.984 35.136L10.7322 35.0838L10.6835 34.386H9.984V35.136ZM11.904 39.488L11.3944 40.0384L11.4045 40.0475L11.904 39.488ZM21.696 39.616L22.1721 40.1955L22.1781 40.1906L22.1841 40.1854L21.696 39.616ZM22.272 32.384L21.7282 32.9006L22.272 32.384ZM19.2 30.4L18.9046 31.0894L18.9192 31.0956L18.934 31.1012L19.2 30.4ZM14.208 28.736L13.9964 29.4556L14.0058 29.4582L14.208 28.736ZM7.104 26.24L6.78154 26.9171L6.79115 26.9217L6.80087 26.926L7.104 26.24ZM2.432 22.464L1.832 22.914L1.83832 22.9224L1.84488 22.9307L2.432 22.464ZM2.496 8.768L3.11795 9.18714L2.496 8.768ZM8.064 4.288L8.35947 4.97743L8.36973 4.97285L8.064 4.288ZM27.456 6.08L26.9906 6.66829L27.0004 6.67577L27.456 6.08ZM32.256 15.424V16.174H33.0639L33.0039 15.3683L32.256 15.424ZM22.4 15.424L21.6511 15.4656L21.6905 16.174H22.4V15.424ZM20.416 11.648L19.9279 12.2174L19.9388 12.2267L19.95 12.2356L20.416 11.648ZM11.392 11.456L10.9096 10.8817L10.9038 10.8866L10.8981 10.8916L11.392 11.456ZM11.008 18.368L10.4635 18.8838L10.4775 18.8985L10.4922 18.9125L11.008 18.368ZM13.952 20.288L13.6474 20.9734L13.6624 20.98L13.6778 20.9861L13.952 20.288ZM18.944 21.952L18.7285 22.6704L18.7324 22.6715L18.944 21.952ZM30.784 28.352L30.1912 28.8114L30.784 28.352ZM30.912 41.728L30.2701 41.3402L30.912 41.728ZM25.472 46.656L25.8074 47.3269L25.8169 47.322L25.472 46.656ZM16.96 47.698C13.9319 47.698 11.2174 47.1798 8.80461 46.1574L8.21938 47.5386C10.8413 48.6495 13.7587 49.198 16.96 49.198V47.698ZM8.80887 46.1593C6.44698 45.1412 4.59612 43.6866 3.23166 41.8004L2.01633 42.6796C3.55321 44.8041 5.62768 46.4215 8.21512 47.5367L8.80887 46.1593ZM3.23166 41.8004C1.88046 39.9326 1.17443 37.7178 1.1339 35.1243L-0.365913 35.1477C-0.321103 38.0156 0.466194 40.5368 2.01633 42.6796L3.23166 41.8004ZM0.383995 35.886H9.984V34.386H0.383995V35.886ZM9.23581 35.1882C9.37466 37.1784 10.0787 38.8201 11.3944 40.0383L12.4136 38.9377C11.4253 38.0226 10.8493 36.763 10.7322 35.0838L9.23581 35.1882ZM11.4045 40.0475C12.7715 41.268 14.5887 41.838 16.768 41.838V40.338C14.8513 40.338 13.4258 39.8413 12.4035 38.9285L11.4045 40.0475ZM16.768 41.838C18.9712 41.838 20.8026 41.3205 22.1721 40.1955L21.2199 39.0365C20.2001 39.8742 18.7462 40.338 16.768 40.338V41.838ZM22.1841 40.1854C23.5507 39.0141 24.238 37.4806 24.238 35.648H22.738C22.738 37.058 22.2306 38.1699 21.2079 39.0466L22.1841 40.1854ZM24.238 35.648C24.238 34.1588 23.7756 32.8778 22.8157 31.8674L21.7282 32.9006C22.3897 33.5969 22.738 34.4918 22.738 35.648H24.238ZM22.8157 31.8674C21.9184 30.9228 20.7954 30.203 19.466 29.6988L18.934 31.1012C20.0792 31.5356 21.0043 32.1385 21.7282 32.9006L22.8157 31.8674ZM19.4954 29.7106C18.2567 29.1797 16.5566 28.6147 14.4102 28.0138L14.0058 29.4582C16.1261 30.0519 17.754 30.5963 18.9046 31.0894L19.4954 29.7106ZM14.4196 28.0165C11.5355 27.1682 9.20119 26.3467 7.40712 25.554L6.80087 26.926C8.67614 27.7546 11.0778 28.5971 13.9964 29.4555L14.4196 28.0165ZM7.42645 25.5629C5.74476 24.7621 4.27588 23.5784 3.01911 21.9973L1.84488 22.9307C3.23345 24.6776 4.87923 26.0113 6.78154 26.9171L7.42645 25.5629ZM3.032 22.014C1.87641 20.4732 1.262 18.3855 1.262 15.68H-0.238005C-0.238005 18.6065 0.427583 21.0415 1.832 22.914L3.032 22.014ZM1.262 15.68C1.262 13.1658 1.88839 11.0116 3.11795 9.18714L1.87405 8.34886C0.458271 10.4497 -0.238005 12.9036 -0.238005 15.68H1.262ZM3.11795 9.18714C4.35216 7.35572 6.08912 5.95035 8.35944 4.97736L7.76856 3.59864C5.26021 4.67365 3.28516 6.25495 1.87405 8.34886L3.11795 9.18714ZM8.36973 4.97285C10.6476 3.95596 13.2712 3.438 16.256 3.438V1.938C13.0968 1.938 10.2591 2.48671 7.75826 3.60314L8.36973 4.97285ZM16.256 3.438C20.7405 3.438 24.2962 4.53674 26.9907 6.66821L27.9213 5.49179C24.8985 3.1006 20.9875 1.938 16.256 1.938V3.438ZM27.0004 6.67577C29.7133 8.75035 31.2235 11.6584 31.5081 15.4797L33.0039 15.3683C32.6912 11.1683 31.0013 7.84697 27.9116 5.48423L27.0004 6.67577ZM32.256 14.674H22.4V16.174H32.256V14.674ZM23.1488 15.3824C23.0513 13.6259 22.2823 12.1709 20.882 11.0604L19.95 12.2356C21.0244 13.0878 21.5781 14.1501 21.6511 15.4656L23.1488 15.3824ZM20.9041 11.0786C19.5396 9.90896 17.7499 9.362 15.616 9.362V10.862C17.4927 10.862 18.9031 11.339 19.9279 12.2174L20.9041 11.0786ZM15.616 9.362C13.7366 9.362 12.1431 9.84557 10.9096 10.8817L11.8744 12.0303C12.7742 11.2744 13.9967 10.862 15.616 10.862V9.362ZM10.8981 10.8916C9.67149 11.9649 9.106 13.4964 9.106 15.36H10.606C10.606 13.8103 11.0645 12.7391 11.8859 12.0204L10.8981 10.8916ZM9.106 15.36C9.106 16.7318 9.55377 17.9235 10.4635 18.8838L11.5525 17.8522C10.9262 17.1912 10.606 16.3775 10.606 15.36H9.106ZM10.4922 18.9125C11.3722 19.7461 12.4274 20.4312 13.6474 20.9734L14.2566 19.6026C13.1726 19.1208 12.2652 18.5259 11.5238 17.8235L10.4922 18.9125ZM13.6778 20.9861C14.9007 21.4665 16.5874 22.028 18.7285 22.6704L19.1595 21.2336C17.0339 20.5959 15.3926 20.0482 14.2262 19.5899L13.6778 20.9861ZM18.7324 22.6715C21.6136 23.5189 23.943 24.3601 25.7317 25.192L26.3643 23.832C24.4836 22.9572 22.0771 22.0917 19.1556 21.2325L18.7324 22.6715ZM25.7317 25.192C27.4507 25.9916 28.9367 27.1928 30.1912 28.8114L31.3768 27.8926C29.9859 26.0979 28.3146 24.7391 26.3643 23.832L25.7317 25.192ZM30.1912 28.8114C31.3861 30.3533 32.018 32.4172 32.018 35.072H33.518C33.518 32.1801 32.8272 29.7641 31.3768 27.8926L30.1912 28.8114ZM32.018 35.072C32.018 37.3244 31.4368 39.409 30.2701 41.3402L31.5539 42.1158C32.8619 39.951 33.518 37.5983 33.518 35.072H32.018ZM30.2701 41.3402C29.1128 43.2556 27.4094 44.8081 25.1271 45.99L25.8169 47.322C28.3133 46.0292 30.2365 44.2964 31.5539 42.1158L30.2701 41.3402ZM25.1366 45.9852C22.8726 47.1172 20.1552 47.698 16.96 47.698V49.198C20.3355 49.198 23.2927 48.5842 25.8074 47.3268L25.1366 45.9852ZM54.808 19.904V19.154H54.058V19.904H54.808ZM55.64 39.68L55.1097 40.2103L55.13 40.2307L55.1519 40.2494L55.64 39.68ZM62.744 40.448H63.494V39.698H62.744V40.448ZM62.744 48V48.75H63.494V48H62.744ZM45.784 19.904H46.534V19.154H45.784V19.904ZM41.56 19.904H40.81V20.654H41.56V19.904ZM41.56 12.544V11.794H40.81V12.544H41.56ZM45.784 12.544V13.294H46.534V12.544H45.784ZM45.784 3.776V3.026H45.034V3.776H45.784ZM54.808 3.776H55.558V3.026H54.808V3.776ZM54.808 12.544H54.058V13.294H54.808V12.544ZM62.744 12.544H63.494V11.794H62.744V12.544ZM62.744 19.904V20.654H63.494V19.904H62.744ZM54.058 19.904V37.056H55.558V19.904H54.058ZM54.058 37.056C54.058 38.3474 54.3556 39.4563 55.1097 40.2103L56.1703 39.1497C55.815 38.7944 55.558 38.1539 55.558 37.056H54.058ZM55.1519 40.2494C55.9545 40.9374 57.1593 41.198 58.584 41.198V39.698C57.278 39.698 56.5201 39.4466 56.1281 39.1106L55.1519 40.2494ZM58.584 41.198H62.744V39.698H58.584V41.198ZM61.994 40.448V48H63.494V40.448H61.994ZM62.744 47.25H57.112V48.75H62.744V47.25ZM57.112 47.25C53.4463 47.25 50.8358 46.3593 49.1387 44.7101C47.4456 43.0648 46.534 40.5402 46.534 36.992H45.034C45.034 40.7825 46.0104 43.7618 48.0933 45.7859C50.1722 47.806 53.2257 48.75 57.112 48.75V47.25ZM46.534 36.992V19.904H45.034V36.992H46.534ZM45.784 19.154H41.56V20.654H45.784V19.154ZM42.31 19.904V12.544H40.81V19.904H42.31ZM41.56 13.294H45.784V11.794H41.56V13.294ZM46.534 12.544V3.776H45.034V12.544H46.534ZM45.784 4.526H54.808V3.026H45.784V4.526ZM54.058 3.776V12.544H55.558V3.776H54.058ZM54.808 13.294H62.744V11.794H54.808V13.294ZM61.994 12.544V19.904H63.494V12.544H61.994ZM62.744 19.154H54.808V20.654H62.744V19.154ZM105.732 32.96V33.71H106.368L106.472 33.0833L105.732 32.96ZM79.8125 32.96V32.21H78.9974L79.0651 33.0223L79.8125 32.96ZM82.5005 38.976L81.993 39.5282L82.5005 38.976ZM95.4285 36.864V36.114H94.9619L94.7557 36.5326L95.4285 36.864ZM105.092 36.864L105.811 37.0795L106.101 36.114H105.092V36.864ZM99.2045 45.312L99.6545 45.912L99.6601 45.9078L99.2045 45.312ZM79.3005 46.336L78.9283 46.9873L78.9406 46.994L79.3005 46.336ZM72.9645 39.872L72.3041 40.2276L72.3084 40.2354L72.9645 39.872ZM72.9645 20.608L72.3041 20.2524L72.9645 20.608ZM79.2365 14.208L79.6007 14.8636L79.2365 14.208ZM97.5405 14.144L97.1799 14.8016L97.1843 14.804L97.5405 14.144ZM103.748 20.352L103.088 20.7082L103.092 20.7145L103.095 20.7207L103.748 20.352ZM96.7085 26.944V27.694H97.4725L97.4584 26.9301L96.7085 26.944ZM94.2125 21.44L93.7207 22.0063L93.7294 22.0137L94.2125 21.44ZM82.6285 21.376L83.1258 21.9374L83.1268 21.9366L82.6285 21.376ZM79.8765 26.944L79.134 26.8379L79.0117 27.694H79.8765V26.944ZM105.238 29.504C105.238 30.7518 105.155 31.8615 104.993 32.8367L106.472 33.0833C106.651 32.0104 106.738 30.8162 106.738 29.504H105.238ZM105.732 32.21H79.8125V33.71H105.732V32.21ZM79.0651 33.0223C79.2908 35.7306 80.2492 37.9258 81.993 39.5282L83.008 38.4238C81.5945 37.1249 80.7609 35.3094 80.5599 32.8977L79.0651 33.0223ZM81.993 39.5282C83.721 41.1161 85.8479 41.902 88.3245 41.902V40.402C86.1931 40.402 84.4374 39.7372 83.008 38.4238L81.993 39.5282ZM88.3245 41.902C90.0972 41.902 91.6614 41.5205 92.9841 40.7221C94.3087 39.9225 95.3438 38.7334 96.1013 37.1954L94.7557 36.5326C94.1052 37.8533 93.2523 38.8081 92.2089 39.4379C91.1636 40.0688 89.8798 40.402 88.3245 40.402V41.902ZM95.4285 37.614H105.092V36.114H95.4285V37.614ZM104.374 36.6485C103.397 39.9066 101.528 42.5909 98.7489 44.7162L99.6601 45.9078C102.684 43.5957 104.74 40.6481 105.811 37.0795L104.374 36.6485ZM98.7545 44.712C96.0036 46.7752 92.606 47.826 88.5165 47.826V49.326C92.875 49.326 96.6028 48.2008 99.6545 45.912L98.7545 44.712ZM88.5165 47.826C85.2165 47.826 82.2702 47.1053 79.6604 45.678L78.9406 46.994C81.7921 48.5534 84.9898 49.326 88.5165 49.326V47.826ZM79.6726 45.6848C77.1068 44.2186 75.0917 42.1649 73.6206 39.5086L72.3084 40.2354C73.9092 43.1258 76.1182 45.3814 78.9284 46.9872L79.6726 45.6848ZM73.6248 39.5164C72.1987 36.8679 71.4745 33.7935 71.4745 30.272H69.9745C69.9745 34.0038 70.7436 37.3294 72.3041 40.2276L73.6248 39.5164ZM71.4745 30.272C71.4745 26.7062 72.1994 23.6109 73.6248 20.9636L72.3041 20.2524C70.7429 23.1518 69.9745 26.4991 69.9745 30.272H71.4745ZM73.6248 20.9636C75.0519 18.3133 77.0413 16.2855 79.6007 14.8636L78.8723 13.5524C76.0557 15.1171 73.8637 17.3561 72.3041 20.2524L73.6248 20.9636ZM79.6007 14.8636C82.1627 13.4403 85.1275 12.718 88.5165 12.718V11.218C84.9082 11.218 81.6863 11.989 78.8723 13.5524L79.6007 14.8636ZM88.5165 12.718C91.7761 12.718 94.6576 13.4184 97.1799 14.8016L97.9011 13.4864C95.1328 11.9683 91.9982 11.218 88.5165 11.218V12.718ZM97.1843 14.804C99.7436 16.1852 101.707 18.1489 103.088 20.7082L104.409 19.9958C102.888 17.1791 100.713 15.0041 97.8967 13.484L97.1843 14.804ZM103.095 20.7207C104.517 23.2388 105.238 26.1591 105.238 29.504H106.738C106.738 25.9369 105.967 22.7559 104.402 19.9833L103.095 20.7207ZM97.4584 26.9301C97.4121 24.431 96.498 22.3842 94.6956 20.8663L93.7294 22.0137C95.1696 23.2265 95.9196 24.849 95.9586 26.9579L97.4584 26.9301ZM94.7043 20.8737C92.9334 19.3359 90.7698 18.578 88.2605 18.578V20.078C90.4445 20.078 92.2489 20.7281 93.7207 22.0063L94.7043 20.8737ZM88.2605 18.578C85.874 18.578 83.8149 19.3179 82.1302 20.8154L83.1268 21.9366C84.5141 20.7034 86.2097 20.078 88.2605 20.078V18.578ZM82.1312 20.8146C80.4783 22.2786 79.495 24.3111 79.134 26.8379L80.619 27.0501C80.9406 24.7983 81.7921 23.1187 83.1258 21.9374L82.1312 20.8146ZM79.8765 27.694H96.7085V26.194H79.8765V27.694ZM125.328 17.664H124.578V20.0144L125.94 18.0984L125.328 17.664ZM130.064 13.632L130.417 14.2942L130.422 14.2915L130.064 13.632ZM145.232 14.208L144.84 14.8471L144.845 14.8501L145.232 14.208ZM151.056 20.608L150.388 20.9476L150.394 20.9599L151.056 20.608ZM151.056 39.808L150.39 39.4645L150.388 39.4685L151.056 39.808ZM145.232 46.272L144.837 45.6348L144.832 45.6379L145.232 46.272ZM130.128 46.976L129.77 47.635L129.776 47.6382L130.128 46.976ZM125.328 42.944L125.925 42.489L124.578 40.725V42.944H125.328ZM125.328 64.896V65.646H126.078V64.896H125.328ZM116.368 64.896H115.618V65.646H116.368V64.896ZM116.368 12.544V11.794H115.618V12.544H116.368ZM125.328 12.544H126.078V11.794H125.328V12.544ZM142.736 24.64L142.077 24.9966L142.083 25.0074L142.089 25.0179L142.736 24.64ZM139.28 21.056L138.906 21.706L138.915 21.7107L139.28 21.056ZM130.064 21.12L130.439 21.77L130.445 21.7664L130.064 21.12ZM126.608 24.704L125.956 24.3338L125.952 24.3405L125.949 24.3474L126.608 24.704ZM126.608 35.84L125.949 36.1966L125.952 36.2035L125.956 36.2102L126.608 35.84ZM130.064 39.488L129.676 40.1294L129.687 40.1363L129.699 40.1427L130.064 39.488ZM139.28 39.424L138.9 38.7775L138.892 38.7826L139.28 39.424ZM142.736 35.776L142.084 35.4058L142.08 35.4125L142.077 35.4194L142.736 35.776ZM125.94 18.0984C127.015 16.5848 128.5 15.3139 130.417 14.2942L129.712 12.9698C127.619 14.0834 125.946 15.5005 124.717 17.2296L125.94 18.0984ZM130.422 14.2915C132.348 13.2483 134.548 12.718 137.04 12.718V11.218C134.328 11.218 131.877 11.7971 129.707 12.9725L130.422 14.2915ZM137.04 12.718C139.94 12.718 142.533 13.4308 144.84 14.8471L145.625 13.5689C143.068 11.9985 140.199 11.218 137.04 11.218V12.718ZM144.845 14.8501C147.19 16.2654 149.038 18.2895 150.388 20.9475L151.725 20.2685C150.259 17.3798 148.224 15.1373 145.62 13.5659L144.845 14.8501ZM150.394 20.9599C151.778 23.5649 152.482 26.6188 152.482 30.144H153.982C153.982 26.4159 153.236 23.1125 151.719 20.2561L150.394 20.9599ZM152.482 30.144C152.482 33.6686 151.778 36.7692 150.39 39.4645L151.723 40.1515C153.236 37.2148 153.982 33.8727 153.982 30.144H152.482ZM150.388 39.4685C149.037 42.1281 147.187 44.1761 144.837 45.6348L145.628 46.9092C148.227 45.2959 150.26 43.0346 151.725 40.1475L150.388 39.4685ZM144.832 45.6379C142.526 47.0941 139.936 47.826 137.04 47.826V49.326C140.204 49.326 143.075 48.5219 145.633 46.9061L144.832 45.6379ZM137.04 47.826C134.543 47.826 132.363 47.3149 130.481 46.3138L129.776 47.6382C131.905 48.7704 134.333 49.326 137.04 49.326V47.826ZM130.487 46.317C128.608 45.296 127.092 44.0186 125.925 42.489L124.732 43.399C126.04 45.1121 127.724 46.5227 129.77 47.635L130.487 46.317ZM124.578 42.944V64.896H126.078V42.944H124.578ZM125.328 64.146H116.368V65.646H125.328V64.146ZM117.118 64.896V12.544H115.618V64.896H117.118ZM116.368 13.294H125.328V11.794H116.368V13.294ZM124.578 12.544V17.664H126.078V12.544H124.578ZM144.83 30.144C144.83 27.9044 144.359 25.9338 143.384 24.2621L142.089 25.0179C142.906 26.4182 143.33 28.1169 143.33 30.144H144.83ZM143.396 24.2834C142.481 22.5899 141.231 21.287 139.646 20.4013L138.915 21.7107C140.231 22.4464 141.285 23.5328 142.077 24.9966L143.396 24.2834ZM139.655 20.406C138.13 19.5282 136.465 19.09 134.672 19.09V20.59C136.208 20.59 137.615 20.9625 138.906 21.706L139.655 20.406ZM134.672 19.09C132.912 19.09 131.246 19.5551 129.684 20.4735L130.445 21.7664C131.785 20.9782 133.19 20.59 134.672 20.59V19.09ZM129.69 20.47C128.153 21.3551 126.91 22.6527 125.956 24.3338L127.261 25.0742C128.099 23.5979 129.16 22.5063 130.439 21.77L129.69 20.47ZM125.949 24.3474C125.026 26.0545 124.578 28.0376 124.578 30.272H126.078C126.078 28.2397 126.484 26.5108 127.268 25.0606L125.949 24.3474ZM124.578 30.272C124.578 32.5064 125.026 34.4895 125.949 36.1966L127.268 35.4834C126.484 34.0332 126.078 32.3043 126.078 30.272H124.578ZM125.956 36.2102C126.909 37.8886 128.147 39.203 129.676 40.1294L130.453 38.8466C129.166 38.0663 128.1 36.9487 127.261 35.4698L125.956 36.2102ZM129.699 40.1427C131.258 41.0142 132.92 41.454 134.672 41.454V39.954C133.183 39.954 131.772 39.5831 130.43 38.8333L129.699 40.1427ZM134.672 41.454C136.472 41.454 138.143 40.9906 139.669 40.0654L138.892 38.7826C137.602 39.5641 136.201 39.954 134.672 39.954V41.454ZM139.661 40.0704C141.237 39.1432 142.482 37.8233 143.396 36.1326L142.077 35.4194C141.284 36.886 140.225 37.9982 138.9 38.7775L139.661 40.0704ZM143.389 36.1462C144.36 34.4342 144.83 32.424 144.83 30.144H143.33C143.33 32.216 142.905 33.9605 142.084 35.4058L143.389 36.1462ZM169.343 47.04L169.028 47.7207L169.039 47.7254L169.343 47.04ZM163.839 42.752L163.236 43.1974L163.243 43.2065L163.839 42.752ZM161.663 36.8V36.05H160.868L160.915 36.844L161.663 36.8ZM170.688 36.8L171.432 36.707L171.35 36.05H170.688V36.8ZM172.671 40.192L172.211 40.7841L172.221 40.792L172.671 40.192ZM181.055 40.512L180.627 39.8963L180.621 39.9008L180.614 39.9054L181.055 40.512ZM180.736 35.328L180.39 35.9938L180.405 36.0014L180.42 36.0083L180.736 35.328ZM175.167 33.408L175.361 32.6833L175.352 32.6811L175.344 32.679L175.167 33.408ZM168.639 31.424L168.355 32.1179L168.361 32.1204L168.639 31.424ZM164.287 28.288L163.716 28.7733L163.724 28.7831L164.287 28.288ZM164.16 17.216L163.548 16.7815L163.541 16.7925L164.16 17.216ZM169.023 13.376L168.721 12.6895L168.716 12.6918L169.023 13.376ZM186.624 15.168L186.139 15.7402L186.144 15.745L186.624 15.168ZM190.783 23.68V24.43H191.589L191.532 23.6266L190.783 23.68ZM182.207 23.68L181.461 23.7479L181.523 24.43H182.207V23.68ZM180.415 20.352L179.935 20.9282L179.948 20.9389L179.962 20.9491L180.415 20.352ZM172.479 19.968L172.063 19.344L172.056 19.3487L172.049 19.3536L172.479 19.968ZM172.992 25.216L172.637 25.8771L172.647 25.8821L172.656 25.8868L172.992 25.216ZM178.559 27.072L178.375 27.7989L178.378 27.7996L178.559 27.072ZM189.184 32.256L188.605 32.7328L188.612 32.7421L188.62 32.7511L189.184 32.256ZM191.104 37.888H191.854L191.853 37.8744L191.104 37.888ZM189.376 43.392L188.764 42.9575L188.757 42.9685L189.376 43.392ZM184.512 47.232L184.807 47.9214L184.814 47.9185L184.512 47.232ZM177.151 47.826C174.339 47.826 171.843 47.3301 169.648 46.3546L169.039 47.7254C171.452 48.7979 174.161 49.326 177.151 49.326V47.826ZM169.659 46.3594C167.451 45.3374 165.718 43.9805 164.436 42.2975L163.243 43.2065C164.691 45.1075 166.628 46.6092 169.028 47.7206L169.659 46.3594ZM164.443 42.3066C163.205 40.6288 162.531 38.7836 162.412 36.756L160.915 36.844C161.052 39.1684 161.829 41.2912 163.236 43.1974L164.443 42.3066ZM161.663 37.55H170.688V36.05H161.663V37.55ZM169.943 36.893C170.14 38.4686 170.913 39.7741 172.211 40.784L173.132 39.6C172.126 38.8179 171.576 37.862 171.432 36.707L169.943 36.893ZM172.221 40.792C173.567 41.8013 175.205 42.286 177.087 42.286V40.786C175.472 40.786 174.165 40.3747 173.121 39.592L172.221 40.792ZM177.087 42.286C178.882 42.286 180.382 41.929 181.497 41.1186L180.614 39.9054C179.851 40.4603 178.707 40.786 177.087 40.786V42.286ZM181.484 41.1277C182.638 40.3245 183.277 39.2328 183.277 37.888H181.777C181.777 38.6766 181.435 39.3342 180.627 39.8963L181.484 41.1277ZM183.277 37.888C183.277 37.1752 183.09 36.5199 182.694 35.9539C182.302 35.3939 181.737 34.9662 181.051 34.6477L180.42 36.0083C180.928 36.2444 181.26 36.5207 181.465 36.8141C181.666 37.1014 181.777 37.4488 181.777 37.888H183.277ZM181.081 34.6622C179.853 34.0254 177.931 33.3687 175.361 32.6833L174.974 34.1327C177.524 34.8127 179.314 35.4359 180.39 35.9938L181.081 34.6622ZM175.344 32.679C172.718 32.0439 170.58 31.3923 168.918 30.7276L168.361 32.1204C170.113 32.821 172.326 33.4921 174.991 34.137L175.344 32.679ZM168.924 30.7301C167.372 30.0932 166.015 29.1178 164.851 27.7929L163.724 28.7831C165.034 30.2742 166.579 31.3895 168.355 32.1179L168.924 30.7301ZM164.859 27.8028C163.81 26.566 163.245 24.8568 163.245 22.592H161.745C161.745 25.1058 162.376 27.194 163.716 28.7732L164.859 27.8028ZM163.245 22.592C163.245 20.7806 163.754 19.1362 164.778 17.6395L163.541 16.7925C162.346 18.5384 161.745 20.478 161.745 22.592H163.245ZM164.771 17.6504C165.834 16.1536 167.343 14.9526 169.331 14.0602L168.716 12.6918C166.523 13.6767 164.789 15.0357 163.548 16.7816L164.771 17.6504ZM169.326 14.0625C171.345 13.1741 173.734 12.718 176.512 12.718V11.218C173.572 11.218 170.969 11.7006 168.721 12.6895L169.326 14.0625ZM176.512 12.718C180.609 12.718 183.791 13.7507 186.139 15.7402L187.108 14.5958C184.421 12.3186 180.862 11.218 176.512 11.218V12.718ZM186.144 15.745C188.488 17.6915 189.792 20.3312 190.035 23.7334L191.532 23.6266C191.263 19.8608 189.794 16.8258 187.103 14.591L186.144 15.745ZM190.783 22.93H182.207V24.43H190.783V22.93ZM182.954 23.6121C182.809 22.0074 182.114 20.7007 180.869 19.7549L179.962 20.9491C180.851 21.6246 181.35 22.5366 181.461 23.7479L182.954 23.6121ZM180.896 19.7758C179.7 18.7792 178.125 18.322 176.255 18.322V19.822C177.885 19.822 179.083 20.2182 179.935 20.9282L180.896 19.7758ZM176.255 18.322C174.556 18.322 173.13 18.6327 172.063 19.344L172.896 20.592C173.621 20.1086 174.712 19.822 176.255 19.822V18.322ZM172.049 19.3536C170.99 20.0952 170.449 21.1596 170.449 22.464H171.949C171.949 21.6351 172.262 21.0354 172.91 20.5824L172.049 19.3536ZM170.449 22.464C170.449 23.1928 170.634 23.8657 171.019 24.4573C171.401 25.0439 171.955 25.5116 172.637 25.8771L173.346 24.5549C172.833 24.2804 172.491 23.9694 172.276 23.6387C172.064 23.3129 171.949 22.9298 171.949 22.464H170.449ZM172.656 25.8868C173.925 26.5212 175.844 27.1556 178.375 27.7989L178.744 26.3451C176.24 25.7084 174.447 25.1054 173.327 24.5452L172.656 25.8868ZM178.378 27.7996C180.917 28.4345 182.992 29.0856 184.611 29.7499L185.18 28.3621C183.471 27.661 181.322 26.9895 178.741 26.3444L178.378 27.7996ZM184.611 29.7499C186.155 30.3834 187.485 31.3732 188.605 32.7328L189.762 31.7792C188.493 30.2375 186.964 29.0939 185.18 28.3621L184.611 29.7499ZM188.62 32.7511C189.713 33.9948 190.313 35.6863 190.354 37.9016L191.853 37.8744C191.808 35.3963 191.129 33.3332 189.747 31.7609L188.62 32.7511ZM190.354 37.888C190.354 39.7853 189.823 41.4671 188.764 42.9576L189.987 43.8264C191.232 42.0742 191.854 40.0867 191.854 37.888H190.354ZM188.757 42.9685C187.74 44.4543 186.239 45.6526 184.209 46.5455L184.814 47.9185C187.051 46.9341 188.792 45.5724 189.994 43.8155L188.757 42.9685ZM184.216 46.5426C182.238 47.3903 179.889 47.826 177.151 47.826V49.326C180.046 49.326 182.604 48.8657 184.807 47.9214L184.216 46.5426ZM251.788 3.328H252.538V2.578H251.788V3.328ZM251.788 10.56V11.31H252.538V10.56H251.788ZM239.884 10.56V9.81H239.134V10.56H239.884ZM239.884 48V48.75H240.634V48H239.884ZM230.924 48H230.174V48.75H230.924V48ZM230.924 10.56H231.674V9.81H230.924V10.56ZM219.02 10.56H218.27V11.31H219.02V10.56ZM219.02 3.328V2.578H218.27V3.328H219.02ZM251.038 3.328V10.56H252.538V3.328H251.038ZM251.788 9.81H239.884V11.31H251.788V9.81ZM239.134 10.56V48H240.634V10.56H239.134ZM239.884 47.25H230.924V48.75H239.884V47.25ZM231.674 48V10.56H230.174V48H231.674ZM230.924 9.81H219.02V11.31H230.924V9.81ZM219.77 10.56V3.328H218.27V10.56H219.77ZM219.02 4.078H251.788V2.578H219.02V4.078ZM268.694 46.336L268.326 46.9897L268.334 46.994L268.694 46.336ZM262.23 39.872L261.574 40.2354L261.578 40.243L262.23 39.872ZM262.294 20.672L261.646 20.2935L261.642 20.301L262.294 20.672ZM268.886 14.272L269.242 14.9324L269.249 14.9281L268.886 14.272ZM287.446 14.272L287.083 14.9281L287.09 14.9324L287.446 14.272ZM293.974 20.672L293.322 21.043L293.327 21.0505L293.974 20.672ZM293.91 39.872L293.267 39.4861L293.263 39.4935L293.91 39.872ZM287.254 46.336L287.61 46.9964L287.613 46.9944L287.254 46.336ZM282.454 39.616L282.813 40.2745L282.82 40.2707L282.454 39.616ZM285.91 36.032L286.57 36.3886L285.91 36.032ZM284.502 22.528L283.959 23.0456L283.965 23.052L283.972 23.0583L284.502 22.528ZM271.574 22.528L271.031 22.0104L271.031 22.0108L271.574 22.528ZM271.51 38.08L270.954 38.5839L270.961 38.5906L270.967 38.5972L271.51 38.08ZM277.91 47.826C274.61 47.826 271.664 47.1053 269.054 45.678L268.334 46.994C271.186 48.5534 274.383 49.326 277.91 49.326V47.826ZM269.062 45.6823C266.452 44.2143 264.394 42.1584 262.882 39.501L261.578 40.243C263.223 43.1323 265.475 45.3857 268.326 46.9897L269.062 45.6823ZM262.886 39.5086C261.42 36.8616 260.676 33.7901 260.676 30.272H259.176C259.176 34.0073 259.968 37.3357 261.574 40.2354L262.886 39.5086ZM260.676 30.272C260.676 26.7574 261.44 23.6886 262.946 21.043L261.642 20.301C259.991 23.2021 259.176 26.5333 259.176 30.272H260.676ZM262.941 21.0505C264.495 18.3937 266.592 16.359 269.242 14.9324L268.53 13.6116C265.633 15.1717 263.336 17.4037 261.647 20.2935L262.941 21.0505ZM269.249 14.9281C271.903 13.4584 274.87 12.718 278.166 12.718V11.218C274.636 11.218 271.416 12.0136 268.523 13.6159L269.249 14.9281ZM278.166 12.718C281.462 12.718 284.429 13.4584 287.083 14.9281L287.809 13.6159C284.916 12.0136 281.696 11.218 278.166 11.218V12.718ZM287.09 14.9324C289.738 16.358 291.812 18.3903 293.322 21.043L294.626 20.301C292.978 17.407 290.701 15.1726 287.802 13.6116L287.09 14.9324ZM293.327 21.0505C294.872 23.6948 295.656 26.7609 295.656 30.272H297.156C297.156 26.5298 296.318 23.1959 294.621 20.2935L293.327 21.0505ZM295.656 30.272C295.656 33.7796 294.853 36.843 293.267 39.4861L294.553 40.2579C296.295 37.3543 297.156 34.0177 297.156 30.272H295.656ZM293.263 39.4935C291.71 42.1492 289.591 44.207 286.895 45.6776L287.613 46.9944C290.549 45.393 292.867 43.1415 294.557 40.2505L293.263 39.4935ZM286.898 45.6756C284.245 47.1046 281.254 47.826 277.91 47.826V49.326C281.478 49.326 284.717 48.5541 287.61 46.9964L286.898 45.6756ZM277.91 41.518C279.655 41.518 281.294 41.1032 282.813 40.2744L282.095 38.9576C280.798 39.6648 279.407 40.018 277.91 40.018V41.518ZM282.82 40.2707C284.405 39.385 285.654 38.0821 286.57 36.3886L285.25 35.6754C284.459 37.1392 283.405 38.2256 282.088 38.9613L282.82 40.2707ZM286.57 36.3886C287.496 34.6755 287.94 32.6261 287.94 30.272H286.44C286.44 32.4406 286.031 34.2311 285.25 35.6754L286.57 36.3886ZM287.94 30.272C287.94 26.7703 287.007 23.972 285.032 21.9977L283.972 23.0583C285.581 24.668 286.44 27.0324 286.44 30.272H287.94ZM285.045 22.0104C283.152 20.0257 280.801 19.026 278.038 19.026V20.526C280.395 20.526 282.353 21.361 283.959 23.0456L285.045 22.0104ZM278.038 19.026C275.275 19.026 272.924 20.0257 271.031 22.0104L272.117 23.0456C273.723 21.361 275.681 20.526 278.038 20.526V19.026ZM271.031 22.0108C269.149 23.9863 268.264 26.7797 268.264 30.272H269.764C269.764 27.023 270.585 24.6537 272.117 23.0452L271.031 22.0108ZM268.264 30.272C268.264 33.761 269.126 36.568 270.954 38.5839L272.066 37.5761C270.566 35.9226 269.764 33.5243 269.764 30.272H268.264ZM270.967 38.5972C272.821 40.5435 275.153 41.518 277.91 41.518V40.018C275.547 40.018 273.613 39.2005 272.053 37.5628L270.967 38.5972ZM353.492 3.328H354.242V2.578H353.492V3.328ZM353.492 10.56V11.31H354.242V10.56H353.492ZM334.868 10.56V9.81H334.118V10.56H334.868ZM334.868 22.016H334.118V22.766H334.868V22.016ZM349.141 22.016H349.891V21.266H349.141V22.016ZM349.141 29.12V29.87H349.891V29.12H349.141ZM334.868 29.12V28.37H334.118V29.12H334.868ZM334.868 48V48.75H335.618V48H334.868ZM325.909 48H325.159V48.75H325.909V48ZM325.909 3.328V2.578H325.159V3.328H325.909ZM352.742 3.328V10.56H354.242V3.328H352.742ZM353.492 9.81H334.868V11.31H353.492V9.81ZM334.118 10.56V22.016H335.618V10.56H334.118ZM334.868 22.766H349.141V21.266H334.868V22.766ZM348.391 22.016V29.12H349.891V22.016H348.391ZM349.141 28.37H334.868V29.87H349.141V28.37ZM334.118 29.12V48H335.618V29.12H334.118ZM334.868 47.25H325.909V48.75H334.868V47.25ZM326.659 48V3.328H325.159V48H326.659ZM325.909 4.078H353.492V2.578H325.909V4.078ZM370.214 46.336L369.846 46.9897L369.854 46.994L370.214 46.336ZM363.75 39.872L363.094 40.2354L363.098 40.243L363.75 39.872ZM363.814 20.672L363.166 20.2935L363.162 20.301L363.814 20.672ZM370.406 14.272L370.762 14.9324L370.769 14.9281L370.406 14.272ZM388.966 14.272L388.603 14.9281L388.61 14.9324L388.966 14.272ZM395.494 20.672L394.842 21.043L394.847 21.0505L395.494 20.672ZM395.43 39.872L394.787 39.4861L394.783 39.4935L395.43 39.872ZM388.774 46.336L389.13 46.9964L389.133 46.9944L388.774 46.336ZM383.974 39.616L384.333 40.2745L384.34 40.2707L383.974 39.616ZM387.43 36.032L388.09 36.3886L387.43 36.032ZM386.022 22.528L385.479 23.0456L385.485 23.052L385.492 23.0583L386.022 22.528ZM373.094 22.528L372.551 22.0104L372.551 22.0108L373.094 22.528ZM373.03 38.08L372.474 38.5839L372.481 38.5906L372.487 38.5972L373.03 38.08ZM379.43 47.826C376.13 47.826 373.184 47.1053 370.574 45.678L369.854 46.994C372.706 48.5534 375.903 49.326 379.43 49.326V47.826ZM370.582 45.6823C367.972 44.2143 365.914 42.1584 364.402 39.501L363.098 40.243C364.743 43.1323 366.995 45.3857 369.846 46.9897L370.582 45.6823ZM364.406 39.5086C362.94 36.8616 362.196 33.7901 362.196 30.272H360.696C360.696 34.0073 361.488 37.3357 363.094 40.2354L364.406 39.5086ZM362.196 30.272C362.196 26.7574 362.96 23.6886 364.466 21.043L363.162 20.301C361.511 23.2021 360.696 26.5333 360.696 30.272H362.196ZM364.461 21.0505C366.015 18.3937 368.112 16.359 370.762 14.9324L370.05 13.6116C367.153 15.1717 364.856 17.4037 363.167 20.2935L364.461 21.0505ZM370.769 14.9281C373.423 13.4584 376.39 12.718 379.686 12.718V11.218C376.156 11.218 372.936 12.0136 370.043 13.6159L370.769 14.9281ZM379.686 12.718C382.982 12.718 385.949 13.4584 388.603 14.9281L389.329 13.6159C386.436 12.0136 383.216 11.218 379.686 11.218V12.718ZM388.61 14.9324C391.258 16.358 393.332 18.3903 394.842 21.043L396.146 20.301C394.498 17.407 392.221 15.1726 389.322 13.6116L388.61 14.9324ZM394.847 21.0505C396.392 23.6948 397.176 26.7609 397.176 30.272H398.676C398.676 26.5298 397.838 23.1959 396.141 20.2935L394.847 21.0505ZM397.176 30.272C397.176 33.7796 396.373 36.843 394.787 39.4861L396.073 40.2579C397.815 37.3543 398.676 34.0177 398.676 30.272H397.176ZM394.783 39.4935C393.23 42.1492 391.111 44.207 388.415 45.6776L389.133 46.9944C392.069 45.393 394.387 43.1415 396.077 40.2505L394.783 39.4935ZM388.418 45.6756C385.765 47.1046 382.774 47.826 379.43 47.826V49.326C382.998 49.326 386.237 48.5541 389.13 46.9964L388.418 45.6756ZM379.43 41.518C381.175 41.518 382.814 41.1032 384.333 40.2744L383.615 38.9576C382.318 39.6648 380.927 40.018 379.43 40.018V41.518ZM384.34 40.2707C385.925 39.385 387.174 38.0821 388.09 36.3886L386.77 35.6754C385.979 37.1392 384.925 38.2256 383.608 38.9613L384.34 40.2707ZM388.09 36.3886C389.016 34.6755 389.46 32.6261 389.46 30.272H387.96C387.96 32.4406 387.551 34.2311 386.77 35.6754L388.09 36.3886ZM389.46 30.272C389.46 26.7703 388.527 23.972 386.552 21.9977L385.492 23.0583C387.101 24.668 387.96 27.0324 387.96 30.272H389.46ZM386.565 22.0104C384.672 20.0257 382.321 19.026 379.558 19.026V20.526C381.915 20.526 383.873 21.361 385.479 23.0456L386.565 22.0104ZM379.558 19.026C376.795 19.026 374.444 20.0257 372.551 22.0104L373.637 23.0456C375.243 21.361 377.201 20.526 379.558 20.526V19.026ZM372.551 22.0108C370.669 23.9863 369.784 26.7797 369.784 30.272H371.284C371.284 27.023 372.105 24.6537 373.637 23.0452L372.551 22.0108ZM369.784 30.272C369.784 33.761 370.646 36.568 372.474 38.5839L373.586 37.5761C372.086 35.9226 371.284 33.5243 371.284 30.272H369.784ZM372.487 38.5972C374.341 40.5435 376.673 41.518 379.43 41.518V40.018C377.067 40.018 375.133 39.2005 373.573 37.5628L372.487 38.5972ZM417.298 0.639999H418.048V-0.110001H417.298V0.639999ZM417.298 48V48.75H418.048V48H417.298ZM408.339 48H407.589V48.75H408.339V48ZM408.339 0.639999V-0.110001H407.589V0.639999H408.339ZM416.548 0.639999V48H418.048V0.639999H416.548ZM417.298 47.25H408.339V48.75H417.298V47.25ZM409.089 48V0.639999H407.589V48H409.089ZM408.339 1.39H417.298V-0.110001H408.339V1.39ZM438.951 0.639999H439.701V-0.110001H438.951V0.639999ZM438.951 48V48.75H439.701V48H438.951ZM429.991 48H429.241V48.75H429.991V48ZM429.991 0.639999V-0.110001H429.241V0.639999H429.991ZM438.201 0.639999V48H439.701V0.639999H438.201ZM438.951 47.25H429.991V48.75H438.951V47.25ZM430.741 48V0.639999H429.241V48H430.741ZM429.991 1.39H438.951V-0.110001H429.991V1.39ZM458.172 46.336L457.804 46.9897L457.812 46.994L458.172 46.336ZM451.708 39.872L451.051 40.2354L451.056 40.243L451.708 39.872ZM451.772 20.672L451.124 20.2935L451.12 20.301L451.772 20.672ZM458.363 14.272L458.719 14.9324L458.727 14.9281L458.363 14.272ZM476.924 14.272L476.56 14.9281L476.568 14.9324L476.924 14.272ZM483.452 20.672L482.8 21.043L482.804 21.0505L483.452 20.672ZM483.388 39.872L482.744 39.4861L482.74 39.4935L483.388 39.872ZM476.732 46.336L477.087 46.9964L477.091 46.9944L476.732 46.336ZM471.932 39.616L472.291 40.2745L472.297 40.2707L471.932 39.616ZM475.388 36.032L476.047 36.3886L475.388 36.032ZM473.98 22.528L473.437 23.0456L473.443 23.052L473.449 23.0583L473.98 22.528ZM461.052 22.528L460.509 22.0104L460.508 22.0108L461.052 22.528ZM460.988 38.08L460.432 38.5839L460.438 38.5906L460.444 38.5972L460.988 38.08ZM467.388 47.826C464.087 47.826 461.141 47.1053 458.531 45.678L457.812 46.994C460.663 48.5534 463.861 49.326 467.388 49.326V47.826ZM458.539 45.6823C455.929 44.2143 453.872 42.1584 452.359 39.501L451.056 40.243C452.7 43.1323 454.952 45.3857 457.804 46.9897L458.539 45.6823ZM452.364 39.5086C450.898 36.8616 450.154 33.7901 450.154 30.272H448.654C448.654 34.0073 449.445 37.3357 451.051 40.2354L452.364 39.5086ZM450.154 30.272C450.154 26.7574 450.917 23.6886 452.423 21.043L451.12 20.301C449.468 23.2021 448.654 26.5333 448.654 30.272H450.154ZM452.419 21.0505C453.972 18.3937 456.07 16.359 458.719 14.9324L458.008 13.6116C455.111 15.1717 452.813 17.4037 451.124 20.2935L452.419 21.0505ZM458.727 14.9281C461.381 13.4584 464.347 12.718 467.643 12.718V11.218C464.113 11.218 460.893 12.0136 458 13.6159L458.727 14.9281ZM467.643 12.718C470.94 12.718 473.906 13.4584 476.56 14.9281L477.287 13.6159C474.394 12.0136 471.174 11.218 467.643 11.218V12.718ZM476.568 14.9324C479.216 16.358 481.29 18.3903 482.8 21.043L484.103 20.301C482.456 17.407 480.178 15.1726 477.279 13.6116L476.568 14.9324ZM482.804 21.0505C484.35 23.6948 485.134 26.7609 485.134 30.272H486.634C486.634 26.5298 485.796 23.1959 484.099 20.2935L482.804 21.0505ZM485.134 30.272C485.134 33.7796 484.33 36.843 482.744 39.4861L484.031 40.2579C485.773 37.3543 486.634 34.0177 486.634 30.272H485.134ZM482.74 39.4935C481.187 42.1492 479.068 44.207 476.372 45.6776L477.091 46.9944C480.027 45.393 482.345 43.1415 484.035 40.2505L482.74 39.4935ZM476.376 45.6756C473.722 47.1046 470.732 47.826 467.388 47.826V49.326C470.955 49.326 474.194 48.5541 477.087 46.9964L476.376 45.6756ZM467.388 41.518C469.133 41.518 470.771 41.1032 472.291 40.2744L471.572 38.9576C470.276 39.6648 468.885 40.018 467.388 40.018V41.518ZM472.297 40.2707C473.882 39.385 475.132 38.0821 476.047 36.3886L474.728 35.6754C473.936 37.1392 472.882 38.2256 471.566 38.9613L472.297 40.2707ZM476.047 36.3886C476.973 34.6755 477.418 32.6261 477.418 30.272H475.918C475.918 32.4406 475.508 34.2311 474.728 35.6754L476.047 36.3886ZM477.418 30.272C477.418 26.7703 476.484 23.972 474.51 21.9977L473.449 23.0583C475.059 24.668 475.918 27.0324 475.918 30.272H477.418ZM474.522 22.0104C472.63 20.0257 470.278 19.026 467.516 19.026V20.526C469.873 20.526 471.83 21.361 473.437 23.0456L474.522 22.0104ZM467.516 19.026C464.753 19.026 462.401 20.0257 460.509 22.0104L461.594 23.0456C463.201 21.361 465.158 20.526 467.516 20.526V19.026ZM460.508 22.0108C458.627 23.9863 457.742 26.7797 457.742 30.272H459.242C459.242 27.023 460.063 24.6537 461.595 23.0452L460.508 22.0108ZM457.742 30.272C457.742 33.761 458.604 36.568 460.432 38.5839L461.543 37.5761C460.043 35.9226 459.242 33.5243 459.242 30.272H457.742ZM460.444 38.5972C462.298 40.5435 464.63 41.518 467.388 41.518V40.018C465.025 40.018 463.09 39.2005 461.531 37.5628L460.444 38.5972ZM545.448 12.544L546.168 12.7545L546.449 11.794H545.448V12.544ZM535.08 48V48.75H535.642L535.8 48.2105L535.08 48ZM525.416 48L524.69 48.1894L524.837 48.75H525.416V48ZM518.952 23.232L519.678 23.0426L518.952 20.262L518.226 23.0426L518.952 23.232ZM512.488 48V48.75H513.067L513.214 48.1894L512.488 48ZM502.76 48L502.04 48.2117L502.199 48.75H502.76V48ZM492.328 12.544V11.794H491.326L491.608 12.7557L492.328 12.544ZM501.416 12.544L502.147 12.3743L502.012 11.794H501.416V12.544ZM507.688 39.552L506.957 39.7217L508.415 39.7347L507.688 39.552ZM514.472 12.544V11.794H513.887L513.745 12.3613L514.472 12.544ZM523.944 12.544L524.672 12.3641L524.531 11.794H523.944V12.544ZM530.6 39.488L529.872 39.6679L531.331 39.658L530.6 39.488ZM536.872 12.544V11.794H536.277L536.142 12.374L536.872 12.544ZM544.728 12.3335L534.36 47.7895L535.8 48.2105L546.168 12.7545L544.728 12.3335ZM535.08 47.25H525.416V48.75H535.08V47.25ZM526.142 47.8106L519.678 23.0426L518.226 23.4214L524.69 48.1894L526.142 47.8106ZM518.226 23.0426L511.762 47.8106L513.214 48.1894L519.678 23.4214L518.226 23.0426ZM512.488 47.25H502.76V48.75H512.488V47.25ZM503.48 47.7883L493.048 12.3323L491.608 12.7557L502.04 48.2117L503.48 47.7883ZM492.328 13.294H501.416V11.794H492.328V13.294ZM500.685 12.7137L506.957 39.7217L508.419 39.3823L502.147 12.3743L500.685 12.7137ZM508.415 39.7347L515.199 12.7267L513.745 12.3613L506.961 39.3693L508.415 39.7347ZM514.472 13.294H523.944V11.794H514.472V13.294ZM523.216 12.7239L529.872 39.6679L531.328 39.3081L524.672 12.3641L523.216 12.7239ZM531.331 39.658L537.602 12.714L536.142 12.374L529.87 39.318L531.331 39.658ZM536.872 13.294H545.448V11.794H536.872V13.294Z" fill="url(#paint0_linear_1707_14373)"/>
<defs>
<linearGradient id="paint0_linear_1707_14373" x1="113.627" y1="-95.1539" x2="85.0445" y2="75.7268" gradientUnits="userSpaceOnUse">
<stop stop-color="#2DD1DB"/>
<stop offset="0.60721" stop-color="#2D9CDB"/>
<stop offset="1" stop-color="#1A8ED0"/>
</linearGradient>
</defs>
</svg>
