<svg width="48" height="48" viewBox="0 0 48 48" fill="none" xmlns="http://www.w3.org/2000/svg">
<path d="M26.5 16.1001C26.2 16.1001 26 15.9001 26 15.6001V14.1001C26 13.8001 26.2 13.6001 26.5 13.6001C26.8 13.6001 27 13.8001 27 14.1001V15.6001C27 15.9001 26.8 16.1001 26.5 16.1001ZM29.6 15.9001C29.5 15.9001 29.4 15.9001 29.4 15.8001C29.2 15.7001 29.1 15.4001 29.2 15.1001L29.7 14.2001C29.8 14.0001 30.1 13.9001 30.4 14.0001C30.6 14.1001 30.7 14.4001 30.6 14.7001L30 15.7001C30 15.8001 29.8 15.9001 29.6 15.9001ZM32.1 18.4001C31.9 18.4001 31.8 18.3001 31.7 18.1001C31.6 17.9001 31.6 17.6001 31.9 17.4001L32.7 16.9001C32.9 16.8001 33.2 16.8001 33.4 17.1001C33.5 17.3001 33.5 17.6001 33.2 17.8001L32.4 18.3001C32.3 18.4001 32.2 18.4001 32.1 18.4001ZM33 25.4001C32.9 25.4001 32.8 25.4001 32.8 25.3001L31.9 24.8001C31.7 24.7001 31.6 24.4001 31.7 24.1001C31.8 23.9001 32.1 23.8001 32.4 23.9001L33.3 24.4001C33.5 24.5001 33.6 24.8001 33.5 25.1001C33.3 25.3001 33.2 25.4001 33 25.4001ZM34 21.6001H32C31.7 21.6001 31.5 21.4001 31.5 21.1001C31.5 20.8001 31.7 20.6001 32 20.6001H34C34.3 20.6001 34.5 20.8001 34.5 21.1001C34.5 21.4001 34.3 21.6001 34 21.6001ZM30.5 23.1001H27.5C27.4 23.1001 27.2 23.0001 27.1 22.9001C27 22.8001 27 22.7001 27 22.5001L27.8 18.5001C27.9 18.2001 28.1 18.1001 28.4 18.1001C28.7 18.2001 28.9 18.4001 28.8 18.7001L28.2 22.1001H30.6C30.9 22.1001 31.1 22.3001 31.1 22.6001C31.1 22.9001 30.8 23.1001 30.5 23.1001Z" fill="white" stroke="white" stroke-width="0.25"/>
<path d="M29.5004 24.0999C29.2004 24.0999 29.0004 23.8999 29.0004 23.5999V20.5999C29.0004 20.2999 29.2004 20.0999 29.5004 20.0999C29.8004 20.0999 30.0004 20.2999 30.0004 20.5999V23.5999C30.0004 23.8999 29.8004 24.0999 29.5004 24.0999ZM25.5004 24.0999H22.5004C22.3004 24.0999 22.1004 23.9999 22.0004 23.7999C21.9004 23.5999 22.0004 23.3999 22.1004 23.2999L24.7004 20.7999C24.9004 20.5999 25.0004 20.3999 25.0004 20.0999C25.0004 19.5999 24.5004 19.0999 24.0004 19.0999C23.5004 19.0999 23.0004 19.5999 23.0004 20.0999C23.0004 20.3999 22.8004 20.5999 22.5004 20.5999C22.2004 20.5999 22.0004 20.3999 22.0004 20.0999C22.0004 18.9999 22.9004 18.0999 24.0004 18.0999C25.1004 18.0999 26.0004 18.9999 26.0004 20.0999C26.0004 20.5999 25.8004 21.0999 25.4004 21.4999L23.7004 23.0999H25.4004C25.7004 23.0999 25.9004 23.2999 25.9004 23.5999C25.9004 23.8999 25.8004 24.0999 25.5004 24.0999ZM23.3004 15.9999C23.1004 15.9999 23.0004 15.8999 22.9004 15.6999L22.4004 14.8999C22.3004 14.6999 22.3004 14.3999 22.6004 14.1999C22.8004 14.0999 23.1004 14.0999 23.3004 14.3999L23.8004 15.1999C23.9004 15.3999 23.9004 15.6999 23.6004 15.8999C23.4004 15.9999 23.3004 15.9999 23.3004 15.9999Z" fill="white" stroke="white" stroke-width="0.25"/>
<path d="M27.5993 34.9C27.1993 34.9 26.8993 34.9 26.4993 34.7999C24.0993 34.1999 21.9993 33 20.2993 31.2999L16.1993 27.2C14.4993 25.5 13.2993 23.3 12.6993 21C12.2993 19.5 12.7993 17.8 13.8993 16.7L15.7993 14.8C16.3993 14.2 17.2993 14.2 17.8993 14.8L20.0993 17C20.5993 17.5 20.6993 18.3 20.2993 18.9L18.8993 21C18.4993 21.6 18.5993 22.4 19.0993 22.9L24.5993 28.4C25.0993 28.9 25.8993 29 26.4993 28.6L28.6993 27.1C29.2993 26.7 30.0993 26.8 30.5993 27.3L32.7993 29.5C33.3993 30.1 33.3993 31 32.7993 31.6L30.8993 33.5C29.8993 34.4 28.7993 34.9 27.5993 34.9ZM16.7993 15.2C16.6993 15.2 16.4993 15.2 16.3993 15.3L14.4993 17.2C13.5993 18.1 13.2993 19.3 13.5993 20.5C14.0993 22.7 15.2993 24.7 16.8993 26.2L20.9993 30.2999C22.5993 31.9 24.5993 32.9999 26.6993 33.5999C27.8993 33.8999 29.1993 33.5 29.9993 32.7L31.8993 30.7999C32.0993 30.5999 32.0993 30.3 31.8993 30.1L29.6993 27.9C29.4993 27.7 29.2993 27.7 29.0993 27.8L26.9993 29.4C25.9993 30.1 24.6993 29.9 23.7993 29.1L18.2993 23.6C17.4993 22.8 17.2993 21.4 17.9993 20.4L19.4993 18.2C19.5993 18 19.5993 17.7 19.3993 17.6L17.1993 15.4C17.0993 15.3 16.9993 15.2 16.7993 15.2ZM31.7993 26.9C31.6993 26.9 31.4993 26.9 31.3993 26.8C31.1993 26.6 31.1993 26.3 31.3993 26.1C32.6993 24.8 33.3993 23 33.3993 21.2C33.3993 17.3 30.2993 14.2 26.3993 14.2C24.4993 14.2 22.7993 14.9 21.4993 16.2L21.3993 16.3C21.1993 16.5 20.8993 16.4 20.6993 16.2C20.4993 16 20.4993 15.7 20.6993 15.5C22.1993 14 24.1993 13.2 26.2993 13.2C30.6993 13.2 34.2993 16.8 34.2993 21.2C34.2993 23.3 33.4993 25.3 31.9993 26.8C32.0993 26.9 31.8993 26.9 31.7993 26.9Z" fill="white" stroke="white" stroke-width="0.25"/>
<path d="M18.5992 20.8001C18.4992 20.8001 18.2992 20.8001 18.1992 20.7001L14.5992 17.2001C14.3992 17.0001 14.3992 16.7001 14.5992 16.5001C14.7992 16.3001 15.0992 16.3001 15.2992 16.5001L18.8992 20.0001C19.0992 20.2001 19.0992 20.5001 18.8992 20.7001C18.8992 20.7001 18.6992 20.8001 18.5992 20.8001ZM30.5992 32.8001C30.4992 32.8001 30.2992 32.8001 30.1992 32.7001L26.6992 29.2001C26.4992 29.0001 26.4992 28.7001 26.6992 28.5001C26.8992 28.3001 27.1992 28.3001 27.3992 28.5001L30.9992 32.0001C31.1992 32.2001 31.1992 32.5001 30.9992 32.7001C30.8992 32.8001 30.6992 32.8001 30.5992 32.8001Z" fill="white" stroke="white" stroke-width="0.25"/>
<path d="M24 45.75C12.0375 45.75 2.25 35.9625 2.25 24C2.25 12.0375 12.0375 2.25 24 2.25C35.9625 2.25 45.75 12.0375 45.75 24C45.75 35.9625 35.9625 45.75 24 45.75ZM24 3.15625C12.4906 3.15625 3.15625 12.4906 3.15625 24C3.15625 35.5094 12.4906 44.8438 24 44.8438C35.5094 44.8438 44.8438 35.5094 44.8438 24C44.8438 12.4906 35.5094 3.15625 24 3.15625Z" fill="white" stroke="white" stroke-width="0.25"/>
</svg>
