<svg width="48" height="48" viewBox="0 0 48 48" fill="none" xmlns="http://www.w3.org/2000/svg">
<path d="M24 0C10.751 0 0 10.751 0 24C0 37.249 10.751 48 24 48C37.249 48 48 37.249 48 24C48 10.751 37.249 0 24 0ZM24 1C36.708 1 47 11.291 47 24C47 36.709 36.708 47 24 47C11.292 47 1 36.709 1 24C1 11.291 11.292 1 24 1ZM22.148 9.475V9.482C22.0666 9.46826 21.9834 9.46826 21.902 9.482C21.689 9.52 21.62 9.599 21.537 9.666C21.4536 9.73513 21.3747 9.80962 21.301 9.889C21.146 10.052 20.983 10.247 20.822 10.439C20.662 10.632 20.502 10.823 20.377 10.961C20.3362 11.0058 20.2939 11.0492 20.25 11.091C20.203 11.091 20.148 11.081 20.072 11.072C19.889 11.047 19.647 11.004 19.4 10.961C19.154 10.918 18.905 10.874 18.682 10.85C18.5748 10.8371 18.4669 10.8311 18.359 10.832C18.253 10.832 18.148 10.821 17.961 10.93C17.774 11.039 17.736 11.135 17.681 11.227C17.627 11.319 17.582 11.412 17.537 11.516C17.447 11.722 17.357 11.962 17.271 12.199C17.185 12.436 17.101 12.67 17.031 12.844C17.001 12.917 16.976 12.971 16.955 13.014C16.8968 13.0308 16.8381 13.0458 16.779 13.059C16.599 13.099 16.357 13.142 16.111 13.186C15.865 13.23 15.614 13.276 15.396 13.33C15.288 13.357 15.187 13.385 15.088 13.424C14.988 13.463 14.886 13.484 14.748 13.65C14.61 13.816 14.608 13.92 14.588 14.025C14.568 14.13 14.556 14.233 14.548 14.345C14.534 14.571 14.534 14.827 14.533 15.08C14.533 15.333 14.533 15.582 14.525 15.77C14.522 15.85 14.515 15.907 14.51 15.955C14.472 15.983 14.426 16.018 14.36 16.061C14.203 16.161 13.988 16.285 13.771 16.412C13.555 16.539 13.337 16.669 13.151 16.795C13.0609 16.8544 12.9747 16.9195 12.893 16.99C12.813 17.061 12.725 17.116 12.653 17.318C12.58 17.52 12.611 17.619 12.627 17.725C12.643 17.83 12.67 17.931 12.701 18.039C12.763 18.256 12.849 18.497 12.934 18.734C13.018 18.972 13.102 19.206 13.158 19.384C13.182 19.461 13.198 19.518 13.209 19.564C13.183 19.604 13.149 19.655 13.099 19.719C12.986 19.867 12.829 20.056 12.668 20.25C12.508 20.444 12.347 20.642 12.215 20.824C12.1505 20.9107 12.0917 21.0016 12.039 21.096C11.988 21.19 11.924 21.272 11.924 21.486C11.924 21.7 11.988 21.783 12.039 21.877C12.09 21.971 12.149 22.057 12.215 22.148C12.347 22.331 12.508 22.528 12.668 22.723C12.828 22.917 12.986 23.106 13.1 23.253C13.148 23.318 13.183 23.368 13.209 23.408C13.1945 23.4686 13.1778 23.5286 13.159 23.588C13.102 23.766 13.019 24.001 12.934 24.238C12.849 24.475 12.764 24.715 12.701 24.932C12.6697 25.0357 12.645 25.1412 12.627 25.248C12.611 25.354 12.58 25.452 12.652 25.654C12.725 25.856 12.812 25.912 12.892 25.982C12.972 26.053 13.057 26.115 13.15 26.178C13.337 26.304 13.555 26.434 13.771 26.561C13.988 26.688 14.203 26.811 14.359 26.911C14.426 26.952 14.472 26.987 14.509 27.016C14.515 27.064 14.522 27.123 14.525 27.203C14.533 27.391 14.533 27.64 14.533 27.893C14.533 28.145 14.533 28.399 14.549 28.625C14.556 28.738 14.567 28.842 14.588 28.947C14.608 29.052 14.61 29.157 14.748 29.322C14.886 29.488 14.988 29.51 15.088 29.549C15.188 29.588 15.288 29.618 15.396 29.645C15.614 29.699 15.866 29.745 16.111 29.789C16.357 29.833 16.598 29.876 16.779 29.916C16.855 29.933 16.91 29.948 16.955 29.961C16.976 30.004 17.001 30.058 17.031 30.131C17.077 30.242 17.132 30.399 17.186 30.545L14.545 35.043C14.4908 35.135 14.4652 35.241 14.4716 35.3475C14.4779 35.4541 14.5158 35.5563 14.5806 35.6412C14.6453 35.7261 14.7338 35.7898 14.8349 35.8241C14.936 35.8585 15.045 35.8619 15.148 35.834L17.564 35.186L18.213 37.604C18.241 37.706 18.2985 37.7975 18.3783 37.8669C18.458 37.9364 18.5566 37.9807 18.6615 37.9944C18.7663 38.0081 18.8729 37.9905 18.9679 37.9438C19.0628 37.8971 19.1418 37.8234 19.195 37.732L21.687 33.418C21.74 33.448 21.803 33.475 21.902 33.492C22.116 33.53 22.208 33.48 22.309 33.445C22.409 33.41 22.505 33.368 22.605 33.318C22.807 33.218 23.027 33.092 23.245 32.967C23.461 32.841 23.674 32.716 23.838 32.629C23.907 32.593 23.957 32.568 24 32.549C24.043 32.568 24.094 32.593 24.162 32.629C24.326 32.716 24.539 32.841 24.756 32.967C24.973 33.092 25.193 33.219 25.395 33.318C25.495 33.368 25.59 33.41 25.691 33.445C25.792 33.48 25.884 33.53 26.098 33.492C26.1728 33.4802 26.245 33.4551 26.311 33.418L28.801 37.732C28.8542 37.8234 28.9332 37.8971 29.0281 37.9438C29.1231 37.9905 29.2297 38.0081 29.3345 37.9944C29.4394 37.9807 29.538 37.9364 29.6177 37.8669C29.6975 37.7975 29.755 37.706 29.783 37.604L30.432 35.188L32.846 35.836C32.9489 35.8634 33.0576 35.8595 33.1583 35.825C33.259 35.7904 33.3472 35.7267 33.4116 35.6419C33.476 35.5571 33.5138 35.4551 33.5201 35.3488C33.5264 35.2426 33.5009 35.1368 33.447 35.045L30.812 30.553C30.867 30.403 30.922 30.244 30.969 30.131C30.999 30.058 31.024 30.004 31.045 29.961C31.09 29.948 31.145 29.933 31.221 29.916C31.401 29.876 31.643 29.834 31.889 29.789C32.135 29.745 32.386 29.699 32.604 29.645C32.7087 29.6198 32.8116 29.5878 32.912 29.549C33.012 29.509 33.114 29.488 33.252 29.322C33.39 29.156 33.392 29.052 33.412 28.947C33.432 28.842 33.444 28.737 33.452 28.625C33.466 28.399 33.466 28.145 33.467 27.893C33.467 27.64 33.467 27.391 33.475 27.203C33.478 27.123 33.485 27.063 33.49 27.016C33.528 26.988 33.574 26.953 33.64 26.91C33.797 26.81 34.01 26.688 34.227 26.56C34.443 26.434 34.662 26.304 34.847 26.178C34.941 26.115 35.026 26.053 35.105 25.982C35.185 25.912 35.273 25.856 35.345 25.654C35.418 25.452 35.387 25.354 35.371 25.248C35.353 25.1412 35.3283 25.0357 35.297 24.932C35.2265 24.6983 35.1488 24.4669 35.064 24.238C34.9856 24.0226 34.911 23.8059 34.84 23.588C34.8212 23.5286 34.8045 23.4686 34.79 23.408C34.815 23.368 34.85 23.318 34.898 23.254C35.012 23.106 35.17 22.917 35.33 22.723C35.49 22.529 35.653 22.331 35.785 22.148C35.851 22.058 35.91 21.971 35.961 21.877C36.012 21.783 36.076 21.701 36.076 21.487C36.076 21.272 36.012 21.189 35.961 21.096C35.9083 21.0016 35.8495 20.9107 35.785 20.824C35.653 20.642 35.49 20.444 35.33 20.25C35.17 20.056 35.012 19.865 34.898 19.717C34.8599 19.6673 34.8236 19.6162 34.789 19.564C34.8 19.517 34.816 19.461 34.839 19.384C34.896 19.206 34.979 18.972 35.064 18.734C35.149 18.497 35.234 18.256 35.297 18.039C35.328 17.931 35.355 17.83 35.371 17.725C35.387 17.619 35.418 17.52 35.346 17.318C35.273 17.117 35.186 17.061 35.106 16.99C35.0244 16.9194 34.9382 16.8543 34.848 16.795C34.645 16.6609 34.4379 16.5332 34.227 16.412C34.01 16.285 33.797 16.161 33.641 16.061C33.5897 16.0275 33.5397 15.9922 33.491 15.955C33.485 15.907 33.478 15.849 33.475 15.77C33.467 15.582 33.467 15.333 33.467 15.08C33.467 14.827 33.467 14.571 33.451 14.346C33.4449 14.2386 33.4318 14.1317 33.412 14.026C33.392 13.921 33.39 13.816 33.252 13.65C33.114 13.484 33.012 13.463 32.912 13.424C32.812 13.384 32.712 13.357 32.604 13.33C32.3672 13.2747 32.1288 13.2266 31.889 13.186C31.643 13.142 31.402 13.098 31.221 13.059C31.1619 13.0458 31.1032 13.0308 31.045 13.014C31.0177 12.9582 30.9924 12.9015 30.969 12.844C30.899 12.67 30.815 12.436 30.729 12.199C30.6474 11.9687 30.5587 11.7409 30.463 11.516C30.4209 11.4163 30.3725 11.3195 30.318 11.226C30.264 11.136 30.225 11.038 30.039 10.93C29.852 10.82 29.747 10.834 29.641 10.832C29.534 10.832 29.43 10.842 29.318 10.85C29.095 10.874 28.846 10.918 28.6 10.96C28.353 11.004 28.111 11.048 27.928 11.072C27.852 11.082 27.797 11.088 27.75 11.092C27.7062 11.0498 27.6638 11.0061 27.623 10.961C27.4717 10.7895 27.3234 10.6155 27.178 10.439C27.017 10.247 26.852 10.049 26.698 9.887C26.6247 9.8082 26.5462 9.73437 26.463 9.666C26.38 9.599 26.312 9.518 26.098 9.48C25.884 9.442 25.792 9.49 25.691 9.525C25.591 9.56 25.495 9.605 25.395 9.655C25.193 9.755 24.973 9.88 24.755 10.005C24.539 10.132 24.326 10.257 24.162 10.344C24.094 10.38 24.043 10.401 24 10.42C23.957 10.4 23.907 10.38 23.838 10.344C23.674 10.257 23.461 10.132 23.244 10.006C23.0347 9.88205 22.8216 9.76466 22.605 9.654C22.5092 9.60472 22.4103 9.56163 22.309 9.525C22.259 9.508 22.211 9.487 22.149 9.475H22.148ZM22.086 10.529C22.113 10.541 22.129 10.545 22.162 10.561C22.319 10.639 22.528 10.757 22.742 10.881C22.956 11.005 23.174 11.133 23.369 11.236C23.467 11.288 23.559 11.336 23.65 11.373C23.743 11.411 23.817 11.455 24 11.455C24.183 11.455 24.255 11.411 24.348 11.373C24.4435 11.3318 24.5369 11.2861 24.628 11.236C24.824 11.133 25.044 11.005 25.258 10.881C25.472 10.757 25.681 10.638 25.838 10.561C25.871 10.544 25.887 10.541 25.914 10.529C25.936 10.55 25.949 10.559 25.974 10.586C26.096 10.713 26.254 10.9 26.412 11.09C26.572 11.28 26.732 11.476 26.881 11.64C26.955 11.723 27.024 11.796 27.098 11.863C27.171 11.931 27.225 11.997 27.396 12.061C27.568 12.124 27.652 12.108 27.752 12.104C27.852 12.104 27.953 12.089 28.062 12.074C28.282 12.044 28.531 11.999 28.773 11.957C29.016 11.914 29.254 11.874 29.428 11.855C29.465 11.855 29.48 11.856 29.51 11.845L29.547 11.924C29.617 12.086 29.704 12.315 29.789 12.549C29.874 12.783 29.959 13.023 30.043 13.229C30.085 13.331 30.126 13.425 30.172 13.514C30.218 13.603 30.246 13.683 30.385 13.801C30.524 13.919 30.608 13.932 30.703 13.963C30.798 13.993 30.896 14.019 31.003 14.043C31.22 14.091 31.468 14.133 31.711 14.178C31.954 14.222 32.191 14.265 32.361 14.307C32.399 14.317 32.414 14.324 32.443 14.332C32.447 14.363 32.45 14.38 32.453 14.42C32.465 14.597 32.466 14.84 32.467 15.09C32.467 15.339 32.467 15.594 32.477 15.816C32.481 15.928 32.487 16.03 32.5 16.129C32.513 16.228 32.513 16.313 32.604 16.471C32.694 16.628 32.767 16.671 32.846 16.732C32.924 16.794 33.008 16.852 33.102 16.912C33.288 17.032 33.508 17.158 33.721 17.283C33.934 17.408 34.141 17.533 34.287 17.631C34.32 17.653 34.332 17.665 34.357 17.684C34.35 17.714 34.347 17.732 34.336 17.771C34.287 17.941 34.206 18.172 34.123 18.406C34.039 18.64 33.953 18.878 33.887 19.09C33.8543 19.1896 33.8263 19.2907 33.803 19.393C33.782 19.491 33.753 19.57 33.783 19.748C33.814 19.926 33.869 19.991 33.922 20.076C33.975 20.161 34.036 20.246 34.104 20.334C34.238 20.51 34.4 20.704 34.559 20.894C34.717 21.086 34.871 21.275 34.975 21.418C34.999 21.451 35.008 21.468 35.025 21.494C35.008 21.521 34.999 21.537 34.975 21.57C34.871 21.713 34.717 21.9 34.559 22.092C34.4 22.283 34.239 22.478 34.104 22.654C34.036 22.742 33.974 22.824 33.922 22.908C33.869 22.993 33.814 23.062 33.783 23.24C33.753 23.418 33.782 23.498 33.803 23.596C33.823 23.694 33.853 23.79 33.887 23.896C33.954 24.108 34.039 24.348 34.123 24.582C34.207 24.816 34.287 25.047 34.336 25.217C34.347 25.256 34.35 25.274 34.357 25.305C34.332 25.324 34.32 25.335 34.287 25.357C34.1018 25.4786 33.9131 25.5946 33.721 25.705C33.508 25.83 33.288 25.957 33.101 26.076C33.008 26.136 32.924 26.192 32.846 26.254C32.767 26.316 32.694 26.358 32.604 26.516C32.514 26.673 32.514 26.756 32.5 26.856C32.4875 26.9603 32.4798 27.065 32.477 27.17C32.467 27.392 32.467 27.645 32.467 27.895C32.467 28.144 32.465 28.387 32.453 28.565C32.45 28.605 32.447 28.622 32.443 28.655C32.413 28.665 32.399 28.67 32.361 28.68C32.191 28.722 31.954 28.767 31.711 28.81C31.468 28.855 31.22 28.898 31.004 28.945C30.9028 28.9662 30.8027 28.9922 30.704 29.023C30.608 29.054 30.524 29.069 30.384 29.188C30.246 29.305 30.218 29.386 30.172 29.475C30.1246 29.568 30.0816 29.6631 30.043 29.76C29.959 29.966 29.874 30.206 29.789 30.44C29.704 30.673 29.618 30.9 29.547 31.062C29.531 31.099 29.522 31.112 29.507 31.141C29.479 31.141 29.464 31.141 29.427 31.131C29.2081 31.1033 28.99 31.0693 28.773 31.029C28.531 30.986 28.281 30.941 28.063 30.912C27.9599 30.8967 27.8561 30.8863 27.752 30.881C27.652 30.881 27.568 30.865 27.396 30.928C27.225 30.991 27.171 31.056 27.098 31.123C27.0223 31.1947 26.9499 31.2697 26.881 31.348C26.732 31.512 26.571 31.708 26.412 31.898C26.253 32.088 26.096 32.271 25.975 32.398L25.915 32.459C25.887 32.447 25.871 32.442 25.838 32.426C25.6416 32.3242 25.4482 32.2168 25.258 32.104C25.044 31.98 24.824 31.852 24.628 31.748C24.537 31.6983 24.4435 31.6533 24.348 31.613C24.255 31.575 24.183 31.531 24 31.531C23.817 31.531 23.743 31.575 23.65 31.613C23.5545 31.6542 23.4611 31.6999 23.37 31.75C23.174 31.854 22.956 31.982 22.742 32.105C22.528 32.229 22.319 32.348 22.162 32.425C22.129 32.442 22.113 32.447 22.086 32.459C22.064 32.438 22.051 32.426 22.026 32.399C21.904 32.271 21.746 32.089 21.588 31.899C21.428 31.709 21.268 31.512 21.119 31.348C21.0502 31.2697 20.9777 31.1946 20.902 31.123C20.829 31.056 20.775 30.991 20.604 30.928C20.432 30.865 20.348 30.877 20.248 30.881C20.148 30.881 20.047 30.897 19.938 30.912C19.718 30.942 19.469 30.987 19.227 31.029C18.984 31.072 18.746 31.112 18.572 31.131C18.536 31.131 18.522 31.131 18.492 31.141C18.478 31.113 18.469 31.1 18.453 31.063C18.383 30.9 18.296 30.673 18.211 30.439C18.126 30.206 18.041 29.966 17.957 29.759C17.9185 29.6624 17.8754 29.5676 17.828 29.475C17.782 29.385 17.754 29.305 17.615 29.187C17.476 29.069 17.392 29.054 17.297 29.023C17.1983 28.9922 17.0982 28.9662 16.997 28.945C16.78 28.897 16.532 28.855 16.289 28.811C16.046 28.767 15.809 28.721 15.639 28.68C15.601 28.67 15.586 28.664 15.557 28.654C15.553 28.622 15.55 28.604 15.547 28.564C15.535 28.387 15.534 28.144 15.533 27.894C15.533 27.645 15.533 27.392 15.523 27.17C15.5202 27.0647 15.5125 26.9596 15.5 26.855C15.487 26.756 15.487 26.673 15.396 26.515C15.306 26.358 15.233 26.315 15.154 26.254C15.0709 26.1905 14.9848 26.1311 14.896 26.076C14.71 25.957 14.491 25.83 14.277 25.706C14.064 25.58 13.857 25.456 13.711 25.357C13.678 25.335 13.666 25.324 13.641 25.305C13.648 25.274 13.651 25.255 13.662 25.217C13.711 25.047 13.792 24.816 13.875 24.582C13.959 24.348 14.045 24.108 14.111 23.896C14.145 23.79 14.174 23.694 14.195 23.596C14.216 23.498 14.245 23.418 14.215 23.24C14.184 23.062 14.129 22.993 14.076 22.908C14.0197 22.8205 13.9593 22.7357 13.895 22.654C13.76 22.478 13.597 22.284 13.439 22.092C13.282 21.901 13.129 21.713 13.025 21.57C13.001 21.537 12.992 21.521 12.975 21.494C12.992 21.467 13.001 21.451 13.025 21.418C13.129 21.275 13.282 21.086 13.439 20.895C13.597 20.703 13.759 20.508 13.895 20.332C13.962 20.244 14.023 20.161 14.076 20.076C14.129 19.991 14.184 19.926 14.215 19.748C14.246 19.57 14.216 19.49 14.195 19.393C14.1718 19.2907 14.1437 19.1896 14.111 19.09C14.044 18.878 13.959 18.64 13.875 18.406C13.7979 18.1964 13.7269 17.9847 13.662 17.771C13.651 17.732 13.648 17.715 13.641 17.684C13.666 17.664 13.678 17.653 13.711 17.631C13.856 17.531 14.064 17.408 14.277 17.283C14.491 17.158 14.71 17.031 14.897 16.913C14.99 16.853 15.076 16.794 15.154 16.733C15.233 16.67 15.306 16.628 15.396 16.471C15.486 16.313 15.486 16.228 15.5 16.129C15.513 16.029 15.519 15.928 15.523 15.816C15.533 15.594 15.533 15.339 15.533 15.09C15.533 14.84 15.535 14.597 15.547 14.42C15.549 14.38 15.553 14.364 15.557 14.332C15.587 14.322 15.601 14.316 15.639 14.307C15.809 14.265 16.046 14.222 16.289 14.177C16.532 14.134 16.78 14.091 16.996 14.043C17.0972 14.0212 17.1973 13.9945 17.296 13.963C17.392 13.932 17.476 13.919 17.616 13.801C17.754 13.683 17.782 13.602 17.828 13.514C17.874 13.424 17.915 13.331 17.957 13.229C18.041 13.023 18.126 12.783 18.211 12.549C18.296 12.315 18.382 12.086 18.453 11.924L18.49 11.846C18.52 11.846 18.535 11.846 18.572 11.856C18.746 11.874 18.984 11.914 19.227 11.957C19.469 12 19.719 12.045 19.937 12.074C20.047 12.089 20.148 12.101 20.248 12.105C20.348 12.105 20.432 12.124 20.604 12.061C20.775 11.998 20.829 11.933 20.902 11.865C20.9777 11.7937 21.0501 11.7189 21.119 11.641C21.268 11.476 21.429 11.281 21.588 11.09C21.747 10.9 21.904 10.714 22.025 10.586C22.051 10.559 22.065 10.55 22.085 10.529H22.086ZM24 12.998C19.311 12.998 15.5 16.809 15.5 21.498C15.5 26.187 19.311 29.998 24 29.998C28.689 29.998 32.5 26.187 32.5 21.498C32.5 16.809 28.689 12.998 24 12.998ZM24 13.941C24.9925 13.9402 25.9755 14.1352 26.8926 14.5147C27.8097 14.8942 28.6429 15.4508 29.3447 16.1528C30.0464 16.8547 30.6028 17.6881 30.9821 18.6053C31.3614 19.5225 31.5561 20.5055 31.555 21.498C31.5561 22.4904 31.3614 23.4733 30.9821 24.3904C30.6028 25.3075 30.0463 26.1408 29.3445 26.8425C28.6428 27.5443 27.8095 28.1008 26.8924 28.4801C25.9753 28.8594 24.9924 29.0541 24 29.053C23.0076 29.0541 22.0247 28.8594 21.1076 28.4801C20.1905 28.1008 19.3572 27.5443 18.6555 26.8425C17.9537 26.1408 17.3972 25.3075 17.0179 24.3904C16.6386 23.4733 16.4439 22.4904 16.445 21.498C16.4439 20.5055 16.6386 19.5225 17.0179 18.6053C17.3972 17.6881 17.9536 16.8547 18.6553 16.1528C19.3571 15.4508 20.1903 14.8942 21.1074 14.5147C22.0245 14.1352 23.0075 13.9402 24 13.941ZM23.977 16.711C23.676 16.711 23.545 16.866 23.445 16.975C23.3483 17.0843 23.2632 17.2032 23.191 17.33C23.036 17.589 22.884 17.9 22.736 18.215C22.588 18.53 22.444 18.849 22.324 19.09C22.264 19.21 22.21 19.313 22.17 19.379C22.162 19.392 22.158 19.396 22.15 19.406C22.14 19.406 22.135 19.416 22.121 19.416C22.046 19.435 21.934 19.456 21.801 19.476C21.534 19.52 21.188 19.562 20.841 19.609C20.496 19.656 20.151 19.709 19.857 19.781C19.7154 19.8125 19.5773 19.8584 19.445 19.918C19.312 19.981 19.126 20.058 19.035 20.344C18.944 20.63 19.049 20.801 19.121 20.93C19.193 21.058 19.281 21.165 19.381 21.28C19.579 21.507 19.829 21.748 20.084 21.986C20.339 22.225 20.598 22.46 20.791 22.648C20.887 22.742 20.968 22.825 21.018 22.883C21.026 22.893 21.027 22.897 21.033 22.906C21.033 22.919 21.036 22.924 21.035 22.939C21.0265 23.0485 21.0135 23.1576 20.996 23.266C20.954 23.532 20.888 23.872 20.826 24.215C20.764 24.558 20.706 24.9 20.684 25.201C20.672 25.351 20.669 25.491 20.687 25.637C20.707 25.783 20.722 25.983 20.967 26.158C21.211 26.333 21.406 26.284 21.551 26.256C21.6933 26.2247 21.8321 26.1788 21.965 26.119C22.243 26.001 22.55 25.839 22.855 25.669C23.161 25.501 23.464 25.328 23.703 25.203C23.823 25.141 23.927 25.092 23.998 25.063C24.013 25.053 24.018 25.053 24.031 25.053C24.141 25.0979 24.249 25.1473 24.355 25.201C24.596 25.323 24.899 25.491 25.207 25.656C25.515 25.821 25.824 25.983 26.104 26.098C26.244 26.155 26.374 26.201 26.52 26.228C26.665 26.256 26.86 26.302 27.102 26.123C27.344 25.945 27.36 25.744 27.377 25.598C27.3914 25.4537 27.3908 25.3082 27.375 25.164C27.349 24.864 27.285 24.52 27.219 24.178C27.153 23.835 27.084 23.496 27.039 23.23C27.0197 23.1226 27.0047 23.0146 26.994 22.906V22.875C27.07 22.7834 27.1501 22.6953 27.234 22.611C27.424 22.421 27.682 22.183 27.934 21.941C28.186 21.701 28.434 21.459 28.629 21.229C28.727 21.113 28.812 21.002 28.883 20.873C28.953 20.743 29.058 20.574 28.963 20.289C28.868 20.004 28.681 19.927 28.547 19.865C28.4132 19.8066 28.2739 19.762 28.131 19.732C27.8054 19.6638 27.4767 19.6118 27.146 19.576C26.8 19.533 26.452 19.494 26.186 19.456C26.0776 19.4403 25.9698 19.4203 25.863 19.396C25.85 19.396 25.847 19.386 25.836 19.386C25.828 19.376 25.823 19.372 25.814 19.359C25.7583 19.2661 25.7063 19.171 25.658 19.074C25.535 18.834 25.386 18.519 25.234 18.205C25.094 17.9042 24.9391 17.6105 24.77 17.325C24.6957 17.199 24.6086 17.0811 24.51 16.973C24.408 16.865 24.277 16.713 23.977 16.715V16.711ZM23.984 17.971C24.092 18.158 24.21 18.378 24.334 18.635C24.482 18.939 24.629 19.258 24.766 19.525C24.834 19.659 24.899 19.779 24.966 19.887C25.035 19.995 25.079 20.087 25.242 20.203C25.406 20.32 25.507 20.332 25.631 20.361C25.755 20.391 25.891 20.414 26.039 20.436C26.337 20.48 26.687 20.519 27.023 20.561C27.306 20.596 27.552 20.636 27.763 20.678C27.619 20.838 27.446 21.018 27.24 21.215C26.996 21.449 26.738 21.688 26.525 21.9C26.419 22.007 26.325 22.105 26.245 22.203C26.162 22.301 26.086 22.371 26.025 22.563C25.965 22.753 25.985 22.853 25.996 22.98C26.006 23.107 26.026 23.243 26.051 23.39C26.101 23.687 26.174 24.03 26.238 24.363C26.292 24.643 26.33 24.889 26.355 25.103C26.1268 25.0003 25.9023 24.8896 25.682 24.771C25.382 24.611 25.075 24.441 24.807 24.305C24.6846 24.2416 24.5595 24.1835 24.432 24.131C24.313 24.083 24.222 24.033 24.022 24.035C23.82 24.035 23.732 24.088 23.613 24.137C23.496 24.186 23.373 24.247 23.24 24.317C22.974 24.455 22.668 24.629 22.371 24.793C22.121 24.931 21.897 25.043 21.701 25.133C21.724 24.918 21.761 24.671 21.811 24.391C21.871 24.058 21.938 23.713 21.984 23.416C22.008 23.268 22.024 23.133 22.034 23.006C22.042 22.879 22.061 22.778 21.998 22.588C21.935 22.398 21.86 22.329 21.778 22.232C21.6864 22.1279 21.5903 22.0278 21.49 21.932C21.275 21.722 21.015 21.487 20.768 21.256C20.585 21.0854 20.4083 20.9083 20.238 20.725C20.45 20.681 20.696 20.635 20.978 20.598C21.314 20.552 21.662 20.511 21.959 20.463C22.107 20.439 22.242 20.413 22.365 20.383C22.489 20.352 22.592 20.34 22.754 20.221C22.916 20.101 22.957 20.009 23.024 19.901C23.09 19.791 23.154 19.67 23.221 19.535C23.354 19.266 23.499 18.947 23.643 18.641C23.763 18.383 23.879 18.159 23.984 17.971ZM17.704 31.791C17.75 31.873 17.797 31.957 17.961 32.053C18.148 32.162 18.253 32.147 18.359 32.15C18.466 32.15 18.57 32.14 18.682 32.133C18.905 32.109 19.154 32.065 19.4 32.021C19.647 31.978 19.889 31.935 20.072 31.911C20.148 31.901 20.203 31.895 20.25 31.891C20.284 31.924 20.324 31.964 20.377 32.021C20.502 32.16 20.661 32.351 20.822 32.543L20.902 32.635L18.914 36.08L18.463 34.396C18.4258 34.2587 18.3356 34.1417 18.2122 34.0709C18.0888 34 17.9424 33.981 17.805 34.018L16.135 34.465L17.703 31.791H17.704ZM30.293 31.801L31.859 34.471L30.189 34.023C30.0515 33.9867 29.9052 34.0064 29.7822 34.0778C29.6592 34.1493 29.5696 34.2666 29.533 34.404L29.082 36.084L27.094 32.643C27.122 32.609 27.15 32.581 27.178 32.547C27.338 32.354 27.498 32.164 27.623 32.025C27.6638 31.9802 27.7061 31.9368 27.75 31.895C27.797 31.895 27.852 31.907 27.928 31.915C28.111 31.939 28.353 31.982 28.6 32.025C28.846 32.068 29.095 32.112 29.318 32.137C29.43 32.149 29.534 32.157 29.641 32.154C29.747 32.154 29.852 32.166 30.039 32.057C30.1481 31.9999 30.2368 31.9105 30.293 31.801Z" fill="white"/>
</svg>
