<svg width="120" height="120" viewBox="0 0 120 120" fill="none" xmlns="http://www.w3.org/2000/svg">
<path d="M19.0689 71.2498C18.7703 71.2499 18.476 71.1792 18.2101 71.0436L3.91887 63.6823C3.47825 63.4555 3.14531 63.0636 2.99283 62.5921C2.84035 62.1206 2.88072 61.6079 3.10512 61.1661L19.8939 28.0048C20.0053 27.7846 20.1591 27.5886 20.3465 27.428C20.5339 27.2674 20.7511 27.1453 20.9858 27.0689C21.2204 26.9924 21.4679 26.963 21.7139 26.9823C21.9599 27.0017 22.1997 27.0694 22.4195 27.1817L36.0151 34.1192C36.4516 34.3413 36.7839 34.7254 36.9409 35.1893C37.0978 35.6532 37.0671 36.1602 36.8551 36.6017L20.7601 70.1792C20.6513 70.405 20.4986 70.6068 20.3109 70.773C20.1233 70.9391 19.9043 71.0661 19.667 71.1467C19.4743 71.2124 19.2724 71.2472 19.0689 71.2498ZM7.292 61.1998L18.212 66.8248L32.6832 36.6373L22.3895 31.3873L7.292 61.1998Z" fill="white"/>
<path d="M38.494 45.1579C38.1714 45.1578 37.8543 45.0745 37.5733 44.9161L32.1246 41.8467C31.91 41.7259 31.7213 41.5641 31.5693 41.3704C31.4172 41.1767 31.3048 40.9549 31.2385 40.7178C31.1722 40.4806 31.1532 40.2327 31.1827 39.9883C31.2121 39.7438 31.2894 39.5075 31.4102 39.2929C31.531 39.0783 31.6929 38.8896 31.8866 38.7376C32.0803 38.5856 32.302 38.4732 32.5391 38.4069C32.7763 38.3405 33.0242 38.3215 33.2686 38.351C33.5131 38.3805 33.7494 38.4578 33.964 38.5786L38.464 41.1117C40.2208 40.0467 44.0233 37.7536 46.4571 36.3792C50.4302 34.1292 53.2277 34.4386 56.4396 37.4817C56.7912 37.8258 56.9935 38.2942 57.0029 38.7861C57.0123 39.278 56.828 39.7539 56.4897 40.1111C56.1514 40.4683 55.6863 40.6782 55.1946 40.6957C54.703 40.7131 54.2242 40.5366 53.8615 40.2042C51.8665 38.3142 50.8277 38.2167 48.3021 39.6417C45.1746 41.4098 39.5327 44.8486 39.4746 44.8917C39.1785 45.069 38.8391 45.1611 38.494 45.1579Z" fill="white"/>
<path d="M87.8196 77.78C86.4534 77.8151 85.1055 77.4592 83.9346 76.7544C82.2096 75.6031 74.6196 68.1594 73.1159 66.68C72.7843 66.3271 72.6022 65.8597 72.6075 65.3755C72.6128 64.8914 72.8052 64.4281 73.1444 64.0826C73.4836 63.7371 73.9433 63.5362 74.4273 63.522C74.9112 63.5077 75.3819 63.6813 75.7409 64.0062C79.1159 67.3381 84.9059 72.8975 86.0102 73.6344C86.722 73.9633 87.5093 74.0943 88.2893 74.0138C89.0692 73.9333 89.8131 73.6442 90.4427 73.1769C90.7376 72.9212 90.9727 72.6039 91.1315 72.2474C91.2902 71.8909 91.3688 71.5039 91.3617 71.1137C91.3545 70.7235 91.2618 70.3397 91.0901 69.9892C90.9183 69.6388 90.6717 69.3303 90.3677 69.0856C88.4515 66.9294 80.4902 59.27 78.7427 57.59C72.6451 55.3549 66.732 52.6453 61.0577 49.4862L59.0852 50.7762C58.6424 52.832 57.4609 54.6539 55.7646 55.8969C55.1692 56.3659 54.478 56.6983 53.7399 56.8707C53.0019 57.0431 52.2349 57.0512 51.4934 56.8944C50.5935 56.7822 49.727 56.4835 48.9492 56.0173C48.1714 55.5511 47.4995 54.9276 46.9765 54.1869C45.9794 52.0565 45.8675 49.6177 46.6652 47.405C48.2646 41.0037 50.8596 39.3556 54.4502 37.0756L55.2396 36.5712C59.1959 34.0306 62.5915 32.6769 66.319 34.355C68.6365 35.3994 76.8621 38.585 79.1984 39.4887L87.0284 36.9219C87.4974 36.7792 88.0037 36.826 88.4387 37.0521C88.8737 37.2782 89.2028 37.6657 89.3556 38.1316C89.5083 38.5974 89.4725 39.1046 89.2559 39.5443C89.0392 39.9841 88.6589 40.3216 88.1965 40.4844L79.7309 43.2594C79.321 43.3931 78.8777 43.3825 78.4746 43.2294C78.0302 43.0569 67.5715 39.0331 64.7871 37.7769C63.1165 37.0269 61.3521 37.1037 57.2721 39.725L56.4659 40.2406C53.1902 42.32 51.5459 43.3662 50.3084 48.3144C49.6746 50.8494 49.9671 51.8769 50.1977 52.2519C50.494 52.7469 51.1802 52.9475 52.2734 53.2212C52.508 53.2608 52.7485 53.2476 52.9775 53.1828C53.2064 53.1179 53.4181 53.003 53.5971 52.8462C54.126 52.4478 54.5677 51.9453 54.895 51.3697C55.2223 50.7941 55.4283 50.1576 55.5002 49.4994C55.5247 49.2167 55.613 48.9433 55.7586 48.6997C55.9041 48.4561 56.1029 48.2487 56.3402 48.0931L59.9496 45.7325C60.2341 45.5475 60.5634 45.4431 60.9026 45.4306C61.2417 45.418 61.5779 45.4978 61.8752 45.6612C62.0027 45.7306 74.644 52.6437 80.1809 54.0987C80.4887 54.1809 80.771 54.3389 81.0021 54.5581C81.4071 54.9462 90.9396 64.0737 93.1784 66.5994C93.7987 67.1998 94.2906 67.9201 94.6242 68.7163C94.9579 69.5126 95.1263 70.3684 95.1193 71.2317C95.1123 72.095 94.93 72.9479 94.5834 73.7387C94.2369 74.5294 93.7334 75.2416 93.1034 75.8319C91.6607 77.1407 89.7666 77.839 87.8196 77.78Z" fill="white"/>
<path d="M91.7758 69.7172C91.3461 69.7169 90.9296 69.569 90.5959 69.2984C90.2623 69.0277 90.0317 68.6507 89.9427 68.2303C89.8538 67.81 89.9119 67.3719 90.1073 66.9893C90.3028 66.6066 90.6237 66.3028 91.0164 66.1284L97.5939 63.2147C97.82 63.1079 98.0651 63.0475 98.3149 63.0368C98.5647 63.0262 98.8141 63.0657 99.0485 63.1529C99.2828 63.2401 99.4973 63.3733 99.6794 63.5446C99.8615 63.7159 100.007 63.922 100.109 64.1506C100.21 64.3792 100.265 64.6257 100.269 64.8757C100.274 65.1257 100.228 65.374 100.136 65.6062C100.043 65.8384 99.9044 66.0496 99.7287 66.2275C99.5531 66.4054 99.3436 66.5464 99.1126 66.6422L92.5333 69.5634C92.2942 69.6667 92.0362 69.7191 91.7758 69.7172Z" fill="white"/>
<path d="M100.376 71.2499C100.003 71.2497 99.6377 71.1379 99.328 70.9287C99.0183 70.7196 98.7781 70.4227 98.6384 70.0761L84.4859 34.9649C84.3913 34.7307 84.345 34.4799 84.3497 34.2274C84.3544 33.9749 84.4101 33.7259 84.5134 33.4955C84.6168 33.2651 84.7656 33.0579 84.9509 32.8863C85.1363 32.7148 85.3544 32.5825 85.5921 32.4974L100.716 27.0861C101.173 26.9225 101.677 26.9428 102.119 27.1429C102.562 27.3429 102.91 27.7071 103.09 28.1586L116.965 62.9849C117.055 63.2151 117.1 63.461 117.095 63.7085C117.09 63.9559 117.037 64.2 116.937 64.4266C116.837 64.6532 116.694 64.8578 116.515 65.0288C116.336 65.1997 116.125 65.3334 115.894 65.4224L101.048 71.1186C100.834 71.2031 100.606 71.2476 100.376 71.2499ZM88.6877 35.3699L101.421 66.958L112.772 62.608L100.275 31.2261L88.6877 35.3699ZM79.3727 83.4674C77.8271 83.5137 76.3176 82.9943 75.1277 82.0067C72.6171 79.7755 66.1634 73.3255 65.8896 73.0517C65.5481 72.6981 65.3591 72.2245 65.3634 71.7329C65.3676 71.2412 65.5648 70.771 65.9125 70.4233C66.2601 70.0757 66.7304 69.8785 67.222 69.8742C67.7136 69.8699 68.1872 70.0589 68.5409 70.4005C68.6065 70.4661 75.1915 77.0474 77.6177 79.213C78.1206 79.5194 78.6901 79.6998 79.2777 79.739C79.8653 79.7782 80.4536 79.6749 80.9927 79.438C81.8732 79.1377 82.6542 78.6013 83.2507 77.8875C83.8472 77.1736 84.2362 76.3097 84.3752 75.3899C84.4171 75.1472 84.5063 74.9152 84.6379 74.707C84.7694 74.4988 84.9407 74.3186 85.1418 74.1766C85.343 74.0346 85.5702 73.9337 85.8104 73.8795C86.0506 73.8253 86.2991 73.8189 86.5418 73.8608C86.7845 73.9027 87.0165 73.9919 87.2247 74.1234C87.4328 74.255 87.6131 74.4262 87.755 74.6274C87.897 74.8286 87.998 75.0558 88.0522 75.296C88.1064 75.5362 88.1127 75.7847 88.0709 76.0274C87.816 77.6025 87.1392 79.0793 86.1125 80.3007C85.0858 81.5222 83.7475 82.4429 82.2396 82.9649C81.3189 83.2917 80.3498 83.4615 79.3727 83.4674Z" fill="white"/>
<path d="M70.6463 88.0123C69.1039 88.0781 67.5965 87.54 66.4444 86.5123L59.7844 79.8523L62.4375 77.1992L69.0976 83.8592C69.5097 84.0906 69.9658 84.2329 70.4364 84.2769C70.907 84.3208 71.3816 84.2654 71.8294 84.1142C72.6895 83.903 73.4771 83.4646 74.1097 82.8449C74.7424 82.2251 75.1969 81.4467 75.4257 80.5911C75.495 80.3524 75.6111 80.1299 75.7672 79.9365C75.9233 79.7431 76.1163 79.5827 76.335 79.4645C76.5537 79.3464 76.7936 79.2729 77.041 79.2484C77.2883 79.2238 77.538 79.2487 77.7757 79.3215C78.0133 79.3943 78.2341 79.5137 78.4252 79.6726C78.6163 79.8315 78.7738 80.0269 78.8888 80.2472C79.0037 80.4676 79.0736 80.7086 79.0946 80.9563C79.1155 81.204 79.087 81.4533 79.0107 81.6898C78.4891 83.5069 77.3918 85.1056 75.8838 86.2457C74.3759 87.3858 72.5386 88.0058 70.6482 88.0123H70.6463Z" fill="white"/>
<path d="M63.4988 93.0217C61.966 93.0543 60.467 92.5688 59.2444 91.6436C56.4825 89.433 54.1575 87.618 54.1538 87.6161C53.9557 87.466 53.7894 87.278 53.6646 87.063C53.5398 86.8481 53.459 86.6105 53.4269 86.364C53.3947 86.1176 53.4119 85.8672 53.4774 85.6274C53.543 85.3877 53.6555 85.1633 53.8085 84.9674C53.9615 84.7716 54.1519 84.6081 54.3686 84.4864C54.5854 84.3648 54.8242 84.2875 55.0711 84.259C55.318 84.2305 55.5681 84.2514 55.8069 84.3204C56.0456 84.3894 56.2683 84.5052 56.4619 84.6611C56.4619 84.6611 58.8038 86.4892 61.5881 88.7167C62.1814 89.0698 62.8561 89.2628 63.5463 89.277C64.2364 89.2911 64.9185 89.1258 65.5256 88.7973C66.0685 88.5639 66.5279 88.1715 66.8432 87.6717C67.1585 87.172 67.3149 86.5884 67.2919 85.998C67.2767 85.5009 67.4597 85.0182 67.8004 84.6561C68.1411 84.2939 68.6118 84.0819 69.1088 84.0667C69.6043 84.0579 70.0837 84.2432 70.4445 84.5831C70.8054 84.9229 71.0191 85.3903 71.04 85.8855C71.0842 87.1915 70.7439 88.4818 70.0612 89.5961C69.3786 90.7104 68.3837 91.5997 67.2 92.1536C66.0493 92.7232 64.7828 93.0203 63.4988 93.0217Z" fill="white"/>
<path d="M49.4476 92.1511C48.8382 92.1489 48.2351 92.0279 47.672 91.7949C46.1431 91.0447 44.8827 89.8413 44.0626 88.3486C42.732 88.6068 41.353 88.3996 40.157 87.7618C39.1537 87.1042 38.2913 86.2536 37.6198 85.2596C36.9483 84.2656 36.4813 83.148 36.2457 81.9718C36.1469 81.4929 36.2391 80.9943 36.5026 80.5824C38.027 78.2049 40.3257 74.5093 40.6689 73.7387C40.9776 73.1238 41.4156 72.583 41.9528 72.1533C42.49 71.7235 43.1138 71.4149 43.7814 71.2487C44.6894 71.0107 45.6392 70.9788 46.5612 71.1552C47.4832 71.3317 48.3541 71.7121 49.1101 72.2686C49.9479 72.8232 50.6207 73.5935 51.0576 74.4983C51.4945 75.4031 51.6793 76.4089 51.5926 77.4099C52.4844 77.4483 53.3577 77.6776 54.1534 78.0822C54.9491 78.4869 55.6487 79.0575 56.2051 79.7555C56.7455 80.6001 57.0905 81.5547 57.2147 82.5496C57.339 83.5445 57.2394 84.5546 56.9232 85.5062C55.9398 88.251 53.9206 90.5017 51.2982 91.7762C50.7127 92.0237 50.0834 92.1512 49.4476 92.1511ZM47.2201 86.2993C47.8089 87.2949 48.8607 88.7237 49.8451 88.313C51.4794 87.4618 52.7376 86.0318 53.3739 84.3024C53.499 83.9197 53.5469 83.5159 53.5147 83.1145C53.4826 82.7131 53.3709 82.3222 53.1864 81.9643C52.9011 81.6849 52.5625 81.4659 52.1907 81.3203C51.819 81.1747 51.4217 81.1055 51.0226 81.1168L47.2201 86.2993ZM40.112 81.893C40.4103 82.9348 41.0569 83.8429 41.9439 84.4655C42.2208 84.6076 42.5239 84.6914 42.8344 84.7117C43.145 84.732 43.4564 84.6884 43.7495 84.5837L47.7526 77.7212C47.9117 77.2971 47.9219 76.8315 47.7816 76.4008C47.6412 75.9701 47.3586 75.6 46.9801 75.3512C46.6922 75.1242 46.3599 74.96 46.0047 74.8693C45.6494 74.7785 45.2791 74.7632 44.9176 74.8243C44.5984 74.8769 44.3071 75.0378 44.0926 75.2799C43.5976 76.3768 41.2164 80.1568 40.112 81.893Z" fill="white"/>
<path d="M35.117 84.8227C34.6727 84.8239 34.2306 84.7608 33.8045 84.6352C30.5926 83.6695 29.3345 79.5108 29.2013 79.0402C29.1341 78.8014 29.1149 78.5517 29.1448 78.3055C29.1747 78.0593 29.2532 77.8215 29.3757 77.6058C30.9694 74.8374 32.7321 72.1699 34.6538 69.6183C35.6186 68.3632 37.0164 67.5128 38.5745 67.233C40.1326 66.9532 41.739 67.2642 43.0801 68.1052C44.8501 69.3333 46.1476 72.0052 43.9763 75.4964C43.8465 75.7057 43.6766 75.8874 43.4765 76.031C43.2764 76.1747 43.05 76.2775 42.8102 76.3337C42.5703 76.3898 42.3218 76.3982 42.0787 76.3583C41.8356 76.3184 41.6028 76.231 41.3935 76.1011C41.1842 75.9712 41.0026 75.8014 40.8589 75.6013C40.7153 75.4012 40.6124 75.1748 40.5563 74.9349C40.5001 74.6951 40.4918 74.4466 40.5317 74.2035C40.5716 73.9604 40.659 73.7276 40.7888 73.5183C41.2707 72.7402 41.6888 71.707 40.9407 71.1877C40.3939 70.889 39.758 70.797 39.149 70.9285C38.54 71.06 37.9986 71.4063 37.6238 71.9039C35.9767 74.0926 34.4525 76.3711 33.0582 78.7289C33.4688 79.7095 34.1682 80.8327 34.8826 81.0445C35.5145 81.232 36.3826 80.5833 36.8532 80.182C37.2297 79.8568 37.7199 79.6945 38.216 79.7307C38.7122 79.7669 39.1736 79.9987 39.4988 80.3752C39.8241 80.7516 39.9864 81.2418 39.9502 81.738C39.914 82.2341 39.6822 82.6956 39.3057 83.0208C38.1784 84.1158 36.6872 84.7573 35.117 84.8227Z" fill="white"/>
<path d="M31.0015 80.4012C30.7954 80.4009 30.5908 80.3667 30.3959 80.2999C30.079 80.1931 22.6052 77.5812 22.6052 71.7274C22.605 71.5308 22.6354 71.3354 22.6952 71.1481C23.3736 69.281 24.3028 67.5148 25.4571 65.8981C26.3161 64.8716 27.5026 64.1725 28.8167 63.9184C30.1308 63.6643 31.4924 63.8708 32.6721 64.5031C33.7826 64.9952 34.6683 65.8858 35.1543 66.999C35.6402 68.1122 35.6912 69.3672 35.2971 70.5162C34.0709 74.4649 32.8127 78.9781 32.7996 79.0249C32.6895 79.4192 32.4534 79.7665 32.1274 80.014C31.8014 80.2615 31.4033 80.3955 30.994 80.3956L31.0015 80.4012ZM26.3702 72.0181C26.5577 73.7731 28.354 75.1081 29.794 75.9087C30.2834 74.1987 31.009 71.7106 31.7215 69.4099C31.7869 69.2638 31.8203 69.1054 31.8196 68.9453C31.8189 68.7851 31.784 68.627 31.7172 68.4815C31.6505 68.336 31.5535 68.2063 31.4326 68.1013C31.3118 67.9963 31.1699 67.9182 31.0165 67.8724C30.6291 67.6539 30.1856 67.5551 29.7421 67.5884C29.2986 67.6218 28.8749 67.7859 28.5246 68.0599C27.6553 69.2912 26.9323 70.6195 26.3702 72.0181Z" fill="white"/>
<path d="M26.0194 70.3649C25.6419 70.3644 25.2734 70.2501 24.9619 70.0367L20.0438 66.6617C19.6333 66.3808 19.3512 65.9482 19.2596 65.4593C19.168 64.9704 19.2744 64.4651 19.5554 64.0545C19.8363 63.644 20.2689 63.362 20.7578 63.2704C21.2467 63.1788 21.752 63.2851 22.1626 63.5661L27.0807 66.9411C27.412 67.1672 27.662 67.4935 27.7941 67.8722C27.9263 68.2508 27.9335 68.6619 27.8147 69.045C27.696 69.4281 27.4576 69.763 27.1344 70.0005C26.8113 70.2381 26.4205 70.3658 26.0194 70.3649Z" fill="white"/>
</svg>
