<svg width="16" height="16" viewBox="0 0 16 16" fill="none" xmlns="http://www.w3.org/2000/svg">
<path d="M4.66602 7.33333H5.99935V8.66666H4.66602V7.33333ZM4.66602 9.99999H5.99935V11.3333H4.66602V9.99999ZM7.33268 7.33333H8.66602V8.66666H7.33268V7.33333ZM7.33268 9.99999H8.66602V11.3333H7.33268V9.99999ZM9.99935 7.33333H11.3327V8.66666H9.99935V7.33333ZM9.99935 9.99999H11.3327V11.3333H9.99935V9.99999Z" fill="#2D9CDB"/>
<path d="M3.33333 14.6667H12.6667C13.402 14.6667 14 14.0687 14 13.3333V3.99999C14 3.26466 13.402 2.66666 12.6667 2.66666H11.3333V1.33333H10V2.66666H6V1.33333H4.66667V2.66666H3.33333C2.598 2.66666 2 3.26466 2 3.99999V13.3333C2 14.0687 2.598 14.6667 3.33333 14.6667ZM12.6667 5.33333L12.6673 13.3333H3.33333V5.33333H12.6667Z" fill="#2D9CDB"/>
</svg>
