<svg width="94" height="129" viewBox="0 0 94 129" fill="none" xmlns="http://www.w3.org/2000/svg">
<path d="M-35.172 74.8274L-42.7518 74.8185L-42.8223 134.659C-42.827 138.627 -41.2343 142.434 -38.3947 145.243C-35.555 148.052 -31.701 149.632 -27.6804 149.637L10.2186 149.682L10.3068 74.881L-35.172 74.8274ZM63.3653 74.9435L25.4663 74.8989L25.3782 149.699L63.2771 149.744C67.2977 149.749 71.1555 148.177 74.0018 145.375C76.848 142.573 78.4497 138.77 78.4544 134.802L78.5249 74.9614L63.3653 74.9435ZM69.405 37.5503C70.521 33.9147 71.0598 30.1305 71.0024 26.3321C71.0194 11.8956 59.133 0.137843 44.504 0.120602C32.2096 0.106112 23.9876 11.1819 18.6752 23.1662C13.466 11.8277 4.85408 0.0738708 -8.55458 0.0580675C-23.1836 0.0408259 -35.0977 11.7705 -35.1147 26.207C-35.12 30.6651 -34.5255 34.3535 -33.5438 37.429L-57.8673 37.4003L-57.9026 67.3205L10.3156 67.4009L10.3332 52.4408L25.4928 52.4587L25.4751 67.4188L93.6933 67.4992L93.7286 37.579L69.405 37.5503ZM-19.9551 26.2249C-19.9478 20.0389 -14.8407 15.0108 -8.57221 15.0182C-1.84135 15.0261 4.40611 26.4406 8.06173 37.478L-12.3886 37.4539C-15.2234 37.4506 -19.9684 37.445 -19.9551 26.2249ZM44.4863 15.0807C50.7548 15.0881 55.8501 20.1282 55.8428 26.3142C55.8296 37.5343 51.0846 37.5287 48.2498 37.5254L29.4746 37.5032C33.3542 25.7192 38.9834 15.0742 44.4863 15.0807Z" fill="white" fill-opacity="0.2"/>
</svg>
